<?xml version="1.0" encoding="UTF-8" standalone="no"?>
<svg
   xmlns:dc="http://purl.org/dc/elements/1.1/"
   xmlns:cc="http://creativecommons.org/ns#"
   xmlns:rdf="http://www.w3.org/1999/02/22-rdf-syntax-ns#"
   xmlns:svg="http://www.w3.org/2000/svg"
   xmlns="http://www.w3.org/2000/svg"
   xmlns:xlink="http://www.w3.org/1999/xlink"
   xmlns:sodipodi="http://sodipodi.sourceforge.net/DTD/sodipodi-0.dtd"
   xmlns:inkscape="http://www.inkscape.org/namespaces/inkscape"
   sodipodi:docname="science_center_path.svg"
   height="5808"
   width="5796"
   inkscape:version="0.48.3.1 r9886"
   id="svg2"
   version="1.1">
  <sodipodi:namedview
     pagecolor="#ffffff"
     bordercolor="#666666"
     borderopacity="1"
     objecttolerance="10"
     gridtolerance="10"
     guidetolerance="10"
     inkscape:pageopacity="0"
     inkscape:pageshadow="2"
     inkscape:window-width="1535"
     inkscape:window-height="876"
     id="namedview32"
     showgrid="false"
     inkscape:zoom="0.37160615"
     inkscape:cx="3786.1392"
     inkscape:cy="3548.427"
     inkscape:window-x="65"
     inkscape:window-y="24"
     inkscape:window-maximized="1"
     inkscape:current-layer="svg2"
     showguides="true"
     inkscape:guide-bbox="true" />
  <metadata
     id="metadata36">
    <rdf:RDF>
      <cc:Work
         rdf:about="">
        <dc:format>image/svg+xml</dc:format>
        <dc:type
           rdf:resource="http://purl.org/dc/dcmitype/StillImage" />
        <dc:title>Paths of the golfcar</dc:title>
      </cc:Work>
    </rdf:RDF>
  </metadata>
  <defs
     id="defs34">
    <marker
       inkscape:stockid="Arrow1Send"
       orient="auto"
       refY="0.0"
       refX="0.0"
       id="Arrow1Send"
       style="overflow:visible;">
      <path
         id="path6236"
         d="M 0.0,0.0 L 5.0,-5.0 L -12.5,0.0 L 5.0,5.0 L 0.0,0.0 z "
         style="fill-rule:evenodd;stroke:#000000;stroke-width:1.0pt;marker-start:none;"
         transform="scale(0.2) rotate(180) translate(6,0)" />
    </marker>
    <marker
       inkscape:stockid="Arrow1Sstart"
       orient="auto"
       refY="0.0"
       refX="0.0"
       id="Arrow1Sstart"
       style="overflow:visible">
      <path
         id="path6233"
         d="M 0.0,0.0 L 5.0,-5.0 L -12.5,0.0 L 5.0,5.0 L 0.0,0.0 z "
         style="fill-rule:evenodd;stroke:#000000;stroke-width:1.0pt;marker-start:none"
         transform="scale(0.2) translate(6,0)" />
    </marker>
    <inkscape:path-effect
       steps="5"
       equidistant_spacing="true"
       trajectory="M 0,0 0,0"
       is_visible="true"
       id="path-effect3660"
       effect="interpolate" />
    <inkscape:path-effect
       phi="5"
       teeth="10"
       is_visible="true"
       id="path-effect3658"
       effect="gears" />
    <marker
       style="overflow:visible"
       id="DotM"
       refX="0.0"
       refY="0.0"
       orient="auto"
       inkscape:stockid="DotM">
      <path
         transform="scale(0.4) translate(7.4, 1)"
         style="fill-rule:evenodd;stroke:#000000;stroke-width:1.0pt;marker-start:none;marker-end:none"
         d="M -2.5,-1.0 C -2.5,1.7600000 -4.7400000,4.0 -7.5,4.0 C -10.260000,4.0 -12.5,1.7600000 -12.5,-1.0 C -12.5,-3.7600000 -10.260000,-6.0 -7.5,-6.0 C -4.7400000,-6.0 -2.5,-3.7600000 -2.5,-1.0 z "
         id="path3704" />
    </marker>
    <marker
       style="overflow:visible"
       id="DotL"
       refX="0.0"
       refY="0.0"
       orient="auto"
       inkscape:stockid="DotL">
      <path
         transform="scale(0.8) translate(7.4, 1)"
         style="fill-rule:evenodd;stroke:#000000;stroke-width:1.0pt;marker-start:none;marker-end:none"
         d="M -2.5,-1.0 C -2.5,1.7600000 -4.7400000,4.0 -7.5,4.0 C -10.260000,4.0 -12.5,1.7600000 -12.5,-1.0 C -12.5,-3.7600000 -10.260000,-6.0 -7.5,-6.0 C -4.7400000,-6.0 -2.5,-3.7600000 -2.5,-1.0 z "
         id="path3701" />
    </marker>
    <marker
       style="overflow:visible;"
       id="Arrow1Lend"
       refX="0.0"
       refY="0.0"
       orient="auto"
       inkscape:stockid="Arrow1Lend">
      <path
         transform="scale(0.8) rotate(180) translate(12.5,0)"
         style="fill-rule:evenodd;stroke:#000000;stroke-width:1.0pt;marker-start:none;"
         d="M 0.0,0.0 L 5.0,-5.0 L -12.5,0.0 L 5.0,5.0 L 0.0,0.0 z "
         id="path3642" />
    </marker>
    <marker
       style="overflow:visible"
       id="Arrow1Lstart"
       refX="0.0"
       refY="0.0"
       orient="auto"
       inkscape:stockid="Arrow1Lstart">
      <path
         transform="scale(0.8) translate(12.5,0)"
         style="fill-rule:evenodd;stroke:#000000;stroke-width:1.0pt;marker-start:none"
         d="M 0.0,0.0 L 5.0,-5.0 L -12.5,0.0 L 5.0,5.0 L 0.0,0.0 z "
         id="path3639" />
    </marker>
    <inkscape:path-effect
       crossing_points_vector=""
       switcher_size="15"
       add_other_stroke_width="true"
       add_stroke_width="true"
       prop_to_stroke_width="true"
       interruption_width="3.6"
       is_visible="true"
       id="path-effect2862"
       effect="knot" />
    <inkscape:path-effect
       crossing_points_vector=""
       switcher_size="15"
       add_other_stroke_width="true"
       add_stroke_width="true"
       prop_to_stroke_width="true"
       interruption_width="3"
       is_visible="true"
       id="path-effect2860"
       effect="knot" />
    <inkscape:path-effect
       steps="5"
       equidistant_spacing="true"
       trajectory="M 0,0 0,0"
       is_visible="true"
       id="path-effect2858"
       effect="interpolate" />
    <inkscape:path-effect
       bendpath4="m 1068.3624,2136.3724 0,121.4273"
       bendpath3="m 1068.3624,2257.7997 48.7175,0"
       bendpath2="m 1117.0799,2136.3724 0,121.4273"
       bendpath1="m 1068.3624,2136.3724 48.7175,0"
       xx="true"
       yy="true"
       is_visible="true"
       id="path-effect2856"
       effect="envelope" />
    <inkscape:path-effect
       tgtlength_rdm="0.3;1"
       tgtlength="100"
       tgtscale="10"
       tgt_places_rdmness="1;1"
       nbtangents="5"
       tremble_frequency="1"
       tremble_size="5;1"
       parallel_offset="5;1"
       ends_tolerance="0.1;1"
       strokeoverlap_rdm="0.3;1"
       strokeoverlap="0.3"
       strokelength_rdm="0.3;1"
       strokelength="100"
       nbiter_approxstrokes="5"
       is_visible="true"
       id="path-effect2854"
       effect="sketch" />
    <inkscape:path-effect
       border_marks="both"
       mark_dir="left"
       offset="0"
       shift="0"
       major_mark_steps="5"
       minor_mark_length="7"
       mark_length="14"
       mark_distance="20"
       unit="px"
       is_visible="true"
       id="path-effect2852"
       effect="ruler" />
    <inkscape:path-effect
       border_marks="both"
       mark_dir="left"
       offset="0"
       shift="0"
       major_mark_steps="5"
       minor_mark_length="7"
       mark_length="14"
       mark_distance="20"
       unit="px"
       is_visible="true"
       id="path-effect2850"
       effect="ruler" />
    <inkscape:path-effect
       phi="5"
       teeth="10"
       is_visible="true"
       id="path-effect2848"
       effect="gears" />
    <inkscape:perspective
       id="perspective38"
       inkscape:persp3d-origin="1528.5 : 1178.6667 : 1"
       inkscape:vp_z="3057 : 1768 : 1"
       inkscape:vp_y="0 : 1000 : 0"
       inkscape:vp_x="0 : 1768 : 1"
       sodipodi:type="inkscape:persp3d" />
    <inkscape:perspective
       sodipodi:type="inkscape:persp3d"
       inkscape:vp_x="0 : 0.5 : 1"
       inkscape:vp_y="0 : 1000 : 0"
       inkscape:vp_z="1 : 0.5 : 1"
       inkscape:persp3d-origin="0.5 : 0.33333333 : 1"
       id="perspective2947" />
    <inkscape:perspective
       sodipodi:type="inkscape:persp3d"
       inkscape:vp_x="0 : 0.5 : 1"
       inkscape:vp_y="0 : 1000 : 0"
       inkscape:vp_z="1 : 0.5 : 1"
       inkscape:persp3d-origin="0.5 : 0.33333333 : 1"
       id="perspective2824" />
    <inkscape:perspective
       sodipodi:type="inkscape:persp3d"
       inkscape:vp_x="0 : 0.5 : 1"
       inkscape:vp_y="0 : 1000 : 0"
       inkscape:vp_z="1 : 0.5 : 1"
       inkscape:persp3d-origin="0.5 : 0.33333333 : 1"
       id="perspective2960" />
    <inkscape:perspective
       sodipodi:type="inkscape:persp3d"
       inkscape:vp_x="0 : 0.5 : 1"
       inkscape:vp_y="0 : 1000 : 0"
       inkscape:vp_z="1 : 0.5 : 1"
       inkscape:persp3d-origin="0.5 : 0.33333333 : 1"
       id="perspective3024" />
    <inkscape:perspective
       sodipodi:type="inkscape:persp3d"
       inkscape:vp_x="0 : 0.5 : 1"
       inkscape:vp_y="0 : 1000 : 0"
       inkscape:vp_z="1 : 0.5 : 1"
       inkscape:persp3d-origin="0.5 : 0.33333333 : 1"
       id="perspective3088" />
    <inkscape:perspective
       sodipodi:type="inkscape:persp3d"
       inkscape:vp_x="0 : 0.5 : 1"
       inkscape:vp_y="0 : 1000 : 0"
       inkscape:vp_z="1 : 0.5 : 1"
       inkscape:persp3d-origin="0.5 : 0.33333333 : 1"
       id="perspective3152" />
    <inkscape:perspective
       sodipodi:type="inkscape:persp3d"
       inkscape:vp_x="0 : 0.5 : 1"
       inkscape:vp_y="0 : 1000 : 0"
       inkscape:vp_z="1 : 0.5 : 1"
       inkscape:persp3d-origin="0.5 : 0.33333333 : 1"
       id="perspective3216" />
    <inkscape:perspective
       sodipodi:type="inkscape:persp3d"
       inkscape:vp_x="0 : 0.5 : 1"
       inkscape:vp_y="0 : 1000 : 0"
       inkscape:vp_z="1 : 0.5 : 1"
       inkscape:persp3d-origin="0.5 : 0.33333333 : 1"
       id="perspective3280" />
    <inkscape:perspective
       sodipodi:type="inkscape:persp3d"
       inkscape:vp_x="0 : 0.5 : 1"
       inkscape:vp_y="0 : 1000 : 0"
       inkscape:vp_z="1 : 0.5 : 1"
       inkscape:persp3d-origin="0.5 : 0.33333333 : 1"
       id="perspective3344" />
    <inkscape:perspective
       sodipodi:type="inkscape:persp3d"
       inkscape:vp_x="0 : 0.5 : 1"
       inkscape:vp_y="0 : 1000 : 0"
       inkscape:vp_z="1 : 0.5 : 1"
       inkscape:persp3d-origin="0.5 : 0.33333333 : 1"
       id="perspective3408" />
    <inkscape:perspective
       sodipodi:type="inkscape:persp3d"
       inkscape:vp_x="0 : 0.5 : 1"
       inkscape:vp_y="0 : 1000 : 0"
       inkscape:vp_z="1 : 0.5 : 1"
       inkscape:persp3d-origin="0.5 : 0.33333333 : 1"
       id="perspective3628" />
    <inkscape:perspective
       sodipodi:type="inkscape:persp3d"
       inkscape:vp_x="0 : 0.5 : 1"
       inkscape:vp_y="0 : 1000 : 0"
       inkscape:vp_z="1 : 0.5 : 1"
       inkscape:persp3d-origin="0.5 : 0.33333333 : 1"
       id="perspective2848" />
    <inkscape:perspective
       sodipodi:type="inkscape:persp3d"
       inkscape:vp_x="0 : 0.5 : 1"
       inkscape:vp_y="0 : 1000 : 0"
       inkscape:vp_z="1 : 0.5 : 1"
       inkscape:persp3d-origin="0.5 : 0.33333333 : 1"
       id="perspective3658" />
    <inkscape:perspective
       sodipodi:type="inkscape:persp3d"
       inkscape:vp_x="0 : 0.5 : 1"
       inkscape:vp_y="0 : 1000 : 0"
       inkscape:vp_z="1 : 0.5 : 1"
       inkscape:persp3d-origin="0.5 : 0.33333333 : 1"
       id="perspective3691" />
    <inkscape:perspective
       sodipodi:type="inkscape:persp3d"
       inkscape:vp_x="0 : 0.5 : 1"
       inkscape:vp_y="0 : 1000 : 0"
       inkscape:vp_z="1 : 0.5 : 1"
       inkscape:persp3d-origin="0.5 : 0.33333333 : 1"
       id="perspective3713" />
    <inkscape:perspective
       sodipodi:type="inkscape:persp3d"
       inkscape:vp_x="0 : 0.5 : 1"
       inkscape:vp_y="0 : 1000 : 0"
       inkscape:vp_z="1 : 0.5 : 1"
       inkscape:persp3d-origin="0.5 : 0.33333333 : 1"
       id="perspective3735" />
    <inkscape:perspective
       sodipodi:type="inkscape:persp3d"
       inkscape:vp_x="0 : 0.5 : 1"
       inkscape:vp_y="0 : 1000 : 0"
       inkscape:vp_z="1 : 0.5 : 1"
       inkscape:persp3d-origin="0.5 : 0.33333333 : 1"
       id="perspective3757" />
    <inkscape:perspective
       sodipodi:type="inkscape:persp3d"
       inkscape:vp_x="0 : 0.5 : 1"
       inkscape:vp_y="0 : 1000 : 0"
       inkscape:vp_z="1 : 0.5 : 1"
       inkscape:persp3d-origin="0.5 : 0.33333333 : 1"
       id="perspective2910" />
    <marker
       style="overflow:visible"
       id="DotM-1"
       refX="0"
       refY="0"
       orient="auto"
       inkscape:stockid="DotM">
      <path
         transform="matrix(0.4,0,0,0.4,2.96,0.4)"
         style="fill-rule:evenodd;stroke:#000000;stroke-width:1pt;marker-start:none;marker-end:none"
         d="m -2.5,-1 c 0,2.76 -2.24,5 -5,5 -2.76,0 -5,-2.24 -5,-5 0,-2.76 2.24,-5 5,-5 2.76,0 5,2.24 5,5 z"
         id="path3704-5" />
    </marker>
    <inkscape:perspective
       sodipodi:type="inkscape:persp3d"
       inkscape:vp_x="0 : 0.5 : 1"
       inkscape:vp_y="0 : 1000 : 0"
       inkscape:vp_z="1 : 0.5 : 1"
       inkscape:persp3d-origin="0.5 : 0.33333333 : 1"
       id="perspective3012" />
    <inkscape:perspective
       sodipodi:type="inkscape:persp3d"
       inkscape:vp_x="0 : 0.5 : 1"
       inkscape:vp_y="0 : 1000 : 0"
       inkscape:vp_z="1 : 0.5 : 1"
       inkscape:persp3d-origin="0.5 : 0.33333333 : 1"
       id="perspective2903" />
    <marker
       style="overflow:visible"
       id="DotM-5"
       refX="0"
       refY="0"
       orient="auto"
       inkscape:stockid="DotM">
      <path
         transform="matrix(0.4,0,0,0.4,2.96,0.4)"
         style="fill-rule:evenodd;stroke:#000000;stroke-width:1pt;marker-start:none;marker-end:none"
         d="m -2.5,-1 c 0,2.76 -2.24,5 -5,5 -2.76,0 -5,-2.24 -5,-5 0,-2.76 2.24,-5 5,-5 2.76,0 5,2.24 5,5 z"
         id="path3704-9" />
    </marker>
    <inkscape:perspective
       sodipodi:type="inkscape:persp3d"
       inkscape:vp_x="0 : 0.5 : 1"
       inkscape:vp_y="0 : 1000 : 0"
       inkscape:vp_z="1 : 0.5 : 1"
       inkscape:persp3d-origin="0.5 : 0.33333333 : 1"
       id="perspective2889" />
    <filter
       id="filter3830"
       inkscape:label="Colorize"
       inkscape:menu="Color"
       inkscape:menu-tooltip="Blend image or object with a flood color and set lightness and contrast"
       x="0"
       y="0"
       width="1"
       height="1"
       color-interpolation-filters="sRGB">
      <feColorMatrix
         id="feColorMatrix3832"
         values="1"
         in="SourceGraphic"
         type="saturate"
         result="result2" />
      <feFlood
         id="feFlood3834"
         flood-color="rgb(254,102,0)"
         flood-opacity="1"
         result="result1" />
      <feBlend
         id="feBlend3836"
         in2="result2"
         mode="multiply"
         in="result1"
         result="result3" />
      <feComposite
         id="feComposite3838"
         in2="SourceGraphic"
         operator="in"
         k2="1"
         result="result4" />
    </filter>
    <marker
       style="overflow:visible"
       id="DotM-7"
       refX="0"
       refY="0"
       orient="auto"
       inkscape:stockid="DotM">
      <path
         inkscape:connector-curvature="0"
         transform="matrix(0.4,0,0,0.4,2.96,0.4)"
         style="fill-rule:evenodd;stroke:#000000;stroke-width:1pt;marker-start:none;marker-end:none"
         d="m -2.5,-1 c 0,2.76 -2.24,5 -5,5 -2.76,0 -5,-2.24 -5,-5 0,-2.76 2.24,-5 5,-5 2.76,0 5,2.24 5,5 z"
         id="path3704-3" />
    </marker>
    <marker
       style="overflow:visible"
       id="DotM-70"
       refX="0"
       refY="0"
       orient="auto"
       inkscape:stockid="DotM">
      <path
         inkscape:connector-curvature="0"
         transform="matrix(0.4,0,0,0.4,2.96,0.4)"
         style="fill-rule:evenodd;stroke:#000000;stroke-width:1pt;marker-start:none;marker-end:none"
         d="m -2.5,-1 c 0,2.76 -2.24,5 -5,5 -2.76,0 -5,-2.24 -5,-5 0,-2.76 2.24,-5 5,-5 2.76,0 5,2.24 5,5 z"
         id="path3704-8" />
    </marker>
  </defs>
  <title
     id="title4">Paths of the golfcar</title>
  <desc
     id="desc6">The paths consist of all the possible route that can be taken by the golfcart to serve 4 stations: DCC, MCD, EA and E3A</desc>
  <image
     sodipodi:absref="/home/golfcar/smartfm/bookingUI/shared/SvgPath/science_center_complete.png"
     xlink:href="science_center_complete.png"
     style="fill:#aa4400;font-size:14px"
     width="5796"
     height="5808"
     id="map"
     x="0"
     y="0"
     inkscape:label="#image3014" />
  <path
     style="fill:none;stroke:#000000;stroke-width:0.5px;stroke-linecap:butt;stroke-linejoin:miter;stroke-opacity:1"
     d="m 350.17469,1697.4002 2.9458,7.3425 2.3307,7.3666 7.8183,9.5649 13.1666,9.6057 8.9667,6.6768 14.0533,-6.225 7.6552,-12.9187 1.4201,-8.7698 0.058,-9.344 -2.9529,-32.7593 -1.2878,-18.9636"
     id="DCC_EA"
     inkscape:connector-curvature="0"
     inkscape:label="#path3076"
     sodipodi:nodetypes="cccccccccccc" />
  <path
     style="fill:none;stroke:#000000;stroke-width:0.5px;stroke-linecap:butt;stroke-linejoin:miter;stroke-opacity:1"
     d="m 569.6328,1027.9119 -4.7093,1.3456 -4.3729,2.6909 -1.6819,3.7002 1.0091,3.3638 1.6819,4.7093 2.0183,3.7001"
     id="DCC_EA3"
     inkscape:connector-curvature="0"
     inkscape:label="#path3084" />
  <path
     style="fill:none;stroke:#000000;stroke-width:0.5px;stroke-linecap:butt;stroke-linejoin:miter;stroke-opacity:1"
     d="m 2981.7445,2332.4801 -34.5231,-1.6384 -27.4563,-2.9472 -10.0535,-0.8147 -9.3319,-0.8938 -9.5743,-1.0461 -9.6774,-0.9142 -9.6301,-1.2087 -9.4134,-1.5387 -8.6626,-1.8346 -9.1391,-2.5881 -8.5321,-2.7129 -7.9688,-3.1942 -8.0632,-3.8482 -7.766,-4.343 -7.4924,-4.9258 -7.4027,-5.3491 -6.8051,-5.8458 -6.5792,-6.0173 -6.5889,-6.4368 -6.0694,-6.815 -5.8375,-7.3385 -5.6676,-7.4411 -5.2096,-7.7318 -4.8323,-8.068 -4.7607,-8.0395 -4.3026,-7.9935 -4.2057,-7.8664 -4.6026,-9.2849 -4.4682,-9.273 -4.3495,-9.162 -3.9829,-8.8456 -4.0896,-8.731 -4.4019,-9.2935 -4.3841,-9.6828 -4.4136,-9.6728 -4.5813,-10.4604 -4.0108,-9.4172 -3.9526,-9.0109 -4.0028,-10.384 -3.761,-10.4151 -3.3738,-10.7408 -2.6821,-11.3799 -2.1333,-11.7543 -1.2675,-10.6761 -0.6502,-11.0439 -0.1979,-10.1844 0.069,-9.3321 0.4988,-9.5512 1.3555,-10.0516 1.6472,-8.6868 2.9418,-8.9896 4.6605,-8.8922 4.8359,-6.9614 5.899,-6.0648 5.7174,-6.4378 5.4378,-6.2821 6.1263,-5.9946 6.0532,-5.635 6.4716,-5.2917 6.6731,-4.6873 7.136,-4.0902 9.7222,-4.3252 10.0491,-3.4432 10.3155,-2.6401 10.8446,-1.6584 10.874,-1.1238 11.4492,-0.2978 11.407,0.24 11.697,0.8034 9.4263,0.9861 9.488,1.1543 9.7887,1.4173 9.6986,1.4986 9.7202,1.6675 9.8336,1.7605 9.9297,1.8308 10.1406,1.8509 9.9694,1.8573 10.0599,2.0958 10.0937,1.9972 9.9246,2.0515 9.9152,2.0135 9.9376,2.1341 9.7806,2.1264 9.244,1.9388 9.3999,2.1793 9.4303,2.1183 9.7492,2.1769 9.8397,2.2221 10.1198,2.1735 9.7393,2.18 10.0362,2.1369 9.5695,2.0888 9.9284,2.1186 9.9153,1.8623 9.7379,1.8465 9.7495,1.6693 9.5472,1.4547 9.553,1.6417 9.6825,1.447 9.6513,1.4712 10.0355,1.1477 9.7202,1.186 10.0057,1.1034 10.1467,1.034 9.693,0.9525 10.3038,0.7961 10.2871,0.9771 10.5156,0.6922 10.7166,0.8606 10.6229,0.6918 10.6488,0.8221 10.3239,0.6467 10.4912,0.732 10.5874,0.4811 10.844,0.5597 10.811,0.5175 10.7506,0.499 10.6597,0.4498 10.6738,0.4955 10.6749,0.4182 10.8443,0.6835 10.4377,0.5463 10.682,0.682 10.66,0.6522 10.4897,0.811 10.6502,0.8154 10.5297,0.7155 10.7573,0.7418 10.9876,0.9177 10.6917,0.9471 10.7464,0.8925 10.2906,0.6154 10.7939,0.8575 10.4177,0.8424 10.9838,0.8315 10.7555,0.9567 10.5442,0.8171 11.0077,0.8226 10.8159,0.7263 11.0456,0.7137 11.0982,0.699 11.1388,0.672 11.2442,0.749 11.5219,0.8131 11.0578,0.5036 11.193,0.7318 10.9956,0.5383 11.1651,0.6254 10.681,0.5739 11.0264,0.6048 10.6365,0.554 10.6699,0.7155 10.7911,0.7654 10.7721,0.663 10.7427,0.8261 10.7108,0.8771 10.7787,0.6514 10.8919,0.7381 11.1455,0.8442 11.0623,0.615 10.6966,0.7764 10.9213,0.6977 10.4211,0.6521 10.9689,0.661 10.8564,0.5446 10.935,0.4914 11.2197,0.5677 11.1672,0.5448 11.2997,0.6749 11.0291,0.651 11.4127,0.6287 11.221,0.6197 11.1016,0.7233 11.3888,0.6758 11.2401,0.7982 11.351,0.6693 11.0577,0.6095 11.5547,0.5544 11.4225,0.4632 11.374,0.4655 11.2351,0.4822 11.2334,0.4124 11.4878,0.3805 11.4551,0.5522 11.5125,0.3589 11.3817,0.6028 11.4275,0.5268 11.4724,0.471 11.2816,0.5226 11.8127,0.5392 11.9977,0.5957 11.7458,0.4231 12.0836,0.5492 12.1119,0.5605 12.233,0.6161 11.0713,0.6573 9.5138,0.5657 9.3442,0.5149 9.248,0.5717 10.9668,0.7018 9.5008,0.7124 11.0377,0.7547 12.1956,0.8553 11.1101,0.6408 12.5117,0.812 12.2284,0.7923 12.2417,0.9339 12.3486,0.9553 9.535,0.6441 10.9225,0.7603 9.4783,0.8337 10.9834,0.9373 9.6063,0.7882 9.4522,0.6888 9.312,0.8541 11.0333,1.056 9.3356,1.0047 9.5495,0.9544 9.4588,0.9324 9.182,0.9006 12.6356,1.1252 9.3358,0.7947 10.8199,1.0877 12.152,1.3185 10.7787,1.1858 11.8391,1.4712 12.1297,1.3791 11.8757,1.4555 11.5877,1.5754 11.6813,1.2454 11.716,1.3043 11.1607,1.3339 11.4734,1.2278 11.2756,1.1196 11.4558,0.9798 11.5036,1.0544 11.5368,0.9156 11.2418,0.8805 11.1928,0.5779 11.4153,0.467 11.0967,0.2799 11.2379,0.071 10.9002,-0.1154 10.9669,-0.5771 12.1735,-1.0359 12.8718,-1.9535 12.858,-2.661 10.8168,-3.0588 9.5768,-3.1106 9.3904,-3.659 9.2402,-4.1818 9.2023,-4.7461 8.7424,-5.1927 8.6687,-5.4862 8.6385,-5.9052 8.6551,-5.9805 8.8161,-6.0872 8.7767,-5.7514 9.0766,-5.3053 9.5989,-5.0061 9.7952,-4.6861 10.0209,-4.3564 10.1502,-3.6893 10.3026,-3.0171 10.5081,-2.6161 13.9161,-2.2967 11.4422,-1.0417 11.2328,-0.4362 11.1665,0.22 11.0544,0.8456 10.8464,1.5729 11.3231,2.1845 11.0964,2.7059 9.1417,3.3116 7.6025,3.0271 7.6252,3.2795 7.3052,3.6492 7.5114,3.7801 7.494,3.778 7.2893,4.358 6.907,4.8157 6.7284,4.8691 6.4722,5.2239 6.8326,5.6779 6.6096,5.8149 6.1932,6.2372 6.0306,6.5871 5.6249,6.6981 5.6206,7.1996 5.0175,7.5386 4.8552,7.7358 4.6313,8.1842 4.0251,8.2844 4.455,9.7476 4.0961,11.3948 3.4081,11.4817 3.0603,11.9313 2.6461,11.8987 2.1774,12.0769 1.6833,12.1576 1.1028,12.185 1.1037,12.2828 0.8679,12.4492 0.4213,12.2565 -0.04,12.3169 -0.1234,12.2145 -0.2181,12.2869 -0.6499,12.3358 -0.4844,10.6207 -0.7225,9.1374 -0.5768,12.2083 -0.8997,12.1633 -1.28,11.9837 -1.3299,12.2816 -1.3035,11.8123 -1.1616,10.672 -1.1961,10.5527 -1.2046,12.0384 -1.3567,10.5699 -1.1417,10.677 -1.2628,10.4271 -1.4659,8.893 -1.2048,9.1188 -1.411,9.0228 -1.5027,8.8531 -1.285,9.1281 -1.7678,9.1627 -1.745,8.9719 -2.2463,9.2954 -2.1215,9.0722 -2.3657,8.9181 -2.6363,8.8116 -3.0998,8.4354 -3.5617,8.6009 -4.046,8.5218 -4.3054,8.1566 -4.6947,8.0393 -5.0135,8.0423 -5.4603,7.532 -5.9967,7.0507 -6.0821,6.866 -6.473,6.286 -6.8477,6.1868 -7.3228,5.594 -7.6259,5.4355 -7.8859,5.1482 -8.1267,4.3025 -8.2877,3.8907 -8.3995,3.7426 -9.8544,4.0547 -11.8835,4.2284 -11.7901,3.4779 -12.1745,2.8993 -12.4886,2.7639 -12.7921,2.7105 -13.0001,1.9935 -13.0728,1.6846 -13.4164,1.2978 -13.506,0.8502 -13.5557,0.8164 -10.2553,0.2848 -10.2739,0.2359 -10.2935,-0.1038 -10.4364,-0.1027 -10.2049,-0.4188 -9.9695,-0.4664 -9.7998,-0.5009 -9.8396,-0.6161 -9.7557,-0.672 -9.528,-0.5551 -9.6553,-0.6386 -9.9283,-0.8015 -9.4648,-0.9518 -9.3785,-1.0686 -9.2983,-1.201 -9.2562,-1.273 -9.4466,-1.1232 -9.3259,-0.9601 -9.5078,-0.8455 -9.7047,-1.0939 -9.4826,-1.1444 -9.5838,-1.0378 -9.7832,-1.0786 -9.3682,-0.9969 -9.8125,-1.0059 -9.7022,-1.1614 -9.3929,-0.9838 -9.826,-1.0329 -9.6575,-1.0125 -9.9405,-1.0407 -9.4781,-0.9385 -9.9076,-0.8103 -9.7686,-0.9276 -9.4191,-0.7138 -9.9305,-0.7823 -9.633,-0.7301 -9.9019,-0.8392 -9.8239,-0.8521 -10.0157,-0.5885 -10.0339,-0.7787 -9.7051,-0.6026 -9.9287,-0.6417 -9.5831,-0.648 -10.1278,-0.5965 -9.7512,-0.864 -9.6391,-0.6911 -9.965,-0.7763 -9.9977,-0.6712 -9.898,-0.678 -9.975,-0.7901 -10.0249,-0.7844 -10.186,-0.9454 -9.9966,-1.0681 -9.8389,-1.0243 -10.1177,-1.2414 -9.8748,-1.3406 -10.1533,-1.5123 -9.865,-1.7446 -9.5359,-1.9634 -9.8116,-2.1676 -9.375,-2.4648 -9.3408,-2.5162 -9.212,-2.7923 -9.0602,-2.9463 -9.0539,-3.423 -8.8057,-3.6698"
     id="DCC_START"
     inkscape:label="#path3064"
     inkscape:connector-curvature="0" />
  <path
     style="fill:none;stroke:#000000;stroke-width:0.5px;stroke-linecap:butt;stroke-linejoin:miter;stroke-opacity:1"
     d="m 4243.1461,2590.1454 -8.3694,-4.1646 -8.0395,-4.4814 -7.9755,-4.7184 -7.846,-5.0881 -7.5154,-5.5397 -7.3664,-5.7569 -7.1089,-6.1407 -7.1032,-6.5856 -6.6873,-6.8198 -6.4416,-7.2733 -6.2785,-7.4989 -5.9561,-8.0474 -5.3828,-8.0411 -4.9877,-8.3611 -4.8072,-8.7216 -4.0637,-8.5879 -3.6543,-9.0228 -3.37,-9.1459 -3.6735,-12.0601 -2.625,-12.3301 -1.807,-12.2721 -0.9164,-12.4822 2.5854,-34.2185 2.7352,-26.1364 3.8079,-32.5178"
     id="DCC_MCD"
     inkscape:label="#DCC_START"
     inkscape:connector-curvature="0"
     sodipodi:nodetypes="cccccccccccccccccccccccccc" />
  <path
     style="fill:none;stroke:#000000;stroke-width:0.5px;stroke-linecap:butt;stroke-linejoin:miter;stroke-opacity:1"
     d="m 4118.6943,2372.1142 2.8692,-8.9024 3.3022,-8.5097 4.1967,-8.1732 4.9988,-7.3947 5.4733,-6.8977 6.7044,-6.1165 7.4868,-5.607 7.92,-5.5098 8.0556,-5.5208 7.9456,-5.3526 8.3526,-5.0255 8.5834,-4.692 8.6957,-4.2159 9.2213,-3.8783 9.3006,-3.5729 9.2382,-3.1579 9.3174,-2.8147 11.4087,-2.5895 12.8364,-2.5602 13.1846,-1.7685 13.5031,-1.1371 13.5019,-0.579 13.8673,-0.1664 10.0083,0.082 10.3686,0.072 10.4702,0.4409 10.4899,0.5649 10.4436,0.7301 10.1305,0.7789 10.6873,0.9845 10.3638,0.905 10.3079,0.9018 10.3541,0.9579 10.0781,1.0277 10.1369,0.9973 10.1459,1.1236 10.3883,1.1828 10.0087,1.0125 10.0763,1.0608 9.9436,0.9477 10.0347,1.0329 10.0486,1.1004 10.2666,0.9089 9.9202,0.8922 10.2946,0.9453 10.0646,0.7487 9.472,0.9761 9.8356,0.6613 9.8954,0.7869 9.8894,0.6467 10.0064,0.6302 9.7545,0.5532 9.7434,0.4553 10.0805,0.6945 9.821,0.5292 9.7834,0.6696 9.7646,0.5527 10.1013,0.76 9.9275,0.7195 9.5855,0.6468 11.144,0.7708 9.6119,0.7501 11.2003,0.8751 9.2802,0.6674 9.477,0.7312 10.9311,0.7263 9.0366,0.4646 9.2647,0.6763 11.0539,0.6894 11.0554,0.8302 9.3224,0.666 9.4412,0.7537 11.1726,1.0562 11.0865,0.8279 12.9121,1.1698 12.5237,0.9925 12.4723,1.0886 12.2739,1.1869 11.887,1.056 11.887,0.9419 11.9312,0.9313 11.3546,0.3649 11.7966,0.2626 11.212,-0.172 11.2913,-0.2378 12.3075,-0.6714 13.4947,-1.326 12.8083,-1.9696 11.3024,-2.5963 9.3629,-2.926 8.6769,-3.5754 7.676,-4.3398 7.6269,-4.9182 6.8495,-5.445 6.2237,-6.0973 5.6508,-6.5038 4.864,-6.8648 4.054,-7.3092 5.298,-7.7658 4.4564,-8.8321 3.3965,-8.7268 5.7369,-11.8929 1.2785,-10.7769 0.2746,-11.1674 -1.0114,-11.4345 -1.7058,-11.5688 -2.1623,-11.0292 -3.6649,-10.7465 -4.25,-10.2926 -4.3426,-7.5586 -4.5558,-7.5864 -5.1207,-7.2802 -7.7897,-10.1098 -6.6209,-9.8019 -6.7831,-6.132 -6.7995,-5.3212 -7.1002,-4.5175 -7.7973,-3.9323 -10.009,-3.6667 -10.4208,-2.5906 -10.8299,-1.3768 -11.013,-0.1741 -11.3897,1.1093 -11.5658,1.9025 -9.4181,2.0571 -12.9316,6.0012 -10.1216,5.7862 -9.5877,3.2576 -9.6812,3.7457 -9.5718,3.8389 -10.1922,3.804 -10.6155,3.5859 -10.4081,3.4515 -10.8276,3.1571 -11.0566,2.9902 -11.1561,2.7477 -11.3644,2.2817 -11.8742,1.9353 -11.9579,1.6932 -11.9539,1.5101 -12.1487,1.4293 -12.5705,0.8369 -12.5507,0.527 -12.5282,0.3816 -12.8397,0.01 -13.2379,-0.012 -13.0488,-0.424 -13.2659,-0.4628 -11.6194,-0.5136 -10.1977,-0.6315 -10.0777,-0.5467 -10.0689,-0.7302 -11.462,-0.7983 -11.6228,-0.7737 -9.9001,-0.7577 -12.8861,-0.8794 -9.9493,-0.5328 -12.92,-0.8153 -9.7374,-0.6284 -11.4219,-0.6308 -13.0924,-0.643 -11.4221,-0.6019 -11.417,-0.5655 -13.7628,-0.7088 -13.1115,-0.5664 -11.567,-0.3808 -12.9754,-0.5826 -11.6788,-0.6417 -12.7935,-0.6249 -11.6529,-0.6531 -11.222,-0.669 -11.5863,-0.5751 -13.4962,-0.8598 -11.6389,-0.8117 -10.1951,-0.782 -10.2194,-0.7024 -9.9275,-0.6536 -9.9823,-0.7455 -10.0854,-0.7685 -10.0597,-0.7319 -10.0803,-0.8208 -10.2592,-0.7842 -9.9295,-0.6872 -9.9954,-0.7158 -10.1837,-0.7994 -11.3152,-0.839 -10.3314,-0.7245 -10.2336,-0.5474 -9.6752,-0.8632 -10.0007,-0.7295 -9.9993,-0.8079 -10.0552,-0.7725 -9.8991,-0.7535 -9.9712,-0.7356 -10.0285,-0.6174 -9.9502,-0.5976 -11.2247,-0.6369 -10.1143,-0.6837 -13.4317,-0.8214 -12.909,-0.7651 -12.1285,-0.6907 -12.5445,-0.7597 -12.4293,-0.7694 -12.5038,-0.7634 -12.7813,-0.6664 -12.6586,-0.8334 -12.7652,-0.7749 -12.5328,-0.7412 -12.6978,-0.6513 -12.7255,-0.6456 -12.797,-0.539 -12.8435,-0.6072 -13.15,-0.556 -12.9076,-0.5349 -11.3581,-0.735 -12.9223,-0.7046 -12.7062,-0.669 -12.8006,-0.7335 -13.1058,-0.8886 -12.6289,-0.857 -12.6536,-0.8138 -12.2293,-0.7388 -12.4071,-0.6998 -12.5261,-0.5991 -12.6744,-0.6437 -12.394,-0.7069 -13.0781,-0.5668 -12.4058,-0.6196 -12.8031,-0.6131 -12.7395,-0.6474 -12.7199,-0.7244 -13.0293,-0.7699 -12.824,-0.9271 -12.7064,-0.5689 -12.633,-0.7125 -12.6966,-0.7829 -12.6041,-0.8641 -12.8609,-0.8909 -12.684,-0.9527 -13.0548,-1.0817 -12.4537,-1.1599 -12.5344,-1.0385 -12.461,-1.088 -12.582,-1.0251 -12.3806,-1.2302 -12.5082,-1.1717 -12.3006,-1.1819 -12.1061,-1.021 -12.2147,-1.1837 -12.0634,-1.1312 -11.8442,-1.1347 -11.6506,-1.07 -11.8338,-0.9685 -11.5098,-0.8135 -11.5275,-0.5486 -11.4422,-0.5757 -11.3519,-0.1666 -11.1927,0.1996 -10.9778,0.5513 -12.4668,1.1704 -10.8421,1.8238 -10.6702,2.3783 -10.2629,3.0234 -10.1875,3.6782 -9.7684,4.1488 -9.2819,4.7498 -9.3185,5.4731 -8.7462,5.6528 -8.4224,6.3255 -7.1644,5.8805 -7.0896,6.497 -7.22,6.6518 -6.5338,6.3058 -6.3203,6.8858 -7.3714,8.1317 -6.9778,7.8884 -6.9684,8.3373 -6.6642,8.1823 -6.7849,8.0926 -6.8351,8.2804 -6.374,7.8966 -6.4002,7.979 -6.2027,7.6461"
     id="MCD_DCC"
     inkscape:label="#DCC_START"
     inkscape:connector-curvature="0" />
  <path
     style="fill:none;stroke:#000000;stroke-width:0.5px;stroke-linecap:butt;stroke-linejoin:miter;stroke-opacity:1"
     d="m 3190.0982,2194.9055 -6.4319,7.8966 -6.1436,7.5603 -6.404,7.445 -6.6481,7.5004 -6.5107,7.2015 -6.5135,6.9441 -6.74,6.928 -6.6719,6.7293 -6.6099,6.6112 -6.6962,6.187 -6.6488,6.0591 -6.9001,5.9874 -6.9318,5.7852 -6.6193,5.6327 -7.1627,5.0885 -8.0521,5.2388 -8.7942,5.0469 -9.3082,4.5295 -8.7995,4.1397 -8.8561,3.6732 -9.8963,3.2704 -10.6128,2.6237 -11.2392,1.7534 -11.2541,0.866 -48.56,-2.5303 -34.7527,-3.7345 -52.194,-3.9508"
     id="DCC_END"
     inkscape:label="#DCC_START"
     inkscape:connector-curvature="0"
     sodipodi:nodetypes="cccccccccccccccccccccccccccc" />
  <path
     style="fill:none;stroke:#000000;stroke-width:0.5px;stroke-linecap:butt;stroke-linejoin:miter;stroke-opacity:1"
     d="m 1015.9451,800.2389 3.9647,0.60834 4.0558,1.06838 4.0731,1.59848 3.9504,2.12742 3.995,2.84066 3.9852,3.65537 3.4567,4.34105 5.9266,15.72596 0.9152,49.91628 -0.037,55.24617"
     id="DCC_MCD1"
     inkscape:label="#DCC_START"
     inkscape:connector-curvature="0"
     sodipodi:nodetypes="ccccccccccc" />
  <path
     style="fill:none;stroke:#000000;stroke-width:0.5px;stroke-linecap:butt;stroke-linejoin:miter;stroke-opacity:1"
     d="m 1050.2121,833.49481 0.7263,4.06245 0.4737,4.10182 0.3458,4.13376 0.011,4.18549 -0.01,4.16587 0.123,4.01718 0.1403,3.95195 0.011,4.1114 0.094,3.91527 0.065,4.06595 0.094,4.16717 -0.062,4.17434 0.01,4.07654 -0.076,4.12662 -0.1333,4.17621 -0.1137,4.06736 0.089,4.02189 -0.088,4.14866 0.1206,4.06322 0.096,4.02476 0.02,4.12398 0.039,4.11266 0.038,4.10521 0.026,4.13557 0.1826,4.14081 0.1361,4.12538 0.1564,4.17097 0.1746,4.01143 0.2264,4.07502 0.077,4.07176 0.098,4.22814 0.076,4.23057 -0.021,4.2047 0.1506,4.11266 0.1221,4.23341 0.079,4.05609 0.054,4.17112 0.1549,4.17815 0.087,4.20601 0.034,4.07543 0.089,4.06261 0.1489,3.9977 0.1863,4.151 0.1811,4.1767 0.1817,4.1 0.1952,4.0249 0.12,4.0016 0.2204,4.0947 0.2466,4.1726 0.1939,4.1772 0.272,3.9622 0.2228,4.1265 0.2469,4.1702 0.2845,4.0586 0.2863,4.039 0.3035,4.2462 0.3258,4.1132 0.4026,4.3305 0.3612,4.2466 0.3314,4.2531 0.264,4.291 0.4747,4.1032 0.4483,4.1347 0.4919,4.1886 0.6309,4.108 0.5172,4.0475 0.6005,4.339 0.6952,4.0777 0.7476,4.2423 0.78,4.1874 0.8884,4.302 0.88,4.0397 1.029,4.1836 1.1365,4.2074 1.0923,4.149 1.2563,4.1472 1.3081,4.1221 1.3196,4.0846 1.4061,4.1779 1.4409,4.2525 1.4515,4.0997 1.4854,4.1808 1.5356,4.1722 1.5657,4.1524 1.5403,4.1743 1.5188,4.0527 1.4544,4.181 1.499,4.2159 1.4734,4.2273 1.4646,4.2395 1.3536,4.0982 1.2452,4.2463 1.1503,4.1558 1.1935,4.116 1.114,4.1697 1.1374,4.2723 1.0692,4.1035 0.9825,4.0498 0.9198,4.0932 1.0029,4.29 0.9158,4.0737 0.8224,4.1599 0.8238,4.1781 0.7199,4.2375 0.6926,4.0598 0.6498,4.3069 0.6196,4.2273 0.5471,4.0758 0.5577,4.1766 0.5545,4.1735 0.4934,4.2302 0.4304,4.1412 0.4017,4.1345 0.3375,4.1254 0.3752,4.2094 0.3555,4.1873 0.2831,3.9599 0.2326,4.1735 0.1738,4.0857 0.1661,4.1513 0.1186,4.1464 0.1626,4.2562 0.016,4.0844 0.023,3.9127 -0.018,4.1101 0.016,4.0894 -0.1335,4.0708 -0.04,4.0994 -0.031,4.1007 -0.037,4.1642 -0.012,4.0728 -0.059,4.1734 -9e-4,4.1678 -0.072,4.0913 0.031,4.2101 -0.063,4.1913 -0.1456,4.0995 -0.089,4.0826 -0.071,4.2087 -0.159,4.0762 -0.1255,4.1935 -0.2151,4.1584 -0.2096,4.0022 -0.208,4.2573 -0.2383,4.1023 -0.2293,4.2182 -0.2408,4.197 -0.2564,4.1699 -0.2878,4.015 -0.374,4.2916 -0.3536,4.1471 -0.3526,4.1385 -0.3648,4.3217 -0.3714,4.0698 -0.3905,4.192 -0.4256,4.179 -0.4043,4.1593 -0.3875,4.0424 -0.3969,4.2268 -0.3845,4.1085 -0.4315,4.0926 -0.4548,4.1307 -0.5686,4.1126 -0.5484,4.1108 -0.5541,4.1861 -0.5083,4.194 -0.4504,4.2787 -0.5075,4.0474 -0.6029,4.1053 -0.551,3.9859 -0.5367,4.0871 -0.5391,4.0266 -0.4885,4.1919 -0.4857,4.1183 -0.4499,4.2861 -0.4576,4.0121 -0.4204,4.0005 -0.3793,3.9753 -0.3634,4.119 -0.3033,4.2279 -0.2152,4.134 -0.1588,4.2334 -0.1323,4.1572 -0.019,4.1857 -0.019,4.2086 0.054,4.3291 0.098,4.0803 0.1548,4.1954 0.2471,4.0615 0.347,4.3885 0.3591,4.2182 0.4463,4.1909 0.4822,4.0432 0.5369,4.082 0.6607,4.0898 0.71,4.2301 0.7053,4.2386 0.7747,4.4055 0.7809,4.2453 0.8542,4.244 0.8588,4.1422 0.856,4.151 0.8743,4.3129 0.8578,4.0887 0.9044,4.0464 0.8171,4.1777 0.874,4.16 0.9881,4.2104 0.9218,4.1343 0.9247,4.3278 0.9093,4.0741 0.8811,4.3194 0.9009,4.2797 0.887,4.1444 0.8609,4.0944 0.8961,4.2372 0.8099,4.2612 0.8042,4.2556 0.7732,4.2852 0.8326,4.3615 0.7861,4.1953 0.7981,4.0717 0.7653,4.2715 0.8188,4.3027 0.7573,4.1678 0.7097,4.2559 0.7071,4.1528 0.7015,4.1895 0.5886,4.3882 0.5507,4.3704 0.562,4.062 0.3661,4.1815 0.2464,4.1839 0.1975,4.0375 0.1028,4.2528 -0.039,4.2489 -0.1793,4.1134 -0.3572,4.1963 -0.5648,3.9862 -0.8356,4.2367 -1.1198,4.2771 -1.3597,3.982 -1.6781,4.049 -2.0038,4.0861 -2.4302,3.9925 -2.7784,3.8968 -3.3268,4.2311 -3.8058,4.0775 -4.2393,3.7841 -4.2622,3.1805 -4.0156,2.4515 -4.2634,2.2 -4.2137,1.5969 -4.1334,1.4918 -4.0968,1.0572 -4.1427,0.9356 -3.99,0.5283 -4.1439,0.3179 -4.1752,0.1161 -4.2045,-0.038 -4.0941,-0.2603 -3.976,-0.3121 -4.0508,-0.2182 -4.3158,-0.2606 -4.183,-0.5129 -4.1041,-0.6681 -4.0872,-0.7955 -4.1243,-0.8233"
     id="MCD_DCC_"
     inkscape:label="#DCC_START" />
  <path
     style="fill:none;stroke:#000000;stroke-width:0.5px;stroke-linecap:butt;stroke-linejoin:miter;stroke-opacity:1"
     d="m 1021.5997,1875.4237 -3.9033,-1.2218 -4.0282,-1.3613 -4.1001,-1.6332 -3.9634,-1.972 -3.9736,-2.5755 -3.86254,-3.2708 -3.59698,-4.1194 -2.67495,-4.0505 -0.39843,-2.9246 0.84891,-2.9419 1.26028,-2.7654 1.52339,-4.5365 1.1705,-3.9625 1.44398,-3.9531 1.42107,-4.0023 1.52947,-4.0067 1.714,-4.068 1.3834,-5.0754 0.9958,-4.0935 1.9206,-3.8848 6.0751,-18.1845 9.8997,-18.2448 18.5863,-38.0846"
     id="DCC_END_"
     inkscape:label="#DCC_START"
     inkscape:connector-curvature="0"
     sodipodi:nodetypes="cccccccccccccccccccccccc" />
  <path
     style="fill:none;stroke:#000000;stroke-width:0.5px;stroke-linecap:butt;stroke-linejoin:miter;stroke-opacity:1"
     d="m 386.82551,1195.4807 -0.3363,-8.073 6.0548,-68.2847 3.0274,-30.274 3.0273,-24.5555 3.0274,-19.5099 5.382,-41.0381 5.3821,-19.50985 5.7185,-12.7824 8.4094,-14.1278 7.7367,-11.4369 4.3728,-9.7549 1.682,-7.7367 2.6909,-13.4552 1.0092,-17.15518 -2.0182,-14.4643 -3.0274,-12.1096 -3.7002,-13.7914 -1.04293,-16.00679 -6.90064,-45.88671 -4.45453,-16.34319 -3.44553,-12.24891 -3.66627,-12.4459 1.0091,-9.0822 1.0091,-9.0823 3.3639,-8.7458 4.3728,-6.7275 6.0548,-8.7459 9.0823,-8.4094 9.0822,-5.7184 9.0821,-4.0365 11.4368,-4.7093 10.4278,-2.3547 11.7732,-1.0091 14.4642,0.6728 15.8097,2.0182 21.8646,3.0274 24.2192,4.7093 14.8007,3.0274 14.1278,1.6819 14.8006,1.0091 11.7732,2.691 14.1279,5.3821 15.4734,5.7184 10.0913,3.3638 11.4368,2.3546 8.0731,0.6728"
     id="EA_DCC"
     inkscape:connector-curvature="0"
     inkscape:label="#path3086"
     sodipodi:nodetypes="ccccccccccccccccccccccccccccccccccccccccccccccc" />
  <path
     style="fill:none;stroke:#000000;stroke-width:0.5px;stroke-linecap:butt;stroke-linejoin:miter;stroke-opacity:1"
     d="m 597.57738,1324.792 -9.58175,4.0775 -4.19283,2.6501"
     id="EA_END3"
     inkscape:connector-curvature="0"
     inkscape:label="#path3106"
     sodipodi:nodetypes="ccc" />
  <path
     style="fill:none;stroke:#000000;stroke-width:0.5px;stroke-linecap:butt;stroke-linejoin:miter;stroke-opacity:1"
     d="m 470.87154,1297.3827 -8.49103,9.6057 -6.14621,7.3666 -2.22527,8.4571"
     id="EA_END2"
     inkscape:connector-curvature="0"
     inkscape:label="#path3108"
     sodipodi:nodetypes="cccc" />
  <path
     style="fill:none;stroke:#000000;stroke-width:0.5px;stroke-linecap:butt;stroke-linejoin:miter;stroke-opacity:1"
     d="m 447.86939,1348.2728 -33.42503,11.7394 -12.47688,13.1089 -5.7184,10.7641 -1.6819,11.4368 3.0274,13.7915 6.3912,6.7275 10.0913,7.4003 16.1461,2.3547 16.4825,-5.382 8.0731,-7.7367 8.0731,-15.8097 2.3546,-18.1645 -0.3364,-18.1643 -0.3364,-20.8555"
     id="EA_START"
     inkscape:connector-curvature="0"
     inkscape:label="#path3110"
     sodipodi:nodetypes="ccccccccccccccc" />
  <path
     style="fill:none;stroke:#000000;stroke-width:0.5px;stroke-linecap:butt;stroke-linejoin:miter;stroke-opacity:1"
     d="m 529.33282,1500.2799 -8.073,3.7001 -10.0913,4.0365 -5.382,5.0457"
     id="EA_START2"
     inkscape:connector-curvature="0"
     inkscape:label="#path3112" />
  <path
     style="fill:none;stroke:#000000;stroke-width:0.5px;stroke-linecap:butt;stroke-linejoin:miter;stroke-opacity:1"
     d="m 653.53068,1431.5168 -7.7367,8.4094 -6.0547,7.4003 -5.7185,10.7641 -1.6818,11.4369 3.0274,13.7914 6.3911,6.7276 10.0913,7.4003 16.1461,2.3546 16.4825,-5.382 8.0732,-7.7367 8.073,-15.8098 2.3546,-18.1643 -0.3363,-9.0822 -0.3364,-12.7824"
     id="EA_E3A"
     inkscape:connector-curvature="0"
     inkscape:label="#path3110"
     sodipodi:nodetypes="ccccccccccccccc" />
  <path
     style="fill:none;stroke:#000000;stroke-width:0.5px;stroke-linecap:butt;stroke-linejoin:miter;stroke-opacity:1"
     d="m 635.41362,1322.6645 -0.3365,-8.7458 -0.6727,-6.3912"
     id="E3A_EA"
     inkscape:connector-curvature="0"
     inkscape:label="#path3132" />
  <path
     style="fill:none;stroke:#000000;stroke-width:0.5px;stroke-linecap:butt;stroke-linejoin:miter;stroke-opacity:1"
     d="m 611.09096,792.59899 -10.7641,0.3363 -12.7824,0 -3.3637,-0.3363"
     id="DCC_START2"
     inkscape:connector-curvature="0"
     inkscape:label="#path3082" />
  <path
     style="fill:none;stroke:#000000;stroke-width:0.5px;stroke-linecap:butt;stroke-linejoin:miter;stroke-opacity:1"
     d="m 559.31128,1442.1964 -6.7276,3.3638 -5.382,3.3637"
     id="EA_END"
     inkscape:connector-curvature="0"
     inkscape:label="#path3106" />
  <path
     style="fill:none;stroke:#000000;stroke-width:1px;stroke-linecap:butt;stroke-linejoin:miter;stroke-opacity:1"
     d="m 495.66726,1158.3301 8.087,9.9899 4.2814,11.4171 3.8057,8.087 7.6114,12.3685 8.087,20.9312 20.4556,16.6499 19.9798,-6.66 9.9899,-8.5628 0.9514,-11.8927 -1.4271,-12.8442 -0.4757,-14.747 -5.2328,-15.6984 -6.66,-6.6599 -15.2227,-7.6114 -12.3685,-0.4757 -11.417,1.4271 -13.3199,-0.9514"
     id="DCC_END2"
     inkscape:connector-curvature="0"
     sodipodi:nodetypes="cccccccccccccccccc"
     inkscape:label="#path3064" />
</svg>
