<?xml version="1.0" encoding="UTF-8" standalone="no"?>
<svg
   xmlns:dc="http://purl.org/dc/elements/1.1/"
   xmlns:cc="http://creativecommons.org/ns#"
   xmlns:rdf="http://www.w3.org/1999/02/22-rdf-syntax-ns#"
   xmlns:svg="http://www.w3.org/2000/svg"
   xmlns="http://www.w3.org/2000/svg"
   xmlns:xlink="http://www.w3.org/1999/xlink"
   xmlns:sodipodi="http://sodipodi.sourceforge.net/DTD/sodipodi-0.dtd"
   xmlns:inkscape="http://www.inkscape.org/namespaces/inkscape"
   version="1.1"
   id="svg2"
   inkscape:version="0.47 r22583"
   width="3057"
   height="3536"
   sodipodi:docname="drawing_plain.svg">
  <metadata
     id="metadata36">
    <rdf:RDF>
      <cc:Work
         rdf:about="">
        <dc:format>image/svg+xml</dc:format>
        <dc:type
           rdf:resource="http://purl.org/dc/dcmitype/StillImage" />
      </cc:Work>
    </rdf:RDF>
  </metadata>
  <defs
     id="defs34">
    <inkscape:perspective
       sodipodi:type="inkscape:persp3d"
       inkscape:vp_x="0 : 1768 : 1"
       inkscape:vp_y="0 : 1000 : 0"
       inkscape:vp_z="3057 : 1768 : 1"
       inkscape:persp3d-origin="1528.5 : 1178.6667 : 1"
       id="perspective38" />
    <inkscape:perspective
       id="perspective2947"
       inkscape:persp3d-origin="0.5 : 0.33333333 : 1"
       inkscape:vp_z="1 : 0.5 : 1"
       inkscape:vp_y="0 : 1000 : 0"
       inkscape:vp_x="0 : 0.5 : 1"
       sodipodi:type="inkscape:persp3d" />
  </defs>
  <sodipodi:namedview
     pagecolor="#ffffff"
     bordercolor="#666666"
     borderopacity="1"
     objecttolerance="10"
     gridtolerance="10"
     guidetolerance="10"
     inkscape:pageopacity="0"
     inkscape:pageshadow="2"
     inkscape:window-width="1440"
     inkscape:window-height="823"
     id="namedview32"
     showgrid="false"
     inkscape:zoom="1.0678733"
     inkscape:cx="1880.7144"
     inkscape:cy="2991.9452"
     inkscape:window-x="1366"
     inkscape:window-y="25"
     inkscape:window-maximized="1"
     inkscape:current-layer="svg2" />
  <title
     id="title4">Example triangle01- simple example of a 'path'</title>
  <desc
     id="desc6">A path that draws a triangle</desc>
  <image
     y="0"
     x="0"
     id="image2949"
     height="3536"
     width="3057"
     xlink:href="file:///home/golfcar/smartfm/smart-ros-pkg/golfcar_localization/hybrid_amcl/worlds/curb_map0825.png" />
  <path
     d="m 1014,2178 L 970,2109 L 930,2060 L 882,2024 L 828,2004 L 768,2000 L 717,2012 L 675,2033 L 631,2068 L 601,2100 L 566,2147 L 536,2192 L 517,2239 L 507,2271 L 469,2318 L 412,2334 L 363,2347 L 324,2331 L 302,2285 L 300,2216 L 346,1722 L 374,1224 L 386,1165 L 489,856 L 563,672 L 597,588 L 641,493 L 724,343 L 781,245 L 801,221 L 832,206 L 894,217 L 1171,316"
     fill="none"
     stroke="red"
     stroke-width="5"
     id="path8" />
</svg>
