<?xml version="1.0" encoding="UTF-8" standalone="no"?>
<svg
   xmlns:dc="http://purl.org/dc/elements/1.1/"
   xmlns:cc="http://creativecommons.org/ns#"
   xmlns:rdf="http://www.w3.org/1999/02/22-rdf-syntax-ns#"
   xmlns:svg="http://www.w3.org/2000/svg"
   xmlns="http://www.w3.org/2000/svg"
   xmlns:xlink="http://www.w3.org/1999/xlink"
   xmlns:sodipodi="http://sodipodi.sourceforge.net/DTD/sodipodi-0.dtd"
   xmlns:inkscape="http://www.inkscape.org/namespaces/inkscape"
   version="1.1"
   id="svg2"
   inkscape:version="0.47 r22583"
   width="3057"
   height="3536"
   sodipodi:docname="20_ea_dcc.svg">
  <metadata
     id="metadata36">
    <rdf:RDF>
      <cc:Work
         rdf:about="">
        <dc:format>image/svg+xml</dc:format>
        <dc:type
           rdf:resource="http://purl.org/dc/dcmitype/StillImage" />
      </cc:Work>
    </rdf:RDF>
  </metadata>
  <defs
     id="defs34">
    <inkscape:perspective
       sodipodi:type="inkscape:persp3d"
       inkscape:vp_x="0 : 1768 : 1"
       inkscape:vp_y="0 : 1000 : 0"
       inkscape:vp_z="3057 : 1768 : 1"
       inkscape:persp3d-origin="1528.5 : 1178.6667 : 1"
       id="perspective38" />
    <inkscape:perspective
       id="perspective2947"
       inkscape:persp3d-origin="0.5 : 0.33333333 : 1"
       inkscape:vp_z="1 : 0.5 : 1"
       inkscape:vp_y="0 : 1000 : 0"
       inkscape:vp_x="0 : 0.5 : 1"
       sodipodi:type="inkscape:persp3d" />
  </defs>
  <sodipodi:namedview
     pagecolor="#ffffff"
     bordercolor="#666666"
     borderopacity="1"
     objecttolerance="10"
     gridtolerance="10"
     guidetolerance="10"
     inkscape:pageopacity="0"
     inkscape:pageshadow="2"
     inkscape:window-width="1366"
     inkscape:window-height="741"
     id="namedview32"
     showgrid="false"
     inkscape:zoom="1.0678733"
     inkscape:cx="1057.0218"
     inkscape:cy="3216.691"
     inkscape:window-x="0"
     inkscape:window-y="0"
     inkscape:window-maximized="1"
     inkscape:current-layer="svg2" />
  <title
     id="title4">Example triangle01- simple example of a 'path'</title>
  <desc
     id="desc6">A path that draws a triangle</desc>
  <image
     y="0"
     x="0"
     id="image2949"
     height="3536"
     width="3057"
     xlink:href="file:///home/golfcar/smartfm/smart-ros-pkg/golfcar_localization/hybrid_amcl/worlds/curb_map0825.png" />
  <path
     d="m 1006,284 -46,-18 -60,-18 -47,-15 -36,11 -23,22 -18,28 -30,59 -71,128 -36,80 -51,122 -91,229 -87,263 -11,54 -25,492 -49,496 9,53 34,26 52,-3 52,-43 50,-64 36,-55 30,-47 34,-37 41,-37 57,-24 56,-6 57,2 59,26 51,36 40,55 26,31"
     fill="none"
     stroke="red"
     stroke-width="5"
     id="path8"
     sodipodi:nodetypes="cccccccccccccccccccccccccccccccc" />
</svg>
