<?xml version="1.0" encoding="UTF-8" standalone="no"?>
<svg
   xmlns:dc="http://purl.org/dc/elements/1.1/"
   xmlns:cc="http://creativecommons.org/ns#"
   xmlns:rdf="http://www.w3.org/1999/02/22-rdf-syntax-ns#"
   xmlns:svg="http://www.w3.org/2000/svg"
   xmlns="http://www.w3.org/2000/svg"
   xmlns:xlink="http://www.w3.org/1999/xlink"
   xmlns:sodipodi="http://sodipodi.sourceforge.net/DTD/sodipodi-0.dtd"
   xmlns:inkscape="http://www.inkscape.org/namespaces/inkscape"
   version="1.1"
   id="svg2"
   inkscape:version="0.47 r22583"
   width="3057"
   height="3536"
   sodipodi:docname="ALL.svg">
  <metadata
     id="metadata36">
    <rdf:RDF>
      <cc:Work
         rdf:about="">
        <dc:format>image/svg+xml</dc:format>
        <dc:type
           rdf:resource="http://purl.org/dc/dcmitype/StillImage" />
        <dc:title>Example triangle01- simple example of a 'path'</dc:title>
      </cc:Work>
    </rdf:RDF>
  </metadata>
  <defs
     id="defs34">
    <inkscape:perspective
       sodipodi:type="inkscape:persp3d"
       inkscape:vp_x="0 : 1768 : 1"
       inkscape:vp_y="0 : 1000 : 0"
       inkscape:vp_z="3057 : 1768 : 1"
       inkscape:persp3d-origin="1528.5 : 1178.6667 : 1"
       id="perspective38" />
    <inkscape:perspective
       id="perspective2947"
       inkscape:persp3d-origin="0.5 : 0.33333333 : 1"
       inkscape:vp_z="1 : 0.5 : 1"
       inkscape:vp_y="0 : 1000 : 0"
       inkscape:vp_x="0 : 0.5 : 1"
       sodipodi:type="inkscape:persp3d" />
    <inkscape:perspective
       id="perspective2824"
       inkscape:persp3d-origin="0.5 : 0.33333333 : 1"
       inkscape:vp_z="1 : 0.5 : 1"
       inkscape:vp_y="0 : 1000 : 0"
       inkscape:vp_x="0 : 0.5 : 1"
       sodipodi:type="inkscape:persp3d" />
    <inkscape:perspective
       id="perspective2960"
       inkscape:persp3d-origin="0.5 : 0.33333333 : 1"
       inkscape:vp_z="1 : 0.5 : 1"
       inkscape:vp_y="0 : 1000 : 0"
       inkscape:vp_x="0 : 0.5 : 1"
       sodipodi:type="inkscape:persp3d" />
    <inkscape:perspective
       id="perspective3024"
       inkscape:persp3d-origin="0.5 : 0.33333333 : 1"
       inkscape:vp_z="1 : 0.5 : 1"
       inkscape:vp_y="0 : 1000 : 0"
       inkscape:vp_x="0 : 0.5 : 1"
       sodipodi:type="inkscape:persp3d" />
    <inkscape:perspective
       id="perspective3088"
       inkscape:persp3d-origin="0.5 : 0.33333333 : 1"
       inkscape:vp_z="1 : 0.5 : 1"
       inkscape:vp_y="0 : 1000 : 0"
       inkscape:vp_x="0 : 0.5 : 1"
       sodipodi:type="inkscape:persp3d" />
    <inkscape:perspective
       id="perspective3152"
       inkscape:persp3d-origin="0.5 : 0.33333333 : 1"
       inkscape:vp_z="1 : 0.5 : 1"
       inkscape:vp_y="0 : 1000 : 0"
       inkscape:vp_x="0 : 0.5 : 1"
       sodipodi:type="inkscape:persp3d" />
    <inkscape:perspective
       id="perspective3216"
       inkscape:persp3d-origin="0.5 : 0.33333333 : 1"
       inkscape:vp_z="1 : 0.5 : 1"
       inkscape:vp_y="0 : 1000 : 0"
       inkscape:vp_x="0 : 0.5 : 1"
       sodipodi:type="inkscape:persp3d" />
    <inkscape:perspective
       id="perspective3280"
       inkscape:persp3d-origin="0.5 : 0.33333333 : 1"
       inkscape:vp_z="1 : 0.5 : 1"
       inkscape:vp_y="0 : 1000 : 0"
       inkscape:vp_x="0 : 0.5 : 1"
       sodipodi:type="inkscape:persp3d" />
    <inkscape:perspective
       id="perspective3344"
       inkscape:persp3d-origin="0.5 : 0.33333333 : 1"
       inkscape:vp_z="1 : 0.5 : 1"
       inkscape:vp_y="0 : 1000 : 0"
       inkscape:vp_x="0 : 0.5 : 1"
       sodipodi:type="inkscape:persp3d" />
    <inkscape:perspective
       id="perspective3408"
       inkscape:persp3d-origin="0.5 : 0.33333333 : 1"
       inkscape:vp_z="1 : 0.5 : 1"
       inkscape:vp_y="0 : 1000 : 0"
       inkscape:vp_x="0 : 0.5 : 1"
       sodipodi:type="inkscape:persp3d" />
  </defs>
  <sodipodi:namedview
     pagecolor="#ffffff"
     bordercolor="#666666"
     borderopacity="1"
     objecttolerance="10"
     gridtolerance="10"
     guidetolerance="10"
     inkscape:pageopacity="0"
     inkscape:pageshadow="2"
     inkscape:window-width="1440"
     inkscape:window-height="823"
     id="namedview32"
     showgrid="false"
     inkscape:zoom="1.0678733"
     inkscape:cx="1182.866"
     inkscape:cy="3277.3166"
     inkscape:window-x="1366"
     inkscape:window-y="25"
     inkscape:window-maximized="1"
     inkscape:current-layer="svg2" />
  <title
     id="title4">Paths of the golfcar</title>
  <desc
     id="desc6">The paths consist of all the possible route that can be taken by the golfcart to serve 4 stations: DCC, MCD, EA and E3A</desc>
  <image
     y="0"
     x="0"
     id="image2949"
     height="3536"
     width="3057"
     xlink:href="file:///home/golfcar/smartfm/bookingUI/shared/SvgPath/curb_map1213d.png" />
  <path
     d="M 1077.5172237,2295.34287414 1074.8887878,2289.48013575 1074.68933173,2289.17230133 1073.71412614,2287.04460945 1070.40987637,2279.33295833 1070.05422159,2278.66322764 1068.92898694,2275.86927088 1065.8908708,2269.04311818 1065.69249174,2268.86033051 1064.78090457,2267.00252103 1062.39167717,2261.94357978 1061.33609082,2259.7018652 1059.04299211,2254.64103533 1058.46183809,2253.24105303 1057.31717181,2250.49935586 1054.76786972,2244.91376542 1053.95334408,2243.0310171 1052.88106877,2240.87962884 1050.70101928,2236.2499585 1049.61041007,2234.1384174 1047.53379073,2229.69431634 1046.09726306,2226.94330479 1043.22561321,2221.56025587 1040.46669951,2216.00815215 1037.88325289,2211.26630712 1036.55033653,2209.03793385 1033.11872857,2203.2590162 1032.56907054,2201.94778344 1029.90544114,2197.36572812 1027.38841508,2192.99433516 1023.08219937,2186.24625529 1022.57392434,2185.6078932 1018.06358081,2179.12743545 1016.88162425,2177.93604627 1015.81483229,2176.04399045 1010.61305729,2168.59101473 1010.93414158,2168.83131439 1002.84213971,2158.31994029 998.844624139,2153.08449695 990.560997053,2142.67770363 982.221711637,2131.86992289 974.618521756,2122.09323884 967.860962904,2113.20440722 960.748213209,2103.82402929 952.675353679,2093.41787469 944.985398873,2083.67204574 937.20576479,2074.09584634 929.463838868,2065.37487249 920.016130931,2056.01973406 910.113580341,2047.5262856 900.557565517,2040.48559699 889.133324934,2033.23081206 878.448884133,2027.38758786 867.431608349,2022.07257013 854.08675746,2016.64216521 837.195186487,2011.07377201 825.417688612,2008.12069161 791.153223758,2004.1260544 736.19392344,2011.23636543 725.746622747,2014.34321674 718.987330707,2016.84686405 712.80256899,2019.16521117 707.627380284,2021.13265512 701.531754843,2023.928495 696.144910339,2026.52978369 690.666021307,2029.60341134 684.723573433,2032.67284517 679.953317102,2035.52032879 675.270610983,2038.49219478 671.311603921,2041.16454792 666.35601433,2044.37710949 659.010846584,2049.65333903 653.129042959,2054.21230438 646.645574402,2059.33233195 640.705045716,2063.94807052 636.218611834,2068.02870195 632.421525874,2071.74641094 626.287517645,2078.38588636 621.342805538,2084.01157192 617.463881034,2088.56489415 613.792499056,2093.03784093 610.169445755,2097.67512882 606.431453133,2102.4024277 601.024511878,2109.51340087 595.660753319,2116.80769783 592.606932126,2121.21269661 586.007287276,2130.5495697 581.712838348,2136.73787094 578.037921588,2142.33664161 574.166426558,2148.17880554 570.659540544,2153.61873397 567.091152455,2159.34546829 563.344898993,2165.59914848 559.787883624,2171.53756516 556.673009173,2177.02473534 555.733581902,2179.12906848 552.711087494,2184.36926619 549.487097149,2189.73100339 544.602581864,2197.6888323 539.868080251,2205.09703291 535.430138784,2211.74586548 532.145251735,2216.54413899 528.6453447,2221.41355079 524.640416827,2226.77750073 520.843520812,2231.76160127 512.086154275,2242.9934023 504.204495521,2252.68821575 495.482764,2262.98731062 488.043421273,2271.78977833 470.258919078,2288.68524836 463.856769541,2294.16091563 459.914819485,2297.5773612 457.175950535,2300.8417061 453.302733799,2304.38275713 449.025739699,2308.0650876 444.73238633,2311.6139935 440.50525107,2315.01096158 435.741982252,2318.66089845 431.21193173,2321.92151888 426.842283751,2324.95399449 422.773207886,2327.81945668 418.440174078,2330.68460371 414.238199672,2333.30066824 406.128436854,2337.98148592 398.091105583,2342.44162631 391.299062385,2346.24024385 383.210330396,2350.41523619 371.977117323,2355.34913456 339.621669545,2356.57535995 298.59069515,2321.7683078 296.265673806,2317.24825455 294.129757423,2311.13324109 292.189983988,2304.63708842 291.034498126,2298.90441043 289.905298017,2292.32529441 289.054776376,2283.41073477 288.593980975,2277.20621713 288.271246579,2270.33017334 288.267702835,2264.425825 288.213450946,2258.25009447 288.655439441,2249.78483092 289.049260126,2243.76605318 289.695916603,2236.60290809 290.25810119,2230.55339762 291.020824721,2223.41283323 291.443864,2217.72244263 292.152263831,2212.00480228 292.855725262,2205.68210831 293.535944209,2199.14062454 294.36384951,2193.2971256 295.21336429,2185.98482925 296.040288021,2179.27983008 296.740327466,2173.25357519 297.541282183,2166.88245836 298.306503081,2160.98353945 299.218790318,2154.14441431 299.970974159,2146.76162554 300.784662028,2140.73169237 301.359350935,2134.88467102 302.282780403,2127.69079373 302.91831875,2121.24335476 303.737792646,2114.89615292 304.397911449,2108.47144498 304.997501505,2102.63489082 305.863341122,2095.61900009 306.183230351,2091.67830808 306.926674507,2084.04112283 307.63215628,2077.82687095 308.382660369,2071.43830293 309.030875866,2064.56960287 309.475246815,2059.0860154 310.102789383,2052.70699494 310.692419842,2045.83716215 311.517623454,2038.82359295 311.903221297,2032.88766409 312.665284419,2025.15972302 313.084907293,2019.16456906 313.800826976,2011.34432705 314.421922915,2004.83361251 315.081034076,1997.33826665 315.58217317,1991.61168857 316.246140771,1984.71798967 316.818507161,1978.75549321 317.056132917,1973.11510118 317.56272185,1968.23445292 318.069183838,1961.85639248 318.610292081,1955.44148217 319.113896621,1950.93158554 319.709064659,1944.82442109 320.086719668,1939.24174489 320.81422478,1931.32409424 321.50432623,1923.11787005 322.249938617,1915.16383942 322.638698862,1909.14791484 323.092751177,1903.47263888 323.717855244,1897.41137849 324.33427547,1890.56982302 325.069069938,1884.83117601 325.777963486,1876.85050493 326.345409661,1872.1356077 327.16137298,1863.79067588 328.048605422,1856.82412014 328.732219071,1850.1811519 329.256397805,1845.9723428 330.125469582,1838.19274061 330.821115263,1832.37294078 331.31522636,1825.97400037 332.009454173,1819.59358996 332.515133915,1813.20189124 333.026044105,1808.5438851 333.399574557,1802.97510328 333.945901108,1796.92387064 334.637244668,1789.31233167 335.39416041,1781.23654515 335.758206731,1775.98300196 336.306148395,1769.22901215 336.978772262,1762.53553501 337.631177111,1754.68632148 338.034750268,1747.97275466 338.628156091,1740.35994059 339.023964848,1734.58581677 339.61962059,1727.87081036 340.171369328,1719.61125655 340.658392921,1712.01598784 341.069004617,1705.93692753 341.439929027,1696.80072586 341.844199429,1690.83742682 342.157250827,1684.23665917 342.543925873,1678.32051714 342.711126143,1672.48156049 343.064961957,1666.28298799 343.599158443,1653.40918072 343.93842952,1645.79380029 344.22068498,1638.51359959 344.579147719,1627.88018766 344.800167945,1619.41093448 345.018963111,1615.41209166 345.259814089,1608.78046798 345.576095367,1599.7835973 345.799896026,1593.53791859 346.178527995,1585.31057322 346.610539937,1576.99187443 346.914078723,1569.28421605 347.187856808,1566.10154732 347.707883788,1556.11469455 348.100519364,1549.01094683 348.354232303,1542.60211305 348.730116283,1534.44583489 349.444533284,1521.90801874 349.445038992,1518.96975494 349.900736953,1511.69284995 350.317085583,1502.28882634 350.703324235,1494.99828539 351.195121222,1486.5674998 351.722452761,1478.89402054 351.995549054,1473.25478601 352.167239154,1467.2165149 352.584697636,1459.53633711 352.999651233,1452.94805425 353.354547543,1446.51596699 353.595566344,1440.87910755 353.922455455,1434.91626967 354.366115427,1427.30882861 354.879278386,1419.85477973 355.314341183,1412.87771353 355.758231527,1405.09925037 356.448759115,1397.12913227 356.884735368,1389.39654451 357.248920827,1383.46126823 357.856632157,1374.27523102 358.385162319,1366.32024653 358.81604405,1359.85597597 359.404007218,1350.9099196 359.86322798,1344.08002409 360.302499297,1336.94589302 360.635596241,1331.51892758 361.017292823,1325.39890852 361.380209418,1319.77015661 361.828584238,1312.98052057 362.200266036,1306.4628569 362.655668313,1298.8930023 362.968683177,1292.43833474 363.339045768,1286.25168511 363.673340561,1280.34006343 364.074517486,1273.6883312 364.478843173,1267.29614488 364.811991594,1261.0890695 365.292338994,1255.02495835 365.724123919,1249.42151805 366.293204051,1243.30360527 366.895553744,1237.54266451 367.66436294,1230.53658335 368.635090755,1223.51576825 369.572040769,1217.09941175 370.561450119,1210.88550591 371.788452507,1204.21840774 373.094382998,1197.19685302 374.422550122,1191.27734074 376.034233501,1184.099063 377.568388177,1177.75268102 379.173259441,1171.19416912 380.708681904,1165.29924504 382.376423127,1159.40164988 386.1125776,1146.66419278 385.890595621,1147.16525215 390.143857292,1133.29809797 392.098727722,1126.77918013 393.926315941,1120.99145992 395.897220567,1114.89613791 397.900448467,1108.69270912 399.858531917,1102.68447206 401.965959606,1096.23963907 401.473089781,1098.32127721 403.510258587,1092.28759635 405.660583985,1086.01691876 408.052230478,1079.05088238 413.092884647,1063.99146194 412.614584223,1065.75468757 414.711435095,1059.82923816 416.996613451,1053.32627687 421.975566781,1038.4336687 424.243761691,1031.80782957 426.287781504,1026.05176333 428.297555521,1020.39043123 430.517733187,1014.11682212 432.442550628,1008.61938187 434.68070937,1002.49840126 436.914774695,996.34319798 439.060883918,990.25993415 441.639736943,983.14216895 440.8180651,985.3052465 443.324375855,978.40256081 445.514364328,972.40067368 452.137410027,955.20268044 454.122818281,950.01995031 451.693423373,956.07583584 454.893572667,947.59728254 457.832007149,939.74784954 460.028940786,934.03295684 463.632706336,924.776479090001 468.663855594,912.05194752 471.601434057,904.173688190001 478.204230625,887.65373672 481.441439536,879.56320581 484.217226436,872.40076265 486.7888854,865.72074046 489.368302986,859.51972791 493.261991211,847.964473290001 496.411612173,840.37290947 499.02580886,833.39726305 501.175543526,827.76854305 504.412601554,819.26102567 506.203392405,814.90276814 508.583498833,808.29644768 511.244860314,800.92983367 514.285519706,792.76070128 516.925587673,785.54600362 519.191955739,779.46737708 521.672303342,772.65515571 524.004216253,766.28172127 526.488412953,759.62482528 529.228362269,751.79378277 531.960407434,744.31271928 534.724701533,737.4081507 537.056635372,730.45570335 539.807697146,724.18036269 542.590874549,716.50210608 544.760820158,710.89664824 547.584492281,703.22349496 550.118342172,696.8704209 552.967676987,689.95328164 555.553283581,683.24645696 558.851833345,675.45220911 561.34526819,669.58303771 564.896456318,661.0369271 567.835968753,654.19700816 571.134355218,646.07009459 574.013566949,639.64065944 577.376373287,632.16505726 580.351322603,625.66030684 582.840548983,619.72379432 586.043327002,613.17125699 588.608293055,607.21071986 592.132622759,599.74268575 595.527003447,592.51283688 597.863904306,587.27285024 601.522018516,579.44589802 604.045485823,573.56043704 608.558816679,563.574549980001 610.368992091,559.31526109 613.890759476,551.054722670001 615.870744912,545.87450695 620.469964487,535.27754038 624.135658595,526.73991741 627.020130176,519.4918815 628.237696598,516.51071569 631.544567539,509.07572228 634.264075191,502.83670586 637.174029676,496.51205608 639.772154628,490.76760137 643.259834531,483.74734146 646.319581115,477.68845911 648.954716357,472.48402714 652.190156865,465.98224285 656.050911288,458.531536380001 658.255171426,454.43660789 661.089397034,449.13055621 663.791423574,443.67150372 666.343157245,439.01986971 670.931536779,430.87602824 674.277284232,424.639762710001 677.715570931,418.19129851 680.978321062,412.21121521 683.915129739,406.79521705 686.990214732,400.96494142 689.857096013,395.21555871 692.868316381,389.72611944 695.531511031,384.5126057 697.817305675,379.75520641 701.148701041,373.73247565 704.240177231,367.919240220001 707.432497286,361.79505551 710.26960436,356.36164746 713.690235077,350.09423746 716.887888534,344.14896822 719.11509704,339.604425330001 721.947786641,334.5917909 725.616567886,328.10441399 728.606996507,322.52592075 734.295431652,313.44182328 735.084909167,311.63228561 738.67447424,305.62249902 741.861913548,300.62944519 745.270368506,295.1356453 748.364696698,290.231337560001 752.213299594,284.34038202 756.149210895,278.42306875 759.669297535,273.06546464 763.170032022,267.82647437 768.034443441,261.1098208 778.220922946,246.95510049 785.908682176,238.31422746 790.746362476,232.9942421 794.698674092,229.06102403 801.897001063,223.16531929 847.518435955,204.97843137 853.594277483,204.21452835 863.153990897,204.45493127 869.537506184,204.40264808 875.602456237,205.55146905 881.182408969,206.46931031 889.794843432,208.676733960001 896.677269771,210.64567914 903.106961716,212.90746743 909.321543415,215.31524372 917.198082152,218.19781983 925.028538988,221.384455320001 931.478276961,224.01696372 937.774205077,226.47838003 944.374100599,229.08537013 950.420370944,231.53390809 957.39728104,234.34859224 960.828251418,236.016755820001 964.660186085,237.40216273 969.489956194,238.77286155 976.139622342,240.946814240001 978.428195527,241.66243067 981.291390932,243.03655763 982.554549784,243.70796348 989.476655242,246.52425043 992.059939487,247.55685593 996.898258969,249.218040830001 999.517997102,249.99376564 1002.19644728,250.98293009 1010.75325927,254.14385005 1014.34625659,255.67457114 1016.20678178,256.59424469 1017.6914885,256.63785376 1021.36043954,257.85364008 1028.56790444,260.17271439 1029.40500707,260.49780842 1034.48824078,262.45136865 1039.97182653,264.46427552 1043.05626129,265.67438077 1049.56919435,268.3065736 1051.56774864,269.2886735 1059.16714012,272.47512743 1065.03730089,274.30066937 1070.9373331,276.54198256 1072.97118223,276.93288133 1078.87743071,279.08466972 1082.6812539,280.23123015 1089.12947822,282.50142641 1094.10900588,284.62545755 1094.80428006,285.09710623 1101.46497784,287.6747597 1102.36952831,287.96232269 1105.5464235,289.19094019 1115.04775742,292.66304436 1118.65669389,293.99334489 1125.21802544,296.301696380001 1128.35718068,297.47953696 1131.45142903,298.37786934 1134.83012392,299.85324186 1140.43963388,301.89800851 1143.85302597,303.32441006 1150.41720825,305.87143234 1152.67164191,306.27945562 1155.7277414,307.36470659 1164.60702461,310.52943241 1164.67021313,310.56081967 1171.43056327,313.0838206 1174.4702313,314.25021399 1177.86802498,315.38074988 1185.80277664,318.27056984 1187.61473848,318.98671819 1190.34217135,320.01266412 1197.40504514,322.8655441 1204.79331971,325.828265130001 1206.4678105,325.99788069 1212.83541656,328.39808305 1215.42794979,329.58868023 1222.85087315,332.36367911 1230.46111422,335.26259635 1231.96368485,335.83690145 1237.7058525,337.96047529 1240.87729897,339.16438036 1246.81885439,341.4585115 1250.18740125,342.80679401 1258.4659736,346.40901863 1260.23577691,347.11477304 1271.9628959,351.59418939 1280.07359186,354.77227409 1287.56383445,357.666128190001 1294.67886964,360.41700775 1301.78064647,363.22939887 1306.82497848,365.05428218 1313.40848177,367.66438332 1318.38022474,369.66883979 1327.82217399,373.20997013 1333.82207599,375.27879573 1340.08938669,377.53976684 1345.27311459,379.35577558 1350.75164376,381.2964199 1356.86220328,383.44938538 1363.66409096,385.965154810001 1369.49165964,388.1583452 1375.31516818,390.42381258 1381.7797115,392.98728226 1388.13412639,395.52423876 1395.50170583,398.25347916 1402.74392963,401.26811584 1411.46944307,404.75101917 1437.74076496,414.70312073 1445.55203149,417.58731243 1452.77351812,420.37769709 1459.08154074,423.011477550001 1464.50566303,425.30220048 1471.82237059,428.471027000001 1478.81193838,431.31457468 1504.46995138,437.972549210001 1513.58784517,441.12575825 1523.72950947,444.50924874 1529.87215884,445.73411688 1537.47722643,448.0854086 1547.42115763,451.57198695 1561.95312205,456.41456977 1570.8957553,459.52548922 1577.29156934,461.93200759 1585.42678785,464.6201149 1593.57870337,467.55716839 1599.99735708,469.64541042 1607.3678555,472.243143170001 1614.24727796,474.91093783 1620.34466065,476.915149290001 1630.4115799,480.27218444 1633.16772381,481.31821014 1638.94920483,483.27292428 1651.70748557,487.42680248 1653.36601703,487.90612184 1656.57333502,488.93153757 1662.84397815,491.26515644 1675.80964641,495.2605104 1677.80791566,495.79875795 1681.27402105,497.06917065 1686.92166433,499.07671276 1690.55570043,500.32353371 1695.06242982,501.58576806 1697.28931659,502.29405031 1701.15372682,503.70762289 1706.55815474,505.52779432 1707.98653805,505.58244518 1714.08952186,507.56016579 1717.59627767,508.89896256 1720.66815548,509.73261114 1726.1811882,511.39130925 1729.35589927,512.45112786 1735.59696097,514.50418386 1738.84677618,515.64161219 1745.86642702,518.11812669 1747.4689853,518.73353902 1750.37217281,519.64502993 1759.00272358,522.68746712 1759.44986278,522.91855542 1765.02668812,525.04966968 1767.96440842,526.08857836 1770.75361636,526.98474495 1776.07677436,528.82835804 1779.67714423,529.93892386 1785.82180676,532.070439250001 1788.86322893,533.03755401 1796.50461445,535.70422296 1797.12992283,535.81634695 1804.18589548,538.37660289 1806.29006687,539.12688326 1809.08522146,540.16936971 1814.88259439,542.18483444 1817.78855956,543.2881852 1825.23588585,546.00051852 1826.50371801,546.53008454 1833.2000477,548.65037629 1835.49492651,549.5559044 1838.38274745,550.65346765 1844.46570689,552.86915058 1847.05767875,553.88618225 1854.26539014,556.6634255 1855.82022946,557.18900678 1861.41735379,559.35061738 1864.31913534,560.33053611 1870.10770495,562.60600467 1872.56665457,563.60920046 1879.66509587,566.12204454 1881.68083042,566.97841781 1886.58317462,568.76235296 1890.42362803,570.23045922 1893.16377416,571.04632524 1898.43015016,572.93521669 1901.24574909,573.997469030001 1906.85052028,575.79157472 1909.86153358,576.82074264 1912.66855384,577.88338257 1918.22416148,579.77935267 1924.13127342,581.73191419 1926.65227988,582.52306874 1932.71551976,584.61014716 1936.39067605,585.79290236 1942.02366184,587.71683729 1947.41648233,589.91607896 1952.43538458,592.53135699 1956.73994805,595.13371284 1958.65303091,596.44162631 1962.31392777,599.54845773 1965.75417961,603.2920343 1967.39620559,605.17248042 1969.82366008,608.70371592 1971.84249269,612.4337146 1973.5782175,617.04327569 1974.09375687,618.55595344 1973.47899863,643.983171750001 1970.87496739,650.51804202 1970.02744358,652.65793756 1966.9845921,658.11382919 1965.30735321,660.49578896 1962.36744598,664.01749736 1958.30205467,667.767723280001 1957.45118098,668.785177090001 1954.35536666,671.02159246 1952.03841001,672.683403430001 1950.18363255,674.07910595 1946.21065327,676.1814109 1944.22398064,677.10092722 1939.62326735,678.86465273 1938.02992102,679.47947348 1933.77206624,680.57872931 1929.66215573,681.32067446 1925.16775325,681.77174646 1920.39608433,681.89190338 1915.63501067,681.674240750001 1910.58160471,681.13786311 1904.66898761,680.42437978 1902.76160363,680.03039473 1897.68806552,678.83347494 1892.23966774,677.36024569 1886.73267951,675.61804768 1883.81219275,674.54983861 1878.27066509,672.66132491 1873.63658654,671.17989814 1870.28141445,669.965290340001 1867.40887078,668.918488700001 1862.01360322,666.83652858 1859.22846655,665.6246637 1853.3210185,663.09799691 1851.66214601,662.28148208 1847.08851947,659.80272914 1842.7193111,657.18919168 1838.70252441,654.5623332 1836.58695318,653.035985470001 1833.39331438,650.26427727 1831.40177816,648.50860548 1826.97016405,644.22338633 1819.6957739,635.922127870001 1812.2353775,626.05883811 1805.6919892,616.51490774 1802.18947292,611.30958384 1798.6878769,606.24543964 1795.21723263,601.33576654 1791.54067207,596.31316644 1787.63059398,591.4388572 1783.18505166,586.467332520001 1779.08578628,582.124289410001 1774.43513036,577.76773312 1769.51896165,573.55693048 1763.9784123,569.230314880001 1755.07761637,562.94307003 1749.62730886,559.74197302 1744.25218974,556.83678659 1737.49981373,553.49767133 1729.86252834,550.041997830001 1721.30347722,546.56208803 1713.0100224,543.51134147 1706.49106838,541.67244914 1699.17908089,539.2847016 1693.34042386,537.45505044 1686.84287254,535.42259127 1681.31047391,533.64522567 1675.46609117,531.84708494 1669.33305046,529.96261613 1662.65424103,527.97064195 1654.80929882,525.65760952 1618.3172835,514.64042206 1604.97561149,510.30920314 1594.74084257,507.17621519 1587.31218485,505.02148882 1579.88164874,502.572323280001 1571.95863382,500.43908866 1564.95891031,498.0758006 1517.1186987,482.83990427 1509.43712166,480.69857224 1502.51590345,478.05686539 1494.47167932,475.35271679 1487.27379465,472.85168918 1479.69258353,469.95839803 1473.25359875,467.22451271 1466.21591179,464.44990042 1459.05170432,461.77342153 1451.58098473,458.94042892 1444.98616803,456.37204943 1438.30985667,453.85765253 1430.47364057,450.99394754 1423.44772995,448.03987308 1416.56875067,445.50544739 1409.93938833,443.18464079 1403.14625812,440.83918521 1396.4096772,438.42609208 1389.16105334,435.73394123 1382.53395234,433.42408767 1375.92068119,431.0743428 1371.16635072,429.45020322 1368.16145939,428.42071926 1361.22844995,426.12406216 1359.01121008,425.38119415 1353.1684668,423.55954206 1346.76265626,421.57457746 1347.54975289,421.88853837 1342.10444231,420.189758250001 1337.65453406,419.01781479 1334.17475961,417.94825832 1331.41481675,417.11455341 1326.11314034,415.87411016 1320.87631718,414.76177042 1317.80984089,414.28905572 1312.90209976,413.57895519 1310.11894719,413.146720960001 1304.6636384,412.680348660001 1302.32612242,412.52565331 1296.82992965,412.43853317 1294.23089987,412.11716859 1289.88890844,412.36270376 1285.30314584,412.855919000001 1282.64491041,413.257990730001 1278.07298546,413.829689310001 1275.03832661,414.458427090001 1270.38239861,415.57171159 1268.04770557,416.16585595 1262.63949328,417.78200736 1261.5418925,418.18138645 1257.52378692,419.31779991 1254.97438115,420.30580076 1250.97617909,421.7534389 1247.11245546,423.29782515 1243.27086107,424.80568705 1239.39505584,426.26311644 1235.51941569,427.638749780001 1231.4589737,428.92561265 1230.28703527,429.34709401 1225.77670919,430.5155574 1220.39643444,431.81296489 1218.04468167,432.21217142 1213.5159212,432.76165974 1211.17167204,432.921464 1206.88126777,432.49168193 1205.05726602,432.43207192 1200.96393732,431.848537200001 1197.82838313,431.43829862 1194.89126908,430.92752867 1189.77292315,429.75064442 1186.96363432,428.92964826 1181.7392275,426.82212518 1178.99556422,425.77272682 1173.23737698,423.17738424 1171.3956847,422.52757751 1166.42839814,420.25903364 1157.93764725,416.6637227 1155.51651747,415.56803939 1152.21791296,413.6265592 1145.66818825,410.69573221 1138.03883044,406.868221520001 1123.12363734,399.81400716 1118.28761632,397.509733280001 1118.88141363,403.8104583 1118.20115212,402.85202176 1117.06635935,401.36277903 1111.72716183,400.192456530001 1087.78381856,393.39868636 1076.29450663,387.32067149 1066.75414077,379.23916273 1056.63821604,367.36904932 1051.12012003,359.62755652 1044.90220325,351.1441418 1039.4774571,343.58171571 1032.72175318,334.977912270001 1028.84773989,330.089186350001 1024.83706184,325.25358374 1020.4112127,320.10090667 1015.96735446,315.29084286 1011.4825848,310.61900076 1007.08659942,306.52771103 1001.96665658,302.108861480001 995.687037566,296.9444869 990.495402513,293.21665235 985.213785637,289.57032642 980.259064375,286.3891406 974.570386881,282.96373215 968.857701315,279.65829863 963.572372633,276.88037866 957.318560345,273.75663839 951.340184479,270.92244852 944.32936068,267.85423416 937.495550754,265.049680940001 931.687384725,262.78084358 926.162571356,260.75567056 920.559362539,258.77763022 915.230026515,256.93753548 910.427938312,255.3142934 904.872303107,253.46698621 899.148029633,251.58023187 893.435004717,249.83850882 889.276081455,248.67394272 881.203001335,246.79871851 874.274161174,245.66297223 867.811971877,244.92072882 860.553120239,244.45121801 854.368937103,244.62860184 849.252519924,245.10605082 842.682605011,246.40734653 835.601802254,248.59372158 829.038324337,251.34703448 829.147347729,251.12650593 822.673782639,254.77729548 817.612338329,258.33911705 812.58005272,262.51836903 807.128046851,267.83320874 798.66539605,276.85543202 794.763591146,282.02199609 790.800646853,287.80281587 787.208834871,293.26401019 783.562776017,298.96943811 780.210181594,304.49986513 776.727299707,310.37799048 773.534999059,316.13532079 770.751780862,321.451379340001 768.042885852,325.93535619 765.777241523,330.22336096 762.339548384,336.43120021 758.44469314,343.70584857 755.641589584,348.93460738 753.476618844,352.96214033 749.433602816,360.32680483 746.576808528,365.89101183 742.363679382,373.21120164 739.609989976,378.473497330001 735.568835404,385.67290082 732.414438637,391.344071200001 728.712109927,398.38311385 725.37768434,404.27234022 722.640171979,409.4677659 718.548928545,416.526392190001 715.502285617,421.817370010001 712.02361232,427.97098484 708.796272066,433.83938562 704.205690168,442.05468713 700.322085383,448.79397408 697.485607161,453.83095064 694.279339794,459.5156911 690.456432008,466.31524083 686.874618667,472.82174757 683.385598181,478.99059424 679.987786531,485.62635595 676.871884649,491.86763122 673.902911397,497.92904095 671.010217041,503.89638875 667.845940282,510.572936860001 664.434903009,517.729560140001 661.042366015,525.21440862 657.573772569,532.79041666 654.459225198,539.61158958 653.362083306,542.58368836 648.35845478,553.75982654 646.871186267,556.972324410001 644.018484789,563.44536574 641.214599438,569.90649609 638.439437643,577.02144593 635.552986723,583.90836807 632.872472178,590.32402879 629.349528095,598.11047164 626.277259484,606.02082782 623.731404298,612.08285557 621.01299855,618.53709127 618.233926083,625.293933590001 615.453823782,631.61629386 612.465679922,639.11739886 609.808070206,645.7902649 607.08818465,651.774265250001 604.344914827,658.47242647 601.458713289,665.30370103 598.600755756,672.0582816 596.011597609,678.31676623 592.892680537,685.71750648 589.985557929,692.48689141 587.328499305,698.7220693 584.614520325,704.959826700001 580.415506494,714.54451373 577.742380572,721.06236522 576.426591444,724.61296854 573.861400333,731.11258098 571.545013744,736.50916334 569.281185391,743.07590452 567.972694132,746.04372738 565.52649398,752.26062512 561.146662558,762.93743886 557.411865969,772.48584764 555.005724429,778.74840263 552.148075153,786.516749750001 549.431551627,793.32068274 547.109081603,799.48470419 544.519582659,806.15298722 540.973278415,814.709858230001 537.339538954,824.50907552 533.183197376,834.74065131 531.632297377,839.10393399 529.343754586,844.5912735 526.205051945,852.3927435 523.214806398,859.58403455 520.113815848,866.57517507 517.880575543,872.56766283 515.06563688,879.25070639 512.455951437,885.9241534 509.755809608,892.82442452 507.945146957,897.72434297 505.370866301,904.860134160001 503.689394451,909.20957375 501.145825444,916.23612331 498.83355717,922.8865603 496.930855849,928.53066207 494.2045814,935.959996900001 491.892164439,942.32679574 489.352472405,949.79294994 487.03220076,956.33990673 484.427991456,963.38956846 481.633558486,971.68986817 479.185213604,978.72663106 477.69917275,982.69276291 475.32449791,989.19021412 472.983123544,996.00610206 470.867636921,1002.14206509 468.784106384,1008.35633941 466.319683391,1015.58509586 464.242695739,1021.61872554 462.425686793,1026.72297599 460.420645966,1032.3751108 457.807781496,1039.28400377 455.370669882,1046.19608455 453.417343392,1051.93715283 451.593497557,1057.36203511 450.096352271,1061.78943972 447.456541796,1069.32425815 445.034904829,1076.56025636 443.15073517,1081.71677426 440.98848769,1088.05557361 439.210007284,1093.22850382 437.091066293,1099.25337428 434.396535365,1107.21898444 432.160267153,1113.9216253 430.404601051,1119.57049434 428.0373532,1127.20979444 426.152920578,1133.13707525 423.933308282,1140.55993991 421.975537253,1147.89911531 420.610970996,1152.73472946 418.287916081,1161.4113868 416.515844986,1168.54448676 415.011769952,1175.19651267 413.701080211,1181.19819779 412.205605533,1188.18885799 410.796629924,1195.22437404 410.731872222,1196.18502874 409.236741294,1203.40477348 407.347798276,1215.48590903 406.374883451,1221.23413933 405.281155699,1228.27092561 404.383207105,1234.76144395 403.367051777,1241.38455332 402.380024066,1249.47432336 401.630562298,1255.38077951 400.905847803,1262.23033422 400.467305944,1264.44663701 399.751682954,1272.01589982 399.122535842,1279.81954734 398.423830378,1287.84001963 397.900867197,1295.45194429 397.395369614,1300.93263411 396.879244115,1311.21900955 396.330633168,1318.48536341 395.714978413,1325.93341021 394.869174652,1334.26541377 394.403094281,1341.13539131 393.754706688,1348.06061275 393.276750396,1352.28988307 392.722442049,1358.75034642 392.296750716,1361.86515423 391.730805148,1367.91770226 391.101979275,1375.0973872 390.607138811,1381.86815673 389.932314121,1391.56086314 389.12648841,1404.1483699 388.677163863,1414.88665547 388.205327228,1423.07456018 387.264688083,1436.37141021 386.721956703,1447.11653769 385.87653442,1458.48248028 385.4520615,1465.56105696 384.984518118,1473.53541114 384.344146656,1481.35713595 383.982389774,1486.71772419 383.508106905,1494.84508604 382.833425141,1503.70903753 382.171655263,1514.36119314 381.609987707,1522.02895785 380.993284697,1529.30419686 380.519055182,1536.25860276 380.083434894,1542.6917875 379.710371595,1549.04396906 379.460317882,1554.07676001 378.684781099,1563.23097715 378.485435513,1569.67246774 378.461902774,1572.82020169 378.062361896,1579.49181507 377.758735568,1585.67900985 377.449949126,1593.61207807 377.244897135,1599.27606077 376.983628161,1606.67443898 376.689838933,1614.87983497 376.588084873,1622.10363354 376.350993771,1630.79498925 376.556504396,1634.44014653 376.313275104,1641.85099472 376.062324778,1650.76350423 375.890875191,1657.46603717 375.745705528,1663.72030405 375.28152834,1672.8408195 375.241433776,1676.81522952 374.877786668,1684.57664457 374.221397841,1694.56868669 373.781869231,1701.29165835 373.385286375,1708.76974915 372.679778482,1716.50821976 372.413164454,1723.373293 371.779801584,1731.48158438 371.403358714,1737.59175272 370.560511852,1747.05375322 369.875211111,1755.06544626 369.271897933,1762.37983931 368.692102647,1768.77266924 367.99384273,1778.39021067 367.302335262,1785.19031571 366.926195033,1790.5224375 366.175591735,1798.94461195 365.732428952,1804.49779808 365.112870508,1811.44880872 364.226014822,1820.62920732 363.683837953,1826.62044955 363.117826053,1832.38740152 362.308794661,1842.01103481 361.597404799,1852.13707228 360.728386867,1859.61871842 360.028525375,1868.37508678 359.268064421,1875.4624526 358.46321711,1885.81646934 357.832780263,1893.39159364 357.172623091,1899.05245366 356.4648923,1907.06815574 356.032464234,1912.2462173 355.551674431,1917.52321805 354.857376091,1925.38090986 354.231698167,1932.66209689 353.382524304,1940.93950319 352.408608415,1950.02951164 351.720114506,1957.32231931 351.148118136,1964.59590189 350.100780016,1973.08743126 349.275718056,1980.59118535 348.517501134,1987.36463368 348.095365479,1992.29655899 347.29352638,2000.33677045 346.383633432,2008.29994987 335.430830585,2074.39137206 336.665917703,2102.38177303 335.700038183,2109.82073828 334.780681685,2117.40895644 334.143212676,2123.95742172 333.798825488,2130.22345811 333.504023199,2135.19865407 333.069721031,2142.29889167 332.858465844,2146.91090617 332.264400912,2151.80786921 331.795802894,2158.06593587 331.476581139,2163.33140971 330.874066456,2170.14312449 330.141880558,2176.69893625 329.243687324,2183.81133015 328.196891805,2195.16674146 327.554022708,2203.05208955 326.979844246,2211.45097188 326.837036041,2217.29491506 339.140682223,2260.71822782 373.281722137,2283.67405859 379.087162228,2285.09834872 384.649531529,2286.56880552 398.610394573,2285.16693581 405.495216229,2283.45738453 412.401153126,2281.73328646 416.870324904,2280.89975986 421.906722316,2278.95641829 429.705152653,2273.80581634 438.226306565,2268.58597819 442.590744196,2264.7627703 458.643791838,2250.33106076 461.870575939,2246.51763648 467.973236135,2239.76523062 472.214257922,2234.79671242 476.823747186,2229.4964303 482.245332614,2222.91367858 486.508774526,2217.80457256 491.057287904,2212.1881286 495.887635321,2205.81345063 499.768005895,2200.598852 504.48985506,2194.23172631 508.541865213,2188.83497683 512.466675669,2183.437989 516.192855972,2178.26427055 523.285323506,2167.65064642 531.331667857,2155.13503011 535.843388134,2148.06366925 541.397052258,2139.14047077 548.576488969,2128.33142669 551.493411848,2124.22982756 555.364126505,2119.12162559 560.255045769,2112.81793402 564.853583626,2106.68944996 569.135137236,2100.97617813 575.054658532,2093.3747423 578.899764749,2088.5023213 583.587445447,2082.53675283 587.644966624,2077.49443375 654.435421005,2015.98339516 659.515226869,2011.97957276 665.066175621,2008.69793027 670.715338391,2005.20776277 676.262603788,2002.2147793 682.035725727,1998.96510641 687.367381666,1996.32513108 693.799637985,1993.41702277 700.989370178,1991.27369522 706.954129158,1988.79626848 712.336693892,1986.80700069 719.748273071,1984.55802133 725.726141769,1982.94286838 733.039161689,1981.0590727 739.026707318,1980.19749079 745.660010829,1978.93015518 752.488964647,1978.01583739 760.814581273,1977.28006504 766.246117464,1976.91178573 773.382465347,1976.57312933 820.225819406,1979.60563848 820.417272751,1979.34464557 826.955016118,1980.35048565 832.165626994,1981.67588376 837.262378464,1982.82827247 843.51059989,1984.37295241 844.236144059,1984.424871 849.253826467,1985.98478195 852.545058176,1987.03955306 857.463732051,1988.66767429 860.804553624,1989.95117504 868.029181244,1992.66048155 871.192617958,1993.86708915 874.48307046,1995.19740473 879.879923761,1997.60607689 881.802592547,1998.36174553 885.176954591,1999.91327275 891.81766629,2003.42944785 896.944764197,2005.99428449 900.11543828,2008.06467673 907.202407174,2012.33683542 904.96830458,2010.99364724 919.040815253,2020.72442096 920.912231472,2022.09602141 923.928488575,2024.19007409 928.865661025,2028.06887087 932.776582087,2031.87149418 934.430679859,2032.88840118 937.927348698,2035.77507847 938.642310607,2037.29933653 943.963869754,2040.74273376 947.536598779,2043.95293295 950.381087098,2046.68921998 953.564713873,2049.70491708 958.073183254,2054.11833697 958.07389472,2054.14406144 959.867018689,2056.01555066 964.43879849,2060.82243608 966.029780531,2062.12446004 969.671500622,2065.34704068 971.449969701,2067.44814608 973.624880008,2070.68554538 976.61574953,2074.26545608 980.018114275,2078.80991337 981.911307746,2081.35572954 985.463159786,2086.53149252 988.243856084,2090.71604026 990.196711989,2093.45011694 995.899898456,2102.79536054 994.435845271,2100.52730037 997.824080633,2106.59032848 1001.15088347,2111.91196312 1003.71467446,2115.72313594 1006.4432635,2120.65643181 1009.85227693,2126.9973683 1012.87487901,2132.21248195 1016.27101962,2138.33686212 1021.01620465,2146.37953473 1024.32168303,2152.83235642 1026.56898022,2157.41094597 1031.49980765,2167.0002659 1043.74466505,2193.73330889 1046.59650483,2199.97611839 1048.00824436,2204.15526358 1049.78293707,2208.67620564 1051.66846438,2213.13016246 1053.84467397,2217.62527947 1056.89313754,2224.16573647 1059.83743603,2230.87921259 1061.65652374,2235.99463935 1064.096113,2241.82617984 1065.74878925,2246.41395223 1067.29987023,2250.68840532 1069.72237596,2256.61979234 1072.07558545,2262.00095523 1074.23387844,2267.18884428 1077.15340875,2272.77345595 1079.05829401,2277.56930189 1081.02978007,2281.90222239 1083.91300932,2288.5948208 1087.00969486,2294.74723753 1088.35653807,2298.39567837 1103.77347245,2331.03937299 1105.86936816,2335.69226094 1109.59816517,2343.94852637 1111.36410166,2347.55645927 1112.95261091,2351.55063258 1115.82888343,2357.75624953 1119.06445193,2364.99903332 1121.14208971,2370.32315146 1123.1865925,2375.03207921 1125.31321961,2380.25472774 1127.62443099,2385.72669893 1129.58137057,2390.01993189 1131.55554944,2394.31525344 1133.51022072,2398.68035693 1135.82576747,2403.68625055 1138.70692647,2409.82234649 1141.87320098,2416.54593981 1143.87963117,2420.79772701 1146.03844561,2425.49893635 1147.98305704,2429.813784 1149.9649,2434.06278802 1152.26315082,2439.09266152 1154.87118072,2444.84652992 1156.79471482,2448.90064737 1159.04821884,2453.81964939 1160.980493,2458.21222273 1165.09965882,2467.20611198 1167.38031783,2472.5492503 1170.3727042,2479.52738179 1179.48174865,2500.18132617 1181.74407956,2504.82195694 1183.61550617,2508.5380212 1186.05590815,2513.75216207 1187.70915596,2518.08062593 1189.81483957,2522.76995535 1192.41860288,2527.52076926 1194.5219276,2532.29941455 1196.87029956,2537.461638072 1198.66302383,2541.600731013 1200.62122919,2545.737700777 1202.85672,2550.645666368 1204.73138891,2554.595838708 1207.82478877,2561.641727955 1209.90148032,2566.128876657 1212.16361606,2571.062951173 1228.97974704,2605.967238354 1231.12175036,2610.986267925 1233.47332315,2616.016873604 1235.95999029,2620.88120193 1237.83430321,2624.896215721 1239.19351156,2628.31821202 1241.11917802,2632.525912078 1243.93401416,2638.370943264 1247.10352557,2645.028031665 1249.51343205,2650.174044353 1251.82160653,2655.121353738 1253.72847602,2659.325104414 1255.62950596,2663.219111539 1258.69368649,2670.047879887 1260.61665931,2674.155930348 1262.34756114,2678.036585798 1265.01068948,2683.780105195 1266.8331899,2687.530441936 1269.11342265,2692.470141876 1271.10603006,2697.007935383 1273.05488883,2701.00568673 1275.14536697,2705.539109443 1277.45148524,2710.698747013 1279.98398388,2716.284908842 1282.23385386,2721.30383684 1284.12105326,2725.423088158 1286.50292222,2730.70535236 1288.4197856,2734.871896 1290.4966067,2739.603557389 1292.42809474,2743.978670563 1294.19460871,2747.714725616 1296.69054149,2753.28339103 1298.44566306,2757.178543152 1300.79977369,2762.445715757 1302.99496385,2767.289185753 1304.93750399,2771.623837469 1306.98612067,2775.979370137 1308.8947487,2780.063636387 1310.66684565,2784.086317827 1312.53756702,2788.110006261 1314.49018605,2792.202893836 1316.58801351,2796.707481561 1318.78087569,2801.616474883 1320.6704019,2805.653527274 1322.24218059,2809.049153764 1323.89919611,2812.877521728 1325.86647463,2817.111801688 1327.62790169,2821.005592515 1329.47243656,2825.12470737 1331.18763364,2829.078501326 1333.3092536,2833.455138378 1335.10772475,2837.412707098 1336.88382109,2841.317637884 1338.84211658,2845.562292689 1340.67560374,2849.627528809 1342.45143147,2853.542910376 1344.4733344,2858.053391678 1346.31829278,2862.211555843 1348.16665102,2866.36311422 1350.0725675,2870.530650353 1351.86058982,2874.539501946 1353.54555092,2878.291318231 1356.18880778,2883.979490893 1358.43361584,2888.884154355 1360.74758642,2893.986492727 1363.14304178,2899.242563047 1368.88782611,2912.416487151 1378.51501953,2933.86364024 1404.50186995,2989.997150225 1406.89658244,3005.962826646 1412.3090541,3010.504856062 1414.15504129,3015.925011565 1415.97708076,3021.571571608 1420.01104079,3026.37722689 1421.80014085,3030.484248523 1423.92241892,3035.372607848 1425.69708872,3039.741569539 1427.56941408,3043.820403817 1429.39690446,3048.106188059 1431.35734747,3052.592948033 1433.25132242,3056.63729251 1435.19797415,3060.673372378 1437.05106846,3064.970465623 1438.97935252,3068.87149574 1440.75191222,3072.958749809 1442.42876652,3076.726030231 1444.36428032,3080.828966274 1446.14340969,3084.656113055 1448.01661452,3088.454755178 1449.94133123,3092.209521391 1451.90761783,3095.986528021 1454.46029552,3100.554370192 1460.4196573,3109.052948363 1463.12634943,3112.269674479 1466.21665537,3115.465658691 1469.86574704,3118.824800967 1474.3696707,3122.204667872 1478.98803809,3124.930705416 1484.06189469,3127.495696131 1489.08036345,3129.472922035 1493.74289331,3130.702858926 1498.36364847,3131.380099184 1503.23403637,3132.557669179 1507.67628016,3132.754771355 1512.91840224,3133.282915119 1517.48103684,3133.600703969 1521.89639607,3133.995526358 1525.94835474,3134.612461015 1530.87462679,3135.295160984 1535.14757915,3135.601282863 1539.77375747,3136.441807651 1544.5018564,3137.421624834 1549.37361921,3138.638096333 1554.07211319,3140.194288663 1559.0877323,3142.159148268 1564.21282902,3144.561095515 1569.1246696,3147.368794249 1573.65244741,3150.511225183 1577.46840049,3153.690360415 1581.00803434,3157.241428475 1584.08257592,3160.972312046 1586.94551412,3165.075312781 1589.23147533,3169.03924972 1591.12868805,3173.132218453 1592.63861138,3177.150653763 1593.93102468,3181.538570528 1594.99381817,3185.588478371 1595.70975823,3190.080621841 1595.8710141,3194.312642864 1595.71064267,3198.785392458 1595.16352073,3203.344933264 1594.17121296,3208.116282008 1592.57529648,3213.354757705 1590.4887892,3218.462472081 1587.7965629,3223.581480827 1584.72570953,3228.137066949 1581.44441686,3232.240061308 1578.10853431,3235.658337687 1574.44956788,3238.90179391 1571.02562641,3241.53297714 1567.20515467,3244.392878807 1563.34992628,3246.490942926 1559.40546902,3248.14699219 1555.53472018,3249.378231153 1551.41676734,3250.244261119 1547.14667121,3250.74623084 1542.91852095,3250.882412337 1538.5182004,3250.690526435 1534.0235524,3250.107184363 1529.39917109,3249.172781282 1524.74034831,3247.910289509 1519.96070093,3246.302744796 1514.84290561,3244.0036644 1509.5398719,3240.850911588 1505.00568117,3237.821757299 1501.05279756,3234.708367798 1497.52912777,3231.390591942 1494.54828852,3228.048828367 1491.88309805,3224.430301734 1489.17571726,3219.914072453 1485.23165928,3208.1308156 1483.77938611,3199.692545856 1482.80225678,3192.314807724 1481.5762675,3187.169011725 1472.45898255,3160.839565899 1470.42302376,3156.525979539 1466.89466197,3148.865515203 1459.80220904,3134.784865247 1457.89285686,3130.867727354 1455.93960764,3126.968448837 1454.18860238,3123.26724837 1452.29478685,3119.661289576 1450.24582951,3115.70580488 1448.27687516,3111.492279636 1446.36759721,3107.523564827 1444.29146594,3103.296838263 1442.51783669,3099.613484064 1440.76458261,3095.73599195 1438.68551622,3091.53243739 1436.97710293,3087.80979905 1435.01529755,3083.68899434 1432.84470037,3079.041214068 1430.84482269,3074.800324161 1428.63546231,3070.0697265 1426.76901654,3066.09774189 1424.94333637,3062.160137272 1423.16254317,3058.144327823 1421.10059174,3053.860663871 1419.18804571,3049.866791795 1417.30114082,3045.828391633 1415.57659157,3042.111557354 1413.78213376,3038.399008399 1411.75807696,3034.047277744 1409.99238853,3030.223081857 1407.9030936,3025.945247365 1406.01016716,3022.009411525 1403.11730153,3016.784441588 1398.24346246,3008.687519197 1395.7020604,3003.788714821 1392.96514487,2999.270092078 1379.75304421,2978.199225342 1376.15232971,2972.040648173 1373.36767265,2967.339439161 1357.12762405,2937.529613383 1352.86232633,2930.140907581 1337.74476598,2901.174026637 1335.72257243,2896.971862153 1333.7219896,2892.930429173 1331.74804351,2888.818405379 1329.76207267,2884.707212275 1327.62445004,2880.386562477 1325.46693616,2876.104316881 1323.49912232,2872.069790538 1321.37510404,2867.899656302 1319.44304286,2863.542261266 1317.44654126,2859.51458553 1315.41509934,2855.352177398 1313.37259174,2851.356196267 1311.3911586,2846.746744888 1309.52043379,2842.67970495 1308.09078459,2839.420820349 1306.17960118,2835.523872285 1304.12388889,2831.359733516 1301.9538205,2826.510585133 1300.07463945,2822.684750674 1298.32222354,2819.32617399 1296.53103304,2815.413499074 1293.93236646,2810.031173924 1291.72048401,2804.984110667 1289.18072116,2799.444435002 1286.87999241,2794.346785918 1276.76833879,2771.96168567 1269.35536233,2755.153779958 1255.45705879,2723.723247448 1253.18279863,2717.8604891 1251.02810655,2713.058963781 1244.90699273,2698.559051345 1242.89076043,2693.721271568 1240.89533983,2688.760926772 1238.97164445,2684.174793655 1236.82874396,2679.875755625 1234.92557348,2675.518435347 1233.17842184,2671.988685835 1231.17095478,2667.578667846 1229.29991803,2662.945445189 1227.46058133,2658.647500332 1225.1931497,2653.491275655 1223.28279751,2648.855884525 1220.38122837,2641.346265705 1214.18752364,2624.748774593 1211.47743599,2616.874538086 1209.89305599,2612.402021297 1207.65678096,2605.864050131 1201.01083002,2586.271254183 1197.16268376,2575.404570379 1195.76534589,2570.647637559 1194.43606259,2566.473222769 1193.08362399,2562.266477066 1191.72826165,2557.866650991 1190.19650125,2553.283080834 1188.6733519,2548.78995738 1187.05092255,2544.187776386 1185.36877504,2539.443633941 1183.94232298,2535.63640721 1182.35007486,2531.1841962 1181.17946154,2527.52037961 1179.2477863,2522.81879402 1177.53110492,2518.38546488 1175.81788652,2514.15471345 1173.96127211,2510.04700893 1172.19072989,2505.93469814 1170.38960648,2501.82494365 1168.35537957,2497.30324259 1166.45498062,2492.85274327 1164.3755718,2488.28252882 1162.30604771,2483.79574657 1160.25294176,2479.30583758 1157.91432167,2474.72461611 1156.05353197,2470.65706097 1154.32037323,2466.84611164 1152.29143435,2462.55999379 1149.77712211,2457.68271199 1147.73876193,2453.46967708 1145.81224813,2449.38493176 1143.7950735,2444.86881015 1142.01716321,2440.84369264 1139.85816664,2436.50947197 1138.13676907,2432.65052934 1135.94135012,2427.91383247 1133.89165313,2423.68830649 1131.95674042,2419.56965163 1130.22375405,2415.70911044 1128.31844821,2411.52215373 1126.40067226,2407.21544558 1124.3455691,2403.10499552 1122.39274638,2398.44749884 1118.79875968,2390.47835974 1116.74814535,2385.6706859 1112.02165432,2375.14219692 1106.20555379,2362.11140395 1096.01422014,2339.19166799 1091.5919073,2329.28197359 1089.72993548,2325.13713225 1087.96254987,2321.1906347 1086.17452389,2317.16742298 1084.2248956,2312.90707567 1082.33109309,2308.69984283 1080.48963595,2304.83155522 1078.64267485,2300.85516567 1076.44868089,2296.07047484 1074.57170549,2291.9259684 1072.75626408,2287.91794263 1070.95874297,2284.11680288 1068.89025177,2279.90697155 1067.0873037,2276.01983002 1065.29694219,2272.30068703 1063.06976732,2267.58463395 1061.36451394,2263.53789961 1059.42990133,2259.44683835 1057.5020791,2255.45062962 1055.35005919,2251.48867153 1053.62073605,2247.68655277 1051.28761631,2243.56564101 1049.18018634,2239.50835315 1046.90276921,2235.33230979 1045.7534673,2233.20044423 1043.51440647,2229.28572829 1042.92628149,2227.88007532 1040.60644198,2223.96959833 1038.24675962,2220.03467107 1037.07650907,2218.01441831 1034.65510571,2213.96756203 1032.14537993,2209.5897839 1030.28552717,2205.70182595 1028.65752637,2201.80905312 1027.37644249,2197.83317933 1026.44312498,2193.78552611 1025.86116771,2189.53568603 1025.80804559,2185.15389541 1026.23179093,2180.93083217 1026.6913856,2178.72125944 1027.99408566,2174.23030941 1029.94013706,2169.1708736 1032.32149202,2165.91346219 1034.65754055,2162.75480777 1036.66202353,2160.27433355 1039.99478598,2157.41703767 1043.57470829,2154.42406823 1047.35008507,2152.43010193 1051.13834654,2150.40558651 1055.14096041,2148.31243598 1059.10437576,2146.5300369 1063.01695915,2144.99535312 1067.07568039,2143.36371154 1071.10341024,2142.20472018 1075.10146169,2141.33246302 1079.34800651,2140.84515638 1083.53618502,2140.66434865 1087.88199967,2140.96416628 1092.34543442,2141.96485652 1096.91565231,2143.64658009 1101.65494083,2146.37902644 1105.73269022,2149.65054889 1107.81181133,2151.85533459 1110.63819269,2155.63925603 1111.8458278,2157.54956499 1114.2847107,2161.18610952 1114.83764977,2162.91643868 1115.89378837,2166.83796161 1116.43987403,2171.01446415 1116.32819103,2175.48129581 1115.71897986,2179.80326414 1115.0944725,2182.1242616 1113.32001343,2186.62357943 1110.55761319,2191.36453971 1106.77810217,2195.74495354 1099.00360484,2200.94376999 1094.23245018,2203.3500633 1078.38956817,2215.65493906 1072.5636053,2223.83470962 1068.3628497,2241.8215237 1071.14464098,2257.79928251 1080.82910882,2280.71373746 1087.05090064,2294.79597856 1096.63178761,2317.63063623 1103.03274213,2332.22032719 1104.96674508,2336.58024458 1115.29368503,2359.14950649 1128.08970381,2387.96860266 1135.84951986,2403.79551372"
     fill="none"
     stroke="red"
     stroke-width="5"
     id="DCC_END" />
  <!--path
     style="fill:none;stroke:#00ffff;stroke-width:5;stroke-opacity:1"
     d="m 1053,2122 24,37"
     id="DCC_END2" />
  <path
     style="fill:none;stroke:#43ff00;stroke-width:5;stroke-opacity:1"
     d="m 1046,2220 20,51 382,845 127,37 25,65 -34,60 -70,-12"
     id="DCC_MCD"
     inkscape:label="#path8" />
  <path
     style="fill:none;stroke:#ffa300;stroke-width:5;stroke-opacity:1"
     d="m 1014,2178 -44,-69 -40,-49 -48,-36 -54,-20 -60,-4 -51,12 -42,21 -44,35 -30,32 -35,47 -30,45 -19,47 -10,32 -38,47 -57,16 -49,13 -39,-16 -22,-46 -2,-69 46,-494 28,-498 12,-59 103,-309 74,-184 34,-84 44,-95 83,-150 57,-98 20,-24 31,-15 62,11 141.2161,51.24153"
     id="DCC_EA"
     inkscape:label="#path8-6"
     sodipodi:nodetypes="ccccccccccccccccccccccccccccccccc" />
  <path
     style="fill:none;stroke:#ff0000;stroke-width:5"
     d="m 1223,339 13,50"
     id="EA_END" />
  <path
     style="fill:none;stroke:#ff0000;stroke-width:5"
     d="m 1206,442 -36,-10 -54,-20.00002"
     id="EA_END2"
     inkscape:label="#ea_end-0" />
  <path
     d="m 1079,394 -30.6186,-47.87288 -2.445,-31.83263 20.9661,-27.15042"
     fill="none"
     stroke="red"
     stroke-width="5"
     id="EA_START"
     sodipodi:nodetypes="cccc" />
  <path
     style="fill:none;stroke:#1f00ff;stroke-width:5;stroke-opacity:1"
     d="m 1464,3215 -17,-99 -65,-87 -213,-473 -65,-208 -38,-77 -20,-51"
     id="MCD_DCC"
     inkscape:label="#path8-4" />
  <path
     style="fill:none;stroke:#ff0000;stroke-width:5"
     d="m 1006,284.00004 -46,-18 -60,-18 -47,-15 -36,11 -23,22 -18,28 -30,59 -71,128 -36,80 -51,122 -91,229 L 410,1175 l -11,54 -25,492 -49,496 9,53 34,26 52,-3 52,-43 50,-64 36,-55 30,-47 34,-37 41,-37 57,-24 56,-6 57,2 59,26 51,36 40,55 26,31"
     id="EA_DCC"
     sodipodi:nodetypes="cccccccccccccccccccccccccccccccc"
     inkscape:label="#path8-8" />
  <path
     style="fill:none;stroke:#ff0000;stroke-width:5"
     d="M 1248.822,347.57627 1856,563 l 82,33 28,23 10,35 -28,28 -39,0 -41,-12"
     id="EA_E3A"
     inkscape:label="#path8-88"
     sodipodi:nodetypes="cccccccc" />
  <path
     style="fill:none;stroke:#ff0000;stroke-width:5"
     d="m 1833,650 -33,-40 -11,-37 -49,-28 -325,-111 -117,-34"
     id="E3A_EA"
     inkscape:label="#path8-0" />
  <path
     d="m 1063, 2175"
     fill="none"
     stroke="red"
     stroke-width="5"
     id="DCC_START" /-->
</svg>
