<?xml version="1.0" encoding="UTF-8" standalone="no"?>
<svg
   xmlns:dc="http://purl.org/dc/elements/1.1/"
   xmlns:cc="http://creativecommons.org/ns#"
   xmlns:rdf="http://www.w3.org/1999/02/22-rdf-syntax-ns#"
   xmlns:svg="http://www.w3.org/2000/svg"
   xmlns="http://www.w3.org/2000/svg"
   xmlns:xlink="http://www.w3.org/1999/xlink"
   xmlns:sodipodi="http://sodipodi.sourceforge.net/DTD/sodipodi-0.dtd"
   xmlns:inkscape="http://www.inkscape.org/namespaces/inkscape"
   sodipodi:docname="ALL_1217_t-junction.svg"
   height="3536"
   width="3057"
   inkscape:version="0.48.3.1 r9886"
   id="svg2"
   version="1.1">
  <sodipodi:namedview
     pagecolor="#ffffff"
     bordercolor="#666666"
     borderopacity="1"
     objecttolerance="10"
     gridtolerance="10"
     guidetolerance="10"
     inkscape:pageopacity="0"
     inkscape:pageshadow="2"
     inkscape:window-width="1301"
     inkscape:window-height="744"
     id="namedview32"
     showgrid="false"
     inkscape:zoom="8.5465812"
     inkscape:cx="1066.4214"
     inkscape:cy="3209.7104"
     inkscape:window-x="65"
     inkscape:window-y="24"
     inkscape:window-maximized="1"
     inkscape:current-layer="svg2" />
  <metadata
     id="metadata36">
    <rdf:RDF>
      <cc:Work
         rdf:about="">
        <dc:format>image/svg+xml</dc:format>
        <dc:type
           rdf:resource="http://purl.org/dc/dcmitype/StillImage" />
        <dc:title>Paths of the golfcar</dc:title>
      </cc:Work>
    </rdf:RDF>
  </metadata>
  <defs
     id="defs34">
    <marker
       inkscape:stockid="Arrow1Send"
       orient="auto"
       refY="0.0"
       refX="0.0"
       id="Arrow1Send"
       style="overflow:visible;">
      <path
         id="path6236"
         d="M 0.0,0.0 L 5.0,-5.0 L -12.5,0.0 L 5.0,5.0 L 0.0,0.0 z "
         style="fill-rule:evenodd;stroke:#000000;stroke-width:1.0pt;marker-start:none;"
         transform="scale(0.2) rotate(180) translate(6,0)" />
    </marker>
    <marker
       inkscape:stockid="Arrow1Sstart"
       orient="auto"
       refY="0.0"
       refX="0.0"
       id="Arrow1Sstart"
       style="overflow:visible">
      <path
         id="path6233"
         d="M 0.0,0.0 L 5.0,-5.0 L -12.5,0.0 L 5.0,5.0 L 0.0,0.0 z "
         style="fill-rule:evenodd;stroke:#000000;stroke-width:1.0pt;marker-start:none"
         transform="scale(0.2) translate(6,0)" />
    </marker>
    <inkscape:path-effect
       steps="5"
       equidistant_spacing="true"
       trajectory="M 0,0 0,0"
       is_visible="true"
       id="path-effect3660"
       effect="interpolate" />
    <inkscape:path-effect
       phi="5"
       teeth="10"
       is_visible="true"
       id="path-effect3658"
       effect="gears" />
    <marker
       style="overflow:visible"
       id="DotM"
       refX="0.0"
       refY="0.0"
       orient="auto"
       inkscape:stockid="DotM">
      <path
         transform="scale(0.4) translate(7.4, 1)"
         style="fill-rule:evenodd;stroke:#000000;stroke-width:1.0pt;marker-start:none;marker-end:none"
         d="M -2.5,-1.0 C -2.5,1.7600000 -4.7400000,4.0 -7.5,4.0 C -10.260000,4.0 -12.5,1.7600000 -12.5,-1.0 C -12.5,-3.7600000 -10.260000,-6.0 -7.5,-6.0 C -4.7400000,-6.0 -2.5,-3.7600000 -2.5,-1.0 z "
         id="path3704" />
    </marker>
    <marker
       style="overflow:visible"
       id="DotL"
       refX="0.0"
       refY="0.0"
       orient="auto"
       inkscape:stockid="DotL">
      <path
         transform="scale(0.8) translate(7.4, 1)"
         style="fill-rule:evenodd;stroke:#000000;stroke-width:1.0pt;marker-start:none;marker-end:none"
         d="M -2.5,-1.0 C -2.5,1.7600000 -4.7400000,4.0 -7.5,4.0 C -10.260000,4.0 -12.5,1.7600000 -12.5,-1.0 C -12.5,-3.7600000 -10.260000,-6.0 -7.5,-6.0 C -4.7400000,-6.0 -2.5,-3.7600000 -2.5,-1.0 z "
         id="path3701" />
    </marker>
    <marker
       style="overflow:visible;"
       id="Arrow1Lend"
       refX="0.0"
       refY="0.0"
       orient="auto"
       inkscape:stockid="Arrow1Lend">
      <path
         transform="scale(0.8) rotate(180) translate(12.5,0)"
         style="fill-rule:evenodd;stroke:#000000;stroke-width:1.0pt;marker-start:none;"
         d="M 0.0,0.0 L 5.0,-5.0 L -12.5,0.0 L 5.0,5.0 L 0.0,0.0 z "
         id="path3642" />
    </marker>
    <marker
       style="overflow:visible"
       id="Arrow1Lstart"
       refX="0.0"
       refY="0.0"
       orient="auto"
       inkscape:stockid="Arrow1Lstart">
      <path
         transform="scale(0.8) translate(12.5,0)"
         style="fill-rule:evenodd;stroke:#000000;stroke-width:1.0pt;marker-start:none"
         d="M 0.0,0.0 L 5.0,-5.0 L -12.5,0.0 L 5.0,5.0 L 0.0,0.0 z "
         id="path3639" />
    </marker>
    <inkscape:path-effect
       crossing_points_vector=""
       switcher_size="15"
       add_other_stroke_width="true"
       add_stroke_width="true"
       prop_to_stroke_width="true"
       interruption_width="3.6"
       is_visible="true"
       id="path-effect2862"
       effect="knot" />
    <inkscape:path-effect
       crossing_points_vector=""
       switcher_size="15"
       add_other_stroke_width="true"
       add_stroke_width="true"
       prop_to_stroke_width="true"
       interruption_width="3"
       is_visible="true"
       id="path-effect2860"
       effect="knot" />
    <inkscape:path-effect
       steps="5"
       equidistant_spacing="true"
       trajectory="M 0,0 0,0"
       is_visible="true"
       id="path-effect2858"
       effect="interpolate" />
    <inkscape:path-effect
       bendpath4="m 1068.3624,2136.3724 0,121.4273"
       bendpath3="m 1068.3624,2257.7997 48.7175,0"
       bendpath2="m 1117.0799,2136.3724 0,121.4273"
       bendpath1="m 1068.3624,2136.3724 48.7175,0"
       xx="true"
       yy="true"
       is_visible="true"
       id="path-effect2856"
       effect="envelope" />
    <inkscape:path-effect
       tgtlength_rdm="0.3;1"
       tgtlength="100"
       tgtscale="10"
       tgt_places_rdmness="1;1"
       nbtangents="5"
       tremble_frequency="1"
       tremble_size="5;1"
       parallel_offset="5;1"
       ends_tolerance="0.1;1"
       strokeoverlap_rdm="0.3;1"
       strokeoverlap="0.3"
       strokelength_rdm="0.3;1"
       strokelength="100"
       nbiter_approxstrokes="5"
       is_visible="true"
       id="path-effect2854"
       effect="sketch" />
    <inkscape:path-effect
       border_marks="both"
       mark_dir="left"
       offset="0"
       shift="0"
       major_mark_steps="5"
       minor_mark_length="7"
       mark_length="14"
       mark_distance="20"
       unit="px"
       is_visible="true"
       id="path-effect2852"
       effect="ruler" />
    <inkscape:path-effect
       border_marks="both"
       mark_dir="left"
       offset="0"
       shift="0"
       major_mark_steps="5"
       minor_mark_length="7"
       mark_length="14"
       mark_distance="20"
       unit="px"
       is_visible="true"
       id="path-effect2850"
       effect="ruler" />
    <inkscape:path-effect
       phi="5"
       teeth="10"
       is_visible="true"
       id="path-effect2848"
       effect="gears" />
    <inkscape:perspective
       id="perspective38"
       inkscape:persp3d-origin="1528.5 : 1178.6667 : 1"
       inkscape:vp_z="3057 : 1768 : 1"
       inkscape:vp_y="0 : 1000 : 0"
       inkscape:vp_x="0 : 1768 : 1"
       sodipodi:type="inkscape:persp3d" />
    <inkscape:perspective
       sodipodi:type="inkscape:persp3d"
       inkscape:vp_x="0 : 0.5 : 1"
       inkscape:vp_y="0 : 1000 : 0"
       inkscape:vp_z="1 : 0.5 : 1"
       inkscape:persp3d-origin="0.5 : 0.33333333 : 1"
       id="perspective2947" />
    <inkscape:perspective
       sodipodi:type="inkscape:persp3d"
       inkscape:vp_x="0 : 0.5 : 1"
       inkscape:vp_y="0 : 1000 : 0"
       inkscape:vp_z="1 : 0.5 : 1"
       inkscape:persp3d-origin="0.5 : 0.33333333 : 1"
       id="perspective2824" />
    <inkscape:perspective
       sodipodi:type="inkscape:persp3d"
       inkscape:vp_x="0 : 0.5 : 1"
       inkscape:vp_y="0 : 1000 : 0"
       inkscape:vp_z="1 : 0.5 : 1"
       inkscape:persp3d-origin="0.5 : 0.33333333 : 1"
       id="perspective2960" />
    <inkscape:perspective
       sodipodi:type="inkscape:persp3d"
       inkscape:vp_x="0 : 0.5 : 1"
       inkscape:vp_y="0 : 1000 : 0"
       inkscape:vp_z="1 : 0.5 : 1"
       inkscape:persp3d-origin="0.5 : 0.33333333 : 1"
       id="perspective3024" />
    <inkscape:perspective
       sodipodi:type="inkscape:persp3d"
       inkscape:vp_x="0 : 0.5 : 1"
       inkscape:vp_y="0 : 1000 : 0"
       inkscape:vp_z="1 : 0.5 : 1"
       inkscape:persp3d-origin="0.5 : 0.33333333 : 1"
       id="perspective3088" />
    <inkscape:perspective
       sodipodi:type="inkscape:persp3d"
       inkscape:vp_x="0 : 0.5 : 1"
       inkscape:vp_y="0 : 1000 : 0"
       inkscape:vp_z="1 : 0.5 : 1"
       inkscape:persp3d-origin="0.5 : 0.33333333 : 1"
       id="perspective3152" />
    <inkscape:perspective
       sodipodi:type="inkscape:persp3d"
       inkscape:vp_x="0 : 0.5 : 1"
       inkscape:vp_y="0 : 1000 : 0"
       inkscape:vp_z="1 : 0.5 : 1"
       inkscape:persp3d-origin="0.5 : 0.33333333 : 1"
       id="perspective3216" />
    <inkscape:perspective
       sodipodi:type="inkscape:persp3d"
       inkscape:vp_x="0 : 0.5 : 1"
       inkscape:vp_y="0 : 1000 : 0"
       inkscape:vp_z="1 : 0.5 : 1"
       inkscape:persp3d-origin="0.5 : 0.33333333 : 1"
       id="perspective3280" />
    <inkscape:perspective
       sodipodi:type="inkscape:persp3d"
       inkscape:vp_x="0 : 0.5 : 1"
       inkscape:vp_y="0 : 1000 : 0"
       inkscape:vp_z="1 : 0.5 : 1"
       inkscape:persp3d-origin="0.5 : 0.33333333 : 1"
       id="perspective3344" />
    <inkscape:perspective
       sodipodi:type="inkscape:persp3d"
       inkscape:vp_x="0 : 0.5 : 1"
       inkscape:vp_y="0 : 1000 : 0"
       inkscape:vp_z="1 : 0.5 : 1"
       inkscape:persp3d-origin="0.5 : 0.33333333 : 1"
       id="perspective3408" />
    <inkscape:perspective
       sodipodi:type="inkscape:persp3d"
       inkscape:vp_x="0 : 0.5 : 1"
       inkscape:vp_y="0 : 1000 : 0"
       inkscape:vp_z="1 : 0.5 : 1"
       inkscape:persp3d-origin="0.5 : 0.33333333 : 1"
       id="perspective3628" />
    <inkscape:perspective
       sodipodi:type="inkscape:persp3d"
       inkscape:vp_x="0 : 0.5 : 1"
       inkscape:vp_y="0 : 1000 : 0"
       inkscape:vp_z="1 : 0.5 : 1"
       inkscape:persp3d-origin="0.5 : 0.33333333 : 1"
       id="perspective2848" />
    <inkscape:perspective
       sodipodi:type="inkscape:persp3d"
       inkscape:vp_x="0 : 0.5 : 1"
       inkscape:vp_y="0 : 1000 : 0"
       inkscape:vp_z="1 : 0.5 : 1"
       inkscape:persp3d-origin="0.5 : 0.33333333 : 1"
       id="perspective3658" />
    <inkscape:perspective
       sodipodi:type="inkscape:persp3d"
       inkscape:vp_x="0 : 0.5 : 1"
       inkscape:vp_y="0 : 1000 : 0"
       inkscape:vp_z="1 : 0.5 : 1"
       inkscape:persp3d-origin="0.5 : 0.33333333 : 1"
       id="perspective3691" />
    <inkscape:perspective
       sodipodi:type="inkscape:persp3d"
       inkscape:vp_x="0 : 0.5 : 1"
       inkscape:vp_y="0 : 1000 : 0"
       inkscape:vp_z="1 : 0.5 : 1"
       inkscape:persp3d-origin="0.5 : 0.33333333 : 1"
       id="perspective3713" />
    <inkscape:perspective
       sodipodi:type="inkscape:persp3d"
       inkscape:vp_x="0 : 0.5 : 1"
       inkscape:vp_y="0 : 1000 : 0"
       inkscape:vp_z="1 : 0.5 : 1"
       inkscape:persp3d-origin="0.5 : 0.33333333 : 1"
       id="perspective3735" />
    <inkscape:perspective
       sodipodi:type="inkscape:persp3d"
       inkscape:vp_x="0 : 0.5 : 1"
       inkscape:vp_y="0 : 1000 : 0"
       inkscape:vp_z="1 : 0.5 : 1"
       inkscape:persp3d-origin="0.5 : 0.33333333 : 1"
       id="perspective3757" />
    <inkscape:perspective
       sodipodi:type="inkscape:persp3d"
       inkscape:vp_x="0 : 0.5 : 1"
       inkscape:vp_y="0 : 1000 : 0"
       inkscape:vp_z="1 : 0.5 : 1"
       inkscape:persp3d-origin="0.5 : 0.33333333 : 1"
       id="perspective2910" />
    <marker
       style="overflow:visible"
       id="DotM-1"
       refX="0"
       refY="0"
       orient="auto"
       inkscape:stockid="DotM">
      <path
         transform="matrix(0.4,0,0,0.4,2.96,0.4)"
         style="fill-rule:evenodd;stroke:#000000;stroke-width:1pt;marker-start:none;marker-end:none"
         d="m -2.5,-1 c 0,2.76 -2.24,5 -5,5 -2.76,0 -5,-2.24 -5,-5 0,-2.76 2.24,-5 5,-5 2.76,0 5,2.24 5,5 z"
         id="path3704-5" />
    </marker>
    <inkscape:perspective
       sodipodi:type="inkscape:persp3d"
       inkscape:vp_x="0 : 0.5 : 1"
       inkscape:vp_y="0 : 1000 : 0"
       inkscape:vp_z="1 : 0.5 : 1"
       inkscape:persp3d-origin="0.5 : 0.33333333 : 1"
       id="perspective3012" />
    <inkscape:perspective
       sodipodi:type="inkscape:persp3d"
       inkscape:vp_x="0 : 0.5 : 1"
       inkscape:vp_y="0 : 1000 : 0"
       inkscape:vp_z="1 : 0.5 : 1"
       inkscape:persp3d-origin="0.5 : 0.33333333 : 1"
       id="perspective2903" />
    <marker
       style="overflow:visible"
       id="DotM-5"
       refX="0"
       refY="0"
       orient="auto"
       inkscape:stockid="DotM">
      <path
         transform="matrix(0.4,0,0,0.4,2.96,0.4)"
         style="fill-rule:evenodd;stroke:#000000;stroke-width:1pt;marker-start:none;marker-end:none"
         d="m -2.5,-1 c 0,2.76 -2.24,5 -5,5 -2.76,0 -5,-2.24 -5,-5 0,-2.76 2.24,-5 5,-5 2.76,0 5,2.24 5,5 z"
         id="path3704-9" />
    </marker>
    <inkscape:perspective
       sodipodi:type="inkscape:persp3d"
       inkscape:vp_x="0 : 0.5 : 1"
       inkscape:vp_y="0 : 1000 : 0"
       inkscape:vp_z="1 : 0.5 : 1"
       inkscape:persp3d-origin="0.5 : 0.33333333 : 1"
       id="perspective2889" />
    <filter
       id="filter3830"
       inkscape:label="Colorize"
       inkscape:menu="Color"
       inkscape:menu-tooltip="Blend image or object with a flood color and set lightness and contrast"
       x="0"
       y="0"
       width="1"
       height="1"
       color-interpolation-filters="sRGB">
      <feColorMatrix
         id="feColorMatrix3832"
         values="1"
         in="SourceGraphic"
         type="saturate"
         result="result2" />
      <feFlood
         id="feFlood3834"
         flood-color="rgb(254,102,0)"
         flood-opacity="1"
         result="result1" />
      <feBlend
         id="feBlend3836"
         in2="result2"
         mode="multiply"
         in="result1"
         result="result3" />
      <feComposite
         id="feComposite3838"
         in2="SourceGraphic"
         operator="in"
         k2="1"
         result="result4" />
    </filter>
    <marker
       style="overflow:visible"
       id="DotM-7"
       refX="0"
       refY="0"
       orient="auto"
       inkscape:stockid="DotM">
      <path
         inkscape:connector-curvature="0"
         transform="matrix(0.4,0,0,0.4,2.96,0.4)"
         style="fill-rule:evenodd;stroke:#000000;stroke-width:1pt;marker-start:none;marker-end:none"
         d="m -2.5,-1 c 0,2.76 -2.24,5 -5,5 -2.76,0 -5,-2.24 -5,-5 0,-2.76 2.24,-5 5,-5 2.76,0 5,2.24 5,5 z"
         id="path3704-3" />
    </marker>
  </defs>
  <title
     id="title4">Paths of the golfcar</title>
  <desc
     id="desc6">The paths consist of all the possible route that can be taken by the golfcart to serve 4 stations: DCC, MCD, EA and E3A</desc>
  <image
     style="fill:#aa4400;font-size:14px"
     xlink:href="file:///home/demian/smartfm/bookingUI/shared/SvgPath/curb_map1213d.png"
     width="3057"
     height="3536"
     id="image3014"
     x="0"
     y="0" />
  <path
     sodipodi:nodetypes="ccccccccccccccccccccccccccccccccccccccccccccccccccccccccccccccccccccccccccccccccccccccccccccccccccccccccccccccccccccccccccccccccccccccccccccccccccccccccccccccccccccccccccccccccccccccccccccccccccccccccccccccccccccccc"
     inkscape:label="#path2833"
     id="DCC_MCD"
     d="m 1072.075,2262.0014 2.1583,5.1878 2.9195,5.5847 1.9049,4.7958 1.9715,4.3329 2.8832,6.6926 3.0967,6.1524 1.3468,3.6485 15.417,32.6437 2.0959,4.6529 3.7288,8.2562 1.7659,3.608 1.5885,3.9941 2.8763,6.2056 3.2356,7.2428 2.0776,5.3242 2.0445,4.7089 2.1266,5.2226 2.3112,5.472 1.957,4.2932 1.9741,4.2954 1.9547,4.3651 2.3156,5.0059 2.8811,6.136 3.1663,6.7236 2.0064,4.2518 2.1588,4.7012 1.9447,4.3149 1.9818,4.249 2.2983,5.0299 2.608,5.7538 1.9235,4.054 2.2535,4.919 1.9323,4.3926 4.1192,8.9939 2.2806,5.3432 2.9924,6.9781 9.109,20.6539 2.2624,4.6407 1.8714,3.716 2.4404,5.2142 1.6533,4.3284 2.1056,4.6894 2.6038,4.7508 2.1033,4.7786 2.3484,5.1622 1.7927,4.1391 1.9582,4.137 2.2355,4.908 1.8747,3.9501 3.0934,7.0459 2.0767,4.4872 2.2621,4.9341 16.8161,34.9042 2.1421,5.0191 2.3515,5.0306 2.4867,4.8643 1.8743,4.015 1.3592,3.422 1.9257,4.2077 2.8148,5.845 3.1695,6.6571 2.4099,5.146 2.3082,4.9474 1.9069,4.2037 1.901,3.894 3.0642,6.8288 1.923,4.108 1.7309,3.8807 2.6631,5.7435 1.8225,3.7503 2.2802,4.9397 1.9926,4.5378 1.9489,3.9978 2.0905,4.5334 2.3061,5.1596 2.5325,5.5862 2.2499,5.0189 1.8872,4.1193 2.3818,5.2823 1.9169,4.1665 2.0768,4.7317 1.9315,4.3751 1.7665,3.736 2.4959,5.5687 1.7552,3.8951 2.3541,5.2672 2.1952,4.8435 1.9425,4.3346 2.0486,4.3556 1.9086,4.0842 1.7721,4.0227 1.8708,4.0237 1.9526,4.0929 2.0978,4.5046 2.1929,4.909 1.8895,4.037 1.5718,3.3957 1.657,3.8283 1.9673,4.2343 1.7614,3.8938 1.8445,4.1191 1.7152,3.9538 2.1217,4.3766 1.7984,3.9576 1.7761,3.9049 1.9583,4.2447 1.8335,4.0652 1.7758,3.9154 2.0219,4.5105 1.845,4.1582 1.8484,4.1515 1.9059,4.1676 1.788,4.0088 1.685,3.7518 2.6432,5.6882 2.2448,4.9047 2.314,5.1023 2.3954,5.2561 5.7448,13.1739 9.6272,21.4471 25.9869,56.1336 4.7358,12.9222 3.0714,7.5855 1.8459,5.4201 2.5244,4.9443 3.3316,5.5079 1.7891,4.107 2.1223,4.8884 1.7747,4.369 1.8723,4.0788 1.8275,4.2858 1.9604,4.4867 1.894,4.0444 1.9467,4.0361 1.8531,4.2971 1.9283,3.901 1.7725,4.0872 1.6769,3.7673 1.9355,4.103 1.7791,3.8271 1.8732,3.7987 1.9247,3.7547 1.9663,3.777 2.5527,4.5679 5.9594,8.4985 2.7066,3.2168 3.0904,3.196 3.649,3.3591 4.504,3.3799 4.6183,2.726 5.0739,2.565 5.0185,1.9772 4.6625,1.23 4.6207,0.6772 4.8704,1.1776 4.4423,0.1971 5.2421,0.5281 4.5626,0.3178 4.4154,0.3948 4.052,0.617 4.9262,0.6827 4.273,0.3061 4.6262,0.8405 4.7281,0.9798 4.8717,1.2165 4.6985,1.5562 5.0156,1.9648 5.1251,2.402 4.9119,2.8077 4.5277,3.1424 3.816,3.1792 3.5396,3.551 3.0746,3.7309 2.8629,4.103 2.286,3.9639 1.8972,4.093 1.5099,4.0185 1.2924,4.3879 1.0628,4.0499 0.716,4.4921 0.1612,4.232 -0.1604,4.4728 -0.5471,4.5595 -0.9923,4.7714 -1.5959,5.2385 -2.0865,5.1077 -2.6922,5.119 -3.0709,4.5556 -3.2813,4.103 -3.3359,3.4182 -3.6589,3.2435 -3.424,2.6312 -3.8204,2.8599 -3.8553,2.098 -3.9444,1.6561 -3.8708,1.2312 -3.7988,0.6206 -3.7989,0.6206 -1.7887,0.1262 -4.5323,0.093 -6.0246,-0.3677 -6.2661,-1.2565 -5.5766,-1.7265 -4.973,-1.7266 -4.6438,-2.0777 -4.5889,-2.7801 -4.2707,-3.08 -3.5574,-2.7727 -2.9209,-2.5094 -2.3612,-2.2899 -1.8436,-2.0759 -1.3169,-1.7138 -0.7901,-1.165 -0.2634,-0.4298"
     style="fill:none;stroke:#ff0024;stroke-opacity:1;marker-start:url(#DotM)" />
  <path
     sodipodi:nodetypes="cccccccccccccccccccccccccccccccccccccccccccccccccccccccccccccccccccccccccccccccccccccccccccccccccccccccccccccccccccccccccccccccccccccccccccccccccccccccccccccccccccccccccccccccccccccccccccccccccccccccccccccccccccccccccccccccccccccccccccccccccccccccccccccccccccccccccccccccccccccccccccccccccccccccsccccccccccccccczcccccccccccccccccccccccccccccccccccccccccccccccccccccccccccccccccccccccccccccccccccccccccccccccccc"
     inkscape:label="#path3610"
     id="EA_DCC"
     d="m 974.56979,282.96378 -5.71269,-3.30543 -5.28533,-2.77792 -6.25381,-3.12374 -5.97838,-2.83419 -7.01082,-3.06822 -6.83381,-2.80455 -5.80817,-2.26884 -5.52481,-2.02517 -5.60321,-1.97804 -5.32933,-1.84009 -4.80209,-1.62325 -5.55564,-1.8473 -5.72427,-1.88676 -5.71303,-1.74172 -4.15892,-1.16457 -7.83897,-3.27988 -6.92884,-3.24274 -8.33507,-1.91279 -7.72707,-0.93773 -6.41829,0.17738 -6.75519,0.47745 -5.16525,0.36486 -5.67615,1.95226 -6.32937,2.28509 -5.2755,3.29113 -4.8348,4.11901 -4.35911,3.32771 -5.2664,6.05213 -4.51556,6.01717 -4.48278,6.2129 -4.60414,8.44411 -3.96294,5.78082 -3.59182,5.46119 -3.64605,5.70543 -3.3526,5.53043 -3.48288,5.87812 -3.1923,5.75733 -2.78322,5.31606 -2.70889,4.48398 -2.26565,4.288 -3.43769,6.20784 -3.89486,7.27465 -2.8031,5.22876 -2.16497,4.02753 -4.04302,7.36466 -2.85679,5.56421 -4.21313,7.32019 -2.75369,5.2623 -4.04115,7.1994 -3.1544,5.67117 -3.70233,7.03904 -3.33443,5.88923 -2.73751,5.19543 -4.09124,7.05862 -3.04664,5.29098 -3.47868,6.15361 -3.22734,5.86841 -4.59058,8.2153 -3.8836,6.73928 -2.83648,5.03698 -3.20627,5.68474 -3.82291,6.79955 -3.58181,6.50651 -3.48902,6.16884 -3.39781,6.63577 -3.11591,6.24127 -2.96897,6.06141 -2.89269,5.96735 -3.16428,6.67655 c 0,0 -2.27403,4.77108 -3.41104,7.15662 l -3.39253,7.48485 -3.4686,7.57601 -3.11454,6.82117 -1.09715,2.9721 -5.00363,11.17614 -1.48726,3.21249 -2.85271,6.47305 -2.80388,6.46113 -2.77516,7.11495 -2.88645,6.88692 -2.68052,6.41566 -3.52294,7.78644 -3.07227,7.91036 -2.54586,6.06203 -2.7184,6.45423 -2.77907,6.75684 -2.78011,6.32236 -2.98814,7.50111 -2.65761,6.67286 -2.71989,5.98401 -2.74327,6.69816 -2.8862,6.83127 -2.85795,6.75458 -2.58916,6.25849 -3.11892,7.40074 -2.90712,6.76938 -2.65706,6.23518 -2.71398,6.23776 -4.19901,9.58468 -2.67313,6.51786 -1.31579,3.5506 -2.56519,6.49961 -2.31639,5.39658 -2.26382,6.56674 -1.3085,2.96783 -2.4462,6.2169 -4.37983,10.67681 -3.73479,9.54841 -2.40615,6.26255 -2.85764,7.76835 -2.71653,6.80393 -2.32247,6.16402 -2.5895,6.66829 -3.5463,8.55687 -3.63374,9.79922 -4.15634,10.23157 -1.5509,4.36328 -2.28855,5.48734 -3.1387,7.80147 -2.99024,7.19129 -3.10099,6.99115 -2.23324,5.99248 -2.81494,6.68305 -2.60969,6.67344 -2.70014,6.90027 -1.81066,4.89992 -2.57428,7.13579 -1.68148,4.34944 -2.54356,7.02655 -2.31227,6.65044 -1.9027,5.6441 -2.72628,7.42934 -2.31242,6.3668 -2.53969,7.46615 -2.32027,6.54696 -2.60421,7.04966 -2.79443,8.3003 -2.44835,7.03676 -1.48604,3.96613 -2.37467,6.49745 -2.34138,6.81589 -2.11548,6.13605 -2.08353,6.2142 -2.46443,7.2288 -2.07698,6.0336 -1.81701,5.1043 -2.00504,5.6521 -2.61287,6.9089 -2.43711,6.9121 -1.95333,5.7411 -1.82384,5.4248 -1.49715,4.4274 -2.63981,7.5349 -2.42164,7.236 -1.88416,5.1565 -2.16225,6.3388 -1.77848,5.1729 -2.11894,6.0249 -2.69453,7.9656 -2.23627,6.7026 -1.75567,5.6489 -2.36725,7.6393 -1.88443,5.9273 -2.21961,7.4228 -1.95777,7.3392 -1.36457,4.8356 -2.32305,8.6767 -1.77208,7.1331 -1.50407,6.652 -1.31069,6.0017 -1.49547,6.9907 -1.40898,7.0355 -0.0648,0.9606 -1.49513,7.2198 -1.88894,12.0811 -0.97292,5.7482 -1.09372,7.0368 -0.89795,6.4905 -1.01616,6.6232 -0.98703,8.0897 -0.74946,5.9065 -0.72471,6.8495 -0.43854,2.2163 -0.71563,7.5693 -0.62914,7.8036 -0.69871,8.0205 -0.52296,7.6119 -0.5055,5.4807 -0.51613,10.2864 -0.54861,7.2664 -0.61565,7.448 -0.84581,8.332 -0.46608,6.87 -0.64838,6.9252 -0.47796,4.2293 -0.55431,6.4604 -0.42569,3.1149 -0.56594,6.0525 -0.62883,7.1797 -0.49484,6.7708 -0.67483,9.6927 -0.80582,12.5875 -0.44933,10.7383 -0.47183,8.1879 -0.94064,13.2968 -0.54273,10.7451 -0.84543,11.366 -0.42447,7.0786 -0.46754,7.9743 -0.64037,7.8217 -0.36176,5.3606 -0.47428,8.1274 -0.67468,8.8639 -0.66177,10.6522 -0.56167,7.6678 -0.61671,7.2752 -0.47422,6.9544 -0.43563,6.4332 -0.37306,6.3522 -0.25005,5.0328 -0.77554,9.1542 -0.19934,6.4415 -0.0235,3.1477 -0.39954,6.6716 -0.30362,6.1872 -0.30879,7.9331 -0.20505,5.664 -0.26127,7.3983 -0.29379,8.2054 -0.10176,7.2238 -0.23709,8.6914 0.20551,3.6451 -0.24322,7.4109 -0.25096,8.9125 -0.17144,6.7025 -0.14517,6.2543 -0.46418,9.1205 -0.0401,3.9744 -0.36364,7.7614 -0.65639,9.9921 -0.43953,6.723 -0.39658,7.478 -0.70551,7.7385 -0.26662,6.8651 -0.63336,8.1083 -0.37644,6.1102 -0.84285,9.462 -0.6853,8.0116 -0.60331,7.3144 -0.5798,6.3929 -0.69826,9.6175 -0.6915,6.8001 -0.37614,5.3321 -0.75061,8.4222 -0.44316,5.5532 -0.61956,6.951 -0.88686,9.1804 -0.54217,5.9912 -0.56601,5.767 -0.80904,9.6236 -0.71139,10.1261 -0.86901,7.4816 -0.69986,8.7564 -0.76047,7.0874 -0.80484,10.354 -0.63044,7.5751 -0.66016,5.6609 -0.70773,8.0157 -0.43243,5.178 -0.48079,5.277 -0.69429,7.8577 -0.62568,7.2812 -0.84918,8.2774 -0.97391,9.09 -0.6885,7.2928 -0.57199,7.2736 -1.04734,8.4915 -0.82506,7.5038 -0.75822,6.7734 -0.42213,4.932 -0.80184,8.0402 -0.9099,7.9631 -6.73882,61.1752 -2.97889,32.9067 -0.96588,7.4389 -0.91936,7.5883 -0.63747,6.5484 -0.34438,6.2661 -0.29481,4.9752 -0.4343,7.1002 -0.21125,4.612 -0.59407,4.897 m -0.4686,6.258 -0.31922,5.2655 m -0.60251,6.8117 -0.73219,6.5558 -0.89819,7.1124 -1.0468,11.3554 -0.64287,7.8854 -0.57418,8.3989 -0.1428,5.8439 1.06635,42.721 10.16427,23.5346 23.50856,14.4044 20.08615,4.7017 16.09732,-1.5731 13.49264,-2.1041 9.46005,-4.9871 9.71525,-4.7675 m 11.02425,-8.5591 c 0,0 6.62957,-7.3901 7.14339,-8.0303 0.51382,-0.6402 5.24335,-7.2576 5.24335,-7.2576 l 3.60485,-6.3903 3.42799,-4.5255 3.17699,-4.1309 4.16323,-4.7499 3.76156,-5.816 4.24102,-4.9685 4.60949,-5.3003 5.42158,-6.5827 4.26344,-5.1091 4.54852,-5.6165 4.83035,-6.3746 3.88037,-5.2146 4.72185,-6.3672 4.05201,-5.3967 3.92481,-5.397 3.72618,-5.1737 7.09246,-10.6137 8.04635,-12.5156 4.51172,-7.0713 5.55366,-8.9232 2.94533,-7.7657 4.32158,-7.3791 2.70017,-4.8741 4.89092,-6.3037 4.59853,-6.1285 4.28156,-5.7132 5.91952,-7.6015 3.8451,-4.8724 4.68769,-5.9655 4.05752,-5.0424 66.79045,-61.511 5.07981,-4.0038 5.55095,-3.2817 5.64916,-3.4901 5.54726,-2.993 5.77313,-3.2497 5.33165,-2.64 6.43226,-2.9081 7.18973,-2.1433 5.96476,-2.4774 5.38256,-1.9893 7.41158,-2.249 5.97787,-1.6151 7.31302,-1.8838 5.98755,-0.8616 6.6333,-1.2673 6.82895,-0.9144 8.32562,-0.7357 5.43154,-0.3683 7.13635,-0.3387 27.48321,1.7087 13.09821,0.8146 12.99113,1.2541 5.21061,1.3254 5.09675,1.1524 6.24822,1.5447 0.72554,0.052 5.01769,1.5599 3.29123,1.0548 4.91867,1.6281 3.34082,1.2835 7.22463,2.7093 3.16344,1.2066 3.29045,1.3303 5.39685,2.4087 1.92267,0.7556 3.37436,1.5516 6.64072,3.5161 5.12709,2.5649 3.17068,2.0704 5.68046,3.362 4.79842,3.6209 8.4465,5.6768 1.87141,1.3716 3.01626,2.0941 4.93717,3.8788 3.91092,3.8026 1.6541,1.0169 3.49667,2.8867 6.03652,4.9676 3.57273,3.2102 2.84449,2.7363 3.18362,3.0157 4.50847,4.4134 7.1e-4,0.026 1.79313,1.8715 4.57178,4.8068 1.59098,1.3021 3.64172,3.2225 1.77847,2.1011 2.17491,3.2374 2.99087,3.58 3.40236,4.5444 1.8932,2.5458 3.55185,5.1758 2.7807,4.1845 1.95285,2.7341"
     style="fill:none;stroke:#ff0024;stroke-opacity:1;marker-start:url(#DotM);marker-mid:none"
     inkscape:connector-curvature="0" />
  <path
     sodipodi:nodetypes="cccczccccccccccccccccccccccc"
     inkscape:label="#path3618"
     id="EA_END2"
     d="m 1256.4631,417.6583 -5.7357,3.26782 -3.6155,2.37175 m -3.8416,1.50786 c 0,0 -3.2298,1.22135 -3.8758,1.45743 -0.646,0.23608 -3.8757,1.37563 -3.8757,1.37563 l -4.0604,1.28686 -1.172,0.42148 -4.5103,1.16847 -5.3803,1.2974 -2.3517,0.39921 -4.5288,0.54949 -2.3442,0.1598 -4.2904,-0.42978 -1.824,-0.0596 -4.0934,-0.58353 -3.1355,-0.41024 -2.9371,-0.51077 -5.1184,-1.17689 -2.8093,-0.82099 -5.2244,-2.10752 -2.7436,-1.0494 -5.7582,-2.59535 -1.8417,-0.6498 -4.9673,-2.26855 -8.4908,-3.59531 -10.8491,-4.13911 -30.9236,-11.77411"
     style="fill:none;stroke:#ff0024;stroke-opacity:1;marker-start:url(#DotM)"
     inkscape:connector-curvature="0" />
  <path
     id="path3616"
     d="M 1257.5232,419.31784"
     style="fill:none;stroke:#ff0024;stroke-opacity:1" />
  <path
     id="EA_END"
     d="m 1375.9201,427.07436 -3.7423,-1.26712 m -3.7423,-1.26711 -3.0049,-1.02948 m -4.2028,-1.38657 -2.2172,-0.74287 -5.8427,-1.82165 -5.0613,-1.46786 -3.0395,-1.00981 -2.9633,-0.89211 -4.4499,-1.17195 -3.4797,-1.06955 -2.76,-0.83371 -5.3017,-1.24044 -5.2368,-1.11234 -3.0665,-0.47271 -4.9077,-0.7101 -2.7832,-0.43224 -5.4553,-0.46637 -2.3375,-0.1547 -5.4962,-0.0871 -2.599,-0.32136 -4.342,0.24553 -4.5858,0.49322 -2.6582,0.40207 -4.5719,0.5717 -3.0347,0.62874 -4.6559,1.11328 -2.3347,0.59415 -4.6636,2.1953 -3.6624,1.30947"
     style="fill:none;stroke:#ff0024;stroke-opacity:1;marker-start:url(#DotM);marker-mid:none"
     inkscape:connector-curvature="0"
     sodipodi:nodetypes="ccccccccccccccccccccccccccccccc" />
  <path
     sodipodi:nodetypes="cccccccccccccccccccccccccccccccccccccccccccccccccccccccccccccccc"
     inkscape:label="#path2843"
     id="E3A_EA"
     d="m 1895.6424,678.1831 -46.9157,-18.63459 -6.4762,-5.42286 -3.5486,-3.5633 -2.1155,-1.52634 -3.1937,-2.77171 -1.9915,-1.75567 -4.4316,-4.28522 -7.2744,-8.30126 -7.4604,-9.86329 -6.5434,-9.54393 -3.5025,-5.20533 -3.5016,-5.06414 -3.4707,-4.90967 -3.6765,-5.0226 -3.9101,-4.87431 -4.4455,-4.97153 -4.0993,-4.34304 -4.6507,-4.35656 -4.9161,-4.2108 -5.5406,-4.32662 -8.9008,-6.28724 -5.4503,-3.2011 -5.3751,-2.90518 -6.7524,-3.33912 -7.6373,-3.45567 -8.559,-3.47991 -8.2935,-3.05075 -6.5189,-1.83889 -7.312,-2.38775 -5.8387,-1.82965 -6.4975,-2.03246 -5.5324,-1.77736 -5.8444,-1.79815 -6.133,-1.88446 -6.6789,-1.99198 -7.8449,-2.31303 -36.492,-11.01719 -13.3417,-4.33122 -10.2348,-3.13298 -7.4286,-2.15473 -7.4306,-2.44917 -7.923,-2.13323 -6.9997,-2.36329 -47.8402,-15.2359 -7.6816,-2.14133 -6.9212,-2.6417 -8.0442,-2.70415 -7.1979,-2.50103 -7.5812,-2.89329 -6.439,-2.73389 -7.0377,-2.77461 -7.1642,-2.67648 -7.4707,-2.83299 -6.5948,-2.56838 -6.6763,-2.5144 -7.8363,-2.8637 -7.0259,-2.95408 -6.8789,-2.53442 -6.6294,-2.32081 -6.7931,-2.34545 -6.7366,-2.4131 -7.2486,-2.69215 -6.6271,-2.30985"
     style="fill:none;stroke:#ff0024;stroke-opacity:1;marker-start:url(#DotM)" />
  <path
     sodipodi:nodetypes="ccccccccccccccccccccccccccccccccccccccccccccccccccccccccccccccccccccccccccccccccccccccccccccccccccccccccccccccccccccccccccccccccccccccccccczccccccccccccccc"
     inkscape:label="#path2839"
     id="EA_E3A"
     d="m 1271.9623,351.59417 8.1107,3.17808 7.4902,2.89386 7.1151,2.75088 7.1017,2.81239 5.0444,1.82488 6.5835,2.6101 4.9717,2.00446 9.442,3.54113 5.9999,2.06883 6.2673,2.26097 5.1837,1.81601 5.4785,1.94064 6.1106,2.15297 6.8019,2.51576 5.8276,2.1932 5.8235,2.26546 6.4645,2.56347 6.3544,2.53696 7.3676,2.72924 7.2422,3.01464 8.7255,3.4829 26.2714,9.9521 7.8112,2.88419 7.2215,2.79039 6.308,2.63378 5.4242,2.29072 7.3167,3.16883 6.9895,2.84354 22.8488,10.40374 11.9271,4.32376 9.2053,2.44705 7.5473,2.39542 8.3074,1.64896 10.178,2.55014 11.7227,3.67203 8.7086,2.17448 8.0345,2.17241 9.0716,2.6881 7.2155,1.76651 6.4187,2.08824 7.3705,2.59773 6.8794,2.6678 6.0974,2.00421 10.0669,3.35703 2.7561,1.04603 5.7815,1.95471 12.7583,4.15388 1.6585,0.47932 3.2073,1.02542 6.2707,2.33362 12.9656,3.99535 1.9983,0.53825 3.4661,1.27041 5.6477,2.00754 3.634,1.24682 4.5067,1.26224 2.2269,0.70828 3.8644,1.41357 5.4045,1.82017 1.4283,0.0547 6.103,1.97772 3.5068,1.33879 3.0719,0.83365 5.513,1.6587 3.1747,1.05982 6.2411,2.05305 3.2498,1.13743 7.0196,2.47652 1.6026,0.61541 2.9032,0.91149 8.6305,3.04244 0.4472,0.23109 5.5768,2.13111 2.9377,1.03891 2.7892,0.89616 5.3232,1.84362 3.6003,1.11056 6.1447,2.13152 3.0414,0.96711 7.6414,2.66667 0.6253,0.11213 7.056,2.56025 2.1042,0.75028 2.7951,1.04249 5.7974,2.01546 2.906,1.10336 7.4473,2.71233 1.2678,0.52956 6.6963,2.1203 2.2949,0.90552 2.8878,1.09757 6.083,2.21568 2.592,1.01703 7.2077,2.77725 1.5548,0.52558 5.5972,2.16161 2.9017,0.97992 5.7886,2.27546 2.459,1.0032 7.0984,2.51284 2.0157,0.85638 4.9024,1.78393 3.8404,1.46811 2.7402,0.81587 5.2664,1.88889 2.8155,1.06225 5.6048,1.7941 3.011,1.02917 2.8071,1.06264 5.5556,1.89597 5.9071,1.95256 2.521,0.79116 m 6.0632,2.08708 3.6752,1.18275 5.633,1.92394 5.3928,2.19924 5.0189,2.61528 c 1.4348,0.86745 4.3045,2.60235 4.3045,2.60235 l 1.9131,1.30792 3.6609,3.10683 3.4403,3.74357 1.642,1.88045 2.4275,3.53124 2.0188,3.72999 1.7357,4.60957 0.5156,1.51267 -0.6148,25.42722 -2.604,6.53487 -0.8476,2.1399 -3.0428,5.45589 -1.6772,2.38196 -2.94,3.52171 -4.0653,3.75022 -0.8509,1.01746 -3.0958,2.23641 -2.317,1.66181 -1.8548,1.39571 m -3.4765,1.81273 c 0,0 -2.5551,1.2075 -3.145,1.4573 -0.5898,0.2498 -3.9388,1.51551 -3.9388,1.51551 l -1.5934,0.61482 -4.2578,1.09926 -4.1099,0.74194 -4.4944,0.45108 -4.7717,0.12015 -4.7611,-0.21766 -5.0534,-0.53638 -5.9126,-0.71348 -1.9074,-0.39399 -5.0735,-1.19692 -5.4484,-1.47322 -5.507,-1.7422 -2.9205,-1.06821 -35.7417,-14.06225"
     style="fill:none;stroke:#ff0024;stroke-opacity:1;marker-start:url(#DotM);marker-mid:none"
     inkscape:connector-curvature="0" />
  <path
     inkscape:label="#path3612"
     sodipodi:nodetypes="ccccccccccccccc"
     id="EA_END3"
     d="m 1197.8463,324.36868 14.0651,5.29508 m 17.0435,5.95697 15.7198,6.28791 16.7109,5.97906 c 3.549,1.80277 10.647,5.40831 10.647,5.40831 l 7.193,6.60447 4.2793,7.32874 1.9063,7.58115 0.074,7.36167 -1.2186,6.6703 -1.9703,5.50708 -2.1815,3.87197 -11.8225,12.49562 -7.6086,6.70141"
     style="fill:none;stroke:#000000;stroke-width:1px;stroke-linecap:butt;stroke-linejoin:miter;stroke-opacity:1;marker-start:url(#DotM);marker-mid:none"
     inkscape:connector-curvature="0" />
  <path
     sodipodi:nodetypes="ccccccccccccccscccccczcccc"
     inkscape:label="#EA_DCC"
     id="EA_START2"
     d="m 1171.8875,424.04028 -35.2544,-13.66014 -18.433,-7.52785 -6.474,-2.65956 -11.0366,-3.48434 -17.9427,-6.07802 -9.5404,-4.77209 -6.1446,-1.77636 m -2.2087,-1.12264 -26.5293,-21.57159 20.591,-31.14283 7.0387,-9.43801 4.6651,-5.63712 3.6909,-6.17789 c 0,0 3.8961,-4.75459 5.6064,-6.15382 l 3.8183,-3.12391 4.2922,-1.68547 5.3404,0.11492 6.5923,-0.33028 5.7139,0.26748 m 7.9122,-0.89987 c 0,0 10.0266,1.49592 10.3778,1.54367 0.3512,0.0478 6.4709,0.79743 6.4709,0.79743 l 3.3909,0.78281 5.8346,2.09968 7.0123,3.34334"
     style="fill:none;stroke:#ff0024;stroke-opacity:1;marker-start:url(#DotM)"
     inkscape:connector-curvature="0" />
  <path
     id="path3646"
     d="M 1102.1953,2135.1876"
     style="fill:none;stroke:#000000;stroke-width:1px;stroke-linecap:butt;stroke-linejoin:miter;stroke-opacity:1" />
  <path
     inkscape:label="#DCC_END2"
     sodipodi:nodetypes="cccccccccccccccccczccccccccccccccc"
     d="m 992.61362,2098.4978 2.23292,3.5556 2.23292,3.5556 m 2.23292,3.5556 2.23292,3.5557 m 2.2329,3.5556 2.233,3.5556 2.2329,3.5556 2.2329,3.5556 5.0661,3.271 5.6657,2.0289 5.7626,1.0562 5.3573,0.3526 4.4487,-0.081 3.0379,-0.2464 1.1244,-0.142 5.4555,-2.2276 m 2.9734,-1.3177 c 0,0 3.4368,-1.4563 4.2692,-1.8482 0.8323,-0.3919 8.321,-3.4853 8.321,-3.4853 l 6.1,-0.4758 4.98,1.2334 3.9263,2.3463 2.9388,2.8631 2.0171,2.7831 1.3482,2.5247 1.5266,4.1402 1.3404,3.7225 1.3403,3.7227 1.3404,3.7226 1.3404,3.7226 1.3403,3.7226 1.3405,3.7226 6.6612,20.9672"
     style="fill:none;stroke:#0ffbfb;stroke-width:0.89715462999999995px;stroke-linecap:butt;stroke-linejoin:miter;stroke-opacity:1;marker-start:url(#DotM);marker-mid:none"
     id="DCC_END2"
     inkscape:connector-curvature="0" />
  <path
     sodipodi:nodetypes="cccccccccccczccccccccccccccccccccccc"
     d="m 1037.6657,2219.8673 -4.1414,-5.296 m -4.1413,-5.2959 -8.3655,-15.8042 -2.6025,-17.246 -0.041,-4.3887 0.3288,-4.2298 0.3565,-2.213 1.0107,-4.4981 1.5098,-5.0674 1.8476,-3.2625 m 1.8123,-3.1637 c 0,0 1.2142,-2.0332 1.5552,-2.4845 0.341,-0.4513 2.5857,-2.8618 2.5857,-2.8618 l 4.242,-3.9962 4.4036,-3.0263 3.1054,-2.0965 3.075,-1.7852 3.0355,-1.537 3.1489,-1.6343 4.2864,-1.9779 8.1963,-3.5984 5.8896,-0.4757 4.8082,1.2332 3.7909,2.3462 2.8373,2.8628 1.9475,2.783 1.3016,2.5246 1.4739,4.1398 1.2942,3.7224 1.2941,3.7224 1.2941,3.7224 1.2942,3.7223 1.2941,3.7224 1.2941,3.7224 6.303,21.629"
     style="fill:none;stroke:#ffba00;stroke-width:0.88151239999999997px;stroke-linecap:butt;stroke-linejoin:miter;stroke-opacity:1;marker-start:url(#DotM);marker-mid:none"
     id="DCC_END"
     inkscape:connector-curvature="0" />
  <path
     inkscape:label="#DCC_START"
     sodipodi:nodetypes="cccccccccccccccccccccccccc"
     d="m 1083.0436,2135.8774 1.4459,3.7327 1.446,3.7327 1.4457,3.7326 1.4459,3.7327 1.446,3.7327 1.4459,3.7326 1.4459,3.7327 1.6656,5.1481 0.5106,4.9728 -0.1844,4.492 -1.0007,5.1453 -2.1588,5.5169 -3.658,5.6072 -5.4986,5.4159 -5.6614,4.5417 -4.3203,3.4893 -3.1596,2.5745 -2.18,1.7974 -1.3809,1.1582 -0.7626,0.6567 -0.325,0.293 -1.6581,1.3787 -4.7668,8.8246 1.041,17.831 7.5617,14.1744"
     style="fill:none;stroke:#6ef10c;stroke-width:0.933056px;stroke-linecap:butt;stroke-linejoin:miter;stroke-opacity:1;marker-start:url(#DotM);marker-end:none"
     id="DCC_START" />
  <path
     inkscape:label="#DCC_START2"
     sodipodi:nodetypes="cccccccccccccccccccccccccccccczcc"
     d="m 1083.9556,2136.1946 1.2677,3.7228 1.2679,3.7228 1.2677,3.7228 1.2678,3.7228 1.2678,3.7228 1.2678,3.7227 1.2678,3.7228 1.1263,3.3294 0.2915,3.6526 -0.1616,4.4802 -0.8776,5.1317 -1.8928,5.5024 -3.2074,5.5923 -4.8212,5.4015 -4.9642,4.5297 m -7.5934,4.6028 -7.8088,3.6081 -6.538,1.6072 -5.2924,0.1334 -4.0722,-0.8135 -2.8773,-1.2336 -1.7078,-1.1265 -0.5637,-0.4927 -0.6026,-0.3662 -1.6226,-1.0353 -2.3648,-1.6087 -2.8291,-2.0864 -3.0156,-2.4688 m -2.9241,-2.7552 c 0,0 -2.1836,-2.4449 -2.555,-2.9466 -0.3714,-0.5017 -1.908,-3.042 -1.908,-3.042 l -1.3267,-2.8604"
     style="fill:none;stroke:#8f15fb;stroke-width:0.8725462px;stroke-linecap:butt;stroke-linejoin:miter;stroke-opacity:1;marker-start:url(#DotM)"
     id="DCC_START2"
     inkscape:connector-curvature="0" />
  <path
     inkscape:label="#MCD_DCC"
     sodipodi:nodetypes="ccccccccccccccccccccccccccccccccccccccccccccccccccccccccccccccccccccccccccccccccccccccccccccccccccccccccccccccccccccccccccccccccccccccccccccccccccccccccccccccccccccccccccccccccccccccccccccccccccc"
     d="m 1590.8303,3218.3135 -2.6922,5.119 -3.0709,4.5556 -3.2813,4.103 -3.3359,3.4182 -3.6589,3.2435 -3.424,2.6312 -3.8204,2.8599 -3.8553,2.098 -3.9444,1.6561 -6.1008,1.7389 -6.5001,1.0096 -4.2282,0.1362 -4.4003,-0.1919 -4.4946,-0.5833 -4.6244,-0.9344 -4.6589,-1.2625 -4.7796,-1.6076 -5.1178,-2.299 -5.303,-3.1528 -4.5342,-3.0291 -3.9529,-3.1134 -3.5237,-3.3178 -2.9808,-3.3418 -2.6652,-3.6185 -2.7074,-4.5162 -3.944,-11.7833 -1.4523,-8.4383 -0.9771,-7.3777 -1.226,-5.1458 -9.1173,-26.3294 -2.036,-4.3136 -3.5283,-7.6605 -7.0925,-14.0806 -1.9093,-3.9172 -1.9533,-3.8993 -1.751,-3.7012 -1.8938,-3.6059 -2.049,-3.9555 -1.9689,-4.2135 -1.9093,-3.9687 -2.0761,-4.2268 -1.7737,-3.6833 -1.7532,-3.8775 -2.0791,-4.2036 -1.7084,-3.7226 -1.9618,-4.1208 -2.1706,-4.6478 -1.9999,-4.2409 -2.2093,-4.7306 -1.8665,-3.972 -1.8257,-3.9376 -1.7808,-4.0158 -2.0619,-4.2836 -1.9126,-3.9939 -1.8869,-4.0384 -1.7245,-3.7168 -1.7945,-3.7126 -2.024,-4.3517 -1.7657,-3.8242 -2.0893,-4.2779 -1.8929,-3.9358 -2.8929,-5.225 -4.8738,-8.0969 -2.5414,-4.8988 -2.737,-4.5186 -13.2121,-21.0709 -3.6007,-6.1586 -2.7846,-4.7012 -16.2401,-29.8098 -4.2653,-7.3887 -15.1175,-28.9669 -2.0222,-4.2021 -2.0006,-4.0415 -1.974,-4.112 -1.9859,-4.1112 -2.1376,-4.3206 -2.1576,-4.2823 -1.9678,-4.0345 -2.124,-4.1701 -1.9321,-4.3574 -1.9965,-4.0277 -2.0314,-4.1624 -2.0425,-3.996 -1.9814,-4.6095 -1.8708,-4.067 -1.4296,-3.2589 -1.9112,-3.8969 -2.0557,-4.1642 -2.1701,-4.8491 -1.8792,-3.8258 -1.7524,-3.3586 -1.7912,-3.9127 -2.5986,-5.3823 -2.2119,-5.0471 -2.5398,-5.5397 -2.3007,-5.0976 -10.1117,-22.3851 -7.4129,-16.8079 -13.8983,-31.4306 -2.2743,-5.8627 -2.1547,-4.8015 -6.1211,-14.4999 -2.0162,-4.8378 -1.9955,-4.9604 -1.9237,-4.5861 -2.1429,-4.299 -1.9031,-4.3574 -1.7472,-3.5297 -2.0074,-4.41 -1.8711,-4.6333 -1.8393,-4.2979 -2.2675,-5.1561 -1.9103,-4.6355 -2.9016,-7.5095 -6.1937,-16.5975 -2.7101,-7.8743 -1.5843,-4.4725 -2.2363,-6.5379 -6.646,-19.5928 -3.8481,-10.8667 -1.3974,-4.757 -1.3292,-4.1744 -1.3525,-4.2067 -1.3553,-4.3998 -1.5318,-4.5836 -1.5231,-4.4931 -1.6225,-4.6022 -1.6821,-4.7442 -1.4265,-3.8072 -1.5922,-4.4522 -1.1706,-3.6638 -1.9317,-4.7016 -1.7167,-4.4333 -1.7132,-4.2308 -1.8566,-4.1077 -1.7706,-4.1123 -1.8011,-4.1098 -2.0342,-4.5217 -1.9004,-4.4505 -2.0794,-4.5702 -2.0696,-4.4868 -2.0531,-4.4899 -2.3386,-4.5812 -1.8608,-4.0675 -1.7331,-3.811 -2.029,-4.2861 -2.5143,-4.8773 -2.0383,-4.213 -1.9266,-4.0849 -2.0171,-4.516 -1.7779,-4.0251 -2.159,-4.3342 -1.7214,-3.859 -2.1954,-4.7367 -2.0497,-4.2255 -1.935,-4.1186 -1.7329,-3.8606 -1.9054,-4.1869 -1.9177,-4.3068 -2.0551,-4.1104 -1.9529,-4.6575 -3.5939,-7.9691 -2.0507,-4.8077 -4.7264,-10.5285 -5.8161,-13.0308 -10.1914,-22.9197 -4.4223,-9.9097 -1.862,-4.1449 -1.7674,-3.9465 -1.788,-4.0232 -1.9496,-4.2603 -1.8938,-4.2073 -1.8415,-3.8682 -1.8469,-3.9764 -2.194,-4.7847 -1.877,-4.1445 -1.8154,-4.0081 -1.7976,-3.8011 -2.0684,-4.2098 -1.803,-3.8872 -1.7904,-3.7191 -2.2271,-4.7161 -1.7053,-4.0467 -1.9346,-4.0911 -1.9278,-3.9962 -2.152,-3.9619 -1.7294,-3.8021 -2.3331,-4.121 -2.1074,-4.0572 -2.2774,-4.1761 -1.1493,-2.1319 -2.2391,-3.9147 -0.5881,-1.4056 -2.3199,-3.9105"
     style="fill:none;stroke:#78ff00;stroke-opacity:1;marker-start:url(#DotM)"
     id="MCD_DCC"
     inkscape:connector-curvature="0" />
  <path
     sodipodi:nodetypes="ccccccccccccccccccccccccccccccccccccccccccccccccccccccccccccccccccccccccccccccccscccccccccccccccczcccccccccccccccccccccccccccccccccccccccccccccccccccccccccccccccccccccccccccccccccccccccccccccccccccccccccccccccccccccccccccccccccccccccccccccccccccccccccccccccccccccccccccccccccccccccccccccccccccccccccccccccccccccccccccccccccccccccccccccccccccccccccccccccccccccccccccccccccccccccccccccccccccccccccccccccccccccccccccccccccccccccccccccccccccccccccccccccccccccc"
     inkscape:label="#DCC_EA"
     id="DCC_EA"
     d="m 988.33789,2145.9538 -7.52025,-11.7438 -6.19912,-12.1168 -6.75756,-8.8888 -7.11275,-9.3804 -8.07286,-10.4061 -7.68995,-9.7459 -7.77964,-9.5762 -7.74192,-8.7209 -9.44771,-9.3552 -9.90255,-8.4934 -9.55601,-7.0407 -11.42425,-7.2548 -10.68444,-5.8432 -11.01727,-5.315 -13.34485,-5.4304 -16.89157,-5.5684 -11.7775,-2.9531 -34.26447,-3.9946 -54.9593,7.1103 -10.4473,3.1068 -6.75929,2.5037 -6.18476,2.3183 -5.17519,1.9675 -6.09563,2.7958 -5.38684,2.6013 -5.47889,3.0736 -5.94245,3.0694 -4.77025,2.8475 -4.68271,2.9719 -3.95901,2.6723 -4.95559,3.2126 -7.34516,5.2762 -5.88181,4.559 -6.48347,5.12 -5.94052,4.6158 -4.48644,4.0806 -3.79708,3.7177 -6.13401,6.6395 -4.94471,5.6257 -3.87893,4.5533 -3.67138,4.4729 -3.62305,4.6373 -3.738,4.7273 -5.40694,7.111 -5.36376,7.2943 -3.05382,4.405 -6.59964,9.3369 -4.29445,6.1883 -3.67492,5.5987 -3.87149,5.8422 -3.50689,5.4399 -3.56839,5.7268 -3.74625,6.2536 -3.55702,5.9385 -3.11487,5.4871 -0.93943,2.1044 -3.02249,5.2402 -3.22399,5.3617 -4.88452,7.9578 -4.7345,7.4082 -4.43794,6.6489 -3.28489,4.7982 -3.49991,4.8695 -4.00492,5.3639 -3.7969,4.9841 -8.75737,11.2318 -7.88165,9.6948 -8.72174,10.2991 -7.43934,8.8025 -17.7845,16.8954 -6.40215,5.4757 -3.94195,3.4165 -2.73887,3.2643 -3.87322,3.5411 -4.27699,3.6823 -4.29335,3.5489 -4.22714,3.397 -4.76327,3.6499 -4.53005,3.2606 -4.36965,3.0325 m -4.06907,2.8655 -4.33304,2.8651 -4.20197,2.6161 -8.10976,4.6808 -8.03733,4.4601 -6.79205,3.7986 -8.08873,4.175 -11.23321,4.9339 -32.35545,1.2263 -19.47271,-27.0815 c 0,0 -6.07615,-8.632 -9.11422,-12.948 l -4.94523,-7.2856 -4.28089,-6.262 -4.66713,-6.435 -2.29975,-7.0473 m -1.31874,-6.8076 c 0,0 -0.81801,-4.4695 -0.92902,-5.5022 -0.11101,-1.0327 -0.32273,-6.876 -0.32273,-6.876 l -0.004,-5.9044 -0.0542,-6.1757 0.44199,-8.4653 -0.0744,-9.0621 -0.42877,-28.7179 0.70347,-6.3227 0.68021,-6.5415 0.82791,-5.8435 0.84951,-7.3123 0.82693,-6.705 0.70004,-6.0262 0.80095,-6.3711 0.76522,-5.899 0.91229,-6.8391 0.75218,-7.3828 0.81369,-6.0299 0.57469,-5.847 0.92343,-7.1939 0.63554,-6.4474 0.81947,-6.3472 0.66012,-6.4248 0.59959,-5.8365 0.86584,-7.0159 0.31989,-3.9407 0.74344,-7.6372 0.70549,-6.2142 0.7505,-6.3886 0.64822,-6.8687 0.44437,-5.4836 0.62754,-6.379 0.58963,-6.8698 0.8252,-7.0136 0.3856,-5.9359 0.76206,-7.728 0.41963,-5.9951 0.71592,-7.8203 0.62109,-6.5107 0.65911,-7.4953 0.50114,-5.7266 0.66397,-6.8937 0.57237,-5.9625 0.23762,-5.6404 0.50659,-4.8806 0.50646,-6.3781 0.54111,-6.4149 0.50361,-4.5099 0.59516,-6.1072 0.37766,-5.5827 0.7275,-7.9176 0.69011,-8.2062 0.74561,-7.9541 0.38876,-6.0159 0.45405,-5.6753 0.62511,-6.0612 0.61642,-6.8416 0.73479,-5.7386 0.70889,-7.9807 0.56745,-4.7149 0.81596,-8.3449 0.88724,-6.9666 0.68361,-6.6429 0.52418,-4.2089 0.86907,-7.7796 0.69565,-5.8198 0.49411,-6.3989 0.69422,-6.3804 0.50568,-6.3917 0.51091,-4.658 0.37353,-5.5688 0.54633,-6.0512 0.69134,-7.6116 0.75692,-8.0758 0.36405,-5.2535 0.54794,-6.754 0.67262,-6.6935 0.65241,-7.8492 0.40357,-6.7135 0.59341,-7.6129 0.3958,-5.7741 0.59566,-6.715 0.55175,-8.2595 0.48702,-7.5953 0.41061,-6.0791 0.37093,-9.1362 0.40427,-5.9633 0.31305,-6.6007 0.38668,-5.9162 0.1672,-5.8389 0.35383,-6.1986 0.5342,-12.8738 0.33927,-7.6154 0.28225,-7.2802 0.35847,-10.6334 0.22102,-8.4693 0.21879,-3.9988 0.24085,-6.6316 0.31629,-8.9969 0.2238,-6.2457 0.37863,-8.2273 0.43201,-8.3187 0.30354,-7.7077 0.27378,-3.1827 0.52002,-9.9868 0.39264,-7.1038 0.25371,-6.4088 0.37589,-8.1563 0.71441,-12.5378 5.1e-4,-2.9382 0.4557,-7.277 0.41635,-9.404 0.38623,-7.2905 0.4918,-8.4308 0.52733,-7.6735 0.2731,-5.6392 0.17169,-6.0383 0.41746,-7.6802 0.41495,-6.5882 0.3549,-6.4321 0.24102,-5.6369 0.32689,-5.9628 0.44366,-7.6075 0.51316,-7.454 0.43506,-6.9771 0.44389,-7.7784 0.69053,-7.9702 0.43598,-7.7326 0.36418,-5.9352 0.60771,-9.1861 0.52853,-7.955 0.43088,-6.4642 0.58797,-8.9461 0.45922,-6.8299 0.43927,-7.1341 0.3331,-5.427 0.38169,-6.12 0.36292,-5.6287 0.44837,-6.7897 0.37169,-6.5176 0.4554,-7.5699 0.31301,-6.4547 0.37037,-6.1866 0.33429,-5.9116 0.40118,-6.6518 0.40432,-6.3922 0.33315,-6.207 0.48035,-6.0641 0.43178,-5.6035 0.56908,-6.1179 0.60235,-5.7609 0.76881,-7.0061 0.97073,-7.0208 0.93695,-6.4164 0.98941,-6.2139 1.227,-6.6671 1.30593,-7.0215 1.32817,-5.9196 1.61168,-7.1782 1.53416,-6.3464 1.60487,-6.5585 1.53542,-5.895 1.66774,-5.8976 2.99154,-9.8417 0.52264,-2.3946 4.25326,-13.8672 1.95487,-6.5189 1.82759,-5.7877 1.9709,-6.0954 2.00323,-6.2034 1.95808,-6.0082 0.94913,-2.5563 1.03774,-3.3375 1.66486,-4.5031 2.15032,-6.2707 2.39165,-6.966 2.55858,-7.2823 2.00377,-6.0139 2.09686,-5.9255 2.28517,-6.5029 4.97896,-14.8926 2.26819,-6.6259 2.04402,-5.756 2.00978,-5.6614 2.22017,-6.2736 1.92482,-5.4974 2.23816,-6.121 2.23406,-6.1552 2.14611,-6.08327 1.21372,-3.35329 1.30877,-3.8973 1.74101,-4.60678 2.18998,-6.00189 5.17518,-12.6889 0.78574,-2.65929 1.66601,-4.4929 1.75228,-4.9623 2.93844,-7.84943 2.19693,-5.71489 3.60377,-9.25648 5.03115,-12.72453 2.93757,-7.87826 6.6028,-16.51995 3.23721,-8.09053 2.77579,-7.16245 2.57166,-6.68002 2.57941,-6.20101 3.89369,-11.55526 3.14962,-7.59156 2.6142,-6.97565 2.14973,-5.62872 3.23706,-8.50751 1.79079,-4.35826 2.38011,-6.60632 2.66136,-7.36662 3.04066,-8.16913 2.64007,-7.2147 2.26637,-6.07862 2.48034,-6.81222 2.33192,-6.37344 2.48419,-6.65689 2.73995,-7.83105 2.73205,-7.48106 2.76429,-6.90457 2.33194,-6.95245 2.75106,-6.27534 2.78317,-7.67825 2.16995,-5.60546 2.82367,-7.67316 2.53385,-6.35307 2.84934,-6.91714 2.5856,-6.70682 3.29855,-7.79425 2.49344,-5.86917 3.55119,-8.54611 2.93951,-6.83992 3.29839,-8.12692 2.87921,-6.42943 3.3628,-7.4756 2.97495,-6.50475 2.48923,-5.93652 3.20278,-6.55253 2.56496,-5.96054 3.52433,-7.46803 3.39438,-7.22985 2.3369,-5.23999 3.65812,-7.82695 2.52347,-5.88546 c 0,0 3.00889,-6.65726 4.51333,-9.98589 l 1.81017,-4.25929 3.52177,-8.26054 1.97998,-5.18021 4.59922,-10.59697 3.6657,-8.53762 2.88447,-7.24804 1.21757,-2.98116 3.30687,-7.435 2.71951,-6.23901 2.90995,-6.32465 2.59812,-5.74446 3.48768,-7.02026 3.05975,-6.05888 2.63514,-5.20443 3.23544,-6.50179 3.86075,-7.4507 2.20426,-4.09493 2.83423,-5.30605 2.70202,-5.45906 2.55174,-4.65163 4.58838,-8.14384 3.34574,-6.23627 3.43829,-6.44846 3.26275,-5.98008 2.93681,-5.416 3.07508,-5.83028 2.86689,-5.74938 3.01122,-5.48944 2.66319,-5.21351 2.2858,-4.7574 3.33139,-6.02273 3.09148,-5.81324 3.19232,-6.12418 2.8371,-5.43341 3.42064,-6.26741 3.19765,-5.94527 2.22721,-4.54454 2.83269,-5.01264 3.66878,-6.48738 2.99043,-5.57849 5.68843,-9.0841 0.78948,-1.80953 3.58956,-6.00979 3.18744,-4.99305 3.40846,-5.4938 3.09433,-4.90431 3.8486,-5.89096 3.93591,-5.91731 3.52009,-5.35761 3.50073,-5.23899 4.86441,-6.71665 10.18648,-14.15472 7.68776,-8.64087 4.83768,-5.31999 3.95231,-3.93322 7.19833,-5.8957 45.62144,-18.18689 6.07584,-0.7639 9.55971,0.2404 6.38352,-0.0523 6.06495,1.14882 5.57995,0.91784 8.61243,2.20742 6.88243,1.96895 6.42969,2.26179 6.21458,2.40777 7.87654,2.88258 7.83046,3.18664 6.44974,2.6325 6.29593,2.46142 6.59989,2.60699 6.04627,2.44854 6.97691,2.81468 3.43097,1.66817 3.83194,1.3854 4.82977,1.3707 6.64966,2.17395 2.28858,0.71562 2.86319,1.37413 1.26316,0.6714 6.92211,2.81629 2.58328,1.03261 4.83832,1.66118 2.61974,0.77573 2.67839,0.98916 8.5569,3.16092 3.593,1.53072 1.8605,0.91967 1.4847,0.0436 3.6689,1.21579 7.2075,2.31907 0.8371,0.3251 5.0832,1.95356 5.4836,2.01291 3.0845,1.2101 6.5129,2.63219 1.9985,0.9821 7.5994,3.18646 5.8702,1.82554 5.9,2.24131 2.0339,0.3909 5.9062,2.15179 3.8039,1.14656 6.4482,2.2702 4.9795,2.12403 0.6953,0.47165 6.6607,2.57765 0.9045,0.28756 3.1769,1.22862 9.5014,3.4721"
     style="fill:none;stroke:#ff0800;stroke-opacity:1;marker-start:url(#DotM);marker-mid:none;filter:url(#filter3830)"
     inkscape:connector-curvature="0" />
  <path
     transform="translate(-103.00847,110.50001)"
     d="m 1717.4323,353.50635 a 106.28602,106.28602 0 1 1 -212.5721,0 106.28602,106.28602 0 1 1 212.5721,0 z"
     sodipodi:ry="106.28602"
     sodipodi:rx="106.28602"
     sodipodi:cy="353.50635"
     sodipodi:cx="1611.1462"
     id="path2936"
     style="fill:none;stroke:#78ff00;stroke-width:1;stroke-miterlimit:4;stroke-opacity:1;stroke-dasharray:none"
     sodipodi:type="arc" />
  <path
     transform="translate(-19.665254,-30.902543)"
     d="m 1201.4533,2223.1101 a 130.16525,130.16525 0 1 1 -260.33047,0 130.16525,130.16525 0 1 1 260.33047,0 z"
     sodipodi:ry="130.16525"
     sodipodi:rx="130.16525"
     sodipodi:cy="2223.1101"
     sodipodi:cx="1071.2881"
     id="path2875"
     style="fill:none;stroke:#78ff00;stroke-width:1;stroke-miterlimit:4;stroke-opacity:1;stroke-dasharray:none"
     sodipodi:type="arc" />
  <path
     d="m 428.88985,2323.7776 a 81.002121,81.002121 0 1 1 -162.00425,0 81.002121,81.002121 0 1 1 162.00425,0 z"
     sodipodi:ry="81.002121"
     sodipodi:rx="81.002121"
     sodipodi:cy="2323.7776"
     sodipodi:cx="347.88773"
     id="path2877"
     style="fill:none;stroke:#78ff00;stroke-width:1;stroke-miterlimit:4;stroke-opacity:1;stroke-dasharray:none"
     sodipodi:type="arc" />
  <path
     transform="translate(6.5550848,-0.93644068)"
     d="m 899.91951,242.0699 a 71.637711,71.637711 0 1 1 -143.27542,0 71.637711,71.637711 0 1 1 143.27542,0 z"
     sodipodi:ry="71.637711"
     sodipodi:rx="71.637711"
     sodipodi:cy="242.0699"
     sodipodi:cx="828.2818"
     id="path2879"
     style="fill:none;stroke:#78ff00;stroke-width:1;stroke-miterlimit:4;stroke-opacity:1;stroke-dasharray:none"
     sodipodi:type="arc" />
  <path
     transform="translate(-31.838983,-5.6186441)"
     d="m 2014.2839,631.16101 a 89.898308,89.898308 0 1 1 -179.7966,0 89.898308,89.898308 0 1 1 179.7966,0 z"
     sodipodi:ry="89.898308"
     sodipodi:rx="89.898308"
     sodipodi:cy="631.16101"
     sodipodi:cx="1924.3856"
     id="path2903"
     style="fill:none;stroke:#78ff00;stroke-width:1;stroke-miterlimit:4;stroke-opacity:1;stroke-dasharray:none"
     sodipodi:type="arc" />
  <path
     transform="translate(-21.538136,-31.838983)"
     d="m 1313.8263,389.09109 a 128.76059,128.76059 0 1 1 -257.5212,0 128.76059,128.76059 0 1 1 257.5212,0 z"
     sodipodi:ry="128.76059"
     sodipodi:rx="128.76059"
     sodipodi:cy="389.09109"
     sodipodi:cx="1185.0657"
     id="path2905"
     style="fill:none;stroke:#78ff00;stroke-width:1;stroke-miterlimit:4;stroke-opacity:1;stroke-dasharray:none"
     sodipodi:type="arc" />
  <text
     xml:space="preserve"
     style="font-size:40px;font-style:normal;font-weight:normal;line-height:125%;letter-spacing:0;word-spacing:0;fill:#000000;fill-opacity:1;stroke:none;font-family:Bitstream Vera Sans"
     x="41.216953"
     y="2746.4065"
     id="text9032"
     sodipodi:linespacing="125%"><tspan
       sodipodi:role="line"
       id="tspan9034"
       x="41.216953"
       y="2746.4065"
       style="font-size:20px">Legend</tspan></text>
  <path
     style="fill:none;stroke:#000000;stroke-width:1px;stroke-linecap:butt;stroke-linejoin:miter;stroke-opacity:1;marker-start:url(#DotM-5);marker-mid:none"
     d="m 29.303023,2774.2055 19.468582,0 19.468581,0 19.468582,0 19.468582,0"
     id="path9036"
     inkscape:connector-curvature="0"
     sodipodi:nodetypes="ccccc" />
  <text
     xml:space="preserve"
     style="font-size:14px;font-style:normal;font-weight:normal;line-height:125%;letter-spacing:0;word-spacing:0;fill:#000000;fill-opacity:1;stroke:none;font-family:Bitstream Vera Sans"
     x="22.933142"
     y="2797.9272"
     id="text9430"
     sodipodi:linespacing="125%"><tspan
       sodipodi:role="line"
       id="tspan9432"
       x="22.933142"
       y="2797.9272"
       style="font-size:12px">Dot: Start of path</tspan><tspan
       sodipodi:role="line"
       x="22.933142"
       y="2827.9272"
       id="tspan9436"
       style="font-size:12px">Intersection: Single curve point</tspan><tspan
       sodipodi:role="line"
       x="22.933142"
       y="2842.9272"
       id="tspan9438"
       style="font-size:12px">Turn right: New path</tspan><tspan
       sodipodi:role="line"
       x="22.933142"
       y="2857.9272"
       id="tspan9440"
       style="font-size:12px">Turn left: New path, +2, new path</tspan><tspan
       sodipodi:role="line"
       x="22.933142"
       y="2872.9272"
       style="font-size:12px"
       id="tspan9444">Turn off signal: New path, </tspan><tspan
       sodipodi:role="line"
       x="22.933142"
       y="2887.9272"
       style="font-size:12px"
       id="tspan9448">                        single curve point</tspan></text>
  <rect
     style="fill:none;stroke:#000000;stroke-width:0.50000000000000000;stroke-miterlimit:4;stroke-opacity:1;stroke-dasharray:none"
     id="rect9450"
     width="219.03493"
     height="176.91283"
     x="9.360467"
     y="2719.7673" />
  <path
     style="fill:none;stroke:#000000;stroke-width:30;stroke-linecap:butt;stroke-linejoin:miter;stroke-miterlimit:4;stroke-opacity:1;stroke-dasharray:none"
     d="m 592.243,527.4891 77.90926,31.0599"
     id="crossing"
     inkscape:connector-curvature="0"
     sodipodi:nodetypes="cc"
     inkscape:label="#path3993" />
  <path
     sodipodi:nodetypes="ccccccccccccccc"
     inkscape:label="#EA_DCC"
     id="EA_START"
     d="m 1171.236,422.82284 -35.2544,-13.66014 -18.433,-7.52785 -6.474,-2.65956 -11.0366,-3.48434 -17.9427,-6.07802 -9.5404,-4.77209 -6.1446,-1.77636 m -2.2087,-1.12264 -26.5293,-21.57159 11.8156,-18.6232 6.5706,-9.78903 c 0,0 2.3658,-4.15735 6.7927,-10.08375 l 19.2853,-25.81774 -69.041,2.73421"
     style="fill:none;stroke:#ff0024;stroke-opacity:1;marker-start:url(#DotM)"
     inkscape:connector-curvature="0" />
</svg>
