<?xml version="1.0" encoding="UTF-8" standalone="no"?>
<svg
   xmlns:dc="http://purl.org/dc/elements/1.1/"
   xmlns:cc="http://creativecommons.org/ns#"
   xmlns:rdf="http://www.w3.org/1999/02/22-rdf-syntax-ns#"
   xmlns:svg="http://www.w3.org/2000/svg"
   xmlns="http://www.w3.org/2000/svg"
   xmlns:xlink="http://www.w3.org/1999/xlink"
   xmlns:sodipodi="http://sodipodi.sourceforge.net/DTD/sodipodi-0.dtd"
   xmlns:inkscape="http://www.inkscape.org/namespaces/inkscape"
   sodipodi:docname="path_def.svg"
   height="9915"
   width="8138"
   inkscape:version="0.48.3.1 r9886"
   id="svg2"
   version="1.1">
  <sodipodi:namedview
     pagecolor="#ffffff"
     bordercolor="#666666"
     borderopacity="1"
     objecttolerance="10"
     gridtolerance="10"
     guidetolerance="10"
     inkscape:pageopacity="0"
     inkscape:pageshadow="2"
     inkscape:window-width="1855"
     inkscape:window-height="1056"
     id="namedview32"
     showgrid="true"
     inkscape:zoom="2.8284272"
     inkscape:cx="1287.83"
     inkscape:cy="4853.6089"
     inkscape:window-x="1431"
     inkscape:window-y="24"
     inkscape:window-maximized="1"
     inkscape:current-layer="svg2">
    <inkscape:grid
       type="xygrid"
       id="grid3981" />
  </sodipodi:namedview>
  <metadata
     id="metadata36">
    <rdf:RDF>
      <cc:Work
         rdf:about="">
        <dc:format>image/svg+xml</dc:format>
        <dc:type
           rdf:resource="http://purl.org/dc/dcmitype/StillImage" />
        <dc:title>Paths of the golfcar</dc:title>
      </cc:Work>
    </rdf:RDF>
  </metadata>
  <defs
     id="defs34">
    <marker
       inkscape:stockid="Arrow1Send"
       orient="auto"
       refY="0.0"
       refX="0.0"
       id="Arrow1Send"
       style="overflow:visible;">
      <path
         id="path6236"
         d="M 0.0,0.0 L 5.0,-5.0 L -12.5,0.0 L 5.0,5.0 L 0.0,0.0 z "
         style="fill-rule:evenodd;stroke:#000000;stroke-width:1.0pt;marker-start:none;"
         transform="scale(0.2) rotate(180) translate(6,0)" />
    </marker>
    <marker
       inkscape:stockid="Arrow1Sstart"
       orient="auto"
       refY="0.0"
       refX="0.0"
       id="Arrow1Sstart"
       style="overflow:visible">
      <path
         id="path6233"
         d="M 0.0,0.0 L 5.0,-5.0 L -12.5,0.0 L 5.0,5.0 L 0.0,0.0 z "
         style="fill-rule:evenodd;stroke:#000000;stroke-width:1.0pt;marker-start:none"
         transform="scale(0.2) translate(6,0)" />
    </marker>
    <inkscape:path-effect
       steps="5"
       equidistant_spacing="true"
       trajectory="M 0,0 0,0"
       is_visible="true"
       id="path-effect3660"
       effect="interpolate" />
    <inkscape:path-effect
       phi="5"
       teeth="10"
       is_visible="true"
       id="path-effect3658"
       effect="gears" />
    <marker
       style="overflow:visible"
       id="DotM"
       refX="0.0"
       refY="0.0"
       orient="auto"
       inkscape:stockid="DotM">
      <path
         transform="scale(0.4) translate(7.4, 1)"
         style="fill-rule:evenodd;stroke:#000000;stroke-width:1.0pt;marker-start:none;marker-end:none"
         d="M -2.5,-1.0 C -2.5,1.7600000 -4.7400000,4.0 -7.5,4.0 C -10.260000,4.0 -12.5,1.7600000 -12.5,-1.0 C -12.5,-3.7600000 -10.260000,-6.0 -7.5,-6.0 C -4.7400000,-6.0 -2.5,-3.7600000 -2.5,-1.0 z "
         id="path3704" />
    </marker>
    <marker
       style="overflow:visible"
       id="DotL"
       refX="0.0"
       refY="0.0"
       orient="auto"
       inkscape:stockid="DotL">
      <path
         transform="scale(0.8) translate(7.4, 1)"
         style="fill-rule:evenodd;stroke:#000000;stroke-width:1.0pt;marker-start:none;marker-end:none"
         d="M -2.5,-1.0 C -2.5,1.7600000 -4.7400000,4.0 -7.5,4.0 C -10.260000,4.0 -12.5,1.7600000 -12.5,-1.0 C -12.5,-3.7600000 -10.260000,-6.0 -7.5,-6.0 C -4.7400000,-6.0 -2.5,-3.7600000 -2.5,-1.0 z "
         id="path3701" />
    </marker>
    <marker
       style="overflow:visible;"
       id="Arrow1Lend"
       refX="0.0"
       refY="0.0"
       orient="auto"
       inkscape:stockid="Arrow1Lend">
      <path
         transform="scale(0.8) rotate(180) translate(12.5,0)"
         style="fill-rule:evenodd;stroke:#000000;stroke-width:1.0pt;marker-start:none;"
         d="M 0.0,0.0 L 5.0,-5.0 L -12.5,0.0 L 5.0,5.0 L 0.0,0.0 z "
         id="path3642" />
    </marker>
    <marker
       style="overflow:visible"
       id="Arrow1Lstart"
       refX="0.0"
       refY="0.0"
       orient="auto"
       inkscape:stockid="Arrow1Lstart">
      <path
         transform="scale(0.8) translate(12.5,0)"
         style="fill-rule:evenodd;stroke:#000000;stroke-width:1.0pt;marker-start:none"
         d="M 0.0,0.0 L 5.0,-5.0 L -12.5,0.0 L 5.0,5.0 L 0.0,0.0 z "
         id="path3639" />
    </marker>
    <inkscape:path-effect
       crossing_points_vector=""
       switcher_size="15"
       add_other_stroke_width="true"
       add_stroke_width="true"
       prop_to_stroke_width="true"
       interruption_width="3.6"
       is_visible="true"
       id="path-effect2862"
       effect="knot" />
    <inkscape:path-effect
       crossing_points_vector=""
       switcher_size="15"
       add_other_stroke_width="true"
       add_stroke_width="true"
       prop_to_stroke_width="true"
       interruption_width="3"
       is_visible="true"
       id="path-effect2860"
       effect="knot" />
    <inkscape:path-effect
       steps="5"
       equidistant_spacing="true"
       trajectory="M 0,0 0,0"
       is_visible="true"
       id="path-effect2858"
       effect="interpolate" />
    <inkscape:path-effect
       bendpath4="m 1068.3624,2136.3724 0,121.4273"
       bendpath3="m 1068.3624,2257.7997 48.7175,0"
       bendpath2="m 1117.0799,2136.3724 0,121.4273"
       bendpath1="m 1068.3624,2136.3724 48.7175,0"
       xx="true"
       yy="true"
       is_visible="true"
       id="path-effect2856"
       effect="envelope" />
    <inkscape:path-effect
       tgtlength_rdm="0.3;1"
       tgtlength="100"
       tgtscale="10"
       tgt_places_rdmness="1;1"
       nbtangents="5"
       tremble_frequency="1"
       tremble_size="5;1"
       parallel_offset="5;1"
       ends_tolerance="0.1;1"
       strokeoverlap_rdm="0.3;1"
       strokeoverlap="0.3"
       strokelength_rdm="0.3;1"
       strokelength="100"
       nbiter_approxstrokes="5"
       is_visible="true"
       id="path-effect2854"
       effect="sketch" />
    <inkscape:path-effect
       border_marks="both"
       mark_dir="left"
       offset="0"
       shift="0"
       major_mark_steps="5"
       minor_mark_length="7"
       mark_length="14"
       mark_distance="20"
       unit="px"
       is_visible="true"
       id="path-effect2852"
       effect="ruler" />
    <inkscape:path-effect
       border_marks="both"
       mark_dir="left"
       offset="0"
       shift="0"
       major_mark_steps="5"
       minor_mark_length="7"
       mark_length="14"
       mark_distance="20"
       unit="px"
       is_visible="true"
       id="path-effect2850"
       effect="ruler" />
    <inkscape:path-effect
       phi="5"
       teeth="10"
       is_visible="true"
       id="path-effect2848"
       effect="gears" />
    <inkscape:perspective
       id="perspective38"
       inkscape:persp3d-origin="1528.5 : 1178.6667 : 1"
       inkscape:vp_z="3057 : 1768 : 1"
       inkscape:vp_y="0 : 1000 : 0"
       inkscape:vp_x="0 : 1768 : 1"
       sodipodi:type="inkscape:persp3d" />
    <inkscape:perspective
       sodipodi:type="inkscape:persp3d"
       inkscape:vp_x="0 : 0.5 : 1"
       inkscape:vp_y="0 : 1000 : 0"
       inkscape:vp_z="1 : 0.5 : 1"
       inkscape:persp3d-origin="0.5 : 0.33333333 : 1"
       id="perspective2947" />
    <inkscape:perspective
       sodipodi:type="inkscape:persp3d"
       inkscape:vp_x="0 : 0.5 : 1"
       inkscape:vp_y="0 : 1000 : 0"
       inkscape:vp_z="1 : 0.5 : 1"
       inkscape:persp3d-origin="0.5 : 0.33333333 : 1"
       id="perspective2824" />
    <inkscape:perspective
       sodipodi:type="inkscape:persp3d"
       inkscape:vp_x="0 : 0.5 : 1"
       inkscape:vp_y="0 : 1000 : 0"
       inkscape:vp_z="1 : 0.5 : 1"
       inkscape:persp3d-origin="0.5 : 0.33333333 : 1"
       id="perspective2960" />
    <inkscape:perspective
       sodipodi:type="inkscape:persp3d"
       inkscape:vp_x="0 : 0.5 : 1"
       inkscape:vp_y="0 : 1000 : 0"
       inkscape:vp_z="1 : 0.5 : 1"
       inkscape:persp3d-origin="0.5 : 0.33333333 : 1"
       id="perspective3024" />
    <inkscape:perspective
       sodipodi:type="inkscape:persp3d"
       inkscape:vp_x="0 : 0.5 : 1"
       inkscape:vp_y="0 : 1000 : 0"
       inkscape:vp_z="1 : 0.5 : 1"
       inkscape:persp3d-origin="0.5 : 0.33333333 : 1"
       id="perspective3088" />
    <inkscape:perspective
       sodipodi:type="inkscape:persp3d"
       inkscape:vp_x="0 : 0.5 : 1"
       inkscape:vp_y="0 : 1000 : 0"
       inkscape:vp_z="1 : 0.5 : 1"
       inkscape:persp3d-origin="0.5 : 0.33333333 : 1"
       id="perspective3152" />
    <inkscape:perspective
       sodipodi:type="inkscape:persp3d"
       inkscape:vp_x="0 : 0.5 : 1"
       inkscape:vp_y="0 : 1000 : 0"
       inkscape:vp_z="1 : 0.5 : 1"
       inkscape:persp3d-origin="0.5 : 0.33333333 : 1"
       id="perspective3216" />
    <inkscape:perspective
       sodipodi:type="inkscape:persp3d"
       inkscape:vp_x="0 : 0.5 : 1"
       inkscape:vp_y="0 : 1000 : 0"
       inkscape:vp_z="1 : 0.5 : 1"
       inkscape:persp3d-origin="0.5 : 0.33333333 : 1"
       id="perspective3280" />
    <inkscape:perspective
       sodipodi:type="inkscape:persp3d"
       inkscape:vp_x="0 : 0.5 : 1"
       inkscape:vp_y="0 : 1000 : 0"
       inkscape:vp_z="1 : 0.5 : 1"
       inkscape:persp3d-origin="0.5 : 0.33333333 : 1"
       id="perspective3344" />
    <inkscape:perspective
       sodipodi:type="inkscape:persp3d"
       inkscape:vp_x="0 : 0.5 : 1"
       inkscape:vp_y="0 : 1000 : 0"
       inkscape:vp_z="1 : 0.5 : 1"
       inkscape:persp3d-origin="0.5 : 0.33333333 : 1"
       id="perspective3408" />
    <inkscape:perspective
       sodipodi:type="inkscape:persp3d"
       inkscape:vp_x="0 : 0.5 : 1"
       inkscape:vp_y="0 : 1000 : 0"
       inkscape:vp_z="1 : 0.5 : 1"
       inkscape:persp3d-origin="0.5 : 0.33333333 : 1"
       id="perspective3628" />
    <inkscape:perspective
       sodipodi:type="inkscape:persp3d"
       inkscape:vp_x="0 : 0.5 : 1"
       inkscape:vp_y="0 : 1000 : 0"
       inkscape:vp_z="1 : 0.5 : 1"
       inkscape:persp3d-origin="0.5 : 0.33333333 : 1"
       id="perspective2848" />
    <inkscape:perspective
       sodipodi:type="inkscape:persp3d"
       inkscape:vp_x="0 : 0.5 : 1"
       inkscape:vp_y="0 : 1000 : 0"
       inkscape:vp_z="1 : 0.5 : 1"
       inkscape:persp3d-origin="0.5 : 0.33333333 : 1"
       id="perspective3658" />
    <inkscape:perspective
       sodipodi:type="inkscape:persp3d"
       inkscape:vp_x="0 : 0.5 : 1"
       inkscape:vp_y="0 : 1000 : 0"
       inkscape:vp_z="1 : 0.5 : 1"
       inkscape:persp3d-origin="0.5 : 0.33333333 : 1"
       id="perspective3691" />
    <inkscape:perspective
       sodipodi:type="inkscape:persp3d"
       inkscape:vp_x="0 : 0.5 : 1"
       inkscape:vp_y="0 : 1000 : 0"
       inkscape:vp_z="1 : 0.5 : 1"
       inkscape:persp3d-origin="0.5 : 0.33333333 : 1"
       id="perspective3713" />
    <inkscape:perspective
       sodipodi:type="inkscape:persp3d"
       inkscape:vp_x="0 : 0.5 : 1"
       inkscape:vp_y="0 : 1000 : 0"
       inkscape:vp_z="1 : 0.5 : 1"
       inkscape:persp3d-origin="0.5 : 0.33333333 : 1"
       id="perspective3735" />
    <inkscape:perspective
       sodipodi:type="inkscape:persp3d"
       inkscape:vp_x="0 : 0.5 : 1"
       inkscape:vp_y="0 : 1000 : 0"
       inkscape:vp_z="1 : 0.5 : 1"
       inkscape:persp3d-origin="0.5 : 0.33333333 : 1"
       id="perspective3757" />
    <inkscape:perspective
       sodipodi:type="inkscape:persp3d"
       inkscape:vp_x="0 : 0.5 : 1"
       inkscape:vp_y="0 : 1000 : 0"
       inkscape:vp_z="1 : 0.5 : 1"
       inkscape:persp3d-origin="0.5 : 0.33333333 : 1"
       id="perspective2910" />
    <marker
       style="overflow:visible"
       id="DotM-1"
       refX="0"
       refY="0"
       orient="auto"
       inkscape:stockid="DotM">
      <path
         transform="matrix(0.4,0,0,0.4,2.96,0.4)"
         style="fill-rule:evenodd;stroke:#000000;stroke-width:1pt;marker-start:none;marker-end:none"
         d="m -2.5,-1 c 0,2.76 -2.24,5 -5,5 -2.76,0 -5,-2.24 -5,-5 0,-2.76 2.24,-5 5,-5 2.76,0 5,2.24 5,5 z"
         id="path3704-5" />
    </marker>
    <inkscape:perspective
       sodipodi:type="inkscape:persp3d"
       inkscape:vp_x="0 : 0.5 : 1"
       inkscape:vp_y="0 : 1000 : 0"
       inkscape:vp_z="1 : 0.5 : 1"
       inkscape:persp3d-origin="0.5 : 0.33333333 : 1"
       id="perspective3012" />
    <inkscape:perspective
       sodipodi:type="inkscape:persp3d"
       inkscape:vp_x="0 : 0.5 : 1"
       inkscape:vp_y="0 : 1000 : 0"
       inkscape:vp_z="1 : 0.5 : 1"
       inkscape:persp3d-origin="0.5 : 0.33333333 : 1"
       id="perspective2903" />
    <marker
       style="overflow:visible"
       id="DotM-5"
       refX="0"
       refY="0"
       orient="auto"
       inkscape:stockid="DotM">
      <path
         transform="matrix(0.4,0,0,0.4,2.96,0.4)"
         style="fill-rule:evenodd;stroke:#000000;stroke-width:1pt;marker-start:none;marker-end:none"
         d="m -2.5,-1 c 0,2.76 -2.24,5 -5,5 -2.76,0 -5,-2.24 -5,-5 0,-2.76 2.24,-5 5,-5 2.76,0 5,2.24 5,5 z"
         id="path3704-9" />
    </marker>
    <inkscape:perspective
       sodipodi:type="inkscape:persp3d"
       inkscape:vp_x="0 : 0.5 : 1"
       inkscape:vp_y="0 : 1000 : 0"
       inkscape:vp_z="1 : 0.5 : 1"
       inkscape:persp3d-origin="0.5 : 0.33333333 : 1"
       id="perspective2889" />
    <filter
       id="filter3830"
       inkscape:label="Colorize"
       inkscape:menu="Color"
       inkscape:menu-tooltip="Blend image or object with a flood color and set lightness and contrast"
       x="0"
       y="0"
       width="1"
       height="1"
       color-interpolation-filters="sRGB">
      <feColorMatrix
         id="feColorMatrix3832"
         values="1"
         in="SourceGraphic"
         type="saturate"
         result="result2" />
      <feFlood
         id="feFlood3834"
         flood-color="rgb(254,102,0)"
         flood-opacity="1"
         result="result1" />
      <feBlend
         id="feBlend3836"
         in2="result2"
         mode="multiply"
         in="result1"
         result="result3" />
      <feComposite
         id="feComposite3838"
         in2="SourceGraphic"
         operator="in"
         k2="1"
         result="result4" />
    </filter>
    <marker
       style="overflow:visible"
       id="DotM-7"
       refX="0"
       refY="0"
       orient="auto"
       inkscape:stockid="DotM">
      <path
         inkscape:connector-curvature="0"
         transform="matrix(0.4,0,0,0.4,2.96,0.4)"
         style="fill-rule:evenodd;stroke:#000000;stroke-width:1pt;marker-start:none;marker-end:none"
         d="m -2.5,-1 c 0,2.76 -2.24,5 -5,5 -2.76,0 -5,-2.24 -5,-5 0,-2.76 2.24,-5 5,-5 2.76,0 5,2.24 5,5 z"
         id="path3704-3" />
    </marker>
    <marker
       style="overflow:visible"
       id="DotM-70"
       refX="0"
       refY="0"
       orient="auto"
       inkscape:stockid="DotM">
      <path
         inkscape:connector-curvature="0"
         transform="matrix(0.4,0,0,0.4,2.96,0.4)"
         style="fill-rule:evenodd;stroke:#000000;stroke-width:1pt;marker-start:none;marker-end:none"
         d="m -2.5,-1 c 0,2.76 -2.24,5 -5,5 -2.76,0 -5,-2.24 -5,-5 0,-2.76 2.24,-5 5,-5 2.76,0 5,2.24 5,5 z"
         id="path3704-8" />
    </marker>
    <marker
       style="overflow:visible"
       id="DotM-50"
       refX="0"
       refY="0"
       orient="auto"
       inkscape:stockid="DotM">
      <path
         inkscape:connector-curvature="0"
         transform="matrix(0.4,0,0,0.4,2.96,0.4)"
         style="fill-rule:evenodd;stroke:#000000;stroke-width:1pt;marker-start:none;marker-end:none"
         d="m -2.5,-1 c 0,2.76 -2.24,5 -5,5 -2.76,0 -5,-2.24 -5,-5 0,-2.76 2.24,-5 5,-5 2.76,0 5,2.24 5,5 z"
         id="path3704-33" />
    </marker>
    <marker
       style="overflow:visible"
       id="DotM-8"
       refX="0"
       refY="0"
       orient="auto"
       inkscape:stockid="DotM">
      <path
         inkscape:connector-curvature="0"
         transform="matrix(0.4,0,0,0.4,2.96,0.4)"
         style="fill-rule:evenodd;stroke:#000000;stroke-width:1pt;marker-start:none;marker-end:none"
         d="m -2.5,-1 c 0,2.76 -2.24,5 -5,5 -2.76,0 -5,-2.24 -5,-5 0,-2.76 2.24,-5 5,-5 2.76,0 5,2.24 5,5 z"
         id="path3704-1" />
    </marker>
    <marker
       style="overflow:visible"
       id="DotM-4"
       refX="0"
       refY="0"
       orient="auto"
       inkscape:stockid="DotM">
      <path
         inkscape:connector-curvature="0"
         transform="matrix(0.4,0,0,0.4,2.96,0.4)"
         style="fill-rule:evenodd;stroke:#000000;stroke-width:1pt;marker-start:none;marker-end:none"
         d="m -2.5,-1 c 0,2.76 -2.24,5 -5,5 -2.76,0 -5,-2.24 -5,-5 0,-2.76 2.24,-5 5,-5 2.76,0 5,2.24 5,5 z"
         id="path3704-81" />
    </marker>
    <marker
       style="overflow:visible"
       id="DotM-0"
       refX="0"
       refY="0"
       orient="auto"
       inkscape:stockid="DotM">
      <path
         inkscape:connector-curvature="0"
         transform="matrix(0.4,0,0,0.4,2.96,0.4)"
         style="fill-rule:evenodd;stroke:#000000;stroke-width:1pt;marker-start:none;marker-end:none"
         d="m -2.5,-1 c 0,2.76 -2.24,5 -5,5 -2.76,0 -5,-2.24 -5,-5 0,-2.76 2.24,-5 5,-5 2.76,0 5,2.24 5,5 z"
         id="path3704-85" />
    </marker>
    <marker
       style="overflow:visible"
       id="DotM-9"
       refX="0"
       refY="0"
       orient="auto"
       inkscape:stockid="DotM">
      <path
         inkscape:connector-curvature="0"
         transform="matrix(0.4,0,0,0.4,2.96,0.4)"
         style="fill-rule:evenodd;stroke:#000000;stroke-width:1pt;marker-start:none;marker-end:none"
         d="m -2.5,-1 c 0,2.76 -2.24,5 -5,5 -2.76,0 -5,-2.24 -5,-5 0,-2.76 2.24,-5 5,-5 2.76,0 5,2.24 5,5 z"
         id="path3704-6" />
    </marker>
    <marker
       style="overflow:visible"
       id="marker3094"
       refX="0"
       refY="0"
       orient="auto"
       inkscape:stockid="DotM">
      <path
         inkscape:connector-curvature="0"
         transform="matrix(0.4,0,0,0.4,2.96,0.4)"
         style="fill-rule:evenodd;stroke:#000000;stroke-width:1pt;marker-start:none;marker-end:none"
         d="m -2.5,-1 c 0,2.76 -2.24,5 -5,5 -2.76,0 -5,-2.24 -5,-5 0,-2.76 2.24,-5 5,-5 2.76,0 5,2.24 5,5 z"
         id="path3096" />
    </marker>
    <marker
       style="overflow:visible"
       id="marker3098"
       refX="0"
       refY="0"
       orient="auto"
       inkscape:stockid="DotM">
      <path
         inkscape:connector-curvature="0"
         transform="matrix(0.4,0,0,0.4,2.96,0.4)"
         style="fill-rule:evenodd;stroke:#000000;stroke-width:1pt;marker-start:none;marker-end:none"
         d="m -2.5,-1 c 0,2.76 -2.24,5 -5,5 -2.76,0 -5,-2.24 -5,-5 0,-2.76 2.24,-5 5,-5 2.76,0 5,2.24 5,5 z"
         id="path3100" />
    </marker>
    <marker
       style="overflow:visible"
       id="marker3102"
       refX="0"
       refY="0"
       orient="auto"
       inkscape:stockid="DotM">
      <path
         inkscape:connector-curvature="0"
         transform="matrix(0.4,0,0,0.4,2.96,0.4)"
         style="fill-rule:evenodd;stroke:#000000;stroke-width:1pt;marker-start:none;marker-end:none"
         d="m -2.5,-1 c 0,2.76 -2.24,5 -5,5 -2.76,0 -5,-2.24 -5,-5 0,-2.76 2.24,-5 5,-5 2.76,0 5,2.24 5,5 z"
         id="path3104" />
    </marker>
    <marker
       style="overflow:visible"
       id="marker3106"
       refX="0"
       refY="0"
       orient="auto"
       inkscape:stockid="DotM">
      <path
         inkscape:connector-curvature="0"
         transform="matrix(0.4,0,0,0.4,2.96,0.4)"
         style="fill-rule:evenodd;stroke:#000000;stroke-width:1pt;marker-start:none;marker-end:none"
         d="m -2.5,-1 c 0,2.76 -2.24,5 -5,5 -2.76,0 -5,-2.24 -5,-5 0,-2.76 2.24,-5 5,-5 2.76,0 5,2.24 5,5 z"
         id="path3108" />
    </marker>
    <marker
       style="overflow:visible"
       id="DotM-5-8"
       refX="0"
       refY="0"
       orient="auto"
       inkscape:stockid="DotM">
      <path
         inkscape:connector-curvature="0"
         transform="matrix(0.4,0,0,0.4,2.96,0.4)"
         style="fill-rule:evenodd;stroke:#000000;stroke-width:1pt;marker-start:none;marker-end:none"
         d="m -2.5,-1 c 0,2.76 -2.24,5 -5,5 -2.76,0 -5,-2.24 -5,-5 0,-2.76 2.24,-5 5,-5 2.76,0 5,2.24 5,5 z"
         id="path3704-9-8" />
    </marker>
    <marker
       style="overflow:visible"
       id="DotL-1"
       refX="0"
       refY="0"
       orient="auto"
       inkscape:stockid="DotL">
      <path
         inkscape:connector-curvature="0"
         transform="matrix(0.8,0,0,0.8,5.92,0.8)"
         style="fill-rule:evenodd;stroke:#000000;stroke-width:1pt;marker-start:none;marker-end:none"
         d="m -2.5,-1 c 0,2.76 -2.24,5 -5,5 -2.76,0 -5,-2.24 -5,-5 0,-2.76 2.24,-5 5,-5 2.76,0 5,2.24 5,5 z"
         id="path3701-7" />
    </marker>
    <marker
       style="overflow:visible"
       id="marker3114"
       refX="0"
       refY="0"
       orient="auto"
       inkscape:stockid="DotL">
      <path
         inkscape:connector-curvature="0"
         transform="matrix(0.8,0,0,0.8,5.92,0.8)"
         style="fill-rule:evenodd;stroke:#000000;stroke-width:1pt;marker-start:none;marker-end:none"
         d="m -2.5,-1 c 0,2.76 -2.24,5 -5,5 -2.76,0 -5,-2.24 -5,-5 0,-2.76 2.24,-5 5,-5 2.76,0 5,2.24 5,5 z"
         id="path3116" />
    </marker>
    <marker
       style="overflow:visible"
       id="marker3118"
       refX="0"
       refY="0"
       orient="auto"
       inkscape:stockid="DotL">
      <path
         inkscape:connector-curvature="0"
         transform="matrix(0.8,0,0,0.8,5.92,0.8)"
         style="fill-rule:evenodd;stroke:#000000;stroke-width:1pt;marker-start:none;marker-end:none"
         d="m -2.5,-1 c 0,2.76 -2.24,5 -5,5 -2.76,0 -5,-2.24 -5,-5 0,-2.76 2.24,-5 5,-5 2.76,0 5,2.24 5,5 z"
         id="path3120" />
    </marker>
    <marker
       style="overflow:visible"
       id="marker3122"
       refX="0"
       refY="0"
       orient="auto"
       inkscape:stockid="DotL">
      <path
         inkscape:connector-curvature="0"
         transform="matrix(0.8,0,0,0.8,5.92,0.8)"
         style="fill-rule:evenodd;stroke:#000000;stroke-width:1pt;marker-start:none;marker-end:none"
         d="m -2.5,-1 c 0,2.76 -2.24,5 -5,5 -2.76,0 -5,-2.24 -5,-5 0,-2.76 2.24,-5 5,-5 2.76,0 5,2.24 5,5 z"
         id="path3124" />
    </marker>
    <marker
       style="overflow:visible"
       id="marker3126"
       refX="0"
       refY="0"
       orient="auto"
       inkscape:stockid="DotL">
      <path
         inkscape:connector-curvature="0"
         transform="matrix(0.8,0,0,0.8,5.92,0.8)"
         style="fill-rule:evenodd;stroke:#000000;stroke-width:1pt;marker-start:none;marker-end:none"
         d="m -2.5,-1 c 0,2.76 -2.24,5 -5,5 -2.76,0 -5,-2.24 -5,-5 0,-2.76 2.24,-5 5,-5 2.76,0 5,2.24 5,5 z"
         id="path3128" />
    </marker>
    <marker
       style="overflow:visible"
       id="marker3130"
       refX="0"
       refY="0"
       orient="auto"
       inkscape:stockid="DotL">
      <path
         inkscape:connector-curvature="0"
         transform="matrix(0.8,0,0,0.8,5.92,0.8)"
         style="fill-rule:evenodd;stroke:#000000;stroke-width:1pt;marker-start:none;marker-end:none"
         d="m -2.5,-1 c 0,2.76 -2.24,5 -5,5 -2.76,0 -5,-2.24 -5,-5 0,-2.76 2.24,-5 5,-5 2.76,0 5,2.24 5,5 z"
         id="path3132" />
    </marker>
    <marker
       style="overflow:visible"
       id="marker3134"
       refX="0"
       refY="0"
       orient="auto"
       inkscape:stockid="DotL">
      <path
         inkscape:connector-curvature="0"
         transform="matrix(0.8,0,0,0.8,5.92,0.8)"
         style="fill-rule:evenodd;stroke:#000000;stroke-width:1pt;marker-start:none;marker-end:none"
         d="m -2.5,-1 c 0,2.76 -2.24,5 -5,5 -2.76,0 -5,-2.24 -5,-5 0,-2.76 2.24,-5 5,-5 2.76,0 5,2.24 5,5 z"
         id="path3136" />
    </marker>
    <marker
       style="overflow:visible"
       id="marker3138"
       refX="0"
       refY="0"
       orient="auto"
       inkscape:stockid="DotL">
      <path
         inkscape:connector-curvature="0"
         transform="matrix(0.8,0,0,0.8,5.92,0.8)"
         style="fill-rule:evenodd;stroke:#000000;stroke-width:1pt;marker-start:none;marker-end:none"
         d="m -2.5,-1 c 0,2.76 -2.24,5 -5,5 -2.76,0 -5,-2.24 -5,-5 0,-2.76 2.24,-5 5,-5 2.76,0 5,2.24 5,5 z"
         id="path3140" />
    </marker>
    <marker
       style="overflow:visible"
       id="marker3142"
       refX="0"
       refY="0"
       orient="auto"
       inkscape:stockid="DotL">
      <path
         inkscape:connector-curvature="0"
         transform="matrix(0.8,0,0,0.8,5.92,0.8)"
         style="fill-rule:evenodd;stroke:#000000;stroke-width:1pt;marker-start:none;marker-end:none"
         d="m -2.5,-1 c 0,2.76 -2.24,5 -5,5 -2.76,0 -5,-2.24 -5,-5 0,-2.76 2.24,-5 5,-5 2.76,0 5,2.24 5,5 z"
         id="path3144" />
    </marker>
  </defs>
  <title
     id="title4">Paths of the golfcar</title>
  <desc
     id="desc6">The paths consist of all the possible route that can be taken by the golfcart to serve 4 stations: DCC, MCD, EA and E3A</desc>
  <a
     id="a3088">
    <image
       y="0"
       x="0"
       id="image3014"
       height="9915"
       width="8138"
       xlink:href="file:///home/liuwlz/smartfm/smart-ros-pkg/experimental/amcl_pc/maps/utown_plaza.png"
       style="font-size:14px;fill:none;stroke:#1ee51e;stroke-opacity:1" />
  </a>
  <path
     style="fill:none;stroke:#0fff00;stroke-width:0.933056px;stroke-linecap:butt;stroke-linejoin:miter;stroke-opacity:1;marker-start:url(#DotM);marker-end:none"
     d="m 4736.688,8065.4826 1.6214,9.1915 1.7501,10.5467 1.5438,9.7256 1.6273,9.4534 2.4244,9.1437 1.477,9.2684 1.2017,8.8546 0.8385,9.0691 0.662,8.7927 1.4747,9.6743 1.3064,9.3643"
     id="DCC_START"
     inkscape:label="#DCC_START"
     inkscape:connector-curvature="0" />
  <path
     style="fill:none;stroke:#0000ff;stroke-width:0.93305600000000000px;stroke-linecap:butt;stroke-linejoin:miter;stroke-opacity:1;marker-start:url(#DotM);marker-end:none"
     d="m 4749.4114,8200.0347 -0.6858,10.5106 0.1901,8.9402 0.061,9.5667 0.4679,9.2106 0.1741,9.3553 0.6219,9.6399 1.003,10.6247 0.8967,8.8821 1.0788,9.5829 1.1342,9.9776 1.259,8.9096 1.134,9.6812 1.091,8.6261 1.1029,8.7403 1.4894,10.372 1.5501,9.5228 1.4041,9.8407 1.5314,9.2114 1.4966,10.1528 1.6436,10.1438 1.6135,10.4524 1.7294,10.0613 1.4417,8.4697 1.4853,9.155 1.5697,9.2638 1.4548,8.1625 1.6335,8.7883 1.6806,9.1259 1.5252,8.3234 1.8972,9.1921 1.9931,8.4235 2.1498,8.6492 2.1644,8.6842 2.2579,8.7702 2.482,8.6265 2.8926,9.5818 3.009,10.0479 3.1784,9.7467 2.7958,9.6551 2.7551,8.4944 2.6668,8.3986 3.1014,8.7351 3.3216,8.5736 3.4927,9.1546 3.9601,10.3476 3.5762,9.7561 3.6812,11.0893 3.2792,9.3109 2.8514,8.0239 3.1368,9.507 3.0268,8.5157 2.9296,8.2376 3.3542,8.8499 3.2589,8.0809 2.6575,8.833 3.1811,8.4375 3.0496,7.6368 3.9772,7.4224 3.0464,9.1381 2.5814,8.4981 2.7538,9.356 3.4642,8.824 2.865,8.2301 2.8301,8.6545 2.3235,8.3378 2.9183,10.1222 2.5168,9.2874 2.999,9.5817 3.1873,9.4496 3.133,9.8553 3.6812,8.9732 4.5277,8.583 6.0227,9.3554 7.467,8.9107 9.5515,8.3057 9.0175,5.8112 9.0146,4.5525 8.7672,3.1378 9.038,1.8973 9.969,0.8292"
     id="DCC_MCD"
     inkscape:label="#DCC_MCD" />
  <path
     style="fill:none;stroke:#ff00ff;stroke-width:0.933056px;stroke-linecap:butt;stroke-linejoin:miter;stroke-opacity:1;marker-start:url(#DotM);marker-end:none"
     d="m 5016.7512,8891.0213 9.5087,-7.6485 7.7767,-8.7742 5.6515,-8.9641 3.7587,-9.0703 2.402,-8.9693 1.3795,-10.1034 0.026,-9.6448 -0.9173,-10.3505 -1.0334,-8.3659 -1.9214,-10.4437 -1.4973,-8.0822 -2.1379,-8.5843 -3.0517,-10.2953 -2.2102,-8.0333 -2.837,-9.4524 -2.4889,-10.2253 -1.991,-8.2505 -3.5595,-9.0274 -3.2215,-9.0184 -2.831,-8.4394 -2.2551,-9.2659 -2.4627,-9.2672 -2.9728,-8.6806 -2.0594,-8.5203 -1.4089,-9.3531 -3.5199,-9.221 -2.9077,-8.7583 -2.6879,-9.1953 -1.5827,-9.2835 -2.9368,-8.4298 -3.4077,-9.1042 -2.8202,-10.1281 -1.6064,-9.824 -2.6576,-8.4066 -2.8715,-10.6372 -3.0644,-9.7844 -2.9632,-8.5056 -4.9504,-10.7042 -2.8308,-8.9558 -4.0091,-9.8968 -4.4348,-9.121 -4.5473,-9.4986 -4.7157,-10.1006 -4.5375,-9.1104 -5.1886,-9.812 -5.3681,-10.0567 -5.2976,-9.8946 -5.3293,-10.0768 -4.6245,-8.0456 -4.5531,-7.9402 -4.6758,-8.1905 -4.6963,-8.314 -4.4936,-7.9667 -4.5017,-7.95 -4.4227,-7.891 -5.3775,-9.9038 -4.0836,-7.8743 -5.115,-9.859 -4.563,-9.1145 -3.9027,-7.887 -3.7723,-7.6568 -3.6989,-7.7036 -4.1133,-8.6859 -4.2929,-9.2907 -4.2649,-9.2759 -3.9424,-8.8437 -3.8434,-8.7162 -4.1816,-9.9916 -3.8365,-9.6679 -3.6641,-9.4182 -3.684,-10.1842 -3.5173,-10.2315 -3.2102,-10.4589 -2.5463,-9.9454 -2.2054,-10.4163 -1.7718,-10.5768 -0.9484,-10.2125"
     id="MCD_DCC"
     inkscape:connector-curvature="0"
     inkscape:label="#MCD_DCC" />
  <path
     style="fill:none;stroke:#000000;stroke-width:0.933056px;stroke-linecap:butt;stroke-linejoin:miter;stroke-opacity:1;marker-start:url(#DotM);marker-end:none"
     d="m 4810.0417,8152.5572 1.136,-8.2712 1.992,-10.3611 3.0058,-10.5316 3.6621,-9.9765 4.1975,-9.0642 4.862,-9.6863 4.9595,-9.0284 4.9579,-9.0785 5.2252,-8.525 4.867,-9.4207 3.9759,-9.1014 3.2222,-8.3613 2.8239,-8.6116 2.133,-9.6502 1.2911,-9.2109 0.2295,-9.7389 -1.2663,-9.9254 -2.8264,-10.0847 -4.5178,-8.582 -6.1595,-9.2376 -7.8775,-8.6104 -8.8497,-6.9708 -9.5805,-4.9957 -9.2158,-3.4743 -9.9804,-1.9937 -10.4418,-0.6005 -10.4295,0.8019 -8.7551,2.0252 -8.9594,3.4152 -8.7183,5.2297 -9.5485,7.6246 -8.1254,9.2544 -5.8528,9.7594 -3.4997,8.2641 -1.9175,8.6869 -1.3648,8.2979 -0.354,8.1175 0.029,9.3173 1.2458,9.6803 1.8031,8.6512 1.7627,8.924 1.4329,9.0466"
     id="DCC_END"
     inkscape:label="#DCC_END"
     inkscape:connector-curvature="0" />
  <path
     style="fill:none;stroke:#0016ff;stroke-width:0.933056px;stroke-linecap:butt;stroke-linejoin:miter;stroke-opacity:1;marker-start:url(#DotM);marker-end:none"
     d="m 4734.897,8074.7987 3.3155,8.4071 4.5355,9.8084 6.2881,9.0171 9.1003,7.9713 8.0816,5.0018 7.7831,3.1557 8.731,1.2846 9.4594,-0.8124 8.8771,-3.0006 8.9009,-5.4575 8.1872,-8.133 5.3684,-9.0688 3.0938,-8.9858 1.4111,-8.7073 0.055,-8.7711 -0.9801,-9.8535 -1.6905,-8.9656 -3.4691,-9.138 -4.471,-10.1608 -4.9604,-9.2685 -4.7739,-7.9143 -5.1494,-8.5274 -6.0043,-8.9948 -5.7295,-8.401"
     id="DCC_START2"
     inkscape:label="#DCC_START2"
     inkscape:connector-curvature="0" />
  <path
     style="fill:none;stroke:#f10c19;stroke-width:0.933056px;stroke-linecap:butt;stroke-linejoin:miter;stroke-opacity:1;marker-start:url(#DotM);marker-end:none"
     d="m 4784.8658,7976.2897 -6.2978,-8.9525 -5.9669,-8.7121 -5.3361,-8.8836 -5.1076,-8.6551 -5.412,-8.8293 -4.766,-8.9162 -4.9753,-9.5774 -5.7189,-10.4625 -5.6699,-10.6378 -4.3739,-9.3319 -5.0455,-9.0259 -5.0131,-9.4261 -5.5846,-9.8777 -5.087,-8.9352 -5.1401,-8.768 -5.5602,-9.3902 -5.9686,-9.6704 -6.0535,-9.4233 -5.4717,-8.4036 -6.1207,-8.7645 -6.36,-9.2769 -6.7167,-9.1575 -6.4184,-8.1814 -7.3858,-9.2584 -7.1552,-8.5355 -7.6076,-8.7157 -7.3216,-8.2499 -7.5409,-8.3346 -7.777,-8.7223 -7.038,-7.8577 -7.8865,-9.0574 -7.4146,-8.5213 -7.543,-8.7837 -7.1064,-8.957 -6.7175,-8.5474 -6.959,-9.2963 -6.7729,-9.4641 -5.9419,-8.4862 -5.5145,-8.126 -5.8253,-8.638 -5.7936,-8.6595 -6.1711,-9.4701 -5.9411,-9.1347 -5.4694,-8.9038 -5.7584,-9.5083 -5.8701,-9.4568 -5.891,-9.5907 -6.0824,-9.6827 -5.6791,-8.884 -6.0662,-9.3669 -5.5952,-8.4418 -6.114,-9.4477 -6.4622,-9.7025 -5.8875,-8.7666 -6.5812,-9.5807 -6.1109,-8.8521 -5.9638,-8.6758 -6.1896,-8.6362 -6.7953,-9.1506 -6.1234,-8.0925 -6.8197,-9.1221 -6.6249,-8.2846 -7.5578,-8.7829 -7.314,-7.9315 -9.084,-8.7826 -8.7332,-7.4273 -8.4849,-6.4429 -10.0912,-6.6869 -9.3689,-5.2003 -10.0767,-5.0115 -9.0083,-4.0635 -8.2155,-3.2184 -8.5391,-3.3411 -9.3425,-3.4495 -8.5636,-3.0632 -9.4655,-3.2605 -9.0849,-2.9418 -9.1048,-2.7786 -10.0006,-3.4327 -9.7262,-3.1609 -10.0078,-3.3998 -9.4851,-3.1791 -9.3293,-3.178 -9.9257,-3.5057 -9.1772,-3.4567 -9.4635,-3.4576 -9.5368,-3.79 -9.0588,-3.7405 -9.4197,-3.4629 -9.2219,-4.0108 -8.9965,-3.6854 -9.3923,-4.412 -9.0249,-4.3485 -9.1329,-4.8896 -9.2927,-5.2304 -8.9545,-4.4957 -9.351,-5.2969 -9.1192,-6.2751 -9.2015,-6.1006 -9.414,-5.9435 -9.2086,-5.7358 -9.8578,-5.8989 -9.8646,-6.1323 -9.2788,-5.7933 -9.5523,-6.051 -9.0638,-5.613 -9.6291,-6.1157 -9.4749,-5.829 -9.5611,-6.0494 -9.4962,-6.1514 -9.2377,-6.3474 -8.8361,-5.9985 -8.5801,-5.8641 -9.2742,-6.1918 -8.7774,-6.2439 -8.5847,-6.0785 -8.7769,-6.1101 -8.242,-5.8867 -8.6163,-6.189 -8.4374,-6.0288 -8.3483,-6.0385 -9.0006,-6.3811 -8.7839,-6.2799 -9.2886,-6.7786 -8.62,-6.2461 -8.527,-5.8827 -8.4033,-6.1315 -9.3965,-6.8293 -8.5621,-6.1667 -9.4095,-6.9331 -9.6196,-7.1521 -8.9782,-6.3688 -8.9519,-6.3277 -9.2014,-6.4452 -9.1576,-6.567 -9.0839,-6.5026 -8.5847,-6.4089 -9.2823,-6.9777 -9.2279,-6.7723 -9.302,-6.7659 -10.0547,-7.2244 -10.0367,-7.4689 -8.7112,-6.2874 -9.8114,-7.0646 -9.7522,-6.9972 -8.7483,-6.7814 -9.0182,-7.0729 -9.532,-7.6544 -9.0546,-7.0056 -9.2154,-7.4278 -8.8318,-7.3948 -9.2383,-7.8745 -9.6549,-7.8756 -10.3374,-8.416 -10.2326,-8.7958 -9.1964,-8.0319 -8.7079,-7.2232 -9.4243,-7.717 -8.705,-7.4331 -8.7091,-7.1161 -9.3747,-7.6008 -9.54,-8.4749 -9.1412,-7.5847 -8.5186,-7.397 -9.9331,-8.8574 -10.3942,-8.6877 -9.7808,-8.2132 -10.262,-8.5019 -8.659,-7.2853 -8.2624,-6.905 -9.1501,-7.6579 -9.8281,-7.8999 -10.8361,-8.7284 -9.9095,-8.3093 -9.4853,-7.4266 -9.2667,-7.414 -8.6087,-6.7549 -9.2633,-7.589 -9.2269,-7.2752 -10.1098,-7.8869 -9.5664,-7.2212 -10.2878,-7.803 -9.7524,-7.407 -9.93,-7.0737 -8.8951,-5.867 -10.2783,-6.5513 -8.6618,-5.304 -9.127,-5.2491 -9.9075,-5.3747 -9.2748,-4.5063 -9.4155,-3.7582 -9.935,-3.5104 -9.7593,-2.781 -9.5934,-2.3899 -8.2294,-1.7095 -8.643,-1.5745 -9.5613,-1.1825 -9.1726,-1.112 -9.8154,-0.6595 -9.9951,-0.4283 -9.1432,-0.092 -9.2749,0.126 -9.1129,0.1126 -8.6839,0.1505 -8.8929,0.4615 -9.1812,0.1469 -8.6564,0.4352 -8.9052,0.3255 -9.1052,0.461 -8.6118,0.2971 -9.0423,0.4312 -9.0073,0.2349 -8.4742,0.2838 -8.859,0.3014 -9.5511,0.4115 -8.7035,0.2439 -8.7255,-0.1085 -9.0698,0.021 -8.976,0.1772 -9.562,0.011 -9.6116,-0.081 -8.9361,-0.3609 -8.8374,-0.3964 -9.0317,-0.4485 -8.357,-0.5664 -8.7046,-0.7344 -8.9552,-0.7828 -8.6148,-0.8082 -8.7202,-1.0307 -8.6466,-1.2963 -10.6085,-1.6128 -10.1223,-1.8772 -10.3801,-2.2401 -9.945,-2.0943 -10.5773,-2.6911 -10.3954,-2.7511 -8.3644,-2.4539 -8.6838,-2.6246 -9.625,-2.9979 -8.4391,-2.8827 -9.3597,-3.1972 -10.5038,-3.8552 -8.1802,-3.08 -9.9687,-3.894 -9.1324,-3.7593 -9.3966,-3.9133 -10.3572,-4.3524 -8.4273,-3.676 -9.9212,-4.654 -9.9589,-4.6728 -9.422,-4.4887 -9.279,-4.4 -9.7228,-4.8653 -9.1168,-4.5984 -9.1872,-5.0844 -9.5084,-5.0588 -9.0331,-4.9359 -9.5274,-5.55 -8.6794,-5.1748 -9.0503,-5.4342 -9.1221,-5.4568 -8.8487,-5.2961 -9.9001,-5.9897 -9.8417,-6.2703 -10.1732,-6.5832 -9.5116,-6.1864 -9.4224,-6.6017 -9.2726,-6.5828 -9.0639,-6.3618 -9.3134,-6.8998 -8.6055,-6.3841 -8.6216,-6.8305 -8.4647,-6.7582 -9.2865,-7.8594 -9.0188,-7.8655"
     id="DCC_EA"
     inkscape:label="#DCC_EA"
     inkscape:connector-curvature="0" />
  <path
     style="fill:none;stroke:#3927f1;stroke-width:0.933056px;stroke-linecap:butt;stroke-linejoin:miter;stroke-opacity:1;marker-start:url(#DotM);marker-end:none"
     d="m 2375.3476,6333.3293 -7.2205,-8.2425 -6.5175,-7.7368 -6.7615,-8.2797 -6.5296,-8.362 -6.0996,-7.9624 -6.325,-8.882 -5.748,-8.1034 -5.9888,-8.9236 -5.8014,-9.0089 -5.6045,-8.3438 -5.7725,-8.8577 -5.4996,-8.2577 -5.9461,-8.7165 -6.1161,-8.9373 -5.8409,-8.4964 -6.0862,-9.0217 -6.4358,-8.8048 -6.6311,-8.9134 -6.6615,-8.745 -6.7905,-8.7248 -6.9105,-9.2275 -6.7189,-8.2511 -6.9227,-8.5376 -6.6712,-8.2703 -6.6579,-8.2576 -7.2861,-8.9159 -7.3463,-8.255 -7.9016,-8.9284 -7.734,-8.2544 -8.3341,-8.7261 -8.1139,-8.6584 -7.9093,-8.0653 -8.0935,-8.1669 -9.2674,-9.028 -9.5437,-9.0648 -9.1243,-8.2653 -9.5067,-8.675 -9.0765,-8.1274 -9.6056,-8.5628 -9.3836,-8.0959 -9.9689,-8.3265 -9.4243,-7.7771 -9.0351,-7.3463 -10.1574,-7.6871 -8.4357,-6.5549 -8.6896,-6.4305 -8.1083,-6.091 -9.0989,-6.732 -8.4923,-6.2862 -9.1309,-6.7046 -9.0795,-6.8213 -9.1403,-6.8514 -9.2882,-6.9939 -8.885,-7.0787 -9.0808,-7.3161 -8.5902,-7.1983 -9.0911,-7.6932 -8.3995,-7.2856 -8.7183,-7.5211 -9.2544,-8.4168 -9.5614,-8.6833 -9.3762,-8.8798 -9.1699,-8.6472 -8.6349,-7.9981 -9.1816,-8.8081 -8.6302,-8.2877 -9.9283,-9.3006 -8.2442,-8.026 -9.6568,-9.1741 -8.5119,-7.8597 -8.6866,-8.0658 -9.1956,-8.3009 -9.0896,-8.5679 -9.2688,-8.206 -9.2452,-8.6271 -8.9592,-8.1546 -8.8281,-8.2454 -9.2321,-8.6947 -9.5118,-8.7838 -9.2193,-8.4613 -8.4576,-7.7618 -10.3007,-9.141 -8.5084,-7.733 -10.3263,-9.4148 -9.9238,-8.8425 -8.4558,-7.2565 -9.0451,-7.7109 -8.4996,-7.6235 -8.5509,-7.8592 -8.7568,-8.0326 -8.8346,-8.0863 -8.9935,-8.3336 -8.2729,-7.9694 -8.2773,-8.3381 -7.7233,-7.4696 -8.2745,-8.3702 -8.011,-8.2204 -8.0211,-8.7741 -8.2023,-8.5721 -8.1272,-9.0082 -7.918,-8.9624 -7.6688,-8.4121 -7.6037,-9.0496 -7.1305,-8.4783 -7.4233,-8.9615 -6.8229,-8.6112 -7.0074,-8.8778 -6.9357,-9.2642 -6.5518,-9.0059 -6.8844,-9.3964 -6.191,-8.6961 -6.5242,-9.1785 -5.9827,-8.7094 -5.7303,-8.9671 -5.4105,-8.5693 -5.7393,-8.9218 -5.6732,-8.7976 -5.394,-8.2253 -5.6484,-8.7613 -6.0193,-8.8727 -6.3732,-8.8484 -6.3685,-7.9724 -7.3257,-8.4918 -7.7426,-8.1062 -9.2565,-8.5817 -9.0193,-7.6941 -9.4632,-7.2651 -9.4166,-6.8802 -9.7326,-7.6531 -9.0883,-7.1761 -9.5048,-8.1491 -9.5945,-8.6416 -8.9266,-8.4574 -8.5386,-8.4956 -8.6176,-8.8148 -8.1635,-8.9717 -8.3801,-9.4802 -6.3052,-7.5822 -6.0953,-7.8232 -6.7253,-8.8335 -6.0063,-8.412 -6.1894,-8.9379 -6.0446,-8.7209 -5.8073,-8.6702 -5.987,-9.2371 -5.4506,-8.3066 -4.9578,-8.0861 -5.3732,-8.7578 -5.1789,-8.6992 -5.0059,-8.911 -5.0544,-9.1522 L 1192,5069 l 0,0"
     id="EA_START2"
     inkscape:label="#EA_START2"
     inkscape:connector-curvature="0" />
  <path
     style="fill:none;stroke:#f10c19;stroke-width:0.933056px;stroke-linecap:butt;stroke-linejoin:miter;stroke-opacity:1;marker-start:url(#DotM);marker-end:none"
     d="m 2425.3175,6384.3002 -9.775,-9.1958 -8.5241,-8.2168 -8.4282,-8.6239 -8.0211,-8.4135 -7.3859,-7.7835"
     id="EA_END3"
     inkscape:connector-curvature="0"
     inkscape:label="#EA_END3" />
  <path
     style="fill:none;stroke:#f127d6;stroke-width:0.933056px;stroke-linecap:butt;stroke-linejoin:miter;stroke-opacity:1;marker-start:url(#DotM);marker-end:none"
     d="m 1183.2534,5050.4402 -4.857,-10.3064 -4.5007,-9.5502 -5.0837,-10.7874 -4.3447,-9.2192 -4.7221,-10.0201 -5.1164,-10.8567 -4.3605,-9.2528 -4.8085,-10.2035 -5.2566,-11.1543 -4.5387,-9.6308 -4.3932,-9.3221 -5.5803,-11.8411 -6.3087,-13.3869 L 1115,4905 l -5,-10 0,-10.8692 0,-9.2764 0,-9.752 0,-10.7035 0,-9.5142 0,-9.752 0,-9.2764 0,-10.2277 0,-11.1792 0,-9.2764 0,-10.4656 0,-8.8006 0,-11.0603 0,-9.8795 0,-10.9323 0,-8.5776 0,-10.4277 0,-11.1005 0,-9.0822 0,-10.2595 0,-9.5872 0,0 1.5328,-11 1.4949,-9.9545 1.1545,-8.8446 1.3893,-8.9401 1.1527,-8.8785 1.4699,-9.0366 1.2969,-9.0121 1.2751,-9.2695 1.1619,-9.156 1.3177,-8.86 1.436,-8.5558 1.2652,-9.2008 1.3895,-8.8598 0.9787,-9.5086 1.1542,-10.1873 1.4302,-9.2273 1.1045,-9.2026 1.1953,-9.5581 0.7945,-9.6157 1.0949,-9.8869 1.3027,-10.1099 0.8007,-9.717 0.9195,-10.6787 0.8382,-9.891 0.7019,-10.168 0.9745,-10.3956 0.7585,-9.4745 0.9386,-9.7663 0.8027,-9.6501 0.943,-9.1506 0.9694,-9.7632 0.901,-9.1682 0.854,-8.7687 1.31,-9.6145 1.3105,-9.357 1.4755,-9.632 1.627,-9.6024 1.7705,-10.2213 2.3064,-11.1507 2.7827,-10.1827 2.9796,-9.5944 3.3498,-9.3734 3.6901,-8.9014 5.5693,-9.8473 7.1317,-10.75 7.4082,-8.8751 7.8107,-7.5209 7.8962,-6.7085 9.6197,-6.3673 9.7285,-5.0338 9.4489,-3.5063 8.3319,-2.3409 9.2675,-1.5723 8.1384,-0.9248 8.3925,-0.2833 10.2738,0.2649 10.6473,0.7371 10.3525,1.4723 9.695,1.3371 10.0489,1.6048 9.4088,1.5561 9.303,1.6991 9.7015,1.532 9.1244,1.5718 9.9275,1.653 9.7701,1.398 9.2759,1.4411 9.9129,1.2683 9.7797,1.4315 9.8048,1.3012 10.4279,1.3921 9.9276,0.9743 9.2518,0.9563 9.001,0.6307 10.7595,0.642 8.9155,0.5489 8.365,0.6424 8.8937,0.5247 10.1815,0.5895 8.6737,0.3596 8.7902,0.2992 9.2716,0.2903 8.8695,0.2159 9.3718,0.4981 9.2322,0.424 9.2204,0.3092 9.4507,0.4752 9.41,0.3989 9.3586,0.2952 8.7203,0.2717 9.0961,0.3228 8.3887,0.2352 8.7877,0.392 9.3592,0.2206 10.3164,0.2029 9.5038,0.1914 10.2028,0 9.6192,0.1615 9.6071,0.087 10.5306,-0.2139 8.3406,-0.1027 9.4483,-0.2851 10.6241,-0.3872 8.2992,-0.4196 10.4437,-0.5809 10.4354,-0.8633 9.0535,-1.1625 9.5203,-1.3468 9.5836,-1.3078 9.2215,-1.5167 8.7964,-1.6393 8.7001,-1.7782 8.7275,-1.7377 9.1776,-2.1983 8.8281,-2.0666 8.4477,-2.2338 8.3722,-2.2988 8.8323,-2.3875 8.9631,-2.7875 8.4639,-3.3376 8.1406,-3.383 7.9025,-3.9083 8.4213,-4.8003 7.2441,-5.3516 7.7349,-6.225 7.6604,-7.6626 6.9504,-8.2761 6.8464,-9.6892 5.6965,-10.3183 4.6202,-9.5298 3.9405,-10.2814 3.3519,-10.0567 2.8645,-9.6558 3.3263,-9.7837 3.5741,-10.1719 4.0285,-9.8934 3.8461,-9.9281 3.4853,-9.6052 3.5213,-9.9888 3.7417,-10.8 3.9478,-10.1857 4.1845,-10.5853 3.8386,-10.3244 3.4898,-9.7751 3.8568,-9.6607 4.1727,-10.6367 4.1656,-9.3925 3.9802,-10.0242 3.9966,-9.7206 3.8162,-9.146 4.1682,-9.7209 4.3642,-10.2523 4.7895,-10.4731 5.2917,-11.2765 5.0321,-11.042 4.4419,-9.5461 4.9239,-9.6951 5.076,-10.2347 5.4197,-11.1199 5.6383,-10.4505 5.1921,-10.3505 5.6925,-10.4823 5.6101,-10.4641 5.9084,-10.3715 5.7157,-9.8712 6.3788,-11.5007 5.6433,-9.6853 6.4016,-11.3255 5.3556,-9.6633 5.607,-9.8495 6.1755,-10.9468 6.1305,-10.6806 5.6293,-9.9707 5.9558,-10.2903 5.7967,-10.1571 6.2947,-10.548 5.508,-9.6234 5.9126,-10.1261 6.7737,-11.5367 6.3298,-10.2819 5.7551,-9.5226 6.2246,-10.119 6.1748,-9.9996 6.1047,-10.31 6.3014,-10.4416 6.5046,-10.4211 6.8805,-10.5223 6.6477,-10.3757 7.069,-10.9913 7.2232,-10.7674 6.6519,-10.3576 6.2093,-9.3333 6.7963,-10.1965 6.3385,-9.5128 6.4463,-10.0556 6.4472,-9.5991 7.592,-10.1862 7.5916,-10.0776 7.9107,-9.1589 7.7213,-8.2103 7.1116,-6.8076 7.2567,-5.8491 7.3216,-5.4144 7.6496,-4.8686 8.989,-4.5491 9.0881,-3.0899 9.1466,-2.3275 8.4154,-0.9767 8.3795,-0.9965 9.0358,-0.039 9.202,0.8603 8.2242,0.8088 9.1307,2.3628 9.794,2.4379 10.4145,4.334 10.9088,5.1586 10.0399,5.9971 10.029,6.9487 10.2725,7.2894 10.002,7.9734 8.1087,7.3884 7.4367,7.7074 7.3081,8.2721 6.3022,7.7438 5.457,7.8494 4.9925,7.6675 4.9152,8.5164 4.1623,9.2441 3.3307,7.8763 2.7434,8.0909 2.9008,9.1469 3.0794,10.0021 2.7283,9.171 3.0282,8.8318 3.063,8.9694 3.2453,9.1257 3.0909,9.2203 2.6248,9.1667 2.3308,10.0976 1.2767,8.2427 0.8407,9.8789 -0.072,10.5551 -1.2058,10.1201 -1.9798,9.8436 -3.1788,10.2883"
     id="EA_E3A"
     inkscape:label="#EA_E3A"
     inkscape:connector-curvature="0" />
  <path
     style="fill:none;stroke:#a40cf1;stroke-width:0.933056px;stroke-linecap:butt;stroke-linejoin:miter;stroke-opacity:1;marker-start:url(#DotM);marker-end:none"
     d="m 2579.7897,3673.8784 -5.1193,9.7323 -5.7448,9.2916 -6.37,8.9049 -7.5784,9.0512 -7.8577,7.3554 -7.4182,6.0435 -8.3551,5.3181 -8.6064,4.5325 -9.4462,4.088 -9.4281,2.6639 -8.7888,2.1885 -9.8268,1.1016 -9.3192,0.6695 -9.2587,0.1461 -8.5355,-0.7037 -8.9804,-1.1376 -8.7178,-1.0925 -9.3259,-1.5534 -9.6141,-1.4142 -8.3813,-1.2919 -9.1386,-1.7262 -10.5261,-1.8061 -10.2466,-1.5268 -9.4874,-1.376 -8.9787,-1.1103 -8.8421,-1.1162 -8.8838,-0.4175 -9.2259,-0.4431 -9.1387,0 -9.4232,0.4463 -9.799,0.3107 -9.6513,0.4863 -9.3613,0.6976 -9.407,0.9373 -9.8413,1.1397 -9.4574,1.365 -8.8822,1.5511 -8.2075,1.2356 -9.1721,1.9146 -9.9014,2.089 -9.0679,2.6011 -9.0799,2.503 -8.6234,2.689 -9.4734,3.3908 -7.7757,3.843 -8.7723,3.967 -9.0252,5.4851 -7.962,5.0368 -8.4586,6.3937 -7.9075,6.6413 -7.3986,7.2343 -7.3454,8.8625 -6.6466,9.5729 -5.7158,10.1079 -5.4528,10.972 -4.6454,11.2399 -4.7251,11.3759 -4.0462,10.3051 -4.077,10.7106 -4.3212,10.7588 -3.9435,10.6275 -3.9496,10.1415 -5.221,11.7111 -5.4958,11.7294 -5.0277,10.324 -5.4533,11.1038 -5.5383,10.1643 -5.6686,9.8585 -6.0768,10.5323 -6.0445,10.5103 -5.6991,10.6171 -5.4805,9.8601 -5.6874,10.0839 -5.7614,10.6286 -5.9667,11.6569 -5.8485,11.4621 -5.1693,10.037 -5.9954,11.8826 -5.0213,10.0042 -5.6748,11.5026 -5.3799,11.3377 -5.2106,10.6388 -5.7638,11.0834 -5.4249,10.4426 -6.2609,11.7144 -5.8483,10.122 -6.8438,9.0922 -7.4981,7.7208 -7.6758,6.6099 -8.4598,4.9506 -8.1742,4.4554 -8.8908,3.5852 -8.3731,2.8587 -10.102,2.9187 -8.6376,2.0124 -8.9201,1.7796 -8.7351,1.7679 -9.0635,1.8095 -9.6626,1.8372 -9.8598,1.7134 -9.9238,1.7869 -9.9413,1.5818 -9.6894,1.5952 -8.8763,1.6021 -9.3088,1.6918 -9.5325,1.623 -10.6048,1.8247 -9.8692,1.5344 -9.3264,1.3312 -8.4389,1.0209 -8.6364,1.0798 -8.7732,0.9658 -9.3936,0.6512 -9.3828,0.7537 -9.7519,0.5618 -9.7442,0.5843 -9.3531,0.3316 -9.7652,0.3193 -9.8376,0.1916 -8.8957,0.187 -9.964,0.1401 -9.3833,-0.1132 -9.0801,-0.07 -9.3733,-0.1558 -8.7614,-0.2214 -9.4155,-0.4674 -10.0625,-0.4814 -9.6274,-0.5814 -9.4918,-0.6739 -9.0317,-0.5428 -9.8889,-1.0649 -8.8866,-0.9244 -10.6001,-0.9434 -9.7551,-0.9816 -8.4852,-1.0133 -9.9306,-1.1411 -9.1979,-1.0735 -9.2956,-0.8716 -8.706,-0.9514 -9.864,-0.9604 -8.5724,-0.8996 -9.053,-0.9609 -10.439,-0.9382 -9.5048,-0.968 -9.6565,-0.8776 -9.6929,-0.988 -9.1121,-0.7765 -9.9008,-0.9295 -9.389,-0.8784 -9.0194,-0.8093 -9.8226,-0.8842 -9.7787,-0.707 -9.4799,-0.3102 -10.184,-0.4065 -9.5409,-0.1106 -10.1218,0.049 -9.6928,0.3949 -8.6014,0.991 -8.7631,1.2357 -8.9968,2.0518 -9.3823,2.5792 -8.6218,3.1512 -8.165,3.709 -7.5948,4.0123 -7.8097,5.1108 -6.6578,5.6438 -7.6352,7.6451 -6.3393,8.348 -5.8979,9.5472 -5.6996,11.1427 -3.9559,11.4377 -3.1686,9.6706 -2.6784,9.8962 -2.5325,10.1079 -2.1872,10.6567 -1.687,10.4393 -1.702,11.0907 -1.361,10.9772 -1.5822,10.6784 -1.6496,11.0396 -1.9382,10.1269 -1.6887,10.6547 -1.5793,10.3857 -1.2347,10.4602 -1.0938,11.2413 -0.6845,10.9803 -0.6681,8.8914 -0.7201,9.9381 -0.924,10.9896 -0.7977,8.7404 -0.9087,11.1744 -0.7001,10.4335 -0.9608,10.2442 -0.7881,11.6185 -0.6743,9.5693 -0.6367,11.9874 -0.4904,10.6337 -0.7711,10.4509 -0.8981,11.5299 -1.0074,10.6088 -0.9743,10.7239 -1.3904,11.1013 -1.205,11.2869 -1.2201,10.9977 -1.371,10.423 -1.4254,10.8787 -1.3659,10.2224 -1.3145,10.1132 -1.4048,11.2553 -0.9024,9.0025 -1.3617,11.1647 -0.9373,8.9188 -0.9441,11.0753 -0.9313,10.3614 -0.6585,9.9631 -0.8179,10.5694 -0.632,11.5825 -0.5469,9.3015 -0.4813,10.5354 -0.2754,9.8622 -0.366,9.1963 -0.3645,10.5952 -0.4599,10.4641 -0.2658,9.1614 -0.1243,9.0795 -0.2924,9.4742 -0.024,8.8531 0.1214,8.8584 0.3382,9.572 0.6084,8.8267 1.0574,10.1693 1.2731,9.3115 1.5059,8.8988 1.9372,9.6097 2.0845,9.5401 2.3664,9.4644 3.0144,9.9169 2.9575,9.9158 3.1155,9.4578 3.7249,9.6463 3.8544,8.5364 3.853,8.4012 4.4901,8.4877 4.2623,8.1017 4.8748,8.3842 4.9544,8.2626 5.2272,7.9591 5.2162,8.2909 5.5729,7.6888 5.238,7.2419 5.1525,7.5295 5.0863,7.3781 5.0548,6.9194 5.8137,7.6475 5.6678,7.5927 5.965,7.2354 6.4241,7.609 5.9143,7.1729 6.085,7.298 6.2825,7.3752 6.6702,7.8882 5.9593,7.1376 7.0269,8.0464 6.822,7.7264 6.2485,7.1648 6.321,6.8076 7.3651,7.7771 7.0098,7.2255 6.3796,6.4647 6.54,6.495 6.9161,6.9652 7.3231,7.839 6.5878,6.835 7.6245,7.6456 7.6957,7.6862 6.8397,6.9138 7.2586,7.8024 6.345,6.7552 6.1669,6.992 7.7344,8.8139 6.4484,7.2838 6.2804,7.3189 6.4044,7.2643 6.5927,7.8772 6.2007,7.3758 6.1779,7.3759 6.178,7.5126 6.3407,7.88 5.7363,7.2205 6.4591,7.7486 7.0098,8.5776 5.5009,6.8771 6.6341,8.5088 6.2146,7.8797 5.4883,7.2017 5.5797,7.1994 5.7265,7.5187 5.6692,7.2814 6.7852,9.0476 6.7822,8.8017 5.9163,7.9928 6.0133,8.2142 5.7451,7.967 6.4883,8.8274 5.362,7.5819 5.3993,7.7585 5.2882,7.4159 5.5244,8.0301 5.2348,7.4728 5.387,7.5004 5.4549,8.2618 4.7523,7.3295 4.7734,7.1935 5.2741,7.934 5.0441,7.898 5.1124,7.5878 5.1506,7.574 5.6017,8.1106 5.2402,7.4486 4.9952,7.1067 5.3461,7.4969 5.827,8.3591 5.4121,7.3414 5.826,8.0477 5.255,7.0742 5.4314,7.3668 6.0493,8.3088 5.8602,7.416 5.674,7.4647 6.1767,7.8911 6.6681,8.5646 6.4648,8.2374 6.1851,7.5902 6.196,7.7259 6.3299,7.7713 6.0368,7.3386 5.4535,6.8613 6.2936,7.8653 5.9613,7.3124 6.2903,7.8491 6.4365,8.0717 6.3552,7.8323 6.5928,8.1618 6.4852,8.2613 6.6912,8.2869 6.0687,7.6387 6.5882,8.2036 6.6443,8.3971 6.5406,8.0889 5.9623,7.0565 6.1027,7.128 6.4871,7.5745 6.6693,7.2884 6.4226,6.7537 7.0053,7.0124 6.7783,6.6457 6.5382,6.1167 7.2783,6.5735 8.037,7.1077 8.3263,7.2562 8.0686,6.9404 7.4439,6.3921 7.2902,6.2535 7.1415,6.3407 7.3108,6.4624 6.9699,6.118 7.5315,6.5799 7.1789,6.3059 7.1662,6.2187 7.8426,6.9131 7.4191,6.6221 7.34,6.5871 7.7016,7.028 7.3901,6.5114 7.3911,6.4116 7.2826,6.552 7.6444,6.9452 8.347,7.2191 7.7288,6.8167 8.411,7.2342 8.9346,7.1393 8.2396,6.508 8.2682,6.109 9.2337,6.2003 9.0685,5.5979 9.1673,5.6326 9.8345,6.4529 8.7258,6.8787 7.0575,6.1868 6.9373,6.8796 6.1104,6.6162 6.0279,6.5297 6.972,7.3476 6.4644,6.8623 6.7453,7.1562 6.6781,7.1827 6.689,7.077 6.5468,6.9421 6.7916,7.1362 7.0496,7.6923 6.2267,6.8446 6.5371,6.5851 6.3872,6.3522 7.1214,6.891 6.3914,6.6031 6.5037,6.1845 7.3678,6.7546 7.0985,6.5967 7.1719,6.5969 7.3058,6.6747 7.1753,6.3513 7.4007,6.3392 7.3604,6.1224 7.3301,5.6402 8.4293,6.4651 8.0449,6.0381 8.3322,6.2111"
     id="E3A_EA"
     inkscape:label="#E3A_EA"
     inkscape:connector-curvature="0" />
  <path
     style="fill:none;stroke:#a40cf1;stroke-width:0.933056px;stroke-linecap:butt;stroke-linejoin:miter;stroke-opacity:1;marker-start:url(#DotM);marker-end:none"
     d="m 2300.7671,6291.9262 8.194,5.7597 8.5536,6.1329 8.338,5.9784 8.0978,5.8734 8.5433,6.4016 7.9179,6.0223 8.169,6.1662"
     id="EA_END"
     inkscape:label="#EA_END" />
  <path
     style="fill:none;stroke:#0ce1f1;stroke-width:0.933056px;stroke-linecap:butt;stroke-linejoin:miter;stroke-opacity:1;marker-start:url(#DotM);marker-end:none"
     d="m 2366.9864,6340.3576 8.2201,6.0431 8.8261,6.6551 8.313,6.3132 8.6127,6.6254 8.6623,6.5051 8.3229,6.4081 8.5898,6.5169 8.0989,6.0956 8.3289,6.3123 8.779,6.4966 8.3825,6.4049 9.0137,6.591 8.5223,6.3092 8.635,6.4509 8.6885,6.614 8.143,5.9878 8.7982,6.7653 8.2205,6.2034 8.4848,6.3503 8.4832,6.1776 8.4194,6.0691 9.1969,6.4422 8.8409,6.0904 9.386,6.6025 9.3128,6.3003 8.9596,5.728 9.4832,5.7245 8.7846,5.1954 9.6019,6.0066 10.0197,5.9819 10.797,6.3745 11.097,6.1987 11.3038,5.9668 11.4621,5.9219 10.7392,5.2342 11.2674,5.342 10.6451,4.8177 11.4971,5.122 10.9524,4.6125 11.9858,4.8897 11.4073,4.37 12.5961,4.4259 11.8834,4.1079 11.8744,3.8644 11.7179,3.4368 12.5836,3.4243 11.7954,2.7934 12.3466,2.6826 10.8985,2.075 12.5518,2.0316 10.0771,1.5135 12.7248,1.4921 9.957,0.9414 9.8026,0.6588 9.8718,0.4463 10.49,0.3556 9.8303,-0.026 10.1689,-0.041 10.4768,-0.1663 9.8414,-0.4974 10.3827,-0.5689 9.8413,-0.6683 9.7057,-0.7069 10.3276,-0.5489 9.5694,-0.8452 9.8795,-0.8328 10.1321,-0.6848 9.5655,-0.7926 9.9982,-0.9084 9.553,-1.0342 8.7689,-0.7632 8.8335,-0.8956 10.4391,-0.6476 9.8516,-0.1902 9.2844,-0.3018 10.4679,-0.3934 9.6386,-0.162 10.2592,0.1967 11.4231,0.9631 10.2248,1.3543 11.024,1.8787 10.4715,2.5879 11.4302,3.3304 11.5988,4.1976 10.093,4.4111 10.3892,5.3741 9.9104,5.4526 9.357,5.8659 10.417,6.3857 9.7239,6.2391 9.6809,6.8432 9.1299,7.204 8.9406,7.1642 8.6704,7.1626 8.2689,7.8456 7.5437,6.7705 7.8426,6.9383 7.7139,7.0482 7.6684,6.9703 6.9364,6.3447 7.7352,6.6504 7.4371,6.6611 7.23,6.6596 7.8337,6.882 7.4179,6.3482 7.7671,6.5808 7.9031,6.2191 7.301,5.9527 7.6059,6.5793 7.5153,6.3093 7.7084,5.8481 8.2485,6.6114 7.5351,6.2133 8.1152,6.1849 7.7489,6.0672 7.503,5.5259 8.6724,6.3641 7.8395,5.4618 8.0827,6.1128 8.0081,5.7688 7.4987,5.3069 7.7769,5.5849 7.2722,5.6453 8.7017,6.0623 7.6468,5.5148 7.6398,5.4293 7.6204,5.469 8.5106,5.7301 9.7868,6.8294 7.8362,5.3073 9.3048,6.5792 9.5043,6.5293 9.2696,6.2981 8.244,5.3599 8.0575,5.4543 9.3335,6.2057 9.1365,6.2159 8.913,5.8372 9.2802,6.1732 9.1033,6.0301 8.6083,5.5492 9.8275,6.3683 9.384,6.1256 9.5294,5.9899 9.3285,5.7114 9.1571,5.6299 10.1103,6.242 9.958,6.1201 9.8222,5.9352 8.5572,5.0292 8.7244,5.0403 9.5402,5.6446 9.2041,5.3673 9.4793,5.4796 8.7422,4.8384 9.8915,5.3205 10.0036,5.5552 10.0037,5.5382 10.0112,5.52 9.518,5.0308 9.3697,4.8435 10.5542,5.4791 10.1205,5.4264 9.5222,4.7009 9.7323,5.0269 9.7559,4.5836 11.1288,7.0681 11.0258,7.0027 10.0409,6.3772 10.7784,6.8455 10.6868,6.7874 13.6139,8.6465 10.3478,6.5721 9.363,5.9466 10.302,6.543 9.363,5.9466 11.4105,7.2471 9.0859,5.7705 10.0249,6.367 10.2402,6.5038 10.1485,6.4455 9.702,6.1619 9.7936,6.2201 10.4096,6.6114 10.0249,6.367 10.0868,6.4063 10.2562,6.5139 9.8554,6.2593 10.0249,6.367 10.7486,6.8267 9.4088,5.9757 10.302,6.543 9.0401,5.7415 9.4546,6.0048 9.979,6.3379 10.5201,6.6815 7.7895,4.8707 7.7272,4.5532 8.1946,5.0389 7.953,4.7165 7.7584,4.5453 7.6149,4.9393 8.3725,5.3115 7.9752,5.217 7.3596,5.0133 6.9542,4.8193 6.6791,5.1894 7.3381,5.741 6.8187,5.2424 6.7123,5.0108 7.4386,5.6999 6.8026,5.2128 6.7069,5.4318 7.0428,5.9647 6.683,5.4906 6.399,5.5098 7.0403,6.1058 6.5936,6.0878 6.2699,5.779 7.3034,6.0202 6.737,5.4127 7.537,6.7688 7.0758,6.2787 6.8649,6.0696 6.9708,6.814 6.2694,6.5286 5.8531,6.6336 5.5651,6.149 6.1186,6.7962 5.8107,6.8248 5.4209,6.4609 5.6896,7.0737 5.5833,7.0837 5.1916,6.9033 5.9561,7.5117 5.5437,7.498 5.313,7.4647 5.9852,8.3785 5.306,7.4267 4.7802,7.2715 5.1992,7.6177 4.7651,7.1359 4.8319,6.7854 5.1831,7.642 5.04,7.2928 4.8464,7.3245 5.5346,8.1455 5.2314,7.6338 5.2253,7.7991 5.6561,8.3146 5.1049,7.405 5.5661,8.5761 4.9844,7.4336 5.8132,8.2168 5.5878,8.2159 5.3196,7.91 5.8511,8.6204 5.4285,8.147 5.2448,7.7277 5.2413,8.2496 5.0259,8.0623 4.7302,7.6428 5.205,8.2796 5.3744,8.1547 4.8643,7.3871 4.9944,7.8535 5.2148,8.449 5.0411,8.0311 4.6483,7.6708 4.5306,7.5191 4.6203,8.2006 4.8891,9.3957 4.38,8.8192 3.7517,8.0591 4.104,7.8235 4.7733,9.1064 3.8518,7.9259 4.0701,8.2437 3.6867,7.9337 3.7399,8.7791 3.4628,9.4676 2.6416,10.4615 1.5249,10.5716 0.2375,11.2046 -0.7773,11.1403 -1.7164,10.5584 -2.4291,10.545 -2.8268,9.8832 -2.6457,9.3749"
     id="EA_DCC"
     inkscape:connector-curvature="0" />
  <path
     style="fill:none;stroke:#0ce1f1;stroke-width:0.933056px;stroke-linecap:butt;stroke-linejoin:miter;stroke-opacity:1;marker-start:url(#DotM);marker-end:none"
     d="m 4714.818,7994.9488 -2.4971,10.4548 -1.9802,11.0118 -1.4196,10.4662 -0.5232,11.6694 0.5956,12.3702 1.8299,11.3027 2.5918,10.5419"
     id="DCC_END2"
     inkscape:connector-curvature="0" />
  <text
     xml:space="preserve"
     style="font-size:40px;font-style:normal;font-weight:normal;line-height:125%;letter-spacing:0;word-spacing:0;fill:#000000;fill-opacity:1;stroke:none;font-family:Bitstream Vera Sans"
     x="41.216953"
     y="2746.4065"
     id="text9032"
     sodipodi:linespacing="125%"><text
   xml:space="preserve"
   style="font-size:14px;font-style:normal;font-weight:normal;line-height:125%;letter-spacing:0px;word-spacing:0px;fill:#faf117;fill-opacity:1;stroke:none;font-family:Sans"
   x="2395"
   y="6320"
   id="text4132"
   sodipodi:linespacing="125%"><tspan
     sodipodi:role="line"
     id="tspan4134"
     x="2395"
     y="6320">EA_END2</tspan></text>


<tspan
   sodipodi:role="line"
   id="tspan9034"
   x="41.216953"
   y="2746.4065"
   style="font-size:20px">Legend</tspan></text>
  <text
     xml:space="preserve"
     style="font-size:14px;font-style:normal;font-weight:normal;line-height:125%;letter-spacing:0;word-spacing:0;fill:#000000;fill-opacity:1;stroke:none;font-family:Bitstream Vera Sans"
     x="22.933142"
     y="2797.9272"
     id="text9430"
     sodipodi:linespacing="125%"><tspan
       sodipodi:role="line"
       id="tspan9432"
       x="22.933142"
       y="2797.9272"
       style="font-size:12px">Dot: Start of path</tspan><tspan
       sodipodi:role="line"
       x="22.933142"
       y="2827.9272"
       id="tspan9436"
       style="font-size:12px">Intersection: Single curve point</tspan><tspan
       sodipodi:role="line"
       x="22.933142"
       y="2842.9272"
       id="tspan9438"
       style="font-size:12px">Turn right: New path</tspan><tspan
       sodipodi:role="line"
       x="22.933142"
       y="2857.9272"
       id="tspan9440"
       style="font-size:12px">Turn left: New path, +2, new path</tspan><tspan
       sodipodi:role="line"
       x="22.933142"
       y="2872.9272"
       style="font-size:12px"
       id="tspan9444">Turn off signal: New path, </tspan><tspan
       sodipodi:role="line"
       x="22.933142"
       y="2887.9272"
       style="font-size:12px"
       id="tspan9448">                        single curve point</tspan></text>
  <text
     xml:space="preserve"
     style="font-size:40px;font-style:normal;font-weight:normal;line-height:125%;letter-spacing:0px;word-spacing:0px;fill:#000000;fill-opacity:1;stroke:none;font-family:Sans"
     x="4950"
     y="8945"
     id="text3910"
     sodipodi:linespacing="125%"><tspan
       sodipodi:role="line"
       id="tspan3912"
       x="4950"
       y="8945">MCD</tspan></text>
  <text
     xml:space="preserve"
     style="font-size:40px;font-style:normal;font-weight:normal;line-height:125%;letter-spacing:0px;word-spacing:0px;fill:#000000;fill-opacity:1;stroke:none;font-family:Sans"
     x="4750"
     y="8065"
     id="text3914"
     sodipodi:linespacing="125%"><tspan
       sodipodi:role="line"
       id="tspan3916"
       x="4750"
       y="8065">DCC</tspan></text>
  <text
     xml:space="preserve"
     style="font-size:40px;font-style:normal;font-weight:normal;line-height:125%;letter-spacing:0px;word-spacing:0px;fill:#000000;fill-opacity:1;stroke:none;font-family:Sans"
     x="2420"
     y="6285"
     id="text3918"
     sodipodi:linespacing="125%"><tspan
       sodipodi:role="line"
       id="tspan3920"
       x="2420"
       y="6285">EA</tspan></text>
  <text
     xml:space="preserve"
     style="font-size:40px;font-style:normal;font-weight:normal;line-height:125%;letter-spacing:0px;word-spacing:0px;fill:#000000;fill-opacity:1;stroke:none;font-family:Sans"
     x="2600"
     y="3705"
     id="text3922"
     sodipodi:linespacing="125%"><tspan
       sodipodi:role="line"
       id="tspan3924"
       x="2600"
       y="3705">E3A</tspan></text>
  <text
     xml:space="preserve"
     style="font-size:18px;font-style:normal;font-weight:normal;line-height:125%;letter-spacing:0px;word-spacing:0px;fill:#ff0000;fill-opacity:1;stroke:none;font-family:Sans"
     x="4750"
     y="7910"
     id="text3926"
     sodipodi:linespacing="125%"><tspan
       sodipodi:role="line"
       id="tspan3928"
       x="4750"
       y="7910">DCC_EA</tspan></text>
  <text
     xml:space="preserve"
     style="font-size:18px;font-style:normal;font-weight:normal;line-height:125%;letter-spacing:0px;word-spacing:0px;fill:#ff0000;fill-opacity:1;stroke:none;font-family:Sans"
     x="3300"
     y="6675"
     id="text3926-0"
     sodipodi:linespacing="125%"><tspan
       sodipodi:role="line"
       id="tspan3928-6"
       x="3300"
       y="6675"
       style="font-size:14px">DCC_EA</tspan></text>
  <path
     inkscape:connector-curvature="0"
     style="fill:none;stroke:#59f127;stroke-width:0.933056px;stroke-linecap:butt;stroke-linejoin:miter;stroke-opacity:1;marker-start:url(#DotM);marker-end:none"
     d="m 2372.2573,6333.29 -7.2205,-8.2425 -6.5175,-7.7368 -6.7615,-8.2797 -6.5296,-8.362 -6.0996,-7.9624 -6.325,-8.882 -5.748,-8.1034 -5.9888,-8.9236 -5.8014,-9.0089 -5.6045,-8.3438 -5.7725,-8.8577 -5.4996,-8.2577 -5.9461,-8.7165 -6.1161,-8.9373 -5.8409,-8.4964 -6.0862,-9.0217 -6.4358,-8.8048 -6.6311,-8.9134 -6.6615,-8.745 -6.7905,-8.7248 -6.9105,-9.2275 -6.7189,-8.2511 -6.9227,-8.5376 -6.6712,-8.2703 -6.6579,-8.2576 -7.2861,-8.9159 -7.3463,-8.255 -7.9016,-8.9284 -7.734,-8.2544 -8.3341,-8.7261 -8.1139,-8.6584 -7.9093,-8.0653 -8.0935,-8.1669 -9.2674,-9.028 -9.5437,-9.0648 -9.1243,-8.2653 -9.5067,-8.675 -9.0765,-8.1274 -9.6056,-8.5628 -9.3836,-8.0959 -9.9689,-8.3265 -9.4243,-7.7771 -9.0351,-7.3463 -10.1574,-7.6871 -8.4357,-6.5549 -8.6896,-6.4305 -8.1083,-6.091 -9.0989,-6.732 -8.4923,-6.2862 -9.1309,-6.7046 -9.0795,-6.8213 -9.1403,-6.8514 -9.2882,-6.9939 -8.885,-7.0787 -9.0808,-7.3161 -8.5902,-7.1983 -9.0911,-7.6932 -8.3995,-7.2856 -8.7183,-7.5211 -9.2544,-8.4168 -9.5614,-8.6833 -9.3762,-8.8798 -9.1699,-8.6472 -8.6349,-7.9981 -9.1816,-8.8081 -8.6302,-8.2877 -9.9283,-9.3006 -8.2442,-8.026 -9.6568,-9.1741 -8.5119,-7.8597 -8.6866,-8.0658 -9.1956,-8.3009 -9.0896,-8.5679 -9.2688,-8.206 -9.2452,-8.6271 -8.9592,-8.1546 -8.8281,-8.2454 -9.2321,-8.6947 -9.5118,-8.7838 -9.2193,-8.4613 -8.4576,-7.7618 -10.3007,-9.141 -8.5084,-7.733 -10.3263,-9.4148 -9.9238,-8.8425 -8.4558,-7.2565 -9.0451,-7.7109 -8.4996,-7.6235 -8.5509,-7.8592 -8.7568,-8.0326 -8.8346,-8.0863 -8.9935,-8.3336 -8.2729,-7.9694 -8.2773,-8.3381 -7.7233,-7.4696 -8.2745,-8.3702 -8.011,-8.2204 -8.0211,-8.7741 -8.2023,-8.5721 -8.1272,-9.0082 -7.918,-8.9624 -7.6688,-8.4121 -7.6037,-9.0496 -7.1305,-8.4783 -7.4233,-8.9615 -6.8229,-8.6112 -7.0074,-8.8778 -6.9357,-9.2642 -6.5518,-9.0059 -6.8844,-9.3964 -6.191,-8.6961 -6.5242,-9.1785 -5.9827,-8.7094 -5.7303,-8.9671 -5.4105,-8.5693 -5.7393,-8.9218 -5.6732,-8.7976 -5.394,-8.2253 -5.6484,-8.7613 -6.0193,-8.8727 -6.3732,-8.8484 -6.3685,-7.9724 -7.3257,-8.4918 -7.7426,-8.1062 -9.2565,-8.5817 -9.0193,-7.6941 -9.4632,-7.2651 -9.4166,-6.8802 -9.7326,-7.6531 -9.0883,-7.1761 -9.5048,-8.1491 -9.5945,-8.6416 -8.9266,-8.4574 -8.5386,-8.4956 -8.6176,-8.8148 -8.1635,-8.9717 -8.3801,-9.4802 -6.3052,-7.5822 -6.0953,-7.8232 -6.7253,-8.8335 -6.0063,-8.412 -6.1894,-8.9379 -6.0446,-8.7209 -5.8073,-8.6702 -5.987,-9.2371 -5.4506,-8.3066 -4.9578,-8.0861 -5.3732,-8.7578 -5.1789,-8.6992 -5.0059,-8.911 -5.0544,-9.1522 -5.1472,-8.7448 0,0 -5.2818,-9.1572 -4.7643,-9.3426 -4.3343,-9.2051 -4.5291,-8.8928 -3.8921,-8.179 -4.2061,-8.6662 -4.5784,-8.7074 -4.5298,-7.9018 -5.3119,-8.1115 -6.6833,-8.7061 -7.7029,-7.5768 -10.1508,-7.8914 -10.4451,-5.3251 -11.1403,-3.8272 -9.9029,-1.2992 -9.5837,0.092 -9.0746,1.4567 -9.2743,2.6674 -10.1694,3.6814 -9.2532,3.7201 -9.9838,4.1344 -9.5372,4.8306 -9.8404,4.069 -8.014,3.5103 -8.9357,4.1189 -7.76918,3.0505 -8.67577,3.5637 -8.38808,2.9836 -8.70117,3.6195 -8.63614,3.6669 -8.12577,3.1197 -8.44863,3.465 -8.26217,3.1654 -9.08913,3.9452 -8.37616,3.584 -7.89155,3.7557 -7.79196,3.4096 -8.1347,4.05 -8.30423,3.8333 -7.69456,3.6266 -8.01368,3.8866 -8.36066,3.4635 -7.7948,3.1822 -7.88795,3.0844 -7.85977,2.3361 -9.98771,2.5712 -10.28736,1.7013 -9.57763,0.5607 -9.04737,-0.1226 -9.22653,-1.3184 -8.89528,-2.2421 -8.53421,-3.4327 -9.81435,-5.6078 -9.6588,-7.8827 -7.08495,-8.0705 -5.34392,-8.2026 -3.82816,-8.3695 -2.78929,-8.4955 -1.44564,-8.5656 -0.52869,-8.78 0.7687,-9.2001 2.01537,-8.8797 4.08709,-10.3056 5.94189,-9.5568 7.56322,-9.2658 7.95009,-6.7727 8.35564,-5.6135 9.78084,-4.5974 10.09033,-2.9229 9.29449,-1.4586 9.50021,0.1181 9.33704,0.9459 9.16487,2.1899 8.85113,2.7939 10.07378,4.0442 10.55053,5.1263 10.3655,5.3619 10.53858,5.9063 9.13759,4.4423 8.77385,4.0807 9.33608,3.5706 9.62343,3.0026 9.55441,2.3125 10.24903,1.6541 9.99661,0.6284 9.47845,-0.5195 9.73921,-1.1841 9.19104,-2.0461 8.8858,-2.7826 8.5249,-3.3353 13.76735,-5.1989 9.5372,-4.8306 9.9838,-4.1344 9.2532,-3.7201 10.1694,-3.6814 9.2743,-2.6674 9.0746,-1.4567 9.5837,-0.092 9.9029,1.2992 11.1403,3.8272 10.4451,5.3251 10.1508,7.8914 7.7029,7.5768 6.6833,8.7061 5.3119,8.1115 4.5298,7.9018 0.8127,1.1243 3.7249,9.6463 3.8544,8.5364 3.853,8.4012 4.4901,8.4877 4.2623,8.1017 4.8748,8.3842 4.9544,8.2626 5.2272,7.9591 5.2162,8.2909 5.5729,7.6888 5.238,7.2419 5.1525,7.5295 5.0863,7.3781 5.0548,6.9194 5.8137,7.6475 5.6678,7.5927 5.965,7.2354 6.4241,7.609 5.9143,7.1729 6.085,7.298 6.2825,7.3752 6.6702,7.8882 5.9593,7.1376 7.0269,8.0464 6.822,7.7264 6.2485,7.1648 6.321,6.8076 7.3651,7.7771 7.0098,7.2255 6.3796,6.4647 6.54,6.495 6.9161,6.9652 7.3231,7.839 6.5878,6.835 7.6245,7.6456 7.6957,7.6862 6.8397,6.9138 7.2586,7.8024 6.345,6.7552 6.1669,6.992 7.7344,8.8139 6.4484,7.2838 6.2804,7.3189 6.4044,7.2643 6.5927,7.8772 6.2007,7.3758 6.1779,7.3759 6.178,7.5126 6.3407,7.88 5.7363,7.2205 6.4591,7.7486 7.0098,8.5776 5.5009,6.8771 6.6341,8.5088 6.2146,7.8797 5.4883,7.2017 5.5797,7.1994 5.7265,7.5187 5.6692,7.2814 6.7852,9.0476 6.7822,8.8017 5.9163,7.9928 6.0133,8.2142 5.7451,7.967 6.4883,8.8274 5.362,7.5819 5.3993,7.7585 5.2882,7.4159 5.5244,8.0301 5.2348,7.4728 5.387,7.5004 5.4549,8.2618 4.7523,7.3295 4.7734,7.1935 5.2741,7.934 5.0441,7.898 5.1124,7.5878 5.1506,7.574 5.6017,8.1106 5.2402,7.4486 4.9952,7.1067 5.3461,7.4969 5.827,8.3591 5.4121,7.3414 5.826,8.0477 5.255,7.0742 5.4314,7.3668 6.0493,8.3088 5.8602,7.416 5.674,7.4647 6.1767,7.8911 6.6681,8.5646 6.4648,8.2374 6.1851,7.5902 6.196,7.7259 6.3299,7.7713 6.0368,7.3386 5.4535,6.8613 6.2936,7.8653 5.9613,7.3124 6.2903,7.8491 6.4365,8.0717 6.3552,7.8323 6.5928,8.1618 6.4852,8.2613 6.6912,8.2869 6.0687,7.6387 6.5882,8.2036 6.6443,8.3971 6.5406,8.0889 5.9623,7.0565 6.1027,7.128 6.4871,7.5745 6.6693,7.2884 6.4226,6.7537 7.0053,7.0124 6.7783,6.6457 6.5382,6.1167 7.2783,6.5735 8.037,7.1077 8.3263,7.2562 8.0686,6.9404 7.4439,6.3921 7.2902,6.2535 7.1415,6.3407 7.3108,6.4624 6.9699,6.118 7.5315,6.5799 7.1789,6.3059 7.1662,6.2187 7.8426,6.9131 7.4191,6.6221 7.34,6.5871 7.7016,7.028 7.3901,6.5114 7.3911,6.4116 7.2826,6.552 7.6444,6.9452 8.347,7.2191 7.7288,6.8167 8.411,7.2342 8.9346,7.1393 8.2396,6.508 8.2682,6.109 9.2337,6.2003 9.0685,5.5979 9.1673,5.6326 9.8345,6.4529 8.7258,6.8787 7.0575,6.1868 6.9373,6.8796 6.1104,6.6162 6.0279,6.5297 6.972,7.3476 6.4644,6.8623 6.7453,7.1562 6.6781,7.1827 6.689,7.077 6.5468,6.9421 6.7916,7.1362 7.0496,7.6923 6.2267,6.8446 6.5371,6.5851 6.3872,6.3522 7.1214,6.891 6.3914,6.6031 6.5037,6.1845 7.3678,6.7546 7.0985,6.5967 7.1719,6.5969 7.3058,6.6747 7.1753,6.3513 7.4007,6.3392 7.3604,6.1224 7.3301,5.6402 8.4293,6.4651 8.0449,6.0381 8.3322,6.2111 8.979,6.4081 8.194,5.7597 8.5536,6.1329 8.338,5.9784 8.0978,5.8734 8.5433,6.4016 7.9179,6.0223 8.169,6.1662"
     id="EA_START"
     sodipodi:nodetypes="ccccccccccccccccccccccccccccccccccccccccccccccccccccccccccccccccccccccccccccccccccccccccccccccccccccccccccccccccccccccccccccccccccccccccccccccccccccccccccccccccccccccccccccccccccccccccccccccccccccccccccccccccccccccccccccccccccccccccccccccccccccccccccccccccccccccccccccccccccccccccccccccccccccccccccccccccccccccccccccccccccccccccccccccccccccccccccccccccccccccccccccccccccccccccccccccccccccccccccccccccccccccccccccccccccccccccccccccccccccccccccccccc"
     inkscape:label="#EA_START" />
  <text
     xml:space="preserve"
     style="font-size:18px;font-style:normal;font-weight:normal;line-height:125%;letter-spacing:0px;word-spacing:0px;fill:#ff0000;fill-opacity:1;stroke:none;font-family:Sans;stroke-opacity:1"
     x="2395.199"
     y="6349.7925"
     id="text4108"
     sodipodi:linespacing="125%"><tspan
       sodipodi:role="line"
       id="tspan4110"
       x="2395.199"
       y="6349.7925"
       style="font-size:14px">EA_END3</tspan></text>
  <text
     xml:space="preserve"
     style="font-size:14px;font-style:normal;font-weight:normal;line-height:125%;letter-spacing:0px;word-spacing:0px;fill:#9f00ff;fill-opacity:1;stroke:none;font-family:Sans"
     x="2315"
     y="6300"
     id="text4112"
     sodipodi:linespacing="125%"><tspan
       sodipodi:role="line"
       id="tspan4114"
       x="2315"
       y="6300">EA_END</tspan></text>
  <text
     xml:space="preserve"
     style="font-size:14px;font-style:normal;font-weight:normal;line-height:125%;letter-spacing:0px;word-spacing:0px;fill:#0027ff;fill-opacity:1;stroke:none;font-family:Sans"
     x="2330"
     y="6275"
     id="text4116"
     sodipodi:linespacing="125%"><tspan
       sodipodi:role="line"
       id="tspan4118"
       x="2330"
       y="6275">EA_START2</tspan></text>
  <text
     xml:space="preserve"
     style="font-size:14px;font-style:normal;font-weight:normal;line-height:125%;letter-spacing:0px;word-spacing:0px;fill:#00ff15;fill-opacity:1;stroke:none;font-family:Sans"
     x="2305"
     y="6245"
     id="text4120"
     sodipodi:linespacing="125%"><tspan
       sodipodi:role="line"
       id="tspan4122"
       x="2305"
       y="6245">EA_START</tspan></text>
  <path
     style="fill:none;stroke:#fff800;stroke-width:1px;stroke-linecap:butt;stroke-linejoin:miter;stroke-opacity:1"
     d="m 2380,6330 4.7198,-4.7198 5.2328,-5.2328 4.995,-4.995 4.876,-4.876 5.0544,-5.0544 5.2328,-5.2328 5.0545,-5.0545 L 2420,6290"
     id="EA_END2"
     inkscape:connector-curvature="0"
     sodipodi:nodetypes="ccccccccc"
     inkscape:label="#EA_END2" />
  <text
     xml:space="preserve"
     style="font-size:14px;font-style:normal;font-weight:normal;line-height:125%;letter-spacing:0px;word-spacing:0px;fill:#ff00ef;fill-opacity:1;stroke:none;font-family:Sans"
     x="1160.2563"
     y="5003.772"
     id="text4136"
     sodipodi:linespacing="125%"><tspan
       sodipodi:role="line"
       id="tspan4138"
       x="1160.2563"
       y="5003.772">EA_E3A</tspan></text>
  <text
     xml:space="preserve"
     style="font-size:14px;font-style:normal;font-weight:normal;line-height:125%;letter-spacing:0px;word-spacing:0px;fill:#7b00ff;fill-opacity:1;stroke:none;font-family:Sans"
     x="2545"
     y="3730"
     id="text4140"
     sodipodi:linespacing="125%"><tspan
       sodipodi:role="line"
       id="tspan4142"
       x="2545"
       y="3730">E3A_EA</tspan></text>
  <text
     xml:space="preserve"
     style="font-size:14px;font-style:normal;font-weight:normal;line-height:125%;letter-spacing:0px;word-spacing:0px;fill:#23ff00;fill-opacity:1;stroke:none;font-family:Sans"
     x="4662.4321"
     y="8135"
     id="text4144"
     sodipodi:linespacing="125%"><tspan
       sodipodi:role="line"
       id="tspan4146"
       x="4662.4321"
       y="8135">DCC_START</tspan></text>
  <text
     xml:space="preserve"
     style="font-size:14px;font-style:normal;font-weight:normal;line-height:125%;letter-spacing:0px;word-spacing:0px;fill:#0f00ff;fill-opacity:1;stroke:none;font-family:Sans"
     x="4675"
     y="8270"
     id="text4148"
     sodipodi:linespacing="125%"><tspan
       sodipodi:role="line"
       id="tspan4150"
       x="4675"
       y="8270">DCC_MCD</tspan></text>
  <text
     xml:space="preserve"
     style="font-size:14px;font-style:normal;font-weight:normal;line-height:125%;letter-spacing:0px;word-spacing:0px;fill:#ff00cf;fill-opacity:1;stroke:none;font-family:Sans"
     x="5055"
     y="8855"
     id="text4152"
     sodipodi:linespacing="125%"><tspan
       sodipodi:role="line"
       id="tspan4154"
       x="5055"
       y="8855">MCD_DCC</tspan></text>
  <text
     xml:space="preserve"
     style="font-size:14px;font-style:normal;font-weight:normal;line-height:125%;letter-spacing:0px;word-spacing:0px;fill:#000000;fill-opacity:1;stroke:none;font-family:Sans"
     x="4825"
     y="8130"
     id="text4156"
     sodipodi:linespacing="125%"><tspan
       sodipodi:role="line"
       id="tspan4158"
       x="4825"
       y="8130">DCC_END</tspan></text>
  <text
     xml:space="preserve"
     style="font-size:14px;font-style:normal;font-weight:normal;line-height:125%;letter-spacing:0px;word-spacing:0px;fill:#001eff;fill-opacity:1;stroke:none;font-family:Sans"
     x="4804.4819"
     y="7999.3291"
     id="text4160"
     sodipodi:linespacing="125%"><tspan
       sodipodi:role="line"
       id="tspan4162"
       x="4804.4819"
       y="7999.3291">DCC_START2</tspan></text>
  <text
     xml:space="preserve"
     style="font-size:18px;font-style:normal;font-weight:normal;line-height:125%;letter-spacing:0px;word-spacing:0px;fill:#ff0000;fill-opacity:1;stroke:none;font-family:Sans"
     x="2450"
     y="6405"
     id="text3926-0-8"
     sodipodi:linespacing="125%"><tspan
       sodipodi:role="line"
       id="tspan3928-6-0"
       x="2450"
       y="6405"
       style="font-size:14px">DCC_EA</tspan></text>
  <text
     xml:space="preserve"
     style="font-size:14px;font-style:normal;font-weight:normal;line-height:125%;letter-spacing:0px;word-spacing:0px;fill:#00e9ff;fill-opacity:1;stroke:none;font-family:Sans"
     x="2350"
     y="6385"
     id="text4209"
     sodipodi:linespacing="125%"><tspan
       sodipodi:role="line"
       id="tspan4211"
       x="2350"
       y="6385">EA_DCC</tspan></text>
  <text
     xml:space="preserve"
     style="font-size:14px;font-style:normal;font-weight:normal;line-height:125%;letter-spacing:0px;word-spacing:0px;fill:#00e9ff;fill-opacity:1;stroke:none;font-family:Sans"
     x="4650"
     y="8015"
     id="text4209-6"
     sodipodi:linespacing="125%"><tspan
       sodipodi:role="line"
       id="tspan4211-4"
       x="4650"
       y="8015">EA_DCC</tspan></text>
  <text
     xml:space="preserve"
     style="font-size:40px;font-style:normal;font-weight:normal;line-height:125%;letter-spacing:0;word-spacing:0;fill:#000000;fill-opacity:1;stroke:none;font-family:Bitstream Vera Sans"
     x="3411.217"
     y="8271.4062"
     id="text9032-4"
     sodipodi:linespacing="125%"><tspan
       sodipodi:role="line"
       id="tspan9034-4"
       x="3411.217"
       y="8271.4062"
       style="font-size:20px">Legend</tspan></text>
  <text
     xml:space="preserve"
     style="font-size:14px;font-style:normal;font-weight:normal;line-height:125%;letter-spacing:0;word-spacing:0;fill:#000000;fill-opacity:1;stroke:none;font-family:Bitstream Vera Sans"
     x="3392.9331"
     y="8322.9277"
     id="text9430-3"
     sodipodi:linespacing="125%"><tspan
       sodipodi:role="line"
       id="tspan9432-4"
       x="3392.9331"
       y="8322.9277"
       style="font-size:12px">Dot: Start of path</tspan><tspan
       sodipodi:role="line"
       x="3392.9331"
       y="8337.9277"
       id="tspan9436-3"
       style="font-size:12px">Intersection: Single curve point</tspan><tspan
       sodipodi:role="line"
       x="3392.9331"
       y="8352.9277"
       id="tspan9438-7"
       style="font-size:12px">Turn right: New path</tspan><tspan
       sodipodi:role="line"
       x="3392.9331"
       y="8367.9277"
       id="tspan9440-8"
       style="font-size:12px">Turn left: New path, +2, new path</tspan><tspan
       sodipodi:role="line"
       x="3392.9331"
       y="8382.9277"
       style="font-size:12px"
       id="tspan9444-6">Turn off signal: New path, </tspan><tspan
       sodipodi:role="line"
       x="3392.9331"
       y="8397.9277"
       style="font-size:12px"
       id="tspan9448-1">                        single curve point</tspan></text>
  <rect
     style="fill:none;stroke:#000000;stroke-width:0.5;stroke-miterlimit:4;stroke-opacity:1;stroke-dasharray:none"
     id="rect9450-8"
     width="219.03493"
     height="176.91283"
     x="3379.3604"
     y="8244.7676" />
</svg>
