<?xml version="1.0" encoding="UTF-8" standalone="no"?>
<svg
   xmlns:dc="http://purl.org/dc/elements/1.1/"
   xmlns:cc="http://creativecommons.org/ns#"
   xmlns:rdf="http://www.w3.org/1999/02/22-rdf-syntax-ns#"
   xmlns:svg="http://www.w3.org/2000/svg"
   xmlns="http://www.w3.org/2000/svg"
   xmlns:xlink="http://www.w3.org/1999/xlink"
   xmlns:sodipodi="http://sodipodi.sourceforge.net/DTD/sodipodi-0.dtd"
   xmlns:inkscape="http://www.inkscape.org/namespaces/inkscape"
   sodipodi:docname="path_def.svg"
   height="2848"
   width="3648"
   inkscape:version="0.48.3.1 r9886"
   id="svg2"
   version="1.1">
  <sodipodi:namedview
     pagecolor="#ffffff"
     bordercolor="#666666"
     borderopacity="1"
     objecttolerance="10"
     gridtolerance="10"
     guidetolerance="10"
     inkscape:pageopacity="0"
     inkscape:pageshadow="2"
     inkscape:window-width="1301"
     inkscape:window-height="744"
     id="namedview32"
     showgrid="false"
     inkscape:zoom="1.0510609"
     inkscape:cx="758.92523"
     inkscape:cy="1763.1153"
     inkscape:window-x="65"
     inkscape:window-y="24"
     inkscape:window-maximized="1"
     inkscape:current-layer="svg2" />
  <metadata
     id="metadata36">
    <rdf:RDF>
      <cc:Work
         rdf:about="">
        <dc:format>image/svg+xml</dc:format>
        <dc:type
           rdf:resource="http://purl.org/dc/dcmitype/StillImage" />
        <dc:title>Paths of the golfcar</dc:title>
      </cc:Work>
    </rdf:RDF>
  </metadata>
  <defs
     id="defs34">
    <marker
       inkscape:stockid="Arrow1Send"
       orient="auto"
       refY="0.0"
       refX="0.0"
       id="Arrow1Send"
       style="overflow:visible;">
      <path
         id="path6236"
         d="M 0.0,0.0 L 5.0,-5.0 L -12.5,0.0 L 5.0,5.0 L 0.0,0.0 z "
         style="fill-rule:evenodd;stroke:#000000;stroke-width:1.0pt;marker-start:none;"
         transform="scale(0.2) rotate(180) translate(6,0)" />
    </marker>
    <marker
       inkscape:stockid="Arrow1Sstart"
       orient="auto"
       refY="0.0"
       refX="0.0"
       id="Arrow1Sstart"
       style="overflow:visible">
      <path
         id="path6233"
         d="M 0.0,0.0 L 5.0,-5.0 L -12.5,0.0 L 5.0,5.0 L 0.0,0.0 z "
         style="fill-rule:evenodd;stroke:#000000;stroke-width:1.0pt;marker-start:none"
         transform="scale(0.2) translate(6,0)" />
    </marker>
    <inkscape:path-effect
       steps="5"
       equidistant_spacing="true"
       trajectory="M 0,0 0,0"
       is_visible="true"
       id="path-effect3660"
       effect="interpolate" />
    <inkscape:path-effect
       phi="5"
       teeth="10"
       is_visible="true"
       id="path-effect3658"
       effect="gears" />
    <marker
       style="overflow:visible"
       id="DotM"
       refX="0.0"
       refY="0.0"
       orient="auto"
       inkscape:stockid="DotM">
      <path
         transform="scale(0.4) translate(7.4, 1)"
         style="fill-rule:evenodd;stroke:#000000;stroke-width:1.0pt;marker-start:none;marker-end:none"
         d="M -2.5,-1.0 C -2.5,1.7600000 -4.7400000,4.0 -7.5,4.0 C -10.260000,4.0 -12.5,1.7600000 -12.5,-1.0 C -12.5,-3.7600000 -10.260000,-6.0 -7.5,-6.0 C -4.7400000,-6.0 -2.5,-3.7600000 -2.5,-1.0 z "
         id="path3704" />
    </marker>
    <marker
       style="overflow:visible"
       id="DotL"
       refX="0.0"
       refY="0.0"
       orient="auto"
       inkscape:stockid="DotL">
      <path
         transform="scale(0.8) translate(7.4, 1)"
         style="fill-rule:evenodd;stroke:#000000;stroke-width:1.0pt;marker-start:none;marker-end:none"
         d="M -2.5,-1.0 C -2.5,1.7600000 -4.7400000,4.0 -7.5,4.0 C -10.260000,4.0 -12.5,1.7600000 -12.5,-1.0 C -12.5,-3.7600000 -10.260000,-6.0 -7.5,-6.0 C -4.7400000,-6.0 -2.5,-3.7600000 -2.5,-1.0 z "
         id="path3701" />
    </marker>
    <marker
       style="overflow:visible;"
       id="Arrow1Lend"
       refX="0.0"
       refY="0.0"
       orient="auto"
       inkscape:stockid="Arrow1Lend">
      <path
         transform="scale(0.8) rotate(180) translate(12.5,0)"
         style="fill-rule:evenodd;stroke:#000000;stroke-width:1.0pt;marker-start:none;"
         d="M 0.0,0.0 L 5.0,-5.0 L -12.5,0.0 L 5.0,5.0 L 0.0,0.0 z "
         id="path3642" />
    </marker>
    <marker
       style="overflow:visible"
       id="Arrow1Lstart"
       refX="0.0"
       refY="0.0"
       orient="auto"
       inkscape:stockid="Arrow1Lstart">
      <path
         transform="scale(0.8) translate(12.5,0)"
         style="fill-rule:evenodd;stroke:#000000;stroke-width:1.0pt;marker-start:none"
         d="M 0.0,0.0 L 5.0,-5.0 L -12.5,0.0 L 5.0,5.0 L 0.0,0.0 z "
         id="path3639" />
    </marker>
    <inkscape:path-effect
       crossing_points_vector=""
       switcher_size="15"
       add_other_stroke_width="true"
       add_stroke_width="true"
       prop_to_stroke_width="true"
       interruption_width="3.6"
       is_visible="true"
       id="path-effect2862"
       effect="knot" />
    <inkscape:path-effect
       crossing_points_vector=""
       switcher_size="15"
       add_other_stroke_width="true"
       add_stroke_width="true"
       prop_to_stroke_width="true"
       interruption_width="3"
       is_visible="true"
       id="path-effect2860"
       effect="knot" />
    <inkscape:path-effect
       steps="5"
       equidistant_spacing="true"
       trajectory="M 0,0 0,0"
       is_visible="true"
       id="path-effect2858"
       effect="interpolate" />
    <inkscape:path-effect
       bendpath4="m 1068.3624,2136.3724 0,121.4273"
       bendpath3="m 1068.3624,2257.7997 48.7175,0"
       bendpath2="m 1117.0799,2136.3724 0,121.4273"
       bendpath1="m 1068.3624,2136.3724 48.7175,0"
       xx="true"
       yy="true"
       is_visible="true"
       id="path-effect2856"
       effect="envelope" />
    <inkscape:path-effect
       tgtlength_rdm="0.3;1"
       tgtlength="100"
       tgtscale="10"
       tgt_places_rdmness="1;1"
       nbtangents="5"
       tremble_frequency="1"
       tremble_size="5;1"
       parallel_offset="5;1"
       ends_tolerance="0.1;1"
       strokeoverlap_rdm="0.3;1"
       strokeoverlap="0.3"
       strokelength_rdm="0.3;1"
       strokelength="100"
       nbiter_approxstrokes="5"
       is_visible="true"
       id="path-effect2854"
       effect="sketch" />
    <inkscape:path-effect
       border_marks="both"
       mark_dir="left"
       offset="0"
       shift="0"
       major_mark_steps="5"
       minor_mark_length="7"
       mark_length="14"
       mark_distance="20"
       unit="px"
       is_visible="true"
       id="path-effect2852"
       effect="ruler" />
    <inkscape:path-effect
       border_marks="both"
       mark_dir="left"
       offset="0"
       shift="0"
       major_mark_steps="5"
       minor_mark_length="7"
       mark_length="14"
       mark_distance="20"
       unit="px"
       is_visible="true"
       id="path-effect2850"
       effect="ruler" />
    <inkscape:path-effect
       phi="5"
       teeth="10"
       is_visible="true"
       id="path-effect2848"
       effect="gears" />
    <inkscape:perspective
       id="perspective38"
       inkscape:persp3d-origin="1528.5 : 1178.6667 : 1"
       inkscape:vp_z="3057 : 1768 : 1"
       inkscape:vp_y="0 : 1000 : 0"
       inkscape:vp_x="0 : 1768 : 1"
       sodipodi:type="inkscape:persp3d" />
    <inkscape:perspective
       sodipodi:type="inkscape:persp3d"
       inkscape:vp_x="0 : 0.5 : 1"
       inkscape:vp_y="0 : 1000 : 0"
       inkscape:vp_z="1 : 0.5 : 1"
       inkscape:persp3d-origin="0.5 : 0.33333333 : 1"
       id="perspective2947" />
    <inkscape:perspective
       sodipodi:type="inkscape:persp3d"
       inkscape:vp_x="0 : 0.5 : 1"
       inkscape:vp_y="0 : 1000 : 0"
       inkscape:vp_z="1 : 0.5 : 1"
       inkscape:persp3d-origin="0.5 : 0.33333333 : 1"
       id="perspective2824" />
    <inkscape:perspective
       sodipodi:type="inkscape:persp3d"
       inkscape:vp_x="0 : 0.5 : 1"
       inkscape:vp_y="0 : 1000 : 0"
       inkscape:vp_z="1 : 0.5 : 1"
       inkscape:persp3d-origin="0.5 : 0.33333333 : 1"
       id="perspective2960" />
    <inkscape:perspective
       sodipodi:type="inkscape:persp3d"
       inkscape:vp_x="0 : 0.5 : 1"
       inkscape:vp_y="0 : 1000 : 0"
       inkscape:vp_z="1 : 0.5 : 1"
       inkscape:persp3d-origin="0.5 : 0.33333333 : 1"
       id="perspective3024" />
    <inkscape:perspective
       sodipodi:type="inkscape:persp3d"
       inkscape:vp_x="0 : 0.5 : 1"
       inkscape:vp_y="0 : 1000 : 0"
       inkscape:vp_z="1 : 0.5 : 1"
       inkscape:persp3d-origin="0.5 : 0.33333333 : 1"
       id="perspective3088" />
    <inkscape:perspective
       sodipodi:type="inkscape:persp3d"
       inkscape:vp_x="0 : 0.5 : 1"
       inkscape:vp_y="0 : 1000 : 0"
       inkscape:vp_z="1 : 0.5 : 1"
       inkscape:persp3d-origin="0.5 : 0.33333333 : 1"
       id="perspective3152" />
    <inkscape:perspective
       sodipodi:type="inkscape:persp3d"
       inkscape:vp_x="0 : 0.5 : 1"
       inkscape:vp_y="0 : 1000 : 0"
       inkscape:vp_z="1 : 0.5 : 1"
       inkscape:persp3d-origin="0.5 : 0.33333333 : 1"
       id="perspective3216" />
    <inkscape:perspective
       sodipodi:type="inkscape:persp3d"
       inkscape:vp_x="0 : 0.5 : 1"
       inkscape:vp_y="0 : 1000 : 0"
       inkscape:vp_z="1 : 0.5 : 1"
       inkscape:persp3d-origin="0.5 : 0.33333333 : 1"
       id="perspective3280" />
    <inkscape:perspective
       sodipodi:type="inkscape:persp3d"
       inkscape:vp_x="0 : 0.5 : 1"
       inkscape:vp_y="0 : 1000 : 0"
       inkscape:vp_z="1 : 0.5 : 1"
       inkscape:persp3d-origin="0.5 : 0.33333333 : 1"
       id="perspective3344" />
    <inkscape:perspective
       sodipodi:type="inkscape:persp3d"
       inkscape:vp_x="0 : 0.5 : 1"
       inkscape:vp_y="0 : 1000 : 0"
       inkscape:vp_z="1 : 0.5 : 1"
       inkscape:persp3d-origin="0.5 : 0.33333333 : 1"
       id="perspective3408" />
    <inkscape:perspective
       sodipodi:type="inkscape:persp3d"
       inkscape:vp_x="0 : 0.5 : 1"
       inkscape:vp_y="0 : 1000 : 0"
       inkscape:vp_z="1 : 0.5 : 1"
       inkscape:persp3d-origin="0.5 : 0.33333333 : 1"
       id="perspective3628" />
    <inkscape:perspective
       sodipodi:type="inkscape:persp3d"
       inkscape:vp_x="0 : 0.5 : 1"
       inkscape:vp_y="0 : 1000 : 0"
       inkscape:vp_z="1 : 0.5 : 1"
       inkscape:persp3d-origin="0.5 : 0.33333333 : 1"
       id="perspective2848" />
    <inkscape:perspective
       sodipodi:type="inkscape:persp3d"
       inkscape:vp_x="0 : 0.5 : 1"
       inkscape:vp_y="0 : 1000 : 0"
       inkscape:vp_z="1 : 0.5 : 1"
       inkscape:persp3d-origin="0.5 : 0.33333333 : 1"
       id="perspective3658" />
    <inkscape:perspective
       sodipodi:type="inkscape:persp3d"
       inkscape:vp_x="0 : 0.5 : 1"
       inkscape:vp_y="0 : 1000 : 0"
       inkscape:vp_z="1 : 0.5 : 1"
       inkscape:persp3d-origin="0.5 : 0.33333333 : 1"
       id="perspective3691" />
    <inkscape:perspective
       sodipodi:type="inkscape:persp3d"
       inkscape:vp_x="0 : 0.5 : 1"
       inkscape:vp_y="0 : 1000 : 0"
       inkscape:vp_z="1 : 0.5 : 1"
       inkscape:persp3d-origin="0.5 : 0.33333333 : 1"
       id="perspective3713" />
    <inkscape:perspective
       sodipodi:type="inkscape:persp3d"
       inkscape:vp_x="0 : 0.5 : 1"
       inkscape:vp_y="0 : 1000 : 0"
       inkscape:vp_z="1 : 0.5 : 1"
       inkscape:persp3d-origin="0.5 : 0.33333333 : 1"
       id="perspective3735" />
    <inkscape:perspective
       sodipodi:type="inkscape:persp3d"
       inkscape:vp_x="0 : 0.5 : 1"
       inkscape:vp_y="0 : 1000 : 0"
       inkscape:vp_z="1 : 0.5 : 1"
       inkscape:persp3d-origin="0.5 : 0.33333333 : 1"
       id="perspective3757" />
    <inkscape:perspective
       sodipodi:type="inkscape:persp3d"
       inkscape:vp_x="0 : 0.5 : 1"
       inkscape:vp_y="0 : 1000 : 0"
       inkscape:vp_z="1 : 0.5 : 1"
       inkscape:persp3d-origin="0.5 : 0.33333333 : 1"
       id="perspective2910" />
    <marker
       style="overflow:visible"
       id="DotM-1"
       refX="0"
       refY="0"
       orient="auto"
       inkscape:stockid="DotM">
      <path
         transform="matrix(0.4,0,0,0.4,2.96,0.4)"
         style="fill-rule:evenodd;stroke:#000000;stroke-width:1pt;marker-start:none;marker-end:none"
         d="m -2.5,-1 c 0,2.76 -2.24,5 -5,5 -2.76,0 -5,-2.24 -5,-5 0,-2.76 2.24,-5 5,-5 2.76,0 5,2.24 5,5 z"
         id="path3704-5" />
    </marker>
    <inkscape:perspective
       sodipodi:type="inkscape:persp3d"
       inkscape:vp_x="0 : 0.5 : 1"
       inkscape:vp_y="0 : 1000 : 0"
       inkscape:vp_z="1 : 0.5 : 1"
       inkscape:persp3d-origin="0.5 : 0.33333333 : 1"
       id="perspective3012" />
    <inkscape:perspective
       sodipodi:type="inkscape:persp3d"
       inkscape:vp_x="0 : 0.5 : 1"
       inkscape:vp_y="0 : 1000 : 0"
       inkscape:vp_z="1 : 0.5 : 1"
       inkscape:persp3d-origin="0.5 : 0.33333333 : 1"
       id="perspective2903" />
    <marker
       style="overflow:visible"
       id="DotM-5"
       refX="0"
       refY="0"
       orient="auto"
       inkscape:stockid="DotM">
      <path
         transform="matrix(0.4,0,0,0.4,2.96,0.4)"
         style="fill-rule:evenodd;stroke:#000000;stroke-width:1pt;marker-start:none;marker-end:none"
         d="m -2.5,-1 c 0,2.76 -2.24,5 -5,5 -2.76,0 -5,-2.24 -5,-5 0,-2.76 2.24,-5 5,-5 2.76,0 5,2.24 5,5 z"
         id="path3704-9" />
    </marker>
    <inkscape:perspective
       sodipodi:type="inkscape:persp3d"
       inkscape:vp_x="0 : 0.5 : 1"
       inkscape:vp_y="0 : 1000 : 0"
       inkscape:vp_z="1 : 0.5 : 1"
       inkscape:persp3d-origin="0.5 : 0.33333333 : 1"
       id="perspective2889" />
    <filter
       id="filter3830"
       inkscape:label="Colorize"
       inkscape:menu="Color"
       inkscape:menu-tooltip="Blend image or object with a flood color and set lightness and contrast"
       x="0"
       y="0"
       width="1"
       height="1"
       color-interpolation-filters="sRGB">
      <feColorMatrix
         id="feColorMatrix3832"
         values="1"
         in="SourceGraphic"
         type="saturate"
         result="result2" />
      <feFlood
         id="feFlood3834"
         flood-color="rgb(254,102,0)"
         flood-opacity="1"
         result="result1" />
      <feBlend
         id="feBlend3836"
         in2="result2"
         mode="multiply"
         in="result1"
         result="result3" />
      <feComposite
         id="feComposite3838"
         in2="SourceGraphic"
         operator="in"
         k2="1"
         result="result4" />
    </filter>
    <marker
       style="overflow:visible"
       id="DotM-7"
       refX="0"
       refY="0"
       orient="auto"
       inkscape:stockid="DotM">
      <path
         inkscape:connector-curvature="0"
         transform="matrix(0.4,0,0,0.4,2.96,0.4)"
         style="fill-rule:evenodd;stroke:#000000;stroke-width:1pt;marker-start:none;marker-end:none"
         d="m -2.5,-1 c 0,2.76 -2.24,5 -5,5 -2.76,0 -5,-2.24 -5,-5 0,-2.76 2.24,-5 5,-5 2.76,0 5,2.24 5,5 z"
         id="path3704-3" />
    </marker>
    <marker
       style="overflow:visible"
       id="DotM-70"
       refX="0"
       refY="0"
       orient="auto"
       inkscape:stockid="DotM">
      <path
         inkscape:connector-curvature="0"
         transform="matrix(0.4,0,0,0.4,2.96,0.4)"
         style="fill-rule:evenodd;stroke:#000000;stroke-width:1pt;marker-start:none;marker-end:none"
         d="m -2.5,-1 c 0,2.76 -2.24,5 -5,5 -2.76,0 -5,-2.24 -5,-5 0,-2.76 2.24,-5 5,-5 2.76,0 5,2.24 5,5 z"
         id="path3704-8" />
    </marker>
  </defs>
  <title
     id="title4">Paths of the golfcar</title>
  <desc
     id="desc6">The paths consist of all the possible route that can be taken by the golfcart to serve 4 stations: DCC, MCD, EA and E3A</desc>
  <image
     style="fill:#aa4400;font-size:14px"
     xlink:href="file:///home/demian/smartfm/old_code/mit_rrt/local_map_ext/dense+curb+lane.png"
     width="3648"
     height="2848"
     id="image3014"
     x="0"
     y="0" />
  <path
     id="path3616"
     d="M 635.08181,1040.9232"
     style="fill:none;stroke:#ff0024;stroke-opacity:1"
     inkscape:connector-curvature="0" />
  <path
     inkscape:label="#path3612"
     sodipodi:nodetypes="ccccccccccccccc"
     id="EA_END3"
     d="m 559.16104,1088.2317 5.29508,-14.0651 m 5.95697,-17.0435 6.28791,-15.7198 5.97906,-16.7109 c 1.80277,-3.549 5.40831,-10.647 5.40831,-10.647 l 6.60447,-7.1931 7.32874,-4.2793 7.58115,-1.9063 7.36167,-0.074 6.6703,1.2186 5.50708,1.9703 3.87197,2.1815 12.49562,11.8226 6.70141,7.6086"
     style="fill:none;stroke:#000000;stroke-width:1px;stroke-linecap:butt;stroke-linejoin:miter;stroke-opacity:1;marker-start:url(#DotM);marker-mid:none"
     inkscape:connector-curvature="0" />
  <path
     id="path3646"
     d="M 2350.9516,1196.2511"
     style="fill:none;stroke:#000000;stroke-width:1px;stroke-linecap:butt;stroke-linejoin:miter;stroke-opacity:1"
     inkscape:connector-curvature="0" />
  <path
     inkscape:label="#DCC_END2"
     sodipodi:nodetypes="cccccccccccccccccczccccccccccccccc"
     d="m 2280.0107,1389.5577 3.5556,-2.2329 3.5556,-2.233 m 3.5556,-2.2329 3.5557,-2.2329 m 3.5556,-2.2329 3.5556,-2.233 3.5556,-2.2329 3.5556,-2.2329 3.271,-5.0661 2.0289,-5.6657 1.0562,-5.7626 0.3526,-5.3573 -0.081,-4.4487 -0.2464,-3.0379 -0.142,-1.1244 -2.2276,-5.4555 m -1.3177,-2.9734 c 0,0 -1.4563,-3.4368 -1.8482,-4.2692 -0.3919,-0.8323 -3.4853,-8.321 -3.4853,-8.321 l -0.4758,-6.1 1.2334,-4.98 2.3463,-3.9263 2.8631,-2.9388 2.7831,-2.0171 2.5247,-1.3482 4.1402,-1.5266 3.7225,-1.3404 3.7227,-1.3403 3.7226,-1.3404 3.7226,-1.3404 3.7226,-1.3403 3.7226,-1.3405 20.9672,-6.6612"
     style="fill:none;stroke:#0ffbfb;stroke-width:0.89715463px;stroke-linecap:butt;stroke-linejoin:miter;stroke-opacity:1;marker-start:url(#DotM);marker-mid:none"
     id="DCC_END2"
     inkscape:connector-curvature="0" />
  <path
     sodipodi:nodetypes="cccccccccccczccccccccccccccccccccccc"
     d="m 2401.3802,1344.5056 -5.296,4.1414 m -5.2959,4.1413 -15.8042,8.3655 -17.246,2.6025 -4.3887,0.041 -4.2298,-0.3288 -2.213,-0.3565 -4.4981,-1.0107 -5.0674,-1.5098 -3.2625,-1.8476 m -3.1637,-1.8123 c 0,0 -2.0332,-1.2142 -2.4845,-1.5552 -0.4513,-0.341 -2.8618,-2.5857 -2.8618,-2.5857 l -3.9962,-4.242 -3.0263,-4.4036 -2.0965,-3.1054 -1.7852,-3.075 -1.537,-3.0355 -1.6343,-3.1489 -1.9779,-4.2864 -3.5984,-8.1963 -0.4757,-5.8896 1.2332,-4.8082 2.3462,-3.7909 2.8628,-2.8373 2.783,-1.9475 2.5246,-1.3016 4.1398,-1.4739 3.7224,-1.2942 3.7224,-1.2941 3.7224,-1.2941 3.7223,-1.2942 3.7224,-1.2941 3.7224,-1.2941 21.629,-6.303"
     style="fill:none;stroke:#ffba00;stroke-width:0.8815124px;stroke-linecap:butt;stroke-linejoin:miter;stroke-opacity:1;marker-start:url(#DotM);marker-mid:none"
     id="DCC_END"
     inkscape:connector-curvature="0" />
  <path
     inkscape:label="#DCC_START"
     sodipodi:nodetypes="cccccccccccccccccccccccccc"
     d="m 2317.3903,1299.1277 3.7327,-1.4459 3.7327,-1.446 3.7326,-1.4457 3.7327,-1.4459 3.7327,-1.446 3.7326,-1.4459 3.7327,-1.4459 5.1481,-1.6656 4.9728,-0.5106 4.492,0.1844 5.1453,1.0007 5.5169,2.1588 5.6072,3.658 5.4159,5.4986 4.5417,5.6614 3.4893,4.3203 2.5745,3.1596 1.7974,2.18 1.1582,1.3809 0.6567,0.7626 0.293,0.325 1.3787,1.6581 8.8246,4.7668 17.831,-1.041 14.1744,-7.5617"
     style="fill:none;stroke:#6ef10c;stroke-width:0.933056px;stroke-linecap:butt;stroke-linejoin:miter;stroke-opacity:1;marker-start:url(#DotM);marker-end:none"
     id="DCC_START"
     inkscape:connector-curvature="0" />
  <path
     inkscape:label="#DCC_START2"
     sodipodi:nodetypes="cccccccccccccccccccccccccccccczcc"
     d="m 2317.7075,1298.2157 3.7228,-1.2677 3.7228,-1.2679 3.7228,-1.2677 3.7228,-1.2678 3.7228,-1.2678 3.7227,-1.2678 3.7228,-1.2678 3.3294,-1.1263 3.6526,-0.2915 4.4802,0.1616 5.1317,0.8776 5.5024,1.8928 5.5923,3.2074 5.4015,4.8212 4.5297,4.9642 m 4.6028,7.5934 3.6081,7.8088 1.6072,6.538 0.1334,5.2924 -0.8135,4.0722 -1.2336,2.8773 -1.1265,1.7078 -0.4927,0.5637 -0.3662,0.6026 -1.0353,1.6226 -1.6087,2.3648 -2.0864,2.8291 -2.4688,3.0156 m -2.7552,2.9241 c 0,0 -2.4449,2.1836 -2.9466,2.555 -0.5017,0.3714 -3.042,1.908 -3.042,1.908 l -2.8604,1.3267"
     style="fill:none;stroke:#8f15fb;stroke-width:0.8725462px;stroke-linecap:butt;stroke-linejoin:miter;stroke-opacity:1;marker-start:url(#DotM)"
     id="DCC_START2"
     inkscape:connector-curvature="0" />
  <text
     xml:space="preserve"
     style="font-size:40px;font-style:normal;font-weight:normal;line-height:125%;letter-spacing:0;word-spacing:0;fill:#000000;fill-opacity:1;stroke:none;font-family:Bitstream Vera Sans"
     x="41.216953"
     y="2746.4065"
     id="text9032"
     sodipodi:linespacing="125%"><tspan
       sodipodi:role="line"
       id="tspan9034"
       x="41.216953"
       y="2746.4065"
       style="font-size:20px">Legend</tspan></text>
  <path
     style="fill:none;stroke:#000000;stroke-width:1px;stroke-linecap:butt;stroke-linejoin:miter;stroke-opacity:1;marker-start:url(#DotM-5);marker-mid:none"
     d="m 2989.9695,2269.1434 0,-19.4686 0,-19.4686 0,-19.4686 0,-19.4685"
     id="path9036"
     inkscape:connector-curvature="0"
     sodipodi:nodetypes="ccccc" />
  <text
     xml:space="preserve"
     style="font-size:14px;font-style:normal;font-weight:normal;line-height:125%;letter-spacing:0;word-spacing:0;fill:#000000;fill-opacity:1;stroke:none;font-family:Bitstream Vera Sans"
     x="22.933142"
     y="2797.9272"
     id="text9430"
     sodipodi:linespacing="125%"><tspan
       sodipodi:role="line"
       id="tspan9432"
       x="22.933142"
       y="2797.9272"
       style="font-size:12px">Dot: Start of path</tspan><tspan
       sodipodi:role="line"
       x="22.933142"
       y="2827.9272"
       id="tspan9436"
       style="font-size:12px">Intersection: Single curve point</tspan><tspan
       sodipodi:role="line"
       x="22.933142"
       y="2842.9272"
       id="tspan9438"
       style="font-size:12px">Turn right: New path</tspan><tspan
       sodipodi:role="line"
       x="22.933142"
       y="2857.9272"
       id="tspan9440"
       style="font-size:12px">Turn left: New path, +2, new path</tspan><tspan
       sodipodi:role="line"
       x="22.933142"
       y="2872.9272"
       style="font-size:12px"
       id="tspan9444">Turn off signal: New path, </tspan><tspan
       sodipodi:role="line"
       x="22.933142"
       y="2887.9272"
       style="font-size:12px"
       id="tspan9448">                        single curve point</tspan></text>
  <rect
     style="fill:none;stroke:#000000;stroke-width:0.50000000000000000;stroke-miterlimit:4;stroke-opacity:1;stroke-dasharray:none"
     id="rect9450"
     width="219.03493"
     height="176.91283"
     x="9.360467"
     y="2719.7673" />
  <path
     style="fill:none;stroke:#000000;stroke-width:1px;stroke-linecap:butt;stroke-linejoin:miter;stroke-opacity:1"
     d="m 2463.2255,1307.6516 240.7091,-112.2675 260.689,-132.2473 312.0656,-163.64423 16.1742,-32.34826 -0.9514,-31.39685 -2.8543,-27.59117 12.3685,-18.07698 19.0283,-15.22271 23.7855,-9.5142 23.7855,0.95142 26.6398,8.56278 7.6113,18.07697 1.9029,19.0284 -2.8543,25.68833 -15.2227,16.17413"
     id="DCC_MCD"
     inkscape:connector-curvature="0"
     inkscape:label="#path3076" />
  <path
     style="fill:none;stroke:#000000;stroke-width:1px;stroke-linecap:butt;stroke-linejoin:miter;stroke-opacity:1"
     d="m 3400.3738,833.84462 -30.4454,29.49401 -45.6682,28.54259 -205.5066,115.12178 -393.8877,197.8953 -83.725,38.0568 -41.8624,2.8542 -158.8871,73.2593 -28.5426,17.1256"
     id="MCD_DCC"
     inkscape:connector-curvature="0"
     inkscape:label="#path3078" />
  <path
     style="fill:none;stroke:#ff0000;stroke-width:1px;stroke-linecap:butt;stroke-linejoin:miter;stroke-opacity:1;marker-start:url(#DotL)"
     d="m 2319.5611,1402.7936 -38.0568,14.2713 -32.3483,23.7854 -34.2511,39.0083 -24.7369,52.328 -7.6113,45.6682 -1.9029,54.2309 17.1256,56.1338 33.2997,51.3766 58.988,48.5224 71.3565,46.6196 68.5022,48.5224 51.3766,43.7653 40.9111,63.7451 18.0769,63.7451 -2.8542,18.077 -17.1256,27.5912 -48.5224,5.7085 -39.0082,-0.9514 -143.6643,-20.9313 -255.9319,-37.1053 -240.7092,-37.1054 -215.0208,-35.2025 -93.2392,-15.2227 -65.6479,-9.5142 -57.0852,-16.1742 -121.7817,-56.1337 -100.8505,-45.6682 -169.35268,-75.1621 -162.69276,-69.4537 -87.53061,-43.7653 -129.39307,-78.9678 -106.559,-65.648 -27.59117,-23.7854 -10.46562,-25.6884 -1.90284,-35.2025 2.85426,-35.2025 19.97981,-54.2309 55.18234,-150.3243"
     id="DCC_EA"
     inkscape:connector-curvature="0"
     inkscape:label="#path3080" />
  <path
     style="fill:none;stroke:#ff0000;stroke-width:1px;stroke-linecap:butt;stroke-linejoin:miter;stroke-opacity:1;marker-start:url(#DotL)"
     d="m 518.5237,1274.3519 -21.88265,54.2309 -19.97981,53.2795 -5.70852,33.2997 7.61136,37.1054 34.25111,31.3968 42.81388,27.5912 111.3161,63.7451 96.09338,58.0366 62.7937,31.3969 107.51042,48.5224 143.66433,59.9394 257.8348,117.0246 47.5709,19.9798 118.9275,22.8341 243.5634,39.9596 293.0373,45.6682 232.1464,34.2511 101.8019,13.3199 57.0851,1.9028 28.5426,-4.7571 14.2713,-22.8341 7.6114,-36.1539 -16.1741,-44.7167 -39.0083,-33.2997 -65.6479,-56.1338 -117.0246,-83.7249 -52.3281,-52.3281 -21.8827,-42.8139 -11.417,-39.9596 -3.8057,-44.7167 6.66,-60.8909 19.9798,-54.2309 31.3968,-51.3767 39.9597,-32.3482 20.9312,-13.3199"
     id="EA_DCC"
     inkscape:connector-curvature="0"
     inkscape:label="#path3082" />
  <path
     style="fill:none;stroke:#ff0000;stroke-width:1px;stroke-linecap:butt;stroke-linejoin:miter;stroke-opacity:1;marker-start:url(#DotL)"
     d="m 668.84801,1094.5336 -39.95963,98.9476 -34.2511,19.0284 -36.15395,-0.9514 -23.78549,21.8827 -8.56278,23.7855"
     id="EA_START"
     inkscape:connector-curvature="0"
     inkscape:label="#path4312" />
  <path
     style="fill:none;stroke:#ff0000;stroke-width:1px;stroke-linecap:butt;stroke-linejoin:miter;stroke-opacity:1;marker-start:url(#DotL)"
     d="m 664.09091,1095.485 -33.29969,97.0448 -30.44543,19.9798 -37.10536,-2.8542 -19.02839,-20.9313 -8.56278,-35.2025 9.51419,-39.9596"
     id="EA_START2"
     inkscape:connector-curvature="0"
     inkscape:label="#path4514" />
  <path
     style="fill:none;stroke:#000000;stroke-width:1px;stroke-linecap:butt;stroke-linejoin:miter;stroke-opacity:1;marker-start:url(#DotL)"
     d="m 605.10289,953.72349 225.48646,-557.53191 26.63975,-64.69653 28.54259,-19.0284 27.59117,0 20.93123,9.5142 16.17413,19.97981 3.80568,19.0284 -10.46562,26.63975"
     id="EA_E3A"
     inkscape:connector-curvature="0"
     inkscape:label="#path4716" />
  <path
     style="fill:none;stroke:#000000;stroke-width:1px;stroke-linecap:butt;stroke-linejoin:miter;stroke-opacity:1;marker-start:url(#DotL)"
     d="m 953.32248,363.84332 -18.07697,44.71672 -14.2713,29.49401 -28.54259,16.17413 -24.73691,0 -27.59117,9.5142 -27.59117,54.23092 -80.87067,206.45806 -32.34826,80.87067 -20.93124,56.13376"
     id="E3A_EA"
     inkscape:connector-curvature="0"
     inkscape:label="#path4918" />
  <path
     style="fill:none;stroke:#000000;stroke-width:1px;stroke-linecap:butt;stroke-linejoin:miter;stroke-opacity:1"
     d="m 667.8966,877.60989 -22.83407,58.0366 -5.70852,35.20253 14.27129,29.49398"
     id="EA_END"
     inkscape:connector-curvature="0"
     inkscape:label="#path3071" />
  <path
     style="fill:none;stroke:#000000;stroke-width:1px;stroke-linecap:butt;stroke-linejoin:miter;stroke-opacity:1"
     d="m 665.04234,1043.1569 2.85426,22.8341 -0.95142,33.2997 -8.56278,26.6397 -7.61136,19.0284"
     id="EA_END2"
     inkscape:connector-curvature="0"
     sodipodi:nodetypes="ccccc"
     inkscape:label="#path3073" />
</svg>
