<?xml version="1.0" encoding="UTF-8" standalone="no"?>
<svg
   xmlns:dc="http://purl.org/dc/elements/1.1/"
   xmlns:cc="http://creativecommons.org/ns#"
   xmlns:rdf="http://www.w3.org/1999/02/22-rdf-syntax-ns#"
   xmlns:svg="http://www.w3.org/2000/svg"
   xmlns="http://www.w3.org/2000/svg"
   xmlns:xlink="http://www.w3.org/1999/xlink"
   xmlns:sodipodi="http://sodipodi.sourceforge.net/DTD/sodipodi-0.dtd"
   xmlns:inkscape="http://www.inkscape.org/namespaces/inkscape"
   sodipodi:docname="dense_map_path_bigeng.svg"
   height="4520"
   width="4251"
   inkscape:version="0.48.3.1 r9886"
   id="svg2"
   version="1.1">
  <sodipodi:namedview
     pagecolor="#ffffff"
     bordercolor="#666666"
     borderopacity="1"
     objecttolerance="10"
     gridtolerance="10"
     guidetolerance="10"
     inkscape:pageopacity="0"
     inkscape:pageshadow="2"
     inkscape:window-width="1535"
     inkscape:window-height="876"
     id="namedview32"
     showgrid="false"
     inkscape:zoom="0.74321229"
     inkscape:cx="988.53691"
     inkscape:cy="2748.0753"
     inkscape:window-x="1431"
     inkscape:window-y="24"
     inkscape:window-maximized="1"
     inkscape:current-layer="svg2" />
  <metadata
     id="metadata36">
    <rdf:RDF>
      <cc:Work
         rdf:about="">
        <dc:format>image/svg+xml</dc:format>
        <dc:type
           rdf:resource="http://purl.org/dc/dcmitype/StillImage" />
        <dc:title>Paths of the golfcar</dc:title>
      </cc:Work>
    </rdf:RDF>
  </metadata>
  <defs
     id="defs34">
    <marker
       inkscape:stockid="Arrow1Send"
       orient="auto"
       refY="0.0"
       refX="0.0"
       id="Arrow1Send"
       style="overflow:visible;">
      <path
         id="path6236"
         d="M 0.0,0.0 L 5.0,-5.0 L -12.5,0.0 L 5.0,5.0 L 0.0,0.0 z "
         style="fill-rule:evenodd;stroke:#000000;stroke-width:1.0pt;marker-start:none;"
         transform="scale(0.2) rotate(180) translate(6,0)" />
    </marker>
    <marker
       inkscape:stockid="Arrow1Sstart"
       orient="auto"
       refY="0.0"
       refX="0.0"
       id="Arrow1Sstart"
       style="overflow:visible">
      <path
         id="path6233"
         d="M 0.0,0.0 L 5.0,-5.0 L -12.5,0.0 L 5.0,5.0 L 0.0,0.0 z "
         style="fill-rule:evenodd;stroke:#000000;stroke-width:1.0pt;marker-start:none"
         transform="scale(0.2) translate(6,0)" />
    </marker>
    <inkscape:path-effect
       steps="5"
       equidistant_spacing="true"
       trajectory="M 0,0 0,0"
       is_visible="true"
       id="path-effect3660"
       effect="interpolate" />
    <inkscape:path-effect
       phi="5"
       teeth="10"
       is_visible="true"
       id="path-effect3658"
       effect="gears" />
    <marker
       style="overflow:visible"
       id="DotM"
       refX="0.0"
       refY="0.0"
       orient="auto"
       inkscape:stockid="DotM">
      <path
         transform="scale(0.4) translate(7.4, 1)"
         style="fill-rule:evenodd;stroke:#000000;stroke-width:1.0pt;marker-start:none;marker-end:none"
         d="M -2.5,-1.0 C -2.5,1.7600000 -4.7400000,4.0 -7.5,4.0 C -10.260000,4.0 -12.5,1.7600000 -12.5,-1.0 C -12.5,-3.7600000 -10.260000,-6.0 -7.5,-6.0 C -4.7400000,-6.0 -2.5,-3.7600000 -2.5,-1.0 z "
         id="path3704" />
    </marker>
    <marker
       style="overflow:visible"
       id="DotL"
       refX="0.0"
       refY="0.0"
       orient="auto"
       inkscape:stockid="DotL">
      <path
         transform="scale(0.8) translate(7.4, 1)"
         style="fill-rule:evenodd;stroke:#000000;stroke-width:1.0pt;marker-start:none;marker-end:none"
         d="M -2.5,-1.0 C -2.5,1.7600000 -4.7400000,4.0 -7.5,4.0 C -10.260000,4.0 -12.5,1.7600000 -12.5,-1.0 C -12.5,-3.7600000 -10.260000,-6.0 -7.5,-6.0 C -4.7400000,-6.0 -2.5,-3.7600000 -2.5,-1.0 z "
         id="path3701" />
    </marker>
    <marker
       style="overflow:visible;"
       id="Arrow1Lend"
       refX="0.0"
       refY="0.0"
       orient="auto"
       inkscape:stockid="Arrow1Lend">
      <path
         transform="scale(0.8) rotate(180) translate(12.5,0)"
         style="fill-rule:evenodd;stroke:#000000;stroke-width:1.0pt;marker-start:none;"
         d="M 0.0,0.0 L 5.0,-5.0 L -12.5,0.0 L 5.0,5.0 L 0.0,0.0 z "
         id="path3642" />
    </marker>
    <marker
       style="overflow:visible"
       id="Arrow1Lstart"
       refX="0.0"
       refY="0.0"
       orient="auto"
       inkscape:stockid="Arrow1Lstart">
      <path
         transform="scale(0.8) translate(12.5,0)"
         style="fill-rule:evenodd;stroke:#000000;stroke-width:1.0pt;marker-start:none"
         d="M 0.0,0.0 L 5.0,-5.0 L -12.5,0.0 L 5.0,5.0 L 0.0,0.0 z "
         id="path3639" />
    </marker>
    <inkscape:path-effect
       crossing_points_vector=""
       switcher_size="15"
       add_other_stroke_width="true"
       add_stroke_width="true"
       prop_to_stroke_width="true"
       interruption_width="3.6"
       is_visible="true"
       id="path-effect2862"
       effect="knot" />
    <inkscape:path-effect
       crossing_points_vector=""
       switcher_size="15"
       add_other_stroke_width="true"
       add_stroke_width="true"
       prop_to_stroke_width="true"
       interruption_width="3"
       is_visible="true"
       id="path-effect2860"
       effect="knot" />
    <inkscape:path-effect
       steps="5"
       equidistant_spacing="true"
       trajectory="M 0,0 0,0"
       is_visible="true"
       id="path-effect2858"
       effect="interpolate" />
    <inkscape:path-effect
       bendpath4="m 1068.3624,2136.3724 0,121.4273"
       bendpath3="m 1068.3624,2257.7997 48.7175,0"
       bendpath2="m 1117.0799,2136.3724 0,121.4273"
       bendpath1="m 1068.3624,2136.3724 48.7175,0"
       xx="true"
       yy="true"
       is_visible="true"
       id="path-effect2856"
       effect="envelope" />
    <inkscape:path-effect
       tgtlength_rdm="0.3;1"
       tgtlength="100"
       tgtscale="10"
       tgt_places_rdmness="1;1"
       nbtangents="5"
       tremble_frequency="1"
       tremble_size="5;1"
       parallel_offset="5;1"
       ends_tolerance="0.1;1"
       strokeoverlap_rdm="0.3;1"
       strokeoverlap="0.3"
       strokelength_rdm="0.3;1"
       strokelength="100"
       nbiter_approxstrokes="5"
       is_visible="true"
       id="path-effect2854"
       effect="sketch" />
    <inkscape:path-effect
       border_marks="both"
       mark_dir="left"
       offset="0"
       shift="0"
       major_mark_steps="5"
       minor_mark_length="7"
       mark_length="14"
       mark_distance="20"
       unit="px"
       is_visible="true"
       id="path-effect2852"
       effect="ruler" />
    <inkscape:path-effect
       border_marks="both"
       mark_dir="left"
       offset="0"
       shift="0"
       major_mark_steps="5"
       minor_mark_length="7"
       mark_length="14"
       mark_distance="20"
       unit="px"
       is_visible="true"
       id="path-effect2850"
       effect="ruler" />
    <inkscape:path-effect
       phi="5"
       teeth="10"
       is_visible="true"
       id="path-effect2848"
       effect="gears" />
    <inkscape:perspective
       id="perspective38"
       inkscape:persp3d-origin="1528.5 : 1178.6667 : 1"
       inkscape:vp_z="3057 : 1768 : 1"
       inkscape:vp_y="0 : 1000 : 0"
       inkscape:vp_x="0 : 1768 : 1"
       sodipodi:type="inkscape:persp3d" />
    <inkscape:perspective
       sodipodi:type="inkscape:persp3d"
       inkscape:vp_x="0 : 0.5 : 1"
       inkscape:vp_y="0 : 1000 : 0"
       inkscape:vp_z="1 : 0.5 : 1"
       inkscape:persp3d-origin="0.5 : 0.33333333 : 1"
       id="perspective2947" />
    <inkscape:perspective
       sodipodi:type="inkscape:persp3d"
       inkscape:vp_x="0 : 0.5 : 1"
       inkscape:vp_y="0 : 1000 : 0"
       inkscape:vp_z="1 : 0.5 : 1"
       inkscape:persp3d-origin="0.5 : 0.33333333 : 1"
       id="perspective2824" />
    <inkscape:perspective
       sodipodi:type="inkscape:persp3d"
       inkscape:vp_x="0 : 0.5 : 1"
       inkscape:vp_y="0 : 1000 : 0"
       inkscape:vp_z="1 : 0.5 : 1"
       inkscape:persp3d-origin="0.5 : 0.33333333 : 1"
       id="perspective2960" />
    <inkscape:perspective
       sodipodi:type="inkscape:persp3d"
       inkscape:vp_x="0 : 0.5 : 1"
       inkscape:vp_y="0 : 1000 : 0"
       inkscape:vp_z="1 : 0.5 : 1"
       inkscape:persp3d-origin="0.5 : 0.33333333 : 1"
       id="perspective3024" />
    <inkscape:perspective
       sodipodi:type="inkscape:persp3d"
       inkscape:vp_x="0 : 0.5 : 1"
       inkscape:vp_y="0 : 1000 : 0"
       inkscape:vp_z="1 : 0.5 : 1"
       inkscape:persp3d-origin="0.5 : 0.33333333 : 1"
       id="perspective3088" />
    <inkscape:perspective
       sodipodi:type="inkscape:persp3d"
       inkscape:vp_x="0 : 0.5 : 1"
       inkscape:vp_y="0 : 1000 : 0"
       inkscape:vp_z="1 : 0.5 : 1"
       inkscape:persp3d-origin="0.5 : 0.33333333 : 1"
       id="perspective3152" />
    <inkscape:perspective
       sodipodi:type="inkscape:persp3d"
       inkscape:vp_x="0 : 0.5 : 1"
       inkscape:vp_y="0 : 1000 : 0"
       inkscape:vp_z="1 : 0.5 : 1"
       inkscape:persp3d-origin="0.5 : 0.33333333 : 1"
       id="perspective3216" />
    <inkscape:perspective
       sodipodi:type="inkscape:persp3d"
       inkscape:vp_x="0 : 0.5 : 1"
       inkscape:vp_y="0 : 1000 : 0"
       inkscape:vp_z="1 : 0.5 : 1"
       inkscape:persp3d-origin="0.5 : 0.33333333 : 1"
       id="perspective3280" />
    <inkscape:perspective
       sodipodi:type="inkscape:persp3d"
       inkscape:vp_x="0 : 0.5 : 1"
       inkscape:vp_y="0 : 1000 : 0"
       inkscape:vp_z="1 : 0.5 : 1"
       inkscape:persp3d-origin="0.5 : 0.33333333 : 1"
       id="perspective3344" />
    <inkscape:perspective
       sodipodi:type="inkscape:persp3d"
       inkscape:vp_x="0 : 0.5 : 1"
       inkscape:vp_y="0 : 1000 : 0"
       inkscape:vp_z="1 : 0.5 : 1"
       inkscape:persp3d-origin="0.5 : 0.33333333 : 1"
       id="perspective3408" />
    <inkscape:perspective
       sodipodi:type="inkscape:persp3d"
       inkscape:vp_x="0 : 0.5 : 1"
       inkscape:vp_y="0 : 1000 : 0"
       inkscape:vp_z="1 : 0.5 : 1"
       inkscape:persp3d-origin="0.5 : 0.33333333 : 1"
       id="perspective3628" />
    <inkscape:perspective
       sodipodi:type="inkscape:persp3d"
       inkscape:vp_x="0 : 0.5 : 1"
       inkscape:vp_y="0 : 1000 : 0"
       inkscape:vp_z="1 : 0.5 : 1"
       inkscape:persp3d-origin="0.5 : 0.33333333 : 1"
       id="perspective2848" />
    <inkscape:perspective
       sodipodi:type="inkscape:persp3d"
       inkscape:vp_x="0 : 0.5 : 1"
       inkscape:vp_y="0 : 1000 : 0"
       inkscape:vp_z="1 : 0.5 : 1"
       inkscape:persp3d-origin="0.5 : 0.33333333 : 1"
       id="perspective3658" />
    <inkscape:perspective
       sodipodi:type="inkscape:persp3d"
       inkscape:vp_x="0 : 0.5 : 1"
       inkscape:vp_y="0 : 1000 : 0"
       inkscape:vp_z="1 : 0.5 : 1"
       inkscape:persp3d-origin="0.5 : 0.33333333 : 1"
       id="perspective3691" />
    <inkscape:perspective
       sodipodi:type="inkscape:persp3d"
       inkscape:vp_x="0 : 0.5 : 1"
       inkscape:vp_y="0 : 1000 : 0"
       inkscape:vp_z="1 : 0.5 : 1"
       inkscape:persp3d-origin="0.5 : 0.33333333 : 1"
       id="perspective3713" />
    <inkscape:perspective
       sodipodi:type="inkscape:persp3d"
       inkscape:vp_x="0 : 0.5 : 1"
       inkscape:vp_y="0 : 1000 : 0"
       inkscape:vp_z="1 : 0.5 : 1"
       inkscape:persp3d-origin="0.5 : 0.33333333 : 1"
       id="perspective3735" />
    <inkscape:perspective
       sodipodi:type="inkscape:persp3d"
       inkscape:vp_x="0 : 0.5 : 1"
       inkscape:vp_y="0 : 1000 : 0"
       inkscape:vp_z="1 : 0.5 : 1"
       inkscape:persp3d-origin="0.5 : 0.33333333 : 1"
       id="perspective3757" />
    <inkscape:perspective
       sodipodi:type="inkscape:persp3d"
       inkscape:vp_x="0 : 0.5 : 1"
       inkscape:vp_y="0 : 1000 : 0"
       inkscape:vp_z="1 : 0.5 : 1"
       inkscape:persp3d-origin="0.5 : 0.33333333 : 1"
       id="perspective2910" />
    <marker
       style="overflow:visible"
       id="DotM-1"
       refX="0"
       refY="0"
       orient="auto"
       inkscape:stockid="DotM">
      <path
         transform="matrix(0.4,0,0,0.4,2.96,0.4)"
         style="fill-rule:evenodd;stroke:#000000;stroke-width:1pt;marker-start:none;marker-end:none"
         d="m -2.5,-1 c 0,2.76 -2.24,5 -5,5 -2.76,0 -5,-2.24 -5,-5 0,-2.76 2.24,-5 5,-5 2.76,0 5,2.24 5,5 z"
         id="path3704-5" />
    </marker>
    <inkscape:perspective
       sodipodi:type="inkscape:persp3d"
       inkscape:vp_x="0 : 0.5 : 1"
       inkscape:vp_y="0 : 1000 : 0"
       inkscape:vp_z="1 : 0.5 : 1"
       inkscape:persp3d-origin="0.5 : 0.33333333 : 1"
       id="perspective3012" />
    <inkscape:perspective
       sodipodi:type="inkscape:persp3d"
       inkscape:vp_x="0 : 0.5 : 1"
       inkscape:vp_y="0 : 1000 : 0"
       inkscape:vp_z="1 : 0.5 : 1"
       inkscape:persp3d-origin="0.5 : 0.33333333 : 1"
       id="perspective2903" />
    <marker
       style="overflow:visible"
       id="DotM-5"
       refX="0"
       refY="0"
       orient="auto"
       inkscape:stockid="DotM">
      <path
         transform="matrix(0.4,0,0,0.4,2.96,0.4)"
         style="fill-rule:evenodd;stroke:#000000;stroke-width:1pt;marker-start:none;marker-end:none"
         d="m -2.5,-1 c 0,2.76 -2.24,5 -5,5 -2.76,0 -5,-2.24 -5,-5 0,-2.76 2.24,-5 5,-5 2.76,0 5,2.24 5,5 z"
         id="path3704-9" />
    </marker>
    <inkscape:perspective
       sodipodi:type="inkscape:persp3d"
       inkscape:vp_x="0 : 0.5 : 1"
       inkscape:vp_y="0 : 1000 : 0"
       inkscape:vp_z="1 : 0.5 : 1"
       inkscape:persp3d-origin="0.5 : 0.33333333 : 1"
       id="perspective2889" />
    <filter
       id="filter3830"
       inkscape:label="Colorize"
       inkscape:menu="Color"
       inkscape:menu-tooltip="Blend image or object with a flood color and set lightness and contrast"
       x="0"
       y="0"
       width="1"
       height="1"
       color-interpolation-filters="sRGB">
      <feColorMatrix
         id="feColorMatrix3832"
         values="1"
         in="SourceGraphic"
         type="saturate"
         result="result2" />
      <feFlood
         id="feFlood3834"
         flood-color="rgb(254,102,0)"
         flood-opacity="1"
         result="result1" />
      <feBlend
         id="feBlend3836"
         in2="result2"
         mode="multiply"
         in="result1"
         result="result3" />
      <feComposite
         id="feComposite3838"
         in2="SourceGraphic"
         operator="in"
         k2="1"
         result="result4" />
    </filter>
    <marker
       style="overflow:visible"
       id="DotM-7"
       refX="0"
       refY="0"
       orient="auto"
       inkscape:stockid="DotM">
      <path
         inkscape:connector-curvature="0"
         transform="matrix(0.4,0,0,0.4,2.96,0.4)"
         style="fill-rule:evenodd;stroke:#000000;stroke-width:1pt;marker-start:none;marker-end:none"
         d="m -2.5,-1 c 0,2.76 -2.24,5 -5,5 -2.76,0 -5,-2.24 -5,-5 0,-2.76 2.24,-5 5,-5 2.76,0 5,2.24 5,5 z"
         id="path3704-3" />
    </marker>
    <marker
       style="overflow:visible"
       id="DotM-70"
       refX="0"
       refY="0"
       orient="auto"
       inkscape:stockid="DotM">
      <path
         inkscape:connector-curvature="0"
         transform="matrix(0.4,0,0,0.4,2.96,0.4)"
         style="fill-rule:evenodd;stroke:#000000;stroke-width:1pt;marker-start:none;marker-end:none"
         d="m -2.5,-1 c 0,2.76 -2.24,5 -5,5 -2.76,0 -5,-2.24 -5,-5 0,-2.76 2.24,-5 5,-5 2.76,0 5,2.24 5,5 z"
         id="path3704-8" />
    </marker>
  </defs>
  <title
     id="title4">Paths of the golfcar</title>
  <desc
     id="desc6">The paths consist of all the possible route that can be taken by the golfcart to serve 4 stations: DCC, MCD, EA and E3A</desc>
  <image
     style="fill:#aa4400;font-size:14px"
     xlink:href="file:///home/demian/smartfm/old_code/mit_rrt/local_map_ext/bigeng_sde_map_0.1_cleaned_path.png"
     width="4251"
     height="4520"
     id="image3014"
     x="0"
     y="0" />
  <path
     id="path3616"
     d="M 481.84616,1360.4032"
     style="fill:none;stroke:#ff0024;stroke-width:1;stroke-opacity:1"
     inkscape:connector-curvature="0" />
  <path
     inkscape:label="#path3612"
     sodipodi:nodetypes="ccccccccccccccc"
     id="EA_END3"
     d="m 628.99129,1714.9935 14.16323,-9.0761 m 16.70155,-11.1589 16.20061,-10.0145 16.51447,-10.8929 c 4.04188,-2.1267 12.12567,-6.3801 12.12567,-6.3801 l 11.15214,-3.277 10.04497,-0.7585 8.80472,1.1737 7.43148,2.5205 5.92448,3.2832 4.28609,3.458 2.51147,3.0515 5.09485,13.5637 1.93429,8.2602"
     style="fill:none;stroke:#000000;stroke-width:1px;stroke-linecap:butt;stroke-linejoin:miter;stroke-opacity:1;marker-start:url(#DotM);marker-mid:none"
     inkscape:connector-curvature="0" />
  <path
     id="path3646"
     d="M 2105.3798,2082.0502"
     style="fill:none;stroke:#000000;stroke-width:1px;stroke-linecap:butt;stroke-linejoin:miter;stroke-opacity:1"
     inkscape:connector-curvature="0" />
  <path
     inkscape:label="#DCC_END2"
     sodipodi:nodetypes="cccccccccccccccccczccccccccccccccc"
     d="m 2003.8995,2715.4908 4.9721,-0.4904 4.9721,-0.4902 m 4.9721,-0.4901 4.9721,-0.4893 m 4.9719,-0.4902 4.9722,-0.4901 4.972,-0.4903 4.972,-0.4902 6.4696,-2.7912 5.6011,-3.6927 4.6857,-4.1084 3.7255,-4.04 2.7182,-3.4856 1.6644,-2.4471 0.5653,-0.9236 1.1982,-5.0202 m 0.5494,-2.7724 c 0,0 0.7023,-3.1803 0.8325,-3.9648 0.1319,-0.7838 1.7405,-7.6872 1.7405,-7.6872 l 3.3614,-4.9072 4.3712,-3.4383 4.8246,-2.2295 4.7217,-1.2812 4.0616,-0.5928 3.3809,-0.163 5.1141,0.2632 4.5776,0.2619 4.5781,0.2619 4.5777,0.2622 4.5781,0.262 4.5777,0.262 4.5781,0.262 25.2255,2.1664"
     style="fill:none;stroke:#0ffbfb;stroke-width:0.89715463px;stroke-linecap:butt;stroke-linejoin:miter;stroke-opacity:1;marker-start:url(#DotM);marker-mid:none"
     id="DCC_END2"
     inkscape:connector-curvature="0" />
  <path
     sodipodi:nodetypes="cccccccccccczccccccccccccccccccccccc"
     d="m 2154.0044,2722.9846 -7.919,1.364 m -7.9188,1.3634 -21.1185,0.9664 -18.9385,-4.0172 -4.4285,-1.5055 -4.0362,-1.7367 -1.9954,-1.0519 -3.8762,-2.3609 -4.1333,-2.9483 -2.1101,-2.5783 m -2.0333,-2.5164 c 0,0 -1.2753,-1.6558 -1.5136,-2.079 -0.238,-0.4229 -1.2436,-3.0116 -1.2436,-3.0116 l -1.3365,-4.6971 -0.264,-4.482 -0.1489,-3.1472 0.1445,-3.0154 0.3683,-2.8972 0.3422,-3.0193 0.7134,-4.024 1.5484,-7.6299 3.2293,-4.7438 4.2632,-3.3048 4.739,-2.1244 4.6575,-1.2024 4.0174,-0.539 3.3517,-0.1276 5.0805,0.3041 4.5484,0.2981 4.5487,0.2981 4.5485,0.2979 4.5485,0.2981 4.5487,0.298 4.5485,0.298 25.6638,2.6767"
     style="fill:none;stroke:#ffba00;stroke-width:0.8815124px;stroke-linecap:butt;stroke-linejoin:miter;stroke-opacity:1;marker-start:url(#DotM);marker-mid:none"
     id="DCC_END"
     inkscape:connector-curvature="0" />
  <path
     inkscape:label="#DCC_START"
     sodipodi:nodetypes="cccccccccccccccccccccccccc"
     d="m 2098.3065,2658.3043 4.6545,0.1836 4.6545,0.1837 4.6542,0.1838 4.6545,0.1833 4.6542,0.1836 4.6545,0.1837 4.6544,0.1835 6.2125,0.5086 5.31,1.3447 4.3902,1.7163 4.5315,2.5797 4.1759,3.6097 3.3229,4.8067 1.9724,6.17 0.9934,5.99 0.7815,4.5799 0.5942,3.357 0.4312,2.3237 0.2927,1.4788 0.1789,0.8224 0.088,0.3557 0.3395,1.7712 5.8524,6.7949 18.5426,5.4361 18.9778,-0.9125"
     style="fill:none;stroke:#6ef10c;stroke-width:0.933056px;stroke-linecap:butt;stroke-linejoin:miter;stroke-opacity:1;marker-start:url(#DotM);marker-end:none"
     id="DCC_START"
     inkscape:connector-curvature="0" />
  <path
     inkscape:label="#DCC_START2"
     sodipodi:nodetypes="cccccccccccccccccccccccccccccczcc"
     d="m 2099.1988,2657.7067 4.5323,0.3171 4.5328,0.3169 4.5323,0.3169 4.5326,0.317 4.5325,0.3168 4.5324,0.317 4.5326,0.3172 4.0484,0.293 3.8475,1.053 4.3927,1.6948 4.5954,2.4792 4.3285,3.3982 3.5917,4.451 2.3843,5.6388 1.4199,5.4444 m -0.1613,7.5128 -1.2948,7.3325 -2.5021,5.6438 -3.1969,4.1597 -3.3787,2.8796 -3.0484,1.8041 -2.2048,0.9327 -0.8492,0.2653 -0.7464,0.3402 -2.0596,0.8984 -3.1022,1.2741 -3.8733,1.468 -4.3744,1.4791 m -4.604,1.3076 c 0,0 -3.8267,0.8409 -4.5637,0.9537 -0.737,0.1129 -4.2524,0.4173 -4.2524,0.4173 l -3.7044,0.03"
     style="fill:none;stroke:#8f15fb;stroke-width:0.8725462px;stroke-linecap:butt;stroke-linejoin:miter;stroke-opacity:1;marker-start:url(#DotM)"
     id="DCC_START2"
     inkscape:connector-curvature="0" />
  <text
     xml:space="preserve"
     style="font-size:40px;font-style:normal;font-weight:normal;line-height:125%;letter-spacing:0;word-spacing:0;fill:#000000;fill-opacity:1;stroke:none;font-family:Bitstream Vera Sans"
     x="41.216953"
     y="2746.4065"
     id="text9032"
     sodipodi:linespacing="125%"><tspan
       sodipodi:role="line"
       id="tspan9034"
       x="41.216953"
       y="2746.4065"
       style="font-size:20px">Legend</tspan></text>
  <path
     style="fill:none;stroke:#000000;stroke-width:1px;stroke-linecap:butt;stroke-linejoin:miter;stroke-opacity:1;marker-start:url(#DotM-5);marker-mid:none"
     d="m 2071.2214,3139.6418 12.2522,-15.1298 12.2516,-15.1302 12.2521,-15.1297 12.2519,-15.1298"
     id="path9036"
     inkscape:connector-curvature="0"
     sodipodi:nodetypes="ccccc" />
  <text
     xml:space="preserve"
     style="font-size:14px;font-style:normal;font-weight:normal;line-height:125%;letter-spacing:0;word-spacing:0;fill:#000000;fill-opacity:1;stroke:none;font-family:Bitstream Vera Sans"
     x="22.933142"
     y="2797.9272"
     id="text9430"
     sodipodi:linespacing="125%"><tspan
       sodipodi:role="line"
       id="tspan9432"
       x="22.933142"
       y="2797.9272"
       style="font-size:12px">Dot: Start of path</tspan><tspan
       sodipodi:role="line"
       x="22.933142"
       y="2827.9272"
       id="tspan9436"
       style="font-size:12px">Intersection: Single curve point</tspan><tspan
       sodipodi:role="line"
       x="22.933142"
       y="2842.9272"
       id="tspan9438"
       style="font-size:12px">Turn right: New path</tspan><tspan
       sodipodi:role="line"
       x="22.933142"
       y="2857.9272"
       id="tspan9440"
       style="font-size:12px">Turn left: New path, +2, new path</tspan><tspan
       sodipodi:role="line"
       x="22.933142"
       y="2872.9272"
       style="font-size:12px"
       id="tspan9444">Turn off signal: New path, </tspan><tspan
       sodipodi:role="line"
       x="22.933142"
       y="2887.9272"
       style="font-size:12px"
       id="tspan9448">                        single curve point</tspan></text>
  <rect
     style="fill:none;stroke:#000000;stroke-width:0.50000000000000000;stroke-miterlimit:4;stroke-opacity:1;stroke-dasharray:none"
     id="rect9450"
     width="219.03493"
     height="176.91283"
     x="9.360467"
     y="2719.7673" />
  <path
     style="fill:none;stroke:#ff0000;stroke-width:1px;stroke-linecap:butt;stroke-linejoin:miter;stroke-opacity:1;marker-start:url(#DotL)"
     d="m 736.96133,1771.6255 -113.77253,66.7079 -62.50828,-10.5272 -41.67726,18.3716"
     id="EA_START"
     inkscape:connector-curvature="0"
     inkscape:label="#path4312"
     sodipodi:nodetypes="cccc" />
  <path
     style="fill:none;stroke:#ff0000;stroke-width:1px;stroke-linecap:butt;stroke-linejoin:miter;stroke-opacity:1;marker-start:url(#DotL)"
     d="m 727.78468,1771.6505 -94.47688,63.7558 -43.11533,4.8647 -35.42621,-15.2132 -5.91593,-22.9309 13.56388,-30.3565 34.69158,-27.7224"
     id="EA_START2"
     inkscape:connector-curvature="0"
     inkscape:label="#path4514" />
  <path
     style="fill:none;stroke:#ff0000;stroke-width:1px;stroke-linecap:butt;stroke-linejoin:miter;stroke-opacity:1;marker-start:url(#DotL)"
     d="m 852.54165,1586.5371 -59.42977,37.106 -27.88016,25.3581 -4.24488,27.9194"
     id="EA_END"
     inkscape:connector-curvature="0"
     inkscape:label="#path3071" />
  <path
     style="fill:none;stroke:#000000;stroke-width:1px;stroke-linecap:butt;stroke-linejoin:miter;stroke-opacity:1"
     d="m 762.50417,1711.8627 -5.37489,29.1209 -17.70748,18.7825"
     id="EA_END2"
     inkscape:connector-curvature="0"
     sodipodi:nodetypes="ccc"
     inkscape:label="#path3073" />
  <path
     style="fill:none;stroke:#ff0000;stroke-width:1px;stroke-linecap:butt;stroke-linejoin:miter;stroke-opacity:1;marker-start:url(#DotL)"
     d="m 2223.4677,2709.7002 857.2291,-32.3483 33.2997,-6.6599 46.6196,-19.0284 16.1741,-12.3685 10.4656,-26.6397 10.4657,-24.737 29.494,-13.3198 20.9312,-4.7571 34.2511,6.6599 14.2713,14.2713 9.5142,22.8341 -4.7571,23.7855 -9.5142,14.2713 -17.1255,24.7369 -23.7855,7.6113 -27.5912,1.9029"
     id="DCC_MCD"
     inkscape:connector-curvature="0"
     inkscape:label="#path3069" />
  <path
     style="fill:none;stroke:#ff0000;stroke-width:1px;stroke-linecap:butt;stroke-linejoin:miter;stroke-opacity:1;marker-start:url(#DotL)"
     d="m 3250.0495,2684.0118 -97.0448,8.5628 -83.7249,6.6599 -111.3161,5.7086 -97.9962,5.7085 -147.4701,3.8057 -176.0126,3.8056 -107.5104,-1.9028 -145.5672,0 -67.5508,1.9028 -41.8625,0.9515"
     id="MCD_DCC"
     inkscape:connector-curvature="0"
     inkscape:label="#path3071" />
  <path
     style="fill:none;stroke:#ff0000;stroke-width:1px;stroke-linecap:butt;stroke-linejoin:miter;stroke-opacity:1;marker-start:url(#DotL)"
     d="m 2093.1232,2735.3885 -44.7167,6.6599 -50.4252,3.8057 -36.154,10.4656 -46.6195,28.5426 -32.3483,31.3969 -30.4454,35.2025 -16.1742,42.8139 -1.9028,39.9596 -1.9028,39.0082 6.6599,37.1054 10.4656,38.0568 23.7855,41.8624 32.3483,47.571 52.3281,91.3363 29.494,51.3767 13.3198,54.2309 -4.7571,51.3766 -9.5142,40.9111 -10.4656,18.077 -19.0284,13.3198 -41.8624,-4.7571 -39.9597,-17.1255 -172.2069,-109.4133 -176.9641,-116.0732 -157.9356,-102.7533 -254.0291,-161.7413 -93.2391,-58.0366 -35.20254,-24.737 -32.34826,-29.494 -84.67635,-105.6075 -100.85049,-127.4903 -69.45363,-85.6278 -97.04481,-121.7817 -59.93944,-76.1135 -25.68833,-39.9597 -34.2511,-58.0366 -66.59938,-108.4618 -32.34827,-51.3767 -19.02839,-34.2511 -5.70852,-26.6397 -1.90284,-32.3483 7.61136,-28.5426 15.22271,-21.8826 18.07698,-18.077 49.47382,-39.9596 176.01263,-135.1016"
     id="DCC_EA"
     inkscape:connector-curvature="0"
     sodipodi:nodetypes="ccccccccccccccccccccccccccccccccccccccccccccccc"
     inkscape:label="#path3073" />
  <path
     style="fill:none;stroke:#ff0000;stroke-width:1px;stroke-linecap:butt;stroke-linejoin:miter;stroke-opacity:1;marker-start:url(#DotL)"
     d="m 511.86377,1851.5196 -47.57098,35.2026 -44.71672,33.2996 -19.02839,18.077 -8.56278,17.1256 -4.7571,25.6883 7.61136,28.5426 13.31987,30.4454 18.07698,30.4454 43.7653,71.3565 43.7653,71.3565 18.07698,34.2511 29.49401,40.911 31.39685,39.9597 77.06499,97.0448 200.74955,256.8833 92.2877,110.3647 24.73691,27.5911 35.2025,30.4455 33.2997,21.8826 462.39,293.9887 78.9678,53.2795 127.4902,86.5792 143.6644,86.5792 26.6398,14.2713 17.1255,-3.8057 19.0284,-11.417 20.9312,-30.4455 6.66,-34.2511 -5.7085,-25.6883 -35.2026,-83.7249 -18.0769,-41.8625 -49.4739,-74.2107 -19.0284,-28.5426 -13.3198,-19.0284 -10.4657,-39.0082 -0.9514,-24.7369 -0.9514,-25.6884 -2.8543,-27.5911 5.7086,-37.1054 9.5142,-30.4454 13.3198,-27.5912 20.9313,-34.2511 25.6883,-27.5912 29.494,-23.7855 23.7855,-16.1741 24.7369,-12.3685 30.4454,-11.417"
     id="EA_DCC"
     inkscape:connector-curvature="0"
     inkscape:label="#path3075" />
  <path
     style="fill:none;stroke:#ff0000;stroke-width:1px;stroke-linecap:butt;stroke-linejoin:miter;stroke-opacity:1;marker-start:url(#DotL)"
     d="m 732.59314,1634.5959 151.27572,-114.1703 137.95584,-100.8505 129.3931,-91.3363 161.7414,-119.8789 50.4252,16.1742 14.2713,22.834 0.9514,33.2997 -49.4738,37.1054"
     id="EA_E3A"
     inkscape:connector-curvature="0"
     sodipodi:nodetypes="ccccccccc"
     inkscape:label="#path3077" />
  <path
     style="fill:none;stroke:#ff0000;stroke-width:1px;stroke-linecap:butt;stroke-linejoin:miter;stroke-opacity:1;marker-start:url(#DotL)"
     d="m 1357.6758,1293.9877 -60.8908,46.6196 -13.3199,8.5627 -35.2025,-5.7085 -29.494,-4.7571 -23.7855,5.7086 -36.154,15.2227 -151.2757,109.4132 -137.00441,100.8505"
     id="E3A_EA"
     inkscape:connector-curvature="0"
     inkscape:label="#path3079" />
</svg>
