<?xml version="1.0" encoding="UTF-8" standalone="no"?>
<svg
   xmlns:dc="http://purl.org/dc/elements/1.1/"
   xmlns:cc="http://creativecommons.org/ns#"
   xmlns:rdf="http://www.w3.org/1999/02/22-rdf-syntax-ns#"
   xmlns:svg="http://www.w3.org/2000/svg"
   xmlns="http://www.w3.org/2000/svg"
   xmlns:xlink="http://www.w3.org/1999/xlink"
   xmlns:sodipodi="http://sodipodi.sourceforge.net/DTD/sodipodi-0.dtd"
   xmlns:inkscape="http://www.inkscape.org/namespaces/inkscape"
   sodipodi:docname="path_def.svg"
   height="5808"
   width="5796"
   inkscape:version="0.48.3.1 r9886"
   id="svg2"
   version="1.1">
  <sodipodi:namedview
     pagecolor="#ffffff"
     bordercolor="#666666"
     borderopacity="1"
     objecttolerance="10"
     gridtolerance="10"
     guidetolerance="10"
     inkscape:pageopacity="0"
     inkscape:pageshadow="2"
     inkscape:window-width="1535"
     inkscape:window-height="876"
     id="namedview32"
     showgrid="false"
     inkscape:zoom="4.2042437"
     inkscape:cx="3464.2345"
     inkscape:cy="3781.4547"
     inkscape:window-x="65"
     inkscape:window-y="24"
     inkscape:window-maximized="1"
     inkscape:current-layer="svg2"
     showguides="true"
     inkscape:guide-bbox="true" />
  <metadata
     id="metadata36">
    <rdf:RDF>
      <cc:Work
         rdf:about="">
        <dc:format>image/svg+xml</dc:format>
        <dc:type
           rdf:resource="http://purl.org/dc/dcmitype/StillImage" />
        <dc:title>Paths of the golfcar</dc:title>
      </cc:Work>
    </rdf:RDF>
  </metadata>
  <defs
     id="defs34">
    <marker
       inkscape:stockid="Arrow1Send"
       orient="auto"
       refY="0.0"
       refX="0.0"
       id="Arrow1Send"
       style="overflow:visible;">
      <path
         id="path6236"
         d="M 0.0,0.0 L 5.0,-5.0 L -12.5,0.0 L 5.0,5.0 L 0.0,0.0 z "
         style="fill-rule:evenodd;stroke:#000000;stroke-width:1.0pt;marker-start:none;"
         transform="scale(0.2) rotate(180) translate(6,0)" />
    </marker>
    <marker
       inkscape:stockid="Arrow1Sstart"
       orient="auto"
       refY="0.0"
       refX="0.0"
       id="Arrow1Sstart"
       style="overflow:visible">
      <path
         id="path6233"
         d="M 0.0,0.0 L 5.0,-5.0 L -12.5,0.0 L 5.0,5.0 L 0.0,0.0 z "
         style="fill-rule:evenodd;stroke:#000000;stroke-width:1.0pt;marker-start:none"
         transform="scale(0.2) translate(6,0)" />
    </marker>
    <inkscape:path-effect
       steps="5"
       equidistant_spacing="true"
       trajectory="M 0,0 0,0"
       is_visible="true"
       id="path-effect3660"
       effect="interpolate" />
    <inkscape:path-effect
       phi="5"
       teeth="10"
       is_visible="true"
       id="path-effect3658"
       effect="gears" />
    <marker
       style="overflow:visible"
       id="DotM"
       refX="0.0"
       refY="0.0"
       orient="auto"
       inkscape:stockid="DotM">
      <path
         transform="scale(0.4) translate(7.4, 1)"
         style="fill-rule:evenodd;stroke:#000000;stroke-width:1.0pt;marker-start:none;marker-end:none"
         d="M -2.5,-1.0 C -2.5,1.7600000 -4.7400000,4.0 -7.5,4.0 C -10.260000,4.0 -12.5,1.7600000 -12.5,-1.0 C -12.5,-3.7600000 -10.260000,-6.0 -7.5,-6.0 C -4.7400000,-6.0 -2.5,-3.7600000 -2.5,-1.0 z "
         id="path3704" />
    </marker>
    <marker
       style="overflow:visible"
       id="DotL"
       refX="0.0"
       refY="0.0"
       orient="auto"
       inkscape:stockid="DotL">
      <path
         transform="scale(0.8) translate(7.4, 1)"
         style="fill-rule:evenodd;stroke:#000000;stroke-width:1.0pt;marker-start:none;marker-end:none"
         d="M -2.5,-1.0 C -2.5,1.7600000 -4.7400000,4.0 -7.5,4.0 C -10.260000,4.0 -12.5,1.7600000 -12.5,-1.0 C -12.5,-3.7600000 -10.260000,-6.0 -7.5,-6.0 C -4.7400000,-6.0 -2.5,-3.7600000 -2.5,-1.0 z "
         id="path3701" />
    </marker>
    <marker
       style="overflow:visible;"
       id="Arrow1Lend"
       refX="0.0"
       refY="0.0"
       orient="auto"
       inkscape:stockid="Arrow1Lend">
      <path
         transform="scale(0.8) rotate(180) translate(12.5,0)"
         style="fill-rule:evenodd;stroke:#000000;stroke-width:1.0pt;marker-start:none;"
         d="M 0.0,0.0 L 5.0,-5.0 L -12.5,0.0 L 5.0,5.0 L 0.0,0.0 z "
         id="path3642" />
    </marker>
    <marker
       style="overflow:visible"
       id="Arrow1Lstart"
       refX="0.0"
       refY="0.0"
       orient="auto"
       inkscape:stockid="Arrow1Lstart">
      <path
         transform="scale(0.8) translate(12.5,0)"
         style="fill-rule:evenodd;stroke:#000000;stroke-width:1.0pt;marker-start:none"
         d="M 0.0,0.0 L 5.0,-5.0 L -12.5,0.0 L 5.0,5.0 L 0.0,0.0 z "
         id="path3639" />
    </marker>
    <inkscape:path-effect
       crossing_points_vector=""
       switcher_size="15"
       add_other_stroke_width="true"
       add_stroke_width="true"
       prop_to_stroke_width="true"
       interruption_width="3.6"
       is_visible="true"
       id="path-effect2862"
       effect="knot" />
    <inkscape:path-effect
       crossing_points_vector=""
       switcher_size="15"
       add_other_stroke_width="true"
       add_stroke_width="true"
       prop_to_stroke_width="true"
       interruption_width="3"
       is_visible="true"
       id="path-effect2860"
       effect="knot" />
    <inkscape:path-effect
       steps="5"
       equidistant_spacing="true"
       trajectory="M 0,0 0,0"
       is_visible="true"
       id="path-effect2858"
       effect="interpolate" />
    <inkscape:path-effect
       bendpath4="m 1068.3624,2136.3724 0,121.4273"
       bendpath3="m 1068.3624,2257.7997 48.7175,0"
       bendpath2="m 1117.0799,2136.3724 0,121.4273"
       bendpath1="m 1068.3624,2136.3724 48.7175,0"
       xx="true"
       yy="true"
       is_visible="true"
       id="path-effect2856"
       effect="envelope" />
    <inkscape:path-effect
       tgtlength_rdm="0.3;1"
       tgtlength="100"
       tgtscale="10"
       tgt_places_rdmness="1;1"
       nbtangents="5"
       tremble_frequency="1"
       tremble_size="5;1"
       parallel_offset="5;1"
       ends_tolerance="0.1;1"
       strokeoverlap_rdm="0.3;1"
       strokeoverlap="0.3"
       strokelength_rdm="0.3;1"
       strokelength="100"
       nbiter_approxstrokes="5"
       is_visible="true"
       id="path-effect2854"
       effect="sketch" />
    <inkscape:path-effect
       border_marks="both"
       mark_dir="left"
       offset="0"
       shift="0"
       major_mark_steps="5"
       minor_mark_length="7"
       mark_length="14"
       mark_distance="20"
       unit="px"
       is_visible="true"
       id="path-effect2852"
       effect="ruler" />
    <inkscape:path-effect
       border_marks="both"
       mark_dir="left"
       offset="0"
       shift="0"
       major_mark_steps="5"
       minor_mark_length="7"
       mark_length="14"
       mark_distance="20"
       unit="px"
       is_visible="true"
       id="path-effect2850"
       effect="ruler" />
    <inkscape:path-effect
       phi="5"
       teeth="10"
       is_visible="true"
       id="path-effect2848"
       effect="gears" />
    <inkscape:perspective
       id="perspective38"
       inkscape:persp3d-origin="1528.5 : 1178.6667 : 1"
       inkscape:vp_z="3057 : 1768 : 1"
       inkscape:vp_y="0 : 1000 : 0"
       inkscape:vp_x="0 : 1768 : 1"
       sodipodi:type="inkscape:persp3d" />
    <inkscape:perspective
       sodipodi:type="inkscape:persp3d"
       inkscape:vp_x="0 : 0.5 : 1"
       inkscape:vp_y="0 : 1000 : 0"
       inkscape:vp_z="1 : 0.5 : 1"
       inkscape:persp3d-origin="0.5 : 0.33333333 : 1"
       id="perspective2947" />
    <inkscape:perspective
       sodipodi:type="inkscape:persp3d"
       inkscape:vp_x="0 : 0.5 : 1"
       inkscape:vp_y="0 : 1000 : 0"
       inkscape:vp_z="1 : 0.5 : 1"
       inkscape:persp3d-origin="0.5 : 0.33333333 : 1"
       id="perspective2824" />
    <inkscape:perspective
       sodipodi:type="inkscape:persp3d"
       inkscape:vp_x="0 : 0.5 : 1"
       inkscape:vp_y="0 : 1000 : 0"
       inkscape:vp_z="1 : 0.5 : 1"
       inkscape:persp3d-origin="0.5 : 0.33333333 : 1"
       id="perspective2960" />
    <inkscape:perspective
       sodipodi:type="inkscape:persp3d"
       inkscape:vp_x="0 : 0.5 : 1"
       inkscape:vp_y="0 : 1000 : 0"
       inkscape:vp_z="1 : 0.5 : 1"
       inkscape:persp3d-origin="0.5 : 0.33333333 : 1"
       id="perspective3024" />
    <inkscape:perspective
       sodipodi:type="inkscape:persp3d"
       inkscape:vp_x="0 : 0.5 : 1"
       inkscape:vp_y="0 : 1000 : 0"
       inkscape:vp_z="1 : 0.5 : 1"
       inkscape:persp3d-origin="0.5 : 0.33333333 : 1"
       id="perspective3088" />
    <inkscape:perspective
       sodipodi:type="inkscape:persp3d"
       inkscape:vp_x="0 : 0.5 : 1"
       inkscape:vp_y="0 : 1000 : 0"
       inkscape:vp_z="1 : 0.5 : 1"
       inkscape:persp3d-origin="0.5 : 0.33333333 : 1"
       id="perspective3152" />
    <inkscape:perspective
       sodipodi:type="inkscape:persp3d"
       inkscape:vp_x="0 : 0.5 : 1"
       inkscape:vp_y="0 : 1000 : 0"
       inkscape:vp_z="1 : 0.5 : 1"
       inkscape:persp3d-origin="0.5 : 0.33333333 : 1"
       id="perspective3216" />
    <inkscape:perspective
       sodipodi:type="inkscape:persp3d"
       inkscape:vp_x="0 : 0.5 : 1"
       inkscape:vp_y="0 : 1000 : 0"
       inkscape:vp_z="1 : 0.5 : 1"
       inkscape:persp3d-origin="0.5 : 0.33333333 : 1"
       id="perspective3280" />
    <inkscape:perspective
       sodipodi:type="inkscape:persp3d"
       inkscape:vp_x="0 : 0.5 : 1"
       inkscape:vp_y="0 : 1000 : 0"
       inkscape:vp_z="1 : 0.5 : 1"
       inkscape:persp3d-origin="0.5 : 0.33333333 : 1"
       id="perspective3344" />
    <inkscape:perspective
       sodipodi:type="inkscape:persp3d"
       inkscape:vp_x="0 : 0.5 : 1"
       inkscape:vp_y="0 : 1000 : 0"
       inkscape:vp_z="1 : 0.5 : 1"
       inkscape:persp3d-origin="0.5 : 0.33333333 : 1"
       id="perspective3408" />
    <inkscape:perspective
       sodipodi:type="inkscape:persp3d"
       inkscape:vp_x="0 : 0.5 : 1"
       inkscape:vp_y="0 : 1000 : 0"
       inkscape:vp_z="1 : 0.5 : 1"
       inkscape:persp3d-origin="0.5 : 0.33333333 : 1"
       id="perspective3628" />
    <inkscape:perspective
       sodipodi:type="inkscape:persp3d"
       inkscape:vp_x="0 : 0.5 : 1"
       inkscape:vp_y="0 : 1000 : 0"
       inkscape:vp_z="1 : 0.5 : 1"
       inkscape:persp3d-origin="0.5 : 0.33333333 : 1"
       id="perspective2848" />
    <inkscape:perspective
       sodipodi:type="inkscape:persp3d"
       inkscape:vp_x="0 : 0.5 : 1"
       inkscape:vp_y="0 : 1000 : 0"
       inkscape:vp_z="1 : 0.5 : 1"
       inkscape:persp3d-origin="0.5 : 0.33333333 : 1"
       id="perspective3658" />
    <inkscape:perspective
       sodipodi:type="inkscape:persp3d"
       inkscape:vp_x="0 : 0.5 : 1"
       inkscape:vp_y="0 : 1000 : 0"
       inkscape:vp_z="1 : 0.5 : 1"
       inkscape:persp3d-origin="0.5 : 0.33333333 : 1"
       id="perspective3691" />
    <inkscape:perspective
       sodipodi:type="inkscape:persp3d"
       inkscape:vp_x="0 : 0.5 : 1"
       inkscape:vp_y="0 : 1000 : 0"
       inkscape:vp_z="1 : 0.5 : 1"
       inkscape:persp3d-origin="0.5 : 0.33333333 : 1"
       id="perspective3713" />
    <inkscape:perspective
       sodipodi:type="inkscape:persp3d"
       inkscape:vp_x="0 : 0.5 : 1"
       inkscape:vp_y="0 : 1000 : 0"
       inkscape:vp_z="1 : 0.5 : 1"
       inkscape:persp3d-origin="0.5 : 0.33333333 : 1"
       id="perspective3735" />
    <inkscape:perspective
       sodipodi:type="inkscape:persp3d"
       inkscape:vp_x="0 : 0.5 : 1"
       inkscape:vp_y="0 : 1000 : 0"
       inkscape:vp_z="1 : 0.5 : 1"
       inkscape:persp3d-origin="0.5 : 0.33333333 : 1"
       id="perspective3757" />
    <inkscape:perspective
       sodipodi:type="inkscape:persp3d"
       inkscape:vp_x="0 : 0.5 : 1"
       inkscape:vp_y="0 : 1000 : 0"
       inkscape:vp_z="1 : 0.5 : 1"
       inkscape:persp3d-origin="0.5 : 0.33333333 : 1"
       id="perspective2910" />
    <marker
       style="overflow:visible"
       id="DotM-1"
       refX="0"
       refY="0"
       orient="auto"
       inkscape:stockid="DotM">
      <path
         transform="matrix(0.4,0,0,0.4,2.96,0.4)"
         style="fill-rule:evenodd;stroke:#000000;stroke-width:1pt;marker-start:none;marker-end:none"
         d="m -2.5,-1 c 0,2.76 -2.24,5 -5,5 -2.76,0 -5,-2.24 -5,-5 0,-2.76 2.24,-5 5,-5 2.76,0 5,2.24 5,5 z"
         id="path3704-5" />
    </marker>
    <inkscape:perspective
       sodipodi:type="inkscape:persp3d"
       inkscape:vp_x="0 : 0.5 : 1"
       inkscape:vp_y="0 : 1000 : 0"
       inkscape:vp_z="1 : 0.5 : 1"
       inkscape:persp3d-origin="0.5 : 0.33333333 : 1"
       id="perspective3012" />
    <inkscape:perspective
       sodipodi:type="inkscape:persp3d"
       inkscape:vp_x="0 : 0.5 : 1"
       inkscape:vp_y="0 : 1000 : 0"
       inkscape:vp_z="1 : 0.5 : 1"
       inkscape:persp3d-origin="0.5 : 0.33333333 : 1"
       id="perspective2903" />
    <marker
       style="overflow:visible"
       id="DotM-5"
       refX="0"
       refY="0"
       orient="auto"
       inkscape:stockid="DotM">
      <path
         transform="matrix(0.4,0,0,0.4,2.96,0.4)"
         style="fill-rule:evenodd;stroke:#000000;stroke-width:1pt;marker-start:none;marker-end:none"
         d="m -2.5,-1 c 0,2.76 -2.24,5 -5,5 -2.76,0 -5,-2.24 -5,-5 0,-2.76 2.24,-5 5,-5 2.76,0 5,2.24 5,5 z"
         id="path3704-9" />
    </marker>
    <inkscape:perspective
       sodipodi:type="inkscape:persp3d"
       inkscape:vp_x="0 : 0.5 : 1"
       inkscape:vp_y="0 : 1000 : 0"
       inkscape:vp_z="1 : 0.5 : 1"
       inkscape:persp3d-origin="0.5 : 0.33333333 : 1"
       id="perspective2889" />
    <filter
       id="filter3830"
       inkscape:label="Colorize"
       inkscape:menu="Color"
       inkscape:menu-tooltip="Blend image or object with a flood color and set lightness and contrast"
       x="0"
       y="0"
       width="1"
       height="1"
       color-interpolation-filters="sRGB">
      <feColorMatrix
         id="feColorMatrix3832"
         values="1"
         in="SourceGraphic"
         type="saturate"
         result="result2" />
      <feFlood
         id="feFlood3834"
         flood-color="rgb(254,102,0)"
         flood-opacity="1"
         result="result1" />
      <feBlend
         id="feBlend3836"
         in2="result2"
         mode="multiply"
         in="result1"
         result="result3" />
      <feComposite
         id="feComposite3838"
         in2="SourceGraphic"
         operator="in"
         k2="1"
         result="result4" />
    </filter>
    <marker
       style="overflow:visible"
       id="DotM-7"
       refX="0"
       refY="0"
       orient="auto"
       inkscape:stockid="DotM">
      <path
         inkscape:connector-curvature="0"
         transform="matrix(0.4,0,0,0.4,2.96,0.4)"
         style="fill-rule:evenodd;stroke:#000000;stroke-width:1pt;marker-start:none;marker-end:none"
         d="m -2.5,-1 c 0,2.76 -2.24,5 -5,5 -2.76,0 -5,-2.24 -5,-5 0,-2.76 2.24,-5 5,-5 2.76,0 5,2.24 5,5 z"
         id="path3704-3" />
    </marker>
    <marker
       style="overflow:visible"
       id="DotM-70"
       refX="0"
       refY="0"
       orient="auto"
       inkscape:stockid="DotM">
      <path
         inkscape:connector-curvature="0"
         transform="matrix(0.4,0,0,0.4,2.96,0.4)"
         style="fill-rule:evenodd;stroke:#000000;stroke-width:1pt;marker-start:none;marker-end:none"
         d="m -2.5,-1 c 0,2.76 -2.24,5 -5,5 -2.76,0 -5,-2.24 -5,-5 0,-2.76 2.24,-5 5,-5 2.76,0 5,2.24 5,5 z"
         id="path3704-8" />
    </marker>
  </defs>
  <title
     id="title4">Paths of the golfcar</title>
  <desc
     id="desc6">The paths consist of all the possible route that can be taken by the golfcart to serve 4 stations: DCC, MCD, EA and E3A</desc>
  <image
     sodipodi:absref="/home/golfcar/smartfm/bookingUI/shared/SvgPath/science_center_complete.png"
     xlink:href="science_center_complete.png"
     inkscape:label="#image3014"
     y="0"
     x="0"
     id="map"
     height="5808"
     width="5796"
     style="fill:#aa4400;font-size:14px" />
  <path
     style="fill:none;stroke:#000000;stroke-width:0.5px;stroke-linecap:butt;stroke-linejoin:miter;stroke-opacity:1"
     d="m 350.17469,1697.4002 2.9458,7.3425 2.3307,7.3666 7.8183,9.5649 13.1666,9.6057 8.9667,6.6768 14.0533,-6.225 7.6552,-12.9187 1.4201,-8.7698 0.058,-9.344 -2.9529,-32.7593 -1.2878,-18.9636"
     id="DCC_EA"
     inkscape:connector-curvature="0"
     inkscape:label="#path3076"
     sodipodi:nodetypes="cccccccccccc" />
  <path
     style="fill:none;stroke:#000000;stroke-width:0.5px;stroke-linecap:butt;stroke-linejoin:miter;stroke-opacity:1"
     d="m 569.6328,1027.9119 -4.7093,1.3456 -4.3729,2.6909 -1.6819,3.7002 1.0091,3.3638 1.6819,4.7093 2.0183,3.7001"
     id="DCC_EA3"
     inkscape:connector-curvature="0"
     inkscape:label="#path3084" />
  <path
     style="fill:none;stroke:#ff00ff;stroke-width:0.50000000000000000px;stroke-linecap:butt;stroke-linejoin:miter;stroke-opacity:1"
     d="m 2992.1245,2358.4828 -8.188,0.2071 -8.3494,0.068 -8.2775,-0.076 -8.277,-0.1037 -8.5053,-0.2867 -8.6754,-0.5387 -8.3803,-0.5773 -8.5453,-0.6855 -8.6476,-0.6786 -8.4539,-0.7373 -8.9556,-1.1877 -8.6189,-1.4147 -8.1752,-1.5831 -8.1381,-1.9786 -8.3493,-1.9754 -8.416,-2.5583 -8.289,-2.7309 -8.8947,-3.2439 -9.145,-4.2731 -8.8964,-4.7197 -8.5939,-5.2011 -8.0547,-5.8641 -7.8363,-5.9862 -8.7812,-7.6936 -8.6603,-8.3538 -8.1308,-9.3544 -7.3424,-9.1803 -6.5174,-8.659 -6.0736,-9.2773 -5.9732,-9.5581 -5.3948,-9.0603 -4.9022,-8.4505 -4.5798,-8.3211 -4.6272,-8.04 -4.486,-8.5492 -4.2917,-8.5068"
     id="DCC_START"
     inkscape:label="#path3066" />
  <path
     style="fill:none;stroke:#0000ff;stroke-width:0.5px;stroke-linecap:butt;stroke-linejoin:miter;stroke-opacity:1"
     d="m 2713.7438,2190.7767 -3.9793,-8.5657 -4.0919,-8.3753 -3.9965,-8.483 -3.9023,-8.7567 -3.9019,-8.6694 -4.086,-9.0138 -3.9712,-8.7408 -4.1149,-9.0634 -3.9042,-9.1707 -4.0163,-9.3146 -3.713,-9.2966 -4.0279,-9.2317 -3.7889,-8.8714 -3.8917,-8.9883 -3.6827,-8.9051 -3.337,-8.3581 -3.233,-8.5753 -2.881,-8.2613 -2.7346,-8.1376 -2.4278,-8.3086 -1.905,-8.2277 -1.6517,-8.1334 -1.2406,-7.6911 -0.4994,-9.0018 -0.277,-8.1422 0.688,-9.0348 1.6018,-9.3141 2.6614,-8.8445 3.7929,-8.1869 6.1131,-8.2675 7.9058,-7.7441 9.2938,-7.1885 10.4733,-7.0111 10.6446,-5.6186 10.0234,-4.7845 8.9391,-3.5773 9.5448,-2.9571 9.3233,-2.469 9.9197,-1.7813 9.9383,-1.1984 10.0452,-0.281 9.9451,0.4881 10.1113,1.4498 8.885,1.7077 10.4393,2.7803 9.5623,2.5103 8.9238,2.4551 7.9774,2.3639 8.9326,2.4222 8.068,2.5256 8.0641,2.1029 8.2253,2.063 8.5914,1.9269 8.5605,2.12 8.4095,1.7007 8.7242,1.8937 8.6053,1.6941 8.5893,1.7522 8.3616,1.5951 8.4678,1.5026 8.1459,1.5393 8.0691,1.4359 8.7926,1.481 9.5937,1.4219 9.4369,1.5483 9.2762,1.5207 9.0679,1.3647 9.0027,1.4949 9.7046,1.2569 8.2409,1.23 9.0669,1.3258 9.6984,1.4572 9.27,1.3794 8.1763,1.2464 8.4154,1.184 8.4633,1.2431 8.5229,1.3349 8.5085,1.1986 8.2567,1.0425 8.2585,1.3377 8.2359,1.3408 8.2724,1.299 8.2759,1.146 9.4298,1.1385 9.3554,1.3279 7.9714,1.0434 10.316,1.4628 10.3035,1.4934 10.2711,1.3263 10.0344,1.3696 10.1022,1.3585 9.7098,1.2893 9.6962,1.2062 9.8511,1.3318 9.6126,1.0364 9.4787,1.0697 9.8445,1.1485 9.854,1.0026 9.9379,1.269 9.9101,1.0618 9.8603,0.9129 10.0894,1.0234 10.0494,1.0852 9.0631,0.8934 7.9947,0.7727 8.0988,0.6229 8.1775,0.7271 8.3722,0.691 8.033,0.7645 8.4101,0.6881 8.1692,0.7819 7.9466,0.6199 8.0029,0.7431 8.0133,0.6763 8.1395,0.6683 7.9848,0.5901 8.3138,0.7215 8.2967,0.5452 8.1379,0.5819 8.2973,0.6517 8.358,0.473 8.3454,0.7011 8.3385,0.6987 8.2648,0.605 8.3547,0.6634 8.3661,0.6955 8.4617,0.6213 8.3601,0.6257 8.279,0.6439 8.3093,0.5889 8.0744,0.636 8.2688,0.656 8.4355,0.6305 8.0358,0.7182 8.0774,0.7378 8.4026,0.79 8.2391,0.8403 8.1713,0.7399 8.7582,0.8965 8.7744,0.6856 8.9104,0.7568 8.8757,0.6098 8.8135,0.753 8.7413,0.6096 8.8632,0.6392 8.6065,0.6497 8.5555,0.5292 8.604,0.4971 8.5603,0.5818 8.4681,0.5174 8.3761,0.5349 8.2217,0.4604 8.1058,0.5912 8.333,0.7416 8.073,0.5718 8.147,0.6468 8.2128,0.8153 8.2644,0.8379 8.1357,0.667 8.3569,0.8128 8.3144,0.9524 8.1045,0.884 8.2018,0.957 8.3485,1.0291 8.5079,1.1626 8.6027,1.0497 8.647,0.9323 8.5362,1.1367 8.6232,1.2556 8.7331,1.221 8.835,1.2159 8.8363,1.1606 8.8714,1.2154 8.9769,1.1841 9.1402,1.0929 9.2725,1.0459 9.1508,0.9407 9.1873,0.8503 9.196,0.5521 9.12,0.7882 9.1948,0.8028 9.1279,0.939 9.045,0.7061 8.9247,0.7475 9.2303,0.759 8.9584,0.6225 8.9692,0.6602 9.0234,0.5699 9.1942,0.4423 9.2353,0.6043 9.4731,0.3406 9.5378,0.4792 9.8786,0.2956 10.0317,0.1264 10.2,0.03 10.344,0.037 10.3269,0.079 10.4605,0.1808 10.2515,0.1034 10.2735,0 10.5625,0.073 10.461,-0.015 10.8131,0.021 10.6703,0.1312 10.6725,0.063 10.8697,0.047 10.5668,0.044 10.5919,0.1697 10.5373,0.075 10.4257,0.1293 10.6023,0.1145 10.1034,0.2731 10.0414,0.142 10.0137,0.3322 9.8782,0.3642 9.5864,0.2731 9.6689,0.3616 9.4091,0.276 9.3232,0.2521 9.5762,0.2427 8.9224,0.3081 9.3535,0.2391 8.6804,0.2609 8.6553,0.124 8.5429,0.1609 9.3274,0.2609 10.3352,0.3434 10.4078,0.3149 10.172,0.4305 10.0496,0.4482 9.7397,0.3723 9.7958,0.354 9.8174,0.4929 9.5683,0.4339 9.6433,0.5656 9.9835,0.4465 9.9942,0.4138 10.2817,0.4266 9.4938,0.3526 8.2348,0.5308 8.652,0.3947 9.2869,0.4046 9.2403,0.5316 9.7081,0.5215 10.0265,0.325 10.0224,0.5183 10.3271,0.4672 10.389,0.3396 10.6632,0.3434 10.8174,0.57 10.5349,0.7283 10.6945,0.7952 10.5002,0.4588 10.1635,0.482 10.4568,0.524 10.3125,0.4465 10.0619,0.3688 9.8762,0.6056 10.0602,0.4784 10.0229,0.5236 9.8315,0.3956 9.9943,0.3042 9.7424,0.2367 9.674,0.2245 9.5721,-0.098 9.3623,-0.2516 9.4398,-0.2236 9.2881,-0.4999 9.1532,-0.609 8.9016,-0.5929 9.4452,-0.829 8.9318,-1.0706 8.8778,-1.104 9.0646,-1.2936 8.7065,-1.315 8.8399,-1.5039 8.7283,-1.4288 8.5204,-1.3379 8.7087,-1.2196 8.4848,-1.2827 8.5319,-1.2909 8.3055,-1.1126 8.4242,-1.0948 8.3188,-0.7676 8.2025,-0.9626 8.3244,-0.7157 9.4479,-0.5637 9.2802,-0.4788 10.615,-0.3476 10.3752,-0.069 10.316,0.2515 10.0264,0.4677 9.9641,0.7284 9.9512,1.0956 12.0614,1.9571 9.6347,1.5576 9.6007,2.0872 9.2122,2.2365 9.2017,2.5702 8.8329,3.0464 8.678,3.4237 8.4213,3.9993 8.0122,4.4837 8.5289,5.5014 9.2191,6.8223 8.7576,7.2432 8.3512,7.8432 7.5805,8.2031 7.1893,8.7132 6.3941,9.0424 5.9534,9.4987 5.5506,9.7153 3.8612,9.2006 2.7335,8.2342 2.5221,8.1513 1.7634,8.3048 1.7114,8.6921 1.2551,9.2107 0.9744,9.7251 -0.094,10.4571 -0.039,9.338 -0.4161,8.0947 -0.6765,8.0096 -1.0037,7.9011 -0.7745,7.7795 -0.6227,7.7052 -0.8236,7.701 -0.8525,7.6561 -0.8075,7.7116 -1.1478,7.6973 -1.2724,7.7448 -1.363,7.9215 -1.3865,7.798 -1.5485,7.7955 -1.8087,7.8638 -1.8495,8.0003 -1.6142,7.8712 -1.6091,8.2744 -1.4945,8.3533 -1.4767,8.3961 -1.2877,8.7221 -1.255,8.8613 -1.4443,8.8876 -1.3828,8.8929 -1.4152,8.9734 -1.4216,8.7561 -1.3714,8.8505 -1.5793,8.8085 -2.0309,8.4878 -2.0239,8.6802 -2.1088,8.3986 -2.1509,8.2939 -2.4464,8.1412 -2.6182,8.1666 -2.6448,7.9849 -2.5703,7.9958 -2.936,7.8026 -3.9826,10.2529 -4.2726,10.1439 -4.5027,9.9775 -4.8071,9.7929 -5.2169,9.395 -5.4535,9.119 -6.8402,9.9908 -6.2374,8.3907 -6.5247,8.0317 -8.4143,9.4806 -8.7738,9.0162 -8.9175,8.2484 -8.9585,7.5716 -9.3066,6.9447 -9.7175,6.2986 -8.8061,4.8594 -8.0183,3.9017 -8.1919,3.7502 -8.2589,2.7084 -8.6715,2.3825 -8.5561,2.1372 -8.7563,1.9615 -9.0527,1.5698 -9.0708,1.195 -9,1.0114 -9.1611,0.8983 -9.1524,0.6585 -9.4525,0.5103 -9.7908,0.1267 -10.2091,-0.27 -10.4319,-0.6367 -8.065,-0.7243 -8.1278,-0.8791 -8.5011,-0.9834 -8.9848,-1.1207 -8.9349,-1.2836 -8.7488,-1.3634 -10.5888,-1.6822 -9.3321,-1.1472 -9.5357,-1.2571 -9.763,-1.2123 -9.6587,-1.1629 -9.9416,-1.3157 -9.8311,-1.2495 -9.8057,-1.253 -10.0594,-1.3315 -10.0092,-1.2711 -10.0226,-1.1598 -9.9165,-1.1466 -9.8276,-1.1572 -10.071,-1.0569 -9.9254,-1.1516 -10.1071,-1.1751 -10.1718,-1.103 -10.2376,-1.2258 -10.558,-1.2875 -10.1751,-1.1825 -10.0177,-1.1345 -10.3678,-1.0617 -10.2052,-0.9121 -10.174,-1.236 -10.1821,-1.2642 -9.6821,-0.8181 -9.9416,-1.1448 -9.7517,-1.0063 -9.6533,-0.9953 -9.6358,-0.8951 -9.4122,-1.0778 -9.3731,-1.0259 -9.2597,-0.8781 -8.9803,-0.9381 -8.6898,-0.8025 -8.7442,-0.8602 -8.5273,-0.7859 -8.3779,-0.8382 -8.3675,-0.9689 -8.1937,-0.6119 -8.0327,-0.7736 -9.1734,-0.8846 -10.5018,-1.2087 -9.9887,-1.106 -10.1212,-0.994 -9.935,-0.92 -9.945,-0.9899 -9.4378,-0.8817 -9.5341,-1.0106 -9.4892,-1.0639 -9.3365,-1.1919 -9.2593,-1.2885 -9.0998,-1.3758 -9.2039,-1.6909 -9.4108,-2.0184 -8.9589,-2.0822 -9.6479,-2.5014 -10.1564,-2.7419 -9.8949,-3.0089 -9.7748,-3.1227 -9.6534,-3.4839 -9.3631,-3.7829 -9.2282,-4.1391 -9.032,-4.5316 -8.7023,-5.0165 -8.352,-5.5095 -7.8569,-5.7779 -9.4547,-7.5063 -8.851,-8.0537 -8.4183,-8.6987 -7.7977,-9.2993 -6.7784,-9.1299 -5.4206,-8.3812 -5.2847,-8.8052 -4.9692,-9.0377 -4.3878,-9.5071 -4.0543,-9.8059 -3.4783,-9.9138 -2.919,-9.963 -2.3181,-9.8347 -1.8052,-10.1162 -1.1588,-10.2631 -0.5405,-10.2328 -0.2239,-10.487 0.5417,-10.1861 0.9379,-10.0701 1.5889,-9.7859 2.2404,-9.5368 2.7676,-9.4714 3.4705,-9.0155 3.6457,-9.0613 4.4482,-8.6217 5.3533,-8.192 5.9649,-7.6129 6.7987,-7.0927 8.4151,-7.4247 9.7094,-7.798 10.4699,-6.9304 10.5993,-6.1217 10.9094,-5.4157 9.8071,-4.2236 8.8565,-3.5493 9.0307,-3.1795 9.1817,-2.7458 16.2844,-3.5313 17.2622,-3.7434 18.379,-3.9855 10.0995,-2.1901"
     id="DCC_MCD"
     inkscape:connector-curvature="0"
     sodipodi:nodetypes="ccccccccccccccccccccccccccccccccccccccccccccccccccccccccccccccccccccccccccccccccccccccccccccccccccccccccccccccccccccccccccccccccccccccccccccccccccccccccccccccccccccccccccccccccccccccccccccccccccccccccccccccccccccccccccccccccccccccccccccccccccccccccccccccccccccccccccccccccccccccccccccccccccccccccccccccccccccccccccccccccccccccccccccccccccccccccccccccccccccccccccccccccccccccccccccccccccccccccccccccccccccccccccccccccccccccccccccccccccccccccccccccccccccccccccccccccccccccccccccccccccccccccccccccccccccccc" />
  <path
     style="fill:none;stroke:#008000;stroke-width:0.50000000000000000px;stroke-linecap:butt;stroke-linejoin:miter;stroke-opacity:1"
     d="m 4252.533,2276.009 13.429,-3.8407 11.497,-3.2882 12.0621,-3.4498 11.6228,-3.3241 12.1566,-3.4768 6.989,-1.9989 9.7457,-1.5429 10.0006,-1.0308 10.1545,-0.8045 10.2927,-0.4029 10.2614,-0.094 10.6673,0.1129 10.3513,0.1963 7.9325,0.1891 8.0913,0.4491 8.0682,0.4363 8.2367,0.6391 8.404,0.5478 8.2762,0.7258 8.3822,0.5983 8.3363,0.6175 8.5975,0.6149 8.7038,0.8713 8.9455,0.6996 8.694,0.5428 9.4971,0.6244 8.8825,0.6423 9.1908,0.7268 9.1405,0.727 9.2658,0.9446 9.5459,0.5957 9.4009,0.7268 9.3044,0.6806 9.1615,0.727 8.6779,0.6273 9.0353,0.8045 8.6966,0.5151 8.962,0.4338 8.6159,0.5289 8.5948,0.5276 8.4719,0.5349 8.302,0.515 8.4577,0.4493 8.5891,0.6074 8.4514,0.5979 8.5267,0.7038 8.8341,0.5692 8.4464,0.781 8.5546,0.6011 8.5643,0.5709 8.5957,0.7352 8.4895,0.7746 8.5974,0.8452 8.3581,0.8281 8.3277,0.8454 8.3848,0.9943 8.3898,0.8293 8.2637,0.9706 8.2855,1.1123 8.4227,1.1171 8.2026,1.0945 8.0678,1.0552 8.0341,1.1816 10.5043,1.4402 9.3238,1.3808 8.9398,1.2284 10.2507,1.2865 10.135,1.1378 9.9482,1.1315 9.8396,0.8931 9.9564,0.9051 9.5322,0.6913 9.481,0.6022 9.4726,0.7354 9.2144,0.6958 9.0404,0.6584 8.8985,0.3049 8.7767,0.4275 8.4876,0.2036 8.2437,0.01 8.0762,0.3182 8.1366,0.096 7.9715,-0.1793 8.9095,-0.1722 9.5026,-0.7329 9.4114,-1.0333 8.8252,-1.5095 8.5289,-2.106 8.2834,-2.3951 9.5232,-3.4012 9.1893,-4.11 8.629,-4.4871 9.4802,-5.7699 8.9515,-6.5502 8.7745,-8.0784 7.1882,-7.9628 5.7491,-7.8924 4.7908,-8.6728 3.8771,-9.063 2.859,-8.7122 1.9292,-8.2324 1.1904,-8.291 0.6331,-8.6462 -0.1293,-8.7384 -0.9973,-8.6782 -1.9061,-8.544 -2.6842,-8.3598 -4.0623,-9.5539 -4.0574,-9.0267 -5.4632,-9.1773 -6.6752,-9.4324 -6.9995,-8.3755 -7.3844,-6.9985 -8.2155,-6.1176 -7.4748,-4.5198 -7.7864,-3.9444 -8.3881,-3.187 -8.4395,-2.7211 -8.6785,-1.9616 -8.9088,-1.5227 -9.5546,-0.6239 -9.3186,0.01 -9.5353,0.1963 -9.9703,0.8212 -10.0772,1.4451 -8.3139,1.6911 -8.2978,1.7876 -8.3443,2.1753 -8.7446,2.5991 -9.0966,2.9429 -9.4415,3.4055 -9.9798,3.5966 -10.1395,3.9679 -10.6866,3.9461 -10.7937,4.0581 -9.7951,3.2123 -8.3838,2.7941 -8.4688,2.7768 -8.4346,2.7185 -8.3005,2.5251 -8.4873,2.5203 -8.5336,2.3331 -8.8617,2.1555 -8.4323,2.022 -8.5111,1.9502 -9.1078,1.5605 -8.4631,1.5039 -8.7625,1.1591 -8.6792,0.7535 -8.8554,0.5719 -9.1203,0.2154 -8.9317,0.1797 -8.7196,0.087 -9.0068,-0.151 -9.3069,-0.2413 -9.3178,-0.1347 -9.4294,-0.3815 -9.3006,-0.5381 -9.1861,-0.7003 -9.3606,-0.4853 -9.568,-0.6969 -9.4252,-0.614 -9.2764,-0.5839 -9.9475,-0.553 -9.8839,-0.6179 -10.1985,-0.6445 -10.2851,-0.5687 -10.1402,-0.5341 -10.3708,-0.6958 -10.3388,-0.5416 -10.2144,-0.6383 -9.9204,-0.6747 -10.1471,-0.55 -10.6317,-0.7927 -10.2027,-0.7574 -10.9136,-0.7974 -10.7777,-0.889 -10.4065,-0.5423 -10.6585,-0.7361 -10.8663,-0.7949 -10.8022,-0.7132 -10.5533,-0.7056 -10.6608,-0.7117 -10.581,-0.6851 -10.8948,-0.7157 -10.6969,-0.7022 -10.2262,-0.5484 -10.7689,-0.6723 -10.4602,-0.5896 -10.3781,-0.7097 -10.2681,-0.6523 -10.1571,-0.5446 -10.2854,-0.6295 -9.949,-0.7078 -9.8032,-1.1076 -9.7989,-1.1136 -9.7292,-1.291 -9.7542,-1.2825 -9.7555,-0.9941 -9.5187,-0.9679 -9.5078,-0.9807 -9.7647,-0.8602 -9.3276,-0.8036 -9.3518,-0.7573 -9.2392,-0.8359 -9.0555,-0.7446 -9.1323,-0.9012 -9.2205,-0.5728 -9.1744,-0.805 -9.0618,-0.6997 -9.0757,-0.6719 -8.9367,-0.6659 -8.984,-0.5856 -8.8695,-0.5362 -8.8475,-0.6011 -9.1052,-0.5623 -8.169,-0.6405 -8.6065,-0.6933 -8.7462,-0.5696 -8.3911,-0.5034 -8.4229,-0.4369 -8.3069,-0.4045 -8.3362,-0.4495 -8.2482,-0.612 -8.4065,-0.3402 -8.3593,-0.223 -8.3584,0.055 -8.472,-0.044 -8.4424,0.5537 -8.5507,0.1813 -8.4915,-0.033 -8.6976,-0.1671 -8.4335,-0.2319 -8.6108,-0.5086 -8.7516,-0.442 -8.2488,-0.5245 -8.5822,-0.8309 -8.8043,-0.6461 -8.6144,-0.6188 -8.4993,-0.6008 -8.3783,-0.7601 -9.1807,-0.5732 -8.3515,-0.5883 -8.2668,-0.5798 -8.5778,-0.582 -8.0873,-0.4063 -8.7819,-0.7665 -8.0339,-0.4842 -8.0582,-0.4664 -8.1914,-0.4903 -8.1233,-0.5033 -8.0628,-0.5751 -8.3373,-0.5759 -8.5797,-0.7047 -9.2677,-0.5991 -9.1415,-0.6072 -8.9231,-0.5984 -10.4262,-0.6361 -10.7401,-0.8994 -10.1576,-0.5756 -10.2379,-0.6295 -10.4929,-0.7071 -9.5262,-0.6813 -10.0231,-0.7479 -9.7534,-0.8261 -9.8566,-0.699 -10.0851,-0.7526 -9.9395,-0.6472 -9.9572,-0.8406 -10.1061,-0.7325 -10.0137,-0.6938 -10.4143,-0.789 -10.2712,-0.6603 -9.7441,-0.5922 -9.7414,-0.4022 -10.555,-0.4122 -8.9553,-0.5125 -9.7843,-0.5626 -9.3277,-0.4804 -9.579,-0.5872 -9.4889,-0.4468 -9.5686,-0.3705 -9.5284,-0.4088 -9.4434,-0.4163 -9.2402,-0.3909 -9.2877,-0.4623 -9.0171,-0.4013 -9.1472,-0.2302"
     id="MCD_DCC"
     inkscape:connector-curvature="0"
     sodipodi:nodetypes="ccccccccccccccccccccccccccccccccccccccccccccccccccccccccccccccccccccccccccccccccccccccccccccccccccccccccccccccccccccccccccccccccccccccccccccccccccccccccccccccccccccccccccccccccccccccccccccccccccccccccccccccccccccccccccccccccccccccccccccccccccccccccccccccccccccccccccccccccccccccccccccccccc" />
  <path
     style="fill:none;stroke:#ff0000;stroke-width:0.50000000000000000px;stroke-linecap:butt;stroke-linejoin:miter;stroke-opacity:1"
     d="m 3462.8147,2066.1013 -8.9933,0.1016 -9.0615,0.6055 -8.9946,0.9436 -9.0097,1.2007 -8.6952,1.672 -8.7808,1.9256 -10.1329,3.1498 -9.9263,3.5554 -9.4166,4.2231 -8.9515,4.6185 -9.4334,5.7753 -9.6792,6.6386 -9.1196,6.845 -8.6267,6.8762 -7.9197,7.087 -7.6092,7.2829 -7.5529,6.9179 -7.6113,6.9509 -7.2196,7.4324 -6.8846,7.3847 -6.8624,7.8116 -7.1957,8.4866 -7.4738,8.8686 -7.4934,8.7466 -7.557,8.816 -7.696,8.956 -7.169,8.4651 -6.4133,7.5435 -7.4395,8.3037 -8.6001,9.1538 -8.3099,8.8042 -8.5867,8.548 -8.9043,8.3846 -9.0934,8.2113 -9.2443,8.2775 -9.7872,8.0342 -10.1941,7.8212 -10.6487,7.289 -8.9257,5.7183 -8.7055,5.1125 -8.8344,4.9452 -8.9501,4.7791 -8.829,4.3396 -9.1267,4.0237 -9.0731,3.6752 -8.9846,3.629 -9.0868,3.083 -8.6945,2.6827 -9.0135,2.4482 -8.7153,2.0939 -8.3762,1.6354 -8.3385,1.3333 -8.1575,0.9791 -9.6112,0.8445 -9.1355,0.484 -8.5075,0.2656 -9.1982,0.197 -8.8783,0.1351 -9.0846,-0.035 -8.8614,0.1898 -8.3994,-0.019"
     id="DCC_END"
     inkscape:label="#MCD_DCC" />
  <path
     style="fill:none;stroke:#000000;stroke-width:0.5px;stroke-linecap:butt;stroke-linejoin:miter;stroke-opacity:1"
     d="m 1015.9451,800.2389 3.9647,0.60834 4.0558,1.06838 4.0731,1.59848 3.9504,2.12742 3.995,2.84066 3.9852,3.65537 3.4567,4.34105 5.9266,15.72596 0.9152,49.91628 -0.037,55.24617"
     id="DCC_MCD1"
     inkscape:label="#DCC_START"
     inkscape:connector-curvature="0"
     sodipodi:nodetypes="ccccccccccc" />
  <path
     style="fill:none;stroke:#000000;stroke-width:0.5px;stroke-linecap:butt;stroke-linejoin:miter;stroke-opacity:1"
     d="m 1050.2121,833.49481 0.7263,4.06245 0.4737,4.10182 0.3458,4.13376 0.011,4.18549 -0.01,4.16587 0.123,4.01718 0.1403,3.95195 0.011,4.1114 0.094,3.91527 0.065,4.06595 0.094,4.16717 -0.062,4.17434 0.01,4.07654 -0.076,4.12662 -0.1333,4.17621 -0.1137,4.06736 0.089,4.02189 -0.088,4.14866 0.1206,4.06322 0.096,4.02476 0.02,4.12398 0.039,4.11266 0.038,4.10521 0.026,4.13557 0.1826,4.14081 0.1361,4.12538 0.1564,4.17097 0.1746,4.01143 0.2264,4.07502 0.077,4.07176 0.098,4.22814 0.076,4.23057 -0.021,4.2047 0.1506,4.11266 0.1221,4.23341 0.079,4.05609 0.054,4.17112 0.1549,4.17815 0.087,4.20601 0.034,4.07543 0.089,4.06261 0.1489,3.9977 0.1863,4.151 0.1811,4.1767 0.1817,4.1 0.1952,4.0249 0.12,4.0016 0.2204,4.0947 0.2466,4.1726 0.1939,4.1772 0.272,3.9622 0.2228,4.1265 0.2469,4.1702 0.2845,4.0586 0.2863,4.039 0.3035,4.2462 0.3258,4.1132 0.4026,4.3305 0.3612,4.2466 0.3314,4.2531 0.264,4.291 0.4747,4.1032 0.4483,4.1347 0.4919,4.1886 0.6309,4.108 0.5172,4.0475 0.6005,4.339 0.6952,4.0777 0.7476,4.2423 0.78,4.1874 0.8884,4.302 0.88,4.0397 1.029,4.1836 1.1365,4.2074 1.0923,4.149 1.2563,4.1472 1.3081,4.1221 1.3196,4.0846 1.4061,4.1779 1.4409,4.2525 1.4515,4.0997 1.4854,4.1808 1.5356,4.1722 1.5657,4.1524 1.5403,4.1743 1.5188,4.0527 1.4544,4.181 1.499,4.2159 1.4734,4.2273 1.4646,4.2395 1.3536,4.0982 1.2452,4.2463 1.1503,4.1558 1.1935,4.116 1.114,4.1697 1.1374,4.2723 1.0692,4.1035 0.9825,4.0498 0.9198,4.0932 1.0029,4.29 0.9158,4.0737 0.8224,4.1599 0.8238,4.1781 0.7199,4.2375 0.6926,4.0598 0.6498,4.3069 0.6196,4.2273 0.5471,4.0758 0.5577,4.1766 0.5545,4.1735 0.4934,4.2302 0.4304,4.1412 0.4017,4.1345 0.3375,4.1254 0.3752,4.2094 0.3555,4.1873 0.2831,3.9599 0.2326,4.1735 0.1738,4.0857 0.1661,4.1513 0.1186,4.1464 0.1626,4.2562 0.016,4.0844 0.023,3.9127 -0.018,4.1101 0.016,4.0894 -0.1335,4.0708 -0.04,4.0994 -0.031,4.1007 -0.037,4.1642 -0.012,4.0728 -0.059,4.1734 -9e-4,4.1678 -0.072,4.0913 0.031,4.2101 -0.063,4.1913 -0.1456,4.0995 -0.089,4.0826 -0.071,4.2087 -0.159,4.0762 -0.1255,4.1935 -0.2151,4.1584 -0.2096,4.0022 -0.208,4.2573 -0.2383,4.1023 -0.2293,4.2182 -0.2408,4.197 -0.2564,4.1699 -0.2878,4.015 -0.374,4.2916 -0.3536,4.1471 -0.3526,4.1385 -0.3648,4.3217 -0.3714,4.0698 -0.3905,4.192 -0.4256,4.179 -0.4043,4.1593 -0.3875,4.0424 -0.3969,4.2268 -0.3845,4.1085 -0.4315,4.0926 -0.4548,4.1307 -0.5686,4.1126 -0.5484,4.1108 -0.5541,4.1861 -0.5083,4.194 -0.4504,4.2787 -0.5075,4.0474 -0.6029,4.1053 -0.551,3.9859 -0.5367,4.0871 -0.5391,4.0266 -0.4885,4.1919 -0.4857,4.1183 -0.4499,4.2861 -0.4576,4.0121 -0.4204,4.0005 -0.3793,3.9753 -0.3634,4.119 -0.3033,4.2279 -0.2152,4.134 -0.1588,4.2334 -0.1323,4.1572 -0.019,4.1857 -0.019,4.2086 0.054,4.3291 0.098,4.0803 0.1548,4.1954 0.2471,4.0615 0.347,4.3885 0.3591,4.2182 0.4463,4.1909 0.4822,4.0432 0.5369,4.082 0.6607,4.0898 0.71,4.2301 0.7053,4.2386 0.7747,4.4055 0.7809,4.2453 0.8542,4.244 0.8588,4.1422 0.856,4.151 0.8743,4.3129 0.8578,4.0887 0.9044,4.0464 0.8171,4.1777 0.874,4.16 0.9881,4.2104 0.9218,4.1343 0.9247,4.3278 0.9093,4.0741 0.8811,4.3194 0.9009,4.2797 0.887,4.1444 0.8609,4.0944 0.8961,4.2372 0.8099,4.2612 0.8042,4.2556 0.7732,4.2852 0.8326,4.3615 0.7861,4.1953 0.7981,4.0717 0.7653,4.2715 0.8188,4.3027 0.7573,4.1678 0.7097,4.2559 0.7071,4.1528 0.7015,4.1895 0.5886,4.3882 0.5507,4.3704 0.562,4.062 0.3661,4.1815 0.2464,4.1839 0.1975,4.0375 0.1028,4.2528 -0.039,4.2489 -0.1793,4.1134 -0.3572,4.1963 -0.5648,3.9862 -0.8356,4.2367 -1.1198,4.2771 -1.3597,3.982 -1.6781,4.049 -2.0038,4.0861 -2.4302,3.9925 -2.7784,3.8968 -3.3268,4.2311 -3.8058,4.0775 -4.2393,3.7841 -4.2622,3.1805 -4.0156,2.4515 -4.2634,2.2 -4.2137,1.5969 -4.1334,1.4918 -4.0968,1.0572 -4.1427,0.9356 -3.99,0.5283 -4.1439,0.3179 -4.1752,0.1161 -4.2045,-0.038 -4.0941,-0.2603 -3.976,-0.3121 -4.0508,-0.2182 -4.3158,-0.2606 -4.183,-0.5129 -4.1041,-0.6681 -4.0872,-0.7955 -4.1243,-0.8233"
     id="MCD_DCC_"
     inkscape:label="#DCC_START" />
  <path
     style="fill:none;stroke:#000000;stroke-width:0.5px;stroke-linecap:butt;stroke-linejoin:miter;stroke-opacity:1"
     d="m 1021.5997,1875.4237 -3.9033,-1.2218 -4.0282,-1.3613 -4.1001,-1.6332 -3.9634,-1.972 -3.9736,-2.5755 -3.86254,-3.2708 -3.59698,-4.1194 -2.67495,-4.0505 -0.39843,-2.9246 0.84891,-2.9419 1.26028,-2.7654 1.52339,-4.5365 1.1705,-3.9625 1.44398,-3.9531 1.42107,-4.0023 1.52947,-4.0067 1.714,-4.068 1.3834,-5.0754 0.9958,-4.0935 1.9206,-3.8848 6.0751,-18.1845 9.8997,-18.2448 18.5863,-38.0846"
     id="DCC_END_"
     inkscape:label="#DCC_START"
     inkscape:connector-curvature="0"
     sodipodi:nodetypes="cccccccccccccccccccccccc" />
  <path
     style="fill:none;stroke:#000000;stroke-width:0.5px;stroke-linecap:butt;stroke-linejoin:miter;stroke-opacity:1"
     d="m 386.82551,1195.4807 -0.3363,-8.073 6.0548,-68.2847 3.0274,-30.274 3.0273,-24.5555 3.0274,-19.5099 5.382,-41.0381 5.3821,-19.50985 5.7185,-12.7824 8.4094,-14.1278 7.7367,-11.4369 4.3728,-9.7549 1.682,-7.7367 2.6909,-13.4552 1.0092,-17.15518 -2.0182,-14.4643 -3.0274,-12.1096 -3.7002,-13.7914 -1.04293,-16.00679 -6.90064,-45.88671 -4.45453,-16.34319 -3.44553,-12.24891 -3.66627,-12.4459 1.0091,-9.0822 1.0091,-9.0823 3.3639,-8.7458 4.3728,-6.7275 6.0548,-8.7459 9.0823,-8.4094 9.0822,-5.7184 9.0821,-4.0365 11.4368,-4.7093 10.4278,-2.3547 11.7732,-1.0091 14.4642,0.6728 15.8097,2.0182 21.8646,3.0274 24.2192,4.7093 14.8007,3.0274 14.1278,1.6819 14.8006,1.0091 11.7732,2.691 14.1279,5.3821 15.4734,5.7184 10.0913,3.3638 11.4368,2.3546 8.0731,0.6728"
     id="EA_DCC"
     inkscape:connector-curvature="0"
     inkscape:label="#path3086"
     sodipodi:nodetypes="ccccccccccccccccccccccccccccccccccccccccccccccc" />
  <path
     style="fill:none;stroke:#000000;stroke-width:0.5px;stroke-linecap:butt;stroke-linejoin:miter;stroke-opacity:1"
     d="m 597.57738,1324.792 -9.58175,4.0775 -4.19283,2.6501"
     id="EA_END3"
     inkscape:connector-curvature="0"
     inkscape:label="#path3106"
     sodipodi:nodetypes="ccc" />
  <path
     style="fill:none;stroke:#000000;stroke-width:0.5px;stroke-linecap:butt;stroke-linejoin:miter;stroke-opacity:1"
     d="m 470.87154,1297.3827 -8.49103,9.6057 -6.14621,7.3666 -2.22527,8.4571"
     id="EA_END2"
     inkscape:connector-curvature="0"
     inkscape:label="#path3108"
     sodipodi:nodetypes="cccc" />
  <path
     style="fill:none;stroke:#000000;stroke-width:0.5px;stroke-linecap:butt;stroke-linejoin:miter;stroke-opacity:1"
     d="m 447.86939,1348.2728 -33.42503,11.7394 -12.47688,13.1089 -5.7184,10.7641 -1.6819,11.4368 3.0274,13.7915 6.3912,6.7275 10.0913,7.4003 16.1461,2.3547 16.4825,-5.382 8.0731,-7.7367 8.0731,-15.8097 2.3546,-18.1645 -0.3364,-18.1643 -0.3364,-20.8555"
     id="EA_START"
     inkscape:connector-curvature="0"
     inkscape:label="#path3110"
     sodipodi:nodetypes="ccccccccccccccc" />
  <path
     style="fill:none;stroke:#000000;stroke-width:0.5px;stroke-linecap:butt;stroke-linejoin:miter;stroke-opacity:1"
     d="m 529.33282,1500.2799 -8.073,3.7001 -10.0913,4.0365 -5.382,5.0457"
     id="EA_START2"
     inkscape:connector-curvature="0"
     inkscape:label="#path3112" />
  <path
     style="fill:none;stroke:#000000;stroke-width:0.5px;stroke-linecap:butt;stroke-linejoin:miter;stroke-opacity:1"
     d="m 653.53068,1431.5168 -7.7367,8.4094 -6.0547,7.4003 -5.7185,10.7641 -1.6818,11.4369 3.0274,13.7914 6.3911,6.7276 10.0913,7.4003 16.1461,2.3546 16.4825,-5.382 8.0732,-7.7367 8.073,-15.8098 2.3546,-18.1643 -0.3363,-9.0822 -0.3364,-12.7824"
     id="EA_E3A"
     inkscape:connector-curvature="0"
     inkscape:label="#path3110"
     sodipodi:nodetypes="ccccccccccccccc" />
  <path
     style="fill:none;stroke:#000000;stroke-width:0.5px;stroke-linecap:butt;stroke-linejoin:miter;stroke-opacity:1"
     d="m 635.41362,1322.6645 -0.3365,-8.7458 -0.6727,-6.3912"
     id="E3A_EA"
     inkscape:connector-curvature="0"
     inkscape:label="#path3132" />
  <path
     style="fill:none;stroke:#000000;stroke-width:0.5px;stroke-linecap:butt;stroke-linejoin:miter;stroke-opacity:1"
     d="m 611.09096,792.59899 -10.7641,0.3363 -12.7824,0 -3.3637,-0.3363"
     id="DCC_START2"
     inkscape:connector-curvature="0"
     inkscape:label="#path3082" />
  <path
     style="fill:none;stroke:#000000;stroke-width:0.5px;stroke-linecap:butt;stroke-linejoin:miter;stroke-opacity:1"
     d="m 559.31128,1442.1964 -6.7276,3.3638 -5.382,3.3637"
     id="EA_END"
     inkscape:connector-curvature="0"
     inkscape:label="#path3106" />
  <path
     style="fill:none;stroke:#000000;stroke-width:1px;stroke-linecap:butt;stroke-linejoin:miter;stroke-opacity:1"
     d="m 495.66726,1158.3301 8.087,9.9899 4.2814,11.4171 3.8057,8.087 7.6114,12.3685 8.087,20.9312 20.4556,16.6499 19.9798,-6.66 9.9899,-8.5628 0.9514,-11.8927 -1.4271,-12.8442 -0.4757,-14.747 -5.2328,-15.6984 -6.66,-6.6599 -15.2227,-7.6114 -12.3685,-0.4757 -11.417,1.4271 -13.3199,-0.9514"
     id="DCC_END2"
     inkscape:connector-curvature="0"
     sodipodi:nodetypes="cccccccccccccccccc"
     inkscape:label="#path3064" />
</svg>
