<?xml version="1.0" encoding="UTF-8" standalone="no"?>
<svg
   xmlns:dc="http://purl.org/dc/elements/1.1/"
   xmlns:cc="http://creativecommons.org/ns#"
   xmlns:rdf="http://www.w3.org/1999/02/22-rdf-syntax-ns#"
   xmlns:svg="http://www.w3.org/2000/svg"
   xmlns="http://www.w3.org/2000/svg"
   xmlns:xlink="http://www.w3.org/1999/xlink"
   xmlns:sodipodi="http://sodipodi.sourceforge.net/DTD/sodipodi-0.dtd"
   xmlns:inkscape="http://www.inkscape.org/namespaces/inkscape"
   sodipodi:docname="path_def.svg"
   height="4992"
   width="5120"
   inkscape:version="0.48.3.1 r9886"
   id="svg2"
   version="1.1">
  <sodipodi:namedview
     pagecolor="#ffffff"
     bordercolor="#666666"
     borderopacity="1"
     objecttolerance="10"
     gridtolerance="10"
     guidetolerance="10"
     inkscape:pageopacity="0"
     inkscape:pageshadow="2"
     inkscape:window-width="1535"
     inkscape:window-height="876"
     id="namedview32"
     showgrid="false"
     inkscape:zoom="2.9728492"
     inkscape:cx="2708.3079"
     inkscape:cy="1705.9441"
     inkscape:window-x="65"
     inkscape:window-y="24"
     inkscape:window-maximized="1"
     inkscape:current-layer="svg2"
     showguides="true"
     inkscape:guide-bbox="true" />
  <metadata
     id="metadata36">
    <rdf:RDF>
      <cc:Work
         rdf:about="">
        <dc:format>image/svg+xml</dc:format>
        <dc:type
           rdf:resource="http://purl.org/dc/dcmitype/StillImage" />
        <dc:title>Paths of the golfcar</dc:title>
      </cc:Work>
    </rdf:RDF>
  </metadata>
  <defs
     id="defs34">
    <marker
       inkscape:stockid="Arrow1Send"
       orient="auto"
       refY="0.0"
       refX="0.0"
       id="Arrow1Send"
       style="overflow:visible;">
      <path
         id="path6236"
         d="M 0.0,0.0 L 5.0,-5.0 L -12.5,0.0 L 5.0,5.0 L 0.0,0.0 z "
         style="fill-rule:evenodd;stroke:#000000;stroke-width:1.0pt;marker-start:none;"
         transform="scale(0.2) rotate(180) translate(6,0)" />
    </marker>
    <marker
       inkscape:stockid="Arrow1Sstart"
       orient="auto"
       refY="0.0"
       refX="0.0"
       id="Arrow1Sstart"
       style="overflow:visible">
      <path
         id="path6233"
         d="M 0.0,0.0 L 5.0,-5.0 L -12.5,0.0 L 5.0,5.0 L 0.0,0.0 z "
         style="fill-rule:evenodd;stroke:#000000;stroke-width:1.0pt;marker-start:none"
         transform="scale(0.2) translate(6,0)" />
    </marker>
    <inkscape:path-effect
       steps="5"
       equidistant_spacing="true"
       trajectory="M 0,0 0,0"
       is_visible="true"
       id="path-effect3660"
       effect="interpolate" />
    <inkscape:path-effect
       phi="5"
       teeth="10"
       is_visible="true"
       id="path-effect3658"
       effect="gears" />
    <marker
       style="overflow:visible"
       id="DotM"
       refX="0.0"
       refY="0.0"
       orient="auto"
       inkscape:stockid="DotM">
      <path
         transform="scale(0.4) translate(7.4, 1)"
         style="fill-rule:evenodd;stroke:#000000;stroke-width:1.0pt;marker-start:none;marker-end:none"
         d="M -2.5,-1.0 C -2.5,1.7600000 -4.7400000,4.0 -7.5,4.0 C -10.260000,4.0 -12.5,1.7600000 -12.5,-1.0 C -12.5,-3.7600000 -10.260000,-6.0 -7.5,-6.0 C -4.7400000,-6.0 -2.5,-3.7600000 -2.5,-1.0 z "
         id="path3704" />
    </marker>
    <marker
       style="overflow:visible"
       id="DotL"
       refX="0.0"
       refY="0.0"
       orient="auto"
       inkscape:stockid="DotL">
      <path
         transform="scale(0.8) translate(7.4, 1)"
         style="fill-rule:evenodd;stroke:#000000;stroke-width:1.0pt;marker-start:none;marker-end:none"
         d="M -2.5,-1.0 C -2.5,1.7600000 -4.7400000,4.0 -7.5,4.0 C -10.260000,4.0 -12.5,1.7600000 -12.5,-1.0 C -12.5,-3.7600000 -10.260000,-6.0 -7.5,-6.0 C -4.7400000,-6.0 -2.5,-3.7600000 -2.5,-1.0 z "
         id="path3701" />
    </marker>
    <marker
       style="overflow:visible;"
       id="Arrow1Lend"
       refX="0.0"
       refY="0.0"
       orient="auto"
       inkscape:stockid="Arrow1Lend">
      <path
         transform="scale(0.8) rotate(180) translate(12.5,0)"
         style="fill-rule:evenodd;stroke:#000000;stroke-width:1.0pt;marker-start:none;"
         d="M 0.0,0.0 L 5.0,-5.0 L -12.5,0.0 L 5.0,5.0 L 0.0,0.0 z "
         id="path3642" />
    </marker>
    <marker
       style="overflow:visible"
       id="Arrow1Lstart"
       refX="0.0"
       refY="0.0"
       orient="auto"
       inkscape:stockid="Arrow1Lstart">
      <path
         transform="scale(0.8) translate(12.5,0)"
         style="fill-rule:evenodd;stroke:#000000;stroke-width:1.0pt;marker-start:none"
         d="M 0.0,0.0 L 5.0,-5.0 L -12.5,0.0 L 5.0,5.0 L 0.0,0.0 z "
         id="path3639" />
    </marker>
    <inkscape:path-effect
       crossing_points_vector=""
       switcher_size="15"
       add_other_stroke_width="true"
       add_stroke_width="true"
       prop_to_stroke_width="true"
       interruption_width="3.6"
       is_visible="true"
       id="path-effect2862"
       effect="knot" />
    <inkscape:path-effect
       crossing_points_vector=""
       switcher_size="15"
       add_other_stroke_width="true"
       add_stroke_width="true"
       prop_to_stroke_width="true"
       interruption_width="3"
       is_visible="true"
       id="path-effect2860"
       effect="knot" />
    <inkscape:path-effect
       steps="5"
       equidistant_spacing="true"
       trajectory="M 0,0 0,0"
       is_visible="true"
       id="path-effect2858"
       effect="interpolate" />
    <inkscape:path-effect
       bendpath4="m 1068.3624,2136.3724 0,121.4273"
       bendpath3="m 1068.3624,2257.7997 48.7175,0"
       bendpath2="m 1117.0799,2136.3724 0,121.4273"
       bendpath1="m 1068.3624,2136.3724 48.7175,0"
       xx="true"
       yy="true"
       is_visible="true"
       id="path-effect2856"
       effect="envelope" />
    <inkscape:path-effect
       tgtlength_rdm="0.3;1"
       tgtlength="100"
       tgtscale="10"
       tgt_places_rdmness="1;1"
       nbtangents="5"
       tremble_frequency="1"
       tremble_size="5;1"
       parallel_offset="5;1"
       ends_tolerance="0.1;1"
       strokeoverlap_rdm="0.3;1"
       strokeoverlap="0.3"
       strokelength_rdm="0.3;1"
       strokelength="100"
       nbiter_approxstrokes="5"
       is_visible="true"
       id="path-effect2854"
       effect="sketch" />
    <inkscape:path-effect
       border_marks="both"
       mark_dir="left"
       offset="0"
       shift="0"
       major_mark_steps="5"
       minor_mark_length="7"
       mark_length="14"
       mark_distance="20"
       unit="px"
       is_visible="true"
       id="path-effect2852"
       effect="ruler" />
    <inkscape:path-effect
       border_marks="both"
       mark_dir="left"
       offset="0"
       shift="0"
       major_mark_steps="5"
       minor_mark_length="7"
       mark_length="14"
       mark_distance="20"
       unit="px"
       is_visible="true"
       id="path-effect2850"
       effect="ruler" />
    <inkscape:path-effect
       phi="5"
       teeth="10"
       is_visible="true"
       id="path-effect2848"
       effect="gears" />
    <inkscape:perspective
       id="perspective38"
       inkscape:persp3d-origin="1528.5 : 1178.6667 : 1"
       inkscape:vp_z="3057 : 1768 : 1"
       inkscape:vp_y="0 : 1000 : 0"
       inkscape:vp_x="0 : 1768 : 1"
       sodipodi:type="inkscape:persp3d" />
    <inkscape:perspective
       sodipodi:type="inkscape:persp3d"
       inkscape:vp_x="0 : 0.5 : 1"
       inkscape:vp_y="0 : 1000 : 0"
       inkscape:vp_z="1 : 0.5 : 1"
       inkscape:persp3d-origin="0.5 : 0.33333333 : 1"
       id="perspective2947" />
    <inkscape:perspective
       sodipodi:type="inkscape:persp3d"
       inkscape:vp_x="0 : 0.5 : 1"
       inkscape:vp_y="0 : 1000 : 0"
       inkscape:vp_z="1 : 0.5 : 1"
       inkscape:persp3d-origin="0.5 : 0.33333333 : 1"
       id="perspective2824" />
    <inkscape:perspective
       sodipodi:type="inkscape:persp3d"
       inkscape:vp_x="0 : 0.5 : 1"
       inkscape:vp_y="0 : 1000 : 0"
       inkscape:vp_z="1 : 0.5 : 1"
       inkscape:persp3d-origin="0.5 : 0.33333333 : 1"
       id="perspective2960" />
    <inkscape:perspective
       sodipodi:type="inkscape:persp3d"
       inkscape:vp_x="0 : 0.5 : 1"
       inkscape:vp_y="0 : 1000 : 0"
       inkscape:vp_z="1 : 0.5 : 1"
       inkscape:persp3d-origin="0.5 : 0.33333333 : 1"
       id="perspective3024" />
    <inkscape:perspective
       sodipodi:type="inkscape:persp3d"
       inkscape:vp_x="0 : 0.5 : 1"
       inkscape:vp_y="0 : 1000 : 0"
       inkscape:vp_z="1 : 0.5 : 1"
       inkscape:persp3d-origin="0.5 : 0.33333333 : 1"
       id="perspective3088" />
    <inkscape:perspective
       sodipodi:type="inkscape:persp3d"
       inkscape:vp_x="0 : 0.5 : 1"
       inkscape:vp_y="0 : 1000 : 0"
       inkscape:vp_z="1 : 0.5 : 1"
       inkscape:persp3d-origin="0.5 : 0.33333333 : 1"
       id="perspective3152" />
    <inkscape:perspective
       sodipodi:type="inkscape:persp3d"
       inkscape:vp_x="0 : 0.5 : 1"
       inkscape:vp_y="0 : 1000 : 0"
       inkscape:vp_z="1 : 0.5 : 1"
       inkscape:persp3d-origin="0.5 : 0.33333333 : 1"
       id="perspective3216" />
    <inkscape:perspective
       sodipodi:type="inkscape:persp3d"
       inkscape:vp_x="0 : 0.5 : 1"
       inkscape:vp_y="0 : 1000 : 0"
       inkscape:vp_z="1 : 0.5 : 1"
       inkscape:persp3d-origin="0.5 : 0.33333333 : 1"
       id="perspective3280" />
    <inkscape:perspective
       sodipodi:type="inkscape:persp3d"
       inkscape:vp_x="0 : 0.5 : 1"
       inkscape:vp_y="0 : 1000 : 0"
       inkscape:vp_z="1 : 0.5 : 1"
       inkscape:persp3d-origin="0.5 : 0.33333333 : 1"
       id="perspective3344" />
    <inkscape:perspective
       sodipodi:type="inkscape:persp3d"
       inkscape:vp_x="0 : 0.5 : 1"
       inkscape:vp_y="0 : 1000 : 0"
       inkscape:vp_z="1 : 0.5 : 1"
       inkscape:persp3d-origin="0.5 : 0.33333333 : 1"
       id="perspective3408" />
    <inkscape:perspective
       sodipodi:type="inkscape:persp3d"
       inkscape:vp_x="0 : 0.5 : 1"
       inkscape:vp_y="0 : 1000 : 0"
       inkscape:vp_z="1 : 0.5 : 1"
       inkscape:persp3d-origin="0.5 : 0.33333333 : 1"
       id="perspective3628" />
    <inkscape:perspective
       sodipodi:type="inkscape:persp3d"
       inkscape:vp_x="0 : 0.5 : 1"
       inkscape:vp_y="0 : 1000 : 0"
       inkscape:vp_z="1 : 0.5 : 1"
       inkscape:persp3d-origin="0.5 : 0.33333333 : 1"
       id="perspective2848" />
    <inkscape:perspective
       sodipodi:type="inkscape:persp3d"
       inkscape:vp_x="0 : 0.5 : 1"
       inkscape:vp_y="0 : 1000 : 0"
       inkscape:vp_z="1 : 0.5 : 1"
       inkscape:persp3d-origin="0.5 : 0.33333333 : 1"
       id="perspective3658" />
    <inkscape:perspective
       sodipodi:type="inkscape:persp3d"
       inkscape:vp_x="0 : 0.5 : 1"
       inkscape:vp_y="0 : 1000 : 0"
       inkscape:vp_z="1 : 0.5 : 1"
       inkscape:persp3d-origin="0.5 : 0.33333333 : 1"
       id="perspective3691" />
    <inkscape:perspective
       sodipodi:type="inkscape:persp3d"
       inkscape:vp_x="0 : 0.5 : 1"
       inkscape:vp_y="0 : 1000 : 0"
       inkscape:vp_z="1 : 0.5 : 1"
       inkscape:persp3d-origin="0.5 : 0.33333333 : 1"
       id="perspective3713" />
    <inkscape:perspective
       sodipodi:type="inkscape:persp3d"
       inkscape:vp_x="0 : 0.5 : 1"
       inkscape:vp_y="0 : 1000 : 0"
       inkscape:vp_z="1 : 0.5 : 1"
       inkscape:persp3d-origin="0.5 : 0.33333333 : 1"
       id="perspective3735" />
    <inkscape:perspective
       sodipodi:type="inkscape:persp3d"
       inkscape:vp_x="0 : 0.5 : 1"
       inkscape:vp_y="0 : 1000 : 0"
       inkscape:vp_z="1 : 0.5 : 1"
       inkscape:persp3d-origin="0.5 : 0.33333333 : 1"
       id="perspective3757" />
    <inkscape:perspective
       sodipodi:type="inkscape:persp3d"
       inkscape:vp_x="0 : 0.5 : 1"
       inkscape:vp_y="0 : 1000 : 0"
       inkscape:vp_z="1 : 0.5 : 1"
       inkscape:persp3d-origin="0.5 : 0.33333333 : 1"
       id="perspective2910" />
    <marker
       style="overflow:visible"
       id="DotM-1"
       refX="0"
       refY="0"
       orient="auto"
       inkscape:stockid="DotM">
      <path
         transform="matrix(0.4,0,0,0.4,2.96,0.4)"
         style="fill-rule:evenodd;stroke:#000000;stroke-width:1pt;marker-start:none;marker-end:none"
         d="m -2.5,-1 c 0,2.76 -2.24,5 -5,5 -2.76,0 -5,-2.24 -5,-5 0,-2.76 2.24,-5 5,-5 2.76,0 5,2.24 5,5 z"
         id="path3704-5" />
    </marker>
    <inkscape:perspective
       sodipodi:type="inkscape:persp3d"
       inkscape:vp_x="0 : 0.5 : 1"
       inkscape:vp_y="0 : 1000 : 0"
       inkscape:vp_z="1 : 0.5 : 1"
       inkscape:persp3d-origin="0.5 : 0.33333333 : 1"
       id="perspective3012" />
    <inkscape:perspective
       sodipodi:type="inkscape:persp3d"
       inkscape:vp_x="0 : 0.5 : 1"
       inkscape:vp_y="0 : 1000 : 0"
       inkscape:vp_z="1 : 0.5 : 1"
       inkscape:persp3d-origin="0.5 : 0.33333333 : 1"
       id="perspective2903" />
    <marker
       style="overflow:visible"
       id="DotM-5"
       refX="0"
       refY="0"
       orient="auto"
       inkscape:stockid="DotM">
      <path
         transform="matrix(0.4,0,0,0.4,2.96,0.4)"
         style="fill-rule:evenodd;stroke:#000000;stroke-width:1pt;marker-start:none;marker-end:none"
         d="m -2.5,-1 c 0,2.76 -2.24,5 -5,5 -2.76,0 -5,-2.24 -5,-5 0,-2.76 2.24,-5 5,-5 2.76,0 5,2.24 5,5 z"
         id="path3704-9" />
    </marker>
    <inkscape:perspective
       sodipodi:type="inkscape:persp3d"
       inkscape:vp_x="0 : 0.5 : 1"
       inkscape:vp_y="0 : 1000 : 0"
       inkscape:vp_z="1 : 0.5 : 1"
       inkscape:persp3d-origin="0.5 : 0.33333333 : 1"
       id="perspective2889" />
    <filter
       id="filter3830"
       inkscape:label="Colorize"
       inkscape:menu="Color"
       inkscape:menu-tooltip="Blend image or object with a flood color and set lightness and contrast"
       x="0"
       y="0"
       width="1"
       height="1"
       color-interpolation-filters="sRGB">
      <feColorMatrix
         id="feColorMatrix3832"
         values="1"
         in="SourceGraphic"
         type="saturate"
         result="result2" />
      <feFlood
         id="feFlood3834"
         flood-color="rgb(254,102,0)"
         flood-opacity="1"
         result="result1" />
      <feBlend
         id="feBlend3836"
         in2="result2"
         mode="multiply"
         in="result1"
         result="result3" />
      <feComposite
         id="feComposite3838"
         in2="SourceGraphic"
         operator="in"
         k2="1"
         result="result4" />
    </filter>
    <marker
       style="overflow:visible"
       id="DotM-7"
       refX="0"
       refY="0"
       orient="auto"
       inkscape:stockid="DotM">
      <path
         inkscape:connector-curvature="0"
         transform="matrix(0.4,0,0,0.4,2.96,0.4)"
         style="fill-rule:evenodd;stroke:#000000;stroke-width:1pt;marker-start:none;marker-end:none"
         d="m -2.5,-1 c 0,2.76 -2.24,5 -5,5 -2.76,0 -5,-2.24 -5,-5 0,-2.76 2.24,-5 5,-5 2.76,0 5,2.24 5,5 z"
         id="path3704-3" />
    </marker>
    <marker
       style="overflow:visible"
       id="DotM-70"
       refX="0"
       refY="0"
       orient="auto"
       inkscape:stockid="DotM">
      <path
         inkscape:connector-curvature="0"
         transform="matrix(0.4,0,0,0.4,2.96,0.4)"
         style="fill-rule:evenodd;stroke:#000000;stroke-width:1pt;marker-start:none;marker-end:none"
         d="m -2.5,-1 c 0,2.76 -2.24,5 -5,5 -2.76,0 -5,-2.24 -5,-5 0,-2.76 2.24,-5 5,-5 2.76,0 5,2.24 5,5 z"
         id="path3704-8" />
    </marker>
  </defs>
  <title
     id="title4">Paths of the golfcar</title>
  <desc
     id="desc6">The paths consist of all the possible route that can be taken by the golfcart to serve 4 stations: DCC, MCD, EA and E3A</desc>
  <image
     sodipodi:absref="/home/golfcar/smartfm/bookingUI/shared/SvgPath/science_center_Wednesday.pgm"
     xlink:href="science_center_Wednesday.pgm"
     style="font-size:14px;fill:#aa4400"
     width="5120"
     height="4992"
     id="map"
     x="0"
     y="0"
     inkscape:label="#image3014" />
  <path
     style="fill:none;stroke:#000000;stroke-width:0.5px;stroke-linecap:butt;stroke-linejoin:miter;stroke-opacity:1"
     d="m 350.17469,1697.4002 2.9458,7.3425 2.3307,7.3666 7.8183,9.5649 13.1666,9.6057 8.9667,6.6768 14.0533,-6.225 7.6552,-12.9187 1.4201,-8.7698 0.058,-9.344 -2.9529,-32.7593 -1.2878,-18.9636"
     id="DCC_EA"
     inkscape:connector-curvature="0"
     inkscape:label="#path3076"
     sodipodi:nodetypes="cccccccccccc" />
  <path
     style="fill:none;stroke:#000000;stroke-width:0.5px;stroke-linecap:butt;stroke-linejoin:miter;stroke-opacity:1"
     d="m 569.6328,1027.9119 -4.7093,1.3456 -4.3729,2.6909 -1.6819,3.7002 1.0091,3.3638 1.6819,4.7093 2.0183,3.7001"
     id="DCC_EA3"
     inkscape:connector-curvature="0"
     inkscape:label="#path3084" />
  <path
     style="fill:none;stroke:#008000;stroke-width:0.5px;stroke-linecap:butt;stroke-linejoin:miter;stroke-opacity:1"
     d="M 3126.0872661963,2994.6237820253 3134.3798929472,2994.7949470669 3142.5039150721,2995.1503718535 3150.437448584,2995.4291750601 3158.4093651181,2995.9458323064 3166.6256211459,2996.3499246284 3175.1046487425,2996.9669670072 3183.407927985,2997.8407939826 3191.2678131764,2998.8961096236 3199.2389145661,3000.078822977 3207.7359890438,3001.3108325423 3215.9915939328,3002.7317809997 3223.8875105593,3004.3635567278 3232.1892259645,3005.9997152734 3240.1987490145,3007.8274788465 3247.928697852,3009.7623129809 3255.8197567366,3012.1136752726 3263.6697612662,3014.7094270521 3271.851631413,3017.5881447279 3279.9609307347,3021.0178399149 3288.0410154417,3024.7202382577 3296.0091166379,3028.8584370262 3303.7690975853,3033.2913904108 3311.3381752021,3038.3434332369 3318.7516152856,3043.7219396806 3326.0109031181,3049.493986062 3332.8879686614,3055.5786860525 3339.5439621021,3062.0957765434 3345.9218422141,3069.0232903603 3351.8736901623,3076.2712203199 3357.58247049,3084.0192572164 3362.7910938089,3091.934325917 3367.951747552,3100.9747523501 3372.8977128899,3110.6302432939 3377.4438537619,3121.2416535673 3381.2624275509,3132.4203379351 3384.0441032186,3142.9522167581 3386.0741859477,3152.7319172258 3387.5201179094,3162.9448638547 3388.2757922658,3172.3658809303 3388.5014795436,3181.6044554566 3388.1304132497,3191.174622847 3387.2754998043,3200.282387921 3386.0326162075,3208.7013300004 3384.4631487607,3217.1561532317 3382.1492242122,3225.637582625 3379.4485223895,3234.0632969511 3376.5053221442,3242.0931579601 3373.2144485012,3249.6719754571 3369.63322889,3257.3336085882 3365.7041252936,3264.7617638689 3361.5374153498,3271.9403822272 3357.0166274864,3278.8950413392 3351.8297408105,3286.0773496727 3346.5839641225,3292.8334678124 3340.970642473,3299.3887983637 3335.0930954449,3305.5493492839 3328.644079575,3311.6838672622 3321.7377375749,3317.6332570788 3315.1993042423,3322.5750134177 3307.9965877607,3327.494159973 3300.149421433,3332.1146821149 3292.1534875575,3336.231253605 3283.6379987228,3339.8276339048 3274.5906818615,3342.8353817307 3264.2278822861,3345.5723934971 3252.9707634475,3347.4965353974 3241.4367028141,3348.6600778542 3230.3324894652,3348.7230017702 3219.2305850712,3347.890260382 3209.4035050433,3346.5277262657 3199.4771383176,3344.5893935506 3189.3978818366,3342.150663799 3180.0543086565,3339.4605311398 3171.5482884431,3336.6684136211 3162.9512390264,3333.7072686085 3154.363736726,3330.5510306603 3145.5171030854,3327.4032508778 3136.5353141429,3324.3097442668 3127.5299479101,3321.2544288585 3118.3277670571,3318.4560283969 3109.1327338633,3315.6605380908 3099.7007378701,3312.9085030117 3089.9013975905,3310.4475469582 3079.6175620169,3308.421954539 3069.0363210731,3306.682497034 3058.5257730278,3305.4088979693 3046.2022421046,3304.3534745316 3033.3142190674,3303.7570726584 3022.2402127885,3303.6550335157 3011.1598691744,3303.7520424689 2999.5982496481,3304.3198888708 2989.7163439724,3304.9487966277 2979.6509680889,3305.825189734 2969.1603384238,3306.7940431491 2958.446981829,3308.0160258695 2948.1416426386,3309.3596807672 2937.6042830249,3310.8027624107 2926.8425560242,3312.208667245 2916.2477831358,3313.6324894693 2905.6831134207,3315.3354291066 2894.9778666024,3317.0308466488 2884.2742330785,3318.6673744869 2873.7134290432,3320.2253912048 2863.0089830302,3321.9626902769 2852.6260025079,3323.5788502806 2841.1811905929,3325.2603467335 2830.4744753322,3326.6214434081 2820.5930376471,3327.8899063033 2810.657666757,3328.8846907876 2800.8065837757,3329.7766413208 2790.9262771006,3330.7290325678 2781.0447765469,3331.5941123922 2771.3004147126,3332.4138124965 2761.4677501159,3333.1732469434 2751.2179317056,3333.8429768058 2741.3268971253,3334.3557121939 2731.3849826268,3334.902724662 2721.3599860168,3335.2977380766 2711.4691763501,3335.6097549388 2701.2528380465,3335.8365786368 2691.1903943167,3336.0067961525 2681.319266308,3336.0893143598 2671.5901605477,3335.9573181172 2661.460126619,3335.6052594702 2651.1970077869,3335.0588009799 2640.7839676412,3334.2919923877 2630.181699026,3333.3637638972 2619.6464499821,3332.370406659 2609.0042249327,3331.4243120179 2598.4495264601,3330.3869398599 2587.9247184803,3329.1592139628 2577.1872187369,3328.0449008776 2566.4045932037,3326.8970235867 2555.7438638807,3325.9040837993 2544.6236940239,3324.8005957593 2533.3506790667,3323.558825337 2522.089625295,3322.3981385297 2510.76220835,3321.2123137983 2499.8957139511,3320.0796531986 2489.0340326744,3318.9719541331 2479.8187913845,3317.9465385611 2470.1318101056,3316.9974503171 2460.4523896566,3315.9519145258 2450.425795119,3314.9179010793 2440.3855991387,3313.8298935773 2430.2589053727,3312.8019452194 2420.4113518818,3311.9053787039 2410.5162995391,3310.9392703137 2400.3737347611,3309.9089427806 2390.0053084441,3308.8749033839 2379.9032222867,3307.9028671594 2369.779458567,3306.9048345901 2359.7023180284,3305.9221074334 2349.2702833089,3305.0541907296 2338.5480162157,3304.1305547918 2327.8347932844,3303.2493326464 2317.1070481442,3302.4788142944 2306.558228352,3301.6215494671 2295.7620423393,3300.7234660981 2285.1776936763,3299.7468474798 2274.389393332,3298.7951663651 2263.7887293678,3297.8292838912 2252.6964524174,3296.8989928307 2241.852414801,3296.0307256126 2230.8594641424,3295.2203597647 2219.3780373161,3294.4505127755 2209.6368649024,3293.9593658333 2200.2811903539,3293.5339382559 2191.1382105389,3293.0726522727 2182.0187234536,3292.6794447993 2172.7486486315,3292.2371710227 2163.7452449775,3291.9292637006 2154.8314468534,3291.5558213562 2145.9682662435,3291.2503340438 2137.2890560784,3290.9518455687 2128.3203766653,3290.4810510941 2118.654534923,3289.8849057168 2109.0413488457,3289.3036223714 2099.8300503652,3288.8631844885 2090.2418150513,3288.4139798845 2080.7387251402,3287.9347599239 2071.0806606598,3287.4585170402 2061.5348553017,3287.0500161846 2052.214847272,3286.6946424661 2042.7427725986,3286.3257531294 2033.4673172081,3285.964927865 2024.1824019391,3285.6665848477 2014.8513410613,3285.3248848316 2005.5671528771,3284.9538518321 1996.0287954477,3284.4891049455 1986.4673198285,3284.1879484804 1977.0589529525,3283.881493415 1967.8269936226,3283.5030577084 1959.0393759817,3283.1034675092 1949.8467300693,3282.7221606462 1940.5856192956,3282.3730081396 1931.4808446016,3281.9570282816 1922.106385299,3281.6196988743 1912.6174287402,3281.2954292898 1903.4128026883,3280.9040894221 1894.1466282011,3280.5519697549 1884.9016941052,3280.1971584139 1875.8967922768,3279.8502421775 1866.9862125913,3279.4605888826 1858.1935260191,3279.0107875777 1849.412971565,3278.5244656536 1840.6488066053,3278.0755450018 1831.8145724264,3277.5857280478 1823.1423137211,3277.1636011952 1814.6783598785,3276.7313317322 1806.2313236821,3276.2676747009 1797.8730558881,3275.7771192859 1788.695121775,3275.3288018252 1778.421391944,3274.7248892399 1768.255099178,3274.1699094351 1758.363709948,3273.5881719852 1748.1560359002,3273.0256051365 1738.0040267802,3272.428283319 1727.8716773278,3271.887838513 1718.0351334992,3271.350045391 1707.9978729886,3270.7677572209 1698.1794982673,3270.1232525949 1688.4647309581,3269.5600929399 1678.5038835021,3269.067739109 1668.8064287757,3268.5422746949 1658.9567201391,3268.0557909717 1649.2014398477,3267.6626323908 1639.5194575511,3267.1695462834 1629.7542719263,3266.635896366 1620.1273117037,3266.0718121453 1610.433313468,3265.6596308441 1600.9071614012,3265.2109651679 1591.6541929303,3264.6780703673 1582.399203267,3264.0858237227 1573.105006411,3263.5969494138 1563.916710166,3263.0687355683 1554.7630242248,3262.5017110728 1545.8364620511,3262.0168064496 1536.7280574016,3261.4601480214 1528.0377149513,3260.9170879338 1518.8173182746,3260.3776114198 1509.9058863524,3259.8321374067 1500.7174256312,3259.3565632891 1491.9151678142,3258.908826759 1483.4274105487,3258.388943077 1474.9584544431,3257.9162110058 1466.1069133761,3257.4143612509 1457.4275247763,3256.9661145964 1448.9096792315,3256.4759670121 1440.7880037612,3256.1084593937 1432.4040487043,3255.7424035269 1423.7029640254,3255.260240893 1414.14086651,3254.7766306958 1404.8903700601,3254.2725166492 1395.6886665718,3253.7677375064 1386.5775351459,3253.4099214016 1377.9103363093,3252.9549895692 1369.4039445367,3252.6111592864 1360.5565195813,3252.2156721628 1351.7800794425,3251.8810039391 1343.0308406678,3251.7012221859 1334.0682920941,3251.5892959132 1325.4556991568,3251.6447222486 1317.2070845618,3252.0821715307 1309.1146159044,3252.7415283275 1300.9265394715,3253.7408246022 1292.4221525839,3255.016851516 1283.71835558,3256.7329534449 1274.580494506,3259.1439314169 1265.1568699466,3261.8802438034 1255.725203741,3265.2862830568 1246.5913408764,3268.9420908909 1237.3126281044,3272.9888043008 1228.2975568305,3276.9531667746 1219.1124676907,3281.117549862 1209.7796532584,3285.3683398092 1200.430799588,3289.6483268526 1191.1482807518,3293.927559623 1181.9628643327,3297.9663774589 1172.323588703,3301.8732106184 1162.702449767,3305.6687319467 1152.8879325978,3309.1787552281 1142.8051413559,3312.5007293672 1132.7630243377,3315.4774207795 1123.7925937952,3317.7585816086 1114.6862291134,3319.8717923946 1105.3490114387,3321.7053707287 1095.6281898683,3323.2431099846 1085.921230751,3324.2381500371 1076.1219524567,3324.7920267357 1067.1859220699,3324.8569343683 1058.6167272594,3324.5758027479 1049.8302142999,3323.9659107315 1041.2884186571,3322.9639729585 1032.3991482602,3321.5808072074 1023.8380092856,3319.3873621034 1015.0853470715,3316.8845346413 1006.6758842361,3313.7514219537 998.3850964075,3310.0228882553 990.1721163688,3305.6948722923 981.5410050755,3301.0726529835 973.8732310753,3295.6264510074 966.3433912728,3289.6528709097 959.4010550666,3283.0017854638 952.7527932956,3275.9025571154 946.3915115563,3268.5045952727 940.3103821935,3260.537167663 934.6689283353,3252.2967001802 929.3313730156,3243.708013253 924.0834500169,3234.9646658401 919.0011376271,3226.1180925821 913.2146949961,3215.2882337054 907.5565004027,3204.5517392006 902.0533018862,3193.2712324657 897.204723371,3182.6347009584 893.0309666241,3172.5298475268 888.7246424008,3162.416276394 884.6448680228,3152.0319001058 881.2774112687,3141.804719766 878.4426490099,3131.4290485968 876.440972705,3120.9786227967 875.0056731863,3110.6442869371 873.7711424123,3099.7672512182 872.8284050436,3089.0098173412 872.1899097318,3078.1050399765 872.0688949939,3067.4193166813 872.1549902396,3056.8631125873 872.5725119903,3046.2091622604 873.0412247889,3036.4972652398 873.5764114288,3027.8501356591 874.2703067272,3019.3473863502 875.0855676987,3011.1803345788 876.0426429162,3002.3838621557 877.0970137631,2993.9158731876 878.1830208831,2985.2019622726 879.3859771887,2976.9283340648 880.7606854004,2968.3609327876 882.3173202615,2959.8387936799 883.9718257915,2951.1410479734 885.862220636,2942.0232212781 887.6135942267,2933.6743412204 890.019229558,2923.5194846998 892.5423396833,2913.6281866115 895.2374723848,2903.7424568581 898.0712794602,2894.2540810711 901.0867874791,2885.0014486529 903.963765812,2876.133335368 907.1342631806,2866.7657271332 910.6491171457,2857.6536951805 914.2984232626,2848.441721945 918.0761762911,2839.6008749182 921.9358463201,2831.0171661853 926.0578992224,2822.405857502 930.4305127367,2813.7912130236 934.8758250805,2805.4033326867 939.4102635326,2797.1999100075 944.278277912,2789.0319761741 949.3185965398,2780.9815282201 954.4878950345,2773.3465099412 959.7653224777,2766.0022319389 965.2334883601,2758.832079205 970.7907748198,2751.9488163755 976.5308224666,2745.1577561601 982.282528291,2738.8413334491 988.0881688716,2732.8744690879 994.0392739901,2727.2768507064 1000.1254171896,2721.9067852729 1007.5380957329,2715.8813334272 1015.4566383751,2709.9199777135 1022.9643145384,2704.7898008593 1030.3138367626,2700.1834611343 1037.950508579,2695.7007153611 1046.1780226765,2691.3413445031 1054.5340677254,2687.4310792264 1063.260614481,2683.6470778121 1072.2914900949,2680.2258318504 1081.7832962522,2677.0907553567 1091.6945673087,2674.3339590922 1101.8281583066,2671.9440097779 1113.5449328553,2669.7867745593 1125.9228823141,2668.1820176127 1138.7536531919,2667.1435169639 1151.7809278113,2666.6024948174 1164.7754400405,2666.4009892857 1175.6614713038,2666.3865730898 1186.3843934389,2666.6710618112 1197.3131386392,2666.9690288471 1208.7223634241,2667.3738264939 1220.0379247206,2667.9436099539 1231.0667454066,2668.5358173659 1242.2342336286,2669.2773244753 1253.532390365,2670.0890376623 1264.4921222397,2670.8343728039 1275.5894240494,2671.5723412914 1288.3518657623,2672.3367143284 1300.7289960815,2673.1158437946 1313.1084781515,2674.1342064805 1325.2121258475,2674.9610379985 1337.2096430156,2675.8443458545 1349.2730147538,2676.8033367759 1361.1454068024,2677.8509913156 1372.7627284101,2678.9147915716 1384.0119378915,2679.8520275498 1396.6807093265,2681.0568757754 1409.2246172377,2682.0982990408 1421.5012209017,2683.1580272383 1433.9267397582,2684.2292948545 1446.2879304067,2685.2178363071 1458.2319908637,2686.4576999984 1469.5252512395,2687.4162209791 1481.1052611111,2688.4010493372 1492.3135809116,2689.459981938 1503.6746415222,2690.5930061217 1514.4068854961,2691.7511193325 1525.3824204499,2692.9588169597 1536.4177215132,2694.0776057341 1548.0199753101,2695.2821916439 1559.7170293888,2696.4690290996 1571.1431484196,2697.830671219 1582.3789058679,2699.1258398223 1593.4935364048,2700.3900655944 1604.6354004647,2701.5783029285 1615.931142878,2702.7971646925 1626.7066094519,2703.9497764592 1637.2579694,2705.0164268857 1648.0426763959,2706.1390752109 1658.9313599124,2707.3134152978 1669.7530624048,2708.4055090314 1680.7424196878,2709.5450132591 1691.5215781699,2710.7619537345 1702.5895785729,2712.1160178757 1713.5702836613,2713.3544554749 1724.6215121847,2714.5911510924 1735.3138239715,2716.0173168033 1746.2988354649,2717.5054176682 1756.9528335375,2719.0681924156 1767.5610304588,2720.7930172137 1778.3703424146,2722.695873097 1789.9014649281,2725.218529767 1800.8191387268,2728.1861907133 1811.7037117136,2731.8008083132 1822.8538809307,2735.9975270346 1833.191344589,2740.6397604361 1842.9342635344,2745.7903573176 1852.6620891422,2751.6705921989 1860.7802590216,2757.2087160827 1868.7404862007,2763.3772152659 1876.4932933038,2770.0226986738 1883.8663044477,2777.0978154706 1889.8438537486,2783.5699628233 1895.3179864062,2790.1969013308 1900.6439367804,2797.3675692353 1905.467622018,2804.6024439297 1909.9688715027,2812.2852820235 1914.0967702845,2820.0235950754 1917.8663172087,2828.1940878292 1921.0791659103,2836.3742973619 1923.8597635507,2844.6345883523 1926.2766630294,2853.1096594621 1928.3347183646,2862.0140757188 1929.9418860462,2870.9056047702 1930.8662746434,2879.6163730609 1931.3521436595,2888.4127750602 1931.2964338978,2897.1522197768 1931.0061580485,2905.9475028944 1930.1978734868,2914.5380670245 1928.6468887334,2924.7558602027 1926.4999181641,2934.5959458665 1923.6519502349,2944.1216306918 1920.0177760958,2954.1923946825 1915.3352217856,2963.9621120216 1909.4691569208,2974.2974853145 1903.2170684462,2983.4444047719 1896.3793085139,2992.2287027128 1889.3412489558,2999.8533692793 1882.1885679824,3006.4340411771 1874.842265247,3012.414110827 1867.336744703,3017.8414942299 1859.1874471124,3022.8098268272 1850.6399144273,3027.1481055384 1841.7832541819,3030.8978056223 1833.5418666542,3034.1173561258 1825.4524163995,3036.5483826549 1817.4661363471,3038.6185320495 1809.3687596109,3040.411501139 1800.9309753239,3041.8978464574 1792.4283903909,3043.1319725043 1783.9157012876,3044.0548040189 1775.1604676846,3044.8388349812 1766.4808586521,3045.342343974 1757.4827689663,3045.7447713316 1748.6506362329,3045.9698076245 1739.6064057972,3046.048255796 1730.5223652229,3046.1033045979 1721.2793932206,3045.9972989388 1712.0213303619,3045.8930276373 1702.6663764185,3045.6045681474 1693.2867127954,3045.0598645773 1683.5643441114,3044.5076427373 1673.9730763028,3043.8616337653 1664.1873976545,3043.1876822014 1654.3683118563,3042.5195532299 1646.0984520537,3041.8259539212 1637.7523339587,3041.2043005562 1629.260801777,3040.508892582 1620.7910970548,3039.9163156398 1612.2873777001,3039.3722208224 1603.5353456462,3038.6263968556 1594.7817624946,3037.9067486252 1585.9513027588,3037.1550398614 1577.2750059544,3036.3012838998 1568.0592638684,3035.5077777608 1559.3994714397,3034.8437677436 1550.3682427527,3034.0616382927 1541.0849931285,3033.2906798841 1531.9465918519,3032.6326599525 1522.2947724835,3031.8235198772 1512.9997853329,3031.0710529868 1503.5123954615,3030.2408847995 1493.8774009932,3029.4708242937 1484.3942409648,3028.6922971991 1474.6253578031,3027.8257269227 1464.3807815146,3026.789387321 1454.0417623999,3025.7840343216 1443.80947323,3024.5894406791 1435.5998244438,3023.8843557979 1427.5725735604,3023.1163951934 1419.4313443035,3022.2211018058 1410.8166577494,3021.2821793105 1402.4726123464,3020.4672008758 1394.2382310722,3019.5967796577 1385.7875387991,3018.8360000687 1377.4403003941,3017.9886129377 1369.1421613963,3017.096780484 1360.5196189577,3016.2449237713 1352.4428524612,3015.3430464271 1344.363156729,3014.5505292762 1335.870581379,3013.5947803212 1326.7687103924,3012.6047938958 1318.4604364605,3011.6628605715 1310.2371397583,3010.8458981435 1301.8779236679,3009.9779190963 1293.8063875682,3009.1399434308 1285.4116086619,3008.3309276365 1276.9908472393,3007.6087895249 1268.8172885626,3006.8102469024 1258.8216850989,3006.0267091659 1248.6533410108,3005.1938926992 1238.7633742762,3004.4335316349 1229.0978731135,3003.8510724519 1219.5311507261,3003.2013223798 1209.88898321,3002.8694488338 1200.3267217076,3002.4442626427 1191.124690808,3002.2462841034 1181.976433024,3001.9899904439 1173.3950302236,3002.0004930048 1164.2681393449,3002.248307002 1154.5562248983,3002.6605411631 1145.0510496226,3003.2025315277 1135.8084544593,3004.2163938335 1126.7589453345,3005.1732406194 1117.7669423607,3006.4361990881 1109.0391349684,3008.0419542962 1100.3715215974,3009.6194703493 1090.6190723857,3011.816391349 1081.1065464678,3014.1796591426 1071.6284467127,3016.965086864 1062.6771419475,3019.8510474284 1052.7344969479,3023.6842712483 1043.0463707939,3027.7982429564 1032.661832484,3032.9203430337 1022.4739200729,3038.7863955413 1012.8174361216,3045.2277662238 1004.2670024762,3051.6840979635 997.3303010994,3058.1200029524 990.9348094735,3065.046871852 985.1483942304,3072.2202661951 980.0310100016,3079.3621603794 975.3396924339,3087.0576312548 971.5803592075,3094.9196854774 968.3005784812,3103.3556945857 966.124912923,3111.0714988293 964.4982326966,3118.9912273032 963.1916252938,3127.191445979 962.5577805937,3135.9628075185 962.285522084,3145.3081891818 963.221403128,3154.6061713332 964.9951140522,3164.4438529857 967.8657364245,3174.7952358955 972.3784375723,3185.9341098633 977.4654044079,3196.0580011438 983.3616045527,3205.1135309634 988.8676646234,3212.6714044229 995.2697091993,3219.8370937547 1002.2063212246,3226.4250683236 1009.4841901581,3232.1221878246 1016.7449308876,3236.8215894132 1024.4879854435,3240.7787847346 1032.3260382507,3243.8463808355 1040.6536932412,3246.4831851758 1049.6975655444,3248.5459906335 1058.5964824637,3249.6511817704 1067.5093467801,3250.0826810321 1077.3657934803,3249.6585760668 1087.6934325501,3248.0418767222 1099.3692416195,3245.2941282183 1110.1721518717,3241.8167474852 1120.1570392284,3237.8285343868 1130.0695191294,3233.5819450785 1140.2057993238,3229.2399220172 1150.0829864236,3224.85101804 1159.8842041241,3220.4451007575 1169.8636564214,3215.937299911 1178.9206914879,3212.0879316944 1188.7923702754,3207.7526097207 1198.7176526016,3203.6828017473 1209.1745061756,3199.9532378273 1219.5491371657,3196.6162464485 1230.1501033586,3193.6192930739 1241.0625489384,3190.7957404142 1251.8250439937,3188.3529050023 1263.8111626358,3186.189446444 1276.2725942192,3184.4930125467 1287.4756247106,3183.146939046 1298.2413192524,3182.2829473253 1309.3562040832,3181.7425323513 1320.6131250774,3181.4395274788 1332.1509684256,3181.4509933708 1342.4423431723,3181.3123737278 1352.5130280847,3181.3654233575 1362.9048633147,3181.4119340122 1373.7279715331,3181.6976779591 1385.0141721926,3182.1128420758 1396.2177740988,3182.6703310733 1407.0984553458,3183.3637442893 1418.1613899944,3184.1977756135 1430.0840813878,3185.1567012944 1442.0311544237,3186.1116488968 1453.4465087337,3186.8588423996 1464.3156662342,3187.6048980815 1475.6950272161,3188.4558122438 1487.3213547242,3189.2635843457 1499.2230974942,3190.3979903724 1511.167916041,3191.2890498578 1522.9984575909,3192.1316078463 1535.3815634123,3193.0070261149 1547.5533484665,3193.8188980468 1559.631280086,3194.6356713448 1572.4061793746,3195.3825308722 1585.4453858543,3196.2389280638 1598.6818772871,3196.8952340809 1611.8182125604,3197.6762705115 1625.4239232258,3198.5712844741 1638.9244564708,3199.3630731603 1652.3574083852,3200.1888742783 1665.0578008797,3200.9153939864 1676.7027972542,3201.4699663428 1688.0513343766,3201.9882186255 1699.6355708867,3202.4790836752 1711.188860818,3202.9388300856 1723.0120982744,3203.5550864969 1734.7673757869,3204.0666078273 1746.7158133576,3204.6206517959 1759.0340615185,3205.1151830362 1771.3066842735,3205.6108129526 1783.2604028597,3206.1070080335 1796.0220142753,3206.6281776131 1808.5403972772,3207.1107705517 1821.6300135431,3207.7239467921 1834.3967163246,3208.2755705933 1847.0158549587,3208.827315426 1859.4272882538,3209.3711031826 1872.2202516907,3209.9673263076 1884.8068624572,3210.5607681057 1897.3901202353,3211.0131916068 1909.9355916329,3211.3606477864 1922.5058149124,3211.8578689012 1934.3727655091,3212.2942503128 1946.251385045,3212.7234914113 1958.4864702384,3213.1410448298 1970.3253615804,3213.5549522451 1982.4152859062,3214.0855892321 1994.5196504356,3214.522777256 2006.4431945616,3214.911426634 2018.3414062991,3215.2898732437 2029.7645920829,3215.7613638213 2041.338835705,3216.2459912549 2052.6449239756,3216.6259955928 2064.1129223595,3217.1106633032 2075.5693561813,3217.5593858632 2086.7778015137,3217.9466489089 2097.60825115,3218.2863940811 2108.528942804,3218.6917738423 2119.6480015525,3219.0732586912 2130.1908554383,3219.4458901781 2140.8155680649,3219.8265963998 2151.1577313044,3220.0573115019 2161.3896933492,3220.3726157821 2171.3816661392,3220.7676372108 2181.1494389061,3221.1943815029 2190.8465227489,3221.6627158656 2200.4283119287,3222.0035099316 2211.1817968244,3222.4960572973 2222.7491781509,3223.0026456751 2234.3785475843,3223.4843530091 2245.7177945602,3224.0192875155 2256.851324644,3224.5591246697 2267.8284093765,3225.1584966263 2278.7373477867,3225.7360173741 2290.0760297285,3226.4729016258 2301.0398216241,3227.2586241855 2311.9029742205,3228.1234440893 2322.5665360667,3229.1766349315 2333.2914430518,3230.2086895268 2343.8039338722,3231.2376355683 2354.4406313765,3232.4274693821 2365.0202238716,3233.7907143672 2375.8457382911,3235.3164009917 2385.8706831176,3236.852921384 2396.2670505373,3238.2885388202 2406.1075289785,3239.945849314 2416.1068473138,3241.5717213535 2426.8164942635,3243.5259543973 2437.5286382646,3245.4637214107 2447.7830092006,3247.3180683043 2457.2073781908,3249.1948025991 2467.7074893017,3251.2542018557 2477.5835269962,3253.1557062342 2487.7122497626,3255.0510495741 2497.6771836295,3256.8689994906 2507.6466263506,3258.7203486831 2516.9716445454,3260.4947140977 2526.8173711107,3262.2628180331 2536.1351446602,3263.7843335204 2545.2120415653,3265.1974435074 2554.6429399283,3266.6440059518 2563.7045328391,3267.9441285241 2572.9071905556,3269.2181425496 2582.2197482585,3270.4553082719 2591.6574304761,3271.5765352111 2601.2393511284,3272.6864907475 2610.228848631,3273.7027868537 2619.733108,3274.6893001417 2628.5387336195,3275.5362060085 2638.0215115444,3276.2678371605 2647.6920072846,3276.9293255527 2657.4550529124,3277.1742267026 2666.2575414848,3277.1723039575 2674.1800531909,3277.0547049115 2682.2003526138,3276.5588101443 2690.3358746376,3275.7600225863 2698.7694600836,3274.5607547519 2707.0014465692,3273.1394058466 2715.6132392823,3271.3317817461 2723.7058143239,3269.3034124201 2731.6152864954,3266.7639493764 2739.6180005633,3263.7382557916 2747.4788251034,3260.2278153213 2755.3292249585,3256.189851479 2763.4231360739,3251.5364897879 2771.6456649831,3246.0405547717 2779.4253974685,3240.1550259224 2787.3671274788,3233.3952838113 2795.230692531,3225.5188272514 2802.6760519412,3217.4500384685 2810.3155161867,3208.4911074597 2817.535392688,3199.6184162684 2824.3648422523,3190.6373487348 2831.2519521859,3181.5058236438 2837.2700708724,3172.9092387221 2843.2269153901,3164.4580819095 2849.347754258,3155.4166359127 2855.3724151671,3146.3293736989 2860.6779544051,3138.2012732216 2866.0971660389,3129.7314035916 2871.5508758058,3121.2208259869 2877.1376957554,3112.7765087832 2882.6958869604,3104.3266850419 2888.0732243223,3096.1473138378 2893.7356761197,3087.784605686 2899.6414153098,3079.5077827383 2905.4985716087,3071.2641139677 2911.8461866218,3062.7208647751 2918.7303491326,3054.1721423744 2926.2264866747,3045.7328272411 2934.3316159931,3037.7914353436 2943.0759612235,3030.2749823255 2952.1449071995,3023.6011049539 2961.4745100055,3017.8538372323 2970.4559079154,3013.2633882885 2979.1380143536,3009.5733370144 2987.5415682004,3006.6100277102 2996.0947223119,3004.2995129651 3005.1826108159,3002.4627615293 3014.3036496923,3000.9915952097 3023.4869992814,2999.8264618368 3032.1512229038,2999.0314347337 3040.9775675938,2998.4416047598 3049.8656518412,2997.9744775041 3058.8475515384,2997.6821998847 3067.5861867336,2997.5270859904 3076.4399460847,2997.245554315 3085.2273334021,2997.077602429 3094.0886615778,2996.970594244 3102.7734427535,2996.8925578728 3111.2284144011,2996.9438474891 3119.8084722115,2996.9605149932 3128.3213375882,2997.1727046717 3136.538055346,2997.1928203856 3144.6235620497,2997.3061665886 3152.7205717846,2997.2984376292"
     id="DCC_START"
     inkscape:connector-curvature="0"
     sodipodi:nodetypes="ccccccccccccccccccccccccccccccccccccccccccccc" />
  <path
     style="fill:none;stroke:#008000;stroke-width:0.5px;stroke-linecap:butt;stroke-linejoin:miter;stroke-opacity:1"
     d="m 3230.3732,2997.9069 8.1618,2.2064 8.3869,2.7711 7.6064,3.1423 7.5897,3.5456 7.6487,3.6104 7.2175,3.8563 7.3359,4.3132 7.1404,4.7637 6.7443,4.7965 6.5283,4.911 6.1828,5.0588 6.1125,5.7527 6.109,5.907 5.7303,5.9588 5.6581,6.5485 5.431,6.898 4.9359,6.8969 5.1185,7.6518 4.8522,8.1152 4.4248,8.5575 4.3107,9.4123 4.0997,10.085 3.6652,10.4322 3.0646,10.6222 2.7273,10.3658 1.9369,10.004 1.584,9.915 0.9427,8.924 0.4086,9.8657 -0.1381,9.4349 -0.3201,8.558 -0.7257,8.7899 -1.0244,8.5894 -1.5917,8.274 -2.0283,8.4562 -2.4239,7.6862 -2.8479,8.0749 -3.1364,7.6339 -3.8493,7.6582 -3.8534,6.5695 -4.9746,7.2558 -4.8661,6.8426 -5.593,6.7212 -6.4791,6.6174 -6.44,6.0114 -6.9223,5.6011 -7.3971,5.1705 -7.955,4.8958 -8.4992,4.7858 -9.9633,4.2926 -9.3492,3.4729 -10.6023,3.0825 -11.7821,2.4816 -11.6128,1.5957 -11.6674,0.6119 -9.2997,0.025 -9.0216,-0.5525 -9.532,-1.1489 -9.2308,-1.6502 -9.1168,-1.7745 -9.2232,-2.2939 -9.1353,-2.5851 -9.5542,-2.8963 -9.1579,-3.3085 -9.198,-3.1254 -9.057,-3.18 -8.7251,-2.8021 -8.3829,-2.5822 -8.4485,-2.3372 -8.7961,-2.1257 -8.8937,-1.7848 -9.4326,-1.4128 -9.5878,-1.0078 -9.4562,-0.6084 -10.0011,-0.1044 -10.3227,0.2244 -10.3783,0.4045 -10.51,0.6552 -9.7292,0.8866 -10.5835,0.9131 -10.4049,0.8792 -9.6116,0.793 -9.3904,0.9087 -9.8681,0.868 -10.017,0.7861 -10.2132,0.677 -10.3901,0.8915 -10.3019,0.8926 -10.3237,0.9827 -10.4017,1.0775 -10.7485,1.1666 -10.5864,1.1517 -10.497,0.9611 -10.8461,0.8402 -10.9259,0.7596 -10.8488,0.7046 -11.064,0.3791 -11.0913,0.538 -10.5435,0.2134 -9.482,0.2661 -9.4255,0.3526 -9.9792,0.2902 -9.8363,0.3706 -10.0107,0.2701 -9.9199,0.2554 -9.2544,0.3341 -9.3776,0.18 -9.5817,0.2057 -9.1794,0.129 -9.3351,-0.065 -9.036,-0.2782 -8.9948,-0.2359 -9.2754,-0.3557 -9.4522,-0.394 -9.9713,-0.8068 -10.0061,-0.7377 -10.0226,-0.6199 -10.5387,-0.7162 -10.6964,-0.7298 -10.842,-0.7086 -10.6715,-0.8228 -10.3387,-0.6463 -10.5675,-0.7085 -9.8649,-0.5965 -9.9406,-0.5461 -10.5243,-0.6604 -9.7081,-0.5552 -9.6689,-0.4986 -9.6403,-0.6737 -9.7159,-0.6311 -9.8368,-0.6702 -9.7643,-0.6299 -9.6237,-0.6469 -10.1845,-0.7541 -9.9307,-0.7361 -10.3906,-0.8305 -11.1851,-0.8941 -11.1033,-0.8733 -11.0689,-0.7736 -11.2459,-0.7858 -10.8229,-0.9292 -10.6837,-0.9973 -10.8181,-0.9106 -11.0017,-0.7228 -10.5649,-0.6701 -10.8416,-0.7517 -11.1665,-0.5983 -10.7871,-0.5647 -11.0239,-0.7331 -10.9807,-0.6526 -11.4413,-0.6892 -10.9501,-0.6784 -11.006,-0.7557 -10.9481,-0.7187 -10.6018,-0.7346 -10.7011,-0.7862 -10.3287,-0.5647 -10.3057,-0.5887 -9.9298,-0.6826 -9.9217,-0.6524 -10.0866,-0.6761 -10.1087,-0.6118 -9.2989,-0.6591 -9.3419,-0.6851 -9.0927,-0.6646 -9.1134,-0.4918 -9.4757,-0.6761 -8.921,-0.6382 -8.9957,-0.6449 -9.1908,-0.4897 -11.3082,-0.7751 -11.192,-0.7786 -10.4078,-0.6429 -10.3245,-0.5866 -10.3942,-0.6452 -10.199,-0.549 -10.0846,-0.5421 -9.9399,-0.5555 -9.6296,-0.5667 -9.6882,-0.4854 -9.2477,-0.3786 -9.7361,-0.3825 -10.5848,-0.4624 -10.3237,-0.3435 -9.9108,-0.2578 -10.0074,-0.3276 -9.8174,-0.2727 -9.5869,-0.2988 -9.3059,-0.2166 -9.377,-0.2658 -9.0439,-0.3634 -9.2112,-0.5536 -9.5794,-0.4421 -9.7772,-0.8901 -10.4986,-0.8378 -9.2315,-0.6995 -9.1223,-0.6883 -9.1985,-0.7684 -9.1848,-0.8507 -8.9469,-0.8983 -9.1293,-0.9231 -9.291,-0.793 -9.3048,-0.807 -8.753,-0.7536 -9.2339,-0.9663 -9.2091,-0.9265 -9.3627,-0.8604 -9.4016,-1.0286 -9.505,-0.8886 -9.7284,-0.9014 -9.3593,-0.8979 -9.9652,-0.8872 -10.1872,-0.9842 -9.513,-0.8078 -10.2531,-0.6919 -10.6797,-0.7926 -10.3372,-0.6161 -10.7148,-0.522 -10.8759,-0.5551 -10.718,-0.3951 -10.7889,-0.3598 -10.866,-0.3943 -10.8259,-0.3205 -10.8208,-0.2717 -10.705,-0.074 -10.6621,-0.087 -10.4204,0.044 -10.3351,0.028 -10.4867,0.059 -10.265,-0.05 -10.5494,-0.013 -10.1599,-0.091 -10.3321,-0.098 -10.4299,-0.1739 -10.5253,-0.1149 -10.6092,-0.3058 -10.5355,-0.2811 -10.6666,-0.3274 -10.6217,-0.4738 -10.6567,-0.6431 -10.4774,-0.2409 -10.5976,-0.3086 -10.5373,-0.1648 -10.5726,-0.046 -10.2355,0.2067 -10.1755,0.406 -9.9617,0.8249 -11.8587,1.2947 -11.3098,1.5829 -11.104,1.9501 -11.6405,2.5825 -11.6496,3.1067 -10.5659,3.0719 -10.3742,3.7201 -10.6214,4.0621 -10.5403,4.3182 -10.4531,4.404 -10.4741,4.5319 -10.4481,4.5919 -10.6307,4.2129 -9.9737,3.6816 -10.4095,3.7136 -11.1283,3.5424 -11.8605,3.397 -12.364,2.6751 -11.4819,1.8424 -11.1425,1.1287 -11.218,0.5806 -9.721,-0.01 -10.0269,-0.5597 -9.6489,-0.911 -9.9004,-1.3834 -9.7329,-1.8627 -9.7601,-2.1466 -10.129,-2.7206 -9.6239,-2.9043 -8.5068,-3.0444 -7.17853,-3.268 -7.89814,-3.8912 -7.8307,-4.312 -6.87516,-4.228 -8.2186,-5.6382 -5.89914,-4.8151 -7.31543,-6.4295 -6.842,-6.7795 -6.43244,-7.11 -5.95757,-7.3217 -5.75118,-7.532 -5.48228,-7.8244 -4.86978,-7.8555 -4.72142,-7.9679 -4.74917,-9.1942 -4.38315,-9.9837 -4.01377,-10.1892 -3.64451,-10.1769 -3.08022,-10.1588 -3.07345,-11.748 -2.63089,-12.1936 -1.60616,-10.4963 -1.08783,-10.5044 -0.77039,-10.8705 -0.3928,-10.9101 -0.0986,-10.354 0.21752,-9.4056 0.53698,-9.3209 0.77865,-9.4593 1.06542,-9.6515 1.29741,-9.7815 1.46527,-10.1257 1.67849,-10.0396 1.42795,-8.1683 1.48116,-8.262 1.45769,-8.2077 1.57985,-8.7431 1.51306,-8.6079 1.39765,-8.7581 1.5092,-8.7435 1.60556,-8.7248 1.53346,-8.501 1.54436,-8.8432 1.58889,-8.7741 1.60586,-8.8465 1.69464,-8.6453 1.61464,-8.4747 1.68675,-8.554 1.94164,-8.689 2.10184,-8.7234 2.24348,-8.5478 2.48042,-8.3744 2.68733,-8.0363 3.12411,-8.2626 3.29167,-8.403 3.36415,-7.9764 3.71328,-7.8603 3.91084,-7.974 4.10408,-7.5094 4.44338,-7.526 4.65401,-7.5032 4.84752,-7.0903 4.97411,-7.0932 5.18746,-7.0075 5.17461,-6.7655 5.1488,-6.1835 5.19954,-6.1652 6.11332,-6.6997 6.83779,-6.9621 6.87187,-6.474 6.8242,-6.1528 6.9499,-5.601 7.5386,-5.468 7.7626,-5.5829 7.929,-5.0177 8.6934,-5.0637 9.0905,-4.5581 8.4818,-3.941 9.7282,-4.0332 10.485,-3.5075 9.5839,-2.8757 10.7864,-2.9889 11.6934,-2.8106 11.8493,-2.3186 11.3811,-1.6428 11.0408,-1.1699 11.4553,-0.8733 11.4003,-0.4226 10.5877,-0.2827 9.6997,-0.1503 9.7842,0.038 9.9969,0.014 10.0442,0.1286 10.3757,0.3001 10.9018,0.1458 10.7535,0.2848 11.0102,0.4402 11.0649,0.5715 10.1768,0.6695 8.9627,0.7951 9.2078,0.6357 9.502,0.7547 9.631,0.7817 10.0793,0.843 9.9092,0.9641 9.8794,0.9718 10.3834,0.9416 10.1389,0.7351 10.4723,0.6277 10.3265,0.6008 10.4842,0.4015 10.962,0.4921 10.8946,0.348 10.6127,0.3684 10.8456,0.3874 10.5424,0.408 10.7228,0.3347 10.4704,0.3189 10.4365,0.3217 10.4825,0.3525 10.0634,0.5424 10.0959,0.5869 9.9124,0.4902 9.5167,0.6189 9.7392,0.6479 9.2812,0.6778 9.2974,0.7334 9.1357,0.7374 10.9231,1.001 10.9418,1.0956 11.9313,0.7689 9.5091,0.6128 9.3797,0.6044 4.6898,0.3023 6.786,0.4373 11.3067,0.7286"
     id="DCC_MCD"
     inkscape:connector-curvature="0"
     sodipodi:nodetypes="cccccccccccccccccccccccccccccccccccccccccccccccccccccccccccccccccccccccccccccccccccccccccccccccccccccccccccccccccccccccccccccccccccccccccccccccccccccccccccccccccccccccccccccccccccccccccccccccccccccccccccccccccccccccccccccccccccccccccccccccccccccccccccccccccccccccccccccccccccccccccccccccccccccccccccccccccccccccccccccccccccccccccccccccccccccccccccccccccccccccccccccccccccccccccccccccccccccccccccccccccccccccccccccc" />
  <path
     style="fill:none;stroke:#008000;stroke-width:0.5px;stroke-linecap:butt;stroke-linejoin:miter;stroke-opacity:1"
     d="m 1590.1351,2696.0553 7.6877,-0.1652 5.394,-0.1159 6.0002,-0.129 12.8283,-0.2757 6.2535,-0.1344 5.2714,0.6088 5.2714,0.6088 4.9108,0.5991 4.9107,0.5991 4.3155,0.6258 4.3155,0.6258 4.5213,0.6564 4.5213,0.6564 4.4199,0.7002 4.4199,0.7003 4.3894,0.6555 4.3893,0.6555 4.5638,0.745 4.5638,0.745 4.7007,0.802 4.7006,0.8019 4.3395,0.8071 4.3394,0.807 4.2647,0.8032 4.2647,0.8032 4.393,0.9156 4.3929,0.9155 4.2993,0.9042 4.2993,0.9041 4.3598,0.9858 4.3598,0.9857 4.2175,0.951 4.2174,0.9511 4.2043,1.0721 4.2042,1.0721 4.1774,1.0568 4.1774,1.0568 4.088,1.1763 4.0879,1.1763 5.0329,1.5701 5.0329,1.5701 4.4782,1.4481 4.4782,1.4481 4.7217,1.7216 4.7216,1.7216 4.5512,1.7706 4.5511,1.7706 4.1715,1.7777 4.1714,1.7777 3.5444,1.7202 3.5443,1.7201 3.5959,1.8364 3.5959,1.8364 3.5593,2.1243 3.5593,2.1243 3.3887,2.2873 3.3886,2.2872 3.4296,2.3579 3.4295,2.3579 3.3206,2.6842 3.3206,2.6841 3.2376,2.9232 3.2375,2.9232 3.1084,3.0072 3.1083,3.0072 3.0342,3.2785 3.0342,3.2784 2.9034,3.3896 2.9033,3.3896 2.759,3.61 2.7589,3.6099 2.66,3.9656 2.6599,3.9655 2.3172,3.874 2.3172,3.8739 2.1492,4.0998 2.1491,4.0998 1.9481,4.2487 1.9481,4.2487 2.1914,5.352 2.1913,5.352 1.8352,5.5093 1.8351,5.5092 1.4804,5.5847 1.4804,5.5846 0.9997,5.5832 0.9996,5.5832 0.6687,5.5204 0.6687,5.5204 0.4822,5.3656 0.4821,5.3656 0.1378,5.3701 0.1377,5.3701 -0.1982,5.0461 -0.1982,5.0461 -0.5078,4.9206 -0.5079,4.9205 -0.8169,4.7378 -0.817,4.7377 -1.0391,4.4548 -1.0392,4.4547 -1.2419,4.3528 -1.2419,4.3528 -1.4326,4.1496 -1.4327,4.1496 -1.751,3.7268 -1.751,3.7268 -2.014,3.5022 -2.0141,3.5021 -2.3202,3.0779 -2.3202,3.0779 -2.585,2.8103 -2.5851,2.8103 -3.4828,3.02 -3.4828,3.0199 -3.7026,2.6221 -3.7027,2.6221 -3.4931,2.5385 -3.4931,2.5384 -3.342,2.5585 -3.3421,2.5585 -3.6198,2.6302 -3.6199,2.6301 -4.2278,2.5589 -4.2279,2.5588 -3.7768,2.093 -3.7769,2.0929 -4.345,1.9718 -4.345,1.9717 -5.0011,1.9786 -5.0012,1.9786 -5.3277,1.7341 -5.3278,1.7341 -5.5482,1.3403 -5.5483,1.3402 -5.7675,1.1378 -5.7676,1.1377 -5.9975,0.8659 -5.9976,0.8658 -6.2716,0.7093 -6.2717,0.7092 -5.4711,0.5284 -5.4712,0.5284 -5.5994,0.381 -5.5995,0.381 -5.6891,0.4081 -5.6892,0.4081 -6.0293,0.2074 -6.0293,0.2073 -5.0596,0.2624 -5.0596,0.2624 -5.1908,0.1591 -5.1907,0.159 -5.3223,0.282 -5.3222,0.282 -5.3657,0.3101 -5.3657,0.31 -5.4521,0.2995 -5.4521,0.2995 -5.412,0.3478 -5.4119,0.3477 -5.5245,0.1697 -5.5244,0.1696 -5.4875,0.094 -5.4874,0.094 -5.569,0.039 -5.5691,0.039 -5.571,-0.08 -5.5711,-0.08 -5.6209,-0.1024 -5.621,-0.1024 -5.8207,-0.159 -5.8208,-0.159 -4.7167,-0.1593 -4.7168,-0.1593 -4.53,-0.3558 -4.53,-0.3559 -4.7329,-0.3592 -4.7328,-0.3592 -4.8993,-0.4349 -4.8993,-0.4349 -5.1267,-0.432 -5.1267,-0.432 -4.7373,-0.4864 -4.7374,-0.4865 -4.7446,-0.5447 -4.7447,-0.5448 -5.092,-0.4835 -5.092,-0.4835 -5.128,-0.4731 -5.128,-0.4732 -5.2323,-0.6022 -5.2323,-0.6022 -5.2716,-0.5071 -5.2716,-0.5072 -5.2003,-0.517 -5.2004,-0.517 -4.9461,-0.6406 -4.946,-0.6406 -5.0369,-0.5099 -5.0369,-0.51 -4.9333,-0.5902 -4.9334,-0.5903 -4.8712,-0.5332 -4.8713,-0.5332 -4.8557,-0.4981 -4.8556,-0.4982 -4.8787,-0.5025 -4.8787,-0.5026 -4.8243,-0.4571 -4.8244,-0.4572 -4.8132,-0.5353 -4.8132,-0.5353 -4.8026,-0.5315 -4.8027,-0.5315 -4.7041,-0.5593 -4.704,-0.5594 -4.6682,-0.6012 -4.6681,-0.6012 -4.5424,-0.4401 -4.5423,-0.4402 -4.6506,-0.523 -4.6506,-0.523 -4.4153,-0.5407 -4.4153,-0.5408 -4.5745,-0.448 -4.5745,-0.448 -5.5105,-0.7142 -5.5104,-0.7142 -5.567,-0.617 -5.567,-0.6171 -5.2644,-0.588 -5.2644,-0.588 -5.2247,-0.6279 -5.2247,-0.628 -5.1936,-0.5934 -5.1936,-0.5935 -5.3001,-0.5068 -5.3,-0.5068 -4.9924,-0.534 -4.9924,-0.5341 -5.0948,-0.4163 -5.0947,-0.4164 -5.0629,-0.4115 -5.0629,-0.4116 -5.0066,-0.3533 -5.0065,-0.3534 -4.9064,-0.2932 -4.9064,-0.2932 -4.8531,-0.2552 -4.8532,-0.2553 -4.8723,-0.2224 -4.8723,-0.2225 -4.8157,-0.1509 -4.8157,-0.151 -4.9619,-0.1846 -4.962,-0.1846 -4.8944,-0.038 -4.8944,-0.038 -5.4037,0.044 -5.4037,0.043 -5.7387,0.1496 -5.7388,0.1495 -5.6732,0.176 -5.6733,0.176 -5.6327,0.3801 -5.6328,0.38 -5.5256,0.5453 -5.5257,0.5452 -6.4354,0.78 -6.4354,0.7799 -6.2427,0.9693 -6.2427,0.9692 -5.9044,1.2593 -5.9044,1.2592 -5.6149,1.5255 -5.615,1.5255 -5.2842,1.8148 -5.2842,1.8147 -5.0844,2.0964 -5.0845,2.0964 -4.6884,2.3642 -4.6883,2.3642 -4.4914,2.5564 -4.4914,2.5564 -4.2841,2.7381 -4.284,2.738 -3.8925,2.7874 -3.8924,2.7873 -3.6414,2.9886 -3.6413,2.9885 -3.3679,3.1193 -3.36799,3.1193 -3.16202,3.3096 -3.16202,3.3096 -2.84664,3.469 -2.84664,3.4689 -2.33232,3.6643 -2.33231,3.6642 -1.98637,3.7185 -1.98636,3.7184 -1.7145,3.9578 -1.71451,3.9578 -1.4137,3.9882 -1.41371,3.9881 -1.14315,4.7043 -1.14315,4.7042 -0.66671,4.8647 -0.66672,4.8647 -0.23737,4.9955 -0.23738,4.9954 0.45243,5.7234 0.45242,5.7233 -2.18691,5.0425 0.66734,5.5181 0.89223,6.9629 0.41652,7.9144 1.27649,8.7908 3.65504,5.4607 3.38887,5.5455 3.50182,3.6317 3.03792,3.5783 1.70188,1.9098 4.39177,4.6316 4.32458,2.7935 4.8814,3.6119 3.11797,1.257 3.9711,2.6834 2.9619,2.5463 3.9941,0.919 4.8036,1.4283 3.5046,1.1371 4.6531,2.6796 3.5583,0.4602 4.7281,2.4569 4.7137,1.6131 3.6204,0.5198 5.1369,1.2667 4.4641,-0.7516 5.2745,0.8224 5.2744,0.8224 5.4099,0.2495 5.4098,0.2494 6.0319,-0.2921 6.0319,-0.2921 5.8596,-0.8704 5.8596,-0.8704 5.4126,-1.1476 5.4125,-1.1477 4.9054,-1.307 4.9053,-1.3071 5.0098,-1.4936 5.0098,-1.4936 5.0792,-1.5923 5.0791,-1.5923 4.9825,-1.5403 4.9824,-1.5403 4.9844,-1.6862 4.9843,-1.6862 5.2325,-1.7069 5.2325,-1.7069 5.5065,-1.6621 5.5064,-1.6621 5.6247,-1.664 5.6246,-1.6641 5.8182,-1.5599 5.8181,-1.5599 5.8492,-1.363 5.8491,-1.363 5.9687,-1.2743 5.9686,-1.2743 5.8814,-1.1299 5.8814,-1.1299 5.9575,-0.9833 5.9575,-0.9834 5.8138,-0.7599 5.8138,-0.7599 6.024,-0.7515 6.024,-0.7516 5.9273,-0.5375 5.9272,-0.5375 5.6474,-0.4538 5.6475,-0.4538 5.2689,-0.3407 5.2689,-0.3407 5.4609,-0.3352 5.4608,-0.3353 5.5582,-0.2468 5.5581,-0.2468 5.6035,-0.1541 5.6034,-0.1541 5.9971,-0.085 5.997,-0.085 5.8706,-0.041 5.8706,-0.041 5.7697,0.055 5.7698,0.054 5.8303,0.092 5.8302,0.092 5.7578,0.056 5.7578,0.056 5.99,0.21 5.9901,0.2099 5.5234,0.1429 5.5233,0.1429 5.7388,0.238 5.7388,0.2379 5.3991,0.3074 5.3991,0.3074 5.6507,0.2231 5.6507,0.2231 5.7945,0.4315 5.7945,0.4314 5.5024,0.3774 5.5024,0.3773 5.4297,0.2977 5.4297,0.2977 5.4517,0.3385 5.4518,0.3385 5.4515,0.3563 5.4516,0.3562 5.432,0.4225 5.432,0.4225 5.4814,0.4812 5.4815,0.4811 5.6458,0.4272 5.6458,0.4271 5.7223,0.4138 5.7224,0.4137 4.6743,0.3775 4.6743,0.3774 4.7241,0.3372 4.7241,0.3371 4.6359,0.3347 4.6359,0.3347 4.8065,0.3411 4.8066,0.341 4.653,0.2203 4.653,0.2203 4.895,0.4011 4.8949,0.4011 4.6453,0.2789 4.6452,0.2788 5.0821,0.2552 5.0822,0.2552 5.8826,0.3948 5.8826,0.3948 5.6662,0.2896 5.6663,0.2895 5.6895,0.3372 5.6895,0.3372 5.3864,0.2907 5.3865,0.2907 5.4711,0.2728 5.4711,0.2728 5.5128,0.2167 5.5129,0.2166 5.451,0.2155 5.4511,0.2154 5.4873,0.2876 5.4874,0.2876 5.4872,0.2265 5.4873,0.2264 5.5828,0.216 5.5828,0.2159 5.7731,0.2264 5.7732,0.2264 5.8046,0.1736 5.8046,0.1735 5.6965,0.2269 5.6966,0.2268 5.7621,0.2153 5.7622,0.2153 6.0782,0.2358 6.0783,0.2357 5.9131,0.2518 5.9131,0.2518 4.8521,0.286 4.8521,0.286 5.291,0.208 5.291,0.2079 5.2245,0.2984 5.2244,0.2984 5.3357,0.2946 5.3357,0.2946 5.7062,0.3405 5.7063,0.3405 5.9172,0.2699 5.9172,0.2698 5.7193,0.3235 5.7193,0.3235 5.5717,0.2801 5.5718,0.2801 5.6491,0.2975 5.6491,0.2975 5.4278,0.2599 5.4278,0.2599 5.6324,0.2721 5.6325,0.272 5.539,0.3158 5.5391,0.3158 5.6146,0.2924 5.6146,0.2924 5.3814,0.3768 5.3815,0.3767 5.5003,0.3212 5.5003,0.3211 5.4134,0.2824 5.4134,0.2824 5.4624,0.3056 5.4624,0.3056 5.4468,0.3672 5.4469,0.3671 5.5239,0.3601 5.5239,0.3601 5.5331,0.3257 5.5331,0.3256 5.5975,0.4162 5.5976,0.4161 5.4284,0.3275 5.4285,0.3274 5.6732,0.3531 5.6732,0.353 5.5259,0.3238 5.5259,0.3238 5.7731,0.3483 5.7732,0.3483 5.8581,0.3285 5.8581,0.3284 5.635,0.3053 5.635,0.3052 5.7087,0.2838 5.7087,0.2837 5.6915,0.2872 5.6916,0.2872 5.6377,0.1929 5.6377,0.1928 5.6913,0.2243 5.6914,0.2242 5.6233,0.2718 5.6233,0.2717 5.4995,0.2693 5.4995,0.2693 5.443,0.1239 5.443,0.1239 5.3843,0.2308 5.3843,0.2308 5.2358,0.3291 5.2358,0.3291 5.2748,0.2894 5.2749,0.2893 5.2019,0.3056 5.2019,0.3056 5.2809,0.2953 5.2809,0.2952 5.4339,0.3648 5.434,0.3647 5.1674,0.3752 5.1674,0.3752 5.3049,0.4631 5.305,0.4631 5.3185,0.3728 5.3185,0.3727 5.4576,0.4742 5.4577,0.4742 5.1367,0.4684 5.1367,0.4683 5.3494,0.4226 5.3495,0.4226 5.3226,0.5433 5.3227,0.5433 5.3832,0.5623 5.3833,0.5623 6.3619,0.6747 6.362,0.6747 4.9923,0.5512 4.9923,0.5512 5.3071,0.6087 5.3072,0.6086 5.1229,0.6215 5.123,0.6215 4.9846,0.7163 4.9846,0.7163 5.0612,0.7148 5.0613,0.7147 5.0783,0.7449 5.0784,0.7449 4.996,0.7794 4.9961,0.7793 5.0579,0.8348 5.058,0.8348 4.8951,0.8887 4.8951,0.8886 4.9852,0.8389 4.9853,0.8389 4.8201,0.8254 4.8202,0.8254 4.5343,0.7618 4.5343,0.7618 4.9929,0.7484 4.9929,0.7483 4.8347,0.7145 4.8348,0.7145 4.9141,0.6572 4.9142,0.6572 4.9415,0.5934 4.9415,0.5934 5.1084,0.57 5.1085,0.5699 4.9831,0.5298 4.9831,0.5297 5.1415,0.5968 5.1415,0.5968 4.9435,0.5681 4.9435,0.5681 4.9482,0.5902 4.9482,0.5901 5.1103,0.5612 5.1103,2.243 4.6865,0.4869 4.3503,1.4959 5.0085,0.1033 6.8297,1.0548 5.3836,0.1197 5.8016,0.1196 6.5364,0.376 3.92,0.2571 5.027,0.04 4.1945,-0.3166 3.1126,1.5517 7.1491,0.8381 3.5858,-0.133 5.7436,0.6788 5.1614,-0.4248 5.8138,0.3159 6.7899,-0.5602 2.5935,0.1123 8.5594,0.2054 5.5896,-0.6645 5.8418,0.2896 10.1366,1.7132 6.6689,-0.5853 5.9554,-1.2988 6.8882,-0.2867 4.9685,-2.7806 4.3805,-1.1635 6.0046,-2.4106 2.7561,-2.8559 4.3972,-1.6091 4.5479,-3.7198 5.0237,-2.2928 4.0564,-2.1382 4.0565,-2.1382 3.9494,-2.3925 3.9494,-2.3926 3.81,-2.6433 3.81,-2.6433 3.5782,-2.9459 3.5783,-2.946 3.637,-3.1082 3.637,-3.1082 3.4249,-3.397 3.4249,-3.3971 3.2905,-3.4802 3.2905,-5.8349 2.8494,-4.5354 2.8494,-4.1991 2.0512,-3.6833 2.724,-3.3469 1.326,-5.0958 3.0079,-3.7504 2.9683,-3.9274 2.9683,-3.9274 2.808,-3.9227 2.8081,-3.9227 2.7061,-3.8841 2.7061,-3.8841 2.7028,-3.9111 2.7029,-3.9112 2.5952,-3.8737 2.5953,-3.8738 2.4173,-3.7291 2.4174,-3.7292 2.6233,-3.8025 2.6233,-3.8025 2.4948,-3.6131 2.4949,-3.6132 2.4827,-3.3996 2.4827,-3.3997 2.4742,-3.3707 2.4742,-3.3708 2.6106,-3.2731 2.6106,-3.2732 3.0917,-3.8197 3.0917,-3.8197 3.0444,-3.7054 3.0444,-3.7054 3.0828,-3.6652 3.0828,-3.6653 3.0084,-3.4918 3.0084,-3.4918 3.0022,-3.5909 3.0022,-3.591 3.2352,-3.539 3.2353,-3.539 3.2363,-3.5171 3.2363,-3.5172 3.2318,-3.4375 3.2318,-3.4375 2.8773,-2.908 2.8773,-2.9081 3.4314,-3.3217 3.4315,-3.3218 3.0236,-2.7055 3.0237,-2.7055 3.1194,-2.5577 3.1194,-2.5578 3.916,-2.9561 3.916,-2.9561 4.045,-2.7538 4.0451,-2.7538 4.2912,-2.5359 4.2913,-2.536 4.413,-2.2179 4.4131,-2.2179 4.5744,-2.112 4.5743,-2.1121 4.557,-1.6797 4.5569,-1.6797 4.7812,-1.4217 4.7812,-1.4218 5.5774,-1.2344 5.5774,-1.2345 5.6153,-0.8893 5.6154,-0.8893 5.7797,-0.6992 5.7798,-0.6993"
     id="MCD_DCC"
     inkscape:connector-curvature="0"
     sodipodi:nodetypes="cccccccccccccccccccccccccccccccccccccccccccccccccccccccccccccccccccccccccccccccccccccccccccccccccccccccccccccccccccccccccccccccccccccccccccccccccccccccccccccccccccccccccccccccccccccccccccccccccccccccccccccccccccccccccccccccccccccccccccccccccccccccccccccccccccccccccccccccccccccccccccccccccccccccccccccccccccccccccccccccccccccccccccccccccccccccccccccccccccccccccccccccccccccccccccccccccccccccccccccccccccccccccccccccccccccccccccccccccccccccccccccccccccccccccccccccccccccccccccccccccccccccccccccccccccccccccccccccccccccccccccccccccccccccccccccccccccccccccccccccccccccccccccccccccccccccccccccccccccccccccccccccccccccccccccccccccccccccccccccccccccccccccccccccccccccccccccccccccccccccccccccccccccccccccccccccccccccccccccccccccccccccccccccccccc" />
  <path
     style="fill:none;stroke:#008000;stroke-width:0.5px;stroke-linecap:butt;stroke-linejoin:miter;stroke-opacity:1"
     d="m 3049.9555,2993.089 2.9086,-0.1881 2.9087,-0.1881 2.9087,-0.188 2.9086,-0.1881 2.8015,-0.1359 2.8014,-0.1359 2.8015,-0.1359 2.8014,-0.1359 2.659,-0.07 2.659,-0.07 2.659,-0.07 2.659,-0.07 2.5567,0.019 2.5567,0.019 2.5567,0.019 2.5567,0.019 2.7761,0.024 2.7761,0.024 2.7761,0.024 2.7761,0.024 2.4125,0.03 2.4124,0.03 2.4125,0.029 2.4124,0.03 2.6372,0.079 2.6373,0.079 2.6372,0.079 2.6372,0.079 2.4313,0.041 2.4313,0.041 2.4313,0.041 2.4313,0.041 2.4385,0.077 2.4386,0.077 2.4385,0.077 2.4386,0.077 2.4198,0.1108 2.4199,0.1107 2.4199,0.1108 2.4198,0.1108 2.2752,0.1296 2.2752,0.1297 2.2752,0.1296 2.2752,0.1296"
     id="DCC_END"
     inkscape:connector-curvature="0"
     sodipodi:nodetypes="ccccccccccccccccccccccccccccccccccccccccccccc" />
  <path
     style="fill:none;stroke:#008000;stroke-width:0.5px;stroke-linecap:butt;stroke-linejoin:miter;stroke-opacity:1"
     d="m 4252.533,2276.009 13.429,-3.8407 11.497,-3.2882 12.0621,-3.4498 11.6228,-3.3241 12.1566,-3.4768 6.989,-1.9989 9.7457,-1.5429 10.0006,-1.0308 10.1545,-0.8045 10.2927,-0.4029 10.2614,-0.094 10.6673,0.1129 10.3513,0.1963 7.9325,0.1891 8.0913,0.4491 8.0682,0.4363 8.2367,0.6391 8.404,0.5478 8.2762,0.7258 8.3822,0.5983 8.3363,0.6175 8.5975,0.6149 8.7038,0.8713 8.9455,0.6996 8.694,0.5428 9.4971,0.6244 8.8825,0.6423 9.1908,0.7268 9.1405,0.727 9.2658,0.9446 9.5459,0.5957 9.4009,0.7268 9.3044,0.6806 9.1615,0.727 8.6779,0.6273 9.0353,0.8045 8.6966,0.5151 8.962,0.4338 8.6159,0.5289 8.5948,0.5276 8.4719,0.5349 8.302,0.515 8.4577,0.4493 8.5891,0.6074 8.4514,0.5979 8.5267,0.7038 8.8341,0.5692 8.4464,0.781 8.5546,0.6011 8.5643,0.5709 8.5957,0.7352 8.4895,0.7746 8.5974,0.8452 8.3581,0.8281 8.3277,0.8454 8.3848,0.9943 8.3898,0.8293 8.2637,0.9706 8.2855,1.1123 8.4227,1.1171 8.2026,1.0945 8.0678,1.0552 8.0341,1.1816 10.5043,1.4402 9.3238,1.3808 8.9398,1.2284 10.2507,1.2865 10.135,1.1378 9.9482,1.1315 9.8396,0.8931 9.9564,0.9051 9.5322,0.6913 9.481,0.6022 9.4726,0.7354 9.2144,0.6958 9.0404,0.6584 8.8985,0.3049 8.7767,0.4275 8.4876,0.2036 8.2437,0.01 8.0762,0.3182 8.1366,0.096 7.9715,-0.1793 8.9095,-0.1722 9.5026,-0.7329 9.4114,-1.0333 8.8252,-1.5095 8.5289,-2.106 8.2834,-2.3951 9.5232,-3.4012 9.1893,-4.11 8.629,-4.4871 9.4802,-5.7699 8.9515,-6.5502 8.7745,-8.0784 7.1882,-7.9628 5.7491,-7.8924 4.7908,-8.6728 3.8771,-9.063 2.859,-8.7122 1.9292,-8.2324 1.1904,-8.291 0.6331,-8.6462 -0.1293,-8.7384 -0.9973,-8.6782 -1.9061,-8.544 -2.6842,-8.3598 -4.0623,-9.5539 -4.0574,-9.0267 -5.4632,-9.1773 -6.6752,-9.4324 -6.9995,-8.3755 -7.3844,-6.9985 -8.2155,-6.1176 -7.4748,-4.5198 -7.7864,-3.9444 -8.3881,-3.187 -8.4395,-2.7211 -8.6785,-1.9616 -8.9088,-1.5227 -9.5546,-0.6239 -9.3186,0.01 -9.5353,0.1963 -9.9703,0.8212 -10.0772,1.4451 -8.3139,1.6911 -8.2978,1.7876 -8.3443,2.1753 -8.7446,2.5991 -9.0966,2.9429 -9.4415,3.4055 -9.9798,3.5966 -10.1395,3.9679 -10.6866,3.9461 -10.7937,4.0581 -9.7951,3.2123 -8.3838,2.7941 -8.4688,2.7768 -8.4346,2.7185 -8.3005,2.5251 -8.4873,2.5203 -8.5336,2.3331 -8.8617,2.1555 -8.4323,2.022 -8.5111,1.9502 -9.1078,1.5605 -8.4631,1.5039 -8.7625,1.1591 -8.6792,0.7535 -8.8554,0.5719 -9.1203,0.2154 -8.9317,0.1797 -8.7196,0.087 -9.0068,-0.151 -9.3069,-0.2413 -9.3178,-0.1347 -9.4294,-0.3815 -9.3006,-0.5381 -9.1861,-0.7003 -9.3606,-0.4853 -9.568,-0.6969 -9.4252,-0.614 -9.2764,-0.5839 -9.9475,-0.553 -9.8839,-0.6179 -10.1985,-0.6445 -10.2851,-0.5687 -10.1402,-0.5341 -10.3708,-0.6958 -10.3388,-0.5416 -10.2144,-0.6383 -9.9204,-0.6747 -10.1471,-0.55 -10.6317,-0.7927 -10.2027,-0.7574 -10.9136,-0.7974 -10.7777,-0.889 -10.4065,-0.5423 -10.6585,-0.7361 -10.8663,-0.7949 -10.8022,-0.7132 -10.5533,-0.7056 -10.6608,-0.7117 -10.581,-0.6851 -10.8948,-0.7157 -10.6969,-0.7022 -10.2262,-0.5484 -10.7689,-0.6723 -10.4602,-0.5896 -10.3781,-0.7097 -10.2681,-0.6523 -10.1571,-0.5446 -10.2854,-0.6295 -9.949,-0.7078 -9.8032,-1.1076 -9.7989,-1.1136 -9.7292,-1.291 -9.7542,-1.2825 -9.7555,-0.9941 -9.5187,-0.9679 -9.5078,-0.9807 -9.7647,-0.8602 -9.3276,-0.8036 -9.3518,-0.7573 -9.2392,-0.8359 -9.0555,-0.7446 -9.1323,-0.9012 -9.2205,-0.5728 -9.1744,-0.805 -9.0618,-0.6997 -9.0757,-0.6719 -8.9367,-0.6659 -8.984,-0.5856 -8.8695,-0.5362 -8.8475,-0.6011 -9.1052,-0.5623 -8.169,-0.6405 -8.6065,-0.6933 -8.7462,-0.5696 -8.3911,-0.5034 -8.4229,-0.4369 -8.3069,-0.4045 -8.3362,-0.4495 -8.2482,-0.612 -8.4065,-0.3402 -8.3593,-0.223 -8.3584,0.055 -8.472,-0.044 -8.4424,0.5537 -8.5507,0.1813 -8.4915,-0.033 -8.6976,-0.1671 -8.4335,-0.2319 -8.6108,-0.5086 -8.7516,-0.442 -8.2488,-0.5245 -8.5822,-0.8309 -8.8043,-0.6461 -8.6144,-0.6188 -8.4993,-0.6008 -8.3783,-0.7601 -9.1807,-0.5732 -8.3515,-0.5883 -8.2668,-0.5798 -8.5778,-0.582 -8.0873,-0.4063 -8.7819,-0.7665 -8.0339,-0.4842 -8.0582,-0.4664 -8.1914,-0.4903 -8.1233,-0.5033 -8.0628,-0.5751 -8.3373,-0.5759 -8.5797,-0.7047 -9.2677,-0.5991 -9.1415,-0.6072 -8.9231,-0.5984 -10.4262,-0.6361 -10.7401,-0.8994 -10.1576,-0.5756 -10.2379,-0.6295 -10.4929,-0.7071 -9.5262,-0.6813 -10.0231,-0.7479 -9.7534,-0.8261 -9.8566,-0.699 -10.0851,-0.7526 -9.9395,-0.6472 -9.9572,-0.8406 -10.1061,-0.7325 -10.0137,-0.6938 -10.4143,-0.789 -10.2712,-0.6603 -9.7441,-0.5922 -9.7414,-0.4022 -10.555,-0.4122 -8.9553,-0.5125 -9.7843,-0.5626 -9.3277,-0.4804 -9.579,-0.5872 -9.4889,-0.4468 -9.5686,-0.3705 -9.5284,-0.4088 -9.4434,-0.4163 -9.2402,-0.3909 -9.2877,-0.4623 -9.0171,-0.4013 -9.1472,-0.2302"
     id="path3062"
     inkscape:connector-curvature="0"
     sodipodi:nodetypes="ccccccccccccccccccccccccccccccccccccccccccccccccccccccccccccccccccccccccccccccccccccccccccccccccccccccccccccccccccccccccccccccccccccccccccccccccccccccccccccccccccccccccccccccccccccccccccccccccccccccccccccccccccccccccccccccccccccccccccccccccccccccccccccccccccccccccccccccccccccccccccccccccc" />
  <path
     style="fill:none;stroke:#ff0000;stroke-width:0.5px;stroke-linecap:butt;stroke-linejoin:miter;stroke-opacity:1"
     d="m 3462.8147,2066.1013 -8.9933,0.1016 -9.0615,0.6055 -8.9946,0.9436 -9.0097,1.2007 -8.6952,1.672 -8.7808,1.9256 -10.1329,3.1498 -9.9263,3.5554 -9.4166,4.2231 -8.9515,4.6185 -9.4334,5.7753 -9.6792,6.6386 -9.1196,6.845 -8.6267,6.8762 -7.9197,7.087 -7.6092,7.2829 -7.5529,6.9179 -7.6113,6.9509 -7.2196,7.4324 -6.8846,7.3847 -6.8624,7.8116 -7.1957,8.4866 -7.4738,8.8686 -7.4934,8.7466 -7.557,8.816 -7.696,8.956 -7.169,8.4651 -6.4133,7.5435 -7.4395,8.3037 -8.6001,9.1538 -8.3099,8.8042 -8.5867,8.548 -8.9043,8.3846 -9.0934,8.2113 -9.2443,8.2775 -9.7872,8.0342 -10.1941,7.8212 -10.6487,7.289 -8.9257,5.7183 -8.7055,5.1125 -8.8344,4.9452 -8.9501,4.7791 -8.829,4.3396 -9.1267,4.0237 -9.0731,3.6752 -8.9846,3.629 -9.0868,3.083 -8.6945,2.6827 -9.0135,2.4482 -8.7153,2.0939 -8.3762,1.6354 -8.3385,1.3333 -8.1575,0.9791 -9.6112,0.8445 -9.1355,0.484 -8.5075,0.2656 -9.1982,0.197 -8.8783,0.1351 -9.0846,-0.035 -8.8614,0.1898 -8.3994,-0.019"
     id="path3064"
     inkscape:label="#MCD_DCC"
     inkscape:connector-curvature="0" />
  <path
     style="fill:none;stroke:#000000;stroke-width:0.5px;stroke-linecap:butt;stroke-linejoin:miter;stroke-opacity:1"
     d="m 1015.9451,800.2389 3.9647,0.60834 4.0558,1.06838 4.0731,1.59848 3.9504,2.12742 3.995,2.84066 3.9852,3.65537 3.4567,4.34105 5.9266,15.72596 0.9152,49.91628 -0.037,55.24617"
     id="DCC_MCD1"
     inkscape:label="#DCC_START"
     inkscape:connector-curvature="0"
     sodipodi:nodetypes="ccccccccccc" />
  <path
     style="fill:none;stroke:#000000;stroke-width:0.5px;stroke-linecap:butt;stroke-linejoin:miter;stroke-opacity:1"
     d="m 1050.2121,833.49481 0.7263,4.06245 0.4737,4.10182 0.3458,4.13376 0.011,4.18549 -0.01,4.16587 0.123,4.01718 0.1403,3.95195 0.011,4.1114 0.094,3.91527 0.065,4.06595 0.094,4.16717 -0.062,4.17434 0.01,4.07654 -0.076,4.12662 -0.1333,4.17621 -0.1137,4.06736 0.089,4.02189 -0.088,4.14866 0.1206,4.06322 0.096,4.02476 0.02,4.12398 0.039,4.11266 0.038,4.10521 0.026,4.13557 0.1826,4.14081 0.1361,4.12538 0.1564,4.17097 0.1746,4.01143 0.2264,4.07502 0.077,4.07176 0.098,4.22814 0.076,4.23057 -0.021,4.2047 0.1506,4.11266 0.1221,4.23341 0.079,4.05609 0.054,4.17112 0.1549,4.17815 0.087,4.20601 0.034,4.07543 0.089,4.06261 0.1489,3.9977 0.1863,4.151 0.1811,4.1767 0.1817,4.1 0.1952,4.0249 0.12,4.0016 0.2204,4.0947 0.2466,4.1726 0.1939,4.1772 0.272,3.9622 0.2228,4.1265 0.2469,4.1702 0.2845,4.0586 0.2863,4.039 0.3035,4.2462 0.3258,4.1132 0.4026,4.3305 0.3612,4.2466 0.3314,4.2531 0.264,4.291 0.4747,4.1032 0.4483,4.1347 0.4919,4.1886 0.6309,4.108 0.5172,4.0475 0.6005,4.339 0.6952,4.0777 0.7476,4.2423 0.78,4.1874 0.8884,4.302 0.88,4.0397 1.029,4.1836 1.1365,4.2074 1.0923,4.149 1.2563,4.1472 1.3081,4.1221 1.3196,4.0846 1.4061,4.1779 1.4409,4.2525 1.4515,4.0997 1.4854,4.1808 1.5356,4.1722 1.5657,4.1524 1.5403,4.1743 1.5188,4.0527 1.4544,4.181 1.499,4.2159 1.4734,4.2273 1.4646,4.2395 1.3536,4.0982 1.2452,4.2463 1.1503,4.1558 1.1935,4.116 1.114,4.1697 1.1374,4.2723 1.0692,4.1035 0.9825,4.0498 0.9198,4.0932 1.0029,4.29 0.9158,4.0737 0.8224,4.1599 0.8238,4.1781 0.7199,4.2375 0.6926,4.0598 0.6498,4.3069 0.6196,4.2273 0.5471,4.0758 0.5577,4.1766 0.5545,4.1735 0.4934,4.2302 0.4304,4.1412 0.4017,4.1345 0.3375,4.1254 0.3752,4.2094 0.3555,4.1873 0.2831,3.9599 0.2326,4.1735 0.1738,4.0857 0.1661,4.1513 0.1186,4.1464 0.1626,4.2562 0.016,4.0844 0.023,3.9127 -0.018,4.1101 0.016,4.0894 -0.1335,4.0708 -0.04,4.0994 -0.031,4.1007 -0.037,4.1642 -0.012,4.0728 -0.059,4.1734 -9e-4,4.1678 -0.072,4.0913 0.031,4.2101 -0.063,4.1913 -0.1456,4.0995 -0.089,4.0826 -0.071,4.2087 -0.159,4.0762 -0.1255,4.1935 -0.2151,4.1584 -0.2096,4.0022 -0.208,4.2573 -0.2383,4.1023 -0.2293,4.2182 -0.2408,4.197 -0.2564,4.1699 -0.2878,4.015 -0.374,4.2916 -0.3536,4.1471 -0.3526,4.1385 -0.3648,4.3217 -0.3714,4.0698 -0.3905,4.192 -0.4256,4.179 -0.4043,4.1593 -0.3875,4.0424 -0.3969,4.2268 -0.3845,4.1085 -0.4315,4.0926 -0.4548,4.1307 -0.5686,4.1126 -0.5484,4.1108 -0.5541,4.1861 -0.5083,4.194 -0.4504,4.2787 -0.5075,4.0474 -0.6029,4.1053 -0.551,3.9859 -0.5367,4.0871 -0.5391,4.0266 -0.4885,4.1919 -0.4857,4.1183 -0.4499,4.2861 -0.4576,4.0121 -0.4204,4.0005 -0.3793,3.9753 -0.3634,4.119 -0.3033,4.2279 -0.2152,4.134 -0.1588,4.2334 -0.1323,4.1572 -0.019,4.1857 -0.019,4.2086 0.054,4.3291 0.098,4.0803 0.1548,4.1954 0.2471,4.0615 0.347,4.3885 0.3591,4.2182 0.4463,4.1909 0.4822,4.0432 0.5369,4.082 0.6607,4.0898 0.71,4.2301 0.7053,4.2386 0.7747,4.4055 0.7809,4.2453 0.8542,4.244 0.8588,4.1422 0.856,4.151 0.8743,4.3129 0.8578,4.0887 0.9044,4.0464 0.8171,4.1777 0.874,4.16 0.9881,4.2104 0.9218,4.1343 0.9247,4.3278 0.9093,4.0741 0.8811,4.3194 0.9009,4.2797 0.887,4.1444 0.8609,4.0944 0.8961,4.2372 0.8099,4.2612 0.8042,4.2556 0.7732,4.2852 0.8326,4.3615 0.7861,4.1953 0.7981,4.0717 0.7653,4.2715 0.8188,4.3027 0.7573,4.1678 0.7097,4.2559 0.7071,4.1528 0.7015,4.1895 0.5886,4.3882 0.5507,4.3704 0.562,4.062 0.3661,4.1815 0.2464,4.1839 0.1975,4.0375 0.1028,4.2528 -0.039,4.2489 -0.1793,4.1134 -0.3572,4.1963 -0.5648,3.9862 -0.8356,4.2367 -1.1198,4.2771 -1.3597,3.982 -1.6781,4.049 -2.0038,4.0861 -2.4302,3.9925 -2.7784,3.8968 -3.3268,4.2311 -3.8058,4.0775 -4.2393,3.7841 -4.2622,3.1805 -4.0156,2.4515 -4.2634,2.2 -4.2137,1.5969 -4.1334,1.4918 -4.0968,1.0572 -4.1427,0.9356 -3.99,0.5283 -4.1439,0.3179 -4.1752,0.1161 -4.2045,-0.038 -4.0941,-0.2603 -3.976,-0.3121 -4.0508,-0.2182 -4.3158,-0.2606 -4.183,-0.5129 -4.1041,-0.6681 -4.0872,-0.7955 -4.1243,-0.8233"
     id="MCD_DCC_"
     inkscape:label="#DCC_START" />
  <path
     style="fill:none;stroke:#000000;stroke-width:0.5px;stroke-linecap:butt;stroke-linejoin:miter;stroke-opacity:1"
     d="m 1021.5997,1875.4237 -3.9033,-1.2218 -4.0282,-1.3613 -4.1001,-1.6332 -3.9634,-1.972 -3.9736,-2.5755 -3.86254,-3.2708 -3.59698,-4.1194 -2.67495,-4.0505 -0.39843,-2.9246 0.84891,-2.9419 1.26028,-2.7654 1.52339,-4.5365 1.1705,-3.9625 1.44398,-3.9531 1.42107,-4.0023 1.52947,-4.0067 1.714,-4.068 1.3834,-5.0754 0.9958,-4.0935 1.9206,-3.8848 6.0751,-18.1845 9.8997,-18.2448 18.5863,-38.0846"
     id="DCC_END_"
     inkscape:label="#DCC_START"
     inkscape:connector-curvature="0"
     sodipodi:nodetypes="cccccccccccccccccccccccc" />
  <path
     style="fill:none;stroke:#000000;stroke-width:0.5px;stroke-linecap:butt;stroke-linejoin:miter;stroke-opacity:1"
     d="m 386.82551,1195.4807 -0.3363,-8.073 6.0548,-68.2847 3.0274,-30.274 3.0273,-24.5555 3.0274,-19.5099 5.382,-41.0381 5.3821,-19.50985 5.7185,-12.7824 8.4094,-14.1278 7.7367,-11.4369 4.3728,-9.7549 1.682,-7.7367 2.6909,-13.4552 1.0092,-17.15518 -2.0182,-14.4643 -3.0274,-12.1096 -3.7002,-13.7914 -1.04293,-16.00679 -6.90064,-45.88671 -4.45453,-16.34319 -3.44553,-12.24891 -3.66627,-12.4459 1.0091,-9.0822 1.0091,-9.0823 3.3639,-8.7458 4.3728,-6.7275 6.0548,-8.7459 9.0823,-8.4094 9.0822,-5.7184 9.0821,-4.0365 11.4368,-4.7093 10.4278,-2.3547 11.7732,-1.0091 14.4642,0.6728 15.8097,2.0182 21.8646,3.0274 24.2192,4.7093 14.8007,3.0274 14.1278,1.6819 14.8006,1.0091 11.7732,2.691 14.1279,5.3821 15.4734,5.7184 10.0913,3.3638 11.4368,2.3546 8.0731,0.6728"
     id="EA_DCC"
     inkscape:connector-curvature="0"
     inkscape:label="#path3086"
     sodipodi:nodetypes="ccccccccccccccccccccccccccccccccccccccccccccccc" />
  <path
     style="fill:none;stroke:#000000;stroke-width:0.5px;stroke-linecap:butt;stroke-linejoin:miter;stroke-opacity:1"
     d="m 597.57738,1324.792 -9.58175,4.0775 -4.19283,2.6501"
     id="EA_END3"
     inkscape:connector-curvature="0"
     inkscape:label="#path3106"
     sodipodi:nodetypes="ccc" />
  <path
     style="fill:none;stroke:#000000;stroke-width:0.5px;stroke-linecap:butt;stroke-linejoin:miter;stroke-opacity:1"
     d="m 470.87154,1297.3827 -8.49103,9.6057 -6.14621,7.3666 -2.22527,8.4571"
     id="EA_END2"
     inkscape:connector-curvature="0"
     inkscape:label="#path3108"
     sodipodi:nodetypes="cccc" />
  <path
     style="fill:none;stroke:#000000;stroke-width:0.5px;stroke-linecap:butt;stroke-linejoin:miter;stroke-opacity:1"
     d="m 447.86939,1348.2728 -33.42503,11.7394 -12.47688,13.1089 -5.7184,10.7641 -1.6819,11.4368 3.0274,13.7915 6.3912,6.7275 10.0913,7.4003 16.1461,2.3547 16.4825,-5.382 8.0731,-7.7367 8.0731,-15.8097 2.3546,-18.1645 -0.3364,-18.1643 -0.3364,-20.8555"
     id="EA_START"
     inkscape:connector-curvature="0"
     inkscape:label="#path3110"
     sodipodi:nodetypes="ccccccccccccccc" />
  <path
     style="fill:none;stroke:#000000;stroke-width:0.5px;stroke-linecap:butt;stroke-linejoin:miter;stroke-opacity:1"
     d="m 529.33282,1500.2799 -8.073,3.7001 -10.0913,4.0365 -5.382,5.0457"
     id="EA_START2"
     inkscape:connector-curvature="0"
     inkscape:label="#path3112" />
  <path
     style="fill:none;stroke:#000000;stroke-width:0.5px;stroke-linecap:butt;stroke-linejoin:miter;stroke-opacity:1"
     d="m 653.53068,1431.5168 -7.7367,8.4094 -6.0547,7.4003 -5.7185,10.7641 -1.6818,11.4369 3.0274,13.7914 6.3911,6.7276 10.0913,7.4003 16.1461,2.3546 16.4825,-5.382 8.0732,-7.7367 8.073,-15.8098 2.3546,-18.1643 -0.3363,-9.0822 -0.3364,-12.7824"
     id="EA_E3A"
     inkscape:connector-curvature="0"
     inkscape:label="#path3110"
     sodipodi:nodetypes="ccccccccccccccc" />
  <path
     style="fill:none;stroke:#000000;stroke-width:0.5px;stroke-linecap:butt;stroke-linejoin:miter;stroke-opacity:1"
     d="m 635.41362,1322.6645 -0.3365,-8.7458 -0.6727,-6.3912"
     id="E3A_EA"
     inkscape:connector-curvature="0"
     inkscape:label="#path3132" />
  <path
     style="fill:none;stroke:#000000;stroke-width:0.5px;stroke-linecap:butt;stroke-linejoin:miter;stroke-opacity:1"
     d="m 611.09096,792.59899 -10.7641,0.3363 -12.7824,0 -3.3637,-0.3363"
     id="DCC_START2"
     inkscape:connector-curvature="0"
     inkscape:label="#path3082" />
  <path
     style="fill:none;stroke:#000000;stroke-width:0.5px;stroke-linecap:butt;stroke-linejoin:miter;stroke-opacity:1"
     d="m 559.31128,1442.1964 -6.7276,3.3638 -5.382,3.3637"
     id="EA_END"
     inkscape:connector-curvature="0"
     inkscape:label="#path3106" />
  <path
     style="fill:none;stroke:#000000;stroke-width:1px;stroke-linecap:butt;stroke-linejoin:miter;stroke-opacity:1"
     d="m 495.66726,1158.3301 8.087,9.9899 4.2814,11.4171 3.8057,8.087 7.6114,12.3685 8.087,20.9312 20.4556,16.6499 19.9798,-6.66 9.9899,-8.5628 0.9514,-11.8927 -1.4271,-12.8442 -0.4757,-14.747 -5.2328,-15.6984 -6.66,-6.6599 -15.2227,-7.6114 -12.3685,-0.4757 -11.417,1.4271 -13.3199,-0.9514"
     id="DCC_END2"
     inkscape:connector-curvature="0"
     sodipodi:nodetypes="cccccccccccccccccc"
     inkscape:label="#path3064" />
</svg>
