<?xml version="1.0" encoding="UTF-8" standalone="no"?>
<svg
   xmlns:dc="http://purl.org/dc/elements/1.1/"
   xmlns:cc="http://creativecommons.org/ns#"
   xmlns:rdf="http://www.w3.org/1999/02/22-rdf-syntax-ns#"
   xmlns:svg="http://www.w3.org/2000/svg"
   xmlns="http://www.w3.org/2000/svg"
   xmlns:xlink="http://www.w3.org/1999/xlink"
   xmlns:sodipodi="http://sodipodi.sourceforge.net/DTD/sodipodi-0.dtd"
   xmlns:inkscape="http://www.inkscape.org/namespaces/inkscape"
   sodipodi:docname="science_center_path_cruise.svg"
   height="5808"
   width="5796"
   inkscape:version="0.48.3.1 r9886"
   id="svg2"
   version="1.1">
  <sodipodi:namedview
     pagecolor="#ffffff"
     bordercolor="#666666"
     borderopacity="1"
     objecttolerance="10"
     gridtolerance="10"
     guidetolerance="10"
     inkscape:pageopacity="0"
     inkscape:pageshadow="2"
     inkscape:window-width="1535"
     inkscape:window-height="876"
     id="namedview32"
     showgrid="false"
     inkscape:zoom="0.37160615"
     inkscape:cx="2660.5684"
     inkscape:cy="2701.4559"
     inkscape:window-x="65"
     inkscape:window-y="24"
     inkscape:window-maximized="1"
     inkscape:current-layer="svg2"
     showguides="true"
     inkscape:guide-bbox="true" />
  <metadata
     id="metadata36">
    <rdf:RDF>
      <cc:Work
         rdf:about="">
        <dc:format>image/svg+xml</dc:format>
        <dc:type
           rdf:resource="http://purl.org/dc/dcmitype/StillImage" />
        <dc:title>Paths of the golfcar</dc:title>
      </cc:Work>
    </rdf:RDF>
  </metadata>
  <defs
     id="defs34">
    <marker
       inkscape:stockid="Arrow1Send"
       orient="auto"
       refY="0.0"
       refX="0.0"
       id="Arrow1Send"
       style="overflow:visible;">
      <path
         id="path6236"
         d="M 0.0,0.0 L 5.0,-5.0 L -12.5,0.0 L 5.0,5.0 L 0.0,0.0 z "
         style="fill-rule:evenodd;stroke:#000000;stroke-width:1.0pt;marker-start:none;"
         transform="scale(0.2) rotate(180) translate(6,0)" />
    </marker>
    <marker
       inkscape:stockid="Arrow1Sstart"
       orient="auto"
       refY="0.0"
       refX="0.0"
       id="Arrow1Sstart"
       style="overflow:visible">
      <path
         id="path6233"
         d="M 0.0,0.0 L 5.0,-5.0 L -12.5,0.0 L 5.0,5.0 L 0.0,0.0 z "
         style="fill-rule:evenodd;stroke:#000000;stroke-width:1.0pt;marker-start:none"
         transform="scale(0.2) translate(6,0)" />
    </marker>
    <inkscape:path-effect
       steps="5"
       equidistant_spacing="true"
       trajectory="M 0,0 0,0"
       is_visible="true"
       id="path-effect3660"
       effect="interpolate" />
    <inkscape:path-effect
       phi="5"
       teeth="10"
       is_visible="true"
       id="path-effect3658"
       effect="gears" />
    <marker
       style="overflow:visible"
       id="DotM"
       refX="0.0"
       refY="0.0"
       orient="auto"
       inkscape:stockid="DotM">
      <path
         transform="scale(0.4) translate(7.4, 1)"
         style="fill-rule:evenodd;stroke:#000000;stroke-width:1.0pt;marker-start:none;marker-end:none"
         d="M -2.5,-1.0 C -2.5,1.7600000 -4.7400000,4.0 -7.5,4.0 C -10.260000,4.0 -12.5,1.7600000 -12.5,-1.0 C -12.5,-3.7600000 -10.260000,-6.0 -7.5,-6.0 C -4.7400000,-6.0 -2.5,-3.7600000 -2.5,-1.0 z "
         id="path3704" />
    </marker>
    <marker
       style="overflow:visible"
       id="DotL"
       refX="0.0"
       refY="0.0"
       orient="auto"
       inkscape:stockid="DotL">
      <path
         transform="scale(0.8) translate(7.4, 1)"
         style="fill-rule:evenodd;stroke:#000000;stroke-width:1.0pt;marker-start:none;marker-end:none"
         d="M -2.5,-1.0 C -2.5,1.7600000 -4.7400000,4.0 -7.5,4.0 C -10.260000,4.0 -12.5,1.7600000 -12.5,-1.0 C -12.5,-3.7600000 -10.260000,-6.0 -7.5,-6.0 C -4.7400000,-6.0 -2.5,-3.7600000 -2.5,-1.0 z "
         id="path3701" />
    </marker>
    <marker
       style="overflow:visible;"
       id="Arrow1Lend"
       refX="0.0"
       refY="0.0"
       orient="auto"
       inkscape:stockid="Arrow1Lend">
      <path
         transform="scale(0.8) rotate(180) translate(12.5,0)"
         style="fill-rule:evenodd;stroke:#000000;stroke-width:1.0pt;marker-start:none;"
         d="M 0.0,0.0 L 5.0,-5.0 L -12.5,0.0 L 5.0,5.0 L 0.0,0.0 z "
         id="path3642" />
    </marker>
    <marker
       style="overflow:visible"
       id="Arrow1Lstart"
       refX="0.0"
       refY="0.0"
       orient="auto"
       inkscape:stockid="Arrow1Lstart">
      <path
         transform="scale(0.8) translate(12.5,0)"
         style="fill-rule:evenodd;stroke:#000000;stroke-width:1.0pt;marker-start:none"
         d="M 0.0,0.0 L 5.0,-5.0 L -12.5,0.0 L 5.0,5.0 L 0.0,0.0 z "
         id="path3639" />
    </marker>
    <inkscape:path-effect
       crossing_points_vector=""
       switcher_size="15"
       add_other_stroke_width="true"
       add_stroke_width="true"
       prop_to_stroke_width="true"
       interruption_width="3.6"
       is_visible="true"
       id="path-effect2862"
       effect="knot" />
    <inkscape:path-effect
       crossing_points_vector=""
       switcher_size="15"
       add_other_stroke_width="true"
       add_stroke_width="true"
       prop_to_stroke_width="true"
       interruption_width="3"
       is_visible="true"
       id="path-effect2860"
       effect="knot" />
    <inkscape:path-effect
       steps="5"
       equidistant_spacing="true"
       trajectory="M 0,0 0,0"
       is_visible="true"
       id="path-effect2858"
       effect="interpolate" />
    <inkscape:path-effect
       bendpath4="m 1068.3624,2136.3724 0,121.4273"
       bendpath3="m 1068.3624,2257.7997 48.7175,0"
       bendpath2="m 1117.0799,2136.3724 0,121.4273"
       bendpath1="m 1068.3624,2136.3724 48.7175,0"
       xx="true"
       yy="true"
       is_visible="true"
       id="path-effect2856"
       effect="envelope" />
    <inkscape:path-effect
       tgtlength_rdm="0.3;1"
       tgtlength="100"
       tgtscale="10"
       tgt_places_rdmness="1;1"
       nbtangents="5"
       tremble_frequency="1"
       tremble_size="5;1"
       parallel_offset="5;1"
       ends_tolerance="0.1;1"
       strokeoverlap_rdm="0.3;1"
       strokeoverlap="0.3"
       strokelength_rdm="0.3;1"
       strokelength="100"
       nbiter_approxstrokes="5"
       is_visible="true"
       id="path-effect2854"
       effect="sketch" />
    <inkscape:path-effect
       border_marks="both"
       mark_dir="left"
       offset="0"
       shift="0"
       major_mark_steps="5"
       minor_mark_length="7"
       mark_length="14"
       mark_distance="20"
       unit="px"
       is_visible="true"
       id="path-effect2852"
       effect="ruler" />
    <inkscape:path-effect
       border_marks="both"
       mark_dir="left"
       offset="0"
       shift="0"
       major_mark_steps="5"
       minor_mark_length="7"
       mark_length="14"
       mark_distance="20"
       unit="px"
       is_visible="true"
       id="path-effect2850"
       effect="ruler" />
    <inkscape:path-effect
       phi="5"
       teeth="10"
       is_visible="true"
       id="path-effect2848"
       effect="gears" />
    <inkscape:perspective
       id="perspective38"
       inkscape:persp3d-origin="1528.5 : 1178.6667 : 1"
       inkscape:vp_z="3057 : 1768 : 1"
       inkscape:vp_y="0 : 1000 : 0"
       inkscape:vp_x="0 : 1768 : 1"
       sodipodi:type="inkscape:persp3d" />
    <inkscape:perspective
       sodipodi:type="inkscape:persp3d"
       inkscape:vp_x="0 : 0.5 : 1"
       inkscape:vp_y="0 : 1000 : 0"
       inkscape:vp_z="1 : 0.5 : 1"
       inkscape:persp3d-origin="0.5 : 0.33333333 : 1"
       id="perspective2947" />
    <inkscape:perspective
       sodipodi:type="inkscape:persp3d"
       inkscape:vp_x="0 : 0.5 : 1"
       inkscape:vp_y="0 : 1000 : 0"
       inkscape:vp_z="1 : 0.5 : 1"
       inkscape:persp3d-origin="0.5 : 0.33333333 : 1"
       id="perspective2824" />
    <inkscape:perspective
       sodipodi:type="inkscape:persp3d"
       inkscape:vp_x="0 : 0.5 : 1"
       inkscape:vp_y="0 : 1000 : 0"
       inkscape:vp_z="1 : 0.5 : 1"
       inkscape:persp3d-origin="0.5 : 0.33333333 : 1"
       id="perspective2960" />
    <inkscape:perspective
       sodipodi:type="inkscape:persp3d"
       inkscape:vp_x="0 : 0.5 : 1"
       inkscape:vp_y="0 : 1000 : 0"
       inkscape:vp_z="1 : 0.5 : 1"
       inkscape:persp3d-origin="0.5 : 0.33333333 : 1"
       id="perspective3024" />
    <inkscape:perspective
       sodipodi:type="inkscape:persp3d"
       inkscape:vp_x="0 : 0.5 : 1"
       inkscape:vp_y="0 : 1000 : 0"
       inkscape:vp_z="1 : 0.5 : 1"
       inkscape:persp3d-origin="0.5 : 0.33333333 : 1"
       id="perspective3088" />
    <inkscape:perspective
       sodipodi:type="inkscape:persp3d"
       inkscape:vp_x="0 : 0.5 : 1"
       inkscape:vp_y="0 : 1000 : 0"
       inkscape:vp_z="1 : 0.5 : 1"
       inkscape:persp3d-origin="0.5 : 0.33333333 : 1"
       id="perspective3152" />
    <inkscape:perspective
       sodipodi:type="inkscape:persp3d"
       inkscape:vp_x="0 : 0.5 : 1"
       inkscape:vp_y="0 : 1000 : 0"
       inkscape:vp_z="1 : 0.5 : 1"
       inkscape:persp3d-origin="0.5 : 0.33333333 : 1"
       id="perspective3216" />
    <inkscape:perspective
       sodipodi:type="inkscape:persp3d"
       inkscape:vp_x="0 : 0.5 : 1"
       inkscape:vp_y="0 : 1000 : 0"
       inkscape:vp_z="1 : 0.5 : 1"
       inkscape:persp3d-origin="0.5 : 0.33333333 : 1"
       id="perspective3280" />
    <inkscape:perspective
       sodipodi:type="inkscape:persp3d"
       inkscape:vp_x="0 : 0.5 : 1"
       inkscape:vp_y="0 : 1000 : 0"
       inkscape:vp_z="1 : 0.5 : 1"
       inkscape:persp3d-origin="0.5 : 0.33333333 : 1"
       id="perspective3344" />
    <inkscape:perspective
       sodipodi:type="inkscape:persp3d"
       inkscape:vp_x="0 : 0.5 : 1"
       inkscape:vp_y="0 : 1000 : 0"
       inkscape:vp_z="1 : 0.5 : 1"
       inkscape:persp3d-origin="0.5 : 0.33333333 : 1"
       id="perspective3408" />
    <inkscape:perspective
       sodipodi:type="inkscape:persp3d"
       inkscape:vp_x="0 : 0.5 : 1"
       inkscape:vp_y="0 : 1000 : 0"
       inkscape:vp_z="1 : 0.5 : 1"
       inkscape:persp3d-origin="0.5 : 0.33333333 : 1"
       id="perspective3628" />
    <inkscape:perspective
       sodipodi:type="inkscape:persp3d"
       inkscape:vp_x="0 : 0.5 : 1"
       inkscape:vp_y="0 : 1000 : 0"
       inkscape:vp_z="1 : 0.5 : 1"
       inkscape:persp3d-origin="0.5 : 0.33333333 : 1"
       id="perspective2848" />
    <inkscape:perspective
       sodipodi:type="inkscape:persp3d"
       inkscape:vp_x="0 : 0.5 : 1"
       inkscape:vp_y="0 : 1000 : 0"
       inkscape:vp_z="1 : 0.5 : 1"
       inkscape:persp3d-origin="0.5 : 0.33333333 : 1"
       id="perspective3658" />
    <inkscape:perspective
       sodipodi:type="inkscape:persp3d"
       inkscape:vp_x="0 : 0.5 : 1"
       inkscape:vp_y="0 : 1000 : 0"
       inkscape:vp_z="1 : 0.5 : 1"
       inkscape:persp3d-origin="0.5 : 0.33333333 : 1"
       id="perspective3691" />
    <inkscape:perspective
       sodipodi:type="inkscape:persp3d"
       inkscape:vp_x="0 : 0.5 : 1"
       inkscape:vp_y="0 : 1000 : 0"
       inkscape:vp_z="1 : 0.5 : 1"
       inkscape:persp3d-origin="0.5 : 0.33333333 : 1"
       id="perspective3713" />
    <inkscape:perspective
       sodipodi:type="inkscape:persp3d"
       inkscape:vp_x="0 : 0.5 : 1"
       inkscape:vp_y="0 : 1000 : 0"
       inkscape:vp_z="1 : 0.5 : 1"
       inkscape:persp3d-origin="0.5 : 0.33333333 : 1"
       id="perspective3735" />
    <inkscape:perspective
       sodipodi:type="inkscape:persp3d"
       inkscape:vp_x="0 : 0.5 : 1"
       inkscape:vp_y="0 : 1000 : 0"
       inkscape:vp_z="1 : 0.5 : 1"
       inkscape:persp3d-origin="0.5 : 0.33333333 : 1"
       id="perspective3757" />
    <inkscape:perspective
       sodipodi:type="inkscape:persp3d"
       inkscape:vp_x="0 : 0.5 : 1"
       inkscape:vp_y="0 : 1000 : 0"
       inkscape:vp_z="1 : 0.5 : 1"
       inkscape:persp3d-origin="0.5 : 0.33333333 : 1"
       id="perspective2910" />
    <marker
       style="overflow:visible"
       id="DotM-1"
       refX="0"
       refY="0"
       orient="auto"
       inkscape:stockid="DotM">
      <path
         transform="matrix(0.4,0,0,0.4,2.96,0.4)"
         style="fill-rule:evenodd;stroke:#000000;stroke-width:1pt;marker-start:none;marker-end:none"
         d="m -2.5,-1 c 0,2.76 -2.24,5 -5,5 -2.76,0 -5,-2.24 -5,-5 0,-2.76 2.24,-5 5,-5 2.76,0 5,2.24 5,5 z"
         id="path3704-5" />
    </marker>
    <inkscape:perspective
       sodipodi:type="inkscape:persp3d"
       inkscape:vp_x="0 : 0.5 : 1"
       inkscape:vp_y="0 : 1000 : 0"
       inkscape:vp_z="1 : 0.5 : 1"
       inkscape:persp3d-origin="0.5 : 0.33333333 : 1"
       id="perspective3012" />
    <inkscape:perspective
       sodipodi:type="inkscape:persp3d"
       inkscape:vp_x="0 : 0.5 : 1"
       inkscape:vp_y="0 : 1000 : 0"
       inkscape:vp_z="1 : 0.5 : 1"
       inkscape:persp3d-origin="0.5 : 0.33333333 : 1"
       id="perspective2903" />
    <marker
       style="overflow:visible"
       id="DotM-5"
       refX="0"
       refY="0"
       orient="auto"
       inkscape:stockid="DotM">
      <path
         transform="matrix(0.4,0,0,0.4,2.96,0.4)"
         style="fill-rule:evenodd;stroke:#000000;stroke-width:1pt;marker-start:none;marker-end:none"
         d="m -2.5,-1 c 0,2.76 -2.24,5 -5,5 -2.76,0 -5,-2.24 -5,-5 0,-2.76 2.24,-5 5,-5 2.76,0 5,2.24 5,5 z"
         id="path3704-9" />
    </marker>
    <inkscape:perspective
       sodipodi:type="inkscape:persp3d"
       inkscape:vp_x="0 : 0.5 : 1"
       inkscape:vp_y="0 : 1000 : 0"
       inkscape:vp_z="1 : 0.5 : 1"
       inkscape:persp3d-origin="0.5 : 0.33333333 : 1"
       id="perspective2889" />
    <filter
       id="filter3830"
       inkscape:label="Colorize"
       inkscape:menu="Color"
       inkscape:menu-tooltip="Blend image or object with a flood color and set lightness and contrast"
       x="0"
       y="0"
       width="1"
       height="1"
       color-interpolation-filters="sRGB">
      <feColorMatrix
         id="feColorMatrix3832"
         values="1"
         in="SourceGraphic"
         type="saturate"
         result="result2" />
      <feFlood
         id="feFlood3834"
         flood-color="rgb(254,102,0)"
         flood-opacity="1"
         result="result1" />
      <feBlend
         id="feBlend3836"
         in2="result2"
         mode="multiply"
         in="result1"
         result="result3" />
      <feComposite
         id="feComposite3838"
         in2="SourceGraphic"
         operator="in"
         k2="1"
         result="result4" />
    </filter>
    <marker
       style="overflow:visible"
       id="DotM-7"
       refX="0"
       refY="0"
       orient="auto"
       inkscape:stockid="DotM">
      <path
         inkscape:connector-curvature="0"
         transform="matrix(0.4,0,0,0.4,2.96,0.4)"
         style="fill-rule:evenodd;stroke:#000000;stroke-width:1pt;marker-start:none;marker-end:none"
         d="m -2.5,-1 c 0,2.76 -2.24,5 -5,5 -2.76,0 -5,-2.24 -5,-5 0,-2.76 2.24,-5 5,-5 2.76,0 5,2.24 5,5 z"
         id="path3704-3" />
    </marker>
    <marker
       style="overflow:visible"
       id="DotM-70"
       refX="0"
       refY="0"
       orient="auto"
       inkscape:stockid="DotM">
      <path
         inkscape:connector-curvature="0"
         transform="matrix(0.4,0,0,0.4,2.96,0.4)"
         style="fill-rule:evenodd;stroke:#000000;stroke-width:1pt;marker-start:none;marker-end:none"
         d="m -2.5,-1 c 0,2.76 -2.24,5 -5,5 -2.76,0 -5,-2.24 -5,-5 0,-2.76 2.24,-5 5,-5 2.76,0 5,2.24 5,5 z"
         id="path3704-8" />
    </marker>
  </defs>
  <title
     id="title4">Paths of the golfcar</title>
  <desc
     id="desc6">The paths consist of all the possible route that can be taken by the golfcart to serve 4 stations: DCC, MCD, EA and E3A</desc>
  <image
     sodipodi:absref="/home/golfcar/smartfm/bookingUI/shared/SvgPath/science_center_complete.png"
     xlink:href="science_center_complete.png"
     style="fill:#aa4400;font-size:14px"
     width="5796"
     height="5808"
     id="map"
     x="0"
     y="0"
     inkscape:label="#image3014" />
  <path
     style="fill:none;stroke:#000000;stroke-width:0.5px;stroke-linecap:butt;stroke-linejoin:miter;stroke-opacity:1"
     d="m 350.17469,1697.4002 2.9458,7.3425 2.3307,7.3666 7.8183,9.5649 13.1666,9.6057 8.9667,6.6768 14.0533,-6.225 7.6552,-12.9187 1.4201,-8.7698 0.058,-9.344 -2.9529,-32.7593 -1.2878,-18.9636"
     id="DCC_EA"
     inkscape:connector-curvature="0"
     inkscape:label="#path3076"
     sodipodi:nodetypes="cccccccccccc" />
  <path
     style="fill:none;stroke:#000000;stroke-width:0.5px;stroke-linecap:butt;stroke-linejoin:miter;stroke-opacity:1"
     d="m 569.6328,1027.9119 -4.7093,1.3456 -4.3729,2.6909 -1.6819,3.7002 1.0091,3.3638 1.6819,4.7093 2.0183,3.7001"
     id="DCC_EA3"
     inkscape:connector-curvature="0"
     inkscape:label="#path3084" />
  <path
     style="fill:none;stroke:#000000;stroke-width:0.5px;stroke-linecap:butt;stroke-linejoin:miter;stroke-opacity:1"
     d="m 5124.3072,2719.7783 -3.0965,7.6967 -2.8104,7.8052 -2.3906,7.8864 -2.0032,8.2818 -1.8631,8.5218 -1.7063,8.1677 -1.7671,8.4843 -2.1351,8.1478 -2.57,8.1709 -2.6123,8.1125 -2.5499,7.9559 -2.6824,8.2098 -2.7824,8.1887 -3.0571,8.5959 -3.3545,8.4123 -3.7372,8.0054 -4.0452,8.2386 -4.4508,8.135 -4.6609,8.1094 -4.7172,8.0804 -4.9161,7.799 -4.8125,7.6613 -5.1815,7.8028 -5.3161,7.9337 -5.2639,7.7275 -5.2499,7.5456 -5.5353,7.5192 -5.6095,7.535 -5.3969,7.5803 -5.4799,7.6558 -5.787,7.5763 -5.3946,7.6173 -5.1194,7.5393 -5.045,7.2486 -4.9939,7.3265 -4.6807,7.5226 -4.7084,7.7136 -5.209,7.8899 -5.0912,7.9315 -4.9515,7.5845 -5.0463,7.6236 -5.1139,7.9924 -5.192,7.8773 -5.3013,8.127 -5.2834,8.3157 -5.5887,8.9564 -5.0446,7.7133 -5.2908,8.0601 -5.2972,8.4018 -5.5289,8.176 -5.2248,8.3581 -5.343,7.9164 -5.2458,8.0562 -5.466,8.1058 -5.4954,8.2808 -5.4027,8.1958 -5.6105,8.4578 -5.6727,8.2748 -5.8381,8.5401 -5.9134,8.475 -5.9833,8.7079 -5.7706,8.6334 -6.0331,8.6764 -6.0565,8.9799 -5.8628,8.4972 -5.8762,8.6975 -5.6864,8.4727 -5.5811,8.4926 -5.6336,8.4377 -5.5127,8.1431 -5.5073,8.479 -5.4271,8.4687 -5.5482,8.3503 -5.7544,8.6485 -5.7104,8.7773 -5.9314,8.9749 -5.9165,9.3356 -5.8977,8.7374 -6.2092,8.785 -5.9455,8.944 -5.9073,8.9659 -5.9907,8.9215 -5.7274,8.7505 -5.6247,8.3648 -5.6315,8.4043 -5.648,8.1741 -5.4505,8.353 -5.3159,8.2537 -5.2622,8.006 -5.3865,7.9976 -5.0968,7.5854 -5.2326,7.7401 -5.0325,7.4666 -6.2366,9.0957 -6.14,9.0259 -5.7985,8.7383 -5.7502,8.8349 -5.7228,8.6413 -5.5157,8.5479 -5.6749,8.2188 -5.4899,7.9372 -5.1739,8.1358 -5.2017,7.6312 -5.2422,7.4192 -5.5368,8.1659 -5.9798,8.6196 -5.7335,8.4814 -5.8904,8.6483 -5.7235,8.4739 -5.8177,8.413 -5.9116,8.1952 -5.5863,7.8656 -5.3986,7.767 -5.4971,7.5928 -5.3968,7.4758 -5.7177,7.9366 -5.6874,7.9038 -5.9075,8.1206 -6.0678,8.3154 -6.1419,8.5184 -5.7666,8.0589 -5.4711,7.4832 -5.5612,7.6344 -5.5072,7.7455 -5.5355,7.8776 -5.75,8.1049 -5.8278,8.2971 -5.7338,8.4518 -6.0743,8.6937 -5.4587,8.1185 -5.4401,8.121 -5.4623,8.4928 -5.4195,8.2459 -5.3154,8.6454 -5.5419,8.7199 -5.8208,8.9151 -5.672,8.7974 -5.7858,8.9354 -5.7767,8.9884 -5.926,9.0255 -5.8187,9.0223 -5.9246,9.1564 -5.9294,9.0368 -5.2858,8.1949 -4.8437,7.5792 -4.9516,7.098 -4.9937,7.495 -5.1798,7.6802 -5.2264,7.7771 -5.1931,7.756 -5.2729,7.7157 -5.4872,7.6929 -5.469,7.7668 -5.6062,7.9468 -5.5383,7.8533 -5.5265,7.6162 -5.3305,7.4359 -5.4038,7.6614 -5.5886,7.4076 -5.5781,7.6252 -5.8332,7.86 -5.7715,7.8356 -5.7969,7.9543 -5.8515,7.8846 -5.5298,7.49 -5.7259,7.4976 -5.78,7.5694 -6.2005,8.0662 -5.463,7.3759 -5.6974,7.3828 -6.8697,8.9148 -6.7343,8.7947 -6.718,8.6471 -6.816,8.7687 -5.87,7.3177 -6.3794,8.1741 -5.7896,7.4022 -5.9425,7.4815 -5.7684,7.3426 -6.0235,7.5564 -5.8515,7.6649 -6.092,7.7329 -6.1001,7.736 -6.0421,7.5663 -6.0657,7.3762 -6.1003,7.3838 -6.5219,8.1038 -5.9362,7.3001 -6.6101,7.859 -6.9993,8.621 -7.1664,8.5195 -7.1041,8.4072 -7.3124,8.3422 -7.0238,8.077 -7.1128,8.0442 -7.2739,7.8487 -6.6667,7.6426 -6.7461,7.5886 -6.4322,7.1577 -6.7122,7.3854 -6.5257,7.077 -8.1539,8.7405 -7.1592,7.5993 -7.8608,8.2348 -7.5569,8.009 -7.2552,7.5546 -6.8835,7.1243 -7.1421,7.4225 -6.8497,7.1445 -6.989,7.0816 -7.1862,7.3997 -7.5818,7.5138 -7.9443,7.8543 -7.7106,7.6095 -8.2165,8.076 -7.5195,7.1195 -7.3535,7.4325 -7.5344,7.3531 -7.1494,7.062 -8.0203,7.8532 -7.9072,7.9606 -7.5374,7.5795 -7.6468,7.3666 -7.113,7.1581 -7.9208,7.6944 -7.593,7.4853 -7.4219,7.4319 -7.431,7.5114 -7.3795,7.3658 -7.1439,7.1169 -7.2035,7.2428 -7.0885,7.0152 -7.7593,7.5164 -7.2353,7.1982 -7.4563,7.2516 -7.2351,7.1004 -7.3886,7.2635 -7.0861,6.9676 -7.3974,7.1545 -7.3549,7.144 -7.3515,7.2164 -7.0876,7.1423 -7.3795,7.2145 -7.4013,6.9375 -7.4157,6.9713 -7.3551,7.0213 -7.1774,6.8394 -7.2783,6.89 -7.2718,6.7163 -7.4569,7.2173 -7.3132,6.9664 -7.1892,7.204 -7.4517,7.1787 -7.1342,7.1347 -6.561,7.3783 -6.2011,7.3504 -5.6512,7.4334 -5.3456,7.6204 -5.0199,7.6202 -4.7124,7.9665 -4.5704,7.8285 -4.5835,8.339 -4.4748,8.1528 -4.5189,7.8941 -4.6407,8.1115 -5.1999,8.2948 -5.1274,7.7542 -5.232,7.7624 -5.5958,8.285 -5.8868,8.1635 -6.1502,8.2215 -6.1086,7.9634 -6.0837,7.4089 -6.6504,7.5695 -6.7269,7.1325 -7.1289,7.0712 -7.8276,6.9617 -8.3672,6.8671 -8.846,6.5369 -9.6648,6.3853 -9.5748,5.8596 -10.0055,5.6963 -8.9885,4.8169 -9.2011,4.382 -8.9325,3.8874 -8.8619,3.202 -8.8023,2.6257 -9.0007,2.3956 -9.4199,2.1366 -8.9037,1.4967 -8.7434,1.1865 -9.1083,1.0412 -9.3257,0.5972 -9.6152,0.4223 -8.3299,0.03 -8.6196,0.027 -8.7369,-0.264 -9.2686,-0.2944 -9.4669,-0.4602 -9.5783,-0.5955 -9.9373,-0.8199 -8.9074,-0.6325 -8.2428,-0.8715 -8.414,-0.8587 -8.5243,-0.8812 -8.6219,-0.8279 -8.403,-0.8253 -8.2887,-0.8705 -8.163,-0.8741 -8.1707,-1.0209 -9.892,-1.029 -7.7712,-0.8852 -9.1737,-1.22 -8.5446,-1.0065 -8.1276,-0.9627 -8.3116,-0.8607 -8.2576,-0.8068 -8.6095,-1.1268 -8.6791,-1.0719 -8.5819,-1.056 -9.1252,-1.1632 -9.0276,-0.9297 -9.0995,-0.9343 -9.7777,-0.9929 -9.7574,-0.9437 -10.0447,-0.9465 -10.1949,-0.9618 -10.1436,-0.9204 -10.4124,-0.8807 -7.9666,-0.4863 -8.0804,-0.6861 -8.2266,-0.5383 -8.3456,-0.4674 -8.2239,-0.455 -8.5249,-0.4602 -8.7904,-0.6386 -8.4528,-0.7291 -8.9046,-0.5449 -8.931,-0.5263 -8.8657,-0.4127 -8.6313,-0.4108 -8.6705,-0.551 -8.9151,-0.3858 -8.4647,-0.4397 -8.889,-0.421 -8.8305,-0.471 -8.5563,-0.5705 -8.5327,-0.4629 -8.5873,-0.3734 -8.6377,-0.5426 -8.2876,-0.5527 -8.2796,-0.538 -8.05,-0.5884 -8.2036,-0.4887 -8.3593,-0.5394 -9.4272,-0.7356 -8.1635,-0.6541 -9.5202,-0.631 -9.2262,-0.7882 -8.2212,-0.5412 -8.0232,-0.6893 -7.9729,-0.5912 -8.1897,-0.7353 -8.3758,-0.5849 -8.1873,-0.6504 -8.4554,-0.8466 -8.3583,-0.8689 -8.4596,-1.0362 -8.1895,-0.8153 -8.5942,-0.9101 -8.2943,-0.8567 -8.4085,-0.7514 -8.2101,-0.7767 -8.0463,-0.8177 -8.1785,-0.6645 -8.0181,-0.8498 -10.5653,-1.0596 -8.1755,-0.7596 -10.448,-0.9039 -10.4815,-0.7294 -10.3904,-1.0052 -10.1649,-0.9911 -10.2282,-0.9509 -9.9965,-0.9566 -9.9556,-0.6851 -10.1898,-0.4997 -9.9994,-0.6733 -10.0488,-0.7009 -10.1435,-0.9162 -10.0621,-0.7104 -9.9158,-0.8007 -10.2483,-0.8374 -9.9542,-0.835 -10.0657,-0.8226 -10.0122,-0.6413 -9.9171,-0.5589 -10.1094,-0.6479 -9.9194,-0.7896 -10.2564,-0.7419 -10.245,-0.7973 -10.0831,-0.8452 -10.4314,-0.9263 -10.0133,-0.8368 -10.1812,-0.8678 -10.2749,-0.7345 -10.2359,-0.5971 -10.4034,-0.7428 -10.318,-0.632 -10.5487,-0.7633 -10.4969,-0.5925 -10.4688,-0.6308 -10.7478,-0.8027 -10.5549,-0.5222 -10.424,-0.5853 -10.3795,-0.8256 -10.0024,-0.4536 -10.2403,-0.6285 -9.9477,-0.6253 -9.8739,-0.9049 -9.7983,-0.7498 -9.5845,-0.8735 -9.7475,-1.1111 -9.8744,-1.0967 -9.5172,-0.8498 -9.6737,-0.9588 -9.7757,-1.1289 -9.753,-1.0572 -10.099,-0.9643 -10.2303,-0.9356 -10.6226,-0.8012 -10.2667,-0.6377 -10.7657,-0.6413 -9.5529,-0.5446 -9.5526,-0.4337 -8.1752,-0.6222 -7.8667,-0.6311 -8.1378,-0.7414 -8.1278,-1.0395 -8.2138,-1.1868 -9.3783,-1.4663 -10.2942,-1.7331 -10.3687,-1.7788 -10.1305,-1.5157 -9.7469,-1.4804 -9.8559,-1.3515 -9.5914,-1.0447 -9.9684,-1.0024 -9.8923,-0.699 -9.3704,-0.6761 -9.614,-0.6882 -9.1369,-0.5898 -9.4485,-0.526 -9.3625,-0.7178 -8.9126,-0.5699 -9.1533,-0.5722 -9.2121,-0.4651 -8.846,-0.4767 -8.7641,-0.271 -8.6668,-0.4202 -8.5418,-0.3522 -8.7291,-0.3369 -8.9872,-0.4145 -9.0423,-0.4032 -9.2041,-0.4522 -9.2695,-0.3959 -9.1257,-0.3184 -9.6361,-0.6519 -9.527,-0.6771 -9.507,-0.6582 -10.0334,-0.894 -9.9888,-0.7386 -9.4778,-0.9596 -9.8741,-1.1672 -9.4823,-1.1381 -9.7625,-1.2137 -9.5345,-1.2988 -9.5225,-1.4302 -9.4092,-1.3322 -9.2008,-1.2333 -8.6229,-1.1758 -8.9338,-1.2079 -8.5317,-1.3079 -8.6671,-1.2477 -8.7313,-1.1771 -8.5313,-1.0799 -8.5134,-1.0716 -8.0387,-0.979 -8.5839,-1.0281 -8.515,-0.9678 -9.0089,-0.829 -9.1467,-0.7632 -9.2496,-0.7244 -9.6096,-0.7861 -9.87,-0.5862 -9.4514,-0.5027 -9.7645,-0.6108 -9.4131,-0.4297 -9.3865,-0.482 -9.6987,-0.5784 -9.3757,-0.5203 -9.356,-0.64 -9.4066,-0.5117 -8.9108,-0.5921 -8.9029,-0.7005 -8.9175,-0.4391 -8.5709,-0.4592 -8.5232,-0.2877 -8.8529,-0.8946 -8.5727,-0.6757 -8.6346,-0.7528 -8.5364,-0.8308 -8.743,-0.7282 -9.0931,-0.6876 -9.014,-0.8611 -9.2533,-0.7778 -9.3633,-0.9177 -9.1451,-0.9514 -9.1931,-1.0086 -9.1647,-0.9972 -9.2508,-0.8663 -9.3188,-1.0004 -9.8811,-1.0463 -10.141,-1.0718 -9.2547,-1.0597 -8.2543,-0.8893 -8.431,-1.0649 -8.6722,-1.1359 -9.2818,-1.2163 -9.3506,-1.1426 -9.6145,-1.2868 -9.9037,-1.4429 -9.7925,-1.4379 -10.4127,-1.3236 -10.668,-1.4854 -10.6879,-1.511 -11.3246,-1.641 -11.2745,-1.329 -11.5622,-1.3728 -11.2657,-1.2893 -11.5877,-1.3183 -11.7152,-1.3756 -11.6351,-1.3333 -11.5042,-1.4557 -10.9622,-1.4412 -11.0573,-1.2269 -10.6577,-1.2798 -10.64874,-1.0767 -10.34427,-1.0535 -10.49463,-0.9001 -10.46307,-0.939 -10.12434,-1.0033 -10.1729,-0.9217 -10.11456,-1.1071 -10.13279,-1.005 -10.0711,-1.0706 -9.86912,-0.8911 -9.85254,-1.1421 -9.97336,-1.1428 -9.67758,-1.212 -9.67407,-1.4246 -9.52417,-1.8947 -9.45078,-2.0907 -9.56286,-2.5566 -9.25589,-2.76 -9.04146,-3.0499 -8.91818,-3.3109 -8.53249,-3.7225 -8.19309,-3.9555 -7.98678,-4.2769 -7.80133,-4.4359 -7.29866,-4.8105 -7.32265,-4.8763 -8.21081,-5.7352 -7.96983,-5.9228 -8.73465,-6.9023 -8.52753,-6.9084 -8.01845,-7.2567 -7.67193,-7.4231 -7.17033,-7.6664 -6.64785,-7.6848 -7.62293,-9.3257 -6.77624,-9.0482 -6.55059,-9.4897 -6.21597,-9.6405 -5.55154,-9.983 -5.19433,-10.0121 -4.27463,-9.4582 -3.86336,-9.0698 -3.78899,-9.7677 -3.90065,-9.322 -3.64955,-9.7348 -3.49042,-9.231 -3.46554,-9.6111 -3.72004,-9.8873 -3.88181,-10.0321 -3.95745,-10.6446 -3.85819,-10.1445 -3.87047,-9.7095 -4.06625,-10.2909 -4.50752,-10.6876 -4.6152,-11.2005 -4.85542,-11.573 -5.26051,-12.0156 -4.84215,-10.7047 -4.27619,-9.4649 -4.4597,-9.471 -4.53005,-9.7222 -4.70683,-10.1915 -4.62453,-10.222 -4.67409,-10.3424 -4.70235,-10.3645 -4.64516,-10.5779 -4.82719,-10.6814 -4.84273,-11.0355 -4.6058,-10.8098 -4.34685,-11.1156 -4.23492,-10.9487 -3.97469,-10.8222 -3.79641,-11.0265 -3.36239,-10.9125 -2.99322,-11.1987 -2.57106,-11.2767 -2.05422,-11.2586 -1.7404,-11.2104 -1.24002,-11.2893 -0.81072,-11.2762 -0.53007,-11.0907 -0.20805,-11.1585 0.33945,-11.1288 0.65498,-11.3483 1.13852,-11.3326 1.45598,-11.1144 2.07674,-11.1967 2.35673,-11.1365 2.58966,-11.0933 3.35755,-11.2221 3.56718,-11.1904 3.39825,-9.1719 3.51083,-8.8987 3.92327,-9.0729 4.9685,-10.8292 3.36674,-6.8817 4.67853,-8.9714 4.82647,-8.8952 3.86886,-7.133 6.1427,-10.428 4.12177,-6.9882 5.26714,-8.6768 6.78336,-10.6354 4.68058,-6.9904 4.58333,-6.9931 4.74784,-7.1389 4.67132,-6.9392 4.77707,-7.0952 4.73934,-7.0688 5.00355,-7.519 4.8802,-7.1489 5.07049,-7.3599 4.81653,-7.1409 5.06921,-7.3914 5.0998,-7.1461 5.06757,-7.1797 5.94769,-8.4525 4.92472,-7.1414 5.01651,-7.4159 4.88245,-7.1081 4.93072,-7.1121 5.08374,-7.4804 6.12407,-8.805 4.87787,-7.1345 5.0794,-7.2376 5.18607,-7.1755 4.98178,-6.8077 5.03838,-7.0942 6.04787,-8.6165 4.99594,-7.1675 7.4647,-10.3016 6.38368,-8.6037 7.50756,-10.1869 7.58067,-10.2071 7.19404,-10.1037 7.60045,-10.0864 7.4076,-9.8396 7.35225,-9.9026 7.41304,-9.8671 7.31274,-9.7593 7.36021,-9.7774 7.34057,-9.787 7.19896,-9.5599 7.25054,-9.3338 7.3332,-9.5701 7.27584,-9.2662 7.08958,-9.3443 7.00819,-9.1234 6.96322,-9.0673 6.93853,-8.9471 6.48943,-8.3617 6.54057,-8.5937 6.55078,-8.3098 6.44516,-8.2438 6.563,-8.3351 6.38776,-8.2046 6.31755,-7.9576 6.15965,-7.8433 5.98109,-7.7581 6.09349,-7.7393 5.70885,-7.3844 5.63171,-7.3422 5.51595,-7.2497 5.25388,-7.1022 5.06715,-7.1105 6.56497,-9.3845 6.20635,-8.9881 5.93921,-8.8942 5.48307,-8.5693 5.1304,-8.4833 4.90968,-8.4037 4.53746,-8.1322 4.28486,-8.3393 4.11138,-7.9241 3.65447,-7.6213 3.674,-7.8114 3.90029,-8.7006 4.0661,-9.0824 4.0872,-8.9449 3.7797,-8.6262"
     id="DCC_START"
     inkscape:connector-curvature="0" />
  <path
     style="fill:none;stroke:#000000;stroke-width:0.5px;stroke-linecap:butt;stroke-linejoin:miter;stroke-opacity:1"
     d="m 1017.1446,3309.4533 2.6226,-5.8825 2.6225,-5.8825 1.686,-3.8938 1.6859,-3.8938 1.6327,-3.8487 1.6326,-3.8488 1.9836,-4.1185 1.9835,-4.1185 2.2006,-4.1299 2.2006,-4.1299 2.464,-3.9039 2.4639,-3.9039 2.8174,-3.8703 2.8174,-3.8703 3.1474,-3.6275 3.1473,-3.6275 3.8836,-3.5104 3.8835,-3.5104 4.7122,-3.2543 4.7121,-3.2543 5.0294,-2.5049 5.0293,-2.5049 4.7461,-1.5962 4.746,-1.5963 4.5558,-0.8911 4.5557,-0.8912 4.3297,-0.2768 4.3296,-0.2769 4.4593,0.2456 4.4594,0.2455 4.3337,0.7961 4.3336,0.7961 4.1679,1.2484 4.1678,1.2484 3.9575,1.8065 3.9574,1.8064 3.7229,2.3536 3.7229,2.3536 2.4735,2.211 2.4734,2.211 2.3216,2.0752 2.3216,2.0752 2.7592,2.4665 2.7593,2.4664 2.8527,2.5501 2.8528,2.55 3.4016,4.5021 3.4016,4.5021"
     id="DCC_MCD"
     inkscape:connector-curvature="0"
     sodipodi:nodetypes="ccccccccccccccccccccccccccccccccccccccccccccccccc" />
  <path
     style="fill:none;stroke:#000000;stroke-width:0.5px;stroke-linecap:butt;stroke-linejoin:miter;stroke-opacity:1"
     d="m 1138.9383,3220.5393 8.8229,6.5 5.9847,4.4091 5.8129,7.5857 4.7675,6.2213 3.1028,4.3754 3.1028,4.3753 2.4236,4.7278 2.4237,4.7277 1.5337,4.5316 1.5338,4.5316 0.8353,4.4492 0.8354,4.4493 0.3251,4.2166 0.3251,4.2165 -0.2624,4.3336 -0.2624,4.3336 -0.7719,4.1793 -0.7719,4.1793 -1.3355,4.1081 -1.3355,4.1081 -2.5192,3.8861 -2.5192,3.8861 -3.3189,3.5273 -3.319,3.5274 -4.2143,3.3836 -4.2144,3.3837 -4.7509,3.0782 -4.751,3.0782 -5.2816,2.7632 -5.2817,2.7631 -5.5696,2.541 -5.5696,2.5411 -5.4933,2.4674 -5.4933,2.4674 -5.3706,2.3248 -5.3705,2.3249 -5.2189,2.0709 -5.2189,2.0709 -5.4829,2.2685 -5.4829,2.2685 -5.8699,2.5413 -5.8699,2.5414 -9.4821,3.7741 -9.4821,3.7742"
     id="MCD_DCC"
     inkscape:connector-curvature="0"
     sodipodi:nodetypes="ccccccccccccccccccccccccccccccccccccccccccccc"
     MCD_DCC="" />
  <path
     style="fill:none;stroke:#000000;stroke-width:0.5px;stroke-linecap:butt;stroke-linejoin:miter;stroke-opacity:1"
     d="m 1045.6751,3388.3454 -11.8098,6.5212 -10.1097,6.1258 -9.0517,5.8745 -8.8384,6.2513 -8.73736,6.7796 -8.75308,7.3272 -8.83363,8.0859 -8.86028,8.2994 -6.79085,6.7864 -6.83972,6.9452 -6.70166,6.9088 -6.91501,7.4571 -6.99709,7.5061 -6.9366,7.736 -7.13294,7.9222 -7.05759,7.7706 -6.92595,8.3318 -7.16321,8.5271 -7.16643,8.5669 -7.12564,8.8237 -7.16782,8.8686 -7.03599,9.1867 -7.14679,9.4725 -7.18437,9.8006 -7.15073,9.9539 -7.08478,10.1112 -7.14597,10.3543 -7.11448,10.2967 -7.25902,10.4895 -7.17484,10.5204 -6.97172,10.3389 -6.98532,10.1658 -6.8092,10.0137 -6.83808,10.0548 -6.80646,9.9271 -6.77219,9.8163 -6.63691,9.7751 -6.40975,9.6912 -6.45335,9.6558 -6.37127,9.4443 -6.06341,9.2127 -6.23522,9.3113 -5.88037,8.825 -6.25348,9.0757 -5.91523,8.7373 -5.81414,8.6776 -6.07326,8.8007 -5.93057,8.6544 -6.08376,8.6825 -5.87588,8.279 -5.80061,8.2717 -5.95403,8.2464 -5.81309,7.9788 -5.6588,7.8499 -5.6493,7.99 -5.58698,7.5793 -5.85939,7.7254 -5.58716,7.5892 -5.62302,7.6699 -5.5177,7.5376 -5.53974,7.4425 -5.52615,7.4326 -5.15574,7.1957 -5.33251,7.2115 -5.33983,7.1321 -5.35471,7.0953 -5.07554,6.8355 -5.12729,7.1141 -5.16388,7.1336 -6.75213,9.5992 -5.63242,7.8281 -6.34439,9.0996 -6.26087,9.1345 -5.97073,9.056 -5.7096,8.9449 -5.65011,8.9183 -5.29684,8.9888 -4.99934,9.1217 -4.82487,9.1471 -4.12675,8.9657 -3.64762,8.8519 -3.23381,8.7499 -2.62492,8.6598 -2.13583,8.8714 -1.77224,8.8731 -1.17009,8.6791 -0.58392,8.7593 -0.45618,8.847 0.22212,8.5698 0.74044,10.6845 1.28488,10.3648 1.78096,10.1375 2.35448,10.2199 2.51148,9.6839 2.74618,9.5673 3.32793,10.3513 3.67758,10.963 3.80446,10.4976 3.98304,10.12 4.20948,9.9153 4.30267,9.6345 4.87449,10.2127 4.78242,11.0224 4.86817,10.4437 4.5162,9.6269 5.24835,10.8357 4.92078,10.7092 4.84998,10.2974 4.49208,9.6594 4.52389,9.8609 4.26136,9.905 4.24064,9.9834 4.21649,9.8637 4.04574,9.499 3.93122,9.3959 4.03581,9.6344 4.02446,9.4077 3.87973,9.6565 3.95789,9.7056 4.32653,9.7982 3.9239,9.566 4.14477,9.9936 3.80857,9.5694 4.19064,10.2062 4.08163,9.9641 3.99856,9.5487 3.89367,9.6479 3.6482,9.4441 3.89403,9.5088 4.06561,9.4184 3.57458,9.9231 4.06064,9.8328 4.16445,10.2355 4.10413,9.8535 4.69503,10.1386 5.22026,10.2365 5.83241,10.1145 6.35574,10.0475 6.34441,8.4579 6.39615,8.1437 6.64219,7.8278 6.15362,6.8893 6.70542,6.7673 7.46153,6.5152 7.07048,5.5557 7.10814,5.3207 7.69169,5.1718 7.66848,4.4175 7.46379,3.6502 7.61726,3.6224 8.19731,3.284 8.56315,2.8944 8.96541,2.6063 9.19053,2.3542 9.16184,2.1286 9.6455,1.8043 9.59333,1.4518 9.85976,1.255 10.06432,0.9467 10.00306,0.7531 9.25624,0.603 8.39585,0.6316 8.44799,0.3501 8.52355,0.712 9.01109,0.4396 8.83299,0.5 8.80727,0.6055 8.47565,0.566 8.79177,0.547 9.09379,0.6149 9.6845,0.6535 8.95087,0.7596 9.67839,0.6798 9.39346,0.6485 9.5186,0.6158 9.8917,0.5318 9.7825,0.5282 10.0313,0.5281 9.7919,0.4501 9.6798,0.5543 9.6316,0.6756 9.9582,0.6212 9.7947,0.7357 10.0727,0.7976 10.1695,0.6946 9.9645,0.7864 10.1088,0.8613 9.7561,0.8399 10.0548,0.9142 9.3756,0.9259 9.4996,1.0547 9.7084,1.2104 9.4082,1.0857 9.3007,1.0973 9.0686,1.0744 9.3486,1.1445 8.9873,1.1776 9.5957,1.31 9.3284,1.1994 9.0998,1.3523 9.618,1.3056 10.135,1.4358 10.0732,1.2424 9.9528,1.4375 9.8429,1.3096 9.8506,1.4391 10.5435,1.4635 10.0349,1.3445 10.4881,1.4471 10.6534,1.4431 10.2701,1.3953 10.8045,1.2899 10.2397,1.358 10.1166,1.2092 10.4644,1.3194 10.5338,1.3287 10.7049,1.321 10.8395,1.3916 10.7571,1.4775 10.7345,1.5666 10.4758,1.5814 10.336,1.5146 10.7129,1.3661 10.7499,1.364 10.9676,1.235 10.4487,1.3186 10.6685,1.1948 10.3537,1.2473 10.0935,1.1251 10.1839,1.1481 10.0486,0.9933 9.8804,1.0606 9.6115,1.1186 9.2914,1.0977 9.2776,0.8579 9.7619,0.8931 8.8362,0.9764 9.1713,0.9535 9.2056,0.879 9.2304,0.7958 9.4066,0.8547 9.6094,0.8346 9.5469,0.9735 9.4766,0.9044 9.4228,0.8694 9.22,1.0273 9.4623,0.9535 9.2615,0.7752 9.4459,0.9314 9.0058,0.9156 8.6432,0.9178 8.6767,0.9778 8.919,1.0162 8.8331,0.9481 9.2555,0.9048 8.9934,1.0561 9.0374,1.0105 9.0941,1.1128 9.0762,1.1088 9.4072,1.0558 9.7044,1.1948 9.6832,1.0985 9.927,1.1139 9.6383,0.9787 9.4626,1.1964 9.4412,1.0264 9.4895,0.7711 9.5324,0.9071 9.4085,1.0858 9.2852,1.0118 9.2546,1.0225 9.0837,0.9065 9.1126,0.8201 8.9036,0.687 9.1994,0.7986 9.1853,0.879 9.0804,0.8024 8.8705,0.577 9.0284,0.6508 9.1009,0.7152 9.1289,0.6944 9.5165,0.791 9.3939,0.9065 9.5039,0.7787 9.4785,0.9783 9.4724,0.8535 9.4194,0.916 9.5279,1.0454 9.5037,1.0078 9.5409,1.144 9.4896,1.0428 9.6957,1.2186 9.4551,0.8642 9.3016,0.9824 9.4095,0.9747 9.2813,1.257 9.3104,1.1342 9.2401,1.2539 9.2621,1.2834 9.2087,1.1027 9.4304,0.9554 9.5668,0.9276 9.6571,0.9031 9.5865,0.8722 9.5012,0.9133 9.5035,1.0046 9.5044,1.0644 9.4439,1.0898 9.5377,1.2216 9.4365,0.913 9.224,1.257 9.4426,1.1547 9.2213,0.9661 9.3885,0.9743 9.5941,0.9146 9.4559,1.0654 9.6749,1.0377 9.6029,0.9834 9.2437,0.8228 9.5018,0.9406 9.3804,0.6521 9.4018,0.9454 9.3422,0.9869 9.2139,0.8619 9.2728,0.7949 9.469,0.8091 9.2819,0.801 9.7027,0.8841 9.5803,0.9645 9.299,0.6558 9.6869,0.7593 9.5735,1.0348 9.8426,0.9987 9.949,0.9542 9.703,0.8825 9.8719,0.9299 9.8981,0.7671 9.5223,0.7452 9.7812,0.7769 9.7912,0.673 9.4715,0.6797 9.4842,0.8019 9.6244,1.015 9.1682,0.5349 9.3211,0.6208 9.0637,0.595 9.4346,0.5135 9.4478,0.5642 9.5026,0.7236 9.5988,0.4749 9.6502,0.6684 9.7244,0.582 9.804,0.666 9.6983,0.7375 9.6386,0.6081 9.9657,0.66 9.7522,0.8324 9.1252,0.3255 9.4107,0.5111 9.0873,0.4204 9.2458,0.4272 9.0542,0.4677 8.8687,0.4693 8.8332,0.3915 9.0163,0.349 8.9682,0.44 9.6693,0.5432 9.6032,0.551 10.1796,0.5133 10.3857,0.7122 10.2043,0.7936 10.3336,0.8114 10.518,0.8744 10.7737,0.9141 11.1113,0.8642 9.4158,0.7062 8.0382,0.6609 8.14,0.7299 8.2863,0.7823 8.3315,0.653 8.651,0.4303 8.6805,0.6492 8.5946,0.4665 8.887,0.65 8.7964,0.3817 8.6932,0.5378 8.9445,0.6532 9.1468,0.4852 9.4006,0.5135 9.5526,0.3717 9.601,0.4494 9.8004,0.3966 10.1154,0.3481 10.2595,0.455 10.5399,0.4012 10.7681,0.4427 10.8653,0.4628 11.0235,0.5254 10.6916,0.4791 10.5171,0.3569 10.3883,0.4851 10.3474,0.3557 10.5994,0.5522 9.9661,0.4432 10.2362,0.3203 9.8769,0.4099 9.7638,0.4454 9.7364,0.3494 9.644,0.349 9.369,0.3611 9.3256,0.3037 8.949,0.2928 8.8559,0.1662 8.7105,0.1197 9.708,0.065 10.9146,0.095 10.3873,-0.01 10.0764,0.1422 9.7693,0.019 9.4253,-0.063 9.2257,-0.1382 8.7606,-0.1172 10.2989,-0.445 9.8055,-0.5724 9.3198,-0.4919 8.8006,-0.5081 9.827,-0.9516 9.5749,-1.3162 9.4348,-1.8717 9.789,-2.3415 9.4545,-2.6537 9.493,-2.9666 9.7379,-4.0029 10.2507,-5 9.1652,-6.0552 8.2649,-6.5149 6.8045,-6.8385 6.1959,-6.9808 5.941,-7.0045 5.5862,-7.4659 5.3155,-7.1214 4.9651,-7.2776 5.0187,-7.335 5.0362,-7.3752 4.9481,-7.351 5.0813,-7.0362 5.734,-7.4478 5.8581,-7.2612 5.9147,-6.9332 5.9909,-7.1806 5.7905,-7.0244 6.0073,-7.102 6.0659,-6.8401 6.2146,-7.0773 6.0739,-7.0468 6.0642,-6.9164 5.8175,-6.9271 5.9924,-6.9053 5.9219,-6.7917 5.8906,-6.7517 5.8994,-6.9271 6.081,-7.1469 5.9434,-6.9349 6.066,-6.951 6.0082,-6.9185 6.4279,-6.9594 6.3429,-6.8687 6.7489,-7.3573 6.8063,-7.6941 7.0514,-7.527 7.0464,-7.7614 6.4493,-6.9811 6.8653,-7.1136 6.8055,-7.4901 7.0009,-7.7925 6.5935,-7.3535 6.14,-7.0084 6.2333,-7.026 6.3148,-7.1787 6.4073,-7.3828 6.254,-7.4431 6.3527,-7.52 6.3163,-7.2757 6.214,-7.1253 6.3019,-7.0485 6.3853,-6.955 6.3849,-6.7324 6.2481,-6.8901 6.8526,-7.4889 7.4677,-8.0283 6.858,-7.2972 7.5893,-7.9206 8.2794,-8.0776 6.8026,-6.587 7.9406,-7.9119 6.9362,-6.6051 7.4921,-7.3732 6.9522,-6.6885 6.8656,-6.6361 7.8524,-7.6804 8.1644,-7.5934 7.6796,-7.6058 7.5103,-7.115 7.4872,-7.0756 7.5704,-7.0814 7.6293,-7.3241 7.8984,-7.6384 7.8855,-7.8981 6.9591,-6.9123 6.7465,-6.7653 6.3408,-6.9954 6.2872,-6.953 6.6093,-7.5376 7.1368,-8.0344 6.7949,-8.0221 6.6134,-7.8228 6.5235,-7.8516 6.2573,-7.6884 6.3688,-7.9358 6.2233,-8.0943 5.8725,-7.9199 5.9295,-8.1002 6.0974,-8.2229 5.8903,-8.2364 5.177,-7.4646 5.1883,-7.4178 5.1024,-7.681 5.5228,-7.7057 5.5234,-7.6023 5.6549,-7.7289 5.7419,-7.9136 5.875,-7.869 5.7921,-8.0823 5.9922,-8.3132 6.1396,-8.2746 6.1641,-8.6437 5.478,-7.8665 5.6204,-7.9838 4.9118,-7.2007 4.9779,-7.1704 5.3712,-8.032 5.077,-7.1122 5.6405,-7.8274 4.8849,-7.0769 4.9147,-7.3952 5.3652,-7.8609 5.3743,-8.0283 5.3004,-7.9563 5.7656,-8.8581 5.7888,-9.0148 5.6694,-8.6161 5.5329,-8.6886 5.7428,-8.747 5.5396,-8.5488 5.7777,-8.7821 5.6593,-8.7606 5.7091,-8.8303 5.1455,-7.9693 5.0312,-7.8364 4.6868,-7.1581 4.7087,-7.1879 4.6041,-7.3162 4.6014,-7.2324 4.5531,-7.4482 4.532,-7.2982 4.6498,-7.2143 4.5538,-7.2312 4.6452,-7.4129 4.5105,-7.2331 4.4713,-7.3897 4.3724,-7.3757 4.3519,-7.4642 4.613,-7.7169 4.4141,-7.477 4.6367,-7.3778 4.5274,-7.419 5.0293,-8.1614 4.8863,-7.5618 4.7511,-7.4895 4.6649,-7.3379 4.7335,-7.1825 4.9298,-7.6177 4.7754,-7.3158 4.974,-7.2044 4.9969,-7.3975 4.8071,-7.3348 4.9479,-6.9088 5.2193,-7.2723 5.1949,-6.9558 5.0905,-7.1609 5.0439,-7.4057 4.9318,-7.3398 5.039,-7.517 5.0268,-7.3196 5.0295,-7.52 4.8833,-7.2293 5.0067,-7.3259 5.0092,-7.3325 5.0113,-7.2247 5.0907,-7.4157 5.115,-7.3687 5.1076,-7.3801 5.3074,-7.2878 5.1812,-7.2229 5.3117,-7.4939 5.323,-7.3741 5.2095,-7.0961 5.1997,-7.2493 5.4114,-7.2348 5.4312,-7.2004 5.3583,-7.376 5.3983,-7.3816 5.2381,-7.2658 5.3868,-7.4983 5.4869,-7.5682 5.3954,-7.307 5.3847,-7.5276 5.4052,-7.7801 5.5588,-7.7548 5.6106,-8.1237 5.7196,-8.0854 6.1555,-8.4956 6.254,-8.9448 6.4113,-9.146 4.9615,-7.0177 4.9014,-6.7809 6.6068,-9.2202 4.7019,-7.1052 6.1298,-9.3232 5.3121,-8.185 5.915,-9.4059 5.8496,-9.19 5.9037,-9.355 5.7939,-8.9655 6.0095,-9.171 5.6848,-8.9546 5.7157,-8.8456 5.7916,-8.8478 5.6546,-8.5257 5.6071,-8.8803 5.5209,-8.4223 5.4474,-8.4408 5.5203,-8.6191 5.6081,-8.449 5.5574,-8.4233 5.0479,-8.3867 5.2985,-8.2997 5.2283,-8.5234 5.8799,-8.5151 5.588,-8.1365 5.5909,-8.6194 5.4117,-8.2512 5.5852,-8.5323 5.6301,-8.6109 5.5462,-8.4608 5.6994,-8.6625 5.3952,-8.5082 5.6835,-9.0325 5.6652,-8.9155 5.6297,-8.7604 5.6609,-8.9865 5.5843,-8.818 5.4273,-8.7055 5.5595,-8.7893 5.4116,-8.3564 5.4814,-8.6512 5.2335,-8.3504 5.3826,-8.6736 5.2886,-8.4631 5.1403,-8.3756 5.1888,-8.3405 5.044,-8.1731 5.2023,-8.0723 5.1554,-8.1212 5.081,-8.034 5.2134,-8.1336 5.3066,-8.2957 5.0039,-8.1358 5.1372,-8.0227 5.1104,-8.5536 5.1003,-8.3525 5.152,-8.4737 5.0916,-8.486 5.1166,-8.4806 5.3439,-8.6613 5.2864,-8.5483 5.5327,-8.7029 5.2704,-8.4676 4.9814,-8.542 5.0733,-8.4425 5.0098,-8.3117 4.8171,-8.295 4.8415,-8.024 4.551,-7.928 4.4273,-7.7243 4.3483,-7.5445 5.0029,-8.6068 4.7329,-8.2383 4.5508,-7.7875 4.2749,-7.314 4.503,-8.1799 4.1426,-7.7067 4.0963,-7.6199 3.9531,-7.2571 3.6712,-7.7475 3.3555,-7.6857 3.0304,-7.7008 2.7454,-8.6405"
     id="DCC_END"
     inkscape:connector-curvature="0" />
  <path
     style="fill:none;stroke:#000000;stroke-width:0.5px;stroke-linecap:butt;stroke-linejoin:miter;stroke-opacity:1"
     d="m 1015.9451,800.2389 3.9647,0.60834 4.0558,1.06838 4.0731,1.59848 3.9504,2.12742 3.995,2.84066 3.9852,3.65537 3.4567,4.34105 5.9266,15.72596 0.9152,49.91628 -0.037,55.24617"
     id="DCC_MCD1"
     inkscape:label="#DCC_START"
     inkscape:connector-curvature="0"
     sodipodi:nodetypes="ccccccccccc" />
  <path
     style="fill:none;stroke:#000000;stroke-width:0.5px;stroke-linecap:butt;stroke-linejoin:miter;stroke-opacity:1"
     d="m 1050.2121,833.49481 0.7263,4.06245 0.4737,4.10182 0.3458,4.13376 0.011,4.18549 -0.01,4.16587 0.123,4.01718 0.1403,3.95195 0.011,4.1114 0.094,3.91527 0.065,4.06595 0.094,4.16717 -0.062,4.17434 0.01,4.07654 -0.076,4.12662 -0.1333,4.17621 -0.1137,4.06736 0.089,4.02189 -0.088,4.14866 0.1206,4.06322 0.096,4.02476 0.02,4.12398 0.039,4.11266 0.038,4.10521 0.026,4.13557 0.1826,4.14081 0.1361,4.12538 0.1564,4.17097 0.1746,4.01143 0.2264,4.07502 0.077,4.07176 0.098,4.22814 0.076,4.23057 -0.021,4.2047 0.1506,4.11266 0.1221,4.23341 0.079,4.05609 0.054,4.17112 0.1549,4.17815 0.087,4.20601 0.034,4.07543 0.089,4.06261 0.1489,3.9977 0.1863,4.151 0.1811,4.1767 0.1817,4.1 0.1952,4.0249 0.12,4.0016 0.2204,4.0947 0.2466,4.1726 0.1939,4.1772 0.272,3.9622 0.2228,4.1265 0.2469,4.1702 0.2845,4.0586 0.2863,4.039 0.3035,4.2462 0.3258,4.1132 0.4026,4.3305 0.3612,4.2466 0.3314,4.2531 0.264,4.291 0.4747,4.1032 0.4483,4.1347 0.4919,4.1886 0.6309,4.108 0.5172,4.0475 0.6005,4.339 0.6952,4.0777 0.7476,4.2423 0.78,4.1874 0.8884,4.302 0.88,4.0397 1.029,4.1836 1.1365,4.2074 1.0923,4.149 1.2563,4.1472 1.3081,4.1221 1.3196,4.0846 1.4061,4.1779 1.4409,4.2525 1.4515,4.0997 1.4854,4.1808 1.5356,4.1722 1.5657,4.1524 1.5403,4.1743 1.5188,4.0527 1.4544,4.181 1.499,4.2159 1.4734,4.2273 1.4646,4.2395 1.3536,4.0982 1.2452,4.2463 1.1503,4.1558 1.1935,4.116 1.114,4.1697 1.1374,4.2723 1.0692,4.1035 0.9825,4.0498 0.9198,4.0932 1.0029,4.29 0.9158,4.0737 0.8224,4.1599 0.8238,4.1781 0.7199,4.2375 0.6926,4.0598 0.6498,4.3069 0.6196,4.2273 0.5471,4.0758 0.5577,4.1766 0.5545,4.1735 0.4934,4.2302 0.4304,4.1412 0.4017,4.1345 0.3375,4.1254 0.3752,4.2094 0.3555,4.1873 0.2831,3.9599 0.2326,4.1735 0.1738,4.0857 0.1661,4.1513 0.1186,4.1464 0.1626,4.2562 0.016,4.0844 0.023,3.9127 -0.018,4.1101 0.016,4.0894 -0.1335,4.0708 -0.04,4.0994 -0.031,4.1007 -0.037,4.1642 -0.012,4.0728 -0.059,4.1734 -9e-4,4.1678 -0.072,4.0913 0.031,4.2101 -0.063,4.1913 -0.1456,4.0995 -0.089,4.0826 -0.071,4.2087 -0.159,4.0762 -0.1255,4.1935 -0.2151,4.1584 -0.2096,4.0022 -0.208,4.2573 -0.2383,4.1023 -0.2293,4.2182 -0.2408,4.197 -0.2564,4.1699 -0.2878,4.015 -0.374,4.2916 -0.3536,4.1471 -0.3526,4.1385 -0.3648,4.3217 -0.3714,4.0698 -0.3905,4.192 -0.4256,4.179 -0.4043,4.1593 -0.3875,4.0424 -0.3969,4.2268 -0.3845,4.1085 -0.4315,4.0926 -0.4548,4.1307 -0.5686,4.1126 -0.5484,4.1108 -0.5541,4.1861 -0.5083,4.194 -0.4504,4.2787 -0.5075,4.0474 -0.6029,4.1053 -0.551,3.9859 -0.5367,4.0871 -0.5391,4.0266 -0.4885,4.1919 -0.4857,4.1183 -0.4499,4.2861 -0.4576,4.0121 -0.4204,4.0005 -0.3793,3.9753 -0.3634,4.119 -0.3033,4.2279 -0.2152,4.134 -0.1588,4.2334 -0.1323,4.1572 -0.019,4.1857 -0.019,4.2086 0.054,4.3291 0.098,4.0803 0.1548,4.1954 0.2471,4.0615 0.347,4.3885 0.3591,4.2182 0.4463,4.1909 0.4822,4.0432 0.5369,4.082 0.6607,4.0898 0.71,4.2301 0.7053,4.2386 0.7747,4.4055 0.7809,4.2453 0.8542,4.244 0.8588,4.1422 0.856,4.151 0.8743,4.3129 0.8578,4.0887 0.9044,4.0464 0.8171,4.1777 0.874,4.16 0.9881,4.2104 0.9218,4.1343 0.9247,4.3278 0.9093,4.0741 0.8811,4.3194 0.9009,4.2797 0.887,4.1444 0.8609,4.0944 0.8961,4.2372 0.8099,4.2612 0.8042,4.2556 0.7732,4.2852 0.8326,4.3615 0.7861,4.1953 0.7981,4.0717 0.7653,4.2715 0.8188,4.3027 0.7573,4.1678 0.7097,4.2559 0.7071,4.1528 0.7015,4.1895 0.5886,4.3882 0.5507,4.3704 0.562,4.062 0.3661,4.1815 0.2464,4.1839 0.1975,4.0375 0.1028,4.2528 -0.039,4.2489 -0.1793,4.1134 -0.3572,4.1963 -0.5648,3.9862 -0.8356,4.2367 -1.1198,4.2771 -1.3597,3.982 -1.6781,4.049 -2.0038,4.0861 -2.4302,3.9925 -2.7784,3.8968 -3.3268,4.2311 -3.8058,4.0775 -4.2393,3.7841 -4.2622,3.1805 -4.0156,2.4515 -4.2634,2.2 -4.2137,1.5969 -4.1334,1.4918 -4.0968,1.0572 -4.1427,0.9356 -3.99,0.5283 -4.1439,0.3179 -4.1752,0.1161 -4.2045,-0.038 -4.0941,-0.2603 -3.976,-0.3121 -4.0508,-0.2182 -4.3158,-0.2606 -4.183,-0.5129 -4.1041,-0.6681 -4.0872,-0.7955 -4.1243,-0.8233"
     id="MCD_DCC_"
     inkscape:label="#DCC_START" />
  <path
     style="fill:none;stroke:#000000;stroke-width:0.5px;stroke-linecap:butt;stroke-linejoin:miter;stroke-opacity:1"
     d="m 1021.5997,1875.4237 -3.9033,-1.2218 -4.0282,-1.3613 -4.1001,-1.6332 -3.9634,-1.972 -3.9736,-2.5755 -3.86254,-3.2708 -3.59698,-4.1194 -2.67495,-4.0505 -0.39843,-2.9246 0.84891,-2.9419 1.26028,-2.7654 1.52339,-4.5365 1.1705,-3.9625 1.44398,-3.9531 1.42107,-4.0023 1.52947,-4.0067 1.714,-4.068 1.3834,-5.0754 0.9958,-4.0935 1.9206,-3.8848 6.0751,-18.1845 9.8997,-18.2448 18.5863,-38.0846"
     id="DCC_END_"
     inkscape:label="#DCC_START"
     inkscape:connector-curvature="0"
     sodipodi:nodetypes="cccccccccccccccccccccccc" />
  <path
     style="fill:none;stroke:#000000;stroke-width:0.5px;stroke-linecap:butt;stroke-linejoin:miter;stroke-opacity:1"
     d="m 386.82551,1195.4807 -0.3363,-8.073 6.0548,-68.2847 3.0274,-30.274 3.0273,-24.5555 3.0274,-19.5099 5.382,-41.0381 5.3821,-19.50985 5.7185,-12.7824 8.4094,-14.1278 7.7367,-11.4369 4.3728,-9.7549 1.682,-7.7367 2.6909,-13.4552 1.0092,-17.15518 -2.0182,-14.4643 -3.0274,-12.1096 -3.7002,-13.7914 -1.04293,-16.00679 -6.90064,-45.88671 -4.45453,-16.34319 -3.44553,-12.24891 -3.66627,-12.4459 1.0091,-9.0822 1.0091,-9.0823 3.3639,-8.7458 4.3728,-6.7275 6.0548,-8.7459 9.0823,-8.4094 9.0822,-5.7184 9.0821,-4.0365 11.4368,-4.7093 10.4278,-2.3547 11.7732,-1.0091 14.4642,0.6728 15.8097,2.0182 21.8646,3.0274 24.2192,4.7093 14.8007,3.0274 14.1278,1.6819 14.8006,1.0091 11.7732,2.691 14.1279,5.3821 15.4734,5.7184 10.0913,3.3638 11.4368,2.3546 8.0731,0.6728"
     id="EA_DCC"
     inkscape:connector-curvature="0"
     inkscape:label="#path3086"
     sodipodi:nodetypes="ccccccccccccccccccccccccccccccccccccccccccccccc" />
  <path
     style="fill:none;stroke:#000000;stroke-width:0.5px;stroke-linecap:butt;stroke-linejoin:miter;stroke-opacity:1"
     d="m 597.57738,1324.792 -9.58175,4.0775 -4.19283,2.6501"
     id="EA_END3"
     inkscape:connector-curvature="0"
     inkscape:label="#path3106"
     sodipodi:nodetypes="ccc" />
  <path
     style="fill:none;stroke:#000000;stroke-width:0.5px;stroke-linecap:butt;stroke-linejoin:miter;stroke-opacity:1"
     d="m 470.87154,1297.3827 -8.49103,9.6057 -6.14621,7.3666 -2.22527,8.4571"
     id="EA_END2"
     inkscape:connector-curvature="0"
     inkscape:label="#path3108"
     sodipodi:nodetypes="cccc" />
  <path
     style="fill:none;stroke:#000000;stroke-width:0.5px;stroke-linecap:butt;stroke-linejoin:miter;stroke-opacity:1"
     d="m 447.86939,1348.2728 -33.42503,11.7394 -12.47688,13.1089 -5.7184,10.7641 -1.6819,11.4368 3.0274,13.7915 6.3912,6.7275 10.0913,7.4003 16.1461,2.3547 16.4825,-5.382 8.0731,-7.7367 8.0731,-15.8097 2.3546,-18.1645 -0.3364,-18.1643 -0.3364,-20.8555"
     id="EA_START"
     inkscape:connector-curvature="0"
     inkscape:label="#path3110"
     sodipodi:nodetypes="ccccccccccccccc" />
  <path
     style="fill:none;stroke:#000000;stroke-width:0.5px;stroke-linecap:butt;stroke-linejoin:miter;stroke-opacity:1"
     d="m 529.33282,1500.2799 -8.073,3.7001 -10.0913,4.0365 -5.382,5.0457"
     id="EA_START2"
     inkscape:connector-curvature="0"
     inkscape:label="#path3112" />
  <path
     style="fill:none;stroke:#000000;stroke-width:0.5px;stroke-linecap:butt;stroke-linejoin:miter;stroke-opacity:1"
     d="m 653.53068,1431.5168 -7.7367,8.4094 -6.0547,7.4003 -5.7185,10.7641 -1.6818,11.4369 3.0274,13.7914 6.3911,6.7276 10.0913,7.4003 16.1461,2.3546 16.4825,-5.382 8.0732,-7.7367 8.073,-15.8098 2.3546,-18.1643 -0.3363,-9.0822 -0.3364,-12.7824"
     id="EA_E3A"
     inkscape:connector-curvature="0"
     inkscape:label="#path3110"
     sodipodi:nodetypes="ccccccccccccccc" />
  <path
     style="fill:none;stroke:#000000;stroke-width:0.5px;stroke-linecap:butt;stroke-linejoin:miter;stroke-opacity:1"
     d="m 635.41362,1322.6645 -0.3365,-8.7458 -0.6727,-6.3912"
     id="E3A_EA"
     inkscape:connector-curvature="0"
     inkscape:label="#path3132" />
  <path
     style="fill:none;stroke:#000000;stroke-width:0.5px;stroke-linecap:butt;stroke-linejoin:miter;stroke-opacity:1"
     d="m 611.09096,792.59899 -10.7641,0.3363 -12.7824,0 -3.3637,-0.3363"
     id="DCC_START2"
     inkscape:connector-curvature="0"
     inkscape:label="#path3082" />
  <path
     style="fill:none;stroke:#000000;stroke-width:0.5px;stroke-linecap:butt;stroke-linejoin:miter;stroke-opacity:1"
     d="m 559.31128,1442.1964 -6.7276,3.3638 -5.382,3.3637"
     id="EA_END"
     inkscape:connector-curvature="0"
     inkscape:label="#path3106" />
  <path
     style="fill:none;stroke:#000000;stroke-width:1px;stroke-linecap:butt;stroke-linejoin:miter;stroke-opacity:1"
     d="m 495.66726,1158.3301 8.087,9.9899 4.2814,11.4171 3.8057,8.087 7.6114,12.3685 8.087,20.9312 20.4556,16.6499 19.9798,-6.66 9.9899,-8.5628 0.9514,-11.8927 -1.4271,-12.8442 -0.4757,-14.747 -5.2328,-15.6984 -6.66,-6.6599 -15.2227,-7.6114 -12.3685,-0.4757 -11.417,1.4271 -13.3199,-0.9514"
     id="DCC_END2"
     inkscape:connector-curvature="0"
     sodipodi:nodetypes="cccccccccccccccccc"
     inkscape:label="#path3064" />
</svg>
