<?xml version="1.0" encoding="UTF-8" standalone="no"?>
<svg
   xmlns:dc="http://purl.org/dc/elements/1.1/"
   xmlns:cc="http://creativecommons.org/ns#"
   xmlns:rdf="http://www.w3.org/1999/02/22-rdf-syntax-ns#"
   xmlns:svg="http://www.w3.org/2000/svg"
   xmlns="http://www.w3.org/2000/svg"
   xmlns:xlink="http://www.w3.org/1999/xlink"
   xmlns:sodipodi="http://sodipodi.sourceforge.net/DTD/sodipodi-0.dtd"
   xmlns:inkscape="http://www.inkscape.org/namespaces/inkscape"
   sodipodi:docname="science_center_streetFair.svg"
   height="4992"
   width="5120"
   inkscape:version="0.48.3.1 r9886"
   id="svg2"
   version="1.1">
  <sodipodi:namedview
     pagecolor="#ffffff"
     bordercolor="#666666"
     borderopacity="1"
     objecttolerance="10"
     gridtolerance="10"
     guidetolerance="10"
     inkscape:pageopacity="0"
     inkscape:pageshadow="2"
     inkscape:window-width="1535"
     inkscape:window-height="876"
     id="namedview32"
     showgrid="false"
     inkscape:zoom="0.7432123"
     inkscape:cx="1585.2469"
     inkscape:cy="3164.9635"
     inkscape:window-x="65"
     inkscape:window-y="24"
     inkscape:window-maximized="1"
     inkscape:current-layer="svg2"
     showguides="true"
     inkscape:guide-bbox="true" />
  <metadata
     id="metadata36">
    <rdf:RDF>
      <cc:Work
         rdf:about="">
        <dc:format>image/svg+xml</dc:format>
        <dc:type
           rdf:resource="http://purl.org/dc/dcmitype/StillImage" />
        <dc:title>Paths of the golfcar</dc:title>
      </cc:Work>
    </rdf:RDF>
  </metadata>
  <defs
     id="defs34">
    <marker
       inkscape:stockid="Arrow1Send"
       orient="auto"
       refY="0.0"
       refX="0.0"
       id="Arrow1Send"
       style="overflow:visible;">
      <path
         id="path6236"
         d="M 0.0,0.0 L 5.0,-5.0 L -12.5,0.0 L 5.0,5.0 L 0.0,0.0 z "
         style="fill-rule:evenodd;stroke:#000000;stroke-width:1.0pt;marker-start:none;"
         transform="scale(0.2) rotate(180) translate(6,0)" />
    </marker>
    <marker
       inkscape:stockid="Arrow1Sstart"
       orient="auto"
       refY="0.0"
       refX="0.0"
       id="Arrow1Sstart"
       style="overflow:visible">
      <path
         id="path6233"
         d="M 0.0,0.0 L 5.0,-5.0 L -12.5,0.0 L 5.0,5.0 L 0.0,0.0 z "
         style="fill-rule:evenodd;stroke:#000000;stroke-width:1.0pt;marker-start:none"
         transform="scale(0.2) translate(6,0)" />
    </marker>
    <inkscape:path-effect
       steps="5"
       equidistant_spacing="true"
       trajectory="M 0,0 0,0"
       is_visible="true"
       id="path-effect3660"
       effect="interpolate" />
    <inkscape:path-effect
       phi="5"
       teeth="10"
       is_visible="true"
       id="path-effect3658"
       effect="gears" />
    <marker
       style="overflow:visible"
       id="DotM"
       refX="0.0"
       refY="0.0"
       orient="auto"
       inkscape:stockid="DotM">
      <path
         transform="scale(0.4) translate(7.4, 1)"
         style="fill-rule:evenodd;stroke:#000000;stroke-width:1.0pt;marker-start:none;marker-end:none"
         d="M -2.5,-1.0 C -2.5,1.7600000 -4.7400000,4.0 -7.5,4.0 C -10.260000,4.0 -12.5,1.7600000 -12.5,-1.0 C -12.5,-3.7600000 -10.260000,-6.0 -7.5,-6.0 C -4.7400000,-6.0 -2.5,-3.7600000 -2.5,-1.0 z "
         id="path3704" />
    </marker>
    <marker
       style="overflow:visible"
       id="DotL"
       refX="0.0"
       refY="0.0"
       orient="auto"
       inkscape:stockid="DotL">
      <path
         transform="scale(0.8) translate(7.4, 1)"
         style="fill-rule:evenodd;stroke:#000000;stroke-width:1.0pt;marker-start:none;marker-end:none"
         d="M -2.5,-1.0 C -2.5,1.7600000 -4.7400000,4.0 -7.5,4.0 C -10.260000,4.0 -12.5,1.7600000 -12.5,-1.0 C -12.5,-3.7600000 -10.260000,-6.0 -7.5,-6.0 C -4.7400000,-6.0 -2.5,-3.7600000 -2.5,-1.0 z "
         id="path3701" />
    </marker>
    <marker
       style="overflow:visible;"
       id="Arrow1Lend"
       refX="0.0"
       refY="0.0"
       orient="auto"
       inkscape:stockid="Arrow1Lend">
      <path
         transform="scale(0.8) rotate(180) translate(12.5,0)"
         style="fill-rule:evenodd;stroke:#000000;stroke-width:1.0pt;marker-start:none;"
         d="M 0.0,0.0 L 5.0,-5.0 L -12.5,0.0 L 5.0,5.0 L 0.0,0.0 z "
         id="path3642" />
    </marker>
    <marker
       style="overflow:visible"
       id="Arrow1Lstart"
       refX="0.0"
       refY="0.0"
       orient="auto"
       inkscape:stockid="Arrow1Lstart">
      <path
         transform="scale(0.8) translate(12.5,0)"
         style="fill-rule:evenodd;stroke:#000000;stroke-width:1.0pt;marker-start:none"
         d="M 0.0,0.0 L 5.0,-5.0 L -12.5,0.0 L 5.0,5.0 L 0.0,0.0 z "
         id="path3639" />
    </marker>
    <inkscape:path-effect
       crossing_points_vector=""
       switcher_size="15"
       add_other_stroke_width="true"
       add_stroke_width="true"
       prop_to_stroke_width="true"
       interruption_width="3.6"
       is_visible="true"
       id="path-effect2862"
       effect="knot" />
    <inkscape:path-effect
       crossing_points_vector=""
       switcher_size="15"
       add_other_stroke_width="true"
       add_stroke_width="true"
       prop_to_stroke_width="true"
       interruption_width="3"
       is_visible="true"
       id="path-effect2860"
       effect="knot" />
    <inkscape:path-effect
       steps="5"
       equidistant_spacing="true"
       trajectory="M 0,0 0,0"
       is_visible="true"
       id="path-effect2858"
       effect="interpolate" />
    <inkscape:path-effect
       bendpath4="m 1068.3624,2136.3724 0,121.4273"
       bendpath3="m 1068.3624,2257.7997 48.7175,0"
       bendpath2="m 1117.0799,2136.3724 0,121.4273"
       bendpath1="m 1068.3624,2136.3724 48.7175,0"
       xx="true"
       yy="true"
       is_visible="true"
       id="path-effect2856"
       effect="envelope" />
    <inkscape:path-effect
       tgtlength_rdm="0.3;1"
       tgtlength="100"
       tgtscale="10"
       tgt_places_rdmness="1;1"
       nbtangents="5"
       tremble_frequency="1"
       tremble_size="5;1"
       parallel_offset="5;1"
       ends_tolerance="0.1;1"
       strokeoverlap_rdm="0.3;1"
       strokeoverlap="0.3"
       strokelength_rdm="0.3;1"
       strokelength="100"
       nbiter_approxstrokes="5"
       is_visible="true"
       id="path-effect2854"
       effect="sketch" />
    <inkscape:path-effect
       border_marks="both"
       mark_dir="left"
       offset="0"
       shift="0"
       major_mark_steps="5"
       minor_mark_length="7"
       mark_length="14"
       mark_distance="20"
       unit="px"
       is_visible="true"
       id="path-effect2852"
       effect="ruler" />
    <inkscape:path-effect
       border_marks="both"
       mark_dir="left"
       offset="0"
       shift="0"
       major_mark_steps="5"
       minor_mark_length="7"
       mark_length="14"
       mark_distance="20"
       unit="px"
       is_visible="true"
       id="path-effect2850"
       effect="ruler" />
    <inkscape:path-effect
       phi="5"
       teeth="10"
       is_visible="true"
       id="path-effect2848"
       effect="gears" />
    <inkscape:perspective
       id="perspective38"
       inkscape:persp3d-origin="1528.5 : 1178.6667 : 1"
       inkscape:vp_z="3057 : 1768 : 1"
       inkscape:vp_y="0 : 1000 : 0"
       inkscape:vp_x="0 : 1768 : 1"
       sodipodi:type="inkscape:persp3d" />
    <inkscape:perspective
       sodipodi:type="inkscape:persp3d"
       inkscape:vp_x="0 : 0.5 : 1"
       inkscape:vp_y="0 : 1000 : 0"
       inkscape:vp_z="1 : 0.5 : 1"
       inkscape:persp3d-origin="0.5 : 0.33333333 : 1"
       id="perspective2947" />
    <inkscape:perspective
       sodipodi:type="inkscape:persp3d"
       inkscape:vp_x="0 : 0.5 : 1"
       inkscape:vp_y="0 : 1000 : 0"
       inkscape:vp_z="1 : 0.5 : 1"
       inkscape:persp3d-origin="0.5 : 0.33333333 : 1"
       id="perspective2824" />
    <inkscape:perspective
       sodipodi:type="inkscape:persp3d"
       inkscape:vp_x="0 : 0.5 : 1"
       inkscape:vp_y="0 : 1000 : 0"
       inkscape:vp_z="1 : 0.5 : 1"
       inkscape:persp3d-origin="0.5 : 0.33333333 : 1"
       id="perspective2960" />
    <inkscape:perspective
       sodipodi:type="inkscape:persp3d"
       inkscape:vp_x="0 : 0.5 : 1"
       inkscape:vp_y="0 : 1000 : 0"
       inkscape:vp_z="1 : 0.5 : 1"
       inkscape:persp3d-origin="0.5 : 0.33333333 : 1"
       id="perspective3024" />
    <inkscape:perspective
       sodipodi:type="inkscape:persp3d"
       inkscape:vp_x="0 : 0.5 : 1"
       inkscape:vp_y="0 : 1000 : 0"
       inkscape:vp_z="1 : 0.5 : 1"
       inkscape:persp3d-origin="0.5 : 0.33333333 : 1"
       id="perspective3088" />
    <inkscape:perspective
       sodipodi:type="inkscape:persp3d"
       inkscape:vp_x="0 : 0.5 : 1"
       inkscape:vp_y="0 : 1000 : 0"
       inkscape:vp_z="1 : 0.5 : 1"
       inkscape:persp3d-origin="0.5 : 0.33333333 : 1"
       id="perspective3152" />
    <inkscape:perspective
       sodipodi:type="inkscape:persp3d"
       inkscape:vp_x="0 : 0.5 : 1"
       inkscape:vp_y="0 : 1000 : 0"
       inkscape:vp_z="1 : 0.5 : 1"
       inkscape:persp3d-origin="0.5 : 0.33333333 : 1"
       id="perspective3216" />
    <inkscape:perspective
       sodipodi:type="inkscape:persp3d"
       inkscape:vp_x="0 : 0.5 : 1"
       inkscape:vp_y="0 : 1000 : 0"
       inkscape:vp_z="1 : 0.5 : 1"
       inkscape:persp3d-origin="0.5 : 0.33333333 : 1"
       id="perspective3280" />
    <inkscape:perspective
       sodipodi:type="inkscape:persp3d"
       inkscape:vp_x="0 : 0.5 : 1"
       inkscape:vp_y="0 : 1000 : 0"
       inkscape:vp_z="1 : 0.5 : 1"
       inkscape:persp3d-origin="0.5 : 0.33333333 : 1"
       id="perspective3344" />
    <inkscape:perspective
       sodipodi:type="inkscape:persp3d"
       inkscape:vp_x="0 : 0.5 : 1"
       inkscape:vp_y="0 : 1000 : 0"
       inkscape:vp_z="1 : 0.5 : 1"
       inkscape:persp3d-origin="0.5 : 0.33333333 : 1"
       id="perspective3408" />
    <inkscape:perspective
       sodipodi:type="inkscape:persp3d"
       inkscape:vp_x="0 : 0.5 : 1"
       inkscape:vp_y="0 : 1000 : 0"
       inkscape:vp_z="1 : 0.5 : 1"
       inkscape:persp3d-origin="0.5 : 0.33333333 : 1"
       id="perspective3628" />
    <inkscape:perspective
       sodipodi:type="inkscape:persp3d"
       inkscape:vp_x="0 : 0.5 : 1"
       inkscape:vp_y="0 : 1000 : 0"
       inkscape:vp_z="1 : 0.5 : 1"
       inkscape:persp3d-origin="0.5 : 0.33333333 : 1"
       id="perspective2848" />
    <inkscape:perspective
       sodipodi:type="inkscape:persp3d"
       inkscape:vp_x="0 : 0.5 : 1"
       inkscape:vp_y="0 : 1000 : 0"
       inkscape:vp_z="1 : 0.5 : 1"
       inkscape:persp3d-origin="0.5 : 0.33333333 : 1"
       id="perspective3658" />
    <inkscape:perspective
       sodipodi:type="inkscape:persp3d"
       inkscape:vp_x="0 : 0.5 : 1"
       inkscape:vp_y="0 : 1000 : 0"
       inkscape:vp_z="1 : 0.5 : 1"
       inkscape:persp3d-origin="0.5 : 0.33333333 : 1"
       id="perspective3691" />
    <inkscape:perspective
       sodipodi:type="inkscape:persp3d"
       inkscape:vp_x="0 : 0.5 : 1"
       inkscape:vp_y="0 : 1000 : 0"
       inkscape:vp_z="1 : 0.5 : 1"
       inkscape:persp3d-origin="0.5 : 0.33333333 : 1"
       id="perspective3713" />
    <inkscape:perspective
       sodipodi:type="inkscape:persp3d"
       inkscape:vp_x="0 : 0.5 : 1"
       inkscape:vp_y="0 : 1000 : 0"
       inkscape:vp_z="1 : 0.5 : 1"
       inkscape:persp3d-origin="0.5 : 0.33333333 : 1"
       id="perspective3735" />
    <inkscape:perspective
       sodipodi:type="inkscape:persp3d"
       inkscape:vp_x="0 : 0.5 : 1"
       inkscape:vp_y="0 : 1000 : 0"
       inkscape:vp_z="1 : 0.5 : 1"
       inkscape:persp3d-origin="0.5 : 0.33333333 : 1"
       id="perspective3757" />
    <inkscape:perspective
       sodipodi:type="inkscape:persp3d"
       inkscape:vp_x="0 : 0.5 : 1"
       inkscape:vp_y="0 : 1000 : 0"
       inkscape:vp_z="1 : 0.5 : 1"
       inkscape:persp3d-origin="0.5 : 0.33333333 : 1"
       id="perspective2910" />
    <marker
       style="overflow:visible"
       id="DotM-1"
       refX="0"
       refY="0"
       orient="auto"
       inkscape:stockid="DotM">
      <path
         transform="matrix(0.4,0,0,0.4,2.96,0.4)"
         style="fill-rule:evenodd;stroke:#000000;stroke-width:1pt;marker-start:none;marker-end:none"
         d="m -2.5,-1 c 0,2.76 -2.24,5 -5,5 -2.76,0 -5,-2.24 -5,-5 0,-2.76 2.24,-5 5,-5 2.76,0 5,2.24 5,5 z"
         id="path3704-5" />
    </marker>
    <inkscape:perspective
       sodipodi:type="inkscape:persp3d"
       inkscape:vp_x="0 : 0.5 : 1"
       inkscape:vp_y="0 : 1000 : 0"
       inkscape:vp_z="1 : 0.5 : 1"
       inkscape:persp3d-origin="0.5 : 0.33333333 : 1"
       id="perspective3012" />
    <inkscape:perspective
       sodipodi:type="inkscape:persp3d"
       inkscape:vp_x="0 : 0.5 : 1"
       inkscape:vp_y="0 : 1000 : 0"
       inkscape:vp_z="1 : 0.5 : 1"
       inkscape:persp3d-origin="0.5 : 0.33333333 : 1"
       id="perspective2903" />
    <marker
       style="overflow:visible"
       id="DotM-5"
       refX="0"
       refY="0"
       orient="auto"
       inkscape:stockid="DotM">
      <path
         transform="matrix(0.4,0,0,0.4,2.96,0.4)"
         style="fill-rule:evenodd;stroke:#000000;stroke-width:1pt;marker-start:none;marker-end:none"
         d="m -2.5,-1 c 0,2.76 -2.24,5 -5,5 -2.76,0 -5,-2.24 -5,-5 0,-2.76 2.24,-5 5,-5 2.76,0 5,2.24 5,5 z"
         id="path3704-9" />
    </marker>
    <inkscape:perspective
       sodipodi:type="inkscape:persp3d"
       inkscape:vp_x="0 : 0.5 : 1"
       inkscape:vp_y="0 : 1000 : 0"
       inkscape:vp_z="1 : 0.5 : 1"
       inkscape:persp3d-origin="0.5 : 0.33333333 : 1"
       id="perspective2889" />
    <filter
       id="filter3830"
       inkscape:label="Colorize"
       inkscape:menu="Color"
       inkscape:menu-tooltip="Blend image or object with a flood color and set lightness and contrast"
       x="0"
       y="0"
       width="1"
       height="1"
       color-interpolation-filters="sRGB">
      <feColorMatrix
         id="feColorMatrix3832"
         values="1"
         in="SourceGraphic"
         type="saturate"
         result="result2" />
      <feFlood
         id="feFlood3834"
         flood-color="rgb(254,102,0)"
         flood-opacity="1"
         result="result1" />
      <feBlend
         id="feBlend3836"
         in2="result2"
         mode="multiply"
         in="result1"
         result="result3" />
      <feComposite
         id="feComposite3838"
         in2="SourceGraphic"
         operator="in"
         k2="1"
         result="result4" />
    </filter>
    <marker
       style="overflow:visible"
       id="DotM-7"
       refX="0"
       refY="0"
       orient="auto"
       inkscape:stockid="DotM">
      <path
         inkscape:connector-curvature="0"
         transform="matrix(0.4,0,0,0.4,2.96,0.4)"
         style="fill-rule:evenodd;stroke:#000000;stroke-width:1pt;marker-start:none;marker-end:none"
         d="m -2.5,-1 c 0,2.76 -2.24,5 -5,5 -2.76,0 -5,-2.24 -5,-5 0,-2.76 2.24,-5 5,-5 2.76,0 5,2.24 5,5 z"
         id="path3704-3" />
    </marker>
    <marker
       style="overflow:visible"
       id="DotM-70"
       refX="0"
       refY="0"
       orient="auto"
       inkscape:stockid="DotM">
      <path
         inkscape:connector-curvature="0"
         transform="matrix(0.4,0,0,0.4,2.96,0.4)"
         style="fill-rule:evenodd;stroke:#000000;stroke-width:1pt;marker-start:none;marker-end:none"
         d="m -2.5,-1 c 0,2.76 -2.24,5 -5,5 -2.76,0 -5,-2.24 -5,-5 0,-2.76 2.24,-5 5,-5 2.76,0 5,2.24 5,5 z"
         id="path3704-8" />
    </marker>
  </defs>
  <title
     id="title4">Paths of the golfcar</title>
  <desc
     id="desc6">The paths consist of all the possible route that can be taken by the golfcart to serve 4 stations: DCC, MCD, EA and E3A</desc>
  <image
     sodipodi:absref="/home/golfcar/smartfm/bookingUI/shared/SvgPath/science_center_Wednesday.pgm"
     xlink:href="science_center_Wednesday.pgm"
     inkscape:label="#image3014"
     y="0"
     x="0"
     id="map"
     height="4992"
     width="5120"
     style="font-size:14px;fill:#aa4400" />
  <path
     style="fill:none;stroke:#000000;stroke-width:0.5px;stroke-linecap:butt;stroke-linejoin:miter;stroke-opacity:1"
     d="m 350.17469,1697.4002 2.9458,7.3425 2.3307,7.3666 7.8183,9.5649 13.1666,9.6057 8.9667,6.6768 14.0533,-6.225 7.6552,-12.9187 1.4201,-8.7698 0.058,-9.344 -2.9529,-32.7593 -1.2878,-18.9636"
     id="DCC_EA"
     inkscape:connector-curvature="0"
     inkscape:label="#path3076"
     sodipodi:nodetypes="cccccccccccc" />
  <path
     style="fill:none;stroke:#000000;stroke-width:0.5px;stroke-linecap:butt;stroke-linejoin:miter;stroke-opacity:1"
     d="m 569.6328,1027.9119 -4.7093,1.3456 -4.3729,2.6909 -1.6819,3.7002 1.0091,3.3638 1.6819,4.7093 2.0183,3.7001"
     id="DCC_EA3"
     inkscape:connector-curvature="0"
     inkscape:label="#path3084" />
  <path
     style="fill:none;stroke:#008000;stroke-width:0.5px;stroke-linecap:butt;stroke-linejoin:miter;stroke-opacity:1"
     d="m 1306.0237,2065.4064 2.6431,-3.6071 2.643,-3.607 2.6431,-3.6071 2.6431,-3.6071 2.643,-3.6071 2.6431,-3.6071 2.643,-3.607 2.6431,-3.6071 2.6431,-3.6071 2.643,-3.607 2.6431,-3.6071 2.6431,-3.6071 2.643,-3.6071 2.6431,-3.6071 2.643,-3.607 2.6431,-3.6071 5.8667,-7.32 6.2156,-7.6267 6.1425,-7.4513 6.2588,-7.6858 6.0902,-7.4786 5.6656,-7.166 6.1279,-7.5903 5.8973,-7.5585 5.4636,-7.0775 6.0101,-7.8303 6.245,-8.2916 5.241,-7.026 5.5191,-7.633 5.6661,-7.8217 5.8682,-8.2049 6.0001,-8.4333 6.0308,-8.5038 5.909,-8.4026 6.0242,-8.4881 5.7738,-8.115 5.9166,-8.2744 5.6665,-8.1269 5.8841,-8.3733 5.5931,-8.2361 5.7404,-8.2943 5.7023,-8.4389 5.6415,-8.4266 5.8176,-8.5518 5.7619,-8.5268 5.7473,-8.5294 6.0223,-8.6498 5.9119,-8.5748 5.9443,-8.5747 6.0808,-8.8879 5.7642,-8.5716 6.0146,-8.8247 5.916,-8.7413 5.8458,-8.6288 5.8664,-8.7528 5.6977,-8.4578 5.8402,-8.692 5.5565,-8.3231 5.5453,-8.3302"
     id="DCC_START"
     inkscape:connector-curvature="0"
     sodipodi:nodetypes="cccccccccccccccccccccccccccccccccccccccccccccccccccccccccccc" />
  <path
     style="fill:none;stroke:#ff0000;stroke-width:0.50000000000000000px;stroke-linecap:butt;stroke-linejoin:miter;stroke-opacity:1"
     d="m 1597.9315,1657.451 5.4922,-8.0915 5.5808,-8.4832 4.3652,-7.6438 5.5378,-8.2594 5.7247,-8.4789 5.6406,-8.5877 5.7379,-8.5276 5.9177,-8.858 5.9569,-8.9935 5.9625,-8.9357 6.0376,-9.111 6.0053,-9.0253 6.0306,-9.2673 6.0778,-9.0938 6.0637,-9.2445 6.0889,-9.0986 5.6566,-8.3929 6.178,-9.2989 6.2351,-9.2301 5.4923,-8.21 6.0167,-8.827 6.2307,-9.3835 5.9254,-8.906 6.2719,-9.2257 6.1441,-9.1314 6.1158,-8.9551 6.1866,-8.9283 5.8802,-8.5939 6.0857,-8.811 5.8687,-8.7173 5.9492,-8.6747 6.3071,-9.0212 5.2976,-8.1808 5.6274,-10.9822 5.1249,-9.0794 6.0515,-8.7739 6.1788,-8.9572 6.2068,-8.916 5.465,-7.8934 6.4421,-9.1283 5.5169,-7.84 6.2375,-8.9371 6.3718,-9.1618 5.5988,-8.1175 6.3039,-9.0816 6.1992,-9.0934 6.3209,-9.2515 6.3066,-9.1436 6.2464,-9.2968 6.2397,-9.2609 6.245,-9.3448 6.1308,-9.2016 6.0327,-9.1114 6.0803,-9.1547 6.031,-8.9954 5.9669,-8.9782 6.0118,-8.9141 6.034,-8.7995 4.7266,-8.7891 5.159,-8.1441 4.6447,-7.5228 4.6447,-7.5228 4.6446,-7.5229 4.6447,-7.5228 4.6447,-7.5228 4.6447,-7.5228 4.6447,-7.5228 4.6447,-7.5229 4.6446,-7.5228 4.6447,-7.5228 4.6447,-7.5228 4.6447,-7.5228 4.6447,-7.5228 4.6446,-7.5229 4.6447,-7.5228 5.3583,-6.5714 6.2912,-8.04654 7.1806,-6.67481 7.528,-6.41711 8.7578,-6.75496 10.745,-7.19193 10.7519,-5.82315 10.3924,-4.48381 9.64,-3.2365 9.6378,-2.41289 9.903,-1.56065 9.6079,-0.46421 9.5075,0.47427 9.458,1.38909 9.0337,2.14732 8.8446,2.87597 8.3977,3.6556 7.8189,4.25327 7.6647,5.23694 6.7909,5.60174 6.6017,5.79359 6.2636,6.59568 7.4262,7.76885 7.212,9.88354 7.0951,8.7826 6.9669,9.9005 6.8357,10.1915 6.9608,10.4266 6.7343,10.7779 6.3452,10.791 6.2622,11.1004 5.5817,11.0482 5.5009,11.173 5.1984,10.87 1.742,4.5436 1.7421,4.5437 1.742,4.5436 1.742,4.5437 1.742,4.5436 1.7421,4.5436 1.742,4.5437 1.742,4.5436"
     id="DCC_MCD"
     inkscape:connector-curvature="0"
     sodipodi:nodetypes="cccccccccccccccccccccccccccccccccccccccccccccccccccccccccccccccccccccccccccccccccccccccccccccccccccccccccccccccccccccc" />
  <path
     style="fill:none;stroke:#0000ff;stroke-width:0.50000000000000000px;stroke-linecap:butt;stroke-linejoin:miter;stroke-opacity:1"
     d="m 2290.0735,1118.2491 2.337,6.1984 1.5103,4.0059 1.241,3.51 1.2409,3.5101 1.241,3.51 1.241,3.51 1.2409,3.51 1.241,3.5101 1.2409,3.51 1.241,3.51 3.1673,9.0057 2.5064,9.0365 2.3574,9.1675 2.1034,9.2536 1.5745,9.3281 1.3068,9.2252 0.207,9.3142 -0.5975,9.0259 -1.0475,9.1528 -1.8795,8.6961 -2.294,8.4634 -3.058,8.3784 -3.7864,8.0534 -4.1427,7.5045 -5.03,7.5352 -5.4175,6.4921 -6.9106,7.058 -8.5383,7.1575 -9.0944,6.3794 -9.9699,5.4 -10.3308,4.5005 -10.4759,3.3484 -10.5743,2.6455 -8.6568,1.4382 -8.7837,1.184 -8.7681,0.7502 -8.988,0.5704 -8.8844,0.1857 -8.6988,0.037 -8.6421,-0.2273 -8.6043,-0.292 -8.3329,-0.2418 -8.5892,-0.3408 -8.6555,-0.6187 -8.5539,-0.8251 -8.484,-0.9516 -8.2324,-1.0667 -8.2986,-1.1026 -8.1345,-1.5346 -8.2014,-1.5489 -7.8137,-1.7893 -7.7704,-1.9471 -7.5889,-1.9733 -8.6105,-2.5211 -9.1811,-2.5585 -8.6698,-2.8939 -8.3076,-2.9836 -7.9809,-3.0164 -7.5882,-2.9942 -8.0342,-3.4757 -7.5608,-5.0374 -7.5428,-4.3968 -5.9476,-3.7211 -6.9333,-3.6195 -6.9307,-4.8594 -6.0517,-2.9726 -7.1598,-3.6402 -7.4695,-4.7032 -7.4433,-6.3047 -11.1293,-5.8047 -12.0731,-5.633 -12.9659,-0.1367 -12.0901,4.1538 -11.7733,7.1632 -9.6962,9.4619 -7.2175,8.2768 -7.548,8.0396 -6.1942,7.1712 -7.0511,7.3328 -6.445,7.8022 -5.2926,7.222 -5.1029,7.616 -4.97,7.8406 -5.0506,8.2384 -4.5705,7.9269 -4.4882,7.9187 -4.2112,7.3904 -4.3837,7.6752 -4.4589,7.805 -4.7865,8.2016 -4.8604,8.296 -5.0779,8.3139 -5.3733,8.5859 -5.5058,8.6391 -5.4769,8.2544 -4.8167,7.3925 -4.7719,7.3993 -4.9975,7.4498 -5.1761,7.7348 -5.0737,7.5478 -5.3841,7.8075 -5.4041,7.9439 -5.1945,7.5021 -5.1574,7.5775 -5.3117,7.3757 -5.3105,7.3816 -5.3297,7.4145 -5.2254,7.3341 -4.857,6.8464 -5.2993,7.26 -5.2054,7.2462 -5.1358,7.1365 -5.3199,7.3299 -4.9874,7.1249 -5.1023,7.3023 -5.0915,7.5516 -5.2482,7.648 -5.2001,7.678 -5.1313,7.8238 -5.0584,7.5765 -5.0694,7.6524 -5.4016,8.06 -5.3404,7.8839 -5.3102,7.6911 -5.3624,7.9306"
     id="MCD_DCC"
     inkscape:connector-curvature="0"
     sodipodi:nodetypes="cccccccccccccccccccccccccccccccccccccccccccccccccccccccccccccccccccccccccccccccccccccccccccccccccccccccccccccccccccccccccccccc" />
  <path
     style="fill:none;stroke:#ff00ff;stroke-width:0.5px;stroke-linecap:butt;stroke-linejoin:miter;stroke-opacity:1"
     d="m 1598.1763,1658.9021 -5.3002,7.725 -5.1815,7.5516 -5.4373,7.9692 -5.5433,8.1963 -5.4093,7.7408 -5.4677,7.9762 -5.5864,8.0601 -5.5257,7.8127 -5.7688,8.245 -5.4856,7.8671 -5.5595,8.0973 -5.5128,8.1846 -6.784,9.9223 -5.4039,8.065 -5.1343,7.8524 -5.1935,7.9092 -5.4864,8.0155 -5.3609,7.9822 -5.2267,7.7342 -5.2363,7.7754 -5.2376,7.8698 -5.0513,7.7139 -5.2747,7.9088 -5.0239,7.6192 -5.1659,7.8777 -5.385,8.3072 -5.4095,8.212 -5.3858,8.2533 -5.3682,8.3753 -5.2935,8.1016 -5.4219,8.5485 -5.4996,8.5056 -5.527,8.653 -5.5342,8.5895 -5.4613,8.4417 -5.6168,8.6745 -5.5547,8.4217 -5.5786,8.6131 -5.4298,8.2503 -5.4579,8.3833 -5.285,7.9686 -5.4143,8.0843 -5.2647,7.9022 -3.0402,4.0553 -3.0402,4.0552 -3.0403,4.0553 -3.0402,4.0553 -3.0402,4.0552 -3.0402,4.0553 -3.0402,4.0553 -3.0403,4.0552 -3.0402,4.0553 -3.0402,4.0553 -3.0402,4.0552 -3.0403,4.0553 -3.0402,4.0553 -3.0402,4.0552 -3.0402,4.0553 -3.0402,4.0553"
     id="DCC_END"
     inkscape:connector-curvature="0"
     sodipodi:nodetypes="cccccccccccccccccccccccccccccccccccccccccccccccccccccccccccc" />
  <path
     style="fill:none;stroke:#008000;stroke-width:0.5px;stroke-linecap:butt;stroke-linejoin:miter;stroke-opacity:1"
     d="m 4252.533,2276.009 13.429,-3.8407 11.497,-3.2882 12.0621,-3.4498 11.6228,-3.3241 12.1566,-3.4768 6.989,-1.9989 9.7457,-1.5429 10.0006,-1.0308 10.1545,-0.8045 10.2927,-0.4029 10.2614,-0.094 10.6673,0.1129 10.3513,0.1963 7.9325,0.1891 8.0913,0.4491 8.0682,0.4363 8.2367,0.6391 8.404,0.5478 8.2762,0.7258 8.3822,0.5983 8.3363,0.6175 8.5975,0.6149 8.7038,0.8713 8.9455,0.6996 8.694,0.5428 9.4971,0.6244 8.8825,0.6423 9.1908,0.7268 9.1405,0.727 9.2658,0.9446 9.5459,0.5957 9.4009,0.7268 9.3044,0.6806 9.1615,0.727 8.6779,0.6273 9.0353,0.8045 8.6966,0.5151 8.962,0.4338 8.6159,0.5289 8.5948,0.5276 8.4719,0.5349 8.302,0.515 8.4577,0.4493 8.5891,0.6074 8.4514,0.5979 8.5267,0.7038 8.8341,0.5692 8.4464,0.781 8.5546,0.6011 8.5643,0.5709 8.5957,0.7352 8.4895,0.7746 8.5974,0.8452 8.3581,0.8281 8.3277,0.8454 8.3848,0.9943 8.3898,0.8293 8.2637,0.9706 8.2855,1.1123 8.4227,1.1171 8.2026,1.0945 8.0678,1.0552 8.0341,1.1816 10.5043,1.4402 9.3238,1.3808 8.9398,1.2284 10.2507,1.2865 10.135,1.1378 9.9482,1.1315 9.8396,0.8931 9.9564,0.9051 9.5322,0.6913 9.481,0.6022 9.4726,0.7354 9.2144,0.6958 9.0404,0.6584 8.8985,0.3049 8.7767,0.4275 8.4876,0.2036 8.2437,0.01 8.0762,0.3182 8.1366,0.096 7.9715,-0.1793 8.9095,-0.1722 9.5026,-0.7329 9.4114,-1.0333 8.8252,-1.5095 8.5289,-2.106 8.2834,-2.3951 9.5232,-3.4012 9.1893,-4.11 8.629,-4.4871 9.4802,-5.7699 8.9515,-6.5502 8.7745,-8.0784 7.1882,-7.9628 5.7491,-7.8924 4.7908,-8.6728 3.8771,-9.063 2.859,-8.7122 1.9292,-8.2324 1.1904,-8.291 0.6331,-8.6462 -0.1293,-8.7384 -0.9973,-8.6782 -1.9061,-8.544 -2.6842,-8.3598 -4.0623,-9.5539 -4.0574,-9.0267 -5.4632,-9.1773 -6.6752,-9.4324 -6.9995,-8.3755 -7.3844,-6.9985 -8.2155,-6.1176 -7.4748,-4.5198 -7.7864,-3.9444 -8.3881,-3.187 -8.4395,-2.7211 -8.6785,-1.9616 -8.9088,-1.5227 -9.5546,-0.6239 -9.3186,0.01 -9.5353,0.1963 -9.9703,0.8212 -10.0772,1.4451 -8.3139,1.6911 -8.2978,1.7876 -8.3443,2.1753 -8.7446,2.5991 -9.0966,2.9429 -9.4415,3.4055 -9.9798,3.5966 -10.1395,3.9679 -10.6866,3.9461 -10.7937,4.0581 -9.7951,3.2123 -8.3838,2.7941 -8.4688,2.7768 -8.4346,2.7185 -8.3005,2.5251 -8.4873,2.5203 -8.5336,2.3331 -8.8617,2.1555 -8.4323,2.022 -8.5111,1.9502 -9.1078,1.5605 -8.4631,1.5039 -8.7625,1.1591 -8.6792,0.7535 -8.8554,0.5719 -9.1203,0.2154 -8.9317,0.1797 -8.7196,0.087 -9.0068,-0.151 -9.3069,-0.2413 -9.3178,-0.1347 -9.4294,-0.3815 -9.3006,-0.5381 -9.1861,-0.7003 -9.3606,-0.4853 -9.568,-0.6969 -9.4252,-0.614 -9.2764,-0.5839 -9.9475,-0.553 -9.8839,-0.6179 -10.1985,-0.6445 -10.2851,-0.5687 -10.1402,-0.5341 -10.3708,-0.6958 -10.3388,-0.5416 -10.2144,-0.6383 -9.9204,-0.6747 -10.1471,-0.55 -10.6317,-0.7927 -10.2027,-0.7574 -10.9136,-0.7974 -10.7777,-0.889 -10.4065,-0.5423 -10.6585,-0.7361 -10.8663,-0.7949 -10.8022,-0.7132 -10.5533,-0.7056 -10.6608,-0.7117 -10.581,-0.6851 -10.8948,-0.7157 -10.6969,-0.7022 -10.2262,-0.5484 -10.7689,-0.6723 -10.4602,-0.5896 -10.3781,-0.7097 -10.2681,-0.6523 -10.1571,-0.5446 -10.2854,-0.6295 -9.949,-0.7078 -9.8032,-1.1076 -9.7989,-1.1136 -9.7292,-1.291 -9.7542,-1.2825 -9.7555,-0.9941 -9.5187,-0.9679 -9.5078,-0.9807 -9.7647,-0.8602 -9.3276,-0.8036 -9.3518,-0.7573 -9.2392,-0.8359 -9.0555,-0.7446 -9.1323,-0.9012 -9.2205,-0.5728 -9.1744,-0.805 -9.0618,-0.6997 -9.0757,-0.6719 -8.9367,-0.6659 -8.984,-0.5856 -8.8695,-0.5362 -8.8475,-0.6011 -9.1052,-0.5623 -8.169,-0.6405 -8.6065,-0.6933 -8.7462,-0.5696 -8.3911,-0.5034 -8.4229,-0.4369 -8.3069,-0.4045 -8.3362,-0.4495 -8.2482,-0.612 -8.4065,-0.3402 -8.3593,-0.223 -8.3584,0.055 -8.472,-0.044 -8.4424,0.5537 -8.5507,0.1813 -8.4915,-0.033 -8.6976,-0.1671 -8.4335,-0.2319 -8.6108,-0.5086 -8.7516,-0.442 -8.2488,-0.5245 -8.5822,-0.8309 -8.8043,-0.6461 -8.6144,-0.6188 -8.4993,-0.6008 -8.3783,-0.7601 -9.1807,-0.5732 -8.3515,-0.5883 -8.2668,-0.5798 -8.5778,-0.582 -8.0873,-0.4063 -8.7819,-0.7665 -8.0339,-0.4842 -8.0582,-0.4664 -8.1914,-0.4903 -8.1233,-0.5033 -8.0628,-0.5751 -8.3373,-0.5759 -8.5797,-0.7047 -9.2677,-0.5991 -9.1415,-0.6072 -8.9231,-0.5984 -10.4262,-0.6361 -10.7401,-0.8994 -10.1576,-0.5756 -10.2379,-0.6295 -10.4929,-0.7071 -9.5262,-0.6813 -10.0231,-0.7479 -9.7534,-0.8261 -9.8566,-0.699 -10.0851,-0.7526 -9.9395,-0.6472 -9.9572,-0.8406 -10.1061,-0.7325 -10.0137,-0.6938 -10.4143,-0.789 -10.2712,-0.6603 -9.7441,-0.5922 -9.7414,-0.4022 -10.555,-0.4122 -8.9553,-0.5125 -9.7843,-0.5626 -9.3277,-0.4804 -9.579,-0.5872 -9.4889,-0.4468 -9.5686,-0.3705 -9.5284,-0.4088 -9.4434,-0.4163 -9.2402,-0.3909 -9.2877,-0.4623 -9.0171,-0.4013 -9.1472,-0.2302"
     id="path3065"
     inkscape:connector-curvature="0"
     sodipodi:nodetypes="ccccccccccccccccccccccccccccccccccccccccccccccccccccccccccccccccccccccccccccccccccccccccccccccccccccccccccccccccccccccccccccccccccccccccccccccccccccccccccccccccccccccccccccccccccccccccccccccccccccccccccccccccccccccccccccccccccccccccccccccccccccccccccccccccccccccccccccccccccccccccccccccccc" />
  <path
     style="fill:none;stroke:#ff0000;stroke-width:0.5px;stroke-linecap:butt;stroke-linejoin:miter;stroke-opacity:1"
     d="m 3462.8147,2066.1013 -8.9933,0.1016 -9.0615,0.6055 -8.9946,0.9436 -9.0097,1.2007 -8.6952,1.672 -8.7808,1.9256 -10.1329,3.1498 -9.9263,3.5554 -9.4166,4.2231 -8.9515,4.6185 -9.4334,5.7753 -9.6792,6.6386 -9.1196,6.845 -8.6267,6.8762 -7.9197,7.087 -7.6092,7.2829 -7.5529,6.9179 -7.6113,6.9509 -7.2196,7.4324 -6.8846,7.3847 -6.8624,7.8116 -7.1957,8.4866 -7.4738,8.8686 -7.4934,8.7466 -7.557,8.816 -7.696,8.956 -7.169,8.4651 -6.4133,7.5435 -7.4395,8.3037 -8.6001,9.1538 -8.3099,8.8042 -8.5867,8.548 -8.9043,8.3846 -9.0934,8.2113 -9.2443,8.2775 -9.7872,8.0342 -10.1941,7.8212 -10.6487,7.289 -8.9257,5.7183 -8.7055,5.1125 -8.8344,4.9452 -8.9501,4.7791 -8.829,4.3396 -9.1267,4.0237 -9.0731,3.6752 -8.9846,3.629 -9.0868,3.083 -8.6945,2.6827 -9.0135,2.4482 -8.7153,2.0939 -8.3762,1.6354 -8.3385,1.3333 -8.1575,0.9791 -9.6112,0.8445 -9.1355,0.484 -8.5075,0.2656 -9.1982,0.197 -8.8783,0.1351 -9.0846,-0.035 -8.8614,0.1898 -8.3994,-0.019"
     id="path3067"
     inkscape:label="#MCD_DCC"
     inkscape:connector-curvature="0" />
  <path
     style="fill:none;stroke:#000000;stroke-width:0.5px;stroke-linecap:butt;stroke-linejoin:miter;stroke-opacity:1"
     d="m 1015.9451,800.2389 3.9647,0.60834 4.0558,1.06838 4.0731,1.59848 3.9504,2.12742 3.995,2.84066 3.9852,3.65537 3.4567,4.34105 5.9266,15.72596 0.9152,49.91628 -0.037,55.24617"
     id="DCC_MCD1"
     inkscape:label="#DCC_START"
     inkscape:connector-curvature="0"
     sodipodi:nodetypes="ccccccccccc" />
  <path
     style="fill:none;stroke:#000000;stroke-width:0.5px;stroke-linecap:butt;stroke-linejoin:miter;stroke-opacity:1"
     d="m 1050.2121,833.49481 0.7263,4.06245 0.4737,4.10182 0.3458,4.13376 0.011,4.18549 -0.01,4.16587 0.123,4.01718 0.1403,3.95195 0.011,4.1114 0.094,3.91527 0.065,4.06595 0.094,4.16717 -0.062,4.17434 0.01,4.07654 -0.076,4.12662 -0.1333,4.17621 -0.1137,4.06736 0.089,4.02189 -0.088,4.14866 0.1206,4.06322 0.096,4.02476 0.02,4.12398 0.039,4.11266 0.038,4.10521 0.026,4.13557 0.1826,4.14081 0.1361,4.12538 0.1564,4.17097 0.1746,4.01143 0.2264,4.07502 0.077,4.07176 0.098,4.22814 0.076,4.23057 -0.021,4.2047 0.1506,4.11266 0.1221,4.23341 0.079,4.05609 0.054,4.17112 0.1549,4.17815 0.087,4.20601 0.034,4.07543 0.089,4.06261 0.1489,3.9977 0.1863,4.151 0.1811,4.1767 0.1817,4.1 0.1952,4.0249 0.12,4.0016 0.2204,4.0947 0.2466,4.1726 0.1939,4.1772 0.272,3.9622 0.2228,4.1265 0.2469,4.1702 0.2845,4.0586 0.2863,4.039 0.3035,4.2462 0.3258,4.1132 0.4026,4.3305 0.3612,4.2466 0.3314,4.2531 0.264,4.291 0.4747,4.1032 0.4483,4.1347 0.4919,4.1886 0.6309,4.108 0.5172,4.0475 0.6005,4.339 0.6952,4.0777 0.7476,4.2423 0.78,4.1874 0.8884,4.302 0.88,4.0397 1.029,4.1836 1.1365,4.2074 1.0923,4.149 1.2563,4.1472 1.3081,4.1221 1.3196,4.0846 1.4061,4.1779 1.4409,4.2525 1.4515,4.0997 1.4854,4.1808 1.5356,4.1722 1.5657,4.1524 1.5403,4.1743 1.5188,4.0527 1.4544,4.181 1.499,4.2159 1.4734,4.2273 1.4646,4.2395 1.3536,4.0982 1.2452,4.2463 1.1503,4.1558 1.1935,4.116 1.114,4.1697 1.1374,4.2723 1.0692,4.1035 0.9825,4.0498 0.9198,4.0932 1.0029,4.29 0.9158,4.0737 0.8224,4.1599 0.8238,4.1781 0.7199,4.2375 0.6926,4.0598 0.6498,4.3069 0.6196,4.2273 0.5471,4.0758 0.5577,4.1766 0.5545,4.1735 0.4934,4.2302 0.4304,4.1412 0.4017,4.1345 0.3375,4.1254 0.3752,4.2094 0.3555,4.1873 0.2831,3.9599 0.2326,4.1735 0.1738,4.0857 0.1661,4.1513 0.1186,4.1464 0.1626,4.2562 0.016,4.0844 0.023,3.9127 -0.018,4.1101 0.016,4.0894 -0.1335,4.0708 -0.04,4.0994 -0.031,4.1007 -0.037,4.1642 -0.012,4.0728 -0.059,4.1734 -9e-4,4.1678 -0.072,4.0913 0.031,4.2101 -0.063,4.1913 -0.1456,4.0995 -0.089,4.0826 -0.071,4.2087 -0.159,4.0762 -0.1255,4.1935 -0.2151,4.1584 -0.2096,4.0022 -0.208,4.2573 -0.2383,4.1023 -0.2293,4.2182 -0.2408,4.197 -0.2564,4.1699 -0.2878,4.015 -0.374,4.2916 -0.3536,4.1471 -0.3526,4.1385 -0.3648,4.3217 -0.3714,4.0698 -0.3905,4.192 -0.4256,4.179 -0.4043,4.1593 -0.3875,4.0424 -0.3969,4.2268 -0.3845,4.1085 -0.4315,4.0926 -0.4548,4.1307 -0.5686,4.1126 -0.5484,4.1108 -0.5541,4.1861 -0.5083,4.194 -0.4504,4.2787 -0.5075,4.0474 -0.6029,4.1053 -0.551,3.9859 -0.5367,4.0871 -0.5391,4.0266 -0.4885,4.1919 -0.4857,4.1183 -0.4499,4.2861 -0.4576,4.0121 -0.4204,4.0005 -0.3793,3.9753 -0.3634,4.119 -0.3033,4.2279 -0.2152,4.134 -0.1588,4.2334 -0.1323,4.1572 -0.019,4.1857 -0.019,4.2086 0.054,4.3291 0.098,4.0803 0.1548,4.1954 0.2471,4.0615 0.347,4.3885 0.3591,4.2182 0.4463,4.1909 0.4822,4.0432 0.5369,4.082 0.6607,4.0898 0.71,4.2301 0.7053,4.2386 0.7747,4.4055 0.7809,4.2453 0.8542,4.244 0.8588,4.1422 0.856,4.151 0.8743,4.3129 0.8578,4.0887 0.9044,4.0464 0.8171,4.1777 0.874,4.16 0.9881,4.2104 0.9218,4.1343 0.9247,4.3278 0.9093,4.0741 0.8811,4.3194 0.9009,4.2797 0.887,4.1444 0.8609,4.0944 0.8961,4.2372 0.8099,4.2612 0.8042,4.2556 0.7732,4.2852 0.8326,4.3615 0.7861,4.1953 0.7981,4.0717 0.7653,4.2715 0.8188,4.3027 0.7573,4.1678 0.7097,4.2559 0.7071,4.1528 0.7015,4.1895 0.5886,4.3882 0.5507,4.3704 0.562,4.062 0.3661,4.1815 0.2464,4.1839 0.1975,4.0375 0.1028,4.2528 -0.039,4.2489 -0.1793,4.1134 -0.3572,4.1963 -0.5648,3.9862 -0.8356,4.2367 -1.1198,4.2771 -1.3597,3.982 -1.6781,4.049 -2.0038,4.0861 -2.4302,3.9925 -2.7784,3.8968 -3.3268,4.2311 -3.8058,4.0775 -4.2393,3.7841 -4.2622,3.1805 -4.0156,2.4515 -4.2634,2.2 -4.2137,1.5969 -4.1334,1.4918 -4.0968,1.0572 -4.1427,0.9356 -3.99,0.5283 -4.1439,0.3179 -4.1752,0.1161 -4.2045,-0.038 -4.0941,-0.2603 -3.976,-0.3121 -4.0508,-0.2182 -4.3158,-0.2606 -4.183,-0.5129 -4.1041,-0.6681 -4.0872,-0.7955 -4.1243,-0.8233"
     id="MCD_DCC_"
     inkscape:label="#DCC_START" />
  <path
     style="fill:none;stroke:#000000;stroke-width:0.5px;stroke-linecap:butt;stroke-linejoin:miter;stroke-opacity:1"
     d="m 1021.5997,1875.4237 -3.9033,-1.2218 -4.0282,-1.3613 -4.1001,-1.6332 -3.9634,-1.972 -3.9736,-2.5755 -3.86254,-3.2708 -3.59698,-4.1194 -2.67495,-4.0505 -0.39843,-2.9246 0.84891,-2.9419 1.26028,-2.7654 1.52339,-4.5365 1.1705,-3.9625 1.44398,-3.9531 1.42107,-4.0023 1.52947,-4.0067 1.714,-4.068 1.3834,-5.0754 0.9958,-4.0935 1.9206,-3.8848 6.0751,-18.1845 9.8997,-18.2448 18.5863,-38.0846"
     id="DCC_END_"
     inkscape:label="#DCC_START"
     inkscape:connector-curvature="0"
     sodipodi:nodetypes="cccccccccccccccccccccccc" />
  <path
     style="fill:none;stroke:#000000;stroke-width:0.5px;stroke-linecap:butt;stroke-linejoin:miter;stroke-opacity:1"
     d="m 386.82551,1195.4807 -0.3363,-8.073 6.0548,-68.2847 3.0274,-30.274 3.0273,-24.5555 3.0274,-19.5099 5.382,-41.0381 5.3821,-19.50985 5.7185,-12.7824 8.4094,-14.1278 7.7367,-11.4369 4.3728,-9.7549 1.682,-7.7367 2.6909,-13.4552 1.0092,-17.15518 -2.0182,-14.4643 -3.0274,-12.1096 -3.7002,-13.7914 -1.04293,-16.00679 -6.90064,-45.88671 -4.45453,-16.34319 -3.44553,-12.24891 -3.66627,-12.4459 1.0091,-9.0822 1.0091,-9.0823 3.3639,-8.7458 4.3728,-6.7275 6.0548,-8.7459 9.0823,-8.4094 9.0822,-5.7184 9.0821,-4.0365 11.4368,-4.7093 10.4278,-2.3547 11.7732,-1.0091 14.4642,0.6728 15.8097,2.0182 21.8646,3.0274 24.2192,4.7093 14.8007,3.0274 14.1278,1.6819 14.8006,1.0091 11.7732,2.691 14.1279,5.3821 15.4734,5.7184 10.0913,3.3638 11.4368,2.3546 8.0731,0.6728"
     id="EA_DCC"
     inkscape:connector-curvature="0"
     inkscape:label="#path3086"
     sodipodi:nodetypes="ccccccccccccccccccccccccccccccccccccccccccccccc" />
  <path
     style="fill:none;stroke:#000000;stroke-width:0.5px;stroke-linecap:butt;stroke-linejoin:miter;stroke-opacity:1"
     d="m 597.57738,1324.792 -9.58175,4.0775 -4.19283,2.6501"
     id="EA_END3"
     inkscape:connector-curvature="0"
     inkscape:label="#path3106"
     sodipodi:nodetypes="ccc" />
  <path
     style="fill:none;stroke:#000000;stroke-width:0.5px;stroke-linecap:butt;stroke-linejoin:miter;stroke-opacity:1"
     d="m 470.87154,1297.3827 -8.49103,9.6057 -6.14621,7.3666 -2.22527,8.4571"
     id="EA_END2"
     inkscape:connector-curvature="0"
     inkscape:label="#path3108"
     sodipodi:nodetypes="cccc" />
  <path
     style="fill:none;stroke:#000000;stroke-width:0.5px;stroke-linecap:butt;stroke-linejoin:miter;stroke-opacity:1"
     d="m 447.86939,1348.2728 -33.42503,11.7394 -12.47688,13.1089 -5.7184,10.7641 -1.6819,11.4368 3.0274,13.7915 6.3912,6.7275 10.0913,7.4003 16.1461,2.3547 16.4825,-5.382 8.0731,-7.7367 8.0731,-15.8097 2.3546,-18.1645 -0.3364,-18.1643 -0.3364,-20.8555"
     id="EA_START"
     inkscape:connector-curvature="0"
     inkscape:label="#path3110"
     sodipodi:nodetypes="ccccccccccccccc" />
  <path
     style="fill:none;stroke:#000000;stroke-width:0.5px;stroke-linecap:butt;stroke-linejoin:miter;stroke-opacity:1"
     d="m 529.33282,1500.2799 -8.073,3.7001 -10.0913,4.0365 -5.382,5.0457"
     id="EA_START2"
     inkscape:connector-curvature="0"
     inkscape:label="#path3112" />
  <path
     style="fill:none;stroke:#000000;stroke-width:0.5px;stroke-linecap:butt;stroke-linejoin:miter;stroke-opacity:1"
     d="m 653.53068,1431.5168 -7.7367,8.4094 -6.0547,7.4003 -5.7185,10.7641 -1.6818,11.4369 3.0274,13.7914 6.3911,6.7276 10.0913,7.4003 16.1461,2.3546 16.4825,-5.382 8.0732,-7.7367 8.073,-15.8098 2.3546,-18.1643 -0.3363,-9.0822 -0.3364,-12.7824"
     id="EA_E3A"
     inkscape:connector-curvature="0"
     inkscape:label="#path3110"
     sodipodi:nodetypes="ccccccccccccccc" />
  <path
     style="fill:none;stroke:#000000;stroke-width:0.5px;stroke-linecap:butt;stroke-linejoin:miter;stroke-opacity:1"
     d="m 635.41362,1322.6645 -0.3365,-8.7458 -0.6727,-6.3912"
     id="E3A_EA"
     inkscape:connector-curvature="0"
     inkscape:label="#path3132" />
  <path
     style="fill:none;stroke:#000000;stroke-width:0.5px;stroke-linecap:butt;stroke-linejoin:miter;stroke-opacity:1"
     d="m 611.09096,792.59899 -10.7641,0.3363 -12.7824,0 -3.3637,-0.3363"
     id="DCC_START2"
     inkscape:connector-curvature="0"
     inkscape:label="#path3082" />
  <path
     style="fill:none;stroke:#000000;stroke-width:0.5px;stroke-linecap:butt;stroke-linejoin:miter;stroke-opacity:1"
     d="m 559.31128,1442.1964 -6.7276,3.3638 -5.382,3.3637"
     id="EA_END"
     inkscape:connector-curvature="0"
     inkscape:label="#path3106" />
  <path
     style="fill:none;stroke:#000000;stroke-width:1px;stroke-linecap:butt;stroke-linejoin:miter;stroke-opacity:1"
     d="m 495.66726,1158.3301 8.087,9.9899 4.2814,11.4171 3.8057,8.087 7.6114,12.3685 8.087,20.9312 20.4556,16.6499 19.9798,-6.66 9.9899,-8.5628 0.9514,-11.8927 -1.4271,-12.8442 -0.4757,-14.747 -5.2328,-15.6984 -6.66,-6.6599 -15.2227,-7.6114 -12.3685,-0.4757 -11.417,1.4271 -13.3199,-0.9514"
     id="DCC_END2"
     inkscape:connector-curvature="0"
     sodipodi:nodetypes="cccccccccccccccccc"
     inkscape:label="#path3064" />
</svg>
