<?xml version="1.0" encoding="UTF-8" standalone="no"?>
<svg
   xmlns:dc="http://purl.org/dc/elements/1.1/"
   xmlns:cc="http://creativecommons.org/ns#"
   xmlns:rdf="http://www.w3.org/1999/02/22-rdf-syntax-ns#"
   xmlns:svg="http://www.w3.org/2000/svg"
   xmlns="http://www.w3.org/2000/svg"
   xmlns:xlink="http://www.w3.org/1999/xlink"
   xmlns:sodipodi="http://sodipodi.sourceforge.net/DTD/sodipodi-0.dtd"
   xmlns:inkscape="http://www.inkscape.org/namespaces/inkscape"
   sodipodi:docname="path_def.svg"
   height="2784"
   width="4832"
   inkscape:version="0.48.3.1 r9886"
   id="svg2"
   version="1.1">
  <sodipodi:namedview
     pagecolor="#ffffff"
     bordercolor="#666666"
     borderopacity="1"
     objecttolerance="10"
     gridtolerance="10"
     guidetolerance="10"
     inkscape:pageopacity="0"
     inkscape:pageshadow="2"
     inkscape:window-width="1535"
     inkscape:window-height="876"
     id="namedview32"
     showgrid="false"
     inkscape:zoom="2.0948276"
     inkscape:cx="2570.798"
     inkscape:cy="1001.8138"
     inkscape:window-x="65"
     inkscape:window-y="24"
     inkscape:window-maximized="1"
     inkscape:current-layer="svg2"
     showguides="true"
     inkscape:guide-bbox="true"
     inkscape:snap-center="true" />
  <metadata
     id="metadata36">
    <rdf:RDF>
      <cc:Work
         rdf:about="">
        <dc:format>image/svg+xml</dc:format>
        <dc:type
           rdf:resource="http://purl.org/dc/dcmitype/StillImage" />
        <dc:title>Paths of the golfcar</dc:title>
      </cc:Work>
    </rdf:RDF>
  </metadata>
  <defs
     id="defs34">
    <marker
       inkscape:stockid="Arrow1Send"
       orient="auto"
       refY="0.0"
       refX="0.0"
       id="Arrow1Send"
       style="overflow:visible;">
      <path
         id="path6236"
         d="M 0.0,0.0 L 5.0,-5.0 L -12.5,0.0 L 5.0,5.0 L 0.0,0.0 z "
         style="fill-rule:evenodd;stroke:#000000;stroke-width:1.0pt;marker-start:none;"
         transform="scale(0.2) rotate(180) translate(6,0)" />
    </marker>
    <marker
       inkscape:stockid="Arrow1Sstart"
       orient="auto"
       refY="0.0"
       refX="0.0"
       id="Arrow1Sstart"
       style="overflow:visible">
      <path
         id="path6233"
         d="M 0.0,0.0 L 5.0,-5.0 L -12.5,0.0 L 5.0,5.0 L 0.0,0.0 z "
         style="fill-rule:evenodd;stroke:#000000;stroke-width:1.0pt;marker-start:none"
         transform="scale(0.2) translate(6,0)" />
    </marker>
    <inkscape:path-effect
       steps="5"
       equidistant_spacing="true"
       trajectory="M 0,0 0,0"
       is_visible="true"
       id="path-effect3660"
       effect="interpolate" />
    <inkscape:path-effect
       phi="5"
       teeth="10"
       is_visible="true"
       id="path-effect3658"
       effect="gears" />
    <marker
       style="overflow:visible"
       id="DotM"
       refX="0.0"
       refY="0.0"
       orient="auto"
       inkscape:stockid="DotM">
      <path
         transform="scale(0.4) translate(7.4, 1)"
         style="fill-rule:evenodd;stroke:#000000;stroke-width:1.0pt;marker-start:none;marker-end:none"
         d="M -2.5,-1.0 C -2.5,1.7600000 -4.7400000,4.0 -7.5,4.0 C -10.260000,4.0 -12.5,1.7600000 -12.5,-1.0 C -12.5,-3.7600000 -10.260000,-6.0 -7.5,-6.0 C -4.7400000,-6.0 -2.5,-3.7600000 -2.5,-1.0 z "
         id="path3704" />
    </marker>
    <marker
       style="overflow:visible"
       id="DotL"
       refX="0.0"
       refY="0.0"
       orient="auto"
       inkscape:stockid="DotL">
      <path
         transform="scale(0.8) translate(7.4, 1)"
         style="fill-rule:evenodd;stroke:#000000;stroke-width:1.0pt;marker-start:none;marker-end:none"
         d="M -2.5,-1.0 C -2.5,1.7600000 -4.7400000,4.0 -7.5,4.0 C -10.260000,4.0 -12.5,1.7600000 -12.5,-1.0 C -12.5,-3.7600000 -10.260000,-6.0 -7.5,-6.0 C -4.7400000,-6.0 -2.5,-3.7600000 -2.5,-1.0 z "
         id="path3701" />
    </marker>
    <marker
       style="overflow:visible;"
       id="Arrow1Lend"
       refX="0.0"
       refY="0.0"
       orient="auto"
       inkscape:stockid="Arrow1Lend">
      <path
         transform="scale(0.8) rotate(180) translate(12.5,0)"
         style="fill-rule:evenodd;stroke:#000000;stroke-width:1.0pt;marker-start:none;"
         d="M 0.0,0.0 L 5.0,-5.0 L -12.5,0.0 L 5.0,5.0 L 0.0,0.0 z "
         id="path3642" />
    </marker>
    <marker
       style="overflow:visible"
       id="Arrow1Lstart"
       refX="0.0"
       refY="0.0"
       orient="auto"
       inkscape:stockid="Arrow1Lstart">
      <path
         transform="scale(0.8) translate(12.5,0)"
         style="fill-rule:evenodd;stroke:#000000;stroke-width:1.0pt;marker-start:none"
         d="M 0.0,0.0 L 5.0,-5.0 L -12.5,0.0 L 5.0,5.0 L 0.0,0.0 z "
         id="path3639" />
    </marker>
    <inkscape:path-effect
       crossing_points_vector=""
       switcher_size="15"
       add_other_stroke_width="true"
       add_stroke_width="true"
       prop_to_stroke_width="true"
       interruption_width="3.6"
       is_visible="true"
       id="path-effect2862"
       effect="knot" />
    <inkscape:path-effect
       crossing_points_vector=""
       switcher_size="15"
       add_other_stroke_width="true"
       add_stroke_width="true"
       prop_to_stroke_width="true"
       interruption_width="3"
       is_visible="true"
       id="path-effect2860"
       effect="knot" />
    <inkscape:path-effect
       steps="5"
       equidistant_spacing="true"
       trajectory="M 0,0 0,0"
       is_visible="true"
       id="path-effect2858"
       effect="interpolate" />
    <inkscape:path-effect
       bendpath4="m 1068.3624,2136.3724 0,121.4273"
       bendpath3="m 1068.3624,2257.7997 48.7175,0"
       bendpath2="m 1117.0799,2136.3724 0,121.4273"
       bendpath1="m 1068.3624,2136.3724 48.7175,0"
       xx="true"
       yy="true"
       is_visible="true"
       id="path-effect2856"
       effect="envelope" />
    <inkscape:path-effect
       tgtlength_rdm="0.3;1"
       tgtlength="100"
       tgtscale="10"
       tgt_places_rdmness="1;1"
       nbtangents="5"
       tremble_frequency="1"
       tremble_size="5;1"
       parallel_offset="5;1"
       ends_tolerance="0.1;1"
       strokeoverlap_rdm="0.3;1"
       strokeoverlap="0.3"
       strokelength_rdm="0.3;1"
       strokelength="100"
       nbiter_approxstrokes="5"
       is_visible="true"
       id="path-effect2854"
       effect="sketch" />
    <inkscape:path-effect
       border_marks="both"
       mark_dir="left"
       offset="0"
       shift="0"
       major_mark_steps="5"
       minor_mark_length="7"
       mark_length="14"
       mark_distance="20"
       unit="px"
       is_visible="true"
       id="path-effect2852"
       effect="ruler" />
    <inkscape:path-effect
       border_marks="both"
       mark_dir="left"
       offset="0"
       shift="0"
       major_mark_steps="5"
       minor_mark_length="7"
       mark_length="14"
       mark_distance="20"
       unit="px"
       is_visible="true"
       id="path-effect2850"
       effect="ruler" />
    <inkscape:path-effect
       phi="5"
       teeth="10"
       is_visible="true"
       id="path-effect2848"
       effect="gears" />
    <inkscape:perspective
       id="perspective38"
       inkscape:persp3d-origin="1528.5 : 1178.6667 : 1"
       inkscape:vp_z="3057 : 1768 : 1"
       inkscape:vp_y="0 : 1000 : 0"
       inkscape:vp_x="0 : 1768 : 1"
       sodipodi:type="inkscape:persp3d" />
    <inkscape:perspective
       sodipodi:type="inkscape:persp3d"
       inkscape:vp_x="0 : 0.5 : 1"
       inkscape:vp_y="0 : 1000 : 0"
       inkscape:vp_z="1 : 0.5 : 1"
       inkscape:persp3d-origin="0.5 : 0.33333333 : 1"
       id="perspective2947" />
    <inkscape:perspective
       sodipodi:type="inkscape:persp3d"
       inkscape:vp_x="0 : 0.5 : 1"
       inkscape:vp_y="0 : 1000 : 0"
       inkscape:vp_z="1 : 0.5 : 1"
       inkscape:persp3d-origin="0.5 : 0.33333333 : 1"
       id="perspective2824" />
    <inkscape:perspective
       sodipodi:type="inkscape:persp3d"
       inkscape:vp_x="0 : 0.5 : 1"
       inkscape:vp_y="0 : 1000 : 0"
       inkscape:vp_z="1 : 0.5 : 1"
       inkscape:persp3d-origin="0.5 : 0.33333333 : 1"
       id="perspective2960" />
    <inkscape:perspective
       sodipodi:type="inkscape:persp3d"
       inkscape:vp_x="0 : 0.5 : 1"
       inkscape:vp_y="0 : 1000 : 0"
       inkscape:vp_z="1 : 0.5 : 1"
       inkscape:persp3d-origin="0.5 : 0.33333333 : 1"
       id="perspective3024" />
    <inkscape:perspective
       sodipodi:type="inkscape:persp3d"
       inkscape:vp_x="0 : 0.5 : 1"
       inkscape:vp_y="0 : 1000 : 0"
       inkscape:vp_z="1 : 0.5 : 1"
       inkscape:persp3d-origin="0.5 : 0.33333333 : 1"
       id="perspective3088" />
    <inkscape:perspective
       sodipodi:type="inkscape:persp3d"
       inkscape:vp_x="0 : 0.5 : 1"
       inkscape:vp_y="0 : 1000 : 0"
       inkscape:vp_z="1 : 0.5 : 1"
       inkscape:persp3d-origin="0.5 : 0.33333333 : 1"
       id="perspective3152" />
    <inkscape:perspective
       sodipodi:type="inkscape:persp3d"
       inkscape:vp_x="0 : 0.5 : 1"
       inkscape:vp_y="0 : 1000 : 0"
       inkscape:vp_z="1 : 0.5 : 1"
       inkscape:persp3d-origin="0.5 : 0.33333333 : 1"
       id="perspective3216" />
    <inkscape:perspective
       sodipodi:type="inkscape:persp3d"
       inkscape:vp_x="0 : 0.5 : 1"
       inkscape:vp_y="0 : 1000 : 0"
       inkscape:vp_z="1 : 0.5 : 1"
       inkscape:persp3d-origin="0.5 : 0.33333333 : 1"
       id="perspective3280" />
    <inkscape:perspective
       sodipodi:type="inkscape:persp3d"
       inkscape:vp_x="0 : 0.5 : 1"
       inkscape:vp_y="0 : 1000 : 0"
       inkscape:vp_z="1 : 0.5 : 1"
       inkscape:persp3d-origin="0.5 : 0.33333333 : 1"
       id="perspective3344" />
    <inkscape:perspective
       sodipodi:type="inkscape:persp3d"
       inkscape:vp_x="0 : 0.5 : 1"
       inkscape:vp_y="0 : 1000 : 0"
       inkscape:vp_z="1 : 0.5 : 1"
       inkscape:persp3d-origin="0.5 : 0.33333333 : 1"
       id="perspective3408" />
    <inkscape:perspective
       sodipodi:type="inkscape:persp3d"
       inkscape:vp_x="0 : 0.5 : 1"
       inkscape:vp_y="0 : 1000 : 0"
       inkscape:vp_z="1 : 0.5 : 1"
       inkscape:persp3d-origin="0.5 : 0.33333333 : 1"
       id="perspective3628" />
    <inkscape:perspective
       sodipodi:type="inkscape:persp3d"
       inkscape:vp_x="0 : 0.5 : 1"
       inkscape:vp_y="0 : 1000 : 0"
       inkscape:vp_z="1 : 0.5 : 1"
       inkscape:persp3d-origin="0.5 : 0.33333333 : 1"
       id="perspective2848" />
    <inkscape:perspective
       sodipodi:type="inkscape:persp3d"
       inkscape:vp_x="0 : 0.5 : 1"
       inkscape:vp_y="0 : 1000 : 0"
       inkscape:vp_z="1 : 0.5 : 1"
       inkscape:persp3d-origin="0.5 : 0.33333333 : 1"
       id="perspective3658" />
    <inkscape:perspective
       sodipodi:type="inkscape:persp3d"
       inkscape:vp_x="0 : 0.5 : 1"
       inkscape:vp_y="0 : 1000 : 0"
       inkscape:vp_z="1 : 0.5 : 1"
       inkscape:persp3d-origin="0.5 : 0.33333333 : 1"
       id="perspective3691" />
    <inkscape:perspective
       sodipodi:type="inkscape:persp3d"
       inkscape:vp_x="0 : 0.5 : 1"
       inkscape:vp_y="0 : 1000 : 0"
       inkscape:vp_z="1 : 0.5 : 1"
       inkscape:persp3d-origin="0.5 : 0.33333333 : 1"
       id="perspective3713" />
    <inkscape:perspective
       sodipodi:type="inkscape:persp3d"
       inkscape:vp_x="0 : 0.5 : 1"
       inkscape:vp_y="0 : 1000 : 0"
       inkscape:vp_z="1 : 0.5 : 1"
       inkscape:persp3d-origin="0.5 : 0.33333333 : 1"
       id="perspective3735" />
    <inkscape:perspective
       sodipodi:type="inkscape:persp3d"
       inkscape:vp_x="0 : 0.5 : 1"
       inkscape:vp_y="0 : 1000 : 0"
       inkscape:vp_z="1 : 0.5 : 1"
       inkscape:persp3d-origin="0.5 : 0.33333333 : 1"
       id="perspective3757" />
    <inkscape:perspective
       sodipodi:type="inkscape:persp3d"
       inkscape:vp_x="0 : 0.5 : 1"
       inkscape:vp_y="0 : 1000 : 0"
       inkscape:vp_z="1 : 0.5 : 1"
       inkscape:persp3d-origin="0.5 : 0.33333333 : 1"
       id="perspective2910" />
    <marker
       style="overflow:visible"
       id="DotM-1"
       refX="0"
       refY="0"
       orient="auto"
       inkscape:stockid="DotM">
      <path
         transform="matrix(0.4,0,0,0.4,2.96,0.4)"
         style="fill-rule:evenodd;stroke:#000000;stroke-width:1pt;marker-start:none;marker-end:none"
         d="m -2.5,-1 c 0,2.76 -2.24,5 -5,5 -2.76,0 -5,-2.24 -5,-5 0,-2.76 2.24,-5 5,-5 2.76,0 5,2.24 5,5 z"
         id="path3704-5" />
    </marker>
    <inkscape:perspective
       sodipodi:type="inkscape:persp3d"
       inkscape:vp_x="0 : 0.5 : 1"
       inkscape:vp_y="0 : 1000 : 0"
       inkscape:vp_z="1 : 0.5 : 1"
       inkscape:persp3d-origin="0.5 : 0.33333333 : 1"
       id="perspective3012" />
    <inkscape:perspective
       sodipodi:type="inkscape:persp3d"
       inkscape:vp_x="0 : 0.5 : 1"
       inkscape:vp_y="0 : 1000 : 0"
       inkscape:vp_z="1 : 0.5 : 1"
       inkscape:persp3d-origin="0.5 : 0.33333333 : 1"
       id="perspective2903" />
    <marker
       style="overflow:visible"
       id="DotM-5"
       refX="0"
       refY="0"
       orient="auto"
       inkscape:stockid="DotM">
      <path
         transform="matrix(0.4,0,0,0.4,2.96,0.4)"
         style="fill-rule:evenodd;stroke:#000000;stroke-width:1pt;marker-start:none;marker-end:none"
         d="m -2.5,-1 c 0,2.76 -2.24,5 -5,5 -2.76,0 -5,-2.24 -5,-5 0,-2.76 2.24,-5 5,-5 2.76,0 5,2.24 5,5 z"
         id="path3704-9" />
    </marker>
    <inkscape:perspective
       sodipodi:type="inkscape:persp3d"
       inkscape:vp_x="0 : 0.5 : 1"
       inkscape:vp_y="0 : 1000 : 0"
       inkscape:vp_z="1 : 0.5 : 1"
       inkscape:persp3d-origin="0.5 : 0.33333333 : 1"
       id="perspective2889" />
    <filter
       id="filter3830"
       inkscape:label="Colorize"
       inkscape:menu="Color"
       inkscape:menu-tooltip="Blend image or object with a flood color and set lightness and contrast"
       x="0"
       y="0"
       width="1"
       height="1"
       color-interpolation-filters="sRGB">
      <feColorMatrix
         id="feColorMatrix3832"
         values="1"
         in="SourceGraphic"
         type="saturate"
         result="result2" />
      <feFlood
         id="feFlood3834"
         flood-color="rgb(254,102,0)"
         flood-opacity="1"
         result="result1" />
      <feBlend
         id="feBlend3836"
         in2="result2"
         mode="multiply"
         in="result1"
         result="result3" />
      <feComposite
         id="feComposite3838"
         in2="SourceGraphic"
         operator="in"
         k2="1"
         result="result4" />
    </filter>
    <marker
       style="overflow:visible"
       id="DotM-7"
       refX="0"
       refY="0"
       orient="auto"
       inkscape:stockid="DotM">
      <path
         inkscape:connector-curvature="0"
         transform="matrix(0.4,0,0,0.4,2.96,0.4)"
         style="fill-rule:evenodd;stroke:#000000;stroke-width:1pt;marker-start:none;marker-end:none"
         d="m -2.5,-1 c 0,2.76 -2.24,5 -5,5 -2.76,0 -5,-2.24 -5,-5 0,-2.76 2.24,-5 5,-5 2.76,0 5,2.24 5,5 z"
         id="path3704-3" />
    </marker>
    <marker
       style="overflow:visible"
       id="DotM-70"
       refX="0"
       refY="0"
       orient="auto"
       inkscape:stockid="DotM">
      <path
         inkscape:connector-curvature="0"
         transform="matrix(0.4,0,0,0.4,2.96,0.4)"
         style="fill-rule:evenodd;stroke:#000000;stroke-width:1pt;marker-start:none;marker-end:none"
         d="m -2.5,-1 c 0,2.76 -2.24,5 -5,5 -2.76,0 -5,-2.24 -5,-5 0,-2.76 2.24,-5 5,-5 2.76,0 5,2.24 5,5 z"
         id="path3704-8" />
    </marker>
  </defs>
  <title
     id="title4">Paths of the golfcar</title>
  <desc
     id="desc6">The paths consist of all the possible route that can be taken by the golfcart to serve 4 stations: DCC, MCD, EA and E3A</desc>
  <image
     sodipodi:absref="/home/golfcar/smartfm/bookingUI/shared/SvgPath/utownRecreationCenter.png"
     xlink:href="utownRecreationCenter.png"
     inkscape:label="#image3014"
     y="0"
     x="0"
     id="map"
     height="2784"
     width="4832"
     style="fill:none;font-size:14px;stroke:#000000;stroke-opacity:1" />
  <path
     style="fill:none;stroke:#000000;stroke-width:0.5px;stroke-linecap:butt;stroke-linejoin:miter;stroke-opacity:1"
     d="m 350.17469,1697.4002 2.9458,7.3425 2.3307,7.3666 7.8183,9.5649 13.1666,9.6057 8.9667,6.6768 14.0533,-6.225 7.6552,-12.9187 1.4201,-8.7698 0.058,-9.344 -2.9529,-32.7593 -1.2878,-18.9636"
     id="DCC_EA"
     inkscape:connector-curvature="0"
     inkscape:label="#path3076"
     sodipodi:nodetypes="cccccccccccc" />
  <path
     style="fill:none;stroke:#000000;stroke-width:0.5px;stroke-linecap:butt;stroke-linejoin:miter;stroke-opacity:1"
     d="m 569.6328,1027.9119 -4.7093,1.3456 -4.3729,2.6909 -1.6819,3.7002 1.0091,3.3638 1.6819,4.7093 2.0183,3.7001"
     id="DCC_EA3"
     inkscape:connector-curvature="0"
     inkscape:label="#path3084" />
  <path
     style="fill:none;stroke:#ff0000;stroke-width:0.5px;stroke-linecap:butt;stroke-linejoin:miter;stroke-opacity:1"
     d="m 2881.7519,2075.9075 -3.4533,-4.0055 -3.3401,-3.8721 -3.224,-3.8625 -3.0645,-3.6805 -3.0069,-3.7518 -3.0425,-3.8398 -3.0818,-3.8324 -3.0397,-3.7509 -3.155,-3.9104 -3.2178,-3.8826 -3.0839,-3.8762 -3.0365,-3.8298 -2.8917,-3.5339 -1.3343,-1.4703 -1.3343,-1.4704 -1.3343,-1.4703 -1.3344,-1.4703 -1.3343,-1.4704 -1.3343,-1.4703 -1.3343,-1.4703 -1.3343,-1.4703 -1.3343,-1.4704 -1.3343,-1.4703 -1.3344,-1.4703 -1.3343,-1.4704 -1.3343,-1.4703 -1.3343,-1.4703 -1.3343,-1.4704 -1.3343,-1.4703"
     id="DCC_START"
     inkscape:connector-curvature="0"
     sodipodi:nodetypes="cccccccccccccccccccccccccccccc" />
  <path
     style="fill:none;stroke:#ff0000;stroke-width:0.5px;stroke-linecap:butt;stroke-linejoin:miter;stroke-opacity:1"
     d="m 1116.3731,546.48724 0.5727,5.03967 -0.5296,4.58151 -1.3984,4.27948 -1.9299,3.78489 -2.9205,3.42292 -3.364,3.03881 -4.0391,2.58656 -5.1827,2.45794 -4.8502,1.69119 -4.3541,1.61989 -4.6593,0.88938 -4.7305,0.83626 -4.5444,0.86944 -4.3225,0.43946 -4.7242,0.51755 -4.4409,0.39688 -4.7359,0.12283 -4.9045,-0.0319 -5.0145,-0.25183 -4.7336,0.19788 -4.887,0.28559 -5.0824,0.39392 -4.8489,0.81612 -4.7083,0.94653 -4.8845,0.90239 -4.8346,0.94858 -4.899,0.68154 -5.2932,0.41073 -5.40011,0.41184 -5.28468,0.42226 -5.50023,0.63993 -5.52849,0.72097 -5.48738,0.92073 -5.62693,1.04064 -5.60474,1.005 -5.34213,1.19502 -5.19862,1.26858 -5.16136,1.17943 -4.65152,1.37767 -4.7671,1.439 -4.7626,1.54411 -4.77296,1.66659 -4.67695,1.65983 -4.27279,1.69492 -4.42524,1.8814 -4.50202,1.86001 -4.34564,1.87546 -4.43839,2.07243 -4.15126,2.04221 -4.23351,2.14593 -4.17451,2.24833 -3.78061,2.11781 -3.80788,2.19724 -3.8607,2.42708 -3.84263,2.41137 -3.86125,2.63152 -3.81291,2.73144 -3.54636,2.57663 -3.46707,2.67126 -3.62664,2.98161 -3.20248,2.61457 -3.0644,2.65356 -3.01829,2.81021 -3.14948,2.97068 -2.97631,2.98999 -3.00096,2.93062 -2.82864,3.18536 -3.00336,3.3941 -2.76392,3.34309 -2.62758,3.32622 -2.71492,3.67998 -2.5283,3.64581 -2.3831,3.65838 -2.29972,3.69276 -2.29502,3.89941 -2.13249,3.92201 -1.98921,4.0498 -1.97912,4.13362 -1.76997,4.04761 -1.5953,4.1395 -1.39575,3.99076 -1.27547,4.00331 -1.16337,4.11202 -1.09442,4.46259 -0.92055,4.19554 -1.00556,4.66058 -0.86008,4.98984 -0.8288,5.21054 -0.74133,5.03893 -0.61135,5.0764 -0.53251,4.92754 -0.52448,5.11931 -0.47583,5.08549 -0.42664,5.09275 -0.52979,5.28602 -0.45647,5.09847 -0.47141,5.31871 -0.46369,4.97645 -0.48624,5.14246 -0.49965,5.07922 -0.73116,5.2744 -0.80038,5.14745 -0.95482,5.25504 -0.97024,5.2472 -0.89758,4.52394 -1.09192,5.05027 -1.14586,4.5306 -1.17828,4.33217 -1.57767,4.80771 -1.47932,4.0165 -1.92181,4.24336 -1.92937,3.7455 -2.21796,3.71636 -2.32613,2.74496 -2.07945,2.49537"
     id="MCD_DCC"
     inkscape:label="#path3067" />
  <path
     id="DCC_MCD"
     style="fill:none;stroke:#ff0000;stroke-width:0.5px;stroke-linecap:butt;stroke-linejoin:miter;stroke-opacity:1"
     d="m 2845.5335,2028.888 -1.6672,-1.7335 -1.6672,-1.7335 -1.6673,-1.7335 -1.6672,-1.7335 -1.6672,-1.7335 -1.6672,-1.7335 -1.6673,-1.7335 -1.6672,-1.7335 -0.7602,-0.9486 -0.7603,-0.9486 -0.7602,-0.9486 -0.7603,-0.9486 -0.7396,-0.9354 -0.7397,-0.9353 -0.7396,-0.9354 -0.7396,-0.9354 -0.7055,-0.8611 -0.7054,-0.8611 -0.7055,-0.8611 -0.7055,-0.8611 -2.8387,-3.489 -2.9698,-3.7529 -3.0276,-3.6573 -3.1278,-3.8407 -3.2182,-3.9961 -3.3128,-3.9286 -3.3489,-3.9502 -3.1842,-3.5384 -3.5136,-3.8467 -2.8653,-3.0914 -3.2751,-3.2963 -3.3372,-3.182 -2.9888,-2.7 -3.0626,-2.8501 -3.512,-3.2317 -3.0896,-2.7639 -3.1412,-2.7602 -3.2181,-2.7023 -3.2947,-2.7336 -3.3701,-2.7587 -3.3124,-2.7362 -3.2224,-2.5276 -3.307,-2.5359 -3.3232,-2.5641 -3.6712,-2.7753 -3.6027,-2.6354 -3.4644,-2.465 -3.7573,-2.6169 -3.6588,-2.522 -3.6457,-2.4217 -3.2907,-2.1218 -3.3425,-2.1756 -3.556,-2.2174 -3.8594,-2.426 -3.4863,-2.1228 -3.5764,-2.1091 -3.6251,-2.1032 -3.6597,-2.0842 -3.828,-2.0745 -3.8297,-1.966 -3.8865,-2.0374 -6.1501,-4.9015 -5.9114,-4.6228 -5.6947,-4.3753 -5.5003,-4.1586 -5.328,-3.9732 -5.1781,-3.8185 -5.0502,-3.6951 -4.9446,-3.6026 -4.8612,-3.5412 -4.7999,-3.5106 -4.761,-3.5113 -4.7441,-3.5429 -4.7495,-3.6055 -4.777,-3.6991 -4.8268,-3.8238 -4.8988,-3.9795 -6.1735,-4.5918 -6.1694,-3.9794 -6.1688,-3.2507 -6.1862,-2.8845 -6.1998,-2.9369 -6.2156,-2.9705 -6.2338,-2.9856 -6.2542,-2.9823 -6.2769,-2.9602 -6.3018,-2.9196 -6.3289,-2.8606 -6.3584,-2.7828 -6.3901,-2.6865 -6.424,-2.5717 -6.4603,-2.4382 -6.4987,-2.2863 -6.5394,-2.1157 -6.5825,-1.9266 -6.6276,-1.7189 -6.7644,-1.7628 -6.9713,-2.043 -7.1488,-2.2823 -7.2968,-2.4804 -7.4154,-2.6376 -7.5046,-2.7536 -7.5642,-2.8287 -7.5945,-2.8626 -7.5953,-2.8555 -7.5665,-2.8074 -7.5085,-2.7181 -7.4209,-2.5878 -7.3038,-2.4166 -7.1574,-2.2041 -6.9814,-1.9506 -6.776,-1.6562 -6.6529,-0.5942 -6.6332,1.0522 -6.6165,2.4657 -6.6023,3.6461 -6.5909,4.5934 -6.5821,5.3077 -6.5763,5.789 -6.5729,6.0371 -6.5724,6.0522 -6.5745,5.8343 -6.5794,5.3833 -6.5869,4.6993 -6.5973,3.7822 -6.6103,2.632 -6.626,1.2488 -6.6444,-0.3674 -5.3192,-0.9348 -5.1417,-0.9336 -4.984,-0.8911 -5.0984,-0.9423 -5.1694,-0.9358 -5.1181,-0.9808 -4.964,-0.9936 -4.9834,-1.0324 -5.0018,-0.8696 -5.0046,-0.9669 -4.7545,-0.8195 -4.7188,-0.9678 -4.9325,-0.9506 -4.7942,-1.0085 -4.6664,-1.0797 -4.7035,-0.9222 -4.7819,-1.0893 -4.6916,-1.0752 -4.5853,-0.9414 -4.3881,-0.9727 -4.3203,-0.906 -4.5496,-0.962 -4.3761,-1.0281 -4.3775,-1.0654 -4.2494,-1.0167 -4.5128,-1.0783 -4.367,-1.1751 -4.7305,-1.1694 -4.4358,-1.3424 -4.4924,-1.139 -4.4504,-1.156 -4.3692,-1.2484 -4.5761,-1.2369 -4.6519,-1.2887 -4.6867,-1.3844 -4.4213,-1.2601 -4.398,-1.2751 -4.3678,-1.3209 -4.1275,-1.2413 -4.2387,-1.3858 -4.2189,-0.367 -6.0931,-1.2095 -4.0467,-0.6799 -4.2067,-0.4623 -4.2312,-1.2703 -4.1348,-1.1866 -4.5836,-1.3335 -4.3817,-1.228 -4.4709,-1.2408 -4.2065,-1.1653 -4.51,-1.2642 -4.3484,-1.2815 -4.3457,-1.3098 -2.6161,-0.3685 -5.6599,-0.8601 -4.3364,-1.7187 -3.6816,-1.4978 -4.3684,-1.2802 -4.789,-1.2968 -4.4699,-1.1557 -3.9939,-1.1 -4.0333,-0.9099 -4.2335,-1.0844 -4.2048,-1.0764 -4.326,-1.0492 -4.5804,-1.2164 -4.5616,-1.1673 -4.5234,-1.1555 -4.4652,-1.2232 -4.1276,-1.1886 -4.0085,-0.9882 -4.2907,-1.1563 -4.5194,-1.1621 -4.3283,-1.1548 -4.494,-1.1797 -4.0349,-1.0565 -4.2208,-1.1306 -3.9878,-1.0039 -4.2488,-1.1024 -4.3137,-1.0819 -4.3643,-1.0517 -4.336,-0.9693 -4.3226,-0.9686 -4.2845,-0.8767 -4.2891,-1.8906 -3.9259,-1.2207 -3.2444,-1.2252 -4.7078,-0.8591 -4.0087,-0.8469 -4.0614,-0.69 -6.365,-0.3374 -5.2376,-2.108 -5.5986,-0.3392 -4.4148,-1.1435 -4.5994,0.068 -5.6543,2.2882 -5.1953,0.9105 -4.8771,2.6126 -5.4878,0.4721 -5.3707,1.2872 -5.3807,2.5236 -5.4018,2.036 -4.3597,2.151 -4.5685,3.3437 -4.0477,1.9162 -4.3416,1.9519 -4.8152,2.3019 -4.4519,2.2419 -4.3477,2.2308 -4.1433,2.1973 -4.1363,2.1697 -4.4888,2.3857 -4.5933,2.3025 -4.7014,2.36 -4.7097,2.2781 -4.637,2.2775 -4.619,2.1285 -4.7188,2.2174 -4.8099,2.1434 -4.8627,2.1238 -5.055,2.1321 -5.2763,2.1505 -4.7008,1.8678 -5.0616,1.8383 -5.2195,1.7796 -5.7164,1.8387 -5.6471,1.6871 -5.5562,1.542 -6.0272,1.5441 -5.8772,1.3962 -5.5799,1.1889 -5.6752,1.1453 -6.0102,1.05 -5.2233,0.8705 -5.4833,0.8339 -5.2087,0.7345 -5.7155,0.6741 -5.5451,0.5627 -5.4809,0.4518 -5.4879,0.3811 -5.4086,0.2972 -5.6312,0.1923 -5.3343,0.1564 -5.7578,0.071 -5.1668,0.01 -4.9537,-0.066 -5.216,-0.1587 -4.8921,-0.2147 -4.7069,-0.2685 -4.8608,-0.305 -4.8823,-0.3422 -4.6518,-0.4652 -4.6766,-0.4697 -4.6809,-0.5723 -4.8013,-0.6078 -4.6904,-0.6445 -4.7177,-0.7174 -4.5841,-0.7771 -4.758,-0.8232 -4.557,-0.8603 -4.6159,-0.8788 -4.4497,-0.8796 -4.4367,-0.9618 -4.3943,-1.0151 -4.3393,-1.0073 -4.2595,-1.0731 -4.2704,-1.1538 -4.0969,-1.1012 -4.1416,-1.163 -4.1904,-1.1661 -4.0845,-1.2015 -4.2173,-1.3118 -4.0197,-1.2612 -4.2409,-1.3959 -4.0835,-1.3415 -4.282,-1.4503 -4.2697,-1.4377 -4.2598,-1.4894 -4.3288,-1.5413 -4.0746,-1.4457 -4.1614,-1.4496 -3.9701,-1.4645 -4.1221,-1.4526 -4.703,-1.6661 -4.2995,-1.5318 -4.0215,-1.4681 -4.5591,-1.6354 -3.9641,-1.5083 -4.1596,-1.5191 -4.3777,-1.624 -4.6195,-1.7165 -4.0956,-1.4967 -4.3151,-1.6168 -4.1086,-1.5288 -3.8754,-1.4618 -3.8805,-1.469 -3.8906,-1.5071 -4.0146,-1.5292 -4.0218,-1.5118 -4.0531,-1.5315 -3.8384,-1.4649 -3.8098,-1.4369 -3.8896,-1.4523 -4.0505,-1.4735 -3.9491,-1.4501 -4.1843,-1.5278 -3.9282,-1.3746 -3.9494,-1.3992 -3.9368,-1.3945 -4.189,-1.5065 -4.1721,-1.4811 -4.0347,-1.4375 -4.1322,-1.4105 -4.0074,-1.3239 -4.2012,-1.4535 -3.9213,-1.333 -3.9633,-1.369 -4.2381,-1.4035 -4.064,-1.3678 -4.3063,-1.4961 -4.2495,-1.4032 -4.3826,-1.4116 -4.2099,-1.3708 -4.168,-1.335 -4.2437,-1.3846 -4.159,-1.3402 -4.2558,-1.3223 -4.2346,-1.3238 -4.1669,-1.2635 -4.4612,-1.4007 -4.4861,-1.4217 -4.4373,-1.3306 -4.2818,-1.2964 -4.5285,-1.3969 -4.6201,-1.3895 -4.2403,-1.2515 -4.2941,-1.2766 -4.5667,-1.3043 -4.5301,-1.3165 -4.4991,-1.2339 -4.4312,-1.2656 -4.5013,-1.3064 -4.3927,-1.2952 -4.4307,-1.2303 -4.4663,-1.2498 -4.3707,-1.2261 -4.4325,-1.2207 -4.4073,-1.2616 -4.1938,-1.1711 -4.1585,-1.13 -4.2099,-1.1095 -4.3869,-1.2733 -4.4499,-1.1684 -4.5433,-1.1723 -4.4545,-1.1662 -4.3296,-1.2743 -4.3755,-1.2169 -4.7161,-1.2496 -4.5626,-1.176 -4.6292,-1.2063 -4.5223,-1.1859 -4.5444,-1.2356 -4.4841,-1.2146 -4.4263,-1.1951 -4.5228,-1.2719 -4.5681,-1.2665 -4.5437,-1.342 -4.5209,-1.2685 -4.595,-1.381 -4.5757,-1.3659 -4.2446,-1.2304 -4.4052,-1.3511 -4.7688,-1.3541 -4.3463,-1.3507 -4.7696,-1.4388 -4.5855,-1.342 -4.7362,-1.4891 -4.40172,-1.3374 -4.72529,-1.5103 -4.68854,-1.4551 -4.10861,-1.2624 -4.29781,-1.3852 -4.20741,-1.3738 -4.04209,-1.3071 -4.67707,-1.5605 -4.37377,-1.4639 -4.35081,-1.5134 -4.05975,-1.4274 -4.56405,-1.6163 -4.11526,-1.4494 -4.32392,-1.5502 -4.30361,-1.5482 -4.19833,-1.4307 -3.93398,-1.3978 -4.12881,-1.4527 -3.97258,-1.3623 -4.16782,-1.3918 -4.00569,-1.283 -4.06147,-1.342 -4.05273,-1.2936 -4.74247,-1.4297 -4.65377,-1.3812 -2.76106,-2.107 -5.06936,-1.9904 -5.26082,-2.0502 -3.05991,-1.6307 -2.20573,-1.0155 -2.34392,-1.149 -1.88135,-1.6421 -2.33937,-0.8288 -3.03649,-1.5115 -2.36192,-1.1813 -7.23879,-5.2926 -4.63284,-3.866 -5.32498,-4.3116 -7.16328,-4.4788 -2.27518,-2.1497 -3.95759,-4.7376 -4.1718,-2.1664 -3.89866,-1.9244 -4.07273,-2.1202 -3.96397,-2.2359 -3.99501,-2.3391 -3.69711,-2.3255 -3.88257,-2.5331 -3.56347,-2.5798 -3.16028,-2.4489 -3.23693,-2.6236 -3.28973,-2.6786 -3.26882,-2.72 -3.30447,-2.8678 -3.11909,-2.7706 -3.22962,-2.9002 -2.98319,-2.6733 -3.14252,-2.7556 -3.41859,-2.9608 -3.55949,-1.8379 -6.46723,-2.7607 -7.24718,-1.7155 -4.15319,-0.6043 -5.3829,-0.3471 -2.84536,-0.9426 -3.60202,0 -2.63822,-1.0782 -4.35512,-0.5687 -3.1707,-0.8623 -4.80089,-1.5138 -3.87701,-1.5614 -4.81566,-0.9531 -5.62445,0.1987 -3.86414,-0.8158 -4.40423,-1.1084 -4.4521,-0.3688 -4.27467,-1.036 -4.9502,-1.9501 -3.94775,-1.0416 -5.41994,-2.3431 -4.39081,-1.071 -4.40347,-1.1789 -4.50493,-1.4171 -4.38006,-1.3804 -4.46168,-1.5726 -4.31618,-1.6887 -4.39348,-1.8181 -3.78738,-1.7048 -3.99364,-1.9315 -4.00868,-2.0051 -3.75807,-1.9767 -4.28655,-2.376 -3.87857,-2.2335 -3.46446,-2.0113 -3.81697,-2.3888 -3.40573,-2.2224 -3.5507,-2.4887 -3.41216,-2.4168 -3.32318,-2.4468 -3.44465,-2.5486 -3.34933,-2.5829 -3.23784,-2.4928 -3.26908,-2.5568 -3.26939,-2.6239 -3.24425,-2.6408 -3.30238,-2.6884 -3.14311,-2.6106 -3.03879,-2.5758 -3.00922,-2.634 -3.05413,-2.7378 -3.18535,-2.893 -3.05648,-2.7899 -2.99201,-2.8494 -3.32093,-3.3272 -2.81406,-2.8629 -2.81651,-2.9449 -3.0652,-3.3141 -2.75751,-3.0736 -3.14147,-3.7198 -2.97554,-3.6448 -3.0251,-3.7822 -2.83913,-3.7131 -2.81521,-3.8732 -2.82803,-3.9996 -2.61047,-3.931 -2.63144,-4.2073 -2.55417,-4.2386 -2.40276,-4.227 -2.37645,-4.3304 -2.30532,-4.465 -2.11008,-4.2901 -1.90949,-4.229 -1.91368,-4.494 -1.88282,-4.859 -1.69202,-4.9147 -1.68363,-5.1396 -1.59379,-4.9696 -1.60219,-5.2542 -1.40953,-4.9352 -1.46733,-5.4082 -1.43597,-5.3235 -1.37388,-5.1691 -1.25638,-4.9695 -1.29389,-5.0964 -1.28338,-5.1416 -1.225,-4.9657 -1.24297,-5.1052 -1.19824,-5.2758 -1.13545,-5.0801 -1.08422,-4.8944 -1.14457,-5.0503 -1.21263,-5.27 -1.24846,-5.3678 -1.24816,-5.1008 -1.23999,-5.2569 -1.19213,-5.1882 -1.26535,-5.3412 -1.25378,-5.2944 -1.24131,-5.3072 -1.28089,-5.2678 -1.28919,-5.2002 -1.27789,-5.286 -1.33549,-5.2704 -1.26931,-5.2035 -1.25733,-5.133 -1.4129,-5.3263 -1.52018,-5.6472 -1.54845,-5.7477 -1.4392,-5.1374 -1.44849,-5.2947 -1.40151,-5.0538 -1.46092,-5.0672 -1.44999,-5.1332 -1.47724,-5.2854 -1.41516,-5.5963 -1.36548,-5.7853 -1.0684,-5.5353 -0.81369,-5.3416 -0.53511,-5.2688 -0.25949,-5.1731 -0.0848,-4.8797 0.14642,-4.9333 0.45579,-4.7897 0.72294,-4.8715 1.0105,-4.6978 1.15347,-4.1066 1.4835,-4.2525 1.68487,-3.8589 2.02264,-3.9141 2.21482,-3.3724 2.70587,-3.5004 3.1415,-3.5051 3.40892,-3.2953 3.554,-2.9446 4.13864,-3.1133 4.2851,-3.142 4.60362,-3.18204 4.84019,-2.94176 5.87749,-3.00839 4.62976,-1.97853 5.72544,-2.44419 6.97464,-3.46387 5.49493,-1.47195 5.32045,-1.40412 5.35203,-1.34505 5.22836,-1.31232 5.55006,-1.39958 5.33335,-1.26591 5.33332,-1.2491 4.99777,-1.14149 5.12107,-1.21033 5.44978,-1.26396 5.5269,-1.36462 5.31202,-1.3081 5.21068,-1.37752 5.15423,-1.35964 5.08882,-1.34571 5.12312,-1.36077 5.0253,-1.30656 5.08762,-1.40442 5.00319,-1.35963 5.10667,-1.42552 5.16013,-1.4449 5.2347,-1.46258 5.43128,-1.64773 5.23245,-1.59845 5.49085,-1.75283 5.35523,-1.69819 5.60198,-1.76308 5.52101,-1.85766 5.38719,-1.89679 5.10277,-1.9001 5.0712,-1.94656 5.4499,-2.21655 5.3185,-2.18392 5.73455,-2.53099 5.53109,-2.54883 5.1878,-2.46773 5.08826,-2.51986 4.91113,-2.53471 4.61482,-2.46884 4.68925,-2.64857 4.6722,-2.7713 4.4801,-2.85496 4.35284,-2.93373 4.04799,-2.86993 4.09811,-2.98978 3.79403,-2.95144 3.38578,-2.70789 3.35448,-2.81052 3.34969,-2.96811 3.35222,-3.09737 2.66651,-2.79271 2.72486,-3.03497 2.66746,-3.39222 2.32765,-3.23994 1.72395,-1.48645 1.56959,-1.47989 2.08496,-3.23664 2.32255,-3.0418 1.99324,-3.44499 1.25095,-3.84364 1.27316,-4.05412 1.00696,-4.14557 0.78268,-4.28596 0.55534,-4.47439 0.44695,-4.36367 0.31794,-4.46124 0.22053,-4.42953 0.0899,-4.34986 0.18264,-4.32791 0.24648,-4.50414 0.16035,-4.32027 0.23434,-4.41723 0.30394,-4.38711 0.36023,-4.47268 0.37384,-4.50176 0.35373,-4.53608 0.40865,-4.46938 0.45654,-4.56643 0.5611,-4.4708 0.63128,-4.8007 0.63948,-4.53296 0.73998,-4.7321 0.70343,-4.69985 0.70229,-4.46801 0.80026,-4.65015 0.79889,-4.03514 0.89466,-4.74638 1.02488,-4.22397 1.01827,-4.25767 1.19506,-4.56931 1.18511,-4.42841 1.08808,-3.71415 1.21082,-3.88562 1.22968,-3.92033 1.30299,-3.99432 1.49819,-4.28727 1.55215,-3.91672 1.53922,-3.76918 1.61661,-3.54376 1.73109,-3.47247 1.89708,-3.67189 2.07067,-3.55054 2.23958,-3.58788 2.40797,-3.68426 2.49927,-3.63469 2.63058,-3.50976 2.87961,-3.55012 2.86968,-3.32044 3.04475,-3.27791 3.1519,-3.17406 3.26502,-3.26571 3.31015,-3.04713 3.36178,-2.92617 3.78781,-3.01676 3.93729,-2.94598 4.10245,-2.90111 4.03035,-2.7052 4.11904,-2.47354 4.47136,-2.68751 4.97511,-2.57998 5.00789,-2.35311 5.16742,-2.20741 5.63069,-2.11961 5.61718,-1.95029 5.84575,-1.83948 5.82402,-1.58342 5.41876,-1.39796 5.43182,-1.23754 5.71813,-1.34928 5.47741,-1.34272 5.24233,-1.03891 5.29338,-1.19517 5.25608,-1.18094 5.15078,-1.27134 5.17706,-1.14651 5.21246,-1.08523 5.31693,-1.09331 5.26793,-1.08875 5.1798,-1.08032 5.13148,-1.17701 5.26667,-1.19814 5.17576,-1.47852 5.36384,-1.67237 5.44052,-2.11474 5.3266,-2.11937 4.9455,-2.25673 4.7744,-2.45208 4.6284,-2.65085 4.3728,-2.73951 4.1197,-2.72361 3.8956,-2.81347 3.55,-2.69864 3.3179,-2.73622 3.6027,-3.15815 3.1769,-2.93384 3.0545,-2.88532 3.3896,-3.12551 3.4134,-2.99964 3.5753,-2.98866 3.5451,-2.79759 3.7756,-2.55028 4.0465,-2.48539 4.4695,-2.24766 5.1319,-1.99839 5.6479,-1.61256 5.0221,-0.57996 4.9085,0.27956 4.4682,1.10113 4.0056,1.98325 3.4432,2.67937 2.7607,3.47781"
     inkscape:connector-curvature="0"
     sodipodi:nodetypes="ccccccccccccccccccccccccccccccccccccccccccccccccccccccccccccccccccccccccccccccccccccccccccccccccccccccccccccccccccccccccccccccccccccccccccccccccccccccccccccccccccccccccccccccccccccccccccccccccccccccccccccccccccccccccccccccccccccccccccccccccccccccccccccccccccccccccccccccccccccccccccccccccccccccccccccccccccccccccccccccccccccccccccccccccccccccccccccccccccccccccccccccccccccccccccccccccccccccccccccccccccccccccccccccccccccccccccccccccccccccccccccccccccccccccccccccccccccccccccccccccccccccccccccccccccccccccccccccccccccccccccccccccccccccccccccccccccccccccccccccccccccccccccccccccccccccccccccccccccccccccccccccccccccccccccccccccccccccccccccccccccccccccccccccccccccccccccccccccccccccccccccccccccccccccccccccccccccccccccccccccccccccccccccccccccccccccccccccccccccccccccccccccccccccccccc"
     inkscape:label="#MCD_DCC" />
  <path
     style="fill:none;stroke:#16d0e1;stroke-width:0.5px;stroke-linecap:butt;stroke-linejoin:miter;stroke-opacity:1"
     d="m 995.19916,799.01088 9.28974,0.12567 9.3266,0.50887"
     id="DCC__MCD___"
     inkscape:label="#path3070"
     inkscape:connector-curvature="0"
     sodipodi:nodetypes="ccc" />
  <path
     id="path3085"
     style="fill:none;stroke:#0002ff;stroke-width:0.5px;stroke-linecap:butt;stroke-linejoin:miter;stroke-opacity:1"
     d="m 963.13382,800.15481 10.42752,0.0598 6.98057,0.0401 7.56728,0.0434 6.64373,0.0381 8.75208,0.0502 7.5602,0.21235 8.8446,0.24843 4.0558,1.06838 4.0731,1.59848 3.9504,2.12742 3.995,2.84066 3.9852,3.65537 3.4567,4.34105 1.7641,11.08779 0.2776,8.92052 0.3548,7.66965 0.3458,6.0366 -0.1079,5.49369 0.5846,5.47407 0,7.70393 0.2592,5.26015 0.4867,6.72781 0.213,7.12631 0.3028,5.96879 0.3319,6.66464 0.5326,16.18602 0.9613,23.10493 0.4554,8.29882 0.1564,5.12239 0.2935,11.26601 0.4642,9.1889 0.3439,10.34679 0.5337,11.48493 0.6961,16.04886 0.558,11.5881 0.587,11.9121 0.5698,12.147 0.342,13.457 0.5561,11.7385 1.0634,22.3629 0.2741,6.6055 0.755,5.1179 3.236,28.4029 3.7591,8.8629 4.3702,9.3262 4.0339,8.6193 3.4871,7.2818 3.8535,7.6395 1.863,3.974 1.8376,3.9959 1.5188,4.0527 1.4544,4.181 1.499,4.2159 1.4734,4.2273 1.4646,4.2395 1.3536,4.0982 1.2452,4.2463 1.1503,4.1558 1.1935,4.116 1.114,4.1697 1.1374,4.2723 1.0692,4.1035 0.9825,4.0498 0.9198,4.0932 1.0029,4.29 0.9158,4.0737 0.8224,4.1599 0.8238,4.1781 0.7199,4.2375 0.6926,4.0598 0.6498,4.3069 0.6196,4.2273 0.5471,4.0758 0.5577,4.1766 0.5545,4.1735 0.4934,4.2302 0.4304,4.1412 0.4017,4.1345 0.3375,4.1254 0.3752,4.2094 0.3555,4.1873 0.2831,3.9599 0.2326,4.1735 0.1738,4.0857 0.1661,4.1513 0.1186,4.1464 0.1626,4.2562 0.016,4.0844 0.023,3.9127 -0.018,4.1101 0.016,4.0894 -0.1335,4.0708 -0.04,4.0994 -0.031,4.1007 -0.037,4.1642 -0.012,4.0728 -0.059,4.1734 -9e-4,4.1678 -0.072,4.0913 0.031,4.2101 -0.063,4.1913 -0.1456,4.0995 -0.089,4.0826 -0.071,4.2087 -0.159,4.0762 -0.1255,4.1935 -0.2151,4.1584 -0.2096,4.0022 -0.208,4.2573 -0.2383,4.1023 -0.2293,4.2182 -0.2408,4.197 -0.2564,4.1699 -0.2878,4.015 -0.374,4.2916 -0.3536,4.1471 -0.3526,4.1385 -0.3648,4.3217 -0.3714,4.0698 -0.3905,4.192 -0.4256,4.179 -0.4043,4.1593 -0.3875,4.0424 -0.3969,4.2268 -0.3845,4.1085 -0.4315,4.0926 -0.4548,4.1307 -0.5686,4.1126 13.0437,21.3135 15.2409,23.0405 17.6565,25.8831 -0.5702,23.0257 -0.069,23.2974 -0.6955,21.5151 -0.7714,21.6008 9.7494,18.9253 7.7355,12.7658 3.7714,6.2223 3.2244,6.8806 0.3879,7.9525 -0.093,8.0078 0.185,7.4631 -0.019,8.2349 -0.6692,10.383 -6.6982,12.2788 -8.4749,8.9621 -8.2802,6.6035 -12.7646,2.1782 -10.8884,-0.1104 -13.6821,-0.1981 -12.9637,0.078 -9.1753,-3.5916 -3.8084,-4.1743 -9.0784,-10.7516 -5.3676,-10.3781 -2.4302,-7.7807 -3.2456,-10.4876"
     inkscape:connector-curvature="0"
     sodipodi:nodetypes="cccccccccccccccccccccccccccccccccccccccccccccccccccccccccccccccccccccccccccccccccccccccccccccccccccccccccccccccccccccccccccccccccccccccccccccccccccccccccccccc" />
  <path
     style="fill:none;stroke:#00ff1a;stroke-width:0.5px;stroke-linecap:butt;stroke-linejoin:miter;stroke-opacity:1"
     d="m 1065.5358,1735.3286 -3.1252,-23.4717 -1.5058,-12.865 0.083,-10.3339 1.2711,-7.7321 1.591,-5.5603 2.9902,-8.3572 3.5197,-9.8369 4.644,-15.1856 4.5907,-13.2805"
     id="DCC_END"
     inkscape:label="#DCC_START"
     inkscape:connector-curvature="0"
     sodipodi:nodetypes="cccccccccc" />
  <path
     style="fill:none;stroke:#000000;stroke-width:0.5px;stroke-linecap:butt;stroke-linejoin:miter;stroke-opacity:1"
     d="m 386.82551,1195.4807 -0.3363,-8.073 6.0548,-68.2847 3.0274,-30.274 3.0273,-24.5555 3.0274,-19.5099 5.382,-41.0381 5.3821,-19.50985 5.7185,-12.7824 8.4094,-14.1278 7.7367,-11.4369 4.3728,-9.7549 1.682,-7.7367 2.6909,-13.4552 1.0092,-17.15518 -2.0182,-14.4643 -3.0274,-12.1096 -3.7002,-13.7914 -1.04293,-16.00679 -6.90064,-45.88671 -4.45453,-16.34319 -3.44553,-12.24891 -3.66627,-12.4459 1.0091,-9.0822 1.0091,-9.0823 3.3639,-8.7458 4.3728,-6.7275 6.0548,-8.7459 9.0823,-8.4094 9.0822,-5.7184 9.0821,-4.0365 11.4368,-4.7093 10.4278,-2.3547 11.7732,-1.0091 14.4642,0.6728 15.8097,2.0182 21.8646,3.0274 24.2192,4.7093 14.8007,3.0274 14.1278,1.6819 14.8006,1.0091 11.7732,2.691 14.1279,5.3821 15.4734,5.7184 10.0913,3.3638 11.4368,2.3546 8.0731,0.6728"
     id="EA_DCC"
     inkscape:connector-curvature="0"
     inkscape:label="#path3086"
     sodipodi:nodetypes="ccccccccccccccccccccccccccccccccccccccccccccccc" />
  <path
     style="fill:none;stroke:#000000;stroke-width:0.5px;stroke-linecap:butt;stroke-linejoin:miter;stroke-opacity:1"
     d="m 597.57738,1324.792 -9.58175,4.0775 -4.19283,2.6501"
     id="EA_END3"
     inkscape:connector-curvature="0"
     inkscape:label="#path3106"
     sodipodi:nodetypes="ccc" />
  <path
     style="fill:none;stroke:#000000;stroke-width:0.5px;stroke-linecap:butt;stroke-linejoin:miter;stroke-opacity:1"
     d="m 470.87154,1297.3827 -8.49103,9.6057 -6.14621,7.3666 -2.22527,8.4571"
     id="EA_END2"
     inkscape:connector-curvature="0"
     inkscape:label="#path3108"
     sodipodi:nodetypes="cccc" />
  <path
     style="fill:none;stroke:#000000;stroke-width:0.5px;stroke-linecap:butt;stroke-linejoin:miter;stroke-opacity:1"
     d="m 447.86939,1348.2728 -33.42503,11.7394 -12.47688,13.1089 -5.7184,10.7641 -1.6819,11.4368 3.0274,13.7915 6.3912,6.7275 10.0913,7.4003 16.1461,2.3547 16.4825,-5.382 8.0731,-7.7367 8.0731,-15.8097 2.3546,-18.1645 -0.3364,-18.1643 -0.3364,-20.8555"
     id="EA_START"
     inkscape:connector-curvature="0"
     inkscape:label="#path3110"
     sodipodi:nodetypes="ccccccccccccccc" />
  <path
     style="fill:none;stroke:#000000;stroke-width:0.5px;stroke-linecap:butt;stroke-linejoin:miter;stroke-opacity:1"
     d="m 529.33282,1500.2799 -8.073,3.7001 -10.0913,4.0365 -5.382,5.0457"
     id="EA_START2"
     inkscape:connector-curvature="0"
     inkscape:label="#path3112" />
  <path
     style="fill:none;stroke:#000000;stroke-width:0.5px;stroke-linecap:butt;stroke-linejoin:miter;stroke-opacity:1"
     d="m 653.53068,1431.5168 -7.7367,8.4094 -6.0547,7.4003 -5.7185,10.7641 -1.6818,11.4369 3.0274,13.7914 6.3911,6.7276 10.0913,7.4003 16.1461,2.3546 16.4825,-5.382 8.0732,-7.7367 8.073,-15.8098 2.3546,-18.1643 -0.3363,-9.0822 -0.3364,-12.7824"
     id="EA_E3A"
     inkscape:connector-curvature="0"
     inkscape:label="#path3110"
     sodipodi:nodetypes="ccccccccccccccc" />
  <path
     style="fill:none;stroke:#000000;stroke-width:0.5px;stroke-linecap:butt;stroke-linejoin:miter;stroke-opacity:1"
     d="m 635.41362,1322.6645 -0.3365,-8.7458 -0.6727,-6.3912"
     id="E3A_EA"
     inkscape:connector-curvature="0"
     inkscape:label="#path3132" />
  <path
     style="fill:none;stroke:#000000;stroke-width:0.5px;stroke-linecap:butt;stroke-linejoin:miter;stroke-opacity:1"
     d="m 611.09096,792.59899 -10.7641,0.3363 -12.7824,0 -3.3637,-0.3363"
     id="DCC_START2"
     inkscape:connector-curvature="0"
     inkscape:label="#path3082" />
  <path
     style="fill:none;stroke:#000000;stroke-width:0.5px;stroke-linecap:butt;stroke-linejoin:miter;stroke-opacity:1"
     d="m 559.31128,1442.1964 -6.7276,3.3638 -5.382,3.3637"
     id="EA_END"
     inkscape:connector-curvature="0"
     inkscape:label="#path3106" />
  <path
     style="fill:none;stroke:#000000;stroke-width:1px;stroke-linecap:butt;stroke-linejoin:miter;stroke-opacity:1"
     d="m 495.66726,1158.3301 8.087,9.9899 4.2814,11.4171 3.8057,8.087 7.6114,12.3685 8.087,20.9312 20.4556,16.6499 19.9798,-6.66 9.9899,-8.5628 0.9514,-11.8927 -1.4271,-12.8442 -0.4757,-14.747 -5.2328,-15.6984 -6.66,-6.6599 -15.2227,-7.6114 -12.3685,-0.4757 -11.417,1.4271 -13.3199,-0.9514"
     id="DCC_END2"
     inkscape:connector-curvature="0"
     sodipodi:nodetypes="cccccccccccccccccc"
     inkscape:label="#path3064" />
  <path
     style="fill:none;stroke:#ff0000;stroke-width:0.5px;stroke-linecap:butt;stroke-linejoin:miter;stroke-opacity:1"
     d="m 2444.9179,2255.314 -1.6672,-1.7335 -1.6672,-1.7335 -1.6673,-1.7335 -1.6672,-1.7335 -1.6672,-1.7335 -1.6672,-1.7335 -1.6673,-1.7335 -1.6672,-1.7335 -0.7602,-0.9486 -0.7603,-0.9486 -0.7602,-0.9486 -0.7603,-0.9486 -0.7396,-0.9354 -0.7397,-0.9353 -0.7396,-0.9354 -0.7396,-0.9354 -0.7055,-0.8611 -0.7054,-0.8611 -0.7055,-0.8611 -0.7055,-0.8611 -2.8387,-3.489 -2.9698,-3.7529 -3.0276,-3.6573 -3.1278,-3.8407 -3.2182,-3.9961 -3.3128,-3.9286 -3.3489,-3.9502 -3.1842,-3.5384 -3.5136,-3.8467 -2.8653,-3.0914 -3.2751,-3.2963 -3.3372,-3.182 -2.9888,-2.7 -3.0626,-2.8501 -3.512,-3.2317 -3.0896,-2.7639 -3.1412,-2.7602 -3.2181,-2.7023 -3.2947,-2.7336 -3.3701,-2.7587 -3.3124,-2.7362 -3.2224,-2.5276 -3.307,-2.5359 -3.3232,-2.5641 -3.6712,-2.7753 -3.6027,-2.6354 -3.4644,-2.465 -3.7573,-2.6169 -3.6588,-2.522 -3.6457,-2.4217 -3.2907,-2.1218 -3.3425,-2.1756 -3.556,-2.2174 -3.8594,-2.426 -3.4863,-2.1228 -3.5764,-2.1091 -3.6251,-2.1032 -3.6597,-2.0842 -3.828,-2.0745 -3.8297,-1.966 -3.8865,-2.0374 -3.8173,-1.9269 -3.7725,-1.8457 -3.8378,-1.7533 -3.872,-1.7919 -3.916,-1.6765 -4.0765,-1.6904 -3.8717,-1.5824 -4.4342,-1.6859 -4.5944,-1.6774 -3.9658,-1.3432 -3.9441,-1.2602 -4.9137,-1.5237 -4.5002,-1.2589 -4.4946,-1.1603 -4.9781,-1.1912 -4.5041,-1.0062 -4.9764,-1.0489 -4.9964,-0.9541 -4.7465,-0.7567 -4.6618,-0.8145 -4.8656,-0.7447 -4.7084,-0.6875 -4.8186,-0.6678 -4.8161,-0.7273 -4.8512,-0.6999 -4.547,-0.7675 -4.7473,-0.6639 -4.7257,-0.7555 -4.674,-0.7195 -4.6296,-0.8315 -4.867,-1.0366 -4.8856,-0.8886 -4.7271,-1.0738 -5.0004,-0.9547 -5.0202,-1.0546 -5.1,-1.1257 -4.9563,-1.1095 -4.9023,-1.0453 -5.3175,-1.207 -5.0181,-1.1816 -5.1269,-1.1445 -5.1372,-1.213 -5.2018,-1.1295 -4.6525,-1.0392 -4.9984,-1.1881 -4.7708,-1.0824 -5.0272,-1.1448 -4.8263,-1.0606 -4.8505,-1.1736 -5.1095,-1.128 -4.9546,-1.2092 -4.9776,-1.226 -4.9501,-1.2015 -5.1261,-1.2402 -4.8728,-1.184 -4.721,-1.1765 -4.6651,-1.1226 -4.7446,-1.1302 -4.5434,-0.9931 -4.5057,-0.9207 -4.6817,-0.9768 -4.8166,-1.0846 -4.751,-1.0391 -4.6668,-1.0172 -4.9744,-1.1647 -4.8065,-1.186 -4.7475,-1.0441 -4.7082,-0.9923 -4.582,-1.0242 -5.026,-1.1135 -5.0777,-1.1147 -4.6163,-0.8609 -5.3887,-1.0385 -4.7325,-0.9544 -5.1185,-0.9971 -5.5026,-1.0243 -4.6805,-0.8146 -4.957,-0.9697 -4.771,-0.9838 -4.6335,-0.8331 -5.0112,-0.8792 -5.0577,-0.9369 -4.7845,-0.9573 -5.29,-0.9878 -4.8937,-0.8895 -5.1142,-1.0353 -5.3707,-1.1286 -4.8867,-0.8526 -5.2918,-0.9966 -5.3192,-0.9348 -5.1417,-0.9336 -4.984,-0.8911 -5.0984,-0.9423 -5.1694,-0.9358 -5.1181,-0.9808 -4.964,-0.9936 -4.9834,-1.0324 -5.0018,-0.8696 -5.0046,-0.9669 -4.7545,-0.8195 -4.7188,-0.9678 -4.9325,-0.9506 -4.7942,-1.0085 -4.6664,-1.0797 -4.7035,-0.9222 -4.7819,-1.0893 -4.6916,-1.0752 -4.5853,-0.9414 -4.3881,-0.9727 -4.3203,-0.906 -4.5496,-0.962 -4.3761,-1.0281 -4.3775,-1.0654 -4.2494,-1.0167 -4.5128,-1.0783 -4.367,-1.1751 -4.7305,-1.1694 -4.4358,-1.3424 -4.4924,-1.139 -4.4504,-1.156 -4.3692,-1.2484 -4.5761,-1.2369 -4.6519,-1.2887 -4.6867,-1.3844 -4.4213,-1.2601 -4.398,-1.2751 -4.3678,-1.3209 -4.1275,-1.2413 -4.2387,-1.3858 -4.2189,-0.367 -6.0931,-1.2095 -4.0467,-0.6799 -4.2067,-0.4623 -4.2312,-1.2703 -4.1348,-1.1866 -4.5836,-1.3335 -4.3817,-1.228 -4.4709,-1.2408 -4.2065,-1.1653 -4.51,-1.2642 -4.3484,-1.2815 -4.3457,-1.3098 -4.5256,-1.3233 -4.7051,-1.3374 -4.3364,-1.2413 -4.3976,-1.2591 -4.3684,-1.2802 -4.789,-1.2968 -4.4699,-1.1557 -3.9939,-1.1 -4.0333,-0.9099 -4.2335,-1.0844 -4.2048,-1.0764 -4.326,-1.0492 -4.5804,-1.2164 -4.5616,-1.1673 -4.5234,-1.1555 -4.4652,-1.2232 -4.1276,-1.1886 -4.0085,-0.9882 -4.2907,-1.1563 -4.5194,-1.1621 -4.3283,-1.1548 -4.494,-1.1797 -4.0349,-1.0565 -4.2208,-1.1306 -3.9878,-1.0039 -4.2488,-1.1024 -4.3137,-1.0819 -4.3643,-1.0517 -4.336,-0.9693 -4.3226,-0.9686 -4.2845,-0.8767 -4.2891,-1.8906 -3.9259,-1.2207 -3.2444,-1.2252 -4.7078,-0.8591 -0.9059,-3.4724 -5.0161,-2.122 -5.4103,-0.5761 -7.3857,0.2788 -5.36,0.8542 -3.9374,0.2886 -4.5994,0.068 -5.6543,2.2882 -5.1953,0.9105 -4.8771,2.6126 -5.4878,0.4721 -5.3707,1.2872 -6.3354,1.5689 -5.1631,1.7973 -4.8371,1.6736 -4.3298,3.3437 -3.093,3.587 -4.3416,1.9519 -4.8152,2.3019 -4.4519,2.2419 -4.3477,2.2308 -4.1433,2.1973 -4.1363,2.1697 -4.4888,2.3857 -4.5933,2.3025 -4.7014,2.36 -4.7097,2.2781 -4.637,2.2775 -4.619,2.1285 -4.7188,2.2174 -4.8099,2.1434 -4.8627,2.1238 -5.055,2.1321 -5.2763,2.1505 -4.7008,1.8678 -5.0616,1.8383 -5.2195,1.7796 -5.7164,1.8387 -5.6471,1.6871 -5.5562,1.542 -6.0272,1.5441 -5.8772,1.3962 -5.5799,1.1889 -5.6752,1.1453 -6.0102,1.05 -5.2233,0.8705 -5.4833,0.8339 -5.2087,0.7345 -5.7155,0.6741 -5.5451,0.5627 -5.4809,0.4518 -5.4879,0.3811 -5.4086,0.2972 -5.6312,0.1923 -5.3343,0.1564 -5.7578,0.071 -5.1668,0.01 -4.9537,-0.066 -5.216,-0.1587 -4.8921,-0.2147 -4.7069,-0.2685 -4.8608,-0.305 -4.8823,-0.3422 -4.6518,-0.4652 -4.6766,-0.4697 -4.6809,-0.5723 -4.8013,-0.6078 -4.6904,-0.6445 -4.7177,-0.7174 -4.5841,-0.7771 -4.758,-0.8232 -4.557,-0.8603 -4.6159,-0.8788 -4.4497,-0.8796 -4.4367,-0.9618 -4.3943,-1.0151 -4.3393,-1.0073 -4.2595,-1.0731 -4.2704,-1.1538 -4.0969,-1.1012 -4.1416,-1.163 -4.1904,-1.1661 -4.0845,-1.2015 -4.2173,-1.3118 -4.0197,-1.2612 -4.2409,-1.3959 -4.0835,-1.3415 -4.282,-1.4503 -4.2697,-1.4377 -4.2598,-1.4894 -4.3288,-1.5413 -4.0746,-1.4457 -4.1614,-1.4496 -3.9701,-1.4645 -4.1221,-1.4526 -4.703,-1.6661 -4.29954,-1.5318 -4.0215,-1.4681 -4.5591,-1.6354 -3.9641,-1.5083 -4.1596,-1.5191 -4.3777,-1.624 -4.6195,-1.7165 -4.0956,-1.4967 -4.3151,-1.6168 -4.1086,-1.5288 -3.8754,-1.4618 -3.8805,-1.469 -3.8906,-1.5071 -4.0146,-1.5292 -4.0218,-1.5118 -4.0531,-1.5315 -3.8384,-1.4649 -3.8098,-1.4369 -3.8896,-1.4523 -4.0505,-1.4735 -3.9491,-1.4501 -4.1843,-1.5278 -3.9282,-1.3746 -3.9494,-1.3992 -3.9368,-1.3945 -4.189,-1.5065 -4.1721,-1.4811 -4.0347,-1.4375 -4.1322,-1.4105 -4.0074,-1.3239 -4.2012,-1.4535 -3.9213,-1.333 -3.9633,-1.369 -4.2381,-1.4035 -4.064,-1.3678 -4.3063,-1.4961 -4.2495,-1.4032 -4.3826,-1.4116 -4.2099,-1.3708 -4.168,-1.335 -4.2437,-1.3846 -4.159,-1.3402 -4.2558,-1.3223 -4.2346,-1.3238 -4.1669,-1.2635 -4.4612,-1.4007 -4.4861,-1.4217 -4.4373,-1.3306 -4.2818,-1.2964 -4.5285,-1.3969 -4.6201,-1.3895 -4.2403,-1.2515 -4.2941,-1.2766 -4.5667,-1.3043 -4.5301,-1.3165 -4.4991,-1.2339 -4.4312,-1.2656 -4.5013,-1.3064 -4.3927,-1.2952 -4.4307,-1.2303 -4.4663,-1.2498 -4.3707,-1.2261 -4.4325,-1.2207 -4.4073,-1.2616 -4.1938,-1.1711 -4.1585,-1.13 -4.2099,-1.1095 -4.3869,-1.2733 -4.4499,-1.1684 -4.5433,-1.1723 -4.4545,-1.1662 -4.3296,-1.2743 -4.3755,-1.2169 -4.7161,-1.2496 -4.5626,-1.176 -4.6292,-1.2063 -4.5223,-1.1859 -4.5444,-1.2356 -4.4841,-1.2146 -4.4263,-1.1951 -4.5228,-1.2719 -4.5681,-1.2665 -4.5437,-1.342 -4.5209,-1.2685 -4.595,-1.381 -4.5757,-1.3659 -4.2446,-1.2304 -4.4052,-1.3511 -4.7688,-1.3541 -4.3463,-1.3507 -4.7696,-1.4388 -4.5855,-1.342 -4.7362,-1.4891 -4.40172,-1.3374 -4.72529,-1.5103 -4.68854,-1.4551 -4.10861,-1.2624 -4.29781,-1.3852 -4.20741,-1.3738 -4.04209,-1.3071 -4.67707,-1.5605 -4.37377,-1.4639 -4.35081,-1.5134 -4.05975,-1.4274 -4.56405,-1.6163 -4.11526,-1.4494 -4.32392,-1.5502 -4.30361,-1.5482 -4.19833,-1.4307 -3.93398,-1.3978 -4.12881,-1.4527 -3.97258,-1.3623 -4.16782,-1.3918 -4.00569,-1.283 -4.06147,-1.342 -4.05273,-1.2936 -4.74247,-1.4297 -4.65377,-1.3812 -2.76106,-2.107 -5.06936,-1.9904 -5.26082,-2.0502 -3.05991,-1.6307 -2.20573,-1.0155 -2.34392,-1.149 -1.88135,-1.6421 -2.33937,-0.8288 -3.03649,-1.5115 -2.36192,-1.1813 -7.23879,-5.2926 -4.63284,-3.866 -5.32498,-4.3116 -3.70237,-1.6146 -5.73609,-5.014 -3.95759,-4.7376 -4.1718,-2.1664 -3.89866,-1.9244 -4.07273,-2.1202 -3.96397,-2.2359 -3.99501,-2.3391 -3.69711,-2.3255 -3.88257,-2.5331 -3.56347,-2.5798 -3.16028,-2.4489 -3.23693,-2.6236 -3.28973,-2.6786 -3.26882,-2.72 -3.30447,-2.8678 -3.11909,-2.7706 -3.22962,-2.9002 -2.98319,-2.6733 -3.14252,-2.7556 -3.41859,-2.9608 -3.55949,-1.8379 -6.46723,-2.7607 -7.24718,-1.7155 -4.15319,-0.6043 -5.3829,-0.3471 -2.84536,-0.9426 -3.60202,0 -2.63822,-1.0782 -4.35512,-0.5687 -3.1707,-0.8623 -4.80089,-1.5138 -3.87701,-1.5614 -4.81566,-0.9531 -5.62445,0.1987 -3.86414,-0.8158 -4.40423,-1.1084 -4.4521,-0.3688 -4.27467,-1.036 -4.9502,-1.9501 -3.94775,-1.0416 -5.41994,-2.3431 -4.39081,-1.071 -4.40347,-1.1789 -4.50493,-1.4171 -4.38006,-1.3804 -4.46168,-1.5726 -4.31618,-1.6887 -4.39348,-1.8181 -3.78738,-1.7048 -3.99364,-1.9315 -4.00868,-2.0051 -3.75807,-1.9767 -4.28655,-2.376 -3.87857,-2.2335 -3.46446,-2.0113 -3.81697,-2.3888 -3.40573,-2.2224 -3.5507,-2.4887 -3.41216,-2.4168 -3.32318,-2.4468 -3.44465,-2.5486 -3.34933,-2.5829 -3.23784,-2.4928 -3.26908,-2.5568 -3.26939,-2.6239 -3.24425,-2.6408 -3.30238,-2.6884 -3.14311,-2.6106 -3.03879,-2.5758 -3.00922,-2.634 -3.05413,-2.7378 -3.18535,-2.893 -3.05648,-2.7899 -2.99201,-2.8494 -3.32093,-3.3272 -2.81406,-2.8629 -2.81651,-2.9449 -3.0652,-3.3141 -2.75751,-3.0736 -3.14147,-3.7198 -2.97554,-3.6448 -3.0251,-3.7822 -2.83913,-3.7131 -2.81521,-3.8732 -2.82803,-3.9996 -2.61047,-3.931 -2.63144,-4.2073 -2.55417,-4.2386 -2.40276,-4.227 -2.37645,-4.3304 -2.30532,-4.465 -2.11008,-4.2901 -1.90949,-4.229 -1.91368,-4.494 -1.88282,-4.859 -1.69202,-4.9147 -1.683628,-5.1396 -1.59379,-4.9696 -1.60219,-5.2542 -1.40953,-4.9352 -1.46733,-5.4082 -1.43597,-5.3235 -1.37388,-5.1691 -1.25638,-4.9695 -1.29389,-5.0964 -1.28338,-5.1416 -1.225,-4.9657 -1.24297,-5.1052 -1.19824,-5.2758 -1.13545,-5.0801 -1.08422,-4.8944 -1.14457,-5.0503 -1.21263,-5.27 -1.24846,-5.3678 -1.24816,-5.1008 -1.23999,-5.2569 -1.19213,-5.1882 -1.26535,-5.3412 -1.25378,-5.2944 -1.24131,-5.3072 -1.28089,-5.2678 -1.28919,-5.2002 -1.27789,-5.286 -1.33549,-5.2704 -1.26931,-5.2035 -1.25733,-5.133 -1.4129,-5.3263 -1.52018,-5.6472 -1.54845,-5.7477 -1.4392,-5.1374 -1.44849,-5.2947 -1.40151,-5.0538 -1.46092,-5.0672 -1.44999,-5.1332 -1.47724,-5.2854 -1.41516,-5.5963 -1.36548,-5.7853 -1.0684,-5.5353 -0.81369,-5.3416 -0.53511,-5.2688 -0.25949,-5.1731 -0.0848,-4.8797 0.14642,-4.9333 0.45579,-4.7897 0.72294,-4.8715 1.0105,-4.6978 1.15347,-4.1066 1.4835,-4.2525 1.68487,-3.8589 2.02264,-3.9141 2.21482,-3.3724 2.70587,-3.5004 3.1415,-3.5051 3.40892,-3.2953 3.554,-2.9446 4.13864,-3.1133 4.2851,-3.142 4.60362,-3.182 4.84019,-2.9418 5.87749,-3.0084 4.62976,-1.9785 5.725438,-2.4442 6.97464,-3.4639 5.49493,-1.4719 5.32045,-1.4041 5.35203,-1.3451 5.22836,-1.3123 5.55006,-1.3996 5.33335,-1.2659 5.33332,-1.2491 4.99777,-1.1415 5.12107,-1.2103 5.44978,-1.264 5.5269,-1.3646 5.31202,-1.3081 5.21068,-1.3775 5.15423,-1.3596 5.08882,-1.3458 5.12312,-1.3607 5.0253,-1.3066 5.08762,-1.4044 5.00319,-1.3596 5.10667,-1.4256 5.16013,-1.4449 5.2347,-1.4625 5.43128,-1.6478 5.23245,-1.5984 5.49085,-1.7528 5.35523,-1.6982 5.60198,-1.7631 5.52101,-1.8577 5.38719,-1.8968 5.10277,-1.9001 5.0712,-1.9465 5.4499,-2.2166 5.3185,-2.1839 5.73455,-2.531 5.53109,-2.5488 5.1878,-2.4677 5.08826,-2.5199 4.91113,-2.5347 4.61482,-2.4689 4.68925,-2.6485 4.6722,-2.7713 4.4801,-2.855 4.35284,-2.9337 4.04799,-2.8699 4.09811,-2.9898 3.79403,-2.9515 3.38578,-2.7079 3.35448,-2.8105 3.34969,-2.9681 3.35222,-3.0974 2.66651,-2.7927 2.72486,-3.0349 2.66746,-3.3923 2.32765,-3.2399"
     id="DCC_MCD-2"
     inkscape:connector-curvature="0"
     sodipodi:nodetypes="cccccccccccccccccccccccccccccccccccccccccccccccccccccccccccccccccccccccccccccccccccccccccccccccccccccccccccccccccccccccccccccccccccccccccccccccccccccccccccccccccccccccccccccccccccccccccccccccccccccccccccccccccccccccccccccccccccccccccccccccccccccccccccccccccccccccccccccccccccccccccccccccccccccccccccccccccccccccccccccccccccccccccccccccccccccccccccccccccccccccccccccccccccccccccccccccccccccccccccccccccccccccccccccccccccccccccccccccccccccccccccccccccccccccccccccccccccccccccccccccccccccccccccccccccccccccccccccccccccccccccccccccccccccccccccccccccccccccccccccccccccccccccccccccccccccccccccccccccccccccccccccccccccccccccccccccccccccccccccccccccccccccccccccccccccccccccccccccccccccccccccc" />
</svg>
