<?xml version="1.0" encoding="UTF-8" standalone="no"?>
<svg
   xmlns:dc="http://purl.org/dc/elements/1.1/"
   xmlns:cc="http://creativecommons.org/ns#"
   xmlns:rdf="http://www.w3.org/1999/02/22-rdf-syntax-ns#"
   xmlns:svg="http://www.w3.org/2000/svg"
   xmlns="http://www.w3.org/2000/svg"
   xmlns:xlink="http://www.w3.org/1999/xlink"
   xmlns:sodipodi="http://sodipodi.sourceforge.net/DTD/sodipodi-0.dtd"
   xmlns:inkscape="http://www.inkscape.org/namespaces/inkscape"
   sodipodi:docname="path_def.svg"
   height="2832"
   width="2000"
   inkscape:version="0.48.3.1 r9886"
   id="svg2"
   version="1.1">
  <sodipodi:namedview
     pagecolor="#ffffff"
     bordercolor="#666666"
     borderopacity="1"
     objecttolerance="10"
     gridtolerance="10"
     guidetolerance="10"
     inkscape:pageopacity="0"
     inkscape:pageshadow="2"
     inkscape:window-width="1535"
     inkscape:window-height="876"
     id="namedview32"
     showgrid="false"
     inkscape:zoom="2.1021218"
     inkscape:cx="1128.2416"
     inkscape:cy="1866.9109"
     inkscape:window-x="65"
     inkscape:window-y="24"
     inkscape:window-maximized="1"
     inkscape:current-layer="svg2"
     showguides="true"
     inkscape:guide-bbox="true" />
  <metadata
     id="metadata36">
    <rdf:RDF>
      <cc:Work
         rdf:about="">
        <dc:format>image/svg+xml</dc:format>
        <dc:type
           rdf:resource="http://purl.org/dc/dcmitype/StillImage" />
        <dc:title>Paths of the golfcar</dc:title>
      </cc:Work>
    </rdf:RDF>
  </metadata>
  <defs
     id="defs34">
    <marker
       inkscape:stockid="Arrow1Send"
       orient="auto"
       refY="0.0"
       refX="0.0"
       id="Arrow1Send"
       style="overflow:visible;">
      <path
         id="path6236"
         d="M 0.0,0.0 L 5.0,-5.0 L -12.5,0.0 L 5.0,5.0 L 0.0,0.0 z "
         style="fill-rule:evenodd;stroke:#000000;stroke-width:1.0pt;marker-start:none;"
         transform="scale(0.2) rotate(180) translate(6,0)" />
    </marker>
    <marker
       inkscape:stockid="Arrow1Sstart"
       orient="auto"
       refY="0.0"
       refX="0.0"
       id="Arrow1Sstart"
       style="overflow:visible">
      <path
         id="path6233"
         d="M 0.0,0.0 L 5.0,-5.0 L -12.5,0.0 L 5.0,5.0 L 0.0,0.0 z "
         style="fill-rule:evenodd;stroke:#000000;stroke-width:1.0pt;marker-start:none"
         transform="scale(0.2) translate(6,0)" />
    </marker>
    <inkscape:path-effect
       steps="5"
       equidistant_spacing="true"
       trajectory="M 0,0 0,0"
       is_visible="true"
       id="path-effect3660"
       effect="interpolate" />
    <inkscape:path-effect
       phi="5"
       teeth="10"
       is_visible="true"
       id="path-effect3658"
       effect="gears" />
    <marker
       style="overflow:visible"
       id="DotM"
       refX="0.0"
       refY="0.0"
       orient="auto"
       inkscape:stockid="DotM">
      <path
         transform="scale(0.4) translate(7.4, 1)"
         style="fill-rule:evenodd;stroke:#000000;stroke-width:1.0pt;marker-start:none;marker-end:none"
         d="M -2.5,-1.0 C -2.5,1.7600000 -4.7400000,4.0 -7.5,4.0 C -10.260000,4.0 -12.5,1.7600000 -12.5,-1.0 C -12.5,-3.7600000 -10.260000,-6.0 -7.5,-6.0 C -4.7400000,-6.0 -2.5,-3.7600000 -2.5,-1.0 z "
         id="path3704" />
    </marker>
    <marker
       style="overflow:visible"
       id="DotL"
       refX="0.0"
       refY="0.0"
       orient="auto"
       inkscape:stockid="DotL">
      <path
         transform="scale(0.8) translate(7.4, 1)"
         style="fill-rule:evenodd;stroke:#000000;stroke-width:1.0pt;marker-start:none;marker-end:none"
         d="M -2.5,-1.0 C -2.5,1.7600000 -4.7400000,4.0 -7.5,4.0 C -10.260000,4.0 -12.5,1.7600000 -12.5,-1.0 C -12.5,-3.7600000 -10.260000,-6.0 -7.5,-6.0 C -4.7400000,-6.0 -2.5,-3.7600000 -2.5,-1.0 z "
         id="path3701" />
    </marker>
    <marker
       style="overflow:visible;"
       id="Arrow1Lend"
       refX="0.0"
       refY="0.0"
       orient="auto"
       inkscape:stockid="Arrow1Lend">
      <path
         transform="scale(0.8) rotate(180) translate(12.5,0)"
         style="fill-rule:evenodd;stroke:#000000;stroke-width:1.0pt;marker-start:none;"
         d="M 0.0,0.0 L 5.0,-5.0 L -12.5,0.0 L 5.0,5.0 L 0.0,0.0 z "
         id="path3642" />
    </marker>
    <marker
       style="overflow:visible"
       id="Arrow1Lstart"
       refX="0.0"
       refY="0.0"
       orient="auto"
       inkscape:stockid="Arrow1Lstart">
      <path
         transform="scale(0.8) translate(12.5,0)"
         style="fill-rule:evenodd;stroke:#000000;stroke-width:1.0pt;marker-start:none"
         d="M 0.0,0.0 L 5.0,-5.0 L -12.5,0.0 L 5.0,5.0 L 0.0,0.0 z "
         id="path3639" />
    </marker>
    <inkscape:path-effect
       crossing_points_vector=""
       switcher_size="15"
       add_other_stroke_width="true"
       add_stroke_width="true"
       prop_to_stroke_width="true"
       interruption_width="3.6"
       is_visible="true"
       id="path-effect2862"
       effect="knot" />
    <inkscape:path-effect
       crossing_points_vector=""
       switcher_size="15"
       add_other_stroke_width="true"
       add_stroke_width="true"
       prop_to_stroke_width="true"
       interruption_width="3"
       is_visible="true"
       id="path-effect2860"
       effect="knot" />
    <inkscape:path-effect
       steps="5"
       equidistant_spacing="true"
       trajectory="M 0,0 0,0"
       is_visible="true"
       id="path-effect2858"
       effect="interpolate" />
    <inkscape:path-effect
       bendpath4="m 1068.3624,2136.3724 0,121.4273"
       bendpath3="m 1068.3624,2257.7997 48.7175,0"
       bendpath2="m 1117.0799,2136.3724 0,121.4273"
       bendpath1="m 1068.3624,2136.3724 48.7175,0"
       xx="true"
       yy="true"
       is_visible="true"
       id="path-effect2856"
       effect="envelope" />
    <inkscape:path-effect
       tgtlength_rdm="0.3;1"
       tgtlength="100"
       tgtscale="10"
       tgt_places_rdmness="1;1"
       nbtangents="5"
       tremble_frequency="1"
       tremble_size="5;1"
       parallel_offset="5;1"
       ends_tolerance="0.1;1"
       strokeoverlap_rdm="0.3;1"
       strokeoverlap="0.3"
       strokelength_rdm="0.3;1"
       strokelength="100"
       nbiter_approxstrokes="5"
       is_visible="true"
       id="path-effect2854"
       effect="sketch" />
    <inkscape:path-effect
       border_marks="both"
       mark_dir="left"
       offset="0"
       shift="0"
       major_mark_steps="5"
       minor_mark_length="7"
       mark_length="14"
       mark_distance="20"
       unit="px"
       is_visible="true"
       id="path-effect2852"
       effect="ruler" />
    <inkscape:path-effect
       border_marks="both"
       mark_dir="left"
       offset="0"
       shift="0"
       major_mark_steps="5"
       minor_mark_length="7"
       mark_length="14"
       mark_distance="20"
       unit="px"
       is_visible="true"
       id="path-effect2850"
       effect="ruler" />
    <inkscape:path-effect
       phi="5"
       teeth="10"
       is_visible="true"
       id="path-effect2848"
       effect="gears" />
    <inkscape:perspective
       id="perspective38"
       inkscape:persp3d-origin="1528.5 : 1178.6667 : 1"
       inkscape:vp_z="3057 : 1768 : 1"
       inkscape:vp_y="0 : 1000 : 0"
       inkscape:vp_x="0 : 1768 : 1"
       sodipodi:type="inkscape:persp3d" />
    <inkscape:perspective
       sodipodi:type="inkscape:persp3d"
       inkscape:vp_x="0 : 0.5 : 1"
       inkscape:vp_y="0 : 1000 : 0"
       inkscape:vp_z="1 : 0.5 : 1"
       inkscape:persp3d-origin="0.5 : 0.33333333 : 1"
       id="perspective2947" />
    <inkscape:perspective
       sodipodi:type="inkscape:persp3d"
       inkscape:vp_x="0 : 0.5 : 1"
       inkscape:vp_y="0 : 1000 : 0"
       inkscape:vp_z="1 : 0.5 : 1"
       inkscape:persp3d-origin="0.5 : 0.33333333 : 1"
       id="perspective2824" />
    <inkscape:perspective
       sodipodi:type="inkscape:persp3d"
       inkscape:vp_x="0 : 0.5 : 1"
       inkscape:vp_y="0 : 1000 : 0"
       inkscape:vp_z="1 : 0.5 : 1"
       inkscape:persp3d-origin="0.5 : 0.33333333 : 1"
       id="perspective2960" />
    <inkscape:perspective
       sodipodi:type="inkscape:persp3d"
       inkscape:vp_x="0 : 0.5 : 1"
       inkscape:vp_y="0 : 1000 : 0"
       inkscape:vp_z="1 : 0.5 : 1"
       inkscape:persp3d-origin="0.5 : 0.33333333 : 1"
       id="perspective3024" />
    <inkscape:perspective
       sodipodi:type="inkscape:persp3d"
       inkscape:vp_x="0 : 0.5 : 1"
       inkscape:vp_y="0 : 1000 : 0"
       inkscape:vp_z="1 : 0.5 : 1"
       inkscape:persp3d-origin="0.5 : 0.33333333 : 1"
       id="perspective3088" />
    <inkscape:perspective
       sodipodi:type="inkscape:persp3d"
       inkscape:vp_x="0 : 0.5 : 1"
       inkscape:vp_y="0 : 1000 : 0"
       inkscape:vp_z="1 : 0.5 : 1"
       inkscape:persp3d-origin="0.5 : 0.33333333 : 1"
       id="perspective3152" />
    <inkscape:perspective
       sodipodi:type="inkscape:persp3d"
       inkscape:vp_x="0 : 0.5 : 1"
       inkscape:vp_y="0 : 1000 : 0"
       inkscape:vp_z="1 : 0.5 : 1"
       inkscape:persp3d-origin="0.5 : 0.33333333 : 1"
       id="perspective3216" />
    <inkscape:perspective
       sodipodi:type="inkscape:persp3d"
       inkscape:vp_x="0 : 0.5 : 1"
       inkscape:vp_y="0 : 1000 : 0"
       inkscape:vp_z="1 : 0.5 : 1"
       inkscape:persp3d-origin="0.5 : 0.33333333 : 1"
       id="perspective3280" />
    <inkscape:perspective
       sodipodi:type="inkscape:persp3d"
       inkscape:vp_x="0 : 0.5 : 1"
       inkscape:vp_y="0 : 1000 : 0"
       inkscape:vp_z="1 : 0.5 : 1"
       inkscape:persp3d-origin="0.5 : 0.33333333 : 1"
       id="perspective3344" />
    <inkscape:perspective
       sodipodi:type="inkscape:persp3d"
       inkscape:vp_x="0 : 0.5 : 1"
       inkscape:vp_y="0 : 1000 : 0"
       inkscape:vp_z="1 : 0.5 : 1"
       inkscape:persp3d-origin="0.5 : 0.33333333 : 1"
       id="perspective3408" />
    <inkscape:perspective
       sodipodi:type="inkscape:persp3d"
       inkscape:vp_x="0 : 0.5 : 1"
       inkscape:vp_y="0 : 1000 : 0"
       inkscape:vp_z="1 : 0.5 : 1"
       inkscape:persp3d-origin="0.5 : 0.33333333 : 1"
       id="perspective3628" />
    <inkscape:perspective
       sodipodi:type="inkscape:persp3d"
       inkscape:vp_x="0 : 0.5 : 1"
       inkscape:vp_y="0 : 1000 : 0"
       inkscape:vp_z="1 : 0.5 : 1"
       inkscape:persp3d-origin="0.5 : 0.33333333 : 1"
       id="perspective2848" />
    <inkscape:perspective
       sodipodi:type="inkscape:persp3d"
       inkscape:vp_x="0 : 0.5 : 1"
       inkscape:vp_y="0 : 1000 : 0"
       inkscape:vp_z="1 : 0.5 : 1"
       inkscape:persp3d-origin="0.5 : 0.33333333 : 1"
       id="perspective3658" />
    <inkscape:perspective
       sodipodi:type="inkscape:persp3d"
       inkscape:vp_x="0 : 0.5 : 1"
       inkscape:vp_y="0 : 1000 : 0"
       inkscape:vp_z="1 : 0.5 : 1"
       inkscape:persp3d-origin="0.5 : 0.33333333 : 1"
       id="perspective3691" />
    <inkscape:perspective
       sodipodi:type="inkscape:persp3d"
       inkscape:vp_x="0 : 0.5 : 1"
       inkscape:vp_y="0 : 1000 : 0"
       inkscape:vp_z="1 : 0.5 : 1"
       inkscape:persp3d-origin="0.5 : 0.33333333 : 1"
       id="perspective3713" />
    <inkscape:perspective
       sodipodi:type="inkscape:persp3d"
       inkscape:vp_x="0 : 0.5 : 1"
       inkscape:vp_y="0 : 1000 : 0"
       inkscape:vp_z="1 : 0.5 : 1"
       inkscape:persp3d-origin="0.5 : 0.33333333 : 1"
       id="perspective3735" />
    <inkscape:perspective
       sodipodi:type="inkscape:persp3d"
       inkscape:vp_x="0 : 0.5 : 1"
       inkscape:vp_y="0 : 1000 : 0"
       inkscape:vp_z="1 : 0.5 : 1"
       inkscape:persp3d-origin="0.5 : 0.33333333 : 1"
       id="perspective3757" />
    <inkscape:perspective
       sodipodi:type="inkscape:persp3d"
       inkscape:vp_x="0 : 0.5 : 1"
       inkscape:vp_y="0 : 1000 : 0"
       inkscape:vp_z="1 : 0.5 : 1"
       inkscape:persp3d-origin="0.5 : 0.33333333 : 1"
       id="perspective2910" />
    <marker
       style="overflow:visible"
       id="DotM-1"
       refX="0"
       refY="0"
       orient="auto"
       inkscape:stockid="DotM">
      <path
         transform="matrix(0.4,0,0,0.4,2.96,0.4)"
         style="fill-rule:evenodd;stroke:#000000;stroke-width:1pt;marker-start:none;marker-end:none"
         d="m -2.5,-1 c 0,2.76 -2.24,5 -5,5 -2.76,0 -5,-2.24 -5,-5 0,-2.76 2.24,-5 5,-5 2.76,0 5,2.24 5,5 z"
         id="path3704-5" />
    </marker>
    <inkscape:perspective
       sodipodi:type="inkscape:persp3d"
       inkscape:vp_x="0 : 0.5 : 1"
       inkscape:vp_y="0 : 1000 : 0"
       inkscape:vp_z="1 : 0.5 : 1"
       inkscape:persp3d-origin="0.5 : 0.33333333 : 1"
       id="perspective3012" />
    <inkscape:perspective
       sodipodi:type="inkscape:persp3d"
       inkscape:vp_x="0 : 0.5 : 1"
       inkscape:vp_y="0 : 1000 : 0"
       inkscape:vp_z="1 : 0.5 : 1"
       inkscape:persp3d-origin="0.5 : 0.33333333 : 1"
       id="perspective2903" />
    <marker
       style="overflow:visible"
       id="DotM-5"
       refX="0"
       refY="0"
       orient="auto"
       inkscape:stockid="DotM">
      <path
         transform="matrix(0.4,0,0,0.4,2.96,0.4)"
         style="fill-rule:evenodd;stroke:#000000;stroke-width:1pt;marker-start:none;marker-end:none"
         d="m -2.5,-1 c 0,2.76 -2.24,5 -5,5 -2.76,0 -5,-2.24 -5,-5 0,-2.76 2.24,-5 5,-5 2.76,0 5,2.24 5,5 z"
         id="path3704-9" />
    </marker>
    <inkscape:perspective
       sodipodi:type="inkscape:persp3d"
       inkscape:vp_x="0 : 0.5 : 1"
       inkscape:vp_y="0 : 1000 : 0"
       inkscape:vp_z="1 : 0.5 : 1"
       inkscape:persp3d-origin="0.5 : 0.33333333 : 1"
       id="perspective2889" />
    <filter
       id="filter3830"
       inkscape:label="Colorize"
       inkscape:menu="Color"
       inkscape:menu-tooltip="Blend image or object with a flood color and set lightness and contrast"
       x="0"
       y="0"
       width="1"
       height="1"
       color-interpolation-filters="sRGB">
      <feColorMatrix
         id="feColorMatrix3832"
         values="1"
         in="SourceGraphic"
         type="saturate"
         result="result2" />
      <feFlood
         id="feFlood3834"
         flood-color="rgb(254,102,0)"
         flood-opacity="1"
         result="result1" />
      <feBlend
         id="feBlend3836"
         in2="result2"
         mode="multiply"
         in="result1"
         result="result3" />
      <feComposite
         id="feComposite3838"
         in2="SourceGraphic"
         operator="in"
         k2="1"
         result="result4" />
    </filter>
    <marker
       style="overflow:visible"
       id="DotM-7"
       refX="0"
       refY="0"
       orient="auto"
       inkscape:stockid="DotM">
      <path
         inkscape:connector-curvature="0"
         transform="matrix(0.4,0,0,0.4,2.96,0.4)"
         style="fill-rule:evenodd;stroke:#000000;stroke-width:1pt;marker-start:none;marker-end:none"
         d="m -2.5,-1 c 0,2.76 -2.24,5 -5,5 -2.76,0 -5,-2.24 -5,-5 0,-2.76 2.24,-5 5,-5 2.76,0 5,2.24 5,5 z"
         id="path3704-3" />
    </marker>
    <marker
       style="overflow:visible"
       id="DotM-70"
       refX="0"
       refY="0"
       orient="auto"
       inkscape:stockid="DotM">
      <path
         inkscape:connector-curvature="0"
         transform="matrix(0.4,0,0,0.4,2.96,0.4)"
         style="fill-rule:evenodd;stroke:#000000;stroke-width:1pt;marker-start:none;marker-end:none"
         d="m -2.5,-1 c 0,2.76 -2.24,5 -5,5 -2.76,0 -5,-2.24 -5,-5 0,-2.76 2.24,-5 5,-5 2.76,0 5,2.24 5,5 z"
         id="path3704-8" />
    </marker>
  </defs>
  <title
     id="title4">Paths of the golfcar</title>
  <desc
     id="desc6">The paths consist of all the possible route that can be taken by the golfcart to serve 4 stations: DCC, MCD, EA and E3A</desc>
  <image
     sodipodi:absref="/home/golfcar/SvgPath/utown_momdp.png"
     xlink:href="utown_momdp.png"
     inkscape:label="#image3014"
     y="0"
     x="0"
     id="map"
     height="2832"
     width="2000"
     style="fill:none;font-size:14px;stroke:#000000;stroke-opacity:1" />
  <path
     style="fill:none;stroke:#000000;stroke-width:0.5px;stroke-linecap:butt;stroke-linejoin:miter;stroke-opacity:1"
     d="m 350.17469,1697.4002 2.9458,7.3425 2.3307,7.3666 7.8183,9.5649 13.1666,9.6057 8.9667,6.6768 14.0533,-6.225 7.6552,-12.9187 1.4201,-8.7698 0.058,-9.344 -2.9529,-32.7593 -1.2878,-18.9636"
     id="DCC_EA"
     inkscape:connector-curvature="0"
     inkscape:label="#path3076"
     sodipodi:nodetypes="cccccccccccc" />
  <path
     style="fill:none;stroke:#000000;stroke-width:0.5px;stroke-linecap:butt;stroke-linejoin:miter;stroke-opacity:1"
     d="m 569.6328,1027.9119 -4.7093,1.3456 -4.3729,2.6909 -1.6819,3.7002 1.0091,3.3638 1.6819,4.7093 2.0183,3.7001"
     id="DCC_EA3"
     inkscape:connector-curvature="0"
     inkscape:label="#path3084" />
  <path
     style="fill:none;stroke:#ff0000;stroke-width:0.5px;stroke-linecap:butt;stroke-linejoin:miter;stroke-opacity:1"
     d="m 1074.1506,1646.3668 1.3221,-4.0786 1.3067,-4.2143 1.2924,-4.2509 1.2278,-4.135 1.1882,-4.201 1.137,-4.1862 0.9829,-4.143 1.0834,-4.1978 1.0266,-4.0885 1.0578,-4.1926 1.0166,-4.27 0.8447,-4.1007 0.8862,-4.1606 0.8945,-4.1953 0.8183,-4.1255 0.8488,-4.1445 0.8991,-4.3927 0.8341,-4.2355 0.7595,-4.0623 0.7868,-4.183 0.7816,-4.1454 0.8014,-4.2366 0.7545,-4.1692 0.8495,-4.2771 0.7149,-4.2955 0.6808,-4.1538 0.647,-4.0745 0.6429,-4.2419 0.6923,-4.1915 0.6921,-4.0605 0.6069,-4.1862 0.5362,-4.2378 0.5539,-4.2292 0.523,-4.1408 0.5147,-4.1662 0.5212,-4.1582 0.5192,-4.3206 0.4656,-4.3563 0.3778,-4.1717 0.3588,-4.1623 0.3548,-4.2634 0.3151,-4.1436 0.2288,-4.1828 0.2848,-4.1408 0.2572,-4.1273 0.2576,-4.3041 0.292,-4.2953 0.1404,-4.1377 0.192,-4.2193 0.1251,-4.0529 0.072,-4.1433 0.09,-4.2736 0.1108,-4.1484 0.025,-4.2347 0,-4.1913 -0.064,-4.2217 -0.028,-4.2613 -0.1194,-4.2831 -0.095,-4.1732 -0.2018,-4.1744 -0.1766,-4.4136 -0.2213,-4.32 -0.2258,-4.3111 -0.2308,-4.2606 -0.3109,-4.2234 -0.2971,-4.1649 -0.2321,-4.2035 -0.3682,-4.1415 -0.3333,-4.3268 -0.3293,-4.1707 -0.3933,-4.095 -0.2658,-4.0389 -0.4357,-4.2403 -0.4127,-4.0607 -0.4301,-4.1114 -0.3921,-4.2659 -0.5035,-4.2434 -0.4194,-4.2037 -0.4421,-4.2312 -0.4939,-4.1707 -0.5069,-4.2039 -0.4974,-4.3726 -0.439,-4.0806 -0.5452,-4.2551 -0.5242,-4.28 -0.4486,-4.1955 -0.4594,-4.3098 -0.4919,-4.2581 -0.4111,-4.2949 -0.34,-4.17 -0.3489,-4.1717 -0.3306,-4.1091 -0.3837,-4.1828 -0.3986,-4.2749 -0.3977,-4.2719 -0.4034,-4.0204 -0.4522,-4.0755 -0.4369,-4.2784 -0.494,-4.3268 -1.4361,-4.2291 -1.6186,-4.4331 -1.1495,-3.665 -1.9094,-4.8543 -2.4054,-5.2674 -3.3525,-6.1836 -4.764,-10.3465 -2.5351,-5.5405 -5.6804,-11.487 -5.0194,-8.2817 -4.2101,-8.829 -2.3382,-4.2763 -1.5856,-4.1015 -1.6725,-4.2267 -1.6354,-4.1393 -1.7597,-4.1611 -1.641,-4.1407 -1.7422,-4.1323 -2.5704,-4.7438 -2.5705,-4.7437 -1.5952,-2.8356 -1.5952,-2.8357 -1.5952,-2.8356 -1.5952,-2.8357 -0.9736,-1.5311 -0.9735,-1.531 -0.9736,-1.5311 -0.9736,-1.531 -0.9736,-1.5311 -0.9735,-1.5311 -0.9736,-1.531 -0.9736,-1.5311 -2.1746,-4.0205 -2.1137,-3.9077 -2.1549,-3.984 -1.7841,-2.5188 -2.6772,-3.78 -2.6255,-4.9239 -3.3588,-5.0881 -9.4167,-10.3302 -10.0153,-10.9867 -6.98881,-7.6667 -9.29127,-10.1925 -8.97853,-9.8495 -7.39268,-8.1097 -6.90508,-7.5749 -7.12666,-7.81793 -8.81847,-9.67385 -7.22521,-7.92605 -10.43394,-11.44603 -10.19014,-11.17857 -11.62334,-12.75079 -12.55823,-13.77638 -3.86241,-6.06596 -2.60401,-3.74779 -1.69708,-2.61809 -1.65211,-2.49753 -2.45547,-3.70513 -3.35209,-4.81572 -3.01239,-4.34444 -3.68515,-5.52176 -3.93742,-5.26949 -1.38006,-2.84498 -1.75752,-4.92899 -0.74475,-4.12891 -0.36727,-2.04488 -0.38027,-2.07101 0.39825,-2.69686 0.39824,-2.69687 0.39825,-2.69686 0.39825,-2.69686 1.20175,-2.57355 1.20176,-2.57355 1.20175,-2.57355 1.20176,-2.57355 1.99841,-2.31679 1.99842,-2.31678 1.99842,-2.31678 1.99842,-2.31679 1.99842,-2.31678 1.99842,-2.31678 1.99842,-2.31679 1.99842,-2.31678 2.38648,-1.86918 2.38648,-1.86917 2.38648,-1.86918 2.38648,-1.86917 2.38647,-1.86918 2.38648,-1.86917 2.38648,-1.86918 2.38648,-1.86917 3.14333,-1.6169 3.14333,-1.61689 3.14333,-1.61689 3.14333,-1.61689 3.14332,-1.61689 3.14333,-1.6169 3.14333,-1.61689 3.14333,-1.61689 4.54254,-1.38084 4.54254,-1.38084 4.54254,-1.38085 4.54254,-1.38084 5.13718,-0.90513 7.87251,-0.0726 10.75006,-0.0263 11.12664,-10e-4 11.24557,0.11742 10.4481,-4.9e-4"
     id="DCC_START"
     inkscape:label="#path3072"
     inkscape:connector-curvature="0"
     sodipodi:nodetypes="ccccccccccccccccccccccccccccccccccccccccccccccccccccccccccccccccccccccccccccccccccccccccccccccccccccccccccccccccccccccccccccccccccccccccccccccccccccccccccccccccccccccccccccccccccccccccccccccccccccccccccccccccc" />
  <path
     style="fill:none;stroke:#16d0e1;stroke-width:0.5px;stroke-linecap:butt;stroke-linejoin:miter;stroke-opacity:1"
     d="m 995.19916,799.01088 9.28974,0.12567 9.3266,0.50887"
     id="DCC_MCD"
     inkscape:label="#path3070"
     inkscape:connector-curvature="0"
     sodipodi:nodetypes="ccc" />
  <path
     id="MCD_DCC"
     style="fill:none;stroke:#0002ff;stroke-width:0.5px;stroke-linecap:butt;stroke-linejoin:miter;stroke-opacity:1"
     d="m 963.13382,800.15481 10.42752,0.0598 6.98057,0.0401 7.56728,0.0434 6.64373,0.0381 8.75208,0.0502 7.5602,0.21235 8.8446,0.24843 4.0558,1.06838 4.0731,1.59848 3.9504,2.12742 3.995,2.84066 3.9852,3.65537 3.4567,4.34105 1.7641,11.08779 0.2776,8.92052 0.3548,7.66965 0.3458,6.0366 -0.1079,5.49369 0.5846,5.47407 0,7.70393 0.2592,5.26015 0.4867,6.72781 0.213,7.12631 0.3028,5.96879 0.3319,6.66464 0.5326,16.18602 0.9613,23.10493 0.4554,8.29882 0.1564,5.12239 0.2935,11.26601 0.4642,9.1889 0.3439,10.34679 0.5337,11.48493 0.6961,16.04891 0.558,11.5881 0.587,11.9121 0.5698,12.147 0.342,13.457 0.5561,11.7385 1.0634,22.3629 0.2741,6.6055 0.755,5.1179 3.236,28.4029 3.7591,8.8629 4.3702,9.3262 4.0339,8.6193 3.4871,7.2818 3.8535,7.6395 1.863,3.974 1.8376,3.9959 1.5188,4.0527 1.4544,4.181 1.499,4.2159 1.4734,4.2273 1.4646,4.2394 1.3536,4.0982 1.2452,4.2463 1.1503,4.1558 1.1935,4.116 1.114,4.1697 1.1374,4.2723 1.0692,4.1035 0.9825,4.0498 0.9198,4.0932 1.0029,4.29 0.9158,4.0737 0.8224,4.1599 0.8238,4.1781 0.7199,4.2375 0.6926,4.0598 0.6498,4.3069 0.6196,4.2273 0.5471,4.0758 0.5577,4.1766 0.5545,4.1736 0.4934,4.2302 0.4304,4.1412 0.4017,4.1344 0.3375,4.1254 0.3752,4.2094 0.3555,4.1873 0.2831,3.9599 0.2326,4.1736 0.1738,4.0857 0.1661,4.1513 0.1186,4.1464 0.1626,4.2562 0.016,4.0844 0.023,3.9127 -0.018,4.1101 0.016,4.0894 -0.1335,4.0708 -0.04,4.0994 -0.031,4.1007 -0.037,4.1642 -0.012,4.0728 -0.059,4.1734 -9e-4,4.1678 -0.072,4.0913 0.031,4.2101 -0.063,4.1913 -0.1456,4.0995 -0.089,4.0826 -0.071,4.2087 -0.159,4.0762 -0.1255,4.1935 -0.2151,4.1584 -0.2096,4.0022 -0.208,4.2573 -0.2383,4.1023 -0.2293,4.2182 -0.2408,4.1969 -0.2564,4.17 -0.2878,4.015 -0.374,4.2916 -0.3536,4.1471 -0.3526,4.1385 -0.3648,4.3217 -0.3714,4.0698 -0.3905,4.192 -0.4256,4.179 -0.4043,4.1593 -0.3875,4.0424 -0.3969,4.2268 -0.3845,4.1085 0.4986,5.2246 0.4563,4.7816 0.4005,4.1978 0.4506,4.7216 3.261,6.5898 3.2609,6.5898 3.2215,8.4078 3.2215,8.4078 3.2214,8.4078 3.2215,8.4078 3.2215,8.4078 3.2215,8.4078 3.2214,8.4077 3.2215,8.4078 3.2215,8.4078 3.2214,8.4078 3.2215,8.4078 3.2214,8.4078 3.2215,8.4078 3.2215,8.4078 3.2214,8.4078 2.0322,6.2671 1.6925,6.872 0.5032,4.7314 0.5032,4.7313 0.5032,4.7314 0.6899,5.9281 0.6899,5.9282 0.6899,5.9281 0.6899,5.9282 0.6279,5.8746 0.6279,5.8745 0.6279,5.8746 0.6279,5.8746 0.046,1.8658 0.046,1.8657 0.046,1.8658 0.046,1.8658 0,2.0587 0,2.0587 0,2.0588 0,2.0587 -0.1673,2.5957 -0.1673,2.5958 -0.1673,2.5957 -0.1673,2.5958 -6.6982,12.2788 -8.4749,8.9621 -8.2802,6.6035 -12.7646,2.1782 -10.8884,-0.1104 -13.6821,-0.1981 -12.9637,0.078 -9.1753,-3.5916 -3.8084,-4.1743 -9.0784,-10.7516 -5.3676,-10.3781 -2.4302,-7.7807 -3.2456,-10.4876"
     inkscape:connector-curvature="0"
     sodipodi:nodetypes="ccccccccccccccccccccccccccccccccccccccccccccccccccccccccccccccccccccccccccccccccccccccccccccccccccccccccccccccccccccccccccccccccccccccccccccccccccccccccccccccccccccccccccccccccccccccccc" />
  <path
     style="fill:none;stroke:#00ff1a;stroke-width:0.5px;stroke-linecap:butt;stroke-linejoin:miter;stroke-opacity:1"
     d="m 1065.5358,1735.3286 -3.1252,-23.4717 -1.5058,-12.865 0.083,-10.3339 1.2711,-7.7321 1.591,-5.5603 2.9902,-8.3572 3.5197,-9.8369 4.644,-15.1856 4.5907,-13.2805"
     id="DCC_END"
     inkscape:label="#DCC_START"
     inkscape:connector-curvature="0"
     sodipodi:nodetypes="cccccccccc" />
  <path
     style="fill:none;stroke:#000000;stroke-width:0.5px;stroke-linecap:butt;stroke-linejoin:miter;stroke-opacity:1"
     d="m 386.82551,1195.4807 -0.3363,-8.073 6.0548,-68.2847 3.0274,-30.274 3.0273,-24.5555 3.0274,-19.5099 5.382,-41.0381 5.3821,-19.50985 5.7185,-12.7824 8.4094,-14.1278 7.7367,-11.4369 4.3728,-9.7549 1.682,-7.7367 2.6909,-13.4552 1.0092,-17.15518 -2.0182,-14.4643 -3.0274,-12.1096 -3.7002,-13.7914 -1.04293,-16.00679 -6.90064,-45.88671 -4.45453,-16.34319 -3.44553,-12.24891 -3.66627,-12.4459 1.0091,-9.0822 1.0091,-9.0823 3.3639,-8.7458 4.3728,-6.7275 6.0548,-8.7459 9.0823,-8.4094 9.0822,-5.7184 9.0821,-4.0365 11.4368,-4.7093 10.4278,-2.3547 11.7732,-1.0091 14.4642,0.6728 15.8097,2.0182 21.8646,3.0274 24.2192,4.7093 14.8007,3.0274 14.1278,1.6819 14.8006,1.0091 11.7732,2.691 14.1279,5.3821 15.4734,5.7184 10.0913,3.3638 11.4368,2.3546 8.0731,0.6728"
     id="EA_DCC"
     inkscape:connector-curvature="0"
     inkscape:label="#path3086"
     sodipodi:nodetypes="ccccccccccccccccccccccccccccccccccccccccccccccc" />
  <path
     style="fill:none;stroke:#000000;stroke-width:0.5px;stroke-linecap:butt;stroke-linejoin:miter;stroke-opacity:1"
     d="m 597.57738,1324.792 -9.58175,4.0775 -4.19283,2.6501"
     id="EA_END3"
     inkscape:connector-curvature="0"
     inkscape:label="#path3106"
     sodipodi:nodetypes="ccc" />
  <path
     style="fill:none;stroke:#000000;stroke-width:0.5px;stroke-linecap:butt;stroke-linejoin:miter;stroke-opacity:1"
     d="m 470.87154,1297.3827 -8.49103,9.6057 -6.14621,7.3666 -2.22527,8.4571"
     id="EA_END2"
     inkscape:connector-curvature="0"
     inkscape:label="#path3108"
     sodipodi:nodetypes="cccc" />
  <path
     style="fill:none;stroke:#000000;stroke-width:0.5px;stroke-linecap:butt;stroke-linejoin:miter;stroke-opacity:1"
     d="m 447.86939,1348.2728 -33.42503,11.7394 -12.47688,13.1089 -5.7184,10.7641 -1.6819,11.4368 3.0274,13.7915 6.3912,6.7275 10.0913,7.4003 16.1461,2.3547 16.4825,-5.382 8.0731,-7.7367 8.0731,-15.8097 2.3546,-18.1645 -0.3364,-18.1643 -0.3364,-20.8555"
     id="EA_START"
     inkscape:connector-curvature="0"
     inkscape:label="#path3110"
     sodipodi:nodetypes="ccccccccccccccc" />
  <path
     style="fill:none;stroke:#000000;stroke-width:0.5px;stroke-linecap:butt;stroke-linejoin:miter;stroke-opacity:1"
     d="m 529.33282,1500.2799 -8.073,3.7001 -10.0913,4.0365 -5.382,5.0457"
     id="EA_START2"
     inkscape:connector-curvature="0"
     inkscape:label="#path3112" />
  <path
     style="fill:none;stroke:#000000;stroke-width:0.5px;stroke-linecap:butt;stroke-linejoin:miter;stroke-opacity:1"
     d="m 653.53068,1431.5168 -7.7367,8.4094 -6.0547,7.4003 -5.7185,10.7641 -1.6818,11.4369 3.0274,13.7914 6.3911,6.7276 10.0913,7.4003 16.1461,2.3546 16.4825,-5.382 8.0732,-7.7367 8.073,-15.8098 2.3546,-18.1643 -0.3363,-9.0822 -0.3364,-12.7824"
     id="EA_E3A"
     inkscape:connector-curvature="0"
     inkscape:label="#path3110"
     sodipodi:nodetypes="ccccccccccccccc" />
  <path
     style="fill:none;stroke:#000000;stroke-width:0.5px;stroke-linecap:butt;stroke-linejoin:miter;stroke-opacity:1"
     d="m 635.41362,1322.6645 -0.3365,-8.7458 -0.6727,-6.3912"
     id="E3A_EA"
     inkscape:connector-curvature="0"
     inkscape:label="#path3132" />
  <path
     style="fill:none;stroke:#000000;stroke-width:0.5px;stroke-linecap:butt;stroke-linejoin:miter;stroke-opacity:1"
     d="m 611.09096,792.59899 -10.7641,0.3363 -12.7824,0 -3.3637,-0.3363"
     id="DCC_START2"
     inkscape:connector-curvature="0"
     inkscape:label="#path3082" />
  <path
     style="fill:none;stroke:#000000;stroke-width:0.5px;stroke-linecap:butt;stroke-linejoin:miter;stroke-opacity:1"
     d="m 559.31128,1442.1964 -6.7276,3.3638 -5.382,3.3637"
     id="EA_END"
     inkscape:connector-curvature="0"
     inkscape:label="#path3106" />
  <path
     style="fill:none;stroke:#000000;stroke-width:1px;stroke-linecap:butt;stroke-linejoin:miter;stroke-opacity:1"
     d="m 495.66726,1158.3301 8.087,9.9899 4.2814,11.4171 3.8057,8.087 7.6114,12.3685 8.087,20.9312 20.4556,16.6499 19.9798,-6.66 9.9899,-8.5628 0.9514,-11.8927 -1.4271,-12.8442 -0.4757,-14.747 -5.2328,-15.6984 -6.66,-6.6599 -15.2227,-7.6114 -12.3685,-0.4757 -11.417,1.4271 -13.3199,-0.9514"
     id="DCC_END2"
     inkscape:connector-curvature="0"
     sodipodi:nodetypes="cccccccccccccccccc"
     inkscape:label="#path3064" />
</svg>
