<?xml version="1.0" encoding="UTF-8" standalone="no"?>
<svg
   xmlns:dc="http://purl.org/dc/elements/1.1/"
   xmlns:cc="http://creativecommons.org/ns#"
   xmlns:rdf="http://www.w3.org/1999/02/22-rdf-syntax-ns#"
   xmlns:svg="http://www.w3.org/2000/svg"
   xmlns="http://www.w3.org/2000/svg"
   xmlns:xlink="http://www.w3.org/1999/xlink"
   xmlns:sodipodi="http://sodipodi.sourceforge.net/DTD/sodipodi-0.dtd"
   xmlns:inkscape="http://www.inkscape.org/namespaces/inkscape"
   sodipodi:docname="utown_momdp.svg"
   height="2832"
   width="2000"
   inkscape:version="0.48.3.1 r9886"
   id="svg2"
   version="1.1">
  <sodipodi:namedview
     pagecolor="#ffffff"
     bordercolor="#666666"
     borderopacity="1"
     objecttolerance="10"
     gridtolerance="10"
     guidetolerance="10"
     inkscape:pageopacity="0"
     inkscape:pageshadow="2"
     inkscape:window-width="1535"
     inkscape:window-height="876"
     id="namedview32"
     showgrid="false"
     inkscape:zoom="2.9728492"
     inkscape:cx="1148.9136"
     inkscape:cy="1279.8019"
     inkscape:window-x="65"
     inkscape:window-y="24"
     inkscape:window-maximized="1"
     inkscape:current-layer="svg2"
     showguides="true"
     inkscape:guide-bbox="true" />
  <metadata
     id="metadata36">
    <rdf:RDF>
      <cc:Work
         rdf:about="">
        <dc:format>image/svg+xml</dc:format>
        <dc:type
           rdf:resource="http://purl.org/dc/dcmitype/StillImage" />
        <dc:title>Paths of the golfcar</dc:title>
      </cc:Work>
    </rdf:RDF>
  </metadata>
  <defs
     id="defs34">
    <marker
       inkscape:stockid="Arrow2Lend"
       orient="auto"
       refY="0.0"
       refX="0.0"
       id="Arrow2Lend"
       style="overflow:visible;">
      <path
         id="path3964"
         style="fill-rule:evenodd;stroke-width:0.62500000;stroke-linejoin:round;"
         d="M 8.7185878,4.0337352 L -2.2072895,0.016013256 L 8.7185884,-4.0017078 C 6.9730900,-1.6296469 6.9831476,1.6157441 8.7185878,4.0337352 z "
         transform="scale(1.1) rotate(180) translate(1,0)" />
    </marker>
    <marker
       inkscape:stockid="Arrow1Send"
       orient="auto"
       refY="0.0"
       refX="0.0"
       id="Arrow1Send"
       style="overflow:visible;">
      <path
         id="path6236"
         d="M 0.0,0.0 L 5.0,-5.0 L -12.5,0.0 L 5.0,5.0 L 0.0,0.0 z "
         style="fill-rule:evenodd;stroke:#000000;stroke-width:1.0pt;marker-start:none;"
         transform="scale(0.2) rotate(180) translate(6,0)" />
    </marker>
    <marker
       inkscape:stockid="Arrow1Sstart"
       orient="auto"
       refY="0.0"
       refX="0.0"
       id="Arrow1Sstart"
       style="overflow:visible">
      <path
         id="path6233"
         d="M 0.0,0.0 L 5.0,-5.0 L -12.5,0.0 L 5.0,5.0 L 0.0,0.0 z "
         style="fill-rule:evenodd;stroke:#000000;stroke-width:1.0pt;marker-start:none"
         transform="scale(0.2) translate(6,0)" />
    </marker>
    <inkscape:path-effect
       steps="5"
       equidistant_spacing="true"
       trajectory="M 0,0 0,0"
       is_visible="true"
       id="path-effect3660"
       effect="interpolate" />
    <inkscape:path-effect
       phi="5"
       teeth="10"
       is_visible="true"
       id="path-effect3658"
       effect="gears" />
    <marker
       style="overflow:visible"
       id="DotM"
       refX="0.0"
       refY="0.0"
       orient="auto"
       inkscape:stockid="DotM">
      <path
         transform="scale(0.4) translate(7.4, 1)"
         style="fill-rule:evenodd;stroke:#000000;stroke-width:1.0pt;marker-start:none;marker-end:none"
         d="M -2.5,-1.0 C -2.5,1.7600000 -4.7400000,4.0 -7.5,4.0 C -10.260000,4.0 -12.5,1.7600000 -12.5,-1.0 C -12.5,-3.7600000 -10.260000,-6.0 -7.5,-6.0 C -4.7400000,-6.0 -2.5,-3.7600000 -2.5,-1.0 z "
         id="path3704" />
    </marker>
    <marker
       style="overflow:visible"
       id="DotL"
       refX="0.0"
       refY="0.0"
       orient="auto"
       inkscape:stockid="DotL">
      <path
         transform="scale(0.8) translate(7.4, 1)"
         style="fill-rule:evenodd;stroke:#000000;stroke-width:1.0pt;marker-start:none;marker-end:none"
         d="M -2.5,-1.0 C -2.5,1.7600000 -4.7400000,4.0 -7.5,4.0 C -10.260000,4.0 -12.5,1.7600000 -12.5,-1.0 C -12.5,-3.7600000 -10.260000,-6.0 -7.5,-6.0 C -4.7400000,-6.0 -2.5,-3.7600000 -2.5,-1.0 z "
         id="path3701" />
    </marker>
    <marker
       style="overflow:visible;"
       id="Arrow1Lend"
       refX="0.0"
       refY="0.0"
       orient="auto"
       inkscape:stockid="Arrow1Lend">
      <path
         transform="scale(0.8) rotate(180) translate(12.5,0)"
         style="fill-rule:evenodd;stroke:#000000;stroke-width:1.0pt;marker-start:none;"
         d="M 0.0,0.0 L 5.0,-5.0 L -12.5,0.0 L 5.0,5.0 L 0.0,0.0 z "
         id="path3642" />
    </marker>
    <marker
       style="overflow:visible"
       id="Arrow1Lstart"
       refX="0.0"
       refY="0.0"
       orient="auto"
       inkscape:stockid="Arrow1Lstart">
      <path
         transform="scale(0.8) translate(12.5,0)"
         style="fill-rule:evenodd;stroke:#000000;stroke-width:1.0pt;marker-start:none"
         d="M 0.0,0.0 L 5.0,-5.0 L -12.5,0.0 L 5.0,5.0 L 0.0,0.0 z "
         id="path3639" />
    </marker>
    <inkscape:path-effect
       crossing_points_vector=""
       switcher_size="15"
       add_other_stroke_width="true"
       add_stroke_width="true"
       prop_to_stroke_width="true"
       interruption_width="3.6"
       is_visible="true"
       id="path-effect2862"
       effect="knot" />
    <inkscape:path-effect
       crossing_points_vector=""
       switcher_size="15"
       add_other_stroke_width="true"
       add_stroke_width="true"
       prop_to_stroke_width="true"
       interruption_width="3"
       is_visible="true"
       id="path-effect2860"
       effect="knot" />
    <inkscape:path-effect
       steps="5"
       equidistant_spacing="true"
       trajectory="M 0,0 0,0"
       is_visible="true"
       id="path-effect2858"
       effect="interpolate" />
    <inkscape:path-effect
       bendpath4="m 1068.3624,2136.3724 0,121.4273"
       bendpath3="m 1068.3624,2257.7997 48.7175,0"
       bendpath2="m 1117.0799,2136.3724 0,121.4273"
       bendpath1="m 1068.3624,2136.3724 48.7175,0"
       xx="true"
       yy="true"
       is_visible="true"
       id="path-effect2856"
       effect="envelope" />
    <inkscape:path-effect
       tgtlength_rdm="0.3;1"
       tgtlength="100"
       tgtscale="10"
       tgt_places_rdmness="1;1"
       nbtangents="5"
       tremble_frequency="1"
       tremble_size="5;1"
       parallel_offset="5;1"
       ends_tolerance="0.1;1"
       strokeoverlap_rdm="0.3;1"
       strokeoverlap="0.3"
       strokelength_rdm="0.3;1"
       strokelength="100"
       nbiter_approxstrokes="5"
       is_visible="true"
       id="path-effect2854"
       effect="sketch" />
    <inkscape:path-effect
       border_marks="both"
       mark_dir="left"
       offset="0"
       shift="0"
       major_mark_steps="5"
       minor_mark_length="7"
       mark_length="14"
       mark_distance="20"
       unit="px"
       is_visible="true"
       id="path-effect2852"
       effect="ruler" />
    <inkscape:path-effect
       border_marks="both"
       mark_dir="left"
       offset="0"
       shift="0"
       major_mark_steps="5"
       minor_mark_length="7"
       mark_length="14"
       mark_distance="20"
       unit="px"
       is_visible="true"
       id="path-effect2850"
       effect="ruler" />
    <inkscape:path-effect
       phi="5"
       teeth="10"
       is_visible="true"
       id="path-effect2848"
       effect="gears" />
    <inkscape:perspective
       id="perspective38"
       inkscape:persp3d-origin="1528.5 : 1178.6667 : 1"
       inkscape:vp_z="3057 : 1768 : 1"
       inkscape:vp_y="0 : 1000 : 0"
       inkscape:vp_x="0 : 1768 : 1"
       sodipodi:type="inkscape:persp3d" />
    <inkscape:perspective
       sodipodi:type="inkscape:persp3d"
       inkscape:vp_x="0 : 0.5 : 1"
       inkscape:vp_y="0 : 1000 : 0"
       inkscape:vp_z="1 : 0.5 : 1"
       inkscape:persp3d-origin="0.5 : 0.33333333 : 1"
       id="perspective2947" />
    <inkscape:perspective
       sodipodi:type="inkscape:persp3d"
       inkscape:vp_x="0 : 0.5 : 1"
       inkscape:vp_y="0 : 1000 : 0"
       inkscape:vp_z="1 : 0.5 : 1"
       inkscape:persp3d-origin="0.5 : 0.33333333 : 1"
       id="perspective2824" />
    <inkscape:perspective
       sodipodi:type="inkscape:persp3d"
       inkscape:vp_x="0 : 0.5 : 1"
       inkscape:vp_y="0 : 1000 : 0"
       inkscape:vp_z="1 : 0.5 : 1"
       inkscape:persp3d-origin="0.5 : 0.33333333 : 1"
       id="perspective2960" />
    <inkscape:perspective
       sodipodi:type="inkscape:persp3d"
       inkscape:vp_x="0 : 0.5 : 1"
       inkscape:vp_y="0 : 1000 : 0"
       inkscape:vp_z="1 : 0.5 : 1"
       inkscape:persp3d-origin="0.5 : 0.33333333 : 1"
       id="perspective3024" />
    <inkscape:perspective
       sodipodi:type="inkscape:persp3d"
       inkscape:vp_x="0 : 0.5 : 1"
       inkscape:vp_y="0 : 1000 : 0"
       inkscape:vp_z="1 : 0.5 : 1"
       inkscape:persp3d-origin="0.5 : 0.33333333 : 1"
       id="perspective3088" />
    <inkscape:perspective
       sodipodi:type="inkscape:persp3d"
       inkscape:vp_x="0 : 0.5 : 1"
       inkscape:vp_y="0 : 1000 : 0"
       inkscape:vp_z="1 : 0.5 : 1"
       inkscape:persp3d-origin="0.5 : 0.33333333 : 1"
       id="perspective3152" />
    <inkscape:perspective
       sodipodi:type="inkscape:persp3d"
       inkscape:vp_x="0 : 0.5 : 1"
       inkscape:vp_y="0 : 1000 : 0"
       inkscape:vp_z="1 : 0.5 : 1"
       inkscape:persp3d-origin="0.5 : 0.33333333 : 1"
       id="perspective3216" />
    <inkscape:perspective
       sodipodi:type="inkscape:persp3d"
       inkscape:vp_x="0 : 0.5 : 1"
       inkscape:vp_y="0 : 1000 : 0"
       inkscape:vp_z="1 : 0.5 : 1"
       inkscape:persp3d-origin="0.5 : 0.33333333 : 1"
       id="perspective3280" />
    <inkscape:perspective
       sodipodi:type="inkscape:persp3d"
       inkscape:vp_x="0 : 0.5 : 1"
       inkscape:vp_y="0 : 1000 : 0"
       inkscape:vp_z="1 : 0.5 : 1"
       inkscape:persp3d-origin="0.5 : 0.33333333 : 1"
       id="perspective3344" />
    <inkscape:perspective
       sodipodi:type="inkscape:persp3d"
       inkscape:vp_x="0 : 0.5 : 1"
       inkscape:vp_y="0 : 1000 : 0"
       inkscape:vp_z="1 : 0.5 : 1"
       inkscape:persp3d-origin="0.5 : 0.33333333 : 1"
       id="perspective3408" />
    <inkscape:perspective
       sodipodi:type="inkscape:persp3d"
       inkscape:vp_x="0 : 0.5 : 1"
       inkscape:vp_y="0 : 1000 : 0"
       inkscape:vp_z="1 : 0.5 : 1"
       inkscape:persp3d-origin="0.5 : 0.33333333 : 1"
       id="perspective3628" />
    <inkscape:perspective
       sodipodi:type="inkscape:persp3d"
       inkscape:vp_x="0 : 0.5 : 1"
       inkscape:vp_y="0 : 1000 : 0"
       inkscape:vp_z="1 : 0.5 : 1"
       inkscape:persp3d-origin="0.5 : 0.33333333 : 1"
       id="perspective2848" />
    <inkscape:perspective
       sodipodi:type="inkscape:persp3d"
       inkscape:vp_x="0 : 0.5 : 1"
       inkscape:vp_y="0 : 1000 : 0"
       inkscape:vp_z="1 : 0.5 : 1"
       inkscape:persp3d-origin="0.5 : 0.33333333 : 1"
       id="perspective3658" />
    <inkscape:perspective
       sodipodi:type="inkscape:persp3d"
       inkscape:vp_x="0 : 0.5 : 1"
       inkscape:vp_y="0 : 1000 : 0"
       inkscape:vp_z="1 : 0.5 : 1"
       inkscape:persp3d-origin="0.5 : 0.33333333 : 1"
       id="perspective3691" />
    <inkscape:perspective
       sodipodi:type="inkscape:persp3d"
       inkscape:vp_x="0 : 0.5 : 1"
       inkscape:vp_y="0 : 1000 : 0"
       inkscape:vp_z="1 : 0.5 : 1"
       inkscape:persp3d-origin="0.5 : 0.33333333 : 1"
       id="perspective3713" />
    <inkscape:perspective
       sodipodi:type="inkscape:persp3d"
       inkscape:vp_x="0 : 0.5 : 1"
       inkscape:vp_y="0 : 1000 : 0"
       inkscape:vp_z="1 : 0.5 : 1"
       inkscape:persp3d-origin="0.5 : 0.33333333 : 1"
       id="perspective3735" />
    <inkscape:perspective
       sodipodi:type="inkscape:persp3d"
       inkscape:vp_x="0 : 0.5 : 1"
       inkscape:vp_y="0 : 1000 : 0"
       inkscape:vp_z="1 : 0.5 : 1"
       inkscape:persp3d-origin="0.5 : 0.33333333 : 1"
       id="perspective3757" />
    <inkscape:perspective
       sodipodi:type="inkscape:persp3d"
       inkscape:vp_x="0 : 0.5 : 1"
       inkscape:vp_y="0 : 1000 : 0"
       inkscape:vp_z="1 : 0.5 : 1"
       inkscape:persp3d-origin="0.5 : 0.33333333 : 1"
       id="perspective2910" />
    <marker
       style="overflow:visible"
       id="DotM-1"
       refX="0"
       refY="0"
       orient="auto"
       inkscape:stockid="DotM">
      <path
         transform="matrix(0.4,0,0,0.4,2.96,0.4)"
         style="fill-rule:evenodd;stroke:#000000;stroke-width:1pt;marker-start:none;marker-end:none"
         d="m -2.5,-1 c 0,2.76 -2.24,5 -5,5 -2.76,0 -5,-2.24 -5,-5 0,-2.76 2.24,-5 5,-5 2.76,0 5,2.24 5,5 z"
         id="path3704-5" />
    </marker>
    <inkscape:perspective
       sodipodi:type="inkscape:persp3d"
       inkscape:vp_x="0 : 0.5 : 1"
       inkscape:vp_y="0 : 1000 : 0"
       inkscape:vp_z="1 : 0.5 : 1"
       inkscape:persp3d-origin="0.5 : 0.33333333 : 1"
       id="perspective3012" />
    <inkscape:perspective
       sodipodi:type="inkscape:persp3d"
       inkscape:vp_x="0 : 0.5 : 1"
       inkscape:vp_y="0 : 1000 : 0"
       inkscape:vp_z="1 : 0.5 : 1"
       inkscape:persp3d-origin="0.5 : 0.33333333 : 1"
       id="perspective2903" />
    <marker
       style="overflow:visible"
       id="DotM-5"
       refX="0"
       refY="0"
       orient="auto"
       inkscape:stockid="DotM">
      <path
         transform="matrix(0.4,0,0,0.4,2.96,0.4)"
         style="fill-rule:evenodd;stroke:#000000;stroke-width:1pt;marker-start:none;marker-end:none"
         d="m -2.5,-1 c 0,2.76 -2.24,5 -5,5 -2.76,0 -5,-2.24 -5,-5 0,-2.76 2.24,-5 5,-5 2.76,0 5,2.24 5,5 z"
         id="path3704-9" />
    </marker>
    <inkscape:perspective
       sodipodi:type="inkscape:persp3d"
       inkscape:vp_x="0 : 0.5 : 1"
       inkscape:vp_y="0 : 1000 : 0"
       inkscape:vp_z="1 : 0.5 : 1"
       inkscape:persp3d-origin="0.5 : 0.33333333 : 1"
       id="perspective2889" />
    <filter
       id="filter3830"
       inkscape:label="Colorize"
       inkscape:menu="Color"
       inkscape:menu-tooltip="Blend image or object with a flood color and set lightness and contrast"
       x="0"
       y="0"
       width="1"
       height="1"
       color-interpolation-filters="sRGB">
      <feColorMatrix
         id="feColorMatrix3832"
         values="1"
         in="SourceGraphic"
         type="saturate"
         result="result2" />
      <feFlood
         id="feFlood3834"
         flood-color="rgb(254,102,0)"
         flood-opacity="1"
         result="result1" />
      <feBlend
         id="feBlend3836"
         in2="result2"
         mode="multiply"
         in="result1"
         result="result3" />
      <feComposite
         id="feComposite3838"
         in2="SourceGraphic"
         operator="in"
         k2="1"
         result="result4" />
    </filter>
    <marker
       style="overflow:visible"
       id="DotM-7"
       refX="0"
       refY="0"
       orient="auto"
       inkscape:stockid="DotM">
      <path
         inkscape:connector-curvature="0"
         transform="matrix(0.4,0,0,0.4,2.96,0.4)"
         style="fill-rule:evenodd;stroke:#000000;stroke-width:1pt;marker-start:none;marker-end:none"
         d="m -2.5,-1 c 0,2.76 -2.24,5 -5,5 -2.76,0 -5,-2.24 -5,-5 0,-2.76 2.24,-5 5,-5 2.76,0 5,2.24 5,5 z"
         id="path3704-3" />
    </marker>
    <marker
       style="overflow:visible"
       id="DotM-70"
       refX="0"
       refY="0"
       orient="auto"
       inkscape:stockid="DotM">
      <path
         inkscape:connector-curvature="0"
         transform="matrix(0.4,0,0,0.4,2.96,0.4)"
         style="fill-rule:evenodd;stroke:#000000;stroke-width:1pt;marker-start:none;marker-end:none"
         d="m -2.5,-1 c 0,2.76 -2.24,5 -5,5 -2.76,0 -5,-2.24 -5,-5 0,-2.76 2.24,-5 5,-5 2.76,0 5,2.24 5,5 z"
         id="path3704-8" />
    </marker>
    <marker
       style="overflow:visible"
       id="DotM-70-2"
       refX="0"
       refY="0"
       orient="auto"
       inkscape:stockid="DotM">
      <path
         inkscape:connector-curvature="0"
         transform="matrix(0.4,0,0,0.4,2.96,0.4)"
         style="fill-rule:evenodd;stroke:#000000;stroke-width:1pt;marker-start:none;marker-end:none"
         d="m -2.5,-1 c 0,2.76 -2.24,5 -5,5 -2.76,0 -5,-2.24 -5,-5 0,-2.76 2.24,-5 5,-5 2.76,0 5,2.24 5,5 z"
         id="path3704-8-5" />
    </marker>
    <marker
       style="overflow:visible"
       id="Arrow1Lend-6"
       refX="0"
       refY="0"
       orient="auto"
       inkscape:stockid="Arrow1Lend">
      <path
         inkscape:connector-curvature="0"
         transform="matrix(-0.8,0,0,-0.8,-10,0)"
         style="fill-rule:evenodd;stroke:#000000;stroke-width:1pt;marker-start:none"
         d="M 0,0 5,-5 -12.5,0 5,5 0,0 z"
         id="path3642-7" />
    </marker>
    <marker
       style="overflow:visible"
       id="DotL-4"
       refX="0"
       refY="0"
       orient="auto"
       inkscape:stockid="DotL">
      <path
         inkscape:connector-curvature="0"
         transform="matrix(0.8,0,0,0.8,5.92,0.8)"
         style="fill-rule:evenodd;stroke:#000000;stroke-width:1pt;marker-start:none;marker-end:none"
         d="m -2.5,-1 c 0,2.76 -2.24,5 -5,5 -2.76,0 -5,-2.24 -5,-5 0,-2.76 2.24,-5 5,-5 2.76,0 5,2.24 5,5 z"
         id="path3701-4" />
    </marker>
    <marker
       style="overflow:visible"
       id="Arrow1Lend-1"
       refX="0"
       refY="0"
       orient="auto"
       inkscape:stockid="Arrow1Lend">
      <path
         inkscape:connector-curvature="0"
         transform="matrix(-0.8,0,0,-0.8,-10,0)"
         style="fill-rule:evenodd;stroke:#000000;stroke-width:1pt;marker-start:none"
         d="M 0,0 5,-5 -12.5,0 5,5 0,0 z"
         id="path3642-6" />
    </marker>
    <marker
       style="overflow:visible"
       id="DotL-6"
       refX="0"
       refY="0"
       orient="auto"
       inkscape:stockid="DotL">
      <path
         inkscape:connector-curvature="0"
         transform="matrix(0.8,0,0,0.8,5.92,0.8)"
         style="fill-rule:evenodd;stroke:#000000;stroke-width:1pt;marker-start:none;marker-end:none"
         d="m -2.5,-1 c 0,2.76 -2.24,5 -5,5 -2.76,0 -5,-2.24 -5,-5 0,-2.76 2.24,-5 5,-5 2.76,0 5,2.24 5,5 z"
         id="path3701-6" />
    </marker>
    <marker
       style="overflow:visible"
       id="Arrow1Lend-2"
       refX="0"
       refY="0"
       orient="auto"
       inkscape:stockid="Arrow1Lend">
      <path
         inkscape:connector-curvature="0"
         transform="matrix(-0.8,0,0,-0.8,-10,0)"
         style="fill-rule:evenodd;stroke:#000000;stroke-width:1pt;marker-start:none"
         d="M 0,0 5,-5 -12.5,0 5,5 0,0 z"
         id="path3642-63" />
    </marker>
    <marker
       style="overflow:visible"
       id="DotM-70-0"
       refX="0"
       refY="0"
       orient="auto"
       inkscape:stockid="DotM">
      <path
         inkscape:connector-curvature="0"
         transform="matrix(0.4,0,0,0.4,2.96,0.4)"
         style="fill-rule:evenodd;stroke:#000000;stroke-width:1pt;marker-start:none;marker-end:none"
         d="m -2.5,-1 c 0,2.76 -2.24,5 -5,5 -2.76,0 -5,-2.24 -5,-5 0,-2.76 2.24,-5 5,-5 2.76,0 5,2.24 5,5 z"
         id="path3704-8-6" />
    </marker>
    <marker
       style="overflow:visible"
       id="marker3103"
       refX="0"
       refY="0"
       orient="auto"
       inkscape:stockid="Arrow1Lend">
      <path
         inkscape:connector-curvature="0"
         transform="matrix(-0.8,0,0,-0.8,-10,0)"
         style="fill-rule:evenodd;stroke:#000000;stroke-width:1pt;marker-start:none"
         d="M 0,0 5,-5 -12.5,0 5,5 0,0 z"
         id="path3105" />
    </marker>
  </defs>
  <title
     id="title4">Paths of the golfcar</title>
  <desc
     id="desc6">The paths consist of all the possible route that can be taken by the golfcart to serve 4 stations: DCC, MCD, EA and E3A</desc>
  <image
     sodipodi:absref="/home/golfcar/smartfm/bookingUI/shared/SvgPath/utown_momdp.png"
     xlink:href="utown_momdp.png"
     style="fill:none;font-size:14px;stroke:#000000;stroke-opacity:1"
     width="2000"
     height="2832"
     id="map"
     x="0"
     y="0"
     inkscape:label="#image3014" />
  <path
     style="fill:none;stroke:#000000;stroke-width:0.5px;stroke-linecap:butt;stroke-linejoin:miter;stroke-opacity:1"
     d="m 350.17469,1697.4002 2.9458,7.3425 2.3307,7.3666 7.8183,9.5649 13.1666,9.6057 8.9667,6.6768 14.0533,-6.225 7.6552,-12.9187 1.4201,-8.7698 0.058,-9.344 -2.9529,-32.7593 -1.2878,-18.9636"
     id="DCC_EA"
     inkscape:connector-curvature="0"
     inkscape:label="#path3076"
     sodipodi:nodetypes="cccccccccccc" />
  <path
     style="fill:none;stroke:#000000;stroke-width:0.5px;stroke-linecap:butt;stroke-linejoin:miter;stroke-opacity:1"
     d="m 569.6328,1027.9119 -4.7093,1.3456 -4.3729,2.6909 -1.6819,3.7002 1.0091,3.3638 1.6819,4.7093 2.0183,3.7001"
     id="DCC_EA3"
     inkscape:connector-curvature="0"
     inkscape:label="#path3084" />
  <path
     style="fill:none;stroke:#000000;stroke-width:0.5px;stroke-linecap:butt;stroke-linejoin:miter;stroke-opacity:1"
     d="m 386.82551,1195.4807 -0.3363,-8.073 6.0548,-68.2847 3.0274,-30.274 3.0273,-24.5555 3.0274,-19.5099 5.382,-41.0381 5.3821,-19.50985 5.7185,-12.7824 8.4094,-14.1278 7.7367,-11.4369 4.3728,-9.7549 1.682,-7.7367 2.6909,-13.4552 1.0092,-17.15518 -2.0182,-14.4643 -3.0274,-12.1096 -3.7002,-13.7914 -1.04293,-16.00679 -6.90064,-45.88671 -4.45453,-16.34319 -3.44553,-12.24891 -3.66627,-12.4459 1.0091,-9.0822 1.0091,-9.0823 3.3639,-8.7458 4.3728,-6.7275 6.0548,-8.7459 9.0823,-8.4094 9.0822,-5.7184 9.0821,-4.0365 11.4368,-4.7093 10.4278,-2.3547 11.7732,-1.0091 14.4642,0.6728 15.8097,2.0182 21.8646,3.0274 24.2192,4.7093 14.8007,3.0274 14.1278,1.6819 14.8006,1.0091 11.7732,2.691 14.1279,5.3821 15.4734,5.7184 10.0913,3.3638 11.4368,2.3546 8.0731,0.6728"
     id="EA_DCC"
     inkscape:connector-curvature="0"
     inkscape:label="#path3086"
     sodipodi:nodetypes="ccccccccccccccccccccccccccccccccccccccccccccccc" />
  <path
     style="fill:none;stroke:#000000;stroke-width:0.5px;stroke-linecap:butt;stroke-linejoin:miter;stroke-opacity:1"
     d="m 597.57738,1324.792 -9.58175,4.0775 -4.19283,2.6501"
     id="EA_END3"
     inkscape:connector-curvature="0"
     inkscape:label="#path3106"
     sodipodi:nodetypes="ccc" />
  <path
     style="fill:none;stroke:#000000;stroke-width:0.5px;stroke-linecap:butt;stroke-linejoin:miter;stroke-opacity:1"
     d="m 470.87154,1297.3827 -8.49103,9.6057 -6.14621,7.3666 -2.22527,8.4571"
     id="EA_END2"
     inkscape:connector-curvature="0"
     inkscape:label="#path3108"
     sodipodi:nodetypes="cccc" />
  <path
     style="fill:none;stroke:#000000;stroke-width:0.5px;stroke-linecap:butt;stroke-linejoin:miter;stroke-opacity:1"
     d="m 447.86939,1348.2728 -33.42503,11.7394 -12.47688,13.1089 -5.7184,10.7641 -1.6819,11.4368 3.0274,13.7915 6.3912,6.7275 10.0913,7.4003 16.1461,2.3547 16.4825,-5.382 8.0731,-7.7367 8.0731,-15.8097 2.3546,-18.1645 -0.3364,-18.1643 -0.3364,-20.8555"
     id="EA_START"
     inkscape:connector-curvature="0"
     inkscape:label="#path3110"
     sodipodi:nodetypes="ccccccccccccccc" />
  <path
     style="fill:none;stroke:#000000;stroke-width:0.5px;stroke-linecap:butt;stroke-linejoin:miter;stroke-opacity:1"
     d="m 529.33282,1500.2799 -8.073,3.7001 -10.0913,4.0365 -5.382,5.0457"
     id="EA_START2"
     inkscape:connector-curvature="0"
     inkscape:label="#path3112" />
  <path
     style="fill:none;stroke:#000000;stroke-width:0.5px;stroke-linecap:butt;stroke-linejoin:miter;stroke-opacity:1"
     d="m 653.53068,1431.5168 -7.7367,8.4094 -6.0547,7.4003 -5.7185,10.7641 -1.6818,11.4369 3.0274,13.7914 6.3911,6.7276 10.0913,7.4003 16.1461,2.3546 16.4825,-5.382 8.0732,-7.7367 8.073,-15.8098 2.3546,-18.1643 -0.3363,-9.0822 -0.3364,-12.7824"
     id="EA_E3A"
     inkscape:connector-curvature="0"
     inkscape:label="#path3110"
     sodipodi:nodetypes="ccccccccccccccc" />
  <path
     style="fill:none;stroke:#000000;stroke-width:0.5px;stroke-linecap:butt;stroke-linejoin:miter;stroke-opacity:1"
     d="m 635.41362,1322.6645 -0.3365,-8.7458 -0.6727,-6.3912"
     id="E3A_EA"
     inkscape:connector-curvature="0"
     inkscape:label="#path3132" />
  <path
     style="fill:none;stroke:#000000;stroke-width:0.5px;stroke-linecap:butt;stroke-linejoin:miter;stroke-opacity:1"
     d="m 611.09096,792.59899 -10.7641,0.3363 -12.7824,0 -3.3637,-0.3363"
     id="DCC_START2"
     inkscape:connector-curvature="0"
     inkscape:label="#path3082" />
  <path
     style="fill:none;stroke:#000000;stroke-width:0.5px;stroke-linecap:butt;stroke-linejoin:miter;stroke-opacity:1"
     d="m 559.31128,1442.1964 -6.7276,3.3638 -5.382,3.3637"
     id="EA_END"
     inkscape:connector-curvature="0"
     inkscape:label="#path3106" />
  <path
     style="fill:none;stroke:#000000;stroke-width:1px;stroke-linecap:butt;stroke-linejoin:miter;stroke-opacity:1"
     d="m 495.66726,1158.3301 8.087,9.9899 4.2814,11.4171 3.8057,8.087 7.6114,12.3685 8.087,20.9312 20.4556,16.6499 19.9798,-6.66 9.9899,-8.5628 0.9514,-11.8927 -1.4271,-12.8442 -0.4757,-14.747 -5.2328,-15.6984 -6.66,-6.6599 -15.2227,-7.6114 -12.3685,-0.4757 -11.417,1.4271 -13.3199,-0.9514"
     id="DCC_END2"
     inkscape:connector-curvature="0"
     sodipodi:nodetypes="cccccccccccccccccc"
     inkscape:label="#path3064" />
  <path
     style="fill:none;stroke:#000000;stroke-width:3.000911;stroke-linecap:butt;stroke-linejoin:miter;stroke-miterlimit:4;stroke-opacity:1;stroke-dasharray:none;marker-start:url(#DotM-70);marker-end:url(#Arrow1Lend)"
     d="m 1410.4082,1654.5518 -22.5225,-7.6452 -22.5218,-7.6449 -22.5226,-7.6454 -22.5222,-7.6449 -21.5883,-6.8159 -21.5884,-6.816 -21.5883,-6.8159 -21.5882,-6.8158"
     id="DCC_START"
     inkscape:connector-curvature="0"
     inkscape:label="#path3885"
     sodipodi:nodetypes="ccccccccc" />
  <path
     style="fill:none;stroke:#000000;stroke-width:5.31055832;stroke-linecap:butt;stroke-linejoin:miter;stroke-miterlimit:4;stroke-opacity:1;stroke-dasharray:none;marker-start:url(#DotL);marker-mid:none;marker-end:url(#Arrow1Lend-1)"
     d="m 1231.2228,1597.0359 -34.7174,-24.2962 -24.1056,-16.6292 -22.6532,-18.3238 -15.6316,-17.2215 -11.5346,-13.1292 -16.7712,-20.2622 -20.2802,-20.9817 -26.5933,-22.7672"
     id="DCC_MCD"
     inkscape:connector-curvature="0"
     sodipodi:nodetypes="ccccccccc"
     inkscape:label="#path4689" />
  <path
     style="fill:none;stroke:#ffff00;stroke-width:0.5px;stroke-linecap:butt;stroke-linejoin:miter;stroke-opacity:1"
     d="m 1423.614,1256.7096 3,-7 -0.5,-12 -1.25,-5 -2.25,-5 -2.8516,-5 -4.7091,-5 -7.4393,-5 -7.8839,-2.0504 -12.1161,-0.25"
     inkscape:connector-curvature="0"
     inkscape:label="#path3080"
     sodipodi:nodetypes="cccccccccc"
     id="MCD_DCC" />
  <path
     style="fill:none;stroke:#000000;stroke-width:0.57400507px;stroke-linecap:butt;stroke-linejoin:miter;stroke-opacity:1"
     d="m 1386.6519,1211.0506 -11.0379,0.057 -10,0.2187"
     id="DCC_END"
     inkscape:connector-curvature="0"
     inkscape:label="#path3082"
     sodipodi:nodetypes="ccc" />
  <path
     style="fill:none;stroke:#0000ff;stroke-width:0.5px;stroke-linecap:butt;stroke-linejoin:miter;stroke-opacity:1"
     d="m 1333.1551,1216.7096 -10.5411,0 -12.6876,0.3113 -10.4851,1.7132 -10.8667,2.4374 -11.9074,3.4503 -13.0694,7.7831 -12.9838,8.3047 -11,11 -13,10 -11,8 -11,9 -10,7 -8,8 -9,8 -9,10 -9,12 -7,9 -6,11 -3,8 -4,13 -5,22 -2,15 -2,11 -2,14 -3,21 -3,19 -2,13 -2,14 -2,12 -2,14 -2.6541,20.7631 -2.6321,20.538 -3.5274,31.01 -3.199,34.8839 -2.9115,34.1119 -3.0901,45.9857"
     id="DCC_EA-2"
     inkscape:connector-curvature="0"
     inkscape:label="#path3086"
     sodipodi:nodetypes="ccccccccccccccccccccccccccccccccccccc" />
  <path
     style="fill:none;stroke:#00ff00;stroke-width:0.5px;stroke-linecap:butt;stroke-linejoin:miter;stroke-opacity:1"
     d="m 1097.614,1732.7096 9.6471,-133.4074 1.9667,-18.9796 4.4981,-38.74 2.2001,-19.1564 3.0151,-13.4037 2.0026,-14.5457 2.4119,-14.2867 1.0444,-9.9406 2.182,-11.5865 1.9838,-10.2733 1.4752,-10.0323 1.5513,-13.5982 1.5473,-12.4025 2.1246,-10.3808 3.9068,-23.4314 2.4638,-14.0041 3.8175,-10.0187 3.2855,-10.3406 6.5711,-11.6833 8.8729,-10.7993 11.0592,-13.0796 9.6654,-9.8803 14.7185,-13.7468 10.8087,-8.3553 13.9036,-9.8303 10.7135,-7.9922 12.5633,-11.1044 10,-10 12,-7 13,-3 10,0 25,0 19,9 5,5 7,5 7,5 7,5 7.0334,6 6.6135,5 7.8956,2.3127 8.4575,2.6873 7.1362,0 7.8638,-3.5109 4.1675,-2.8595 3.8325,-2.6296"
     id="EA_DCC-4"
     inkscape:connector-curvature="0"
     inkscape:label="#path3086"
     sodipodi:nodetypes="cccccccccccccccccccccccccccccccccccccccccccccc" />
  <path
     style="fill:none;stroke:#000000;stroke-width:0.5px;stroke-linecap:butt;stroke-linejoin:miter;stroke-opacity:1"
     d="m 1097.4382,1694.7096 -0.5811,8 -0.2431,4"
     id="EA_END3-6"
     inkscape:connector-curvature="0"
     inkscape:label="#path3106"
     sodipodi:nodetypes="ccc" />
  <path
     style="fill:none;stroke:#000000;stroke-width:0.5px;stroke-linecap:butt;stroke-linejoin:miter;stroke-opacity:1"
     d="m 1097.614,1706.7096 -2,16 -3,7 -6,5"
     id="EA_END2-7"
     inkscape:connector-curvature="0"
     inkscape:label="#path3108"
     sodipodi:nodetypes="cccc" />
  <path
     style="fill:none;stroke:#000000;stroke-width:0.5px;stroke-linecap:butt;stroke-linejoin:miter;stroke-opacity:1"
     d="m 1219.614,1705.7096 -2,16 -3,7 -6,5 -21,14 -18,5 -17,5 -27,11.7829 -10,27.2171 12.2711,25 27.7289,10 25,-10 11,-19 14,-36 15,-35"
     id="EA_START-8"
     inkscape:connector-curvature="0"
     inkscape:label="#path3110"
     sodipodi:nodetypes="ccccccccccccccc" />
  <path
     style="fill:none;stroke:#000000;stroke-width:0.5px;stroke-linecap:butt;stroke-linejoin:miter;stroke-opacity:1"
     d="m 1096.614,1706.7096 -2,16 -3,7 -6,5"
     id="EA_START2-6"
     inkscape:connector-curvature="0"
     inkscape:label="#path3112"
     sodipodi:nodetypes="cccc" />
  <path
     style="fill:none;stroke:#ff00ff;stroke-width:0.5px;stroke-linecap:butt;stroke-linejoin:miter;stroke-opacity:1"
     d="m 1085.614,1734.7096 -21.1717,14.0663 -19.568,5.7989 -24,7 -10,3 -10,9 -6.99997,11 -1,12 1,11 6,10 7.99997,7 10,5 15,4"
     id="EA_E3A-3"
     inkscape:connector-curvature="0"
     inkscape:label="#path3110"
     sodipodi:nodetypes="ccccccccccccc" />
  <path
     style="fill:none;stroke:#ffff00;stroke-width:0.5px;stroke-linecap:butt;stroke-linejoin:miter;stroke-opacity:1"
     d="m 992.614,1802.7096 2.375,7.125 4.5,7.875 7.125,6 8,5 9.125,3 10.875,0 13,-4 11.375,-8.375 5.875,-9.25 7.75,-12.375 5,-15 5,-15 4,-10 6,-15 1,-2"
     id="E3A_EA-4"
     inkscape:connector-curvature="0"
     inkscape:label="#path3132"
     sodipodi:nodetypes="cccccccccccccccc" />
  <path
     style="fill:none;stroke:#000000;stroke-width:0.5px;stroke-linecap:butt;stroke-linejoin:miter;stroke-opacity:1"
     d="m 1382.614,1211.7096 -30,3 -10,1 -10,1"
     id="DCC_START2-8"
     inkscape:connector-curvature="0"
     inkscape:label="#path3082"
     sodipodi:nodetypes="cccc" />
  <path
     style="fill:none;stroke:#000000;stroke-width:0.5px;stroke-linecap:butt;stroke-linejoin:miter;stroke-opacity:1"
     d="m 1120.3874,1732.1351 2.2266,-4.4255 1.7734,-3.5745"
     id="EA_END-6"
     inkscape:connector-curvature="0"
     inkscape:label="#path3106"
     sodipodi:nodetypes="ccc" />
  <path
     style="fill:none;stroke:#000000;stroke-width:0.5;stroke-linecap:butt;stroke-linejoin:miter;stroke-miterlimit:4;stroke-opacity:1;stroke-dasharray:none"
     d="m 1422.614,1256.2721 3,-9 -1,-12 -4,-11 -7,-8 -8,-5 -9,-2 -17,0 -17,0"
     id="DCC_END2-1"
     inkscape:connector-curvature="0"
     sodipodi:nodetypes="ccccccccc"
     inkscape:label="#path3064" />
  <path
     style="fill:none;stroke:#000000;stroke-width:0.26726124px;stroke-linecap:butt;stroke-linejoin:miter;stroke-opacity:1;marker-start:url(#DotL);marker-mid:none;marker-end:url(#Arrow1Lend)"
     d="m 1057.614,1807.7096 -1.25,10 -1.25,10 -1.25,10 -1.25,10 -1.5625,15.3572 -1.5625,15.3571 -1.5625,15.3572 -1.5625,15.3571"
     id="DCC_MCD-2"
     inkscape:connector-curvature="0"
     sodipodi:nodetypes="ccccccccc"
     inkscape:label="#path4689" />
</svg>
