<?xml version="1.0" encoding="UTF-8" standalone="no"?>
<svg
   xmlns:dc="http://purl.org/dc/elements/1.1/"
   xmlns:cc="http://creativecommons.org/ns#"
   xmlns:rdf="http://www.w3.org/1999/02/22-rdf-syntax-ns#"
   xmlns:svg="http://www.w3.org/2000/svg"
   xmlns="http://www.w3.org/2000/svg"
   xmlns:xlink="http://www.w3.org/1999/xlink"
   xmlns:sodipodi="http://sodipodi.sourceforge.net/DTD/sodipodi-0.dtd"
   xmlns:inkscape="http://www.inkscape.org/namespaces/inkscape"
   sodipodi:docname="utown_plaza_path_hybrid.svg"
   height="1920"
   width="1912"
   inkscape:version="0.48.3.1 r9886"
   id="svg2"
   version="1.1">
  <sodipodi:namedview
     pagecolor="#ffffff"
     bordercolor="#666666"
     borderopacity="1"
     objecttolerance="10"
     gridtolerance="10"
     guidetolerance="10"
     inkscape:pageopacity="0"
     inkscape:pageshadow="2"
     inkscape:window-width="1855"
     inkscape:window-height="1056"
     id="namedview32"
     showgrid="false"
     inkscape:zoom="1.8101934"
     inkscape:cx="519.48614"
     inkscape:cy="552.26619"
     inkscape:window-x="1431"
     inkscape:window-y="24"
     inkscape:window-maximized="1"
     inkscape:current-layer="svg2"
     showguides="true"
     inkscape:guide-bbox="true"
     inkscape:snap-midpoints="false"
     inkscape:snap-object-midpoints="false"
     inkscape:snap-bbox="false">
    <inkscape:grid
       type="xygrid"
       id="grid3056"
       empspacing="5"
       visible="true"
       enabled="true"
       snapvisiblegridlinesonly="true" />
  </sodipodi:namedview>
  <metadata
     id="metadata36">
    <rdf:RDF>
      <cc:Work
         rdf:about="">
        <dc:format>image/svg+xml</dc:format>
        <dc:type
           rdf:resource="http://purl.org/dc/dcmitype/StillImage" />
        <dc:title>Paths of the golfcar</dc:title>
      </cc:Work>
    </rdf:RDF>
  </metadata>
  <defs
     id="defs34">
    <marker
       inkscape:stockid="Arrow1Send"
       orient="auto"
       refY="0.0"
       refX="0.0"
       id="Arrow1Send"
       style="overflow:visible;">
      <path
         id="path6236"
         d="M 0.0,0.0 L 5.0,-5.0 L -12.5,0.0 L 5.0,5.0 L 0.0,0.0 z "
         style="fill-rule:evenodd;stroke:#000000;stroke-width:1.0pt;marker-start:none;"
         transform="scale(0.2) rotate(180) translate(6,0)" />
    </marker>
    <marker
       inkscape:stockid="Arrow1Sstart"
       orient="auto"
       refY="0.0"
       refX="0.0"
       id="Arrow1Sstart"
       style="overflow:visible">
      <path
         id="path6233"
         d="M 0.0,0.0 L 5.0,-5.0 L -12.5,0.0 L 5.0,5.0 L 0.0,0.0 z "
         style="fill-rule:evenodd;stroke:#000000;stroke-width:1.0pt;marker-start:none"
         transform="scale(0.2) translate(6,0)" />
    </marker>
    <inkscape:path-effect
       steps="5"
       equidistant_spacing="true"
       trajectory="M 0,0 0,0"
       is_visible="true"
       id="path-effect3660"
       effect="interpolate" />
    <inkscape:path-effect
       phi="5"
       teeth="10"
       is_visible="true"
       id="path-effect3658"
       effect="gears" />
    <marker
       style="overflow:visible"
       id="DotM"
       refX="0.0"
       refY="0.0"
       orient="auto"
       inkscape:stockid="DotM">
      <path
         transform="scale(0.4) translate(7.4, 1)"
         style="fill-rule:evenodd;stroke:#000000;stroke-width:1.0pt;marker-start:none;marker-end:none"
         d="M -2.5,-1.0 C -2.5,1.7600000 -4.7400000,4.0 -7.5,4.0 C -10.260000,4.0 -12.5,1.7600000 -12.5,-1.0 C -12.5,-3.7600000 -10.260000,-6.0 -7.5,-6.0 C -4.7400000,-6.0 -2.5,-3.7600000 -2.5,-1.0 z "
         id="path3704" />
    </marker>
    <marker
       style="overflow:visible"
       id="DotL"
       refX="0.0"
       refY="0.0"
       orient="auto"
       inkscape:stockid="DotL">
      <path
         transform="scale(0.8) translate(7.4, 1)"
         style="fill-rule:evenodd;stroke:#000000;stroke-width:1.0pt;marker-start:none;marker-end:none"
         d="M -2.5,-1.0 C -2.5,1.7600000 -4.7400000,4.0 -7.5,4.0 C -10.260000,4.0 -12.5,1.7600000 -12.5,-1.0 C -12.5,-3.7600000 -10.260000,-6.0 -7.5,-6.0 C -4.7400000,-6.0 -2.5,-3.7600000 -2.5,-1.0 z "
         id="path3701" />
    </marker>
    <marker
       style="overflow:visible;"
       id="Arrow1Lend"
       refX="0.0"
       refY="0.0"
       orient="auto"
       inkscape:stockid="Arrow1Lend">
      <path
         transform="scale(0.8) rotate(180) translate(12.5,0)"
         style="fill-rule:evenodd;stroke:#000000;stroke-width:1.0pt;marker-start:none;"
         d="M 0.0,0.0 L 5.0,-5.0 L -12.5,0.0 L 5.0,5.0 L 0.0,0.0 z "
         id="path3642" />
    </marker>
    <marker
       style="overflow:visible"
       id="Arrow1Lstart"
       refX="0.0"
       refY="0.0"
       orient="auto"
       inkscape:stockid="Arrow1Lstart">
      <path
         transform="scale(0.8) translate(12.5,0)"
         style="fill-rule:evenodd;stroke:#000000;stroke-width:1.0pt;marker-start:none"
         d="M 0.0,0.0 L 5.0,-5.0 L -12.5,0.0 L 5.0,5.0 L 0.0,0.0 z "
         id="path3639" />
    </marker>
    <inkscape:path-effect
       crossing_points_vector=""
       switcher_size="15"
       add_other_stroke_width="true"
       add_stroke_width="true"
       prop_to_stroke_width="true"
       interruption_width="3.6"
       is_visible="true"
       id="path-effect2862"
       effect="knot" />
    <inkscape:path-effect
       crossing_points_vector=""
       switcher_size="15"
       add_other_stroke_width="true"
       add_stroke_width="true"
       prop_to_stroke_width="true"
       interruption_width="3"
       is_visible="true"
       id="path-effect2860"
       effect="knot" />
    <inkscape:path-effect
       steps="5"
       equidistant_spacing="true"
       trajectory="M 0,0 0,0"
       is_visible="true"
       id="path-effect2858"
       effect="interpolate" />
    <inkscape:path-effect
       bendpath4="m 1068.3624,2136.3724 0,121.4273"
       bendpath3="m 1068.3624,2257.7997 48.7175,0"
       bendpath2="m 1117.0799,2136.3724 0,121.4273"
       bendpath1="m 1068.3624,2136.3724 48.7175,0"
       xx="true"
       yy="true"
       is_visible="true"
       id="path-effect2856"
       effect="envelope" />
    <inkscape:path-effect
       tgtlength_rdm="0.3;1"
       tgtlength="100"
       tgtscale="10"
       tgt_places_rdmness="1;1"
       nbtangents="5"
       tremble_frequency="1"
       tremble_size="5;1"
       parallel_offset="5;1"
       ends_tolerance="0.1;1"
       strokeoverlap_rdm="0.3;1"
       strokeoverlap="0.3"
       strokelength_rdm="0.3;1"
       strokelength="100"
       nbiter_approxstrokes="5"
       is_visible="true"
       id="path-effect2854"
       effect="sketch" />
    <inkscape:path-effect
       border_marks="both"
       mark_dir="left"
       offset="0"
       shift="0"
       major_mark_steps="5"
       minor_mark_length="7"
       mark_length="14"
       mark_distance="20"
       unit="px"
       is_visible="true"
       id="path-effect2852"
       effect="ruler" />
    <inkscape:path-effect
       border_marks="both"
       mark_dir="left"
       offset="0"
       shift="0"
       major_mark_steps="5"
       minor_mark_length="7"
       mark_length="14"
       mark_distance="20"
       unit="px"
       is_visible="true"
       id="path-effect2850"
       effect="ruler" />
    <inkscape:path-effect
       phi="5"
       teeth="10"
       is_visible="true"
       id="path-effect2848"
       effect="gears" />
    <inkscape:perspective
       id="perspective38"
       inkscape:persp3d-origin="1528.5 : 1178.6667 : 1"
       inkscape:vp_z="3057 : 1768 : 1"
       inkscape:vp_y="0 : 1000 : 0"
       inkscape:vp_x="0 : 1768 : 1"
       sodipodi:type="inkscape:persp3d" />
    <inkscape:perspective
       sodipodi:type="inkscape:persp3d"
       inkscape:vp_x="0 : 0.5 : 1"
       inkscape:vp_y="0 : 1000 : 0"
       inkscape:vp_z="1 : 0.5 : 1"
       inkscape:persp3d-origin="0.5 : 0.33333333 : 1"
       id="perspective2947" />
    <inkscape:perspective
       sodipodi:type="inkscape:persp3d"
       inkscape:vp_x="0 : 0.5 : 1"
       inkscape:vp_y="0 : 1000 : 0"
       inkscape:vp_z="1 : 0.5 : 1"
       inkscape:persp3d-origin="0.5 : 0.33333333 : 1"
       id="perspective2824" />
    <inkscape:perspective
       sodipodi:type="inkscape:persp3d"
       inkscape:vp_x="0 : 0.5 : 1"
       inkscape:vp_y="0 : 1000 : 0"
       inkscape:vp_z="1 : 0.5 : 1"
       inkscape:persp3d-origin="0.5 : 0.33333333 : 1"
       id="perspective2960" />
    <inkscape:perspective
       sodipodi:type="inkscape:persp3d"
       inkscape:vp_x="0 : 0.5 : 1"
       inkscape:vp_y="0 : 1000 : 0"
       inkscape:vp_z="1 : 0.5 : 1"
       inkscape:persp3d-origin="0.5 : 0.33333333 : 1"
       id="perspective3024" />
    <inkscape:perspective
       sodipodi:type="inkscape:persp3d"
       inkscape:vp_x="0 : 0.5 : 1"
       inkscape:vp_y="0 : 1000 : 0"
       inkscape:vp_z="1 : 0.5 : 1"
       inkscape:persp3d-origin="0.5 : 0.33333333 : 1"
       id="perspective3088" />
    <inkscape:perspective
       sodipodi:type="inkscape:persp3d"
       inkscape:vp_x="0 : 0.5 : 1"
       inkscape:vp_y="0 : 1000 : 0"
       inkscape:vp_z="1 : 0.5 : 1"
       inkscape:persp3d-origin="0.5 : 0.33333333 : 1"
       id="perspective3152" />
    <inkscape:perspective
       sodipodi:type="inkscape:persp3d"
       inkscape:vp_x="0 : 0.5 : 1"
       inkscape:vp_y="0 : 1000 : 0"
       inkscape:vp_z="1 : 0.5 : 1"
       inkscape:persp3d-origin="0.5 : 0.33333333 : 1"
       id="perspective3216" />
    <inkscape:perspective
       sodipodi:type="inkscape:persp3d"
       inkscape:vp_x="0 : 0.5 : 1"
       inkscape:vp_y="0 : 1000 : 0"
       inkscape:vp_z="1 : 0.5 : 1"
       inkscape:persp3d-origin="0.5 : 0.33333333 : 1"
       id="perspective3280" />
    <inkscape:perspective
       sodipodi:type="inkscape:persp3d"
       inkscape:vp_x="0 : 0.5 : 1"
       inkscape:vp_y="0 : 1000 : 0"
       inkscape:vp_z="1 : 0.5 : 1"
       inkscape:persp3d-origin="0.5 : 0.33333333 : 1"
       id="perspective3344" />
    <inkscape:perspective
       sodipodi:type="inkscape:persp3d"
       inkscape:vp_x="0 : 0.5 : 1"
       inkscape:vp_y="0 : 1000 : 0"
       inkscape:vp_z="1 : 0.5 : 1"
       inkscape:persp3d-origin="0.5 : 0.33333333 : 1"
       id="perspective3408" />
    <inkscape:perspective
       sodipodi:type="inkscape:persp3d"
       inkscape:vp_x="0 : 0.5 : 1"
       inkscape:vp_y="0 : 1000 : 0"
       inkscape:vp_z="1 : 0.5 : 1"
       inkscape:persp3d-origin="0.5 : 0.33333333 : 1"
       id="perspective3628" />
    <inkscape:perspective
       sodipodi:type="inkscape:persp3d"
       inkscape:vp_x="0 : 0.5 : 1"
       inkscape:vp_y="0 : 1000 : 0"
       inkscape:vp_z="1 : 0.5 : 1"
       inkscape:persp3d-origin="0.5 : 0.33333333 : 1"
       id="perspective2848" />
    <inkscape:perspective
       sodipodi:type="inkscape:persp3d"
       inkscape:vp_x="0 : 0.5 : 1"
       inkscape:vp_y="0 : 1000 : 0"
       inkscape:vp_z="1 : 0.5 : 1"
       inkscape:persp3d-origin="0.5 : 0.33333333 : 1"
       id="perspective3658" />
    <inkscape:perspective
       sodipodi:type="inkscape:persp3d"
       inkscape:vp_x="0 : 0.5 : 1"
       inkscape:vp_y="0 : 1000 : 0"
       inkscape:vp_z="1 : 0.5 : 1"
       inkscape:persp3d-origin="0.5 : 0.33333333 : 1"
       id="perspective3691" />
    <inkscape:perspective
       sodipodi:type="inkscape:persp3d"
       inkscape:vp_x="0 : 0.5 : 1"
       inkscape:vp_y="0 : 1000 : 0"
       inkscape:vp_z="1 : 0.5 : 1"
       inkscape:persp3d-origin="0.5 : 0.33333333 : 1"
       id="perspective3713" />
    <inkscape:perspective
       sodipodi:type="inkscape:persp3d"
       inkscape:vp_x="0 : 0.5 : 1"
       inkscape:vp_y="0 : 1000 : 0"
       inkscape:vp_z="1 : 0.5 : 1"
       inkscape:persp3d-origin="0.5 : 0.33333333 : 1"
       id="perspective3735" />
    <inkscape:perspective
       sodipodi:type="inkscape:persp3d"
       inkscape:vp_x="0 : 0.5 : 1"
       inkscape:vp_y="0 : 1000 : 0"
       inkscape:vp_z="1 : 0.5 : 1"
       inkscape:persp3d-origin="0.5 : 0.33333333 : 1"
       id="perspective3757" />
    <inkscape:perspective
       sodipodi:type="inkscape:persp3d"
       inkscape:vp_x="0 : 0.5 : 1"
       inkscape:vp_y="0 : 1000 : 0"
       inkscape:vp_z="1 : 0.5 : 1"
       inkscape:persp3d-origin="0.5 : 0.33333333 : 1"
       id="perspective2910" />
    <marker
       style="overflow:visible"
       id="DotM-1"
       refX="0"
       refY="0"
       orient="auto"
       inkscape:stockid="DotM">
      <path
         transform="matrix(0.4,0,0,0.4,2.96,0.4)"
         style="fill-rule:evenodd;stroke:#000000;stroke-width:1pt;marker-start:none;marker-end:none"
         d="m -2.5,-1 c 0,2.76 -2.24,5 -5,5 -2.76,0 -5,-2.24 -5,-5 0,-2.76 2.24,-5 5,-5 2.76,0 5,2.24 5,5 z"
         id="path3704-5" />
    </marker>
    <inkscape:perspective
       sodipodi:type="inkscape:persp3d"
       inkscape:vp_x="0 : 0.5 : 1"
       inkscape:vp_y="0 : 1000 : 0"
       inkscape:vp_z="1 : 0.5 : 1"
       inkscape:persp3d-origin="0.5 : 0.33333333 : 1"
       id="perspective3012" />
    <inkscape:perspective
       sodipodi:type="inkscape:persp3d"
       inkscape:vp_x="0 : 0.5 : 1"
       inkscape:vp_y="0 : 1000 : 0"
       inkscape:vp_z="1 : 0.5 : 1"
       inkscape:persp3d-origin="0.5 : 0.33333333 : 1"
       id="perspective2903" />
    <marker
       style="overflow:visible"
       id="DotM-5"
       refX="0"
       refY="0"
       orient="auto"
       inkscape:stockid="DotM">
      <path
         transform="matrix(0.4,0,0,0.4,2.96,0.4)"
         style="fill-rule:evenodd;stroke:#000000;stroke-width:1pt;marker-start:none;marker-end:none"
         d="m -2.5,-1 c 0,2.76 -2.24,5 -5,5 -2.76,0 -5,-2.24 -5,-5 0,-2.76 2.24,-5 5,-5 2.76,0 5,2.24 5,5 z"
         id="path3704-9" />
    </marker>
    <inkscape:perspective
       sodipodi:type="inkscape:persp3d"
       inkscape:vp_x="0 : 0.5 : 1"
       inkscape:vp_y="0 : 1000 : 0"
       inkscape:vp_z="1 : 0.5 : 1"
       inkscape:persp3d-origin="0.5 : 0.33333333 : 1"
       id="perspective2889" />
    <filter
       id="filter3830"
       inkscape:label="Colorize"
       inkscape:menu="Color"
       inkscape:menu-tooltip="Blend image or object with a flood color and set lightness and contrast"
       x="0"
       y="0"
       width="1"
       height="1"
       color-interpolation-filters="sRGB">
      <feColorMatrix
         id="feColorMatrix3832"
         values="1"
         in="SourceGraphic"
         type="saturate"
         result="result2" />
      <feFlood
         id="feFlood3834"
         flood-color="rgb(254,102,0)"
         flood-opacity="1"
         result="result1" />
      <feBlend
         id="feBlend3836"
         in2="result2"
         mode="multiply"
         in="result1"
         result="result3" />
      <feComposite
         id="feComposite3838"
         in2="SourceGraphic"
         operator="in"
         k2="1"
         result="result4" />
    </filter>
    <marker
       style="overflow:visible"
       id="DotM-7"
       refX="0"
       refY="0"
       orient="auto"
       inkscape:stockid="DotM">
      <path
         inkscape:connector-curvature="0"
         transform="matrix(0.4,0,0,0.4,2.96,0.4)"
         style="fill-rule:evenodd;stroke:#000000;stroke-width:1pt;marker-start:none;marker-end:none"
         d="m -2.5,-1 c 0,2.76 -2.24,5 -5,5 -2.76,0 -5,-2.24 -5,-5 0,-2.76 2.24,-5 5,-5 2.76,0 5,2.24 5,5 z"
         id="path3704-3" />
    </marker>
    <marker
       style="overflow:visible"
       id="DotM-70"
       refX="0"
       refY="0"
       orient="auto"
       inkscape:stockid="DotM">
      <path
         inkscape:connector-curvature="0"
         transform="matrix(0.4,0,0,0.4,2.96,0.4)"
         style="fill-rule:evenodd;stroke:#000000;stroke-width:1pt;marker-start:none;marker-end:none"
         d="m -2.5,-1 c 0,2.76 -2.24,5 -5,5 -2.76,0 -5,-2.24 -5,-5 0,-2.76 2.24,-5 5,-5 2.76,0 5,2.24 5,5 z"
         id="path3704-8" />
    </marker>
  </defs>
  <title
     id="title4">Paths of the golfcar</title>
  <desc
     id="desc6">The paths consist of all the possible route that can be taken by the golfcart to serve 4 stations: DCC, MCD, EA and E3A</desc>
  <image
     sodipodi:absref="/home/golfcar/SvgPath/utown_square_map_0.2.png"
     xlink:href="/home/liuwlz/smartfm/bookingUI/shared/SvgPath/utown_square_map_0.05.png"
     inkscape:label="#image3014"
     y="8.0625"
     x="0"
     id="map"
     height="1912"
     width="1920"
     style="font-size:14px;fill:#aa4400" />
  <path
     style="fill:none;stroke:#ff0000;stroke-width:0.5px;stroke-linecap:butt;stroke-linejoin:miter;stroke-opacity:1"
     d="m 970,825 2.91553,-3.375 1.88916,-2.74609 1.74437,-2.15904 1.20017,-3.32458 0.3469,-4.45841 0.55328,-3.55436 L 978.53531,802"
     id="DCC_MCD"
     inkscape:connector-curvature="0"
     inkscape:label="#path3076"
     sodipodi:nodetypes="cccccccc" />
  <path
     style="fill:none;stroke:#ffff00;stroke-width:0.5px;stroke-linecap:butt;stroke-linejoin:miter;stroke-opacity:1"
     d="m 976,819 2.3444,-2.69913 0.75326,-3.61728 0.43905,-3.81826 -0.41889,-3.80335 -0.12954,-4.67135 L 977.25,795 975,790 l -2.85158,-5 -4.70908,-5 -2.8867,-2.9215 L 960,775 l -3.78658,-1.62153 -4.0973,-0.42888 -6.3191,-0.13039 L 940,772.69959"
     inkscape:connector-curvature="0"
     inkscape:label="#path3080"
     sodipodi:nodetypes="cccccccccccccccc"
     id="MCD_DCC" />
  <path
     style="fill:none;stroke:#000000;stroke-width:0.57400507px;stroke-linecap:butt;stroke-linejoin:miter;stroke-opacity:1"
     d="m 939.03789,773.34095 -5.44388,0.0284 -5.59401,0.0291 -4.36766,0.0955 L 918,773.6172"
     id="DCC_END"
     inkscape:connector-curvature="0"
     inkscape:label="#path3082"
     sodipodi:nodetypes="ccccc" />
  <path
     style="fill:none;stroke:#000000;stroke-width:0.5px;stroke-linecap:butt;stroke-linejoin:miter;stroke-opacity:1"
     d="m 935,775 -4.28575,1.52983 L 928,778 925.51192,779.99047 923,782"
     inkscape:connector-curvature="0"
     inkscape:label="#path3084"
     sodipodi:nodetypes="ccccc"
     id="DCC_START" />
  <path
     style="fill:none;stroke:#0000ff;stroke-width:0.5px;stroke-linecap:butt;stroke-linejoin:miter;stroke-opacity:1"
     d="m 885.54106,779 -5.41295,0 -5.12811,0 -5.26365,0.12914 -7.42393,0.18215 -6.63068,0.84255 -3.95446,0.57063 -3.83152,0.68028 -3.03951,0.54143 -3.30625,0.90382 -2.95021,0.80665 -3.18062,0.93194 -3.30394,0.9494 -3.06199,1.37418 -2.91515,1.73602 -2.71844,1.61888 -2.3193,1.38118 -2.83781,1.68996 -2.27872,1.35702 -2.94609,1.88439 -3.77703,2.41588 -2.63697,1.68667 L 803,803 800.23936,805.30053 797,808 794.18843,810.34297 791,813 787.78975,815.67521 785,818 781.49799,820.50143 778,823 l -2.63162,1.9139 -2.95402,2.14838 -2.43179,1.76858 L 767,831 764.45326,833.54674 762,836 759.32608,838.22827 756,841 l -2.69446,2.09569 -2.09629,1.63045 -2.7567,2.79902 L 747,849 l -2.28605,2.00029 -1.8664,1.6331 -2.01327,1.76161 L 739,856 l -2.56346,2.27863 -2.06003,1.83114 -2.27182,2.01939 L 730,864 l -2.78431,3.09367 -2.2164,2.46267 -2.29458,2.54954 L 721,874 l -1.56909,2.09211 -1.39126,1.85502 -1.50219,2.00292 -1.56312,2.08416 L 713,884 l -1,2 -1.9566,2.51563 -1.47913,1.90173 -1.79149,2.30334 L 705,895 l -1.45041,2.65908 -1.29934,2.38213 -1.30044,2.86574 L 700,905 l -1.10181,2.47907 -0.91783,2.06513 -1.17577,2.64547 L 696,914 l -0.79886,2.59629 -0.68231,2.21751 -0.87713,2.85068 -0.65175,2.11818 -0.89214,2.33904 L 691,929 l -0.56078,2.80387 -0.48015,2.40076 -0.56146,2.80731 -0.52299,2.61497 -0.46151,2.30754 L 688,944 687.45309,946.73457 687,949 l -0.37515,2.8136 -0.24256,1.81921 -0.32559,2.44192 -0.39464,2.9598 -0.34148,2.56115 L 685,964 684.37995,967.72027 684,970 683.45326,972.73372 683,975 l -0.3199,2.23933 -0.26601,1.86204 -0.42978,3.00847 -0.31622,2.21351 -0.36684,2.5679 L 681,989 l -0.41575,2.91025 -0.36749,2.57246 -0.39335,2.75343 -0.39154,2.74079 -0.36647,2.56527 -0.37599,2.632 -0.33959,2.3771 L 678,1010 l -0.43918,2.7815 -0.36856,2.3342 -0.36758,2.328 -0.3713,2.3516 -0.42276,2.6775 -0.40929,2.5921 -0.3035,2.4106 L 675,1030 674.47504,1033.1497 674,1036 673.48702,1039.0779 673,1042 l -0.35081,2.4557 -0.31064,2.1745 -0.31868,2.2307 -0.33009,2.3107 -0.36711,2.5698 L 671,1056 l -0.68026,4.0815 -0.73577,4.4147 -0.28203,2.6581 L 669,1070 l -0.77586,4.6552 -0.10684,2.5477 L 668,1080 l -0.82618,5.1466 -0.54103,3.3703 -0.50204,3.1275 -0.80621,5.0222 -0.46242,2.8806 -0.51624,3.2159 -0.33999,2.6529 -0.3039,2.3713 -0.55751,4.3502 -0.34379,2.6825 -0.4269,3.3311 -0.39584,3.0887 -0.26417,2.0613 -0.32846,2.8875 -0.34344,3.0193 -0.65692,3.652 L 660,1135 l -0.46839,4.9873 -0.23149,2.4649 -0.27663,2.9455 -0.26276,2.7978 -0.2415,2.5714 -0.33285,3.5442 -0.26864,2.9294 -0.19913,2.1715 -0.29428,3.2091 -0.2158,2.3532 -0.27762,3.0274 -0.23466,2.5589 -0.34761,3.7905 -0.27721,3.0229 -0.2887,3.1483 -0.2623,2.8603 -0.30185,3.2916 -0.23117,2.5208 -0.27855,3.2635 -0.20505,2.4024 -0.23643,2.7701 -0.20244,2.3718 -0.22004,2.578 -0.21627,2.5339 -0.25312,2.9656 -0.19881,2.3293 -0.21716,2.5444 -0.1986,2.3268 -0.37639,4.4099 -0.16398,2.2641 L 652,1225 l -0.49525,2.4763 -0.30475,3.0237 -0.32759,1.989 -0.1283,2.5028 -0.11448,2.2332 -0.14832,2.8934 -0.19568,3.8173 -0.15773,3.077 -0.15086,2.9429 -0.17927,3.4971 -0.1436,2.8013 -0.13727,2.6779 -0.14184,2.767 -0.13093,2.5541 -0.15143,2.954 -0.10691,2.0856"
     id="DCC_EA"
     inkscape:connector-curvature="0"
     inkscape:label="#path3086"
     sodipodi:nodetypes="cccccccccccccccccccccccccccccccccccccccccccccccccccccccccccccccccccccccccccccccccccccccccccccccccccccccccccccccccccccccccccccccccccccccccccccccccccccccccccccccccccccccccccccccccccccccccccccccccccccccc" />
  <path
     style="fill:none;stroke:#00ff00;stroke-width:0.5px;stroke-linecap:butt;stroke-linejoin:miter;stroke-opacity:1"
     d="m 650,1295 0.36154,-3.6154 0.44132,-4.4132 0.3918,-3.918 0.45533,-4.5533 0.60882,-5.2397 0.45534,-5.4019 0.37638,-3.7638 0.46486,-4.6486 0.56947,-5.6947 0.29498,-4.6351 0.29808,-4.6839 L 655,1240 l 0.98071,-6.7046 0.59977,-4.1002 0.46701,-4.6701 0.36965,-3.6965 0.38678,-3.8678 0.67597,-6.7597 0.48795,-4.8795 0.48939,-4.8939 L 660,1195 l 0.3889,-3.0181 0.52677,-4.088 0.62778,-4.8719 0.35727,-3.9299 0.43237,-4.7561 0.44925,-4.9417 0.40275,-4.4303 0.46252,-5.0876 0.37072,-4.078 0.29812,-3.2794 0.37094,-4.0803 L 665,1145 l 0.29186,-2.9186 0.39766,-3.9766 0.31439,-3.1439 0.32259,-3.9474 0.33199,-4.0625 0.37282,-4.5622 0.41789,-3.5234 0.4466,-3.7654 0.60048,-5.0628 0.51591,-5.1591 0.48307,-4.8307 L 670,1095 l 0.63157,-5.6841 0.53981,-4.8583 0.49887,-4.4899 0.45637,-5.5105 0.39839,-4.8104 0.38484,-4.6468 0.67633,-4.8537 0.7314,-5.2489 L 675,1050 l 1.0505,-5.7778 0.76296,-4.1962 0.96803,-5.3242 0.9553,-5.2541 0.77115,-4.2414 1.01642,-5.5903 0.88426,-4.8634 0.89831,-4.9407 0.80827,-4.4455 0.49279,-2.7104 0.65393,-3.59655 L 685,995 l 1.133,-5.665 0.8594,-4.297 0.67357,-3.36783 0.88205,-4.41027 1.45198,-5.09657 0.24963,-3.41146 0.57743,-2.88717 0.74518,-3.72588 0.75791,-3.78958 0.6998,-3.499 0.99538,-4.9769 L 695,945 l 0.98302,-2.94906 1.4068,-4.2204 1.46403,-4.39208 1.39975,-4.19927 1.55593,-4.66778 1.23714,-3.71143 1.22357,-3.6707 1.28692,-3.86077 1.13111,-3.39333 0.8912,-2.67359 1.18793,-3.56379 L 710,900 l 2.83436,-3.96811 2.55531,-3.57743 1.83063,-2.56288 2.52263,-3.53168 1.69059,-2.36683 2.39912,-3.35877 2.5513,-3.57182 1.21288,-1.69803 2.75262,-3.85366 2.30285,-3.224 L 735,865 737.5935,862.4065 740,860 l 3.03817,-3.03817 3.5355,-3.5355 L 750,850 l 4.06569,-3.91489 2.93429,-3.08509 L 760,840 762.44325,837.50129 765,835 l 5,-5 2.73799,-2.04698 2.86165,-2.15275 4.54475,-3.40856 3.74255,-2.80691 3.84551,-3.20051 4.21209,-3.50561 4.00247,-2.69238 4.57108,-3.07487 4.60674,-3.45506 L 810,800 l 5,-2.72778 5,-2.27222 5.4,-2.19998 6.60936,-0.79999 7.1391,-0.6 7.15153,0.6 8.67395,2.04565 7.39901,1.79983 7.14798,2.42465 L 875,800 l 5.27148,2.63574 5.13586,2.56793 4.98982,2.49491 L 895,810 l 4.50123,3.00082 3.68066,2.45377 3.20541,2.13694 L 910,820 914.96592,822.48296 920,825 924.80876,827.40438 930,830 l 5.75579,1.30008 5.72885,1.294 4.4791,0.39971 5.67248,0.50621 3.52035,-0.85846 4.84343,-1.1811 4.23616,-2.89141 L 968,826"
     id="EA_DCC"
     inkscape:connector-curvature="0"
     inkscape:label="#path3086"
     sodipodi:nodetypes="ccccccccccccccccccccccccccccccccccccccccccccccccccccccccccccccccccccccccccccccccccccccccccccccccccccccccccccccccccccccccccccccccccccccccccccccccccccccccc" />
  <path
     style="fill:none;stroke:#000000;stroke-width:0.5px;stroke-linecap:butt;stroke-linejoin:miter;stroke-opacity:1"
     d="m 649.82422,1257 -0.58115,8 -0.24307,4"
     id="EA_END3"
     inkscape:connector-curvature="0"
     inkscape:label="#path3106"
     sodipodi:nodetypes="ccc" />
  <path
     style="fill:none;stroke:#000000;stroke-width:0.5px;stroke-linecap:butt;stroke-linejoin:miter;stroke-opacity:1"
     d="m 650,1269 -1.07884,8.6307 L 648,1285 l -3,7 -6,5"
     id="EA_END2"
     inkscape:connector-curvature="0"
     inkscape:label="#path3108"
     sodipodi:nodetypes="ccccc" />
  <path
     style="fill:none;stroke:#000000;stroke-width:0.5px;stroke-linecap:butt;stroke-linejoin:miter;stroke-opacity:1"
     d="m 648,1269 -0.925,7.4 -1.075,8.6 -3,7 -6,5 -2.79804,1.8654 -1.85433,1.2362 -2.08317,1.3888 -1.88205,1.2547 -1.36314,0.9087 -2.27571,1.5171 -1.27237,0.8483 -2.2033,1.4689 -1.3592,0.9061 -2.13279,1.4219 L 616,1311 l -3.18944,0.8859 -2.76754,0.7688 -3.80373,1.0566 L 604,1314 l -1.98026,0.8834 -1.84216,0.5117 L 598,1316 l -2.34225,0.6889 -1.96524,0.578 -3.83041,1.1266 -2.28196,0.6711 -2.50268,0.7361 -2.10271,0.6185 L 581,1321 l -3,1 -2.02489,1.1929 -1.71742,0.7495 -2.08086,0.9081 -1.83406,0.8004 -1.76089,0.7684 -1.84624,0.8057 -2.17828,0.9506 -1.65132,0.7206 -1.73363,0.7566 -2.04413,0.8921 -1.9508,0.8513 L 555,1333 553.53417,1334.4658 552,1336 550.9155,1338.169 550,1340 548.83582,1341.7463 548,1343 547.10728,1344.7854 546,1347 545.46039,1349.1584 545,1351 544.52036,1352.9185 544,1355 l 0,2.9964 0,2.0036 0,4 2,3 0.90035,1.8007 L 548,1371 l 1.19136,2.3827 L 550,1375 l 1.02376,1.5356 L 552,1378 l 1.11243,1.6686 L 554,1381 l 1.42786,1.9038 L 557,1385 l 2.46585,1.4795 L 562,1388 l 4,2 3,1 2.08758,0.5219 L 573,1392 l 1.88096,0.4702 L 577,1393 l 3,1 2.0928,0.5232 L 584,1395 l 4,0 3,-1 2,-1 3,-1 2,-1 3,-1 2,-1 2,-1 3,-2 2,-2 2,-3 1.55075,-2.7994 1.43523,-1.5563 1.43761,-2.1442 1.28175,-2.2139 1.08885,-1.8808 1.06869,-1.8459 1.24197,-2.1452 1.11616,-2.0746 0.60476,-2.745 0.67785,-2.3146 0.9356,-2.447 1.11621,-2.8968 0.9687,-2.556 0.68002,-1.7785 1.14856,-3.0039 0.83006,-2.3356 0.66936,-2.1064 0.84797,-2.2178 1.21609,-3.1805 0.87976,-2.3009 0.78999,-2.0661 1.12128,-2.4706 0.85745,-3.5709 0.73911,-1.7246 1.01628,-2.3713 0.68076,-1.5884 0.92269,-2.153 0.84384,-1.9689 1.09581,-2.5569 0.77313,-1.804 0.87881,-2.0506 0.67193,-1.5678 0.88626,-2.0679 1.03025,-2.4039 1.41372,-3.2987 1.10257,-2.5727 L 649,1295"
     id="EA_START"
     inkscape:connector-curvature="0"
     inkscape:label="#path3110"
     sodipodi:nodetypes="cccccccccccccccccccccccccccccccccccccccccccccccccccccccccccccccccccccccccccccccccccccccccccccccccccccccccccccccccccccccccccccccc" />
  <path
     style="fill:none;stroke:#000000;stroke-width:0.5px;stroke-linecap:butt;stroke-linejoin:miter;stroke-opacity:1"
     d="m 649,1269 -1.02884,8.2307 L 647,1285 l -3,7 -6,5"
     id="EA_START2"
     inkscape:connector-curvature="0"
     inkscape:label="#path3112"
     sodipodi:nodetypes="ccccc" />
  <path
     style="fill:none;stroke:#ff00ff;stroke-width:0.5px;stroke-linecap:butt;stroke-linejoin:miter;stroke-opacity:1"
     d="m 638,1297 -2.31205,1.5361 -2.20689,1.4662 -1.71324,1.1383 -2.474,1.6437 -1.93633,1.2865 -2.68392,1.7832 -1.7103,1.1363 -2.08729,1.3867 -1.7838,1.1852 -2.2639,1.5041 -2.77565,0.8225 -2.65559,0.787 -4.2538,1.2606 -2.59781,0.7699 -2.43056,0.7203 -4.85454,1.4386 -3.0098,0.8778 -2.56552,0.7483 -2.14276,0.625 -2.53004,0.7379 -3.7656,1.0983 -2.68375,0.7828 -2.36105,0.6886 -4.94148,1.4413 -3.75067,1.1252 -3.29702,0.9891 -2.95231,0.8857 -2.41386,2.1725 -2.36879,2.1319 -2.63467,2.3712 -2.58268,2.3244 -1.55409,2.4421 -1.64705,2.5883 -1.87868,2.9522 -1.92018,3.0174 -0.32847,3.9416 -0.3237,3.8845 -0.34783,4.1739 L 545,1364 l 1.26033,5.8652 1.19233,3.1051 0.78976,2.0568 L 549,1377 l 2.11318,1.8571 1.14715,1.0081 0.80804,0.707 1.47678,1.2922 1.68764,1.4767 1.03063,0.9018 1.42672,1.2484 1.57019,1.3739 0.93442,0.4672 1.75361,0.8768 1.32935,0.6647 2.02829,1.0141 1.3658,0.6829 1.2162,0.6081 1.37233,0.6862 1.4371,0.3832 1.76041,0.4695 1.99629,0.5323 1.53335,0.4089 2.17411,0.5798 1.80443,0.4811 1.74281,0.4648 2.5515,0.6804"
     id="EA_E3A"
     inkscape:connector-curvature="0"
     inkscape:label="#path3110"
     sodipodi:nodetypes="ccccccccccccccccccccccccccccccccccccccccccccccccccccccccccccccccccc" />
  <path
     style="fill:none;stroke:#ffff00;stroke-width:0.5px;stroke-linecap:butt;stroke-linejoin:miter;stroke-opacity:1"
     d="m 545,1365 0.51145,1.5343 0.74245,2.2274 0.5374,1.6122 0.5837,1.7511 0.80075,1.9095 L 549,1376 l 0.98453,1.3698 0.90166,1.2545 0.98881,1.3757 1.9634,1.6534 1.49591,1.2597 1.11486,0.9388 1.38486,1.1662 L 559,1386 l 2.23507,1.3969 1.66526,1.0408 1.17585,0.7349 1.48094,0.9256 L 567,1391 l 1.76916,0.5816 1.59269,0.5237 1.65738,0.5449 1.08307,0.356 1.8698,0.6148 1.1529,0.379 1.92974,0 2.1213,0 1.90917,0 2.47485,0 2.43994,0 2.08742,-0.6423 1.41115,-0.4342 2.15149,-0.662 1.71957,-0.5291 2.02195,-0.6221 2.25088,-0.6926 L 600,1390 l 2.16225,-1.036 1.71323,-0.8209 1.53831,-0.7371 1.62205,-0.7772 1.38335,-1.5952 0.91954,-1.0604 1.24628,-1.4372 0.78999,-0.911 0.87286,-1.3743 0.8636,-1.3597 1.14556,-1.8036 0.97993,-1.5429 1.12523,-1.7717 0.88782,-1.3978 0.96355,-1.5386 1.13384,-1.8104 0.75183,-1.2005 0.80798,-1.2902 1.24475,-1.9876 1.0503,-1.6771 0.95487,-1.5247 L 625,1360 l 0.44613,-1.3384 0.57275,-1.7182 0.54447,-1.6334 0.5869,-1.7607 0.51226,-1.5368 0.7393,-2.2179 0.55154,-1.6546 0.53739,-1.6122 L 630,1345 l 0.62918,-1.8875 0.67174,-2.0153 0.57983,-1.7394 0.54426,-1.6328 0.56589,-1.6977 0.70709,-2.1213 0.77781,-2.3334 L 635,1330 l 0.73473,-1.8368 0.80463,-2.0116 0.9363,-2.3407 0.91192,-2.2798 L 639,1320 l 1.13673,-2.3101 1.1169,-2.2699 0.7114,-1.4457 0.90997,-1.8493 0.76909,-2.2457 0.63715,-1.8605 0.75413,-2.2021 L 646,1303"
     id="E3A_EA"
     inkscape:connector-curvature="0"
     inkscape:label="#path3132"
     sodipodi:nodetypes="cccccccccccccccccccccccccccccccccccccccccccccccccccccccccccccccccccccccccccccccccccccccccc" />
  <path
     style="fill:none;stroke:#000000;stroke-width:0.5px;stroke-linecap:butt;stroke-linejoin:miter;stroke-opacity:1"
     d="m 935,774 -10.51051,1.05105 -6.44918,0.64492 -5.5403,0.55403 L 905,777 899.33091,777.56691 895,778 890.0294,778.49706 885,779"
     id="DCC_START2"
     inkscape:connector-curvature="0"
     inkscape:label="#path3082"
     sodipodi:nodetypes="ccccccccc" />
  <path
     style="fill:none;stroke:#000000;stroke-width:0.5px;stroke-linecap:butt;stroke-linejoin:miter;stroke-opacity:1"
     d="M 672.7734,1294.4255 675,1290 l 1.7734,-3.5745"
     id="EA_END"
     inkscape:connector-curvature="0"
     inkscape:label="#path3106"
     sodipodi:nodetypes="ccc" />
  <path
     style="fill:none;stroke:#000000;stroke-width:0.5;stroke-linecap:butt;stroke-linejoin:miter;stroke-miterlimit:4;stroke-opacity:1;stroke-dasharray:none"
     d="m 975,818.5625 1.51211,-2.29024 1.02539,-2.58789 0.4625,-4.12187 0.0154,-3.23338 -0.0741,-4.01401 -0.64833,-3.97136 -0.66951,-3.72103 -1.17116,-3.29394 -1.76871,-4.278 -2.00504,-3.46336 -2.12684,-2.2772 -2.57515,-2.65006 -2.95927,-1.9472 -2.57637,-1.75672 L 958,773.5625 954.08897,772.00979 949,771.5625 l -4.95703,0 -4.29292,0 -7.75005,0 -8.74995,0 -8.25005,0"
     id="DCC_END2"
     inkscape:connector-curvature="0"
     sodipodi:nodetypes="ccccccccccccccccccccccc"
     inkscape:label="#path3064" />
  <path
     transform="translate(-445.06567,469.66949)"
     d="m 1313.8263,389.09109 a 128.76059,128.76059 0 1 1 -257.5212,0 128.76059,128.76059 0 1 1 257.5212,0 z"
     sodipodi:ry="128.76059"
     sodipodi:rx="128.76059"
     sodipodi:cy="389.09109"
     sodipodi:cx="1185.0657"
     id="path2905"
     style="fill:none;stroke:#78ff00;stroke-width:1;stroke-miterlimit:4;stroke-opacity:1;stroke-dasharray:none"
     sodipodi:type="arc" />
</svg>
